<?xml version="1.0" encoding="UTF-8" standalone="no"?>
<!-- Created with Inkscape (http://www.inkscape.org/) -->

<svg
   version="1.1"
   id="svg1"
   width="427.19867"
   height="276.03067"
   viewBox="0 0 427.19867 276.03067"
   sodipodi:docname="2DEG_bands.pdf"
   xmlns:inkscape="http://www.inkscape.org/namespaces/inkscape"
   xmlns:sodipodi="http://sodipodi.sourceforge.net/DTD/sodipodi-0.dtd"
   xmlns="http://www.w3.org/2000/svg"
   xmlns:svg="http://www.w3.org/2000/svg">
  <defs
     id="defs1" />
  <sodipodi:namedview
     id="namedview1"
     pagecolor="#ffffff"
     bordercolor="#000000"
     borderopacity="0.25"
     inkscape:showpageshadow="2"
     inkscape:pageopacity="0.0"
     inkscape:pagecheckerboard="0"
     inkscape:deskcolor="#d1d1d1">
    <inkscape:page
       x="0"
       y="0"
       inkscape:label="1"
       id="page1"
       width="427.19867"
       height="276.03067"
       margin="0"
       bleed="0" />
  </sodipodi:namedview>
  <g
     id="g1"
     inkscape:groupmode="layer"
     inkscape:label="1">
    <path
       id="path1"
       d="M -7.08669,24.09494 H -120.47392"
       style="fill:none;stroke:#000000;stroke-width:1.19553;stroke-linecap:butt;stroke-linejoin:miter;stroke-miterlimit:10;stroke-dasharray:none;stroke-opacity:1"
       transform="matrix(1.3333333,0,0,-1.3333333,207.14533,139.62667)" />
    <path
       id="path2"
       d="M 7.08669,-21.2601 H 120.47392"
       style="fill:none;stroke:#000000;stroke-width:1.19553;stroke-linecap:butt;stroke-linejoin:miter;stroke-miterlimit:10;stroke-dasharray:none;stroke-opacity:1"
       transform="matrix(1.3333333,0,0,-1.3333333,207.14533,139.62667)" />
    <path
       id="path3"
       d="M 0,-48.18947 V 22.67754"
       style="fill:none;stroke:#000000;stroke-width:0.3985;stroke-linecap:butt;stroke-linejoin:miter;stroke-miterlimit:10;stroke-dasharray:2.98883, 2.98883;stroke-dashoffset:0;stroke-opacity:1"
       transform="matrix(1.3333333,0,0,-1.3333333,207.14533,139.62667)" />
    <text
       id="text3"
       xml:space="preserve"
       transform="matrix(1.3333333,0,0,1.3333333,43.912,127.60267)"><tspan
         id="tspan3"
         style="font-variant:normal;font-weight:700;font-size:20.6625px;font-family:'Latin Modern Roman';writing-mode:lr-tb;fill:#f9123c;fill-opacity:1;fill-rule:nonzero;stroke:none"
         x="0"
         y="0">+</tspan></text>
    <text
       id="text4"
       xml:space="preserve"
       transform="matrix(1.3333333,0,0,1.3333333,72.257333,127.60267)"><tspan
         id="tspan4"
         style="font-variant:normal;font-weight:700;font-size:20.6625px;font-family:'Latin Modern Roman';writing-mode:lr-tb;fill:#f9123c;fill-opacity:1;fill-rule:nonzero;stroke:none"
         x="0"
         y="0">+</tspan></text>
    <text
       id="text5"
       xml:space="preserve"
       transform="matrix(1.3333333,0,0,1.3333333,100.604,127.60267)"><tspan
         id="tspan5"
         style="font-variant:normal;font-weight:700;font-size:20.6625px;font-family:'Latin Modern Roman';writing-mode:lr-tb;fill:#f9123c;fill-opacity:1;fill-rule:nonzero;stroke:none"
         x="0"
         y="0">+</tspan></text>
    <text
       id="text6"
       xml:space="preserve"
       transform="matrix(1.3333333,0,0,1.3333333,128.95067,127.60267)"><tspan
         id="tspan6"
         style="font-variant:normal;font-weight:700;font-size:20.6625px;font-family:'Latin Modern Roman';writing-mode:lr-tb;fill:#f9123c;fill-opacity:1;fill-rule:nonzero;stroke:none"
         x="0"
         y="0">+</tspan></text>
    <path
       id="path6"
       d="m -83.62299,34.01608 h 11.33855"
       style="fill:none;stroke:#122d8d;stroke-width:1.19553;stroke-linecap:butt;stroke-linejoin:miter;stroke-miterlimit:10;stroke-dasharray:none;stroke-opacity:1"
       transform="matrix(1.3333333,0,0,-1.3333333,207.14533,139.62667)" />
    <path
       id="path7"
       d="m -62.36288,34.01608 h 11.33854"
       style="fill:none;stroke:#122d8d;stroke-width:1.19553;stroke-linecap:butt;stroke-linejoin:miter;stroke-miterlimit:10;stroke-dasharray:none;stroke-opacity:1"
       transform="matrix(1.3333333,0,0,-1.3333333,207.14533,139.62667)" />
    <path
       id="path8"
       d="m -41.10277,34.01608 h 11.33855"
       style="fill:none;stroke:#122d8d;stroke-width:1.19553;stroke-linecap:butt;stroke-linejoin:miter;stroke-miterlimit:10;stroke-dasharray:none;stroke-opacity:1"
       transform="matrix(1.3333333,0,0,-1.3333333,207.14533,139.62667)" />
    <path
       id="path9"
       d="M -19.84267,34.01608 H -8.50412"
       style="fill:none;stroke:#122d8d;stroke-width:1.19553;stroke-linecap:butt;stroke-linejoin:miter;stroke-miterlimit:10;stroke-dasharray:none;stroke-opacity:1"
       transform="matrix(1.3333333,0,0,-1.3333333,207.14533,139.62667)" />
    <path
       id="path10"
       d="M -4.25183,35.43349 C 16.082,37.21252 12.60379,9.33737 14.77081,-12.31493"
       style="fill:none;stroke:#122d8d;stroke-width:0.79701;stroke-linecap:butt;stroke-linejoin:miter;stroke-miterlimit:10;stroke-dasharray:none;stroke-opacity:1"
       transform="matrix(1.3333333,0,0,-1.3333333,207.14533,139.62667)" />
    <path
       id="path11"
       d="M 4.53381,0 C 3.97704,0.13808 1.52963,0.92049 0,1.77196 V -1.77196 C 1.52963,-0.92049 3.97704,-0.13808 4.53381,0 Z"
       style="fill:#122d8d;fill-opacity:1;fill-rule:nonzero;stroke:#122d8d;stroke-width:0.79701;stroke-linecap:butt;stroke-linejoin:miter;stroke-miterlimit:10;stroke-dasharray:none;stroke-opacity:1"
       transform="matrix(0.17448,1.3218,1.3218,-0.17448,226.85536,156.02901)" />
    <path
       id="path12"
       d="M -120.47392,92.1271 H 120.47394"
       style="fill:none;stroke:#000000;stroke-width:0.79701;stroke-linecap:butt;stroke-linejoin:miter;stroke-miterlimit:10;stroke-dasharray:2.98883, 2.98883;stroke-dashoffset:0;stroke-opacity:1"
       transform="matrix(1.3333333,0,0,-1.3333333,207.14533,139.62667)" />
    <path
       id="path13"
       d="m 14.356289,-4.7944297 c 0.02344,-0.058594 0.08203,-0.2109375 0.08203,-0.2929687 0,-0.1054688 -0.08203,-0.1992188 -0.199218,-0.1992188 -0.08203,0 -0.128907,0.011719 -0.1875,0.082031 -0.04687,0.011719 -0.04687,0.058594 -0.234375,0.46875 -1.21875,2.8945312 -2.097657,4.13671871 -5.4023442,4.13671871 H 5.3914453 c -0.2929687,0 -0.328125,0 -0.4570312,-0.0234375 -0.2226563,-0.0234375 -0.2460938,-0.0585938 -0.2460938,-0.22265625 0,-0.15234375 0.046875,-0.26953126 0.082031,-0.45703126 l 1.4296875,-5.7070312 h 2.0390625 c 1.6171875,0 1.7460937,0.3515625 1.7460937,0.9726562 0,0.2109375 0,0.3984375 -0.1523437,1.0195313 -0.035156,0.082031 -0.058594,0.1640625 -0.058594,0.2226562 0,0.140625 0.1054688,0.2109375 0.2226563,0.2109375 0.1875004,0 0.2109384,-0.1523437 0.2929694,-0.4335937 l 1.171875,-4.7929688 c 0,-0.1054687 -0.08203,-0.210937 -0.199219,-0.210937 -0.1875,0 -0.210937,0.082031 -0.292969,0.3749995 -0.410156,1.5820313 -0.820312,2.0390625 -2.6601564,2.0390625 h -1.96875 l 1.2890625,-5.074218 c 0.1757812,-0.726563 0.2226562,-0.785157 1.0664062,-0.785157 h 2.9531257 c 2.542969,0 3.058594,0.679688 3.058594,2.25 0,0.01172 0,0.597657 -0.08203,1.2773438 -0.02344,0.082031 -0.03516,0.2109375 -0.03516,0.2460937 0,0.1640625 0.09375,0.234375 0.222656,0.234375 0.140625,0 0.222657,-0.09375 0.269532,-0.4570312 l 0.433593,-3.6210933 c 0,-0.05859 0.04687,-0.269531 0.04687,-0.304688 0,-0.234375 -0.1875,-0.234375 -0.5625,-0.234375 H 4.9226953 c -0.3984375,0 -0.609375,0 -0.609375,0.375 0,0.234375 0.1523438,0.234375 0.5039063,0.234375 1.2773437,0 1.2773437,0.140625 1.2773437,0.363282 0,0.105468 -0.023437,0.1875 -0.082031,0.421875 L 3.2234766,-1.5248984 c -0.1875,0.71484371 -0.2226563,0.92578121 -1.6757813,0.92578121 -0.3867187,0 -0.59765624,0 -0.59765624,0.375 0,0.22265625 0.12890624,0.22265625 0.53906254,0.22265625 H 11.860195 c 0.457032,0 0.480469,-0.0234375 0.621094,-0.3515625 z m 0,0"
       style="fill:#000000;fill-opacity:1;fill-rule:nonzero;stroke:none"
       aria-label="E"
       transform="matrix(1.3333333,0,0,1.3333333,373.62,24.138667)" />
    <path
       id="path14"
       d="m 6.5521641,-5.3680391 c 0,-0.9023437 -0.4570313,-0.9609375 -0.5742188,-0.9609375 -0.3398437,0 -0.65625,0.3515625 -0.65625,0.6328125 0,0.1757813 0.1054688,0.2695313 0.1640625,0.328125 0.140625,0.1289063 0.515625,0.515625 0.515625,1.265625 0,0.5976563 -0.8671875,3.96093754 -2.5898437,3.96093754 -0.8671875,0 -1.0429688,-0.73828125 -1.0429688,-1.26562504 0,-0.7148437 0.328125,-1.7226562 0.7148438,-2.7539062 0.234375,-0.5859375 0.2929687,-0.7265625 0.2929687,-1.0195313 0,-0.5976562 -0.4335937,-1.1484375 -1.1367187,-1.1484375 -1.32421879,0 -1.85156254,2.0859375 -1.85156254,2.1914063 0,0.058594 0.0585938,0.140625 0.1640625,0.140625 0.12890625,0 0.140625,-0.058594 0.19921875,-0.2695313 0.33984379,-1.2304687 0.90234379,-1.7695312 1.44140629,-1.7695312 0.1289062,0 0.375,0 0.375,0.46875 0,0.375 -0.1523438,0.7851562 -0.375,1.3359375 -0.6796875,1.8398437 -0.6796875,2.2851562 -0.6796875,2.625 0,0.3164062 0.035156,0.90234374 0.4804687,1.30078124 0.515625,0.4453125 1.2304688,0.4453125 1.359375,0.4453125 2.390625,0 3.1992188,-4.68750004 3.1992188,-5.50781254 z m 0,0"
       style="fill:#000000;fill-opacity:1;fill-rule:nonzero;stroke:none"
       aria-label="v"
       transform="matrix(1.3333333,0,0,1.3333333,393.588,28.270667)" />
    <path
       id="path15"
       d="m 4.3122669,-1.7117891 c -0.070312,0.2460938 -0.070312,0.28125 -0.2695312,0.5507813 -0.3164063,0.39843749 -0.9492188,1.01953124 -1.6171875,1.01953124 -0.5859375,0 -0.9140625,-0.5390625 -0.9140625,-1.38281254 0,-0.7851562 0.4335937,-2.390625 0.7148437,-3 0.4804688,-0.9960937 1.1601563,-1.5117187 1.7226563,-1.5117187 0.9375,0 1.125,1.171875 1.125,1.2890625 0,0.011719 -0.035156,0.1992187 -0.058594,0.2226562 z m 0.9257813,-3.6679687 c -0.1640625,-0.375 -0.5507813,-0.9492188 -1.2890625,-0.9492188 -1.6289063,0 -3.37500003,2.0976563 -3.37500003,4.21875 0,1.41796879 0.83203123,2.25000004 1.80468753,2.25000004 0.796875,0 1.4648437,-0.609375 1.8632812,-1.08984375 0.1523438,0.84375 0.8203125,1.08984375 1.2539063,1.08984375 0.4335937,0 0.7734375,-0.2578125 1.03125,-0.7734375 0.234375,-0.48046874 0.4335937,-1.35937504 0.4335937,-1.41796874 0,-0.070312 -0.058594,-0.1289063 -0.1523437,-0.1289063 -0.1289063,0 -0.140625,0.070312 -0.1992188,0.28125 -0.2109375,0.8554688 -0.4804687,1.75781254 -1.078125,1.75781254 -0.4101562,0 -0.4335937,-0.375 -0.4335937,-0.66796875 0,-0.32812499 0.035156,-0.48046879 0.1640625,-1.04296879 0.1054687,-0.3515625 0.1757812,-0.6679687 0.2929687,-1.0898437 0.5273438,-2.15625 0.65625,-2.671875 0.65625,-2.7539063 0,-0.1992187 -0.1523437,-0.3632812 -0.375,-0.3632812 -0.4570312,0 -0.5742187,0.5039062 -0.5976562,0.6796875 z m 7.7490238,-0.011719 c -0.28125,0 -0.410157,0 -0.609375,0.1640625 -0.08203,0.082031 -0.246094,0.2929688 -0.246094,0.5273438 0,0.28125 0.222656,0.4570312 0.492187,0.4570312 0.339844,0 0.726563,-0.2929687 0.726563,-0.8671875 0,-0.6796875 -0.65625,-1.21875 -1.640625,-1.21875 -1.8867189,0 -3.7617189,2.0507813 -3.7617189,4.0898438 0,1.25390624 0.7734375,2.37890624 2.2382809,2.37890624 1.945313,0 3.1875,-1.52343754 3.1875,-1.69921874 0,-0.09375 -0.09375,-0.1640625 -0.152343,-0.1640625 -0.03516,0 -0.05859,0.011719 -0.1875,0.140625 -0.914063,1.21874999 -2.273438,1.44140624 -2.824219,1.44140624 -0.9843751,0 -1.3007814,-0.86718754 -1.3007814,-1.58203124 0,-0.5039063 0.2460938,-1.8867188 0.7617188,-2.8710938 0.3749996,-0.6679687 1.1484376,-1.4414062 2.0507816,-1.4414062 0.1875,0 0.972656,0.023437 1.265625,0.6445312 z m 0,0"
       style="fill:#000000;fill-opacity:1;fill-rule:nonzero;stroke:none"
       aria-label="ac"
       transform="matrix(1.3333333,0,0,1.3333333,403.31281,28.270667)" />
    <path
       id="path16"
       d="M -7.08669,-12.75595 H -120.47392"
       style="fill:none;stroke:#000000;stroke-width:0.79701;stroke-linecap:butt;stroke-linejoin:miter;stroke-miterlimit:10;stroke-dasharray:2.98883, 2.98883;stroke-dashoffset:0;stroke-opacity:1"
       transform="matrix(1.3333333,0,0,-1.3333333,207.14533,139.62667)" />
    <path
       id="path17"
       d="m 14.354844,-4.7926172 c 0.02344,-0.058594 0.08203,-0.2109375 0.08203,-0.2929687 0,-0.1054688 -0.08203,-0.1992188 -0.199219,-0.1992188 -0.08203,0 -0.128906,0.011719 -0.1875,0.082031 -0.04687,0.011719 -0.04687,0.058594 -0.234375,0.46875 -1.21875,2.8945312 -2.097656,4.13671871 -5.4023435,4.13671871 H 5.39 c -0.2929687,0 -0.328125,0 -0.4570312,-0.0234375 C 4.7103125,-0.64417999 4.686875,-0.67933629 4.686875,-0.84339874 4.686875,-0.99574249 4.73375,-1.11293 4.768906,-1.30043 L 6.1985935,-7.0074612 H 8.237656 c 1.6171875,0 1.7460937,0.3515625 1.7460937,0.9726562 0,0.2109375 0,0.3984375 -0.1523437,1.0195313 -0.035156,0.082031 -0.058594,0.1640625 -0.058594,0.2226562 0,0.140625 0.1054688,0.2109375 0.2226563,0.2109375 0.1875007,0 0.2109377,-0.1523437 0.2929697,-0.4335937 l 1.171875,-4.7929688 c 0,-0.1054687 -0.08203,-0.2109375 -0.199219,-0.2109375 -0.1875,0 -0.210938,0.082032 -0.292969,0.375 -0.410156,1.5820313 -0.820312,2.0390625 -2.6601567,2.0390625 h -1.96875 l 1.2890625,-5.0742185 c 0.1757812,-0.726562 0.2226562,-0.785156 1.0664062,-0.785156 h 2.953126 c 2.542968,0 3.058593,0.679687 3.058593,2.25 0,0.01172 0,0.597656 -0.08203,1.2773433 -0.02344,0.082031 -0.03516,0.2109375 -0.03516,0.2460937 0,0.1640625 0.09375,0.234375 0.222656,0.234375 0.140625,0 0.222656,-0.09375 0.269531,-0.4570312 L 15.515,-13.534805 c 0,-0.05859 0.04687,-0.269531 0.04687,-0.304687 0,-0.234375 -0.1875,-0.234375 -0.5625,-0.234375 H 4.92125 c -0.3984375,0 -0.609375,0 -0.609375,0.375 0,0.234375 0.1523438,0.234375 0.5039063,0.234375 1.2773437,0 1.2773437,0.140625 1.2773437,0.363281 0,0.105469 -0.023437,0.1875 -0.082031,0.421875 L 3.2220313,-1.5230859 c -0.1875,0.71484371 -0.2226563,0.92578121 -1.6757813,0.92578121 -0.3867187,0 -0.59765625,0 -0.59765625,0.375 0,0.2226562525 0.12890625,0.2226562525 0.53906255,0.2226562525 H 11.85875 c 0.457031,0 0.480469,-0.0234375025 0.621094,-0.3515625025 z m 0,0"
       style="fill:#000000;fill-opacity:1;fill-rule:nonzero;stroke:none"
       aria-label="E"
       transform="matrix(1.3333333,0,0,1.3333333,5.3133333,163.98)" />
    <path
       id="path18"
       d="m 4.2655625,-4.6758203 h 1.3710938 c 1.0898437,0 1.171875,0.2460937 1.171875,0.65625 0,0.1875 -0.023437,0.3867187 -0.09375,0.703125 -0.035156,0.058594 -0.046875,0.1289062 -0.046875,0.1640625 0,0.09375 0.058594,0.1523437 0.1640625,0.1523437 0.1054687,0 0.1289062,-0.058594 0.1875,-0.28125 L 7.8515,-6.6211328 c 0,-0.058594 -0.046875,-0.1523438 -0.1523437,-0.1523438 -0.1289063,0 -0.140625,0.058594 -0.1992188,0.3046875 C 7.19525,-5.3906641 6.914,-5.0976953 5.6600938,-5.0976953 H 4.3593125 l 0.9375,-3.7148438 c 0.1289063,-0.4921875 0.1523438,-0.5390625 0.7382813,-0.5390625 h 1.921875 c 1.7929687,0 2.0507812,0.5273438 2.0507812,1.546875 0,0.082031 0,0.3984375 -0.035156,0.7734375 -0.023437,0.058594 -0.046875,0.2460938 -0.046875,0.3046875 0,0.1171875 0.070312,0.1523438 0.152344,0.1523438 0.105468,0 0.164062,-0.046875 0.1875,-0.3164063 l 0.304687,-2.5078125 c 0,-0.035156 0.03516,-0.1875 0.03516,-0.2109375 0,-0.1640625 -0.128906,-0.1640625 -0.398437,-0.1640625 H 3.4100938 c -0.2695313,0 -0.4101563,0 -0.4101563,0.2578125 0,0.1640625 0.09375,0.1640625 0.3398438,0.1640625 0.890625,0 0.890625,0.1054688 0.890625,0.2578125 0,0.070312 -0.011719,0.1289063 -0.058594,0.28125 l -1.9335937,7.7460938 c -0.1289063,0.50390624 -0.1640625,0.65624999 -1.1601563,0.65624999 -0.26953125,0 -0.421875,0 -0.421875,0.2578125 0,0.1523437475 0.12890625,0.1523437475 0.22265625,0.1523437475 0.26953125,0 0.55078125,-0.0234374975 0.83203125,-0.0234374975 h 1.8632813 c 0.3164062,0 0.65625,0.0234374975 0.9726562,0.0234374975 0.1289063,0 0.3046875,0 0.3046875,-0.2578124975 0,-0.15234375 -0.09375,-0.15234375 -0.4101562,-0.15234375 -1.125,0 -1.1601563,-0.10546875 -1.1601563,-0.31640625 0,-0.0820313 0.035156,-0.1875 0.058594,-0.29296874 z m 0,0"
       style="fill:#000000;fill-opacity:1;fill-rule:nonzero;stroke:none"
       aria-label="F"
       transform="matrix(1.3333333,0,0,1.3333333,25.281333,168.11333)" />
    <path
       id="path19"
       d="M 7.08669,-35.43349 H 120.47392"
       style="fill:none;stroke:#000000;stroke-width:0.79701;stroke-linecap:butt;stroke-linejoin:miter;stroke-miterlimit:10;stroke-dasharray:2.98883, 2.98883;stroke-dashoffset:0;stroke-opacity:1"
       transform="matrix(1.3333333,0,0,-1.3333333,207.14533,139.62667)" />
    <path
       id="path20"
       d="m 14.356289,-4.7919063 c 0.02344,-0.058594 0.08203,-0.2109375 0.08203,-0.2929687 0,-0.1054688 -0.08203,-0.1992188 -0.199218,-0.1992188 -0.08203,0 -0.128907,0.011719 -0.1875,0.082031 -0.04687,0.011719 -0.04687,0.058594 -0.234375,0.46875 -1.21875,2.8945312 -2.097657,4.13671875 -5.4023442,4.13671875 H 5.3914453 c -0.2929687,0 -0.328125,0 -0.4570312,-0.0234375 -0.2226563,-0.0234375 -0.2460938,-0.0585938 -0.2460938,-0.22265625 0,-0.15234375 0.046875,-0.2695313 0.082031,-0.4570313 L 6.2000391,-7.00675 h 2.0390625 c 1.6171875,0 1.7460937,0.3515625 1.7460937,0.9726562 0,0.2109375 0,0.3984375 -0.1523437,1.0195313 -0.035156,0.082031 -0.058594,0.1640625 -0.058594,0.2226562 0,0.140625 0.1054688,0.2109375 0.2226563,0.2109375 0.1875001,0 0.2109381,-0.1523437 0.2929691,-0.4335937 l 1.171875,-4.7929688 c 0,-0.1054687 -0.08203,-0.2109377 -0.199219,-0.2109377 -0.1875,0 -0.210937,0.082031 -0.292969,0.3750002 -0.410156,1.5820313 -0.820312,2.0390625 -2.6601561,2.0390625 h -1.96875 l 1.2890625,-5.0742187 c 0.1757812,-0.726563 0.2226562,-0.785156 1.0664062,-0.785156 h 2.9531254 c 2.542969,0 3.058594,0.679687 3.058594,2.25 0,0.01172 0,0.597656 -0.08203,1.2773435 -0.02344,0.082031 -0.03516,0.2109375 -0.03516,0.2460937 0,0.1640625 0.09375,0.234375 0.222656,0.234375 0.140625,0 0.222657,-0.09375 0.269532,-0.4570312 l 0.433593,-3.621094 c 0,-0.05859 0.04687,-0.269531 0.04687,-0.304687 0,-0.234375 -0.1875,-0.234375 -0.5625,-0.234375 H 4.9226953 c -0.3984375,0 -0.609375,0 -0.609375,0.375 0,0.234375 0.1523438,0.234375 0.5039063,0.234375 1.2773437,0 1.2773437,0.140625 1.2773437,0.363281 0,0.105469 -0.023437,0.1875 -0.082031,0.421875 l -2.7890625,11.15625 c -0.1875,0.71484375 -0.2226563,0.92578125 -1.6757813,0.92578125 -0.3867187,0 -0.59765624,0 -0.59765624,0.375 0,0.22265625 0.12890624,0.22265625 0.53906254,0.22265625 H 11.860195 c 0.457032,0 0.480469,-0.0234375 0.621094,-0.3515625 z m 0,0"
       style="fill:#000000;fill-opacity:1;fill-rule:nonzero;stroke:none"
       aria-label="E"
       transform="matrix(1.3333333,0,0,1.3333333,373.62,194.21733)" />
    <path
       id="path21"
       d="m 4.2670078,-4.6770391 h 1.3710938 c 1.0898437,0 1.171875,0.2460938 1.171875,0.65625 0,0.1875 -0.023437,0.3867188 -0.09375,0.703125 -0.035156,0.058594 -0.046875,0.1289063 -0.046875,0.1640625 0,0.09375 0.058594,0.1523438 0.1640625,0.1523438 0.1054687,0 0.1289062,-0.058594 0.1875,-0.28125 l 0.8320312,-3.3398438 c 0,-0.058594 -0.046875,-0.1523437 -0.1523437,-0.1523437 -0.1289063,0 -0.140625,0.058594 -0.1992188,0.3046875 -0.3046875,1.078125 -0.5859375,1.3710937 -1.8398437,1.3710937 H 4.3607578 l 0.9375,-3.7148437 c 0.1289063,-0.4921875 0.1523438,-0.5390625 0.7382813,-0.5390625 h 1.921875 c 1.7929687,0 2.0507809,0.5273437 2.0507809,1.546875 0,0.082031 0,0.3984375 -0.035156,0.7734375 -0.023437,0.058594 -0.046875,0.2460937 -0.046875,0.3046875 0,0.1171875 0.070312,0.1523437 0.152344,0.1523437 0.105469,0 0.164062,-0.046875 0.1875,-0.3164062 l 0.304687,-2.5078125 c 0,-0.035156 0.03516,-0.1875 0.03516,-0.2109375 0,-0.1640625 -0.128907,-0.1640625 -0.398438,-0.1640625 H 3.4115391 c -0.2695313,0 -0.4101563,0 -0.4101563,0.2578125 0,0.1640625 0.09375,0.1640625 0.3398438,0.1640625 0.890625,0 0.890625,0.1054687 0.890625,0.2578125 0,0.070312 -0.011719,0.1289062 -0.058594,0.28125 l -1.9335937,7.7460937 c -0.1289063,0.50390629 -0.1640625,0.65625004 -1.1601563,0.65625004 -0.26953124,0 -0.42187499,0 -0.42187499,0.2578125 0,0.15234375 0.12890625,0.15234375 0.22265625,0.15234375 0.26953124,0 0.55078124,-0.0234375 0.83203124,-0.0234375 h 1.8632813 c 0.3164062,0 0.65625,0.0234375 0.9726562,0.0234375 0.1289063,0 0.3046875,0 0.3046875,-0.2578125 0,-0.15234375 -0.09375,-0.15234375 -0.4101562,-0.15234375 -1.125,0 -1.1601563,-0.10546875 -1.1601563,-0.31640625 0,-0.0820313 0.035156,-0.1875 0.058594,-0.29296879 z m 0,0"
       style="fill:#000000;fill-opacity:1;fill-rule:nonzero;stroke:none"
       aria-label="F"
       transform="matrix(1.3333333,0,0,1.3333333,393.588,198.34933)" />
    <path
       id="path22"
       d="M 63.7803,-85.04042 H -43.43"
       style="fill:none;stroke:#808080;stroke-width:0.79701;stroke-linecap:butt;stroke-linejoin:miter;stroke-miterlimit:10;stroke-dasharray:none;stroke-opacity:1"
       transform="matrix(1.3333333,0,0,-1.3333333,207.14533,139.62667)" />
    <path
       id="path23"
       d="M 4.53381,0 C 3.97704,0.13808 1.52963,0.92049 0,1.77196 V -1.77196 C 1.52963,-0.92049 3.97704,-0.13808 4.53381,0 Z"
       style="fill:#808080;fill-opacity:1;fill-rule:nonzero;stroke:#808080;stroke-width:0.79701;stroke-linecap:butt;stroke-linejoin:miter;stroke-miterlimit:10;stroke-dasharray:none;stroke-opacity:1"
       transform="matrix(-1.3333333,0,0,1.3333333,149.23867,253.01389)" />
    <path
       id="path24"
       d="m 2.6251328,-1.6747188 c 0.890625,-1.0078125 1.6054688,-1.6523437 2.6484375,-2.578125 1.2304688,-1.078125 1.7695313,-1.59375 2.0625,-1.8984375 1.4414063,-1.4296875 2.1679688,-2.625 2.1679688,-2.7890625 0,-0.1640625 -0.1640625,-0.1640625 -0.2109375,-0.1640625 -0.140625,0 -0.1875,0.082031 -0.28125,0.2226563 -0.515625,0.890625 -1.0195313,1.3242187 -1.5585938,1.3242187 -0.4335937,0 -0.65625,-0.1875 -1.0429687,-0.6796875 -0.4335938,-0.5273437 -0.7851563,-0.8671875 -1.3945313,-0.8671875 -1.5,0 -2.4140625,1.875 -2.4140625,2.3085938 0,0.058594 0.023437,0.1875 0.2109375,0.1875 0.1640625,0 0.1875,-0.082031 0.2460938,-0.234375 C 3.4102891,-7.663 4.4063828,-7.803625 4.7931016,-7.803625 c 0.4335937,0 0.84375,0.140625 1.2773437,0.328125 0.7851563,0.328125 1.125,0.328125 1.3242188,0.328125 0.140625,0 0.234375,0 0.328125,-0.023437 -0.6796875,0.8085937 -1.7929688,1.8046875 -2.71875,2.6484375 L 2.9181016,-2.6005 c -1.265625,1.2773437 -2.02734379,2.49609375 -2.02734379,2.6484375 0,0.1171875 0.10546875,0.1640625 0.22265629,0.1640625 0.1289062,0 0.1523437,-0.0234375 0.2929687,-0.26953125 0.328125,-0.515625 0.9960938,-1.28906255 1.7578125,-1.28906255 0.4335938,0 0.6328125,0.1523438 1.0546875,0.6679688 0.3867188,0.45703125 0.7382813,0.890625 1.40625,0.890625 2.015625,0 3.1757813,-2.625 3.1757813,-3.1054688 0,-0.082031 -0.023437,-0.1992187 -0.2226563,-0.1992187 -0.1640625,0 -0.1875,0.082031 -0.2578125,0.28125 -0.4453125,1.21875 -1.6640625,1.7226562 -2.4726562,1.7226562 -0.4335938,0 -0.84375,-0.1523437 -1.2773438,-0.3398437 C 3.7384141,-1.75675 3.5157578,-1.75675 3.2462266,-1.75675 c -0.2109375,0 -0.4335938,0 -0.6210938,0.082031 z m 0,0"
       style="fill:#808080;fill-opacity:1;fill-rule:nonzero;stroke:none"
       aria-label="z"
       transform="matrix(1.3333333,0,0,1.3333333,209.71467,270.71733)" />
    <path
       id="path25"
       d="m -42.5202,56.69362 h -57.78005"
       style="fill:none;stroke:#000000;stroke-width:0.3985;stroke-linecap:butt;stroke-linejoin:miter;stroke-miterlimit:10;stroke-dasharray:none;stroke-opacity:1"
       transform="matrix(1.3333333,0,0,-1.3333333,207.14533,139.62667)" />
    <path
       id="path26"
       d="M 3.7613,0 C 3.2994,0.1127 1.26901,0.75136 0,1.44638 V -1.44638 C 1.26901,-0.75136 3.2994,-0.1127 3.7613,0 Z"
       style="fill:#000000;fill-opacity:1;fill-rule:nonzero;stroke:#000000;stroke-width:0.3985;stroke-linecap:butt;stroke-linejoin:miter;stroke-miterlimit:10;stroke-dasharray:none;stroke-opacity:1"
       transform="matrix(-1.3333333,0,0,1.3333333,73.411667,64.035173)" />
    <text
       id="text26"
       xml:space="preserve"
       transform="matrix(1.3333333,0,0,1.3333333,31.212,53.085333)"><tspan
         id="tspan26"
         style="font-variant:normal;font-weight:normal;font-size:20.6625px;font-family:'Latin Modern Roman';writing-mode:lr-tb;fill:#000000;fill-opacity:1;fill-rule:nonzero;stroke:none"
         x="0"
         dx="0 0 0 0.53722554"
         y="0">Doped</tspan></text>
    <path
       id="path27"
       d="M -42.5202,56.69362 H 15.25983"
       style="fill:none;stroke:#000000;stroke-width:0.3985;stroke-linecap:butt;stroke-linejoin:miter;stroke-miterlimit:10;stroke-dasharray:none;stroke-opacity:1"
       transform="matrix(1.3333333,0,0,-1.3333333,207.14533,139.62667)" />
    <path
       id="path28"
       d="M 3.7613,0 C 3.2994,0.1127 1.26901,0.75136 0,1.44638 V -1.44638 C 1.26901,-0.75136 3.2994,-0.1127 3.7613,0 Z"
       style="fill:#000000;fill-opacity:1;fill-rule:nonzero;stroke:#000000;stroke-width:0.3985;stroke-linecap:butt;stroke-linejoin:miter;stroke-miterlimit:10;stroke-dasharray:none;stroke-opacity:1"
       transform="matrix(1.3333333,0,0,-1.3333333,227.49177,64.035173)" />
    <text
       id="text28"
       xml:space="preserve"
       transform="matrix(1.3333333,0,0,1.3333333,183.62667,53.085333)"><tspan
         id="tspan28"
         style="font-variant:normal;font-weight:normal;font-size:20.6625px;font-family:'Latin Modern Roman';writing-mode:lr-tb;fill:#000000;fill-opacity:1;fill-rule:nonzero;stroke:none"
         x="0"
         dx="0 0 0 0 0 0.53722554"
         y="0">Undoped</tspan></text>
    <path
       id="path29"
       d="M -42.5202,51.02432 V 62.36287"
       style="fill:none;stroke:#000000;stroke-width:0.3985;stroke-linecap:butt;stroke-linejoin:miter;stroke-miterlimit:10;stroke-dasharray:none;stroke-opacity:1"
       transform="matrix(1.3333333,0,0,-1.3333333,207.14533,139.62667)" />
    <text
       id="text29"
       xml:space="preserve"
       transform="matrix(1.3333333,0,0,1.3333333,87.750667,234.184)"><tspan
         id="tspan29"
         style="font-variant:normal;font-weight:normal;font-size:20.6625px;font-family:'Latin Modern Roman';writing-mode:lr-tb;fill:#000000;fill-opacity:1;fill-rule:nonzero;stroke:none"
         x="0"
         y="0">AlGaAs</tspan></text>
    <text
       id="text30"
       xml:space="preserve"
       transform="matrix(1.3333333,0,0,1.3333333,251.92133,234.184)"><tspan
         id="tspan30"
         style="font-variant:normal;font-weight:normal;font-size:20.6625px;font-family:'Latin Modern Roman';writing-mode:lr-tb;fill:#000000;fill-opacity:1;fill-rule:nonzero;stroke:none"
         x="0"
         y="0">GaAs</tspan></text>
  </g>
</svg>
