<?xml version="1.0" encoding="UTF-8" standalone="no"?>
<!-- Created with Inkscape (http://www.inkscape.org/) -->

<svg
   version="1.1"
   id="svg1"
   width="970.14667"
   height="58.588001"
   viewBox="0 0 970.14667 58.588001"
   sodipodi:docname="circuits.pdf"
   xmlns:inkscape="http://www.inkscape.org/namespaces/inkscape"
   xmlns:sodipodi="http://sodipodi.sourceforge.net/DTD/sodipodi-0.dtd"
   xmlns="http://www.w3.org/2000/svg"
   xmlns:svg="http://www.w3.org/2000/svg">
  <defs
     id="defs1" />
  <sodipodi:namedview
     id="namedview1"
     pagecolor="#ffffff"
     bordercolor="#000000"
     borderopacity="0.25"
     inkscape:showpageshadow="2"
     inkscape:pageopacity="0.0"
     inkscape:pagecheckerboard="0"
     inkscape:deskcolor="#d1d1d1">
    <inkscape:page
       x="0"
       y="0"
       inkscape:label="1"
       id="page1"
       width="970.14667"
       height="58.588001"
       margin="0"
       bleed="0" />
  </sodipodi:namedview>
  <g
     id="g1"
     inkscape:groupmode="layer"
     inkscape:label="1">
    <path
       id="path1"
       d="m 15.737656,-17.225758 c 0,-0.222656 -0.175781,-0.222656 -0.222656,-0.222656 -0.09375,0 -0.128906,0.02344 -0.421875,0.398437 -0.152344,0.175782 -1.160156,1.464844 -1.183594,1.488282 -0.820312,-1.617188 -2.460937,-1.886719 -3.503906,-1.886719 -3.140625,0 -6,2.871094 -6,5.671875 0,1.8632812 1.125,2.9531249 2.3320313,3.3749999 0.28125,0.09375 1.734375,0.4921875 2.484375,0.6679688 1.2656247,0.3515625 1.5820317,0.4453125 2.1093747,0.9960937 0.09375,0.1171875 0.585938,0.6914063 0.585938,1.8515625 0,2.3085938 -2.1328127,4.68750004 -4.605469,4.68750004 -2.0390625,0 -4.2890625,-0.86718754 -4.2890625,-3.64453124 0,-0.46875 0.09375,-1.0664063 0.1757813,-1.3125 0,-0.070312 0.023437,-0.1992188 0.023437,-0.2460938 0,-0.1054687 -0.046875,-0.2226562 -0.2460938,-0.2226562 -0.2226562,0 -0.2460937,0.046875 -0.3515625,0.46875 L 1.35875,-0.06950781 c 0,0.0234375 -0.09375,0.33984375 -0.09375,0.36328125 0,0.22265625 0.1992188,0.22265625 0.2460938,0.22265625 0.09375,0 0.1289062,-0.0234375 0.421875,-0.38671875 L 3.0696875,-1.3585703 C 3.6673438,-0.46794531 4.9564063,0.51642969 7.265,0.51642969 c 3.199219,0 6.117188,-3.09374999 6.117188,-6.18749999 0,-1.0429688 -0.246094,-1.9570313 -1.183594,-2.8828125 C 11.67125,-9.0695078 11.225938,-9.1984141 8.9525,-9.7843516 7.2884375,-10.229664 7.0657813,-10.311695 6.6204688,-10.710133 c -0.421875,-0.421875 -0.75,-1.007812 -0.75,-1.851562 0,-2.085938 2.109375,-4.21875 4.4648442,-4.21875 2.425781,0 3.574218,1.488281 3.574218,3.84375 0,0.644531 -0.128906,1.3125 -0.128906,1.417968 0,0.222657 0.199219,0.222657 0.269531,0.222657 0.222657,0 0.246094,-0.08203 0.351563,-0.480469 z m 0,0"
       style="fill:#000000;fill-opacity:1;fill-rule:nonzero;stroke:none"
       aria-label="S"
       transform="matrix(1.3333333,0,0,1.3333333,5.3133333,35.065333)" />
    <path
       id="path2"
       d="m 15.937734,-7.9562266 c 0.375,0 0.738282,0 0.738282,-0.421875 0,-0.4453125 -0.421875,-0.4453125 -0.84375,-0.4453125 H 1.9807031 c -0.421875,0 -0.84375,0 -0.84375,0.4453125 0,0.421875 0.375,0.421875 0.75,0.421875 z m -0.105468,4.4179688 c 0.421875,0 0.84375,0 0.84375,-0.4570313 0,-0.4101562 -0.363282,-0.4101562 -0.738282,-0.4101562 H 1.8869531 c -0.375,0 -0.75,0 -0.75,0.4101562 0,0.4570313 0.421875,0.4570313 0.84375,0.4570313 z m 0,0"
       style="fill:#000000;fill-opacity:1;fill-rule:nonzero;stroke:none"
       aria-label="="
       transform="matrix(1.3333333,0,0,1.3333333,36.32,35.065333)" />
    <path
       id="path3"
       d="m 15.736844,-17.225758 c 0,-0.222656 -0.175781,-0.222656 -0.222656,-0.222656 -0.09375,0 -0.128907,0.02344 -0.421875,0.398437 -0.152344,0.175782 -1.160157,1.464844 -1.183594,1.488282 -0.820313,-1.617188 -2.460938,-1.886719 -3.503906,-1.886719 -3.1406255,0 -6.0000005,2.871094 -6.0000005,5.671875 0,1.8632812 1.125,2.9531249 2.3320313,3.3749999 0.28125,0.09375 1.734375,0.4921875 2.484375,0.6679688 1.2656252,0.3515625 1.5820312,0.4453125 2.1093752,0.9960937 0.09375,0.1171875 0.585937,0.6914063 0.585937,1.8515625 0,2.3085938 -2.1328122,4.68750004 -4.6054685,4.68750004 C 5.272,-0.19841406 3.022,-1.0656016 3.022,-3.8429453 c 0,-0.46875 0.09375,-1.0664063 0.1757813,-1.3125 0,-0.070312 0.023437,-0.1992188 0.023437,-0.2460938 0,-0.1054687 -0.046875,-0.2226562 -0.2460938,-0.2226562 -0.2226562,0 -0.2460937,0.046875 -0.3515625,0.46875 l -1.265625,5.08593749 c 0,0.0234375 -0.09375,0.33984375 -0.09375,0.36328125 0,0.22265625 0.1992188,0.22265625 0.2460938,0.22265625 0.09375,0 0.1289062,-0.0234375 0.421875,-0.38671875 L 3.068875,-1.3585703 c 0.5976563,0.89062499 1.8867188,1.87499999 4.1953125,1.87499999 3.1992185,0 6.1171875,-3.09374999 6.1171875,-6.18749999 0,-1.0429688 -0.246094,-1.9570313 -1.183594,-2.8828125 -0.527343,-0.515625 -0.972656,-0.6445313 -3.2460935,-1.2304688 -1.6640625,-0.4453124 -1.8867187,-0.5273434 -2.3320312,-0.9257814 -0.421875,-0.421875 -0.75,-1.007812 -0.75,-1.851562 0,-2.085938 2.109375,-4.21875 4.4648437,-4.21875 2.425781,0 3.574219,1.488281 3.574219,3.84375 0,0.644531 -0.128906,1.3125 -0.128906,1.417968 0,0.222657 0.199218,0.222657 0.269531,0.222657 0.222656,0 0.246094,-0.08203 0.351562,-0.480469 z m 0,0"
       style="fill:#000000;fill-opacity:1;fill-rule:nonzero;stroke:none"
       aria-label="S"
       transform="matrix(1.3333333,0,0,1.3333333,78.470667,35.065333)" />
    <path
       id="path4"
       d="m 5.8469766,-2.9544844 c 0,-0.1054687 -0.082031,-0.1875 -0.2109375,-0.1875 -0.1875,0 -0.1992188,0.058594 -0.3046875,0.4101563 -0.5390625,1.88671873 -1.3828125,2.51953123 -2.0625,2.51953123 -0.2578125,0 -0.5390625,-0.0585938 -0.5390625,-0.6796875 0,-0.55078123 0.2460937,-1.17187503 0.46875,-1.79296873 l 1.453125,-3.84375 c 0.058594,-0.1640625 0.1992187,-0.5390625 0.1992187,-0.9257813 0,-0.8671875 -0.6210937,-1.6523437 -1.6289062,-1.6523437 -1.8984375,0 -2.66015629,2.9882812 -2.66015629,3.1523437 0,0.082031 0.0820313,0.1875 0.22265625,0.1875 0.1875,0 0.2109375,-0.082031 0.29296874,-0.375 0.4921875,-1.734375 1.2773438,-2.5546875 2.0859375,-2.5546875 0.1875,0 0.5390625,0.023437 0.5390625,0.6796875 0,0.5390625 -0.2695312,1.21875 -0.4335937,1.6757813 l -1.453125,3.84375 c -0.1171875,0.328125 -0.2460938,0.65625 -0.2460938,1.03125 0,0.92578123 0.6445313,1.67578123 1.6289063,1.67578123 1.8984375,0 2.6484375,-3.02343753 2.6484375,-3.16406253 z M 5.6829141,-12.891984 c 0,-0.316407 -0.2460938,-0.679688 -0.703125,-0.679688 -0.4804688,0 -1.0195313,0.445313 -1.0195313,0.984375 0,0.515625 0.4453125,0.691406 0.6914063,0.691406 0.5507812,0 1.03125,-0.539062 1.03125,-0.996093 z M 10.932914,0.08067188 c 0,-1.19531248 -0.398437,-2.08593748 -1.2421874,-2.08593748 -0.65625,0 -0.9960938,0.5390625 -0.9960938,0.9960937 0,0.44531253 0.3164063,1.00781253 1.0195313,1.00781253 0.2695312,0 0.4921879,-0.08203125 0.6796879,-0.26953125 0.03516,-0.0351563 0.05859,-0.0351563 0.08203,-0.0351563 0.04687,0 0.04687,0.28125 0.04687,0.38671875 0,0.6796875 -0.128906,2.02734377 -1.3242189,3.36328127 -0.234375,0.2578125 -0.234375,0.2929688 -0.234375,0.3398438 0,0.09375 0.1054687,0.1992187 0.2109375,0.1992187 0.1640625,0 1.7578124,-1.5234375 1.7578124,-3.90234377 z m 0,0"
       style="fill:#000000;fill-opacity:1;fill-rule:nonzero;stroke:none"
       aria-label="i,"
       transform="matrix(1.3333333,0,0,1.3333333,98.372,41.744)" />
    <text
       id="text4"
       xml:space="preserve"
       transform="matrix(1.3333333,0,0,1.3333333,115.068,41.744)"><tspan
         id="tspan4"
         style="font-variant:normal;font-weight:normal;font-size:20.6625px;font-family:'Latin Modern Roman';writing-mode:lr-tb;fill:#000000;fill-opacity:1;fill-rule:nonzero;stroke:none"
         x="0"
         y="0">sn</tspan></text>
    <path
       id="path5"
       d="m 3.9388438,-17.694508 c 0,-0.445312 0,-0.890625 -0.4921875,-0.890625 -0.4921875,0 -0.4921875,0.445313 -0.4921875,0.890625 V 5.3093984 c 0,0.4453125 0,0.890625 0.4921875,0.890625 0.4921875,0 0.4921875,-0.4453125 0.4921875,-0.890625 z m 0,0"
       style="fill:#000000;fill-opacity:1;fill-rule:nonzero;stroke:none"
       aria-label="|"
       transform="matrix(1.3333333,0,0,1.3333333,139.70133,35.065333)" />
    <path
       id="path6"
       d="m 17.356578,-16.159352 c 0.140625,-0.175781 0.269531,-0.316406 0.269531,-0.574218 0,-0.164063 -0.02344,-0.199219 -0.597656,-0.199219 H 6.7979844 c -0.5742188,0 -0.5976563,0.03516 -0.75,0.480469 l -1.359375,4.453125 c -0.082031,0.246093 -0.082031,0.304687 -0.082031,0.351562 0,0.09375 0.082031,0.246094 0.2578125,0.246094 0.1875,0 0.2460938,-0.09375 0.3398438,-0.421875 0.9140625,-2.671875 2.1328125,-4.382813 6.0468743,-4.382813 h 4.066407 L 1.7354844,-0.84294531 c -0.2226563,0.26953125 -0.3164063,0.375 -0.3164063,0.64453125 0,0.1992187475 0.1171875,0.1992187475 0.5859375,0.1992187475 H 12.587047 c 0.574219,0 0.597656,-0.0234374975 0.75,-0.4687499975 l 1.734375,-5.48437499 c 0.02344,-0.070312 0.07031,-0.2460938 0.07031,-0.3398438 0,-0.1289062 -0.09375,-0.2460937 -0.246093,-0.2460937 -0.199219,0 -0.222657,0.023437 -0.421875,0.6445312 -1.042969,3.1875 -2.132813,5.12109379 -6.4453129,5.12109379 H 3.7393906 Z m 0,0"
       style="fill:#000000;fill-opacity:1;fill-rule:nonzero;stroke:none"
       aria-label="Z"
       transform="matrix(1.3333333,0,0,1.3333333,148.88133,35.065333)" />
    <text
       id="text6"
       xml:space="preserve"
       transform="matrix(1.3333333,0,0,1.3333333,171.03067,40.022667)"><tspan
         id="tspan6"
         style="font-variant:normal;font-weight:normal;font-size:20.6625px;font-family:'Latin Modern Roman';writing-mode:lr-tb;fill:#000000;fill-opacity:1;fill-rule:nonzero;stroke:none"
         x="0"
         y="0">eq</tspan></text>
    <path
       id="path7"
       d="m 3.9371406,-17.694508 c 0,-0.445312 0,-0.890625 -0.4921875,-0.890625 -0.4921875,0 -0.4921875,0.445313 -0.4921875,0.890625 V 5.3093984 c 0,0.4453125 0,0.890625 0.4921875,0.890625 0.4921875,0 0.4921875,-0.4453125 0.4921875,-0.890625 z m 0,0"
       style="fill:#000000;fill-opacity:1;fill-rule:nonzero;stroke:none"
       aria-label="|"
       transform="matrix(1.3333333,0,0,1.3333333,196.24267,35.065333)" />
    <path
       id="path8"
       d="m 8.6126875,-3.2004844 h -0.375 C 8.0384687,-1.7356406 7.8744062,-1.4895469 7.792375,-1.3606406 7.6869062,-1.1965781 6.198625,-1.1965781 5.9056562,-1.1965781 H 1.9447187 c 0.7382813,-0.8085938 2.1914063,-2.2734375 3.9375,-3.9726563 1.265625,-1.1953125 2.7304688,-2.6015625 2.7304688,-4.640625 0,-2.4374996 -1.9453125,-3.8437496 -4.1132813,-3.8437496 -2.2734375,0 -3.65624995,2.003906 -3.65624995,3.8554684 0,0.8085937 0.59765625,0.9140625 0.85546875,0.9140625 0.1992187,0 0.8203125,-0.1289063 0.8203125,-0.84375 0,-0.6445309 -0.5390625,-0.8320309 -0.8203125,-0.8320309 -0.1289063,0 -0.2578125,0.02344 -0.3398438,0.05859 0.3984375,-1.746093 1.59375,-2.625 2.859375,-2.625 1.7929688,0 2.9765625,1.429688 2.9765625,3.3164066 0,1.7929688 -1.0546875,3.3398438 -2.2382812,4.6875 l -4.11328125,4.64062503 v 0.48046875 H 8.1205 Z m 0,0"
       style="fill:#000000;fill-opacity:1;fill-rule:nonzero;stroke:none"
       aria-label="2"
       transform="matrix(1.3333333,0,0,1.3333333,205.42267,23.072)" />
    <path
       id="path9"
       d="m 9.3408359,-5.7531016 h 6.5742191 c 0.339843,0 0.761718,0 0.761718,-0.421875 0,-0.4453125 -0.386718,-0.4453125 -0.761718,-0.4453125 H 9.3408359 v -6.5624999 c 0,-0.351563 0,-0.773438 -0.421875,-0.773438 -0.4453125,0 -0.4453125,0.398438 -0.4453125,0.773438 v 6.5624999 h -6.5625 c -0.3515625,0 -0.7734375,0 -0.7734375,0.421875 0,0.4453125 0.3984375,0.4453125 0.7734375,0.4453125 h 6.5625 v 6.57421879 c 0,0.33984371 0,0.76171871 0.421875,0.76171871 0.4453125,0 0.4453125,-0.3867187 0.4453125,-0.76171871 z m 0,0"
       style="fill:#000000;fill-opacity:1;fill-rule:nonzero;stroke:none"
       aria-label="+"
       transform="matrix(1.3333333,0,0,1.3333333,218.72133,35.065333)" />
    <path
       id="path10"
       d="m 15.73807,-17.225758 c 0,-0.222656 -0.175781,-0.222656 -0.222656,-0.222656 -0.09375,0 -0.128906,0.02344 -0.421875,0.398437 -0.152344,0.175782 -1.160156,1.464844 -1.183594,1.488282 -0.820312,-1.617188 -2.460937,-1.886719 -3.503906,-1.886719 -3.1406249,0 -5.9999999,2.871094 -5.9999999,5.671875 0,1.8632812 1.125,2.9531249 2.3320312,3.3749999 0.28125,0.09375 1.734375,0.4921875 2.484375,0.6679688 1.2656247,0.3515625 1.5820317,0.4453125 2.1093747,0.9960937 0.09375,0.1171875 0.585938,0.6914063 0.585938,1.8515625 0,2.3085938 -2.1328127,4.68750004 -4.6054689,4.68750004 -2.0390625,0 -4.2890625,-0.86718754 -4.2890625,-3.64453124 0,-0.46875 0.09375,-1.0664063 0.1757812,-1.3125 0,-0.070312 0.023437,-0.1992188 0.023437,-0.2460938 0,-0.1054687 -0.046875,-0.2226562 -0.2460937,-0.2226562 -0.2226563,0 -0.2460938,0.046875 -0.3515625,0.46875 l -1.265625,5.08593749 c 0,0.0234375 -0.09375,0.33984375 -0.09375,0.36328125 0,0.22265625 0.1992187,0.22265625 0.2460937,0.22265625 0.09375,0 0.1289063,-0.0234375 0.421875,-0.38671875 L 3.0701016,-1.3585703 c 0.5976562,0.89062499 1.8867187,1.87499999 4.1953125,1.87499999 3.1992189,0 6.1171879,-3.09374999 6.1171879,-6.18749999 0,-1.0429688 -0.246094,-1.9570313 -1.183594,-2.8828125 -0.527344,-0.515625 -0.972656,-0.6445313 -3.2460939,-1.2304688 -1.6640625,-0.4453124 -1.8867188,-0.5273434 -2.3320313,-0.9257814 -0.421875,-0.421875 -0.75,-1.007812 -0.75,-1.851562 0,-2.085938 2.109375,-4.21875 4.4648442,-4.21875 2.425781,0 3.574218,1.488281 3.574218,3.84375 0,0.644531 -0.128906,1.3125 -0.128906,1.417968 0,0.222657 0.199219,0.222657 0.269531,0.222657 0.222657,0 0.246094,-0.08203 0.351563,-0.480469 z m 0,0"
       style="fill:#f9123c;fill-opacity:1;fill-rule:nonzero;stroke:none"
       aria-label="S"
       transform="matrix(1.3333333,0,0,1.3333333,242.512,35.065333)" />
    <path
       id="path11"
       d="m 8.6138281,-12.597797 c 0.1289063,-0.503906 0.1640625,-0.691406 0.4804688,-0.773437 0.1640625,-0.03516 0.84375,-0.03516 1.2773441,-0.03516 2.0625,0 3.035156,0.08203 3.035156,1.6875 0,0.316407 -0.08203,1.101563 -0.199219,1.8632816 l -0.02344,0.2460938 c 0,0.082031 0.08203,0.2109375 0.199218,0.2109375 0.210938,0 0.210938,-0.1054688 0.269532,-0.4335938 l 0.597656,-3.6562501 c 0.04687,-0.1875 0.04687,-0.234375 0.04687,-0.292969 0,-0.222656 -0.128906,-0.222656 -0.539063,-0.222656 H 2.4614844 c -0.4804688,0 -0.5039063,0.01172 -0.6210938,0.386719 l -1.26562497,3.7265624 c -0.0117188,0.035156 -0.0820313,0.2578125 -0.0820313,0.28125 0,0.1054687 0.0820313,0.2109375 0.2109375,0.2109375 0.1640625,0 0.2109375,-0.082031 0.29296875,-0.3515625 C 1.8638281,-12.246234 2.2974219,-13.406391 5.0396094,-13.406391 h 1.3828125 c 0.5039062,0 0.703125,0 0.703125,0.222657 0,0.05859 0,0.105468 -0.1054688,0.480468 l -2.765625,11.0859379 c -0.1992187,0.80859373 -0.2460937,1.01953123 -2.4375,1.01953123 -0.515625,0 -0.65625,0 -0.65625,0.38671875 0,0.210937495 0.2226563,0.210937495 0.328125,0.210937495 0.515625,0 1.0546875,-0.046874995 1.5703125,-0.046874995 h 3.2226563 c 0.515625,0 1.078125,0.046874995 1.59375,0.046874995 0.2226562,0 0.4335937,0 0.4335937,-0.386718745 0,-0.2109375 -0.1523437,-0.2109375 -0.6796875,-0.2109375 -1.8632812,0 -1.8632812,-0.1875 -1.8632812,-0.49218753 0,-0.023437 0,-0.1757812 0.082031,-0.5039062 z m 0,0"
       style="fill:#f9123c;fill-opacity:1;fill-rule:nonzero;stroke:none"
       aria-label="T"
       transform="matrix(1.3333333,0,0,1.3333333,262.41333,42.508)" />
    <path
       id="path12"
       d="m 3.9380391,-17.694508 c 0,-0.445312 0,-0.890625 -0.4921875,-0.890625 -0.4921875,0 -0.4921875,0.445313 -0.4921875,0.890625 V 5.3093984 c 0,0.4453125 0,0.890625 0.4921875,0.890625 0.4921875,0 0.4921875,-0.4453125 0.4921875,-0.890625 z m 0,0"
       style="fill:#122d8d;fill-opacity:1;fill-rule:nonzero;stroke:none"
       aria-label="|"
       transform="matrix(1.3333333,0,0,1.3333333,282.636,35.065333)" />
    <path
       id="path13"
       d="m 18.539367,-15.116383 c 0.222656,-0.84375 0.269531,-1.089844 2.027344,-1.089844 0.457031,0 0.703125,0 0.703125,-0.445312 0,-0.28125 -0.222656,-0.28125 -0.375,-0.28125 -0.445313,0 -0.972656,0.05859 -1.441406,0.05859 h -2.917969 c -0.46875,0 -0.996094,-0.05859 -1.464844,-0.05859 -0.175781,0 -0.46875,0 -0.46875,0.480469 0,0.246093 0.175781,0.246093 0.644531,0.246093 1.488282,0 1.488282,0.199219 1.488282,0.46875 0,0.04687 0,0.199219 -0.105469,0.574219 l -1.511719,5.9882814 H 7.6292109 l 1.4882813,-5.9414064 c 0.2226562,-0.84375 0.28125,-1.089844 2.0390628,-1.089844 0.445312,0 0.691406,0 0.691406,-0.445312 0,-0.28125 -0.222656,-0.28125 -0.375,-0.28125 -0.445313,0 -0.960938,0.05859 -1.429688,0.05859 H 7.1135859 c -0.46875,0 -0.9960937,-0.05859 -1.4648437,-0.05859 -0.1757813,0 -0.46875,0 -0.46875,0.480469 0,0.246093 0.1757812,0.246093 0.6445312,0.246093 1.4882813,0 1.4882813,0.199219 1.4882813,0.46875 0,0.04687 0,0.199219 -0.1054688,0.574219 L 3.8674922,-1.8390391 c -0.2226563,0.87890629 -0.2695313,1.12500004 -1.9804688,1.12500004 -0.5742187,0 -0.75,0 -0.75,0.46875 0,0.2460937475 0.28125,0.2460937475 0.3515625,0.2460937475 0.4453125,0 0.9609375,-0.0468749975 1.4414063,-0.0468749975 h 2.9179687 c 0.46875,0 0.9960938,0.0468749975 1.4648438,0.0468749975 0.1992187,0 0.46875,0 0.46875,-0.4687499975 0,-0.24609375 -0.2226563,-0.24609375 -0.5976563,-0.24609375 -1.5117187,0 -1.5117187,-0.19921875 -1.5117187,-0.44531254 0,-0.035156 0,-0.1992187 0.058594,-0.3984375 l 1.7109375,-6.890625 h 7.4999998 c -0.421875,1.6289063 -1.675781,6.8085938 -1.734375,6.9609375 -0.269531,0.75000004 -0.667969,0.75000004 -2.132813,0.77343754 -0.292968,0 -0.515625,0 -0.515625,0.46875 0,0.2460937475 0.269532,0.2460937475 0.351563,0.2460937475 0.445312,0 0.960937,-0.0468749975 1.429687,-0.0468749975 h 2.929688 c 0.46875,0 0.984375,0.0468749975 1.464844,0.0468749975 0.199218,0 0.46875,0 0.46875,-0.4687499975 0,-0.24609375 -0.222657,-0.24609375 -0.597657,-0.24609375 -1.511718,0 -1.511718,-0.19921875 -1.511718,-0.44531254 0,-0.035156 0,-0.1992187 0.04687,-0.3984375 z m 0,0"
       style="fill:#122d8d;fill-opacity:1;fill-rule:nonzero;stroke:none"
       aria-label="H"
       transform="matrix(1.3333333,0,0,1.3333333,291.816,35.065333)" />
    <path
       id="path14"
       d="m 8.6139609,-12.597797 c 0.1289063,-0.503906 0.1640625,-0.691406 0.4804688,-0.773437 0.1640625,-0.03516 0.84375,-0.03516 1.2773433,-0.03516 2.0625,0 3.035157,0.08203 3.035157,1.6875 0,0.316407 -0.08203,1.101563 -0.199219,1.8632816 l -0.02344,0.2460938 c 0,0.082031 0.08203,0.2109375 0.199219,0.2109375 0.210938,0 0.210938,-0.1054688 0.269531,-0.4335938 l 0.597657,-3.6562501 c 0.04687,-0.1875 0.04687,-0.234375 0.04687,-0.292969 0,-0.222656 -0.128907,-0.222656 -0.539063,-0.222656 H 2.4616172 c -0.4804688,0 -0.5039063,0.01172 -0.6210938,0.386719 l -1.26562496,3.7265624 c -0.0117188,0.035156 -0.0820313,0.2578125 -0.0820313,0.28125 0,0.1054687 0.0820313,0.2109375 0.2109375,0.2109375 0.1640625,0 0.2109375,-0.082031 0.29296875,-0.3515625 C 1.8639609,-12.246234 2.2975547,-13.406391 5.0397422,-13.406391 h 1.3828125 c 0.5039062,0 0.703125,0 0.703125,0.222657 0,0.05859 0,0.105468 -0.1054688,0.480468 l -2.765625,11.0859379 c -0.1992187,0.80859373 -0.2460937,1.01953123 -2.4375,1.01953123 -0.515625,0 -0.65625,0 -0.65625,0.38671875 0,0.210937495 0.2226563,0.210937495 0.328125,0.210937495 0.515625,0 1.0546875,-0.046874995 1.5703125,-0.046874995 h 3.2226563 c 0.515625,0 1.078125,0.046874995 1.59375,0.046874995 0.2226562,0 0.4335937,0 0.4335937,-0.386718745 0,-0.2109375 -0.1523437,-0.2109375 -0.6796875,-0.2109375 -1.8632812,0 -1.8632812,-0.1875 -1.8632812,-0.49218753 0,-0.023437 0,-0.1757812 0.082031,-0.5039062 z m 0,0"
       style="fill:#122d8d;fill-opacity:1;fill-rule:nonzero;stroke:none"
       aria-label="T"
       transform="matrix(1.3333333,0,0,1.3333333,318.628,42.508)" />
    <path
       id="path15"
       d="m 3.9362422,-17.694508 c 0,-0.445312 0,-0.890625 -0.4921875,-0.890625 -0.4921875,0 -0.4921875,0.445313 -0.4921875,0.890625 V 5.3093984 c 0,0.4453125 0,0.890625 0.4921875,0.890625 0.4921875,0 0.4921875,-0.4453125 0.4921875,-0.890625 z m 0,0"
       style="fill:#122d8d;fill-opacity:1;fill-rule:nonzero;stroke:none"
       aria-label="|"
       transform="matrix(1.3333333,0,0,1.3333333,338.84933,35.065333)" />
    <path
       id="path16"
       d="m 8.6137188,-3.2004844 h -0.375 C 8.0395,-1.7356406 7.8754375,-1.4895469 7.7934063,-1.3606406 7.6879375,-1.1965781 6.1996563,-1.1965781 5.9066875,-1.1965781 H 1.94575 c 0.7382813,-0.8085938 2.1914063,-2.2734375 3.9375,-3.9726563 1.265625,-1.1953125 2.7304688,-2.6015625 2.7304688,-4.640625 0,-2.4374996 -1.9453125,-3.8437496 -4.1132813,-3.8437496 -2.2734375,0 -3.65625,2.003906 -3.65625,3.8554684 0,0.8085937 0.5976563,0.9140625 0.8554688,0.9140625 0.1992187,0 0.8203125,-0.1289063 0.8203125,-0.84375 0,-0.6445309 -0.5390625,-0.8320309 -0.8203125,-0.8320309 -0.1289063,0 -0.2578125,0.02344 -0.3398438,0.05859 0.3984375,-1.746093 1.59375,-2.625 2.859375,-2.625 1.7929688,0 2.9765625,1.429688 2.9765625,3.3164066 0,1.7929688 -1.0546875,3.3398438 -2.2382812,4.6875 l -4.1132813,4.64062503 v 0.48046875 h 7.2773438 z m 0,0"
       style="fill:#122d8d;fill-opacity:1;fill-rule:nonzero;stroke:none"
       aria-label="2"
       transform="matrix(1.3333333,0,0,1.3333333,348.03067,23.072)" />
    <path
       id="path17"
       d="m 9.3389375,-5.7531016 h 6.5742185 c 0.339844,0 0.761719,0 0.761719,-0.421875 0,-0.4453125 -0.386719,-0.4453125 -0.761719,-0.4453125 H 9.3389375 v -6.5624999 c 0,-0.351563 0,-0.773438 -0.421875,-0.773438 -0.4453125,0 -0.4453125,0.398438 -0.4453125,0.773438 v 6.5624999 h -6.5625 c -0.3515625,0 -0.7734375,0 -0.7734375,0.421875 0,0.4453125 0.3984375,0.4453125 0.7734375,0.4453125 h 6.5625 v 6.57421879 c 0,0.33984371 0,0.76171871 0.421875,0.76171871 0.4453125,0 0.4453125,-0.3867187 0.4453125,-0.76171871 z m 0,0"
       style="fill:#ffffff;fill-opacity:1;fill-rule:nonzero;stroke:none"
       aria-label="+"
       transform="matrix(1.3333333,0,0,1.3333333,361.32933,35.065333)" />
    <path
       id="path18"
       d="m 15.739102,-17.225758 c 0,-0.222656 -0.175782,-0.222656 -0.222657,-0.222656 -0.09375,0 -0.128906,0.02344 -0.421875,0.398437 -0.152343,0.175782 -1.160156,1.464844 -1.183593,1.488282 -0.820313,-1.617188 -2.460938,-1.886719 -3.503907,-1.886719 -3.1406247,0 -5.9999997,2.871094 -5.9999997,5.671875 0,1.8632812 1.125,2.9531249 2.3320313,3.3749999 0.28125,0.09375 1.734375,0.4921875 2.484375,0.6679688 1.2656254,0.3515625 1.5820314,0.4453125 2.1093754,0.9960937 0.09375,0.1171875 0.585937,0.6914063 0.585937,1.8515625 0,2.3085938 -2.1328124,4.68750004 -4.6054687,4.68750004 -2.0390625,0 -4.2890625,-0.86718754 -4.2890625,-3.64453124 0,-0.46875 0.09375,-1.0664063 0.1757813,-1.3125 0,-0.070312 0.023437,-0.1992188 0.023437,-0.2460938 0,-0.1054687 -0.046875,-0.2226562 -0.2460938,-0.2226562 -0.2226562,0 -0.2460937,0.046875 -0.3515625,0.46875 l -1.265625,5.08593749 c 0,0.0234375 -0.09375,0.33984375 -0.09375,0.36328125 0,0.22265625 0.1992188,0.22265625 0.2460938,0.22265625 0.09375,0 0.1289062,-0.0234375 0.421875,-0.38671875 L 3.0711328,-1.3585703 c 0.5976563,0.89062499 1.8867188,1.87499999 4.1953125,1.87499999 3.1992187,0 6.1171877,-3.09374999 6.1171877,-6.18749999 0,-1.0429688 -0.246094,-1.9570313 -1.183594,-2.8828125 -0.527344,-0.515625 -0.972656,-0.6445313 -3.2460937,-1.2304688 -1.6640625,-0.4453124 -1.8867187,-0.5273434 -2.3320312,-0.9257814 -0.421875,-0.421875 -0.75,-1.007812 -0.75,-1.851562 0,-2.085938 2.109375,-4.21875 4.4648439,-4.21875 2.425781,0 3.574219,1.488281 3.574219,3.84375 0,0.644531 -0.128907,1.3125 -0.128907,1.417968 0,0.222657 0.199219,0.222657 0.269532,0.222657 0.222656,0 0.246093,-0.08203 0.351562,-0.480469 z m 0,0"
       style="fill:#ffffff;fill-opacity:1;fill-rule:nonzero;stroke:none"
       aria-label="S"
       transform="matrix(1.3333333,0,0,1.3333333,385.12,35.065333)" />
    <path
       id="path19"
       d="m 9.4439609,-7.7220781 c 0,-1.3007813 -0.6679687,-1.3828125 -0.8320312,-1.3828125 -0.4921875,0 -0.9492188,0.4921875 -0.9492188,0.9023437 0,0.2460938 0.140625,0.3984375 0.2226563,0.4804688 0.2109375,0.1875 0.75,0.7382812 0.75,1.8164062 0,0.8671875 -1.2421875,5.69531253 -3.7148438,5.69531253 -1.265625,0 -1.5117187,-1.05468753 -1.5117187,-1.81640623 0,-1.03125 0.46875,-2.4726563 1.03125,-3.9609375 0.328125,-0.8554688 0.4101562,-1.0546875 0.4101562,-1.4648438 0,-0.8671875 -0.6210937,-1.6523437 -1.6289062,-1.6523437 -1.8984375,0 -2.66015626,2.9882812 -2.66015626,3.1523437 0,0.082031 0.0820313,0.1875 0.22265625,0.1875 0.1875,0 0.2109375,-0.082031 0.29296871,-0.375 0.4921875,-1.7695312 1.3007813,-2.5546875 2.0859375,-2.5546875 0.1875,0 0.5390625,0 0.5390625,0.6796875 0,0.5390625 -0.234375,1.1367188 -0.5390625,1.921875 -0.9960937,2.6484375 -0.9960937,3.28125 -0.9960937,3.7851563 0,0.4453125 0.058594,1.3007812 0.703125,1.87499998 0.75,0.64453125 1.78125,0.64453125 1.96875,0.64453125 3.421875,0 4.6054687,-6.76171873 4.6054687,-7.93359373 z m 0,0"
       style="fill:#ffffff;fill-opacity:1;fill-rule:nonzero;stroke:none"
       aria-label="v"
       transform="matrix(1.3333333,0,0,1.3333333,405.02133,40.022667)" />
    <path
       id="path20"
       d="m 4.0309326,0.08260938 c 0,-1.19531248 -0.3984375,-2.08593748 -1.2421875,-2.08593748 -0.65625,0 -0.9960937,0.5390625 -0.9960937,0.9960937 0,0.44531253 0.3164062,1.007812525 1.0195312,1.007812525 0.2695313,0 0.4921875,-0.082031245 0.6796875,-0.269531245 0.035156,-0.0351563 0.058594,-0.0351563 0.082031,-0.0351563 0.046875,0 0.046875,0.28125 0.046875,0.38671875 0,0.6796875 -0.1289063,2.02734377 -1.3242188,3.36328127 -0.234375,0.2578125 -0.234375,0.2929688 -0.234375,0.3398438 0,0.09375 0.1054688,0.1992187 0.2109375,0.1992187 0.1640625,0 1.7578125,-1.5234375 1.7578128,-3.90234372 z m 0,0"
       style="fill:#ffffff;fill-opacity:1;fill-rule:nonzero;stroke:none"
       aria-label=","
       transform="matrix(1.3333333,0,0,1.3333333,419.02777,40.022667)" />
    <text
       id="text20"
       xml:space="preserve"
       transform="matrix(1.3333333,0,0,1.3333333,426.54533,40.022667)"><tspan
         id="tspan20"
         style="font-variant:normal;font-weight:normal;font-size:20.6625px;font-family:'Latin Modern Roman';writing-mode:lr-tb;fill:#ffffff;fill-opacity:1;fill-rule:nonzero;stroke:none"
         x="0"
         y="0">amp</tspan></text>
    <path
       id="path21"
       d="m 3.9388438,-17.694508 c 0,-0.445312 0,-0.890625 -0.4921875,-0.890625 -0.4921875,0 -0.4921875,0.445313 -0.4921875,0.890625 V 5.3093984 c 0,0.4453125 0,0.890625 0.4921875,0.890625 0.4921875,0 0.4921875,-0.4453125 0.4921875,-0.890625 z m 0,0"
       style="fill:#ffffff;fill-opacity:1;fill-rule:nonzero;stroke:none"
       aria-label="|"
       transform="matrix(1.3333333,0,0,1.3333333,475.20133,35.065333)" />
    <path
       id="path22"
       d="m 18.540172,-15.116383 c 0.222656,-0.84375 0.269531,-1.089844 2.027344,-1.089844 0.457031,0 0.703125,0 0.703125,-0.445312 0,-0.28125 -0.222657,-0.28125 -0.375,-0.28125 -0.445313,0 -0.972657,0.05859 -1.441407,0.05859 h -2.917968 c -0.46875,0 -0.996094,-0.05859 -1.464844,-0.05859 -0.175781,0 -0.46875,0 -0.46875,0.480469 0,0.246093 0.175781,0.246093 0.644531,0.246093 1.488281,0 1.488281,0.199219 1.488281,0.46875 0,0.04687 0,0.199219 -0.105468,0.574219 l -1.511719,5.9882814 H 7.6300156 l 1.4882813,-5.9414064 c 0.2226562,-0.84375 0.28125,-1.089844 2.0390621,-1.089844 0.445313,0 0.691407,0 0.691407,-0.445312 0,-0.28125 -0.222657,-0.28125 -0.375,-0.28125 -0.445313,0 -0.960938,0.05859 -1.429688,0.05859 H 7.1143906 c -0.46875,0 -0.9960937,-0.05859 -1.4648437,-0.05859 -0.1757813,0 -0.46875,0 -0.46875,0.480469 0,0.246093 0.1757812,0.246093 0.6445312,0.246093 1.4882813,0 1.4882813,0.199219 1.4882813,0.46875 0,0.04687 0,0.199219 -0.1054688,0.574219 L 3.8682969,-1.8390391 c -0.2226563,0.87890629 -0.2695313,1.12500004 -1.9804688,1.12500004 -0.5742187,0 -0.75,0 -0.75,0.46875 0,0.2460937475 0.28125,0.2460937475 0.3515625,0.2460937475 0.4453125,0 0.9609375,-0.0468749975 1.4414063,-0.0468749975 h 2.9179687 c 0.46875,0 0.9960938,0.0468749975 1.4648438,0.0468749975 0.1992187,0 0.46875,0 0.46875,-0.4687499975 0,-0.24609375 -0.2226563,-0.24609375 -0.5976563,-0.24609375 -1.5117187,0 -1.5117187,-0.19921875 -1.5117187,-0.44531254 0,-0.035156 0,-0.1992187 0.058594,-0.3984375 l 1.7109375,-6.890625 h 7.5000001 c -0.421875,1.6289063 -1.675782,6.8085938 -1.734375,6.9609375 -0.269532,0.75000004 -0.667969,0.75000004 -2.132813,0.77343754 -0.292969,0 -0.515625,0 -0.515625,0.46875 0,0.2460937475 0.269531,0.2460937475 0.351563,0.2460937475 0.445312,0 0.960937,-0.0468749975 1.429687,-0.0468749975 h 2.929688 c 0.46875,0 0.984375,0.0468749975 1.464843,0.0468749975 0.199219,0 0.46875,0 0.46875,-0.4687499975 0,-0.24609375 -0.222656,-0.24609375 -0.597656,-0.24609375 -1.511719,0 -1.511719,-0.19921875 -1.511719,-0.44531254 0,-0.035156 0,-0.1992187 0.04687,-0.3984375 z m 0,0"
       style="fill:#ffffff;fill-opacity:1;fill-rule:nonzero;stroke:none"
       aria-label="H"
       transform="matrix(1.3333333,0,0,1.3333333,484.38133,35.065333)" />
    <text
       id="text22"
       xml:space="preserve"
       transform="matrix(1.3333333,0,0,1.3333333,511.19467,40.022667)"><tspan
         id="tspan22"
         style="font-variant:normal;font-weight:normal;font-size:20.6625px;font-family:'Latin Modern Roman';writing-mode:lr-tb;fill:#ffffff;fill-opacity:1;fill-rule:nonzero;stroke:none"
         x="0"
         y="0">amp</tspan></text>
    <path
       id="path23"
       d="m 3.9381719,-17.694508 c 0,-0.445312 0,-0.890625 -0.4921875,-0.890625 -0.4921875,0 -0.4921875,0.445313 -0.4921875,0.890625 V 5.3093984 c 0,0.4453125 0,0.890625 0.4921875,0.890625 0.4921875,0 0.4921875,-0.4453125 0.4921875,-0.890625 z m 0,0"
       style="fill:#ffffff;fill-opacity:1;fill-rule:nonzero;stroke:none"
       aria-label="|"
       transform="matrix(1.3333333,0,0,1.3333333,559.85067,35.065333)" />
    <path
       id="path24"
       d="m 8.6137188,-3.2004844 h -0.375 C 8.0395,-1.7356406 7.8754375,-1.4895469 7.7934063,-1.3606406 7.6879375,-1.1965781 6.1996563,-1.1965781 5.9066875,-1.1965781 H 1.94575 c 0.7382813,-0.8085938 2.1914063,-2.2734375 3.9375,-3.9726563 1.265625,-1.1953125 2.7304688,-2.6015625 2.7304688,-4.640625 0,-2.4374996 -1.9453125,-3.8437496 -4.1132813,-3.8437496 -2.2734375,0 -3.65625,2.003906 -3.65625,3.8554684 0,0.8085937 0.5976563,0.9140625 0.8554688,0.9140625 0.1992187,0 0.8203125,-0.1289063 0.8203125,-0.84375 0,-0.6445309 -0.5390625,-0.8320309 -0.8203125,-0.8320309 -0.1289063,0 -0.2578125,0.02344 -0.3398438,0.05859 0.3984375,-1.746093 1.59375,-2.625 2.859375,-2.625 1.7929688,0 2.9765625,1.429688 2.9765625,3.3164066 0,1.7929688 -1.0546875,3.3398438 -2.2382812,4.6875 l -4.1132813,4.64062503 v 0.48046875 h 7.2773438 z m 0,0"
       style="fill:#ffffff;fill-opacity:1;fill-rule:nonzero;stroke:none"
       aria-label="2"
       transform="matrix(1.3333333,0,0,1.3333333,569.03067,23.072)" />
    <path
       id="path25"
       d="m 9.3389375,-5.7531016 h 6.5742185 c 0.339844,0 0.761719,0 0.761719,-0.421875 0,-0.4453125 -0.386719,-0.4453125 -0.761719,-0.4453125 H 9.3389375 v -6.5624999 c 0,-0.351563 0,-0.773438 -0.421875,-0.773438 -0.4453125,0 -0.4453125,0.398438 -0.4453125,0.773438 v 6.5624999 h -6.5625 c -0.3515625,0 -0.7734375,0 -0.7734375,0.421875 0,0.4453125 0.3984375,0.4453125 0.7734375,0.4453125 h 6.5625 v 6.57421879 c 0,0.33984371 0,0.76171871 0.421875,0.76171871 0.4453125,0 0.4453125,-0.3867187 0.4453125,-0.76171871 z m 0,0"
       style="fill:#ffffff;fill-opacity:1;fill-rule:nonzero;stroke:none"
       aria-label="+"
       transform="matrix(1.3333333,0,0,1.3333333,582.32933,35.065333)" />
    <path
       id="path26"
       d="m 15.739102,-17.225758 c 0,-0.222656 -0.175782,-0.222656 -0.222657,-0.222656 -0.09375,0 -0.128906,0.02344 -0.421875,0.398437 -0.152343,0.175782 -1.160156,1.464844 -1.183593,1.488282 -0.820313,-1.617188 -2.460938,-1.886719 -3.503907,-1.886719 -3.1406247,0 -5.9999997,2.871094 -5.9999997,5.671875 0,1.8632812 1.125,2.9531249 2.3320313,3.3749999 0.28125,0.09375 1.734375,0.4921875 2.484375,0.6679688 1.2656254,0.3515625 1.5820314,0.4453125 2.1093754,0.9960937 0.09375,0.1171875 0.585937,0.6914063 0.585937,1.8515625 0,2.3085938 -2.1328124,4.68750004 -4.6054687,4.68750004 -2.0390625,0 -4.2890625,-0.86718754 -4.2890625,-3.64453124 0,-0.46875 0.09375,-1.0664063 0.1757813,-1.3125 0,-0.070312 0.023437,-0.1992188 0.023437,-0.2460938 0,-0.1054687 -0.046875,-0.2226562 -0.2460938,-0.2226562 -0.2226562,0 -0.2460937,0.046875 -0.3515625,0.46875 l -1.265625,5.08593749 c 0,0.0234375 -0.09375,0.33984375 -0.09375,0.36328125 0,0.22265625 0.1992188,0.22265625 0.2460938,0.22265625 0.09375,0 0.1289062,-0.0234375 0.421875,-0.38671875 L 3.0711328,-1.3585703 c 0.5976563,0.89062499 1.8867188,1.87499999 4.1953125,1.87499999 3.1992187,0 6.1171877,-3.09374999 6.1171877,-6.18749999 0,-1.0429688 -0.246094,-1.9570313 -1.183594,-2.8828125 -0.527344,-0.515625 -0.972656,-0.6445313 -3.2460937,-1.2304688 -1.6640625,-0.4453124 -1.8867187,-0.5273434 -2.3320312,-0.9257814 -0.421875,-0.421875 -0.75,-1.007812 -0.75,-1.851562 0,-2.085938 2.109375,-4.21875 4.4648439,-4.21875 2.425781,0 3.574219,1.488281 3.574219,3.84375 0,0.644531 -0.128907,1.3125 -0.128907,1.417968 0,0.222657 0.199219,0.222657 0.269532,0.222657 0.222656,0 0.246093,-0.08203 0.351562,-0.480469 z m 0,0"
       style="fill:#ffffff;fill-opacity:1;fill-rule:nonzero;stroke:none"
       aria-label="S"
       transform="matrix(1.3333333,0,0,1.3333333,606.12,35.065333)" />
    <path
       id="path27"
       d="m 5.8482344,-2.9544844 c 0,-0.1054687 -0.082031,-0.1875 -0.2109375,-0.1875 -0.1875,0 -0.1992188,0.058594 -0.3046875,0.4101563 -0.5390625,1.88671873 -1.3828125,2.51953123 -2.0625,2.51953123 -0.2578125,0 -0.5390625,-0.0585938 -0.5390625,-0.6796875 0,-0.55078123 0.2460937,-1.17187503 0.46875,-1.79296873 l 1.453125,-3.84375 c 0.058594,-0.1640625 0.1992187,-0.5390625 0.1992187,-0.9257813 0,-0.8671875 -0.6210937,-1.6523437 -1.6289062,-1.6523437 -1.8984375,0 -2.66015627,2.9882812 -2.66015627,3.1523437 0,0.082031 0.0820313,0.1875 0.22265625,0.1875 0.1875,0 0.2109375,-0.082031 0.29296872,-0.375 0.4921875,-1.734375 1.2773438,-2.5546875 2.0859375,-2.5546875 0.1875,0 0.5390625,0.023437 0.5390625,0.6796875 0,0.5390625 -0.2695312,1.21875 -0.4335937,1.6757813 l -1.453125,3.84375 c -0.1171875,0.328125 -0.2460938,0.65625 -0.2460938,1.03125 0,0.92578123 0.6445313,1.67578123 1.6289063,1.67578123 1.8984375,0 2.6484375,-3.02343753 2.6484375,-3.16406253 z M 5.6841719,-12.891984 c 0,-0.316407 -0.2460938,-0.679688 -0.703125,-0.679688 -0.4804688,0 -1.0195313,0.445313 -1.0195313,0.984375 0,0.515625 0.4453125,0.691406 0.6914063,0.691406 0.5507812,0 1.03125,-0.539062 1.03125,-0.996093 z M 10.931242,0.08067188 c 0,-1.19531248 -0.398437,-2.08593748 -1.2421873,-2.08593748 -0.65625,0 -0.9960938,0.5390625 -0.9960938,0.9960937 0,0.44531253 0.3164063,1.00781253 1.0195313,1.00781253 0.2695312,0 0.4921878,-0.08203125 0.6796878,-0.26953125 0.03516,-0.0351563 0.05859,-0.0351563 0.08203,-0.0351563 0.04687,0 0.04687,0.28125 0.04687,0.38671875 0,0.6796875 -0.128906,2.02734377 -1.3242188,3.36328127 -0.234375,0.2578125 -0.234375,0.2929688 -0.234375,0.3398438 0,0.09375 0.1054687,0.1992187 0.2109375,0.1992187 0.1640625,0 1.7578123,-1.5234375 1.7578123,-3.90234377 z m 0,0"
       style="fill:#ffffff;fill-opacity:1;fill-rule:nonzero;stroke:none"
       aria-label="i,"
       transform="matrix(1.3333333,0,0,1.3333333,626.02267,41.744)" />
    <text
       id="text27"
       xml:space="preserve"
       transform="matrix(1.3333333,0,0,1.3333333,642.71867,41.744)"><tspan
         id="tspan27"
         style="font-variant:normal;font-weight:normal;font-size:20.6625px;font-family:'Latin Modern Roman';writing-mode:lr-tb;fill:#ffffff;fill-opacity:1;fill-rule:nonzero;stroke:none"
         x="0"
         y="0">amp</tspan></text>
    <path
       id="path28"
       d="m 3.93775,-17.694508 c 0,-0.445312 0,-0.890625 -0.4921875,-0.890625 -0.4921875,0 -0.4921875,0.445313 -0.4921875,0.890625 V 5.3093984 c 0,0.4453125 0,0.890625 0.4921875,0.890625 0.4921875,0 0.4921875,-0.4453125 0.4921875,-0.890625 z m 0,0"
       style="fill:#ffffff;fill-opacity:1;fill-rule:nonzero;stroke:none"
       aria-label="|"
       transform="matrix(1.3333333,0,0,1.3333333,691.37467,35.065333)" />
    <path
       id="path29"
       d="m 17.355484,-16.159352 c 0.140625,-0.175781 0.269532,-0.316406 0.269532,-0.574218 0,-0.164063 -0.02344,-0.199219 -0.597657,-0.199219 H 6.7968906 c -0.5742187,0 -0.5976562,0.03516 -0.75,0.480469 l -1.359375,4.453125 c -0.082031,0.246093 -0.082031,0.304687 -0.082031,0.351562 0,0.09375 0.082031,0.246094 0.2578125,0.246094 0.1875,0 0.2460937,-0.09375 0.3398437,-0.421875 0.9140625,-2.671875 2.1328125,-4.382813 6.0468752,-4.382813 h 4.066406 L 1.7343906,-0.84294531 c -0.2226562,0.26953125 -0.3164062,0.375 -0.3164062,0.64453125 0,0.1992187475 0.1171875,0.1992187475 0.5859375,0.1992187475 H 12.585953 c 0.574219,0 0.597656,-0.0234374975 0.75,-0.4687499975 l 1.734375,-5.48437499 c 0.02344,-0.070312 0.07031,-0.2460938 0.07031,-0.3398438 0,-0.1289062 -0.09375,-0.2460937 -0.246094,-0.2460937 -0.199219,0 -0.222656,0.023437 -0.421875,0.6445312 -1.042969,3.1875 -2.132813,5.12109379 -6.4453126,5.12109379 H 3.7382969 Z m 0,0"
       style="fill:#ffffff;fill-opacity:1;fill-rule:nonzero;stroke:none"
       aria-label="Z"
       transform="matrix(1.3333333,0,0,1.3333333,700.55467,35.065333)" />
    <text
       id="text29"
       xml:space="preserve"
       transform="matrix(1.3333333,0,0,1.3333333,722.704,40.022667)"><tspan
         id="tspan29"
         style="font-variant:normal;font-weight:normal;font-size:20.6625px;font-family:'Latin Modern Roman';writing-mode:lr-tb;fill:#ffffff;fill-opacity:1;fill-rule:nonzero;stroke:none"
         x="0"
         y="0">eq</tspan></text>
    <path
       id="path30"
       d="m 3.9360469,-17.694508 c 0,-0.445312 0,-0.890625 -0.4921875,-0.890625 -0.4921875,0 -0.4921875,0.445313 -0.4921875,0.890625 V 5.3093984 c 0,0.4453125 0,0.890625 0.4921875,0.890625 0.4921875,0 0.4921875,-0.4453125 0.4921875,-0.890625 z m 0,0"
       style="fill:#ffffff;fill-opacity:1;fill-rule:nonzero;stroke:none"
       aria-label="|"
       transform="matrix(1.3333333,0,0,1.3333333,747.916,35.065333)" />
    <path
       id="path31"
       d="m 8.6145234,-3.2004844 h -0.375 c -0.1992187,1.4648438 -0.3632812,1.7109375 -0.4453125,1.8398438 -0.1054687,0.1640625 -1.59375,0.1640625 -1.8867187,0.1640625 H 1.9465547 c 0.7382812,-0.8085938 2.1914062,-2.2734375 3.9375,-3.9726563 1.265625,-1.1953125 2.7304687,-2.6015625 2.7304687,-4.640625 0,-2.4374996 -1.9453125,-3.8437496 -4.1132812,-3.8437496 -2.2734375,0 -3.65625001,2.003906 -3.65625001,3.8554684 0,0.8085937 0.59765621,0.9140625 0.85546871,0.9140625 0.1992188,0 0.8203125,-0.1289063 0.8203125,-0.84375 0,-0.6445309 -0.5390625,-0.8320309 -0.8203125,-0.8320309 -0.1289062,0 -0.2578125,0.02344 -0.3398437,0.05859 0.3984375,-1.746093 1.59375,-2.625 2.859375,-2.625 1.7929687,0 2.9765625,1.429688 2.9765625,3.3164066 0,1.7929688 -1.0546875,3.3398438 -2.2382813,4.6875 l -4.11328121,4.64062503 v 0.48046875 H 8.1223359 Z m 0,0"
       style="fill:#ffffff;fill-opacity:1;fill-rule:nonzero;stroke:none"
       aria-label="2"
       transform="matrix(1.3333333,0,0,1.3333333,757.096,23.072)" />
    <path
       id="path32"
       d="m 4.2174141,-2.7531016 c -0.8671875,1.4648438 -1.7109375,1.95703129 -2.90625,2.03906254 -0.2695313,0.0234375 -0.46875004,0.0234375 -0.46875004,0.46875 0,0.15234375 0.1171875,0.2460937475 0.29296874,0.2460937475 0.4453125,0 1.5703125,-0.0468749975 2.015625,-0.0468749975 0.7148438,0 1.5117188,0.0468749975 2.203125,0.0468749975 0.1523438,0 0.4453125,0 0.4453125,-0.4687499975 0,-0.22265625 -0.1992187,-0.24609375 -0.3515625,-0.24609375 -0.5625,-0.0585938 -1.0429687,-0.24609375 -1.0429687,-0.84375004 0,-0.3515625 0.1523437,-0.6210937 0.4804687,-1.171875 l 1.875,-3.1171875 h 6.3281252 c 0.02344,0.2226563 0.02344,0.421875 0.04687,0.6445313 0.07031,0.6445312 0.375,3.2226562 0.375,3.6914062 0,0.73828129 -1.265625,0.79687504 -1.664063,0.79687504 -0.269531,0 -0.550781,0 -0.550781,0.4453125 0,0.2695312475 0.222656,0.2695312475 0.375,0.2695312475 0.421875,0 0.914063,-0.0468749975 1.335938,-0.0468749975 h 1.417968 c 1.511719,0 2.601563,0.0468749975 2.625,0.0468749975 0.175782,0 0.445313,0 0.445313,-0.4687499975 0,-0.24609375 -0.222656,-0.24609375 -0.597656,-0.24609375 -1.359375,0 -1.382813,-0.22265625 -1.453125,-0.97265624 L 13.932258,-17.155445 c -0.05859,-0.492188 -0.152344,-0.539063 -0.421875,-0.539063 -0.246094,0 -0.398438,0.04687 -0.621094,0.421875 z m 2.9648437,-3.8085937 4.9804692,-8.3320317 0.84375,8.3320317 z m 0,0"
       style="fill:#ffffff;fill-opacity:1;fill-rule:nonzero;stroke:none"
       aria-label="A"
       transform="matrix(1.3333333,0,0,1.3333333,779.576,35.065333)" />
    <path
       id="path33"
       d="m 5.4970469,-13.206977 c 0,-0.433593 -0.023437,-0.445312 -0.3046875,-0.445312 -0.8085938,0.972656 -2.0273438,1.277344 -3.1875,1.3125 -0.058594,0 -0.1640625,0 -0.1875,0.04687 -0.023437,0.04687 -0.023437,0.08203 -0.023437,0.515625 0.6445312,0 1.7226562,-0.117188 2.5429687,-0.621094 v 10.8867189 c 0,0.72656254 -0.035156,0.97265629 -1.8164062,0.97265629 H 1.8993906 V 5.46875e-5 C 2.8954844,-0.02338281 3.9267344,-0.04682031 4.9228281,-0.04682031 c 0.984375,0 2.015625,0.0234375 3.0117188,0.0468749975 V -0.53900781 H 7.3134531 c -1.78125,0 -1.8164062,-0.22265625 -1.8164062,-0.97265629 z m 0,0"
       style="fill:#ffffff;fill-opacity:1;fill-rule:nonzero;stroke:none"
       aria-label="1"
       transform="matrix(1.3333333,0,0,1.3333333,803.83467,41.441333)" />
    <path
       id="path34"
       d="m 4.2183594,-2.7531016 c -0.8671875,1.4648438 -1.7109375,1.95703129 -2.90625,2.03906254 -0.2695313,0.0234375 -0.46875002,0.0234375 -0.46875002,0.46875 0,0.15234375 0.1171875,0.2460937475 0.29296872,0.2460937475 0.4453125,0 1.5703125,-0.0468749975 2.015625,-0.0468749975 0.7148438,0 1.5117188,0.0468749975 2.203125,0.0468749975 0.1523438,0 0.4453125,0 0.4453125,-0.4687499975 0,-0.22265625 -0.1992187,-0.24609375 -0.3515625,-0.24609375 -0.5625,-0.0585938 -1.0429687,-0.24609375 -1.0429687,-0.84375004 0,-0.3515625 0.1523437,-0.6210937 0.4804687,-1.171875 l 1.875,-3.1171875 h 6.3281249 c 0.02344,0.2226563 0.02344,0.421875 0.04687,0.6445313 0.07031,0.6445312 0.375,3.2226562 0.375,3.6914062 0,0.73828129 -1.265625,0.79687504 -1.664062,0.79687504 -0.269532,0 -0.550782,0 -0.550782,0.4453125 0,0.2695312475 0.222657,0.2695312475 0.375,0.2695312475 0.421875,0 0.914063,-0.0468749975 1.335938,-0.0468749975 h 1.417969 c 1.511718,0 2.601562,0.0468749975 2.625,0.0468749975 0.175781,0 0.445312,0 0.445312,-0.4687499975 0,-0.24609375 -0.222656,-0.24609375 -0.597656,-0.24609375 -1.359375,0 -1.382813,-0.22265625 -1.453125,-0.97265624 L 13.933203,-17.155445 c -0.05859,-0.492188 -0.152344,-0.539063 -0.421875,-0.539063 -0.246094,0 -0.398437,0.04687 -0.621094,0.421875 z m 2.9648437,-3.8085937 4.9804689,-8.3320317 0.84375,8.3320317 z m 0,0"
       style="fill:#ffffff;fill-opacity:1;fill-rule:nonzero;stroke:none"
       aria-label="A"
       transform="matrix(1.3333333,0,0,1.3333333,817.13333,35.065333)" />
    <path
       id="path35"
       d="m 8.61225,-3.1991641 h -0.375 c -0.1992187,1.4648438 -0.3632812,1.7109375 -0.4453125,1.8398438 -0.1054687,0.1640625 -1.59375,0.1640625 -1.8867187,0.1640625 H 1.9442813 c 0.7382812,-0.8085938 2.1914062,-2.2734375 3.9375,-3.9726563 1.265625,-1.1953125 2.7304687,-2.6015625 2.7304687,-4.640625 0,-2.4374999 -1.9453125,-3.8437499 -4.1132812,-3.8437499 -2.2734375,0 -3.65625005,2.003906 -3.65625005,3.8554687 0,0.8085937 0.59765625,0.9140625 0.85546875,0.9140625 0.1992188,0 0.8203125,-0.1289063 0.8203125,-0.84375 0,-0.6445312 -0.5390625,-0.8320312 -0.8203125,-0.8320312 -0.1289062,0 -0.2578125,0.02344 -0.3398437,0.05859 0.3984375,-1.746094 1.59375,-2.625 2.859375,-2.625 1.7929687,0 2.9765625,1.429687 2.9765625,3.3164059 0,1.7929688 -1.0546875,3.3398438 -2.2382813,4.6875 L 0.84271875,-0.48041406 V 5.46875e-5 H 8.1200625 Z m 0,0"
       style="fill:#ffffff;fill-opacity:1;fill-rule:nonzero;stroke:none"
       aria-label="2"
       transform="matrix(1.3333333,0,0,1.3333333,841.392,41.441333)" />
    <path
       id="path36"
       d="M 9.3392109,-5.7531016 H 15.91343 c 0.339843,0 0.761718,0 0.761718,-0.421875 0,-0.4453125 -0.386718,-0.4453125 -0.761718,-0.4453125 H 9.3392109 v -6.5624999 c 0,-0.351563 0,-0.773438 -0.421875,-0.773438 -0.4453125,0 -0.4453125,0.398438 -0.4453125,0.773438 v 6.5624999 h -6.5625 c -0.3515625,0 -0.7734375,0 -0.7734375,0.421875 0,0.4453125 0.3984375,0.4453125 0.7734375,0.4453125 h 6.5625 v 6.57421879 c 0,0.33984371 0,0.76171871 0.421875,0.76171871 0.4453125,0 0.4453125,-0.3867187 0.4453125,-0.76171871 z m 0,0"
       style="fill:#ffffff;fill-opacity:1;fill-rule:nonzero;stroke:none"
       aria-label="+"
       transform="matrix(1.3333333,0,0,1.3333333,862.036,35.065333)" />
    <path
       id="path37"
       d="m 6.2212422,-2.4599219 c -0.1054688,0.3515625 -0.1054688,0.3984375 -0.3984375,0.7851563 -0.4570313,0.5859375 -1.359375,1.46484373 -2.3320313,1.46484373 -0.84375,0 -1.3242187,-0.76171875 -1.3242187,-1.98046873 0,-1.1367188 0.6445312,-3.4453125 1.03125,-4.3125 0.703125,-1.453125 1.6757812,-2.1914063 2.484375,-2.1914063 1.359375,0 1.6289062,1.6875 1.6289062,1.8515625 0,0.023437 -0.058594,0.2929688 -0.082031,0.3398438 z m 1.3125,-5.2851562 c -0.2226563,-0.5390625 -0.7734375,-1.359375 -1.8515625,-1.359375 -2.3320313,0 -4.85156251,3.0117187 -4.85156251,6.0703125 0,2.03906248 1.19531251,3.24609373 2.60156251,3.24609373 1.1367187,0 2.0976562,-0.890625 2.6835937,-1.57031253 0.1992188,1.21875003 1.171875,1.57031253 1.7929688,1.57031253 0.6210937,0 1.1132812,-0.375 1.4882812,-1.125 0.328125,-0.70312503 0.6210936,-1.95703123 0.6210936,-2.03906253 0,-0.1054687 -0.082031,-0.1875 -0.2109373,-0.1875 -0.1757813,0 -0.1992188,0.1054688 -0.28125,0.4101563 -0.3164063,1.21875 -0.703125,2.51953123 -1.546875,2.51953123 -0.609375,0 -0.6445313,-0.52734375 -0.6445313,-0.94921873 0,-0.46875 0.058594,-0.703125 0.2460938,-1.5 0.140625,-0.5273438 0.2460937,-0.9726563 0.4101562,-1.5703125 0.7734375,-3.1054688 0.9492188,-3.84375 0.9492188,-3.9726563 0,-0.2929687 -0.2226563,-0.515625 -0.5273438,-0.515625 -0.6679687,0 -0.8320312,0.7265625 -0.8789062,0.9726563 z m 0,0"
       style="fill:#ffffff;fill-opacity:1;fill-rule:nonzero;stroke:none"
       aria-label="a"
       transform="matrix(1.3333333,0,0,1.3333333,895.80267,22.053333)" />
    <path
       id="path38"
       d="M 0,0 H 12.179"
       style="fill:none;stroke:#ffffff;stroke-width:0.991;stroke-linecap:butt;stroke-linejoin:miter;stroke-miterlimit:10;stroke-dasharray:none;stroke-opacity:1"
       transform="matrix(1.3333333,0,0,-1.3333333,894.764,26.804)" />
    <path
       id="path39"
       d="m 9.2121562,-8.3091172 c 0.421875,0 0.5859375,0 0.5859375,-0.3867187 0,-0.2109375 -0.1640625,-0.2109375 -0.5390625,-0.2109375 H 7.58325 C 7.9816875,-11.027867 8.2629375,-12.50443 8.427,-13.16068 c 0.1289062,-0.492187 0.5625,-0.972656 1.1015625,-0.972656 0.4335937,0 0.8671875,0.1875 1.0664065,0.375 -0.7968753,0.08203 -1.042969,0.679688 -1.042969,1.03125 0,0.410156 0.3046875,0.65625 0.691406,0.65625 0.421875,0 1.042969,-0.351562 1.042969,-1.136719 0,-0.867187 -0.867188,-1.335937 -1.78125,-1.335937 -0.890625,0 -1.7578125,0.65625 -2.1679688,1.464844 -0.375,0.726562 -0.5742187,1.464843 -1.0546875,4.1718746 H 4.8996562 c -0.3984375,0 -0.5976562,0 -0.5976562,0.375 0,0.2226562 0.1171875,0.2226562 0.5390625,0.2226562 h 1.3125 c -0.3632813,1.921875 -1.21875,6.5976563 -1.6875,8.80078126 C 4.1145,2.2963516 3.7980937,3.7963516 2.7668437,3.7963516 c -0.058594,0 -0.65625,0 -1.03125,-0.3867188 1.0546875,-0.082031 1.0546875,-0.9960937 1.0546875,-1.0078125 0,-0.421875 -0.3046875,-0.6679687 -0.703125,-0.6679687 -0.4101562,0 -1.03125,0.3515625 -1.03125,1.1367187 0,0.890625 0.9023438,1.3476563 1.7109375,1.3476563 2.109375,0 2.9765625,-3.78515629 3.2109375,-4.81640629 C 6.3410625,-2.1919297 7.3605937,-7.6880234 7.4543437,-8.3091172 Z m 0,0"
       style="fill:#ffffff;fill-opacity:1;fill-rule:nonzero;stroke:none"
       aria-label="f"
       transform="matrix(1.3333333,0,0,1.3333333,894.764,47.918667)" />
    <path
       id="path40"
       d="m 9.3398984,-5.7531016 h 6.5742186 c 0.339844,0 0.761719,0 0.761719,-0.421875 0,-0.4453125 -0.386719,-0.4453125 -0.761719,-0.4453125 H 9.3398984 v -6.5624999 c 0,-0.351563 0,-0.773438 -0.421875,-0.773438 -0.4453125,0 -0.4453125,0.398438 -0.4453125,0.773438 v 6.5624999 h -6.5625 c -0.3515625,0 -0.7734375,0 -0.7734375,0.421875 0,0.4453125 0.3984375,0.4453125 0.7734375,0.4453125 h 6.5625 v 6.57421879 c 0,0.33984371 0,0.76171871 0.421875,0.76171871 0.4453125,0 0.4453125,-0.3867187 0.4453125,-0.76171871 z m 0,0"
       style="fill:#ffffff;fill-opacity:1;fill-rule:nonzero;stroke:none"
       aria-label="+"
       transform="matrix(1.3333333,0,0,1.3333333,919.94133,35.065333)" />
    <path
       id="path41"
       d="m 5.7301328,-16.581227 c 0.023437,-0.09375 0.070312,-0.246093 0.070312,-0.375 0,-0.246093 -0.2460937,-0.246093 -0.2929687,-0.246093 -0.035156,0 -0.9257813,0.08203 -1.3710938,0.128906 -0.421875,0.02344 -0.7851562,0.07031 -1.2421875,0.09375 -0.5859375,0.04687 -0.7617187,0.08203 -0.7617187,0.527344 0,0.246093 0.2460937,0.246093 0.4921875,0.246093 1.265625,0 1.265625,0.222657 1.265625,0.46875 0,0.175782 -0.1992188,0.890625 -0.2929688,1.335938 l -0.5976562,2.378906 c -0.2460938,0.996094 -1.6640625,6.6210939 -1.7578125,7.0664064 -0.1289063,0.6210938 -0.1289063,1.0429688 -0.1289063,1.359375 0,2.53125 1.4179688,3.84375004 3.0234375,3.84375004 2.8828125,0 5.8476563,-3.69140624 5.8476563,-7.28906254 0,-2.2734375 -1.2890625,-3.8906249 -3.140625,-3.8906249 -1.2890625,0 -2.4609375,1.0664062 -2.9296875,1.5703124 z M 4.1598203,-0.24528906 c -0.7851562,0 -1.6523437,-0.59765625 -1.6523437,-2.53125004 0,-0.8203125 0.070312,-1.2890625 0.515625,-3.0234375 0.070312,-0.3164062 0.46875,-1.9101562 0.5742187,-2.2265625 0.046875,-0.1992187 1.5117188,-2.4023439 3.1992188,-2.4023439 1.0898437,0 1.5820312,1.0898439 1.5820312,2.3789064 0,1.1835938 -0.6914062,3.984375 -1.3125,5.2734375 -0.6210937,1.3359375 -1.7578125,2.53125004 -2.90625,2.53125004 z m 0,0"
       style="fill:#ffffff;fill-opacity:1;fill-rule:nonzero;stroke:none"
       aria-label="b"
       transform="matrix(1.3333333,0,0,1.3333333,951.07467,35.065333)" />
  </g>
</svg>
