<?xml version="1.0" encoding="UTF-8" standalone="no"?>
<!-- Created with Inkscape (http://www.inkscape.org/) -->

<svg
   version="1.1"
   id="svg1"
   width="636.45734"
   height="307.45334"
   viewBox="0 0 636.45734 307.45334"
   sodipodi:docname="QPC.pdf"
   xmlns:inkscape="http://www.inkscape.org/namespaces/inkscape"
   xmlns:sodipodi="http://sodipodi.sourceforge.net/DTD/sodipodi-0.dtd"
   xmlns="http://www.w3.org/2000/svg"
   xmlns:svg="http://www.w3.org/2000/svg">
  <defs
     id="defs1" />
  <sodipodi:namedview
     id="namedview1"
     pagecolor="#ffffff"
     bordercolor="#000000"
     borderopacity="0.25"
     inkscape:showpageshadow="2"
     inkscape:pageopacity="0.0"
     inkscape:pagecheckerboard="0"
     inkscape:deskcolor="#d1d1d1">
    <inkscape:page
       x="0"
       y="0"
       inkscape:label="1"
       id="page1"
       width="636.45734"
       height="307.45334"
       margin="0"
       bleed="0" />
  </sodipodi:namedview>
  <g
     id="g1"
     inkscape:groupmode="layer"
     inkscape:label="1">
    <path
       id="path1"
       d="M -117.78052,31.0402 H 52.30034 V -32.74008 H -117.78052 V 31.0402 l 65.48018,65.4802 H 117.78052 V 32.74008 L 52.30034,-32.74008"
       style="fill:#8996c6;fill-opacity:1;fill-rule:nonzero;stroke:#000000;stroke-width:0.79701;stroke-linecap:butt;stroke-linejoin:miter;stroke-miterlimit:10;stroke-dasharray:none;stroke-opacity:1"
       transform="matrix(1.3333333,0,0,-1.3333333,293.33467,263.26933)" />
    <path
       id="path2"
       d="m 52.30034,31.0402 65.48018,65.4802"
       style="fill:none;stroke:#000000;stroke-width:0.79701;stroke-linecap:butt;stroke-linejoin:miter;stroke-miterlimit:10;stroke-dasharray:none;stroke-opacity:1"
       transform="matrix(1.3333333,0,0,-1.3333333,293.33467,263.26933)" />
    <path
       id="path3"
       d="M -117.78052,38.12692 H 52.30034 v -7.0867 h -170.08086 v 7.0867 l 65.48018,65.48018 H 117.78052 V 96.52042 L 52.30034,31.04022"
       style="fill:#5bcefa;fill-opacity:1;fill-rule:nonzero;stroke:#000000;stroke-width:0.3985;stroke-linecap:butt;stroke-linejoin:miter;stroke-miterlimit:10;stroke-dasharray:none;stroke-opacity:1"
       transform="matrix(1.3333333,0,0,-1.3333333,293.33467,263.26933)" />
    <path
       id="path4"
       d="m 52.30034,38.12692 65.48018,65.48018"
       style="fill:none;stroke:#000000;stroke-width:0.3985;stroke-linecap:butt;stroke-linejoin:miter;stroke-miterlimit:10;stroke-dasharray:none;stroke-opacity:1"
       transform="matrix(1.3333333,0,0,-1.3333333,293.33467,263.26933)" />
    <path
       id="path5"
       d="m -49.74054,38.1321 h 34.01088 L 6.0936,59.95538 c 5.10624,5.10623 -28.90464,5.10623 -34.01087,0 L -49.74054,38.1321"
       style="fill:#404040;fill-opacity:1;fill-rule:nonzero;stroke:#000000;stroke-width:0.3985;stroke-linecap:butt;stroke-linejoin:miter;stroke-miterlimit:10;stroke-dasharray:none;stroke-opacity:1"
       transform="matrix(1.3333333,0,0,-1.3333333,293.33467,263.26933)" />
    <path
       id="path6"
       d="m -6.09401,81.77864 c -5.10623,-5.10623 28.90463,-5.10623 34.01086,0 l 21.82329,21.82327 H 15.72925 L -6.09401,81.77864"
       style="fill:#404040;fill-opacity:1;fill-rule:nonzero;stroke:#000000;stroke-width:0.3985;stroke-linecap:butt;stroke-linejoin:miter;stroke-miterlimit:10;stroke-dasharray:none;stroke-opacity:1"
       transform="matrix(1.3333333,0,0,-1.3333333,293.33467,263.26933)" />
    <path
       id="path7"
       d="m -49.74573,38.11609 v -7.0856 h 34.01088 v 7.0856 z"
       style="fill:#404040;fill-opacity:1;fill-rule:nonzero;stroke:#000000;stroke-width:0.3985;stroke-linecap:butt;stroke-linejoin:miter;stroke-miterlimit:10;stroke-dasharray:none;stroke-opacity:1"
       transform="matrix(1.3333333,0,0,-1.3333333,293.33467,263.26933)" />
    <path
       id="path8"
       d="m -83.41039,93.75714 h 28.34681 v -28.3468 h -28.34681 v 28.3468 l 10.91337,10.91336 h 28.3468 V 76.3237 L -55.06358,65.41034"
       style="fill:#b3b3b3;fill-opacity:1;fill-rule:nonzero;stroke:#000000;stroke-width:0.3985;stroke-linecap:butt;stroke-linejoin:miter;stroke-miterlimit:10;stroke-dasharray:none;stroke-opacity:1"
       transform="matrix(1.3333333,0,0,-1.3333333,293.33467,263.26933)" />
    <path
       id="path9"
       d="m -55.06358,93.75714 10.91336,10.91336"
       style="fill:none;stroke:#000000;stroke-width:0.3985;stroke-linecap:butt;stroke-linejoin:miter;stroke-miterlimit:10;stroke-dasharray:none;stroke-opacity:1"
       transform="matrix(1.3333333,0,0,-1.3333333,293.33467,263.26933)" />
    <path
       id="path10"
       d="m 44.15024,93.75714 h 28.3468 v -28.3468 h -28.3468 v 28.3468 L 55.0636,104.6705 H 83.4104 V 76.3237 L 72.49704,65.41034"
       style="fill:#b3b3b3;fill-opacity:1;fill-rule:nonzero;stroke:#000000;stroke-width:0.3985;stroke-linecap:butt;stroke-linejoin:miter;stroke-miterlimit:10;stroke-dasharray:none;stroke-opacity:1"
       transform="matrix(1.3333333,0,0,-1.3333333,293.33467,263.26933)" />
    <path
       id="path11"
       d="M 72.49704,93.75714 83.4104,104.6705"
       style="fill:none;stroke:#000000;stroke-width:0.3985;stroke-linecap:butt;stroke-linejoin:miter;stroke-miterlimit:10;stroke-dasharray:none;stroke-opacity:1"
       transform="matrix(1.3333333,0,0,-1.3333333,293.33467,263.26933)" />
    <path
       id="path12"
       d="M -117.78052,66.47372 H 52.30034 v -35.4335 h -170.08086 v 35.4335 l 65.48018,65.48018 H 117.78052 V 96.52042 L 52.30034,31.04022"
       style="fill:#bfbfbf;fill-opacity:0.35;fill-rule:nonzero;stroke:#000000;stroke-width:0.79701;stroke-linecap:butt;stroke-linejoin:miter;stroke-miterlimit:10;stroke-dasharray:none;stroke-opacity:0.35"
       transform="matrix(1.3333333,0,0,-1.3333333,293.33467,263.26933)" />
    <path
       id="path13"
       d="m 52.30034,66.47372 65.48018,65.48018"
       style="fill:none;stroke:#000000;stroke-width:0.79701;stroke-linecap:butt;stroke-linejoin:miter;stroke-miterlimit:10;stroke-dasharray:none;stroke-opacity:0.35"
       transform="matrix(1.3333333,0,0,-1.3333333,293.33467,263.26933)" />
    <path
       id="path14"
       d="m -46.91348,73.56044 h 28.34681 v -7.0867 h -28.34681 v 7.0867 l 21.82673,21.82672 H 3.26004 V 88.30048 L -18.56667,66.47374"
       style="fill:#fdde2a;fill-opacity:1;fill-rule:nonzero;stroke:#000000;stroke-width:0.3985;stroke-linecap:butt;stroke-linejoin:miter;stroke-miterlimit:10;stroke-dasharray:none;stroke-opacity:1"
       transform="matrix(1.3333333,0,0,-1.3333333,293.33467,263.26933)" />
    <path
       id="path15"
       d="M -18.56668,73.56044 3.26003,95.38716"
       style="fill:none;stroke:#000000;stroke-width:0.3985;stroke-linecap:butt;stroke-linejoin:miter;stroke-miterlimit:10;stroke-dasharray:none;stroke-opacity:1"
       transform="matrix(1.3333333,0,0,-1.3333333,293.33467,263.26933)" />
    <path
       id="path16"
       d="M -3.26003,117.21388 H 25.08676 V 110.1272 H -3.26003 v 7.08668 l 21.82671,21.82674 H 46.9135 v -7.0867 L 25.08676,110.1272"
       style="fill:#fdde2a;fill-opacity:1;fill-rule:nonzero;stroke:#000000;stroke-width:0.3985;stroke-linecap:butt;stroke-linejoin:miter;stroke-miterlimit:10;stroke-dasharray:none;stroke-opacity:1"
       transform="matrix(1.3333333,0,0,-1.3333333,293.33467,263.26933)" />
    <path
       id="path17"
       d="M 46.91348,139.04062 25.08675,117.21388"
       style="fill:none;stroke:#000000;stroke-width:0.3985;stroke-linecap:butt;stroke-linejoin:miter;stroke-miterlimit:10;stroke-dasharray:none;stroke-opacity:1"
       transform="matrix(1.3333333,0,0,-1.3333333,293.33467,263.26933)" />
    <path
       id="path18"
       d="m -122.36336,-15.02333 h -23.76396"
       style="fill:none;stroke:#000000;stroke-width:0.3985;stroke-linecap:butt;stroke-linejoin:miter;stroke-miterlimit:10;stroke-dasharray:none;stroke-opacity:1"
       transform="matrix(1.3333333,0,0,-1.3333333,293.33467,263.26933)" />
    <path
       id="path19"
       d="M 3.7613,0 C 3.2994,0.1127 1.26901,0.75136 0,1.44638 V -1.44638 C 1.26901,-0.75136 3.2994,-0.1127 3.7613,0 Z"
       style="fill:#000000;fill-opacity:1;fill-rule:nonzero;stroke:#000000;stroke-width:0.3985;stroke-linecap:butt;stroke-linejoin:miter;stroke-miterlimit:10;stroke-dasharray:none;stroke-opacity:1"
       transform="matrix(1.3333333,0,0,-1.3333333,130.18352,283.30044)" />
    <text
       id="text19"
       xml:space="preserve"
       transform="matrix(1.3333333,0,0,1.3333333,31.292,292.81867)"><tspan
         id="tspan19"
         style="font-variant:normal;font-weight:normal;font-size:20.6625px;font-family:'Latin Modern Roman';writing-mode:lr-tb;fill:#000000;fill-opacity:1;fill-rule:nonzero;stroke:none"
         x="0"
         y="0">GaAs</tspan></text>
    <path
       id="path20"
       d="m -122.36336,31.0402 h -23.76396"
       style="fill:none;stroke:#000000;stroke-width:0.3985;stroke-linecap:butt;stroke-linejoin:miter;stroke-miterlimit:10;stroke-dasharray:none;stroke-opacity:1"
       transform="matrix(1.3333333,0,0,-1.3333333,293.33467,263.26933)" />
    <path
       id="path21"
       d="M 3.7613,0 C 3.2994,0.1127 1.26901,0.75136 0,1.44638 V -1.44638 C 1.26901,-0.75136 3.2994,-0.1127 3.7613,0 Z"
       style="fill:#000000;fill-opacity:1;fill-rule:nonzero;stroke:#000000;stroke-width:0.3985;stroke-linecap:butt;stroke-linejoin:miter;stroke-miterlimit:10;stroke-dasharray:none;stroke-opacity:1"
       transform="matrix(1.3333333,0,0,-1.3333333,130.18352,221.8824)" />
    <text
       id="text21"
       xml:space="preserve"
       transform="matrix(1.3333333,0,0,1.3333333,23.496,231.29067)"><tspan
         id="tspan21"
         style="font-variant:normal;font-weight:normal;font-size:20.6625px;font-family:'Latin Modern Roman';writing-mode:lr-tb;fill:#000000;fill-opacity:1;fill-rule:nonzero;stroke:none"
         x="0"
         y="0">2DEG</tspan></text>
    <path
       id="path22"
       d="m -122.36336,66.47372 h -23.76396"
       style="fill:none;stroke:#000000;stroke-width:0.3985;stroke-linecap:butt;stroke-linejoin:miter;stroke-miterlimit:10;stroke-dasharray:none;stroke-opacity:1"
       transform="matrix(1.3333333,0,0,-1.3333333,293.33467,263.26933)" />
    <path
       id="path23"
       d="M 3.7613,0 C 3.2994,0.1127 1.26901,0.75136 0,1.44638 V -1.44638 C 1.26901,-0.75136 3.2994,-0.1127 3.7613,0 Z"
       style="fill:#000000;fill-opacity:1;fill-rule:nonzero;stroke:#000000;stroke-width:0.3985;stroke-linecap:butt;stroke-linejoin:miter;stroke-miterlimit:10;stroke-dasharray:none;stroke-opacity:1"
       transform="matrix(1.3333333,0,0,-1.3333333,130.18352,174.63771)" />
    <text
       id="text23"
       xml:space="preserve"
       transform="matrix(1.3333333,0,0,1.3333333,5.3133333,184.15733)"><tspan
         id="tspan23"
         style="font-variant:normal;font-weight:normal;font-size:20.6625px;font-family:'Latin Modern Roman';writing-mode:lr-tb;fill:#000000;fill-opacity:1;fill-rule:nonzero;stroke:none"
         x="0"
         y="0">AlGaAs</tspan></text>
    <path
       id="path24"
       d="m 122.36336,131.9539 h 23.76396"
       style="fill:none;stroke:#000000;stroke-width:0.3985;stroke-linecap:butt;stroke-linejoin:miter;stroke-miterlimit:10;stroke-dasharray:none;stroke-opacity:0"
       transform="matrix(1.3333333,0,0,-1.3333333,293.33467,263.26933)" />
    <path
       id="path25"
       d="M 3.7613,0 C 3.2994,0.1127 1.26901,0.75136 0,1.44638 V -1.44638 C 1.26901,-0.75136 3.2994,-0.1127 3.7613,0 Z"
       style="fill:#000000;fill-opacity:0;fill-rule:nonzero;stroke:#000000;stroke-width:0.3985;stroke-linecap:butt;stroke-linejoin:miter;stroke-miterlimit:10;stroke-dasharray:none;stroke-opacity:0"
       transform="matrix(-1.3333333,0,0,1.3333333,456.48581,87.3308)" />
    <path
       id="path26"
       d="m 4.2534766,-6.0590937 c 0.046875,-0.1171875 0.5625,-1.1484375 1.3242187,-1.8164063 0.5390625,-0.4921875 1.2421875,-0.8203125 2.0507813,-0.8203125 0.8203125,0 1.1132812,0.6210938 1.1132812,1.4414063 0,1.1835937 -0.8554687,3.5390625 -1.265625,4.6523437 -0.1875,0.4921875 -0.28125,0.7617188 -0.28125,1.1367188 0,0.9257812 0.6328125,1.6757812 1.6289063,1.6757812 1.9218749,0 2.6367189,-3.046875 2.6367189,-3.1640625 0,-0.1054687 -0.08203,-0.1875 -0.199219,-0.1875 -0.1875,0 -0.210937,0.058594 -0.316406,0.4101563 -0.46875,1.6992187 -1.2539064,2.5195312 -2.0625002,2.5195312 -0.2109375,0 -0.5390625,-0.0117188 -0.5390625,-0.6796875 0,-0.515625 0.234375,-1.1367187 0.3515625,-1.4179687 C 9.1050391,-3.4458125 9.9839453,-5.766125 9.9839453,-6.938 c 0,-1.2421875 -0.7265625,-2.1679687 -2.296875,-2.1679687 -1.8398437,0 -2.8125,1.3007812 -3.1875,1.8164062 -0.058594,-1.1835937 -0.9023437,-1.8164062 -1.8164062,-1.8164062 -0.65625,0 -1.1132813,0.3867187 -1.4648438,1.0898437 -0.37499999,0.7382813 -0.65624999,1.9804688 -0.65624999,2.0625 0,0.082031 0.0820313,0.1875 0.22265625,0.1875 0.1640625,0 0.1875,-0.023437 0.30468754,-0.4921875 0.3398437,-1.265625 0.703125,-2.4375 1.5351562,-2.4375 0.46875,0 0.6445313,0.328125 0.6445313,0.9492188 0,0.4570312 -0.2109375,1.2539062 -0.3515625,1.8984375 l -0.5859375,2.2265625 c -0.082031,0.3984375 -0.3046875,1.3242187 -0.4101563,1.6992187 -0.140625,0.5390625 -0.375,1.51171875 -0.375,1.6171875 0,0.28125 0.234375,0.515625 0.5390625,0.515625 0.2460938,0 0.5390625,-0.12890625 0.703125,-0.43359375 C 2.8355078,-0.328625 3.0112891,-1.0551875 3.1167578,-1.4653437 L 3.5737891,-3.328625 Z m 0,0"
       style="fill:#000000;fill-opacity:0;fill-rule:nonzero;stroke:none"
       aria-label="n"
       transform="matrix(1.3333333,0,0,1.3333333,493.74667,95.750667)" />
    <path
       id="path27"
       d="m 13.61768,-4.7465937 c 0.351562,0 0.726562,0 0.726562,-0.421875 0,-0.4101563 -0.375,-0.4101563 -0.726562,-0.4101563 H 2.4379922 c -0.3515625,0 -0.7265625,0 -0.7265625,0.4101563 0,0.421875 0.375,0.421875 0.7265625,0.421875 z m 0,0"
       style="fill:#000000;fill-opacity:0;fill-rule:nonzero;stroke:none"
       aria-label="−"
       transform="matrix(1.3333333,0,0,1.3333333,515.972,95.750667)" />
    <path
       id="path28"
       d="m 7.4986484,-14.273937 c -0.1054687,-0.269532 -0.140625,-0.328125 -0.3515625,-0.328125 -0.2109375,0 -0.2460937,0.05859 -0.3515625,0.328125 L 2.4127109,-1.8755 c -0.3867187,1.11328125 -1.21875,1.3359375 -1.93359371,1.3359375 V -5e-4 c 0.36328125,-0.046875 1.19531251,-0.046875 1.58203121,-0.046875 0.515625,0 1.3476563,0 1.8398438,0.046875 v -0.5390625 c -0.9726563,-0.0351563 -1.1132813,-0.703125 -1.1132813,-0.9492187 0,-0.1875 0.046875,-0.2929688 0.082031,-0.4101563 l 1.0898437,-3.0820312 h 5.4140625 l 1.2421879,3.515625 c 0.105469,0.2460937 0.105469,0.2929687 0.105469,0.375 0,0.5507812 -0.8906256,0.5507812 -1.2773444,0.5507812 V -5e-4 c 0.5976564,-0.046875 1.6640624,-0.046875 2.3085944,-0.046875 0.539062,0 1.570312,0 2.0625,0.046875 v -0.5390625 c -1.089844,0 -1.464844,0 -1.734375,-0.7617187 z m -0.8320312,1.652343 2.53125,7.1015628 H 4.1470859 Z m 10.8222658,-1.722656 -2.460938,0.234375 v 0.539063 c 1.21875,0 1.40625,0.117187 1.40625,1.113281 v 11.0273435 c 0,0.78515625 -0.08203,0.890625 -1.40625,0.890625 V -5e-4 c 0.492188,-0.046875 1.40625,-0.046875 1.921875,-0.046875 0.539063,0 1.441407,0 1.945313,0.046875 v -0.5390625 c -1.324219,0 -1.40625,-0.0820313 -1.40625,-0.890625 z m 14.827148,10.2304688 c 0,-0.7851563 0.05859,-0.890625 1.335938,-0.890625 V -5.53175 c -0.492188,0.035156 -1.605469,0.035156 -2.167969,0.035156 -0.574219,0 -2.191406,-0.023437 -2.976563,-0.035156 v 0.5273438 h 0.621094 c 1.78125,0 1.816406,0.234375 1.816406,0.9726562 v 1.3710938 c 0,2.27343745 -2.683593,2.4492187 -3.316406,2.4492187 -2.132812,0 -5.625,-1.4648437 -5.625,-6.8554687 0,-5.3906248 3.433594,-6.8320308 5.4375,-6.8320308 2.332031,0 4.03125,2.015625 4.417969,4.8867183 0.04687,0.2460937 0.04687,0.2929687 0.222656,0.2929687 0.234375,0 0.234375,-0.046875 0.234375,-0.4101562 v -4.8984378 c 0,-0.375 -0.02344,-0.398437 -0.152344,-0.398437 -0.08203,0 -0.09375,0.02344 -0.246093,0.269531 l -0.902344,1.734375 c -1.019531,-1.277344 -2.25,-2.015625 -3.84375,-2.015625 -3.539063,0 -6.738281,3.117188 -6.738281,7.3710938 0,4.2304687 3.140625,7.3945312 6.773437,7.3945312 1.675781,0 3.304688,-0.59765625 3.949219,-1.7695312 0.351562,0.84374995 0.925781,1.4179687 1.03125,1.4179687 0.105469,0 0.128906,-0.0234375 0.128906,-0.38671875 z m 9.615235,-1.2421875 c 0,-1.359375 0,-2.0859375 -0.867188,-2.8828125 -0.773437,-0.6914063 -1.652344,-0.890625 -2.355469,-0.890625 -1.640625,0 -2.8125,1.2773437 -2.8125,2.6367187 0,0.7734375 0.621094,0.8085938 0.738282,0.8085938 0.269531,0 0.75,-0.1640625 0.75,-0.7382813 0,-0.515625 -0.398438,-0.75 -0.75,-0.75 -0.08203,0 -0.1875,0.023437 -0.246094,0.046875 0.433594,-1.3007812 1.546875,-1.6757812 2.273437,-1.6757812 1.03125,0 2.167969,0.9140625 2.167969,2.6484375 V -5.2505 c -1.21875,0.046875 -2.683594,0.2109375 -3.84375,0.8320313 -1.300781,0.7148437 -1.664062,1.7578125 -1.664062,2.5429687 0,1.58203125 1.851562,2.0390625 2.953125,2.0390625 1.136718,0 2.191406,-0.64453125 2.636718,-1.8164062 0.04687,0.91406245 0.621094,1.73437495 1.535157,1.73437495 0.433593,0 1.523437,-0.29296875 1.523437,-1.92187495 V -3.0005 h -0.375 v 1.1835938 c 0,1.2539062 -0.550781,1.42968745 -0.820312,1.42968745 -0.84375,0 -0.84375,-1.07812495 -0.84375,-1.99218745 z m -1.101563,2.484375 c 0,1.7929687 -1.277344,2.7070312 -2.414062,2.7070312 -1.03125,0 -1.839844,-0.76171875 -1.839844,-1.7109375 0,-0.6210937 0.269531,-1.7226562 1.464844,-2.3789062 0.996093,-0.5625 2.132812,-0.6445313 2.789062,-0.6796875 z M 51.464469,-14.273937 c -0.105469,-0.269532 -0.140625,-0.328125 -0.351563,-0.328125 -0.210937,0 -0.246094,0.05859 -0.351562,0.328125 L 46.378531,-1.8755 c -0.386719,1.11328125 -1.21875,1.3359375 -1.933594,1.3359375 V -5e-4 c 0.363282,-0.046875 1.195313,-0.046875 1.582032,-0.046875 0.515625,0 1.347656,0 1.839843,0.046875 v -0.5390625 c -0.972656,-0.0351563 -1.113281,-0.703125 -1.113281,-0.9492187 0,-0.1875 0.04687,-0.2929688 0.08203,-0.4101563 l 1.089844,-3.0820312 h 5.414063 l 1.242187,3.515625 c 0.105469,0.2460937 0.105469,0.2929687 0.105469,0.375 0,0.5507812 -0.890625,0.5507812 -1.277344,0.5507812 V -5e-4 c 0.597656,-0.046875 1.664063,-0.046875 2.308594,-0.046875 0.539062,0 1.570312,0 2.0625,0.046875 v -0.5390625 c -1.089844,0 -1.464844,0 -1.734375,-0.7617187 z m -0.832032,1.652343 2.53125,7.1015628 h -5.050781 z m 14.044922,3.902344 c 0,-0.375 -0.02344,-0.3867187 -0.152343,-0.3867187 -0.08203,0 -0.09375,0.011719 -0.351563,0.328125 -0.05859,0.082031 -0.246094,0.28125 -0.304687,0.3632812 -0.65625,-0.6914062 -1.59375,-0.7148437 -1.945313,-0.7148437 -2.285156,0 -3.117187,1.1953125 -3.117187,2.390625 0,1.8632812 2.109375,2.296875 2.707031,2.4257812 1.300781,0.2578125 1.757812,0.3515625 2.191406,0.7148438 0.269531,0.2460937 0.726563,0.703125 0.726563,1.453125 0,0.8671875 -0.503907,1.9804687 -2.402344,1.9804687 -1.792969,0 -2.4375,-1.359375 -2.8125,-3.1875 -0.05859,-0.28125 -0.05859,-0.3046875 -0.222656,-0.3046875 -0.164063,0 -0.1875,0.023437 -0.1875,0.4335938 v 2.97656245 c 0,0.375 0.02344,0.38671875 0.140625,0.38671875 0.105468,0 0.128906,-0.0117188 0.234375,-0.1875 0.117187,-0.17578125 0.433593,-0.6796875 0.550781,-0.87890625 0.421875,0.55078125 1.136719,1.08984375 2.296875,1.08984375 2.050781,0 3.140625,-1.11328125 3.140625,-2.7304687 0,-1.0546875 -0.5625,-1.6054688 -0.820313,-1.8515625 C 63.728141,-5.063 63.001578,-5.203625 62.134391,-5.3676875 60.997672,-5.6255 59.556266,-5.90675 59.556266,-7.172375 c 0,-0.5390625 0.28125,-1.6757812 2.367187,-1.6757812 2.214844,0 2.34375,2.0742187 2.378906,2.7304687 0.02344,0.1054688 0.128907,0.1289063 0.1875,0.1289063 0.1875,0 0.1875,-0.070312 0.1875,-0.421875 z m 0,0"
       style="fill:#000000;fill-opacity:0;fill-rule:nonzero;stroke:none"
       aria-label="AlGaAs"
       transform="matrix(1.3333333,0,0,1.3333333,543.52133,95.750667)" />
    <path
       id="path29"
       d="m -70.867,103.79666 v 37.93736"
       style="fill:none;stroke:#000000;stroke-width:0.3985;stroke-linecap:butt;stroke-linejoin:miter;stroke-miterlimit:10;stroke-dasharray:none;stroke-opacity:1"
       transform="matrix(1.3333333,0,0,-1.3333333,293.33467,263.26933)" />
    <path
       id="path30"
       d="M 3.7613,0 C 3.2994,0.1127 1.26901,0.75136 0,1.44638 V -1.44638 C 1.26901,-0.75136 3.2994,-0.1127 3.7613,0 Z"
       style="fill:#000000;fill-opacity:1;fill-rule:nonzero;stroke:#000000;stroke-width:0.3985;stroke-linecap:butt;stroke-linejoin:miter;stroke-miterlimit:10;stroke-dasharray:none;stroke-opacity:1"
       transform="matrix(0,1.3333333,1.3333333,0,198.84533,124.87379)" />
    <text
       id="text30"
       xml:space="preserve"
       transform="matrix(1.3333333,0,0,1.3333333,114.18533,68.273333)"><tspan
         id="tspan30"
         style="font-variant:normal;font-weight:normal;font-size:20.6625px;font-family:'Latin Modern Roman';writing-mode:lr-tb;fill:#000000;fill-opacity:1;fill-rule:nonzero;stroke:none"
         x="0"
         y="0">Ohmic</tspan></text>
    <text
       id="text31"
       xml:space="preserve"
       transform="matrix(1.3333333,0,0,1.3333333,195.76096,68.273333)"><tspan
         id="tspan31"
         style="font-variant:normal;font-weight:normal;font-size:20.6625px;font-family:'Latin Modern Roman';writing-mode:lr-tb;fill:#000000;fill-opacity:1;fill-rule:nonzero;stroke:none"
         x="0"
         dx="0 0 0 -0.53722554"
         y="0">Contact</tspan></text>
    <path
       id="path31"
       d="m 21.82672,132.7101 v 37.93736"
       style="fill:none;stroke:#000000;stroke-width:0.3985;stroke-linecap:butt;stroke-linejoin:miter;stroke-miterlimit:10;stroke-dasharray:none;stroke-opacity:1"
       transform="matrix(1.3333333,0,0,-1.3333333,293.33467,263.26933)" />
    <path
       id="path32"
       d="M 3.7613,0 C 3.2994,0.1127 1.26901,0.75136 0,1.44638 V -1.44638 C 1.26901,-0.75136 3.2994,-0.1127 3.7613,0 Z"
       style="fill:#000000;fill-opacity:1;fill-rule:nonzero;stroke:#000000;stroke-width:0.3985;stroke-linecap:butt;stroke-linejoin:miter;stroke-miterlimit:10;stroke-dasharray:none;stroke-opacity:1"
       transform="matrix(0,1.3333333,1.3333333,0,322.43696,86.322533)" />
    <text
       id="text32"
       xml:space="preserve"
       transform="matrix(1.3333333,0,0,1.3333333,273.68667,24.570667)"><tspan
         id="tspan32"
         style="font-variant:normal;font-weight:normal;font-size:20.6625px;font-family:'Latin Modern Roman';writing-mode:lr-tb;fill:#000000;fill-opacity:1;fill-rule:nonzero;stroke:none"
         x="0"
         dx="0 0 -0.53722554"
         y="0">Schottky</tspan></text>
  </g>
</svg>
