<?xml version="1.0" encoding="UTF-8" standalone="no"?>
<!-- Created with Inkscape (http://www.inkscape.org/) -->

<svg
   version="1.1"
   id="svg1"
   width="185.51868"
   height="136.964"
   viewBox="0 0 185.51868 136.964"
   sodipodi:docname="thermal.pdf"
   xmlns:inkscape="http://www.inkscape.org/namespaces/inkscape"
   xmlns:sodipodi="http://sodipodi.sourceforge.net/DTD/sodipodi-0.dtd"
   xmlns="http://www.w3.org/2000/svg"
   xmlns:svg="http://www.w3.org/2000/svg">
  <defs
     id="defs1" />
  <sodipodi:namedview
     id="namedview1"
     pagecolor="#ffffff"
     bordercolor="#000000"
     borderopacity="0.25"
     inkscape:showpageshadow="2"
     inkscape:pageopacity="0.0"
     inkscape:pagecheckerboard="0"
     inkscape:deskcolor="#d1d1d1">
    <inkscape:page
       x="0"
       y="0"
       inkscape:label="1"
       id="page1"
       width="185.51868"
       height="136.964"
       margin="0"
       bleed="0" />
  </sodipodi:namedview>
  <g
     id="g1"
     inkscape:groupmode="layer"
     inkscape:label="1">
    <path
       id="path1"
       d="m 0,0 v 13.46465 m 0,29.76431 v 13.46466 h 9.2978 m 38.098,0 H 56.69362 70.867 m 0,0 h 14.17342"
       style="fill:none;stroke:#000000;stroke-width:0.3985;stroke-linecap:butt;stroke-linejoin:miter;stroke-miterlimit:10;stroke-dasharray:none;stroke-opacity:1"
       transform="matrix(1.3333333,0,0,-1.3333333,20.373333,112.62133)" />
    <path
       id="path2"
       d="M 0,0 V -9.92134"
       style="fill:none;stroke:#000000;stroke-width:0.3985;stroke-linecap:butt;stroke-linejoin:miter;stroke-miterlimit:10;stroke-dasharray:none;stroke-opacity:1"
       transform="matrix(1.3333333,0,0,-1.3333333,20.373333,112.62133)" />
    <path
       id="path3"
       d="M -5.95285,-9.92134 H 5.95285 L 0,-17.85843 Z"
       style="fill:none;stroke:#000000;stroke-width:0.797;stroke-linecap:butt;stroke-linejoin:miter;stroke-miterlimit:10;stroke-dasharray:none;stroke-opacity:1"
       transform="matrix(1.3333333,0,0,-1.3333333,20.373333,112.62133)" />
    <path
       id="path4"
       d="m -14.88216,28.3468 c 0,8.21929 6.66288,14.88216 14.88216,14.88216 8.21928,0 14.88216,-6.66287 14.88216,-14.88216 0,-8.21928 -6.66288,-14.88215 -14.88216,-14.88215 -8.21928,0 -14.88216,6.66287 -14.88216,14.88215 z"
       style="fill:none;stroke:#000000;stroke-width:0.797;stroke-linecap:butt;stroke-linejoin:miter;stroke-miterlimit:10;stroke-dasharray:none;stroke-opacity:1"
       transform="matrix(1.3333333,0,0,-1.3333333,20.373333,112.62133)" />
    <path
       id="path5"
       d="m 7.8743359,-2.7548672 c 0.2109375,0 0.421875,0 0.421875,-0.234375 0,-0.234375 -0.2109375,-0.234375 -0.421875,-0.234375 h -6.46875 c -0.1992187,0 -0.41015621,0 -0.41015621,0.234375 0,0.234375 0.21093751,0.234375 0.41015621,0.234375 z m 0,0"
       style="fill:#000000;fill-opacity:1;fill-rule:nonzero;stroke:none"
       aria-label="−"
       transform="matrix(-1.3333333,0,0,1.3333333,26.573333,87.388)" />
    <path
       id="path6"
       d="m 4.7685469,-2.764875 h 3.3046875 c 0.1640625,0 0.375,0 0.375,-0.2109375 0,-0.2226562 -0.1992188,-0.2226562 -0.375,-0.2226562 H 4.7685469 v -3.3046875 c 0,-0.1640625 0,-0.3867188 -0.2109375,-0.3867188 -0.234375,0 -0.234375,0.2109375 -0.234375,0.3867188 v 3.3046875 H 1.0302656 c -0.17578123,0 -0.38671873,0 -0.38671873,0.2109375 0,0.2226562 0.19921875,0.2226562 0.38671873,0.2226562 h 3.2929688 v 3.3046875 c 0,0.1640625 0,0.38671875 0.2226562,0.38671875 0.2226563,0 0.2226563,-0.2109375 0.2226563,-0.38671875 z m 0,0"
       style="fill:#000000;fill-opacity:1;fill-rule:nonzero;stroke:none"
       aria-label="+"
       transform="matrix(-1.3333333,0,0,1.3333333,26.444,70.124)" />
    <path
       id="path7"
       d="m 8.8993,56.69362 3.60654,7.1434 6.41605,-14.28682 6.41606,14.28682 6.41606,-14.28682 6.41605,14.28682 6.41606,-14.28682 3.20802,7.14342"
       style="fill:none;stroke:#000000;stroke-width:0.797;stroke-linecap:butt;stroke-linejoin:bevel;stroke-miterlimit:10;stroke-dasharray:none;stroke-opacity:1"
       transform="matrix(1.3333333,0,0,-1.3333333,20.373333,112.62133)" />
    <path
       id="path8"
       d="m 7.6052656,-12.702367 c 0.1875,-0.761719 0.2695313,-0.808594 1.0664063,-0.808594 h 1.4882811 c 1.78125,0 3.105469,0.539063 3.105469,2.144531 0,1.054688 -0.539063,4.0898441 -4.6875001,4.0898441 h -2.34375 z m 2.8710934,5.6835936 c 2.554688,-0.5625 4.558594,-2.2148438 4.558594,-3.9960936 0,-1.605469 -1.628906,-3.09375 -4.5,-3.09375 H 4.9333906 c -0.4101562,0 -0.5976562,0 -0.5976562,0.386719 0,0.210937 0.1523437,0.210937 0.5390625,0.210937 1.2421875,0 1.2421875,0.164063 1.2421875,0.386719 0,0.04687 0,0.175781 -0.082031,0.480469 L 3.2458906,-1.5226797 c -0.1875,0.71484376 -0.234375,0.92578126 -1.6523437,0.92578126 -0.4804688,0 -0.62109377,0 -0.62109377,0.38671875 0,0.2109375025 0.22265627,0.2109375025 0.29296877,0.2109375025 0.3632812,0 0.796875,-0.0468750025 1.1953125,-0.0468750025 h 2.4375 c 0.375,0 0.8085937,0.0468750025 1.171875,0.0468750025 0.1640625,0 0.3984375,0 0.3984375,-0.3867187525 0,-0.2109375 -0.1875,-0.2109375 -0.4921875,-0.2109375 -1.265625,0 -1.265625,-0.1640625 -1.265625,-0.375 0,-0.0234375 0,-0.16406246 0.035156,-0.32812496 l 1.3945313,-5.5546875 h 2.4726562 c 1.9687501,0 2.3320311,1.2304687 2.3320311,1.921875 0,0.3046875 -0.199218,1.1132812 -0.351562,1.6523437 -0.222656,0.9492188 -0.28125,1.171875 -0.28125,1.5703125 0,1.46484376 1.195312,2.14453126 2.578125,2.14453126 1.675781,0 2.402344,-2.05078126 2.402344,-2.33203126 0,-0.1523437 -0.105469,-0.2109375 -0.234375,-0.2109375 -0.164063,0 -0.199219,0.1289063 -0.246094,0.2929688 -0.492188,1.46484371 -1.347656,1.83984371 -1.863281,1.83984371 -0.515625,0 -0.84375,-0.234375 -0.84375,-1.16015621 0,-0.4921875 0.246093,-2.3789063 0.269531,-2.484375 0.105469,-0.7617188 0.105469,-0.84375 0.105469,-1.0078125 0,-1.5117188 -1.21875,-2.1445313 -2.003907,-2.390625 z m 0,0"
       style="fill:#000000;fill-opacity:1;fill-rule:nonzero;stroke:none"
       aria-label="R"
       transform="matrix(1.3333333,0,0,1.3333333,47.789333,21.401333)" />
    <path
       id="path9"
       d="m 86.62756,56.69362 c 0,0.87656 -0.71058,1.58714 -1.58714,1.58714 -0.87656,0 -1.58714,-0.71058 -1.58714,-1.58714 0,-0.87657 0.71058,-1.58716 1.58714,-1.58716 0.87656,0 1.58714,0.71059 1.58714,1.58716 z"
       style="fill:#ffffff;fill-opacity:1;fill-rule:nonzero;stroke:#000000;stroke-width:0.3985;stroke-linecap:butt;stroke-linejoin:miter;stroke-miterlimit:10;stroke-dasharray:none;stroke-opacity:1"
       transform="matrix(1.3333333,0,0,-1.3333333,20.373333,112.62133)" />
    <path
       id="path10"
       d="m 8.6145859,-12.59668 c 0.1289063,-0.503906 0.1640625,-0.691406 0.4804688,-0.773437 0.1640625,-0.03516 0.84375,-0.03516 1.2773433,-0.03516 2.0625,0 3.035157,0.08203 3.035157,1.6875 0,0.316406 -0.08203,1.101562 -0.199219,1.8632808 l -0.02344,0.2460938 c 0,0.082031 0.08203,0.2109375 0.199219,0.2109375 0.210938,0 0.210938,-0.1054688 0.269531,-0.4335938 l 0.597657,-3.6562503 c 0.04687,-0.1875 0.04687,-0.234375 0.04687,-0.292968 0,-0.222657 -0.128907,-0.222657 -0.539063,-0.222657 H 2.4622422 c -0.4804688,0 -0.5039063,0.01172 -0.6210938,0.386719 l -1.26562496,3.7265626 c -0.0117188,0.035156 -0.0820313,0.2578125 -0.0820313,0.28125 0,0.1054687 0.0820313,0.2109375 0.2109375,0.2109375 0.1640625,0 0.2109375,-0.082031 0.29296875,-0.3515625 C 1.8645859,-12.245117 2.2981797,-13.405273 5.0403672,-13.405273 h 1.3828125 c 0.5039062,0 0.703125,0 0.703125,0.222656 0,0.05859 0,0.105469 -0.1054688,0.480469 l -2.765625,11.0859371 c -0.1992187,0.80859371 -0.2460937,1.01953121 -2.4375,1.01953121 -0.515625,0 -0.65625,0 -0.65625,0.38671875 0,0.2109375025 0.2226563,0.2109375025 0.328125,0.2109375025 0.515625,0 1.0546875,-0.0468750025 1.5703125,-0.0468750025 h 3.2226563 c 0.515625,0 1.078125,0.0468750025 1.59375,0.0468750025 0.2226562,0 0.4335937,0 0.4335937,-0.3867187525 0,-0.2109375 -0.1523437,-0.2109375 -0.6796875,-0.2109375 -1.8632812,0 -1.8632812,-0.1875 -1.8632812,-0.49218751 0,-0.023437 0,-0.1757812 0.082031,-0.5039062 z m 25.3945311,7.8867191 c 0.386719,-0.1875 0.410156,-0.3046875 0.410156,-0.4570313 0,-0.1171875 -0.03516,-0.2695312 -0.410156,-0.4335937 L 22.82943,-10.745117 c -0.269532,-0.117188 -0.304688,-0.140625 -0.351563,-0.140625 -0.246094,0 -0.386719,0.210937 -0.386719,0.375 0,0.246094 0.164063,0.328125 0.433594,0.445312 l 10.617188,4.8984378 -10.640625,4.92187501 c -0.410157,0.1875 -0.410157,0.328125 -0.410157,0.45703125 0,0.1640625 0.140625,0.36328125 0.386719,0.36328125 0.04687,0 0.05859,-0.0117188 0.351563,-0.140625 z m 0,0"
       style="fill:#000000;fill-opacity:1;fill-rule:nonzero;stroke:none"
       aria-label="T&gt;"
       transform="matrix(1.3333333,0,0,1.3333333,87.314667,121.66667)" />
    <path
       id="path11"
       d="m 8.6729922,-6.6318359 c 0,-1.2539063 -0.011719,-3.4101561 -0.8789063,-5.0625001 -0.7734375,-1.441406 -1.9921875,-1.957031 -3.0585937,-1.957031 -0.9960938,0 -2.25,0.445312 -3.0351563,1.933594 -0.83203121,1.558593 -0.91406246,3.4804683 -0.91406246,5.0859371 0,1.1835937 0.0234375,2.9765625 0.65624996,4.546875 0.890625,2.13281246 2.484375,2.41406246 3.2929688,2.41406246 0.9492187,0 2.390625,-0.38671875 3.2460937,-2.35546876 0.609375,-1.4179687 0.6914063,-3.09375 0.6914063,-4.6054687 z m -3.9375,6.6328124625 c -1.3242188,0 -2.109375,-1.1367187625 -2.4023438,-2.7070312625 -0.2226562,-1.21875 -0.2226562,-3 -0.2226562,-4.1484375 0,-1.59375 0,-2.9179687 0.2695312,-4.1718748 0.3867188,-1.757813 1.546875,-2.296875 2.3554688,-2.296875 0.84375,0 1.9335937,0.550781 2.3320312,2.25 0.2695313,1.1835936 0.2929688,2.5664061 0.2929688,4.2187498 0,1.3359375 0,2.9882813 -0.2578125,4.2070313 C 6.6690859,-0.38574219 5.4503359,9.765625e-4 4.7354922,9.765625e-4 Z M 20.535297,-8.6591797 24.109516,-12.233398 c 0.738281,-0.714844 1.523437,-1.300782 2.683593,-1.335938 v -0.539062 c -0.421875,0.02344 -0.9375,0.03516 -1.347656,0.03516 -0.550781,0 -1.523437,0 -2.0625,-0.03516 v 0.539062 c 0.539063,0.03516 0.621094,0.410156 0.621094,0.550781 0,0.152344 -0.08203,0.375 -0.164063,0.503907 l -6.867187,6.8789058 v -7.0078128 c 0,-0.925781 0.234375,-0.925781 1.652344,-0.925781 v -0.539062 c -0.597657,0.03516 -1.6875,0.03516 -2.332032,0.03516 -0.644531,0 -1.734375,0 -2.332031,-0.03516 v 0.539062 c 1.429688,0 1.652344,0 1.652344,0.925781 v 11.1796878 c 0,0.92578126 -0.222656,0.92578126 -1.652344,0.92578126 V 9.765625e-4 c 0.597656,-0.0468750025 1.6875,-0.0468750025 2.332031,-0.0468750025 0.644532,0 1.734375,0 2.332032,0.0468750025 V -0.53808594 c -1.417969,0 -1.652344,0 -1.652344,-0.92578126 v -3.65625 l 2.648437,-2.625 3.902344,5.9882813 c 0.128906,0.2109375 0.269531,0.4804687 0.269531,0.6796875 0,0.53906246 -0.574218,0.53906246 -0.84375,0.53906246 V 9.765625e-4 c 0.65625,-0.0468750025 1.605469,-0.0468750025 2.296875,-0.0468750025 0.492188,0 1.335938,0 1.816407,0.0468750025 V -0.53808594 c -0.996094,0 -1.300782,-0.1171875 -1.921875,-1.07812496 z m 0,0"
       style="fill:#000000;fill-opacity:1;fill-rule:nonzero;stroke:none"
       aria-label="0K"
       transform="matrix(1.3333333,0,0,1.3333333,143.15867,121.66667)" />
  </g>
</svg>
