<?xml version="1.0" encoding="UTF-8" standalone="no"?>
<!-- Created with Inkscape (http://www.inkscape.org/) -->

<svg
   version="1.1"
   id="svg1"
   width="676.87469"
   height="176.32001"
   viewBox="0 0 676.87469 176.32001"
   sodipodi:docname="tunnelling_1.svg"
   inkscape:version="1.4.2 (1:1.4.2+202505120737+ebf0e940d0)"
   xmlns:inkscape="http://www.inkscape.org/namespaces/inkscape"
   xmlns:sodipodi="http://sodipodi.sourceforge.net/DTD/sodipodi-0.dtd"
   xmlns="http://www.w3.org/2000/svg"
   xmlns:svg="http://www.w3.org/2000/svg">
  <defs
     id="defs1">
    <clipPath
       clipPathUnits="userSpaceOnUse"
       id="clipPath16">
      <path
         d="m 154.48991,-58.11111 h 59.52863 V 1.41752 h -59.52863 z m 29.76432,38.69369 c -4.93161,0 -8.92939,-3.99777 -8.92939,-8.92938 0,-4.93161 3.99778,-8.92938 8.92939,-8.92938 4.93162,0 8.92939,3.99777 8.92939,8.92938 0,4.93161 -3.99777,8.92938 -8.92939,8.92938 z"
         transform="translate(-2.5000001e-6)"
         clip-rule="evenodd"
         id="path16" />
    </clipPath>
    <clipPath
       clipPathUnits="userSpaceOnUse"
       id="clipPath18">
      <path
         d="m 154.48991,-58.11111 h 59.52863 V 1.41752 h -59.52863 z m 29.76432,38.69369 c -4.93161,0 -8.92939,-3.99777 -8.92939,-8.92938 0,-4.93161 3.99778,-8.92938 8.92939,-8.92938 4.93162,0 8.92939,3.99777 8.92939,8.92938 0,4.93161 -3.99777,8.92938 -8.92939,8.92938 z"
         transform="matrix(0.55471655,-0.83208982,0.83208982,0.55471655,-96.97771,169.04073)"
         clip-rule="evenodd"
         id="path18" />
    </clipPath>
  </defs>
  <sodipodi:namedview
     id="namedview1"
     pagecolor="#ffffff"
     bordercolor="#000000"
     borderopacity="0.25"
     inkscape:showpageshadow="2"
     inkscape:pageopacity="0.0"
     inkscape:pagecheckerboard="0"
     inkscape:deskcolor="#d1d1d1"
     inkscape:zoom="1.3000929"
     inkscape:cx="338.82194"
     inkscape:cy="88.070629"
     inkscape:window-width="1920"
     inkscape:window-height="1011"
     inkscape:window-x="0"
     inkscape:window-y="32"
     inkscape:window-maximized="1"
     inkscape:current-layer="g1">
    <inkscape:page
       x="0"
       y="0"
       inkscape:label="1"
       id="page1"
       width="676.87469"
       height="176.32001"
       margin="0"
       bleed="0" />
  </sodipodi:namedview>
  <g
     id="g1"
     inkscape:groupmode="layer"
     inkscape:label="1">
    <path
       id="path1"
       d="M -141.73404,-56.69362 V 56.69362 H 141.73404 V -56.69362 Z"
       style="fill:#122d8d;fill-opacity:1;fill-rule:nonzero;stroke:#122d8d;stroke-width:0.3985;stroke-linecap:butt;stroke-linejoin:miter;stroke-miterlimit:10;stroke-dasharray:none;stroke-opacity:1"
       transform="matrix(1.3333333,0,0,-1.3333333,324.47867,75.856)" />
    <path
       id="path2"
       d="M -127.56062,-14.17339 V 14.1734 h 28.3468 v -28.34679 z"
       style="fill:#b3b3b3;fill-opacity:1;fill-rule:nonzero;stroke:#000000;stroke-width:0.79701;stroke-linecap:butt;stroke-linejoin:miter;stroke-miterlimit:10;stroke-dasharray:none;stroke-opacity:1"
       transform="matrix(1.3333333,0,0,-1.3333333,324.47867,75.856)" />
    <path
       id="path3"
       d="M 127.56062,-14.17339 V 14.1734 h -28.3468 v -28.34679 z"
       style="fill:#b3b3b3;fill-opacity:1;fill-rule:nonzero;stroke:#000000;stroke-width:0.79701;stroke-linecap:butt;stroke-linejoin:miter;stroke-miterlimit:10;stroke-dasharray:none;stroke-opacity:1"
       transform="matrix(1.3333333,0,0,-1.3333333,324.47867,75.856)" />
    <path
       id="path4"
       d="m -127.56062,-14.17339 28.3468,28.34679 m -28.3468,-1e-5 28.3468,-28.34679"
       style="fill:none;stroke:#000000;stroke-width:0.79701;stroke-linecap:butt;stroke-linejoin:miter;stroke-miterlimit:10;stroke-dasharray:none;stroke-opacity:1"
       transform="matrix(1.3333333,0,0,-1.3333333,324.47867,75.856)" />
    <path
       id="path5"
       d="M 127.56062,-14.17339 99.21382,14.1734 m 28.3468,-1e-5 -28.3468,-28.34679"
       style="fill:none;stroke:#000000;stroke-width:0.79701;stroke-linecap:butt;stroke-linejoin:miter;stroke-miterlimit:10;stroke-dasharray:none;stroke-opacity:1"
       transform="matrix(1.3333333,0,0,-1.3333333,324.47867,75.856)" />
    <path
       id="path6"
       d="m -127.56062,0 h -56.69362 l 1e-5,-13.46465 m 0,-29.76431 -1e-5,-13.46466"
       style="fill:none;stroke:#000000;stroke-width:0.79701;stroke-linecap:butt;stroke-linejoin:miter;stroke-miterlimit:10;stroke-dasharray:none;stroke-opacity:1"
       transform="matrix(1.3333333,0,0,-1.3333333,324.47867,75.856)" />
    <path
       id="path7"
       d="m 12.784531,-11.811164 c 0.703125,-1.125 1.347657,-1.617188 2.402344,-1.699219 0.199219,-0.02344 0.375,-0.02344 0.375,-0.386719 0,-0.09375 -0.04687,-0.210937 -0.234375,-0.210937 -0.375,0 -1.253906,0.03516 -1.628906,0.03516 -0.597656,0 -1.21875,-0.03516 -1.804688,-0.03516 -0.164062,0 -0.363281,0 -0.363281,0.386719 0,0.1875 0.1875,0.210937 0.269531,0.210937 0.761719,0.05859 0.84375,0.433594 0.84375,0.679688 0,0.316406 -0.292968,0.785156 -0.304687,0.808593 L 5.8470313,-1.7330391 4.405625,-12.865852 c 0,-0.597656 1.0664063,-0.644531 1.3007813,-0.644531 0.3046875,0 0.4921875,0 0.4921875,-0.386719 0,-0.210937 -0.2226563,-0.210937 -0.2929688,-0.210937 -0.3515625,0 -0.7617187,0.03516 -1.1132812,0.03516 H 3.6321875 c -1.5,0 -2.1210937,-0.03516 -2.1445312,-0.03516 -0.1289063,0 -0.375,0 -0.375,0.375 0,0.222656 0.1523437,0.222656 0.4804687,0.222656 1.0546875,0 1.1132813,0.1875 1.171875,0.703125 l 1.6523438,12.75000019 c 0.070312,0.43359375 0.070312,0.4921875 0.3515625,0.4921875 0.2460937,0 0.3515625,-0.0585938 0.5625,-0.38671875 z m 0,0"
       style="fill:#000000;fill-opacity:1;fill-rule:nonzero;stroke:none"
       aria-label="V"
       transform="matrix(1.3333333,0,0,1.3333333,5.3133333,119.424)" />
    <text
       id="text7"
       xml:space="preserve"
       transform="matrix(1.3333333,0,0,1.3333333,21.038667,123.556)"><tspan
         id="tspan7"
         style="font-variant:normal;font-weight:normal;font-size:14.3462px;font-family:'Latin Modern Roman';writing-mode:lr-tb;fill:#000000;fill-opacity:1;fill-rule:nonzero;stroke:none"
         x="0"
         y="0">bias</tspan></text>
    <path
       id="path8"
       d="m -169.37207,-28.3468 c 0,8.21928 -6.66287,14.88215 -14.88216,14.88215 -8.21928,0 -14.88217,-6.66287 -14.88217,-14.88215 0,-8.21929 6.66289,-14.88216 14.88217,-14.88216 8.21929,0 14.88216,6.66287 14.88216,14.88216 z"
       style="fill:none;stroke:#000000;stroke-width:1.59404;stroke-linecap:butt;stroke-linejoin:miter;stroke-miterlimit:10;stroke-dasharray:none;stroke-opacity:1"
       transform="matrix(1.3333333,0,0,-1.3333333,324.47867,75.856)" />
    <path
       id="path9"
       d="m 7.8740313,-2.7547031 c 0.2109375,0 0.421875,0 0.421875,-0.234375 0,-0.234375 -0.2109375,-0.234375 -0.421875,-0.234375 h -6.46875 c -0.1992188,0 -0.4101563,0 -0.4101563,0.234375 0,0.234375 0.2109375,0.234375 0.4101563,0.234375 z m 0,0"
       style="fill:#000000;fill-opacity:1;fill-rule:nonzero;stroke:none"
       aria-label="−"
       transform="matrix(1.3333333,0,0,1.3333333,72.610667,126.212)" />
    <path
       id="path10"
       d="m 4.7682422,-2.7657109 h 3.3046875 c 0.1640625,0 0.375,0 0.375,-0.2109375 0,-0.2226563 -0.1992188,-0.2226563 -0.375,-0.2226563 H 4.7682422 v -3.3046875 c 0,-0.1640625 0,-0.3867187 -0.2109375,-0.3867187 -0.234375,0 -0.234375,0.2109375 -0.234375,0.3867187 v 3.3046875 H 1.0299609 c -0.17578121,0 -0.38671871,0 -0.38671871,0.2109375 0,0.2226563 0.19921875,0.2226563 0.38671871,0.2226563 h 3.2929688 v 3.30468746 c 0,0.1640625 0,0.38671875 0.2226562,0.38671875 0.2226563,0 0.2226563,-0.2109375 0.2226563,-0.38671875 z m 0,0"
       style="fill:#000000;fill-opacity:1;fill-rule:nonzero;stroke:none"
       aria-label="+"
       transform="matrix(1.3333333,0,0,1.3333333,72.74,108.94933)" />
    <path
       id="path11"
       d="m -184.25424,-56.69362 v -9.92134"
       style="fill:none;stroke:#000000;stroke-width:0.79701;stroke-linecap:butt;stroke-linejoin:miter;stroke-miterlimit:10;stroke-dasharray:none;stroke-opacity:1"
       transform="matrix(1.3333333,0,0,-1.3333333,324.47867,75.856)" />
    <path
       id="path12"
       d="m -190.2071,-66.61496 h 11.90571 l -5.95285,-7.93709 z"
       style="fill:none;stroke:#000000;stroke-width:1.59404;stroke-linecap:butt;stroke-linejoin:miter;stroke-miterlimit:10;stroke-dasharray:none;stroke-opacity:1"
       transform="matrix(1.3333333,0,0,-1.3333333,324.47867,75.856)" />
    <path
       id="path13"
       d="m 127.56062,0 h 56.69362 l -1e-5,-13.46465 m 0,-29.76431 1e-5,-13.46466"
       style="fill:none;stroke:#000000;stroke-width:0.79701;stroke-linecap:butt;stroke-linejoin:miter;stroke-miterlimit:10;stroke-dasharray:none;stroke-opacity:1"
       transform="matrix(1.3333333,0,0,-1.3333333,324.47867,75.856)" />
    <text
       id="text13"
       xml:space="preserve"
       x="596.33868"
       y="129.304"
       style="font-size:16px;stroke-width:1.33333"><tspan
         id="tspan13"
         style="font-variant:normal;font-weight:normal;font-size:27.55px;font-family:'Latin Modern Roman';writing-mode:lr-tb;fill:#000000;fill-opacity:1;fill-rule:nonzero;stroke:none;stroke-width:1.33333"
         x="596.33868"
         y="129.304">Signal</tspan></text>
    <path
       id="path14"
       d="m 199.1364,-28.3468 c 0,8.21928 -6.66289,14.88215 -14.88217,14.88215 -8.21929,0 -14.88216,-6.66287 -14.88216,-14.88215 0,-8.21929 6.66287,-14.88216 14.88216,-14.88216 8.21928,0 14.88217,6.66287 14.88217,14.88216 z"
       style="fill:none;stroke:#000000;stroke-width:1.59404;stroke-linecap:butt;stroke-linejoin:miter;stroke-miterlimit:10;stroke-dasharray:none;stroke-opacity:1"
       transform="matrix(1.3333333,0,0,-1.3333333,324.47867,75.856)" />
    <path
       id="path15"
       d="m 172.34846,-46.20534 22.08745,33.13092"
       style="fill:none;stroke:#000000;stroke-width:0.79701;stroke-linecap:butt;stroke-linejoin:miter;stroke-miterlimit:10;stroke-dasharray:none;stroke-opacity:1"
       transform="matrix(1.3333333,0,0,-1.3333333,324.47867,75.856)"
       clip-path="url(#clipPath16)" />
    <path
       id="path17"
       d="m 3.1083,0 c -1.29513,0.25902 -3.62635,0.77707 -5.1805,1.94269 1.29513,-1.42464 1.29513,-2.46074 0,-3.88538 C -0.51805,-0.77707 1.81317,-0.25902 3.1083,0 Z"
       style="fill:#000000;fill-opacity:1;fill-rule:evenodd;stroke:none"
       transform="matrix(0.73956,-1.10936,-1.10936,-0.73956,583.72653,93.288573)"
       clip-path="url(#clipPath18)" />
    <text
       id="text18"
       xml:space="preserve"
       transform="matrix(1.3333333,0,0,1.3333333,563.128,120.48)"><tspan
         id="tspan18"
         style="font-variant:normal;font-weight:normal;font-size:14.3462px;font-family:'Latin Modern Roman';writing-mode:lr-tb;fill:#000000;fill-opacity:1;fill-rule:nonzero;stroke:none"
         x="0"
         y="0">A</tspan></text>
    <path
       id="path19"
       d="m 184.25424,-56.69362 v -9.92134"
       style="fill:none;stroke:#000000;stroke-width:0.79701;stroke-linecap:butt;stroke-linejoin:miter;stroke-miterlimit:10;stroke-dasharray:none;stroke-opacity:1"
       transform="matrix(1.3333333,0,0,-1.3333333,324.47867,75.856)" />
    <path
       id="path20"
       d="m 178.30139,-66.61496 h 11.90571 l -5.95286,-7.93709 z"
       style="fill:none;stroke:#000000;stroke-width:1.59404;stroke-linecap:butt;stroke-linejoin:miter;stroke-miterlimit:10;stroke-dasharray:none;stroke-opacity:1"
       transform="matrix(1.3333333,0,0,-1.3333333,324.47867,75.856)" />
    <path
       id="path21"
       d="m -79.37115,0 c 0,3.13109 -2.53818,5.66927 -5.66927,5.66927 -3.13109,0 -5.66928,-2.53818 -5.66928,-5.66927 0,-3.13109 2.53819,-5.66927 5.66928,-5.66927 3.13109,0 5.66927,2.53818 5.66927,5.66927 z"
       style="fill:#5bcefa;fill-opacity:1;fill-rule:nonzero;stroke:#5bcefa;stroke-width:0.3985;stroke-linecap:butt;stroke-linejoin:miter;stroke-miterlimit:10;stroke-dasharray:none;stroke-opacity:1"
       transform="matrix(1.3333333,0,0,-1.3333333,324.47867,75.856)" />
    <path
       id="path22"
       d="m -51.02434,0 c 0,3.13109 -2.53818,5.66927 -5.66928,5.66927 -3.13108,0 -5.66926,-2.53818 -5.66926,-5.66927 0,-3.13109 2.53818,-5.66927 5.66926,-5.66927 3.1311,0 5.66928,2.53818 5.66928,5.66927 z"
       style="fill:#5bcefa;fill-opacity:1;fill-rule:nonzero;stroke:#5bcefa;stroke-width:0.3985;stroke-linecap:butt;stroke-linejoin:miter;stroke-miterlimit:10;stroke-dasharray:none;stroke-opacity:1"
       transform="matrix(1.3333333,0,0,-1.3333333,324.47867,75.856)" />
    <path
       id="path23"
       d="m -22.67754,0 c 0,3.13109 -2.53817,5.66927 -5.66926,5.66927 -3.13109,0 -5.66928,-2.53818 -5.66928,-5.66927 0,-3.13109 2.53819,-5.66927 5.66928,-5.66927 3.13109,0 5.66926,2.53818 5.66926,5.66927 z"
       style="fill:#5bcefa;fill-opacity:1;fill-rule:nonzero;stroke:#5bcefa;stroke-width:0.3985;stroke-linecap:butt;stroke-linejoin:miter;stroke-miterlimit:10;stroke-dasharray:none;stroke-opacity:1"
       transform="matrix(1.3333333,0,0,-1.3333333,324.47867,75.856)" />
    <path
       id="path24"
       d="M 5.66927,0 C 5.66927,3.13109 3.13109,5.66927 0,5.66927 -3.13109,5.66927 -5.66927,3.13109 -5.66927,0 c 0,-3.13109 2.53818,-5.66927 5.66927,-5.66927 3.13109,0 5.66927,2.53818 5.66927,5.66927 z"
       style="fill:#5bcefa;fill-opacity:1;fill-rule:nonzero;stroke:#5bcefa;stroke-width:0.3985;stroke-linecap:butt;stroke-linejoin:miter;stroke-miterlimit:10;stroke-dasharray:none;stroke-opacity:1"
       transform="matrix(1.3333333,0,0,-1.3333333,324.47867,75.856)" />
    <path
       id="path25"
       d="m 34.01608,0 c 0,3.13109 -2.53819,5.66927 -5.66928,5.66927 -3.13109,0 -5.66926,-2.53818 -5.66926,-5.66927 0,-3.13109 2.53817,-5.66927 5.66926,-5.66927 3.13109,0 5.66928,2.53818 5.66928,5.66927 z"
       style="fill:#5bcefa;fill-opacity:1;fill-rule:nonzero;stroke:#5bcefa;stroke-width:0.3985;stroke-linecap:butt;stroke-linejoin:miter;stroke-miterlimit:10;stroke-dasharray:none;stroke-opacity:1"
       transform="matrix(1.3333333,0,0,-1.3333333,324.47867,75.856)" />
    <path
       id="path26"
       d="m 62.36288,0 c 0,3.13109 -2.53818,5.66927 -5.66926,5.66927 -3.1311,0 -5.66928,-2.53818 -5.66928,-5.66927 0,-3.13109 2.53818,-5.66927 5.66928,-5.66927 3.13108,0 5.66926,2.53818 5.66926,5.66927 z"
       style="fill:#5bcefa;fill-opacity:1;fill-rule:nonzero;stroke:#5bcefa;stroke-width:0.3985;stroke-linecap:butt;stroke-linejoin:miter;stroke-miterlimit:10;stroke-dasharray:none;stroke-opacity:1"
       transform="matrix(1.3333333,0,0,-1.3333333,324.47867,75.856)" />
    <path
       id="path27"
       d="m 90.7097,0 c 0,3.13109 -2.53819,5.66927 -5.66928,5.66927 -3.13109,0 -5.66927,-2.53818 -5.66927,-5.66927 0,-3.13109 2.53818,-5.66927 5.66927,-5.66927 3.13109,0 5.66928,2.53818 5.66928,5.66927 z"
       style="fill:#5bcefa;fill-opacity:1;fill-rule:nonzero;stroke:#5bcefa;stroke-width:0.3985;stroke-linecap:butt;stroke-linejoin:miter;stroke-miterlimit:10;stroke-dasharray:none;stroke-opacity:1"
       transform="matrix(1.3333333,0,0,-1.3333333,324.47867,75.856)" />
    <path
       id="path28"
       d="M -85.04042,14.17339 H 80.37794"
       style="fill:none;stroke:#ffffff;stroke-width:0.79701;stroke-linecap:butt;stroke-linejoin:miter;stroke-miterlimit:10;stroke-dasharray:none;stroke-opacity:1"
       transform="matrix(1.3333333,0,0,-1.3333333,324.47867,75.856)" />
    <path
       id="path29"
       d="M 4.66248,0 C 3.28098,0.25902 1.0361,1.0361 -0.51805,1.94269 V -1.94269 C 1.0361,-1.0361 3.28098,-0.25902 4.66248,0"
       style="fill:#ffffff;fill-opacity:1;fill-rule:nonzero;stroke:none"
       transform="matrix(1.3333333,0,0,-1.3333333,431.64925,56.958147)" />
  </g>
</svg>
