<?xml version="1.0" encoding="UTF-8" standalone="no"?>
<!-- Created with Inkscape (http://www.inkscape.org/) -->

<svg
   version="1.1"
   id="svg1"
   width="244.81599"
   height="193.74001"
   viewBox="0 0 244.81599 193.74001"
   sodipodi:docname="circuits.pdf"
   xmlns:inkscape="http://www.inkscape.org/namespaces/inkscape"
   xmlns:sodipodi="http://sodipodi.sourceforge.net/DTD/sodipodi-0.dtd"
   xmlns="http://www.w3.org/2000/svg"
   xmlns:svg="http://www.w3.org/2000/svg">
  <defs
     id="defs1" />
  <sodipodi:namedview
     id="namedview1"
     pagecolor="#ffffff"
     bordercolor="#000000"
     borderopacity="0.25"
     inkscape:showpageshadow="2"
     inkscape:pageopacity="0.0"
     inkscape:pagecheckerboard="0"
     inkscape:deskcolor="#d1d1d1">
    <inkscape:page
       x="0"
       y="0"
       inkscape:label="1"
       id="page1"
       width="244.81599"
       height="193.74001"
       margin="0"
       bleed="0" />
  </sodipodi:namedview>
  <g
     id="g1"
     inkscape:groupmode="layer"
     inkscape:label="1">
    <path
       id="path1"
       d="m 0,0 v 52.72513 m 0,7.93697 v 52.72514 h 56.69362 v -16.4411 m 0,-23.81144 V 56.69362 44.221 m 0,-31.74839 V 0 H 0"
       style="fill:none;stroke:#000000;stroke-width:0.3985;stroke-linecap:butt;stroke-linejoin:miter;stroke-miterlimit:10;stroke-dasharray:none;stroke-opacity:1"
       transform="matrix(1.3333333,0,0,-1.3333333,16.405333,172.46)" />
    <path
       id="path2"
       d="M -11.90572,52.72513 H 11.90572 M -11.90572,60.6621 H 11.90572"
       style="fill:none;stroke:#000000;stroke-width:0.797;stroke-linecap:butt;stroke-linejoin:miter;stroke-miterlimit:10;stroke-dasharray:none;stroke-opacity:1"
       transform="matrix(1.3333333,0,0,-1.3333333,16.405333,172.46)" />
    <path
       id="path3"
       d="m 15.432648,-14.355953 c 0,-0.1875 -0.140625,-0.1875 -0.1875,-0.1875 -0.03516,0 -0.117187,0 -0.292968,0.199219 l -1.417969,1.746093 c -0.726563,-1.242187 -1.863281,-1.945312 -3.410156,-1.945312 -4.4648441,0 -9.0937503,4.523437 -9.0937503,9.3749999 0,3.4570312 2.4140625,5.60156247 5.4375,5.60156247 1.6523437,0 3.09375,-0.703125 4.3007813,-1.71093747 1.792969,-1.5117188 2.332031,-3.515625 2.332031,-3.6796875 0,-0.1875 -0.164062,-0.1875 -0.234375,-0.1875 -0.1875,0 -0.199219,0.1289062 -0.246094,0.2109375 -0.949218,3.2226562 -3.7382808,4.76953122 -5.8007808,4.76953122 -2.1914063,0 -4.0898438,-1.40625002 -4.0898438,-4.33593752 0,-0.6679687 0.1992188,-4.265625 2.5429688,-6.9609376 1.1367187,-1.324219 3.0703125,-2.484375 5.0390628,-2.484375 2.273437,0 3.28125,1.875 3.28125,3.9843751 0,0.5390625 -0.05859,0.9960938 -0.05859,1.078125 0,0.1875 0.199219,0.1875 0.269531,0.1875 0.222656,0 0.246094,-0.023437 0.328125,-0.3984375 z m 0,0"
       style="fill:#000000;fill-opacity:1;fill-rule:nonzero;stroke:none"
       aria-label="C"
       transform="matrix(1.3333333,0,0,1.3333333,36.442667,100.30533)" />
    <path
       id="path4"
       d="m 56.53423,97.34465 c 3.28768,0 5.95285,-1.63475 5.95285,-3.65135 0,-2.0166 -2.66517,-3.65135 -5.95285,-3.65135 -1.64377,0 -2.97628,0.66625 -2.97628,1.48814 0,0.82187 1.33251,1.48813 2.97628,1.48813 3.28768,0 5.95285,-1.63474 5.95285,-3.65135 0,-2.0166 -2.66517,-3.65134 -5.95285,-3.65134 -1.64377,0 -2.97628,0.66626 -2.97628,1.48813 0,0.82188 1.33251,1.48814 2.97628,1.48814 3.28768,0 5.95285,-1.63475 5.95285,-3.65135 0,-2.0166 -2.66517,-3.65135 -5.95285,-3.65135 -1.64377,0 -2.97628,0.66626 -2.97628,1.48814 0,0.82189 1.33251,1.48813 2.97628,1.48813 3.28768,0 5.95285,-1.63473 5.95285,-3.65133 0,-2.01661 -2.66517,-3.65136 -5.95285,-3.65136 -1.64377,0 -2.97628,0.66626 -2.97628,1.48813 0,0.82189 1.33251,1.48815 2.97628,1.48815 3.28768,0 5.95285,-1.63476 5.95285,-3.65136 0,-2.0166 -2.66517,-3.65133 -5.95285,-3.65133"
       style="fill:none;stroke:#000000;stroke-width:0.797;stroke-linecap:butt;stroke-linejoin:bevel;stroke-miterlimit:10;stroke-dasharray:none;stroke-opacity:1"
       transform="matrix(1.3333333,0,0,-1.3333333,16.405333,172.46)" />
    <path
       id="path5"
       d="m 7.5806172,-12.516766 c 0.1875,-0.785156 0.2460937,-0.996093 2.0625,-0.996093 0.5624998,0 0.7031248,0 0.7031248,-0.386719 0,-0.210938 -0.222656,-0.210938 -0.304687,-0.210938 -0.4101566,0 -0.8906253,0.03516 -1.3007816,0.03516 h -2.765625 c -0.3984375,0 -0.8554687,-0.03516 -1.2421875,-0.03516 -0.1640625,0 -0.3984375,0 -0.3984375,0.386719 0,0.210938 0.1875,0.210938 0.5039063,0.210938 1.2539062,0 1.2539062,0.164062 1.2539062,0.386718 0,0.04687 0,0.175782 -0.082031,0.480469 L 3.2212422,-1.5245781 c -0.1875,0.71484373 -0.2226563,0.92578123 -1.6757813,0.92578123 -0.3867187,0 -0.59765621,0 -0.59765621,0.375 0,0.22265625 0.12890621,0.22265625 0.53906251,0.22265625 H 10.74468 c 0.457031,0 0.46875,-0.0234375 0.621093,-0.38671875 l 1.582032,-4.40625003 c 0.04687,-0.1054687 0.08203,-0.2226562 0.08203,-0.2929687 0,-0.1171875 -0.09375,-0.1992188 -0.199219,-0.1992188 -0.02344,0 -0.128906,0 -0.164062,0.082031 -0.04687,0.011719 -0.04687,0.058594 -0.210938,0.4570312 -0.65625,1.8164063 -1.59375,4.14843753 -5.0859373,4.14843753 H 5.3892109 c -0.2929687,0 -0.328125,0 -0.4570312,-0.0234375 -0.2226563,-0.0234375 -0.2460938,-0.0585938 -0.2460938,-0.22265625 0,-0.15234375 0.046875,-0.26953128 0.082031,-0.45703128 z m 0,0"
       style="fill:#000000;fill-opacity:1;fill-rule:nonzero;stroke:none"
       aria-label="L"
       transform="matrix(1.3333333,0,0,1.3333333,103.30267,62.509333)" />
    <path
       id="path6"
       d="M 56.69362,44.6195 62.64647,41.54208 50.74075,36.18428 62.64647,30.82646 50.74075,25.46864 62.64647,20.11082 50.74075,14.753 56.69362,12.0741"
       style="fill:none;stroke:#000000;stroke-width:0.797;stroke-linecap:butt;stroke-linejoin:bevel;stroke-miterlimit:10;stroke-dasharray:none;stroke-opacity:1"
       transform="matrix(1.3333333,0,0,-1.3333333,16.405333,172.46)" />
    <path
       id="path7"
       d="m 7.6040547,-12.701953 c 0.1875,-0.761719 0.2695312,-0.808594 1.0664062,-0.808594 h 1.4882811 c 1.78125,0 3.105469,0.539063 3.105469,2.144531 0,1.054688 -0.539063,4.0898441 -4.6875001,4.0898441 h -2.34375 z m 2.8710933,5.6835936 c 2.554688,-0.5625 4.558594,-2.2148437 4.558594,-3.9960936 0,-1.605469 -1.628906,-3.09375 -4.5,-3.09375 H 4.9321797 c -0.4101563,0 -0.5976563,0 -0.5976563,0.386719 0,0.210937 0.1523438,0.210937 0.5390625,0.210937 1.2421875,0 1.2421875,0.164063 1.2421875,0.386719 0,0.04687 0,0.175781 -0.082031,0.480469 L 3.2446797,-1.5222656 c -0.1875,0.71484372 -0.234375,0.92578122 -1.6523438,0.92578122 -0.4804687,0 -0.62109371,0 -0.62109371,0.38671875 0,0.2109375 0.22265621,0.2109375 0.29296871,0.2109375 0.3632813,0 0.796875,-0.046875 1.1953125,-0.046875 h 2.4375 c 0.375,0 0.8085938,0.046875 1.171875,0.046875 0.1640625,0 0.3984375,0 0.3984375,-0.38671875 0,-0.2109375 -0.1875,-0.2109375 -0.4921875,-0.2109375 -1.265625,0 -1.265625,-0.1640625 -1.265625,-0.375 0,-0.0234375 0,-0.16406252 0.035156,-0.32812502 l 1.3945312,-5.5546875 h 2.4726563 c 1.9687501,0 2.3320311,1.2304688 2.3320311,1.921875 0,0.3046875 -0.199218,1.1132813 -0.351562,1.6523438 -0.222656,0.9492187 -0.28125,1.171875 -0.28125,1.5703125 0,1.46484372 1.195312,2.14453122 2.578125,2.14453122 1.675781,0 2.402344,-2.05078122 2.402344,-2.33203122 0,-0.1523438 -0.105469,-0.2109375 -0.234375,-0.2109375 -0.164063,0 -0.199219,0.1289062 -0.246094,0.2929687 -0.492188,1.46484377 -1.347656,1.83984377 -1.863281,1.83984377 -0.515625,0 -0.84375,-0.234375 -0.84375,-1.16015627 0,-0.4921875 0.246093,-2.3789062 0.269531,-2.484375 0.105469,-0.7617187 0.105469,-0.84375 0.105469,-1.0078125 0,-1.5117187 -1.21875,-2.1445312 -2.003907,-2.390625 z m 0,0"
       style="fill:#000000;fill-opacity:1;fill-rule:nonzero;stroke:none"
       aria-label="R"
       transform="matrix(1.3333333,0,0,1.3333333,103.30267,138.1)" />
    <path
       id="path8"
       d="m 0.62104688,1.8171875 c -0.10546875,0.4335937 -0.1640625,0.5507812 -0.75,0.5507812 -0.17578125,0 -0.31640625,0 -0.31640625,0.2695313 0,0.035156 0.0117188,0.140625 0.17578125,0.140625 0.1875,0 0.38671875,-0.023437 0.57421875,-0.023437 h 0.609375 c 0.30468747,0 1.03124997,0.023437 1.33593747,0.023437 0.09375,0 0.2578125,0 0.2578125,-0.2578125 0,-0.1523438 -0.09375,-0.1523438 -0.3398437,-0.1523438 -0.65625,0 -0.703125,-0.1054687 -0.703125,-0.2109375 0,-0.1757812 0.6445312,-2.64843745 0.7265625,-2.97656245 0.1640625,0.41015625 0.5507812,0.9609375 1.2890625,0.9609375 1.6289062,0 3.375,-2.10937505 3.375,-4.21875005 0,-1.3125 -0.75,-2.25 -1.8164063,-2.25 -0.9257812,0 -1.6992187,0.890625 -1.8515625,1.0898438 -0.1171875,-0.7148438 -0.6796875,-1.0898438 -1.2539062,-1.0898438 -0.4101563,0 -0.7382813,0.1992188 -1.01953127,0.75 -0.2578125,0.515625 -0.45703125,1.3945313 -0.45703125,1.4414063 0,0.058594 0.0585937,0.140625 0.1640625,0.140625 0.10546875,0 0.12890625,-0.023437 0.2109375,-0.3515625 0.21093752,-0.84375 0.49218752,-1.6875 1.06640622,-1.6875 0.328125,0 0.4453125,0.2226562 0.4453125,0.65625 0,0.3398437 -0.046875,0.4921875 -0.1054687,0.75 z M 3.0937031,-4.4757813 c 0.1054688,-0.3984375 0.5039063,-0.8203125 0.7382813,-1.0195312 0.1523437,-0.140625 0.6328125,-0.5390625 1.171875,-0.5390625 0.6328125,0 0.9257812,0.6328125 0.9257812,1.3710937 0,0.6914063 -0.4101562,2.3085938 -0.7617187,3.0585938 -0.3632813,0.7734375 -1.0195313,1.46484375 -1.6875,1.46484375 -0.9726563,0 -1.125,-1.24218755 -1.125,-1.28906255 0,-0.046875 0.023437,-0.1640625 0.035156,-0.234375 z m 0,0"
       style="fill:#000000;fill-opacity:1;fill-rule:nonzero;stroke:none"
       aria-label="p"
       transform="matrix(1.3333333,0,0,1.3333333,123.836,142.23333)" />
    <path
       id="path9"
       d="m 28.3468,113.38724 -1e-5,7.08668 m 0,0 1e-5,7.0867 M 28.3468,0 l -1e-5,-7.08669 m 0,0 1e-5,-7.0867"
       style="fill:none;stroke:#000000;stroke-width:0.3985;stroke-linecap:butt;stroke-linejoin:miter;stroke-miterlimit:10;stroke-dasharray:none;stroke-opacity:1"
       transform="matrix(1.3333333,0,0,-1.3333333,16.405333,172.46)" />
    <path
       id="path10"
       d="m 29.93394,127.56062 c 0,0.87658 -0.71058,1.58716 -1.58714,1.58716 -0.87655,0 -1.58714,-0.71058 -1.58714,-1.58716 0,-0.87655 0.71059,-1.58714 1.58714,-1.58714 0.87656,0 1.58714,0.71059 1.58714,1.58714 z"
       style="fill:#ffffff;fill-opacity:1;fill-rule:nonzero;stroke:#000000;stroke-width:0.3985;stroke-linecap:butt;stroke-linejoin:miter;stroke-miterlimit:10;stroke-dasharray:none;stroke-opacity:1"
       transform="matrix(1.3333333,0,0,-1.3333333,16.405333,172.46)" />
    <path
       id="path11"
       d="m 29.93394,-14.17339 c 0,0.87656 -0.71058,1.58715 -1.58714,1.58715 -0.87655,0 -1.58714,-0.71059 -1.58714,-1.58715 0,-0.87657 0.71059,-1.58715 1.58714,-1.58715 0.87656,0 1.58714,0.71058 1.58714,1.58715 z"
       style="fill:#ffffff;fill-opacity:1;fill-rule:nonzero;stroke:#000000;stroke-width:0.3985;stroke-linecap:butt;stroke-linejoin:miter;stroke-miterlimit:10;stroke-dasharray:none;stroke-opacity:1"
       transform="matrix(1.3333333,0,0,-1.3333333,16.405333,172.46)" />
    <path
       id="path12"
       d="M 70.867,56.69362 H 94.63097"
       style="fill:none;stroke:#000000;stroke-width:0.3985;stroke-linecap:butt;stroke-linejoin:miter;stroke-miterlimit:10;stroke-dasharray:none;stroke-opacity:1"
       transform="matrix(1.3333333,0,0,-1.3333333,16.405333,172.46)" />
    <path
       id="path13"
       d="M 3.7613,0 C 3.2994,0.1127 1.26901,0.75136 0,1.44638 V -1.44638 C 1.26901,-0.75136 3.2994,-0.1127 3.7613,0 Z"
       style="fill:#000000;fill-opacity:1;fill-rule:nonzero;stroke:#000000;stroke-width:0.3985;stroke-linecap:butt;stroke-linejoin:miter;stroke-miterlimit:10;stroke-dasharray:none;stroke-opacity:1"
       transform="matrix(1.3333333,0,0,-1.3333333,142.57996,96.868507)" />
    <path
       id="path14"
       d="m 113.38724,-14.17339 v 7.0867 m 0,0 V 0 40.81941 m 0,31.7484 v 40.81943 7.08668 m 0,0 v 7.0867"
       style="fill:none;stroke:#000000;stroke-width:0.3985;stroke-linecap:butt;stroke-linejoin:miter;stroke-miterlimit:10;stroke-dasharray:none;stroke-opacity:1"
       transform="matrix(1.3333333,0,0,-1.3333333,16.405333,172.46)" />
    <path
       id="path15"
       d="m 114.97438,-14.17339 c 0,0.87656 -0.71058,1.58715 -1.58714,1.58715 -0.87657,0 -1.58716,-0.71059 -1.58716,-1.58715 0,-0.87657 0.71059,-1.58715 1.58716,-1.58715 0.87656,0 1.58714,0.71058 1.58714,1.58715 z"
       style="fill:#ffffff;fill-opacity:1;fill-rule:nonzero;stroke:#000000;stroke-width:0.3985;stroke-linecap:butt;stroke-linejoin:miter;stroke-miterlimit:10;stroke-dasharray:none;stroke-opacity:1"
       transform="matrix(1.3333333,0,0,-1.3333333,16.405333,172.46)" />
    <path
       id="path16"
       d="m 119.34009,72.56781 v -31.7484 h -11.9057 v 31.7484 z"
       style="fill:none;stroke:#000000;stroke-width:0.797;stroke-linecap:butt;stroke-linejoin:miter;stroke-miterlimit:10;stroke-dasharray:none;stroke-opacity:1"
       transform="matrix(1.3333333,0,0,-1.3333333,16.405333,172.46)" />
    <path
       id="path17"
       d="m 14.461836,-13.465328 c 0.128906,-0.152344 0.222656,-0.269531 0.222656,-0.480469 0,-0.140625 -0.01172,-0.164062 -0.492187,-0.164062 H 5.6610547 c -0.46875,0 -0.4921875,0.02344 -0.6210938,0.386718 l -1.1367187,3.7265629 c -0.058594,0.1992187 -0.058594,0.2460937 -0.058594,0.28125 0,0.082031 0.058594,0.2109375 0.2109375,0.2109375 0.1640625,0 0.1992188,-0.082031 0.28125,-0.3515625 0.7617188,-2.2265629 1.78125,-3.6562499 5.0390625,-3.6562499 H 12.774336 L 1.4423047,-0.70360938 c -0.1757813,0.22265625 -0.2695313,0.31640625 -0.2695313,0.5390625 0,0.164062505 0.1054688,0.164062505 0.5039063,0.164062505 h 8.8242183 c 0.46875,0 0.492188,-0.023437505 0.609375,-0.386718755 l 1.453125,-4.57031247 c 0.02344,-0.058594 0.05859,-0.2109375 0.05859,-0.2929688 0,-0.1054687 -0.08203,-0.1992187 -0.199219,-0.1992187 -0.175781,0 -0.1875,0.011719 -0.351562,0.5273437 -0.867188,2.671875 -1.78125,4.27734377 -5.3789063,4.27734377 H 3.1180859 Z m 0,0"
       style="fill:#000000;fill-opacity:1;fill-rule:nonzero;stroke:none"
       aria-label="Z"
       transform="matrix(1.3333333,0,0,1.3333333,178.89333,100.30533)" />
    <text
       id="text17"
       xml:space="preserve"
       transform="matrix(1.3333333,0,0,1.3333333,197.35733,104.43733)"><tspan
         id="tspan17"
         style="font-variant:normal;font-weight:normal;font-size:14.3462px;font-family:'Latin Modern Roman';writing-mode:lr-tb;fill:#000000;fill-opacity:1;fill-rule:nonzero;stroke:none"
         x="0"
         y="0">RLC</tspan></text>
    <path
       id="path18"
       d="m 114.97438,127.56062 c 0,0.87658 -0.71058,1.58716 -1.58714,1.58716 -0.87657,0 -1.58716,-0.71058 -1.58716,-1.58716 0,-0.87655 0.71059,-1.58714 1.58716,-1.58714 0.87656,0 1.58714,0.71059 1.58714,1.58714 z"
       style="fill:#ffffff;fill-opacity:1;fill-rule:nonzero;stroke:#000000;stroke-width:0.3985;stroke-linecap:butt;stroke-linejoin:miter;stroke-miterlimit:10;stroke-dasharray:none;stroke-opacity:1"
       transform="matrix(1.3333333,0,0,-1.3333333,16.405333,172.46)" />
  </g>
</svg>
