<?xml version="1.0" encoding="UTF-8" standalone="no"?>
<svg
   id="Calque_1"
   version="1.1"
   viewBox="0 0 190.3 107.5"
   sodipodi:docname="logo-negatif-ok.svg"
   inkscape:version="1.4.2 (1:1.4.2+202505120737+ebf0e940d0)"
   width="190.3"
   height="107.5"
   xmlns:inkscape="http://www.inkscape.org/namespaces/inkscape"
   xmlns:sodipodi="http://sodipodi.sourceforge.net/DTD/sodipodi-0.dtd"
   xmlns="http://www.w3.org/2000/svg"
   xmlns:svg="http://www.w3.org/2000/svg">
  <sodipodi:namedview
     id="namedview35"
     pagecolor="#ffffff"
     bordercolor="#000000"
     borderopacity="0.25"
     inkscape:showpageshadow="2"
     inkscape:pageopacity="0.0"
     inkscape:pagecheckerboard="0"
     inkscape:deskcolor="#d1d1d1"
     inkscape:zoom="1.9944037"
     inkscape:cx="65.433092"
     inkscape:cy="2.2563135"
     inkscape:window-width="1920"
     inkscape:window-height="1011"
     inkscape:window-x="0"
     inkscape:window-y="32"
     inkscape:window-maximized="1"
     inkscape:current-layer="Calque_1" />
  <!-- Generator: Adobe Illustrator 29.0.1, SVG Export Plug-In . SVG Version: 2.1.0 Build 192)  -->
  <defs
     id="defs1">
    <style
       id="style1">
      .st0 {
        fill: none;
      }

      .st1 {
        fill: #fff;
      }
    </style>
  </defs>
  <path
     class="st1"
     d="M 71.1,50.8 V 42 h 3.1 v 8.8 c 0,1.6 1,2.9 2.8,2.9 1.8,0 2.8,-1.2 2.8,-2.9 V 42 h 3.1 v 8.8 c 0,3.4 -2.4,6 -5.9,6 -3.5,0 -5.9,-2.6 -5.9,-6 z"
     id="path1"
     style="fill:#a10e2f;fill-opacity:1" />
  <path
     class="st1"
     d="m 88.5,49.8 v 6.8 H 85.8 V 44.2 l 9,7.5 v -7.5 h 2.7 v 13.1 z"
     id="path2"
     style="fill:#a10e2f;fill-opacity:1" />
  <path
     class="st1"
     d="m 100.3,44.2 h 2.7 v 12.4 h -2.7 c 0,0 0,-12.4 0,-12.4 z"
     id="path3"
     style="fill:#a10e2f;fill-opacity:1" />
  <path
     class="st1"
     d="m 104.4,44.2 h 2.9 l 4,7.3 4,-7.3 h 2.9 l -6.9,12.4 c 0,0 -6.9,-12.4 -6.9,-12.4 z"
     id="path4"
     style="fill:#a10e2f;fill-opacity:1" />
  <path
     class="st1"
     d="m 118.7,44.2 h 9 v 2.3 h -6.3 v 2.7 h 5.4 v 2.3 h -5.4 v 2.9 h 6.3 v 2.3 h -9 v -12.4 0 z"
     id="path5"
     style="fill:#a10e2f;fill-opacity:1" />
  <path
     class="st1"
     d="m 130,44.2 h 5.5 c 3,0 4.6,2.2 4.6,4.4 0,2.2 -0.9,3.4 -2.5,4 l 2.8,3.9 h -3.1 L 134.8,53 h -2.1 v 3.5 H 130 v -12.4 0 z m 2.7,6.5 h 2.7 c 1.1,0 2.1,-0.9 2.1,-2.1 0,-1.2 -1,-2.1 -2.1,-2.1 h -2.7 z"
     id="path6"
     style="fill:#a10e2f;fill-opacity:1" />
  <path
     class="st1"
     d="m 142.8,52.9 c 2.6,1.8 6.3,2.2 6.3,0.2 0,-2 -7.6,-1 -7.4,-5.6 0.1,-3.8 5.5,-4.9 9.7,-1.9 l -1.2,2.2 c -2.6,-2 -5.7,-1.8 -5.8,0 0,2.1 7.4,1.2 7.4,5.3 0,4.1 -4.2,5.4 -10.1,2.6 l 1,-2.6 v -0.2 z"
     id="path7"
     style="fill:#a10e2f;fill-opacity:1" />
  <path
     class="st1"
     d="m 154,44.2 h 2.7 V 56.6 H 154 c 0,0 0,-12.4 0,-12.4 z"
     id="path8"
     style="fill:#a10e2f;fill-opacity:1" />
  <path
     class="st1"
     d="m 161.4,46.7 h -3.2 v -2.5 h 9 v 2.5 H 164 v 9.9 h -2.7 v -9.9 0 z"
     id="path9"
     style="fill:#a10e2f;fill-opacity:1" />
  <path
     class="st1"
     d="m 168.7,44.2 h 9 v 2.3 h -6.3 v 2.7 h 5.4 v 2.3 h -5.4 v 2.9 h 6.3 v 2.3 h -9 v -12.4 0 z m 4.7,-4.2 h 2.4 l -2.3,3 h -1.3 z"
     id="path10"
     style="fill:#a10e2f;fill-opacity:1" />
  <path
     class="st1"
     d="m 71.2,64.4 h 6.4 c 3,0 4.9,1.6 4.9,3.6 0,2 -0.9,2.9 -2,3.3 2,0.4 2.8,2 2.8,3.7 0,1.7 -1.8,4 -5.3,4 h -6.8 z m 6.2,5.6 c 1,0 1.9,-0.3 1.9,-1.4 0,-1.1 -1.2,-1.4 -2.3,-1.4 H 74.3 V 70 Z m 0.2,6.2 c 1.5,0 2.5,-0.5 2.5,-1.7 0,-1.2 -0.7,-1.7 -2.4,-1.7 h -3.4 v 3.5 h 3.3 v 0 z"
     id="path11"
     style="fill:#a10e2f;fill-opacity:1" />
  <path
     class="st1"
     d="m 84.9,72.7 c 0,-3.6 2.9,-6.5 6.5,-6.5 3.6,0 6.5,2.9 6.5,6.5 0,3.6 -2.9,6.5 -6.5,6.5 -3.6,0 -6.5,-2.9 -6.5,-6.5 z m 10.3,0 c 0,-2.1 -1.8,-3.8 -3.8,-3.8 -2,0 -3.8,1.7 -3.8,3.8 0,2.1 1.7,3.9 3.8,3.9 2.1,0 3.8,-1.7 3.8,-3.9 z"
     id="path12"
     style="fill:#a10e2f;fill-opacity:1" />
  <path
     class="st1"
     d="m 100,74.1 v -7.5 h 2.6 v 7.5 c 0,1.4 0.9,2.4 2.4,2.4 1.5,0 2.4,-1.1 2.4,-2.4 v -7.5 h 2.6 v 7.5 c 0,2.9 -2,5.1 -5,5.1 -3,0 -5,-2.2 -5,-5.1 z"
     id="path13"
     style="fill:#a10e2f;fill-opacity:1" />
  <path
     class="st1"
     d="m 112.9,66.5 h 5.5 c 3,0 4.6,2.2 4.6,4.4 0,2.2 -0.9,3.4 -2.5,4 l 2.8,3.9 h -3.1 l -2.5,-3.5 h -2.1 v 3.5 h -2.7 v -12.4 0 z m 2.6,6.6 h 2.7 c 1.1,0 2.1,-0.9 2.1,-2.1 0,-1.2 -1,-2.1 -2.1,-2.1 h -2.7 z"
     id="path14"
     style="fill:#a10e2f;fill-opacity:1" />
  <path
     class="st1"
     d="m 124.5,72.9 c 0,-3.8 3.1,-6.5 6.4,-6.5 3.3,0 3.5,0.7 4.6,1.9 l -1.8,1.8 c -0.7,-0.7 -1.7,-1.2 -2.8,-1.2 -2,0 -3.9,1.6 -3.9,3.9 0,2.3 1.9,3.9 3.9,3.9 2,0 2.2,-0.4 3,-1.3 V 72 h 2.5 v 4.9 c -1.2,1.8 -3.7,2.4 -5.5,2.4 -3.5,0 -6.4,-2.8 -6.4,-6.4 z"
     id="path15"
     style="fill:#a10e2f;fill-opacity:1" />
  <path
     class="st1"
     d="m 138.1,72.7 c 0,-3.6 2.9,-6.5 6.5,-6.5 3.6,0 6.5,2.9 6.5,6.5 0,3.6 -2.9,6.5 -6.5,6.5 -3.6,0 -6.5,-2.9 -6.5,-6.5 z m 10.4,0 c 0,-2.1 -1.8,-3.8 -3.8,-3.8 -2,0 -3.8,1.7 -3.8,3.8 0,2.1 1.7,3.9 3.8,3.9 2.1,0 3.8,-1.7 3.8,-3.9 z"
     id="path16"
     style="fill:#a10e2f;fill-opacity:1" />
  <path
     class="st1"
     d="m 152.5,72.9 c 0,-3.8 3.1,-6.5 6.4,-6.5 3.3,0 3.5,0.7 4.6,1.9 l -1.8,1.8 c -0.7,-0.7 -1.7,-1.2 -2.8,-1.2 -2,0 -3.9,1.6 -3.9,3.9 0,2.3 1.9,3.9 3.9,3.9 2,0 2.2,-0.4 3,-1.3 V 72 h 2.5 v 4.9 c -1.2,1.8 -3.7,2.4 -5.5,2.4 -3.5,0 -6.4,-2.8 -6.4,-6.4 z"
     id="path17"
     style="fill:#a10e2f;fill-opacity:1" />
  <path
     class="st1"
     d="m 169.5,72.1 v 6.8 h -2.7 V 66.5 l 9,7.5 v -7.5 h 2.7 v 13.1 z"
     id="path18"
     style="fill:#a10e2f;fill-opacity:1" />
  <path
     class="st1"
     d="m 181.3,66.5 h 9 v 2.3 H 184 v 2.7 h 5.4 v 2.3 H 184 v 2.9 h 6.3 V 79 h -9 v -12.4 0 z"
     id="path19"
     style="fill:#a10e2f;fill-opacity:1" />
  <path
     class="st1"
     d="m 71.2,86.7 h 10.5 v 2.7 h -7.4 v 3.1 h 6.4 v 2.7 h -6.4 v 3.4 h 7.4 v 2.7 H 71.2 c 0,0 0,-14.6 0,-14.6 z"
     id="path20"
     style="fill:#a10e2f;fill-opacity:1" />
  <path
     class="st1"
     d="M 84.1,96.5 V 89 h 2.6 v 7.5 c 0,1.4 0.9,2.4 2.4,2.4 1.5,0 2.4,-1.1 2.4,-2.4 V 89 h 2.6 v 7.5 c 0,2.9 -2,5.1 -5,5.1 -3,0 -5,-2.2 -5,-5.1 z"
     id="path21"
     style="fill:#a10e2f;fill-opacity:1" />
  <path
     class="st1"
     d="m 97,88.9 h 5.5 c 3,0 4.6,2.2 4.6,4.4 0,2.2 -0.9,3.4 -2.5,4 l 2.8,3.9 h -3.1 l -2.5,-3.5 h -2.1 v 3.5 H 97 v -12.4 0 z m 2.7,6.6 h 2.7 c 1.1,0 2.1,-0.9 2.1,-2.1 0,-1.2 -1,-2.1 -2.1,-2.1 h -2.7 z"
     id="path22"
     style="fill:#a10e2f;fill-opacity:1" />
  <path
     class="st1"
     d="m 108.6,95.1 c 0,-3.6 2.9,-6.5 6.5,-6.5 3.6,0 6.5,2.9 6.5,6.5 0,3.6 -2.9,6.5 -6.5,6.5 -3.6,0 -6.5,-2.9 -6.5,-6.5 z m 10.4,0 c 0,-2.1 -1.8,-3.8 -3.8,-3.8 -2,0 -3.8,1.7 -3.8,3.8 0,2.1 1.7,3.9 3.8,3.9 2.1,0 3.8,-1.7 3.8,-3.9 z"
     id="path23"
     style="fill:#a10e2f;fill-opacity:1" />
  <path
     class="st1"
     d="m 123.8,88.9 h 5.8 c 3,0 4.6,2.2 4.6,4.4 0,2.2 -1.6,4.4 -4.6,4.4 h -3.1 v 3.5 h -2.7 v -12.4 0 z m 5.7,6.6 c 1.2,0 2.1,-0.9 2.1,-2.1 0,-1.2 -1,-2.1 -2.1,-2.1 h -2.9 v 4.2 z"
     id="path24"
     style="fill:#a10e2f;fill-opacity:1" />
  <path
     class="st1"
     d="m 136.3,88.9 h 9 v 2.3 H 139 v 2.7 h 5.4 v 2.3 H 139 v 2.9 h 6.3 v 2.3 h -9 V 89 89 Z"
     id="path25"
     style="fill:#a10e2f;fill-opacity:1" />
  <path
     class="st1"
     d="m 0,74.2 c 0,12.7 9.6,27.9 27.6,33.3 V 74.2 Z m 15.7,4 h 3.1 c 0,0 -2.5,0.6 -2.9,3.6 h -1 c 0,0 -0.5,-2.6 0.8,-3.6 z m -0.3,4.9 c 1.2,0 2.2,1 2.2,2.2 0,1.2 -1,2.2 -2.2,2.2 -1.2,0 -2.2,-1 -2.2,-2.2 0,-1.2 1,-2.2 2.2,-2.2 z m -7.7,2.2 c 0,-1.2 1,-2.2 2.2,-2.2 1.2,0 2.2,1 2.2,2.2 0,1.2 -1,2.2 -2.2,2.2 -1.2,0 -2.2,-1 -2.2,-2.2 z m 2.7,4.9 c 0,-1.2 1,-2.2 2.2,-2.2 1.2,0 2.2,1 2.2,2.2 0,1.2 -1,2.2 -2.2,2.2 -1.2,0 -2.2,-1 -2.2,-2.2 z m 5,7.1 c -1.2,0 -2.2,-1 -2.2,-2.2 0,-1.2 1,-2.2 2.2,-2.2 1.2,0 2.2,1 2.2,2.2 0,1.2 -1,2.2 -2.2,2.2 z m 2.9,-4.9 c -1.2,0 -2.2,-1 -2.2,-2.2 0,-1.2 1,-2.2 2.2,-2.2 1.2,0 2.2,1 2.2,2.2 0,1.2 -1,2.2 -2.2,2.2 z M 21,87.5 c -1.2,0 -2.2,-1 -2.2,-2.2 0,-1.2 1,-2.2 2.2,-2.2 1.2,0 2.2,1 2.2,2.2 0,1.2 -1,2.2 -2.2,2.2 z"
     id="path26"
     style="fill:#a10e2f;fill-opacity:1" />
  <path
     class="st1"
     d="m 45.1,14.1 v 0 c -1,-4.5 -5,-7.2 -13.8,-3.8 V 9.8 h 0.5 c 0,-0.1 0,-0.3 0,-0.4 v 0 c 0.3,0 0.6,-0.3 0.6,-0.6 0,-0.3 -0.3,-0.6 -0.6,-0.6 h -0.9 c 0,-0.3 0,-0.6 0.2,-0.8 0.5,-1.5 2,-0.2 0.8,0.4 0.7,0.3 1.4,-0.1 1.6,-0.8 0.2,-0.7 0,-1.5 -0.7,-1.7 -1,-0.3 -1.7,0.4 -2.1,1.4 0,0.3 -0.2,0.7 -0.3,1 0,0 -0.2,-0.1 -0.2,-0.2 0,-0.6 0.2,-1.2 0.5,-1.8 0.4,-1 0.9,-2 0.7,-2.9 C 31.2,1.8 30.6,1.3 30.1,0.6 29.9,0.3 29.8,0.1 29.7,0 v 0 c 0,0.1 -0.2,0.4 -0.4,0.6 -0.5,0.7 -1,1.2 -1.3,2.2 -0.2,0.9 0.3,1.9 0.7,2.9 0.2,0.6 0.3,1.2 0.5,1.8 0,0 -0.2,0 -0.2,0.2 C 29,7.4 28.8,7 28.7,6.7 28.3,5.7 27.5,5 26.6,5.3 c -0.8,0.2 -1,1.1 -0.7,1.7 0.2,0.7 0.9,1.1 1.6,0.8 -1.2,-0.6 0.3,-1.9 0.8,-0.4 0,0.3 0.2,0.6 0.2,0.8 h -0.9 c -0.3,0 -0.6,0.3 -0.6,0.6 0,0.3 0.3,0.6 0.6,0.6 v 0 c 0,0.2 0,0.3 0,0.4 h 0.5 v 0.5 C 19.3,6.9 15.3,9.6 14.3,14.1 v 0 C 4.6,8.4 -0.6,19.3 4.2,26.6 c 2.2,3.4 3.6,6.2 4.4,8.3 -0.2,0.4 -0.3,0.7 -0.3,1.2 0,1.4 1.1,2.5 2.5,2.5 h 38.3 c 1.4,0 2.5,-1.1 2.5,-2.5 0,-1.4 0,-0.8 -0.3,-1.2 0.8,-2.1 2.2,-4.9 4.4,-8.3 C 60.5,19.4 55.3,8.4 45.6,14.1 H 45.3 Z M 10.4,33.5 c -0.4,0 -0.8,0 -1.1,0.3 C 8.6,32 7.5,29.9 6,27.5 2.1,21.1 5.8,11.7 13.4,15.1 c -0.5,4.2 1.1,9.4 3.4,12.9 1.6,2.3 2.5,4.1 3.1,5.5 h -9.6 v 0 z m 11.6,0 c -0.5,-1.3 -1.4,-3 -2.8,-5.1 -4.6,-6.9 -5.8,-21.6 7.8,-16.6 0,2.1 0,4.9 0.5,8.5 0.6,5.1 0.7,9.9 0.7,13.2 z m 8.8,0 c 0,-3.2 0,-8.1 0.7,-13.2 0.4,-3.6 0.5,-6.4 0.5,-8.5 13.5,-5 12.3,9.7 7.7,16.6 -1.4,2.2 -2.3,3.8 -2.8,5.1 z m 21.9,-6 c -1.5,2.4 -2.5,4.5 -3.2,6.3 -0.3,-0.2 -0.7,-0.3 -1.1,-0.3 h -9.5 c 0.6,-1.4 1.5,-3.2 3.1,-5.5 2.3,-3.5 3.9,-8.7 3.4,-12.9 7.5,-3.4 11.3,6 7.4,12.4 z"
     id="path27"
     style="fill:#a10e2f;fill-opacity:1" />
  <path
     class="st1"
     d="M 0.1,42.2 V 70.4 H 27.6 V 42.1 H 0.1 v 0 z m 0.5,13.6 h 2.5 v 6.5 H 0.6 Z m 3,6.9 V 45.6 h 20.3 v 20.9 0 c 0,0 -3.5,0 -3.5,0 H 3.8 V 62.6 H 3.6 Z m -3,-13 v -7 l 2.5,2.6 v 4.4 z m 7.2,-7 h 6.3 v 2.4 H 7.8 c 0,0 0,-2.4 0,-2.4 z m 12.1,0 h 6.8 l -2.3,2.4 h -4.5 c 0,0 0,-2.4 0,-2.4 z m 4.5,6.6 h 2.7 v 7 h -2.7 z m 2.6,13 v 7.5 l -2.7,-2.6 v 0 -4.8 H 27 Z m -7.2,7.6 h -6.2 v -2.8 h 6.2 z m -12.1,0 H 0.5 L 3,67.1 h 4.6 v 2.8 0 z"
     id="path28"
     style="fill:#a10e2f;fill-opacity:1" />
  <path
     class="st1"
     d="M 9.9,56 C 9.7,56 9.6,55.7 9.5,55.5 v -0.2 h 1.1 c 0.2,0 0.4,-0.2 0.3,-0.4 0,-0.2 -0.2,-0.3 -0.4,-0.3 h -0.2 v -0.5 c 0,-0.2 0.2,-0.4 0.4,-0.4 h 0.4 c 0.3,0 0.5,0.2 0.6,0.4 v 0.2 c 0,0.2 0.2,0.3 0.4,0.2 0.5,-0.2 0.9,-0.8 0.7,-1.3 -0.2,-0.7 -1,-1.2 -2,-0.7 -0.7,0.4 -0.9,0.9 -1,1.6 v 0.6 H 9.5 v -0.9 c 0,-0.4 0.2,-0.8 0.4,-1.2 0.3,-0.5 0.5,-1 0.5,-1.6 V 50.4 C 10.2,49.7 9.8,49.2 9.2,48.8 H 9 c -0.9,0.6 -1.4,1.4 -1.3,2.4 0,0.4 0.2,0.7 0.4,1.1 0,0.3 0.3,0.6 0.4,0.9 0.1,0.3 0.2,0.5 0.2,0.8 v 0.6 H 8.4 c 0,-0.3 0,-0.6 0,-0.9 0,-0.6 -0.5,-1 -1.2,-1.3 -0.2,0 -0.5,-0.2 -0.8,0 -0.7,0.2 -1.1,0.7 -1,1.3 0,0.4 0.3,0.7 0.7,0.9 h 0.3 v -0.2 c 0,-0.2 0,-0.5 0.4,-0.6 h 0.4 c 0.3,0 0.5,0.2 0.6,0.4 v 0.4 q 0,0.2 -0.3,0.2 c -0.2,0 -0.4,0.3 -0.4,0.4 0,0.2 0.2,0.3 0.5,0.3 h 1 c 0,0 0,0.3 -0.2,0.4 0,0 -0.2,0.2 -0.4,0.3 0,0 0,0 0,0.2 0,0.2 0.2,0.3 0.4,0.3 h 0.2 c 0,0.4 0,0.6 0.4,0.7 v 0 c 0,0 0.2,-0.2 0.3,-0.3 0,0 0,-0.3 0,-0.4 h 0.2 c 0.2,0 0.3,0 0.4,-0.3 v -0.3 0 z"
     id="path29"
     style="fill:#a10e2f;fill-opacity:1" />
  <path
     class="st1"
     d="m 15.7,59.6 c -0.7,0.4 -0.9,0.9 -1,1.6 v 0.6 h -0.3 v -0.9 c 0,-0.4 0.2,-0.8 0.4,-1.2 0.3,-0.5 0.5,-1 0.5,-1.6 v -0.6 c -0.2,-0.7 -0.6,-1.2 -1.2,-1.6 h -0.2 c -0.9,0.6 -1.4,1.4 -1.3,2.4 0,0.4 0.2,0.7 0.4,1.1 0,0.3 0.3,0.6 0.4,0.9 0.1,0.3 0.2,0.5 0.2,0.8 v 0.6 h -0.3 c 0,-0.3 0,-0.6 0,-0.9 0,-0.6 -0.5,-1 -1.2,-1.3 -0.2,0 -0.5,-0.2 -0.8,0 -0.7,0.2 -1.1,0.7 -1,1.3 0,0.4 0.3,0.7 0.7,0.9 h 0.3 v -0.2 c 0,-0.2 0,-0.5 0.4,-0.6 h 0.4 c 0.3,0 0.5,0.2 0.6,0.4 v 0.4 q 0,0.2 -0.3,0.2 c -0.2,0 -0.4,0.3 -0.4,0.4 0,0.2 0.2,0.3 0.5,0.3 h 1 c 0,0 0,0.3 -0.2,0.4 0,0 -0.2,0.2 -0.4,0.3 0,0 0,0 0,0.2 0,0.2 0.2,0.3 0.4,0.3 h 0.2 c 0,0.4 0,0.6 0.4,0.7 v 0 c 0,0 0.2,-0.2 0.3,-0.3 0,0 0,-0.3 0,-0.4 h 0.2 c 0.2,0 0.3,0 0.4,-0.3 v -0.3 c -0.2,0 -0.3,-0.3 -0.4,-0.5 v -0.2 h 1.1 c 0.2,0 0.4,-0.2 0.3,-0.4 0,-0.2 -0.2,-0.3 -0.4,-0.3 h -0.2 v -0.5 c 0,-0.2 0.2,-0.4 0.4,-0.4 H 16 c 0.3,0 0.5,0.2 0.6,0.4 v 0.2 c 0,0.2 0.2,0.3 0.4,0.2 0.5,-0.2 0.9,-0.8 0.7,-1.3 -0.2,-0.7 -1,-1.2 -2,-0.7 v 0 z"
     id="path30"
     style="fill:#a10e2f;fill-opacity:1" />
  <path
     class="st1"
     d="m 20.7,52.4 c -0.7,0.4 -0.9,0.9 -1,1.6 v 0.6 h -0.3 v -0.9 c 0,-0.4 0.2,-0.8 0.4,-1.2 0.3,-0.5 0.5,-1 0.5,-1.6 v -0.6 c -0.2,-0.7 -0.6,-1.2 -1.2,-1.6 h -0.2 c -0.9,0.6 -1.4,1.4 -1.3,2.4 0,0.4 0.2,0.7 0.4,1.1 0,0.3 0.3,0.6 0.4,0.9 0.1,0.3 0.2,0.5 0.2,0.8 v 0.6 h -0.3 c 0,-0.3 0,-0.6 0,-0.9 0,-0.6 -0.5,-1 -1.2,-1.3 -0.2,0 -0.5,-0.2 -0.8,0 -0.7,0.2 -1.1,0.7 -1,1.3 0,0.4 0.3,0.7 0.7,0.9 h 0.3 v -0.2 c 0,-0.2 0,-0.5 0.4,-0.6 h 0.4 c 0.3,0 0.5,0.2 0.6,0.4 v 0.4 q 0,0.2 -0.3,0.2 c -0.2,0 -0.4,0.3 -0.4,0.4 0,0.2 0.2,0.3 0.5,0.3 h 1 c 0,0 0,0.3 -0.2,0.4 0,0 -0.2,0.2 -0.4,0.3 0,0 0,0 0,0.2 0,0.2 0.2,0.3 0.4,0.3 h 0.2 c 0,0.4 0,0.6 0.4,0.7 v 0 c 0,0 0.2,-0.2 0.3,-0.3 0,0 0,-0.3 0,-0.4 h 0.2 c 0.2,0 0.3,0 0.4,-0.3 V 56 c -0.2,0 -0.3,-0.3 -0.4,-0.5 v -0.2 h 1.1 c 0.2,0 0.4,-0.2 0.3,-0.4 0,-0.2 -0.2,-0.3 -0.4,-0.3 h -0.2 v -0.5 c 0,-0.2 0.2,-0.4 0.4,-0.4 H 21 c 0.3,0 0.5,0.2 0.6,0.4 v 0.2 c 0,0.2 0.2,0.3 0.4,0.2 0.5,-0.2 0.9,-0.8 0.7,-1.3 -0.2,-0.7 -1,-1.2 -2,-0.7 v 0 z"
     id="path31"
     style="fill:#a10e2f;fill-opacity:1" />
  <path
     class="st0"
     d="m 53.7,51 c -0.4,0 -0.7,0.2 -1.1,0.3 -0.8,0.3 -0.7,0 -0.7,1 v 8.3 c 0,0.6 0,0.5 -0.5,0.5 h -1.6 c -1.3,0 -2.5,0.3 -3.7,0.9 -0.7,0.3 -1.1,0.3 -1.8,0 -1.2,-0.6 -2.5,-0.8 -3.8,-0.9 h -2 v -9.2 c 0,-0.3 0,-0.4 -0.4,-0.5 -0.5,0 -0.9,-0.3 -1.4,-0.4 0,0 -0.4,0 -0.4,0.2 v 11.2 c 0,0.2 0.3,0.2 0.4,0.2 h 1.5 c 2.1,0 4.2,0 6.1,1.2 0.8,0.4 1.5,0.3 2.2,0 1.2,-0.7 2.5,-0.9 3.8,-1 h 3.5 c 0.2,0 0.4,0 0.4,-0.3 v -11 c 0,-0.3 0,-0.4 -0.4,-0.3 v 0 z"
     id="path32" />
  <path
     class="st0"
     d="m 45.7,60.9 c 0,0.2 0,0.4 0.3,0.3 1.5,-0.6 3.1,-0.8 4.7,-0.8 1.6,0 0.4,0 0.4,-0.5 V 49.6 c 0,0 -0.3,-0.4 -0.6,-0.3 -1.6,0.5 -3.1,1.2 -4.6,1.8 -0.2,0 -0.3,0.2 -0.3,0.4 v 9.3 0 z"
     id="path33" />
  <path
     class="st1"
     d="M 31.5,42.2 V 70.4 H 59.2 V 42.2 Z m 14.5,9 c 1.5,-0.6 3,-1.3 4.6,-1.8 0.3,0 0.6,0 0.6,0.3 V 60 c 0,0.3 0,0.4 -0.4,0.5 -1.6,0 -3.2,0.2 -4.7,0.8 -0.3,0 -0.3,0 -0.3,-0.3 v -9.3 c 0,-0.2 0,-0.4 0.3,-0.4 v 0 z m -6.8,-1.6 c 0,0 0.3,-0.4 0.6,-0.3 1.6,0.5 3.1,1.2 4.6,1.8 0.2,0 0.3,0.2 0.3,0.4 v 9.3 c 0,0.2 0,0.4 -0.3,0.3 -1.5,-0.6 -3.1,-0.8 -4.7,-0.8 -1.6,0 -0.4,0 -0.4,-0.5 v -10.3 0 z m 14.5,13 h -3.5 c -1.3,0 -2.6,0.3 -3.8,1 -0.7,0.4 -1.4,0.6 -2.2,0 -1.9,-1.1 -4,-1.2 -6.1,-1.2 h -1.5 c 0,0 -0.3,0 -0.4,-0.2 V 51 c 0,-0.3 0.3,-0.2 0.4,-0.2 0.5,0 0.9,0.3 1.4,0.4 0.3,0 0.4,0.2 0.4,0.5 v 9.2 h 2 c 1.3,0 2.6,0.3 3.8,0.9 0.7,0.3 1.1,0.3 1.8,0 1.1,-0.6 2.4,-0.7 3.7,-0.9 h 1.6 q 0.5,0 0.5,-0.5 v -8.3 c 0,-0.9 0,-0.7 0.7,-1 0.4,0 0.7,-0.2 1.1,-0.3 0.3,0 0.4,0 0.4,0.3 v 11 c 0,0.3 -0.2,0.3 -0.4,0.3 v 0 z"
     id="path34"
     style="fill:#a10e2f;fill-opacity:1" />
  <path
     class="st1"
     d="m 31.5,74.2 v 33.3 l 0.8,-0.2 c 15.4,-3 26.8,-19.6 26.8,-32.5 V 74.1 H 31.4 v 0 z m 24.8,8.7 c -0.7,2 -1.5,4 -2.6,5.9 L 37.7,75.5 H 47 l 9.2,7.4 v 0 z M 32.9,96 l 8.4,6.2 c -2.6,1.6 -5.4,2.8 -8.4,3.5 v -9.8 0 z M 46,98.6 32.8,87.9 V 79.7 L 50.5,93.6 C 49.1,95.4 47.6,97 46,98.5 v 0 z"
     id="path35"
     style="fill:#a10e2f;fill-opacity:1" />
</svg>
