<?xml version="1.0" encoding="UTF-8" standalone="no"?>
<!-- Created with Inkscape (http://www.inkscape.org/) -->

<svg
   version="1.1"
   id="svg1"
   width="810.23999"
   height="418.51999"
   viewBox="0 0 810.23999 418.51999"
   sodipodi:docname="Neel_G.svg"
   inkscape:version="1.4.2 (1:1.4.2+202505120737+ebf0e940d0)"
   xmlns:inkscape="http://www.inkscape.org/namespaces/inkscape"
   xmlns:sodipodi="http://sodipodi.sourceforge.net/DTD/sodipodi-0.dtd"
   xmlns="http://www.w3.org/2000/svg"
   xmlns:svg="http://www.w3.org/2000/svg">
  <defs
     id="defs1" />
  <sodipodi:namedview
     id="namedview1"
     pagecolor="#ffffff"
     bordercolor="#000000"
     borderopacity="0.25"
     inkscape:showpageshadow="2"
     inkscape:pageopacity="0.0"
     inkscape:pagecheckerboard="0"
     inkscape:deskcolor="#d1d1d1"
     inkscape:zoom="1.086098"
     inkscape:cx="405.12"
     inkscape:cy="209.46545"
     inkscape:window-width="1033"
     inkscape:window-height="1011"
     inkscape:window-x="25"
     inkscape:window-y="32"
     inkscape:window-maximized="0"
     inkscape:current-layer="g1">
    <inkscape:page
       x="0"
       y="0"
       inkscape:label="1"
       id="page1"
       width="810.23999"
       height="418.51999"
       margin="0"
       bleed="0" />
  </sodipodi:namedview>
  <g
     id="g1"
     inkscape:groupmode="layer"
     inkscape:label="1">
    <g
       id="group-R5">
      <path
         id="path2"
         d="M 26.9219,61.7305 279.258,111.121 v 0 L 26.0898,62.6484 C 16.2813,59.3516 8.64844,47.7422 4.33203,34.3984 8.91016,47.332 16.8438,58.5313 26.9219,61.7305"
         style="fill:#4f4c4c;fill-opacity:1;fill-rule:nonzero;stroke:none"
         transform="matrix(0.13333333,0,0,-0.13333333,0,418.52)" />
      <path
         id="path3"
         d="m 10.7734,1.28125 c -10.191369,0 -10.191369,5.11719 -10.191369,10.27735 0,7.3516 1.347659,15.3516 3.749999,22.8398 C 1.54297,26.5508 0,18.0117 0,10.2813 0,5.16016 0,0 10.7734,0 101.09,4.83984 274.023,11 486.105,11.5586 698.266,11 773.418,4.83984 863.734,0 c 3.871,0 6.008,0.820313 7.633,1.87109 C 736.66,6.76953 697.543,11.5586 486.105,11.5586 286.746,11.5586 128.355,6.39844 10.7734,1.28125"
         style="fill:#4f4c4c;fill-opacity:1;fill-rule:nonzero;stroke:none"
         transform="matrix(0.13333333,0,0,-0.13333333,0,418.52)" />
      <path
         id="path4"
         d="m 3649,3027.05 c 288,103.17 218.71,52.27 312.4,-259.24 -156.1,343.15 -63.95,292 -312.4,259.24 z M 1666.32,2591.43 c 191.41,255.57 705.46,239.24 725.16,-962.19 -54.27,553.51 -254.98,1250.18 -725.16,962.19 z m 2361.56,66.82 c 1.64,3.15 -145.78,480.65 -145.78,480.65 0,0 -469.2,-164.89 -470.75,-168.05 -4.78,-9.36 -7.99,-31.34 -0.21,-39.2 l 132.78,-110.61 c 28.1,-22.16 32.74,-36.23 8.95,-75.39 -47.54,-78.18 -1109.2,-2717.6617 -1109.2,-1173.57 0,598.15 -104.09,1217.12 -585.94,1217.12 -271.72,0 -567.23,-295.22 -1053.25,-1467.02 C 664.527,984.73 375.102,208.621 360.273,174.992 345.449,141.41 322.672,123.5 290.383,113.219 L 279.258,111.121 26.9219,61.7305 C 16.8438,58.5313 8.91016,47.332 4.33203,34.3984 1.92969,26.9102 0.582031,18.9102 0.582031,11.5586 c 0,-5.16016 0,-10.27735 10.191369,-10.27735 C 128.355,6.39844 286.746,11.5586 486.105,11.5586 c 211.438,0 250.555,-4.78907 385.262,-9.68751 5.289,-0.17968 10.906,-0.41015 16.137,-0.58984 10.199,0 15.309,5.11719 15.309,10.27735 0,15.3008 -10.2,45.9727 -25.508,45.9727 L 601.262,113.719 c -35.789,10.23 -51.106,20.429 -51.106,61.41 0,127.801 185.379,652 305.348,919.871 257.736,575.49 710.506,1472.02 964.196,1472.02 279.64,0 240.62,-616.63 240.62,-1219.76 0,-2696.45 1678.5,1245.15 1718.02,1307.7 17.46,18.73 33.12,26.49 64.47,18.46 l 153.64,-38.47 c 10.96,-1.7 25.12,10.78 31.43,23.3"
         style="fill:#4f4c4c;fill-opacity:1;fill-rule:nonzero;stroke:none"
         transform="matrix(0.13333333,0,0,-0.13333333,0,418.52)" />
      <path
         id="path5"
         d="m 4200.45,2471.9 c 125.32,118.2 166.03,199.99 166.94,235.99 35.5,-109.14 -42.71,-148.57 -166.94,-235.99 z m 245.03,263.57 c -8.55,12.84 -21.39,21.39 -29.97,21.39 h -4.25 c -25.72,0 -48.12,-13.75 -59.95,-38.5 -58.75,-123.15 -123.18,-208.82 -320.97,-338.1 -20.24,-13.23 -29.95,-29.95 -21.38,-42.79 8.59,-8.56 25.72,0 51.35,12.84 117.93,64.83 298.64,120.94 376.86,233.13 31.2,44.69 33.98,109.22 8.31,152.03"
         style="fill:#4f4c4c;fill-opacity:1;fill-rule:nonzero;stroke:none"
         transform="matrix(0.13333333,0,0,-0.13333333,0,418.52)" />
      <path
         id="path6"
         d="m 3983.45,2087.7 c 0,0 -48.67,3.9 -73.72,-13.15 -25.06,-17.05 -43.88,-66.88 -43.88,-66.88 l -129.06,-282.42 c 0,0 -10.54,-23.9 -6.18,-31.78 4.35,-7.89 28.27,-8.27 28.27,-8.27 h 395.86 c 0,0 56.66,-17.75 21.61,-93.63 -35.05,-75.88 -98.88,-73.89 -98.88,-73.89 h -395.21 c 0,0 -25.9,-0.15 -36.32,-7.27 -10.43,-7.12 -22.32,-32.78 -22.32,-32.78 l -183.43,-401.42 c 0,0 -25.6,-52.55 -17.59,-67.25 8.01,-14.69 61.36,-13.108 61.36,-13.108 0,0 335.03,0 496.28,0 161.25,0 80.95,-178.383 -82.53,-178.383 -163.47,0 -575.76,0 -575.76,0 0,0 -187.14,-9.489 -101.63,178.383 85.51,187.868 419.44,921.488 496.98,1091.848 77.54,170.36 149.67,178.38 266.64,178.38 116.95,0 438.73,0 485.91,0 180.93,0 94.62,-178.38 -82.35,-178.38 -176.97,0 -404.05,0 -404.05,0"
         style="fill:#4f4c4c;fill-opacity:1;fill-rule:nonzero;stroke:none"
         transform="matrix(0.13333333,0,0,-0.13333333,0,418.52)" />
      <path
         id="path7"
         d="m 5011.16,2087.7 c 0,0 -48.63,3.9 -73.86,-13.15 -25.22,-17.05 -44.54,-66.88 -44.54,-66.88 l -131.89,-282.42 c 0,0 -10.77,-23.9 -6.49,-31.78 4.26,-7.89 28.18,-8.27 28.18,-8.27 h 395.86 c 0,0 56.48,-17.75 20.67,-93.63 -35.8,-75.88 -99.61,-73.89 -99.61,-73.89 h -395.21 c 0,0 -25.91,-0.15 -36.4,-7.27 -10.5,-7.12 -22.64,-32.78 -22.64,-32.78 l -187.45,-401.42 c 0,0 -26.13,-52.55 -18.26,-67.25 7.85,-14.69 61.23,-13.108 61.23,-13.108 0,0 335.03,0 496.28,0 161.25,0 79.16,-178.383 -84.32,-178.383 -163.47,0 -575.76,0 -575.76,0 0,0 -187.23,-9.489 -99.84,178.383 87.39,187.868 428.66,921.488 507.91,1091.848 79.25,170.36 151.45,178.38 268.41,178.38 116.96,0 438.74,0 485.93,0 180.92,0 92.83,-178.38 -84.15,-178.38 -176.97,0 -404.05,0 -404.05,0"
         style="fill:#4f4c4c;fill-opacity:1;fill-rule:nonzero;stroke:none"
         transform="matrix(0.13333333,0,0,-0.13333333,0,418.52)" />
      <path
         id="path8"
         d="m 5328.31,817.469 c -104.16,0 -157.55,53.281 -98.12,178.383 98.51,207.418 570.51,1201.208 570.51,1201.208 0,0 33.73,67.67 119.59,69.02 105.46,1.35 65.72,-69.02 65.72,-69.02 0,0 -387.7,-813.18 -478.47,-1003.58 -90.76,-190.37 -54.41,-197.628 88.94,-197.628 143.36,0 300.49,0 423.26,0 115.64,0 39.53,-178.383 -86.12,-178.383 -125.64,0 -501.17,0 -605.31,0"
         style="fill:#4f4c4c;fill-opacity:1;fill-rule:nonzero;stroke:none"
         transform="matrix(0.13333333,0,0,-0.13333333,0,418.52)" />
      <path
         id="path9"
         d="m 3198.66,472.559 c 14.59,0 27.03,-3.309 37.31,-9.911 10.27,-6.609 15.42,-14.507 15.42,-23.699 0,-9.39 -5.15,-17.39 -15.42,-23.988 -10.28,-6.602 -22.72,-9.902 -37.31,-9.902 -14.29,0 -26.59,3.3 -36.86,9.902 -10.28,6.598 -15.41,14.598 -15.41,23.988 0,9.383 5.06,17.332 15.18,23.84 10.13,6.512 22.49,9.77 37.09,9.77 z M 3152.01,47.5586 V 310.059 h -65.62 v 46.25 h 150.62 V 47.5586 h -85"
         style="fill:#4f4c4c;fill-opacity:1;fill-rule:nonzero;stroke:none"
         transform="matrix(0.13333333,0,0,-0.13333333,0,418.52)" />
      <path
         id="path10"
         d="M 3665.91,47.5586 V 226.98 c 0,32.829 -7.66,55.821 -22.99,68.981 -15.33,13.141 -41,19.719 -77.01,19.719 -19.34,0 -39.57,-3.75 -60.7,-11.231 -21.14,-7.488 -37.37,-16.707 -48.68,-27.64 V 47.5586 h -85 V 356.309 h 58.09 l 26.82,-39.758 c 28,30.258 73.73,45.379 137.18,45.379 104.87,0 157.29,-41.11 157.29,-123.328 V 47.5586 h -85"
         style="fill:#4f4c4c;fill-opacity:1;fill-rule:nonzero;stroke:none"
         transform="matrix(0.13333333,0,0,-0.13333333,0,418.52)" />
      <path
         id="path11"
         d="m 3839.95,66.1914 29.88,51.9886 c 47.27,-20.0003 85.32,-30.0003 114.14,-30.0003 52.33,0 78.48,14.1913 78.48,42.5703 0,20.32 -25.27,37.77 -75.8,52.34 -38.94,11.519 -65.18,20.25 -78.69,26.211 -13.54,5.949 -25.27,12.719 -35.24,20.301 -9.96,7.578 -17.38,15.64 -22.28,24.187 -4.9,8.543 -7.36,17.711 -7.36,27.512 0,25.34 14.27,45.109 42.81,59.32 28.53,14.199 65.84,21.309 111.91,21.309 34.77,0 78.62,-7.098 131.53,-21.282 l -24.05,-50.589 c -33.55,17.082 -67.26,25.621 -101.11,25.621 -20.2,0 -37.19,-3.071 -51,-9.211 -13.8,-6.129 -20.72,-13.887 -20.72,-23.289 0,-19.739 17.38,-34.7 52.17,-44.86 l 60.64,-17.832 c 37.15,-10.949 64.2,-23.429 81.16,-37.437 16.93,-14.031 25.41,-31.59 25.41,-52.699 0,-27.661 -15.02,-49.3129 -45.06,-64.9536 -30.04,-15.6484 -71.68,-23.4687 -124.92,-23.4687 -50.28,0 -97.58,8.0898 -141.9,24.2617"
         style="fill:#4f4c4c;fill-opacity:1;fill-rule:nonzero;stroke:none"
         transform="matrix(0.13333333,0,0,-0.13333333,0,418.52)" />
      <path
         id="path12"
         d="m 4272,313.18 h -55.62 v 43.129 H 4272 v 64.582 l 85,21.039 v -85.621 h 131.25 V 313.18 H 4357 V 159.922 c 0,-25.942 6.78,-44.371 20.31,-55.32 13.54,-10.9536 35.36,-16.4223 65.41,-16.4223 21.72,0 44.18,3.5391 67.41,10.6289 l 12.5,-48.2188 c -35.14,-5.7695 -73.71,-8.6601 -115.71,-8.6601 -37.83,0 -69.76,9.0703 -95.82,27.2422 C 4285.03,87.332 4272,110.242 4272,137.922 V 313.18"
         style="fill:#4f4c4c;fill-opacity:1;fill-rule:nonzero;stroke:none"
         transform="matrix(0.13333333,0,0,-0.13333333,0,418.52)" />
      <path
         id="path13"
         d="m 4691.87,472.559 c 14.59,0 27.03,-3.309 37.3,-9.911 10.27,-6.609 15.43,-14.507 15.43,-23.699 0,-9.39 -5.16,-17.39 -15.43,-23.988 -10.27,-6.602 -22.71,-9.902 -37.3,-9.902 -14.3,0 -26.59,3.3 -36.86,9.902 -10.27,6.598 -15.41,14.598 -15.41,23.988 0,9.383 5.06,17.332 15.18,23.84 10.13,6.512 22.5,9.77 37.09,9.77 z M 4645.22,47.5586 V 310.059 h -65.62 v 46.25 h 150.62 V 47.5586 h -85"
         style="fill:#4f4c4c;fill-opacity:1;fill-rule:nonzero;stroke:none"
         transform="matrix(0.13333333,0,0,-0.13333333,0,418.52)" />
      <path
         id="path14"
         d="m 4895.36,313.18 h -55.62 v 43.129 h 55.62 v 64.582 l 85,21.039 v -85.621 h 131.25 V 313.18 H 4980.36 V 159.922 c 0,-25.942 6.78,-44.371 20.31,-55.32 13.54,-10.9536 35.36,-16.4223 65.41,-16.4223 21.72,0 44.18,3.5391 67.41,10.6289 l 12.5,-48.2188 c -35.14,-5.7695 -73.71,-8.6601 -115.71,-8.6601 -37.83,0 -69.76,9.0703 -95.82,27.2422 -26.07,18.1601 -39.1,41.0701 -39.1,68.7501 V 313.18"
         style="fill:#4f4c4c;fill-opacity:1;fill-rule:nonzero;stroke:none"
         transform="matrix(0.13333333,0,0,-0.13333333,0,418.52)" />
      <path
         id="path15"
         d="m 5307.96,356.309 v -196.7 c 0,-47.621 31.99,-71.4293 95.98,-71.4293 27.96,0 53.57,5.1797 76.77,15.5503 23.23,10.372 38.56,22.372 46,36 v 216.579 h 85 V 47.5586 h -85 v 42.6328 c -9.53,-12.1016 -28.67,-23.1601 -57.4,-33.2031 -28.75,-10.0391 -56.82,-15.0586 -84.2,-15.0586 -52.42,0 -92.54,9.6992 -120.39,29.1016 -27.85,19.3984 -41.76,46.9687 -41.76,82.7107 v 202.567 h 85"
         style="fill:#4f4c4c;fill-opacity:1;fill-rule:nonzero;stroke:none"
         transform="matrix(0.13333333,0,0,-0.13333333,0,418.52)" />
      <path
         id="path16"
         d="M 5757.63,313.18 H 5702 v 43.129 h 55.63 v 64.582 l 85,21.039 v -85.621 h 131.25 V 313.18 H 5842.63 V 159.922 c 0,-25.942 6.75,-44.371 20.31,-55.32 13.53,-10.9536 35.33,-16.4223 65.39,-16.4223 21.72,0 44.2,3.5391 67.42,10.6289 l 12.5,-48.2188 c -35.15,-5.7695 -73.71,-8.6601 -115.7,-8.6601 -37.83,0 -69.79,9.0703 -95.84,27.2422 -26.06,18.1601 -39.08,41.0701 -39.08,68.7501 V 313.18"
         style="fill:#4f4c4c;fill-opacity:1;fill-rule:nonzero;stroke:none"
         transform="matrix(0.13333333,0,0,-0.13333333,0,418.52)" />
    </g>
  </g>
</svg>
