<?xml version="1.0" encoding="UTF-8" standalone="no"?>
<!-- Created with Inkscape (http://www.inkscape.org/) -->

<svg
   version="1.1"
   id="svg1"
   width="418.57599"
   height="303.42532"
   viewBox="0 0 418.57599 303.42532"
   sodipodi:docname="2DEG_sample.pdf"
   xmlns:inkscape="http://www.inkscape.org/namespaces/inkscape"
   xmlns:sodipodi="http://sodipodi.sourceforge.net/DTD/sodipodi-0.dtd"
   xmlns="http://www.w3.org/2000/svg"
   xmlns:svg="http://www.w3.org/2000/svg">
  <defs
     id="defs1" />
  <sodipodi:namedview
     id="namedview1"
     pagecolor="#ffffff"
     bordercolor="#000000"
     borderopacity="0.25"
     inkscape:showpageshadow="2"
     inkscape:pageopacity="0.0"
     inkscape:pagecheckerboard="0"
     inkscape:deskcolor="#d1d1d1">
    <inkscape:page
       x="0"
       y="0"
       inkscape:label="1"
       id="page1"
       width="418.57599"
       height="303.42532"
       margin="0"
       bleed="0" />
  </sodipodi:namedview>
  <g
     id="g1"
     inkscape:groupmode="layer"
     inkscape:label="1">
    <path
       id="path1"
       d="M -85.04042,0 V 220.59755"
       style="fill:none;stroke:#000000;stroke-width:0.79701;stroke-linecap:butt;stroke-linejoin:miter;stroke-miterlimit:10;stroke-dasharray:none;stroke-opacity:1"
       transform="matrix(1.3333333,0,0,-1.3333333,149.28267,302.89333)" />
    <path
       id="path2"
       d="M 4.53381,0 C 3.97704,0.13808 1.52963,0.92049 0,1.77196 V -1.77196 C 1.52963,-0.92049 3.97704,-0.13808 4.53381,0 Z"
       style="fill:#000000;fill-opacity:1;fill-rule:nonzero;stroke:#000000;stroke-width:0.79701;stroke-linecap:butt;stroke-linejoin:miter;stroke-miterlimit:10;stroke-dasharray:none;stroke-opacity:1"
       transform="matrix(0,-1.3333333,-1.3333333,0,35.89544,8.7632667)" />
    <path
       id="path3"
       d="m 2.6255391,-1.6745859 c 0.890625,-1.0078125 1.6054687,-1.6523438 2.6484375,-2.578125 1.2304687,-1.078125 1.7695312,-1.59375 2.0625,-1.8984375 1.4414062,-1.4296875 2.1679687,-2.625 2.1679687,-2.7890625 0,-0.1640625 -0.1640625,-0.1640625 -0.2109375,-0.1640625 -0.140625,0 -0.1875,0.082031 -0.28125,0.2226562 -0.515625,0.890625 -1.0195312,1.3242188 -1.5585937,1.3242188 -0.4335938,0 -0.65625,-0.1875 -1.0429688,-0.6796875 -0.4335937,-0.5273438 -0.7851562,-0.8671875 -1.3945312,-0.8671875 -1.5,0 -2.4140625,1.875 -2.4140625,2.3085937 0,0.058594 0.023437,0.1875 0.2109375,0.1875 0.1640625,0 0.1875,-0.082031 0.2460937,-0.234375 0.3515625,-0.8203125 1.3476563,-0.9609375 1.734375,-0.9609375 0.4335938,0 0.84375,0.140625 1.2773438,0.328125 0.7851562,0.328125 1.125,0.328125 1.3242187,0.328125 0.140625,0 0.234375,0 0.328125,-0.023437 -0.6796875,0.8085938 -1.7929687,1.8046875 -2.71875,2.6484375 l -2.0859375,1.921875 c -1.265625,1.2773438 -2.02734374,2.49609376 -2.02734374,2.64843751 0,0.1171875 0.10546875,0.1640625 0.22265624,0.1640625 0.1289063,0 0.1523438,-0.0234375 0.2929688,-0.26953125 0.328125,-0.515625 0.9960937,-1.28906246 1.7578125,-1.28906246 0.4335937,0 0.6328125,0.1523437 1.0546875,0.66796871 0.3867187,0.45703125 0.7382812,0.890625 1.40625,0.890625 2.015625,0 3.1757812,-2.62500001 3.1757812,-3.10546871 0,-0.082031 -0.023437,-0.1992188 -0.2226562,-0.1992188 -0.1640625,0 -0.1875,0.082031 -0.2578125,0.28125 -0.4453125,1.21875 -1.6640625,1.7226563 -2.4726563,1.7226563 -0.4335937,0 -0.84375,-0.1523438 -1.2773437,-0.3398438 -0.8320313,-0.328125 -1.0546875,-0.328125 -1.3242188,-0.328125 -0.2109375,0 -0.4335937,0 -0.6210937,0.082031 z m 0,0"
       style="fill:#000000;fill-opacity:1;fill-rule:nonzero;stroke:none"
       aria-label="z"
       transform="matrix(0,-1.3333333,1.3333333,0,24.432,256.864)" />
    <text
       id="text3"
       xml:space="preserve"
       transform="matrix(0,-1.3333333,1.3333333,0,24.432,243.104)"><tspan
         id="tspan3"
         style="font-variant:normal;font-weight:normal;font-size:20.6625px;font-family:'Latin Modern Roman';writing-mode:lr-tb;fill:#000000;fill-opacity:1;fill-rule:nonzero;stroke:none"
         x="0"
         dx="0 6.2400808 0 0 -0.53722554 0 0 6.2400808"
         y="0">,growthdirection</tspan></text>
    <path
       id="path4"
       d="M -56.69362,0 V 113.38724 H 113.38724 V 0 Z"
       style="fill:#8996c6;fill-opacity:1;fill-rule:nonzero;stroke:#000000;stroke-width:0.79701;stroke-linecap:butt;stroke-linejoin:miter;stroke-miterlimit:10;stroke-dasharray:none;stroke-opacity:1"
       transform="matrix(1.3333333,0,0,-1.3333333,149.28267,302.89333)" />
    <text
       id="text4"
       xml:space="preserve"
       transform="matrix(1.3333333,0,0,1.3333333,156.26267,252.62533)"><tspan
         id="tspan4"
         style="font-variant:normal;font-weight:normal;font-size:20.6625px;font-family:'Latin Modern Roman';writing-mode:lr-tb;fill:#000000;fill-opacity:1;fill-rule:nonzero;stroke:none"
         x="0"
         y="0">GaAs</tspan></text>
    <path
       id="path5"
       d="m -56.69362,113.38724 v 56.69362 h 170.08086 v -56.69362 z"
       style="fill:#d9d9d9;fill-opacity:1;fill-rule:nonzero;stroke:#000000;stroke-width:0.79701;stroke-linecap:butt;stroke-linejoin:miter;stroke-miterlimit:10;stroke-dasharray:none;stroke-opacity:1"
       transform="matrix(1.3333333,0,0,-1.3333333,149.28267,302.89333)" />
    <text
       id="text5"
       xml:space="preserve"
       transform="matrix(1.3333333,0,0,1.3333333,143.27333,123.436)"><tspan
         id="tspan5"
         style="font-variant:normal;font-weight:normal;font-size:20.6625px;font-family:'Latin Modern Roman';writing-mode:lr-tb;fill:#000000;fill-opacity:1;fill-rule:nonzero;stroke:none"
         x="0"
         y="0">AlGaAs</tspan></text>
    <path
       id="path6"
       d="m 117.97008,116.93057 h 23.76396"
       style="fill:none;stroke:#000000;stroke-width:0.3985;stroke-linecap:butt;stroke-linejoin:miter;stroke-miterlimit:10;stroke-dasharray:none;stroke-opacity:0"
       transform="matrix(1.3333333,0,0,-1.3333333,149.28267,302.89333)" />
    <path
       id="path7"
       d="M 3.7613,0 C 3.2994,0.1127 1.26901,0.75136 0,1.44638 V -1.44638 C 1.26901,-0.75136 3.2994,-0.1127 3.7613,0 Z"
       style="fill:#000000;fill-opacity:0;fill-rule:nonzero;stroke:#000000;stroke-width:0.3985;stroke-linecap:butt;stroke-linejoin:miter;stroke-miterlimit:10;stroke-dasharray:none;stroke-opacity:0"
       transform="matrix(-1.3333333,0,0,1.3333333,306.57611,146.98591)" />
    <text
       id="text7"
       xml:space="preserve"
       transform="matrix(1.3333333,0,0,1.3333333,343.83733,156.39733)"><tspan
         id="tspan7"
         style="font-variant:normal;font-weight:normal;font-size:20.6625px;font-family:'Latin Modern Roman';writing-mode:lr-tb;fill:#000000;fill-opacity:0;fill-rule:nonzero;stroke:none"
         x="0"
         y="0">2DEG</tspan></text>
    <path
       id="path8"
       d="m -56.69362,170.08086 v 56.69362 h 170.08086 v -56.69362 z"
       style="fill:#bfbfbf;fill-opacity:1;fill-rule:nonzero;stroke:#000000;stroke-width:0.79701;stroke-linecap:butt;stroke-linejoin:miter;stroke-miterlimit:10;stroke-dasharray:none;stroke-opacity:1"
       transform="matrix(1.3333333,0,0,-1.3333333,149.28267,302.89333)" />
    <path
       id="path9"
       d="m 4.2540859,-6.0580234 c 0.046875,-0.1171875 0.5625,-1.1484375 1.3242188,-1.8164063 0.5390625,-0.4921875 1.2421875,-0.8203125 2.0507812,-0.8203125 0.8203125,0 1.1132813,0.6210938 1.1132813,1.4414063 0,1.1835937 -0.8554688,3.5390625 -1.265625,4.6523437 -0.1875,0.4921875 -0.28125,0.7617188 -0.28125,1.1367188 0,0.92578121 0.6328125,1.67578121 1.6289062,1.67578121 1.9218746,0 2.6367186,-3.04687501 2.6367186,-3.16406251 0,-0.1054687 -0.08203,-0.1875 -0.199219,-0.1875 -0.1875,0 -0.210937,0.058594 -0.316406,0.4101563 -0.46875,1.6992187 -1.2539061,2.51953121 -2.0624998,2.51953121 -0.2109375,0 -0.5390625,-0.0117188 -0.5390625,-0.6796875 0,-0.51562501 0.234375,-1.13671871 0.3515625,-1.41796871 0.4101562,-1.1367188 1.2890625,-3.4570313 1.2890625,-4.6289063 0,-1.2421875 -0.7265625,-2.1679687 -2.296875,-2.1679687 -1.8398438,0 -2.8125,1.3007812 -3.1875,1.8164062 -0.058594,-1.1835937 -0.9023438,-1.8164062 -1.8164063,-1.8164062 -0.65625,0 -1.1132812,0.3867187 -1.4648437,1.0898437 -0.37500001,0.7382813 -0.65625001,1.9804688 -0.65625001,2.0625 0,0.082031 0.0820313,0.1875 0.22265625,0.1875 0.1640625,0 0.1875,-0.023437 0.30468746,-0.4921875 0.3398438,-1.265625 0.703125,-2.4375 1.5351563,-2.4375 0.46875,0 0.6445312,0.328125 0.6445312,0.9492188 0,0.4570312 -0.2109375,1.2539062 -0.3515625,1.8984375 l -0.5859375,2.2265625 c -0.082031,0.3984375 -0.3046875,1.3242187 -0.4101562,1.6992187 -0.140625,0.5390625 -0.375,1.51171876 -0.375,1.61718751 0,0.28125 0.234375,0.515625 0.5390625,0.515625 0.2460937,0 0.5390625,-0.12890625 0.703125,-0.43359375 0.046875,-0.10546875 0.2226562,-0.83203126 0.328125,-1.24218746 l 0.4570312,-1.8632813 z m 0,0"
       style="fill:#000000;fill-opacity:1;fill-rule:nonzero;stroke:none"
       aria-label="n"
       transform="matrix(1.3333333,0,0,1.3333333,118.37867,46.745333)" />
    <path
       id="path10"
       d="m 13.618289,-4.7455234 c 0.351563,0 0.726563,0 0.726563,-0.421875 0,-0.4101563 -0.375,-0.4101563 -0.726563,-0.4101563 H 2.4386016 c -0.3515625,0 -0.7265625,0 -0.7265625,0.4101563 0,0.421875 0.375,0.421875 0.7265625,0.421875 z m 0,0"
       style="fill:#000000;fill-opacity:1;fill-rule:nonzero;stroke:none"
       aria-label="−"
       transform="matrix(1.3333333,0,0,1.3333333,140.604,46.745333)" />
    <path
       id="path11"
       d="m 7.4992578,-14.272867 c -0.1054687,-0.269531 -0.140625,-0.328125 -0.3515625,-0.328125 -0.2109375,0 -0.2460937,0.05859 -0.3515625,0.328125 L 2.4133203,-1.8744297 c -0.3867187,1.11328126 -1.21875,1.33593751 -1.93359374,1.33593751 V 5.703125e-4 C 0.84300781,-0.04630469 1.6750391,-0.04630469 2.0617578,-0.04630469 c 0.515625,0 1.3476563,0 1.8398438,0.0468750025 V -0.53849219 C 2.9289453,-0.57364844 2.7883203,-1.2416172 2.7883203,-1.4877109 c 0,-0.1875 0.046875,-0.2929688 0.082031,-0.4101563 L 3.960195,-4.9798984 h 5.4140625 l 1.2421875,3.515625 c 0.105469,0.2460937 0.105469,0.2929687 0.105469,0.375 0,0.55078121 -0.8906252,0.55078121 -1.277344,0.55078121 V 5.703125e-4 C 10.042227,-0.04630469 11.108633,-0.04630469 11.753164,-0.04630469 c 0.539063,0 1.570313,0 2.0625,0.0468750025 V -0.53849219 c -1.089844,0 -1.464844,0 -1.734375,-0.76171871 z m -0.8320312,1.652344 2.53125,7.1015621 H 4.1476953 Z m 10.8222654,-1.722657 -2.460937,0.234375 v 0.539063 c 1.21875,0 1.40625,0.117187 1.40625,1.113281 v 11.0273438 c 0,0.78515626 -0.08203,0.89062501 -1.40625,0.89062501 V 5.703125e-4 C 15.520742,-0.04630469 16.434805,-0.04630469 16.95043,-0.04630469 c 0.539062,0 1.441406,0 1.945312,0.0468750025 V -0.53849219 c -1.324219,0 -1.40625,-0.0820313 -1.40625,-0.89062501 z m 14.824219,10.2304691 c 0,-0.7851563 0.05859,-0.890625 1.335937,-0.890625 v -0.5273438 c -0.492187,0.035156 -1.605468,0.035156 -2.167968,0.035156 -0.574219,0 -2.191407,-0.023437 -2.976563,-0.035156 v 0.5273438 h 0.621094 c 1.78125,0 1.816406,0.234375 1.816406,0.9726562 v 1.3710938 c 0,2.27343746 -2.683594,2.44921871 -3.316406,2.44921871 -2.132813,0 -5.625,-1.46484371 -5.625,-6.85546871 0,-5.3906251 3.433594,-6.8320311 5.4375,-6.8320311 2.332031,0 4.03125,2.015625 4.417969,4.8867186 0.04687,0.2460937 0.04687,0.2929687 0.222656,0.2929687 0.234375,0 0.234375,-0.046875 0.234375,-0.4101562 v -4.8984371 c 0,-0.375 -0.02344,-0.398438 -0.152344,-0.398438 -0.08203,0 -0.09375,0.02344 -0.246094,0.269531 l -0.902343,1.734375 c -1.019532,-1.277343 -2.25,-2.015625 -3.84375,-2.015625 -3.539063,0 -6.738282,3.117188 -6.738282,7.3710941 0,4.2304687 3.140625,7.39453121 6.773438,7.39453121 1.675781,0 3.304687,-0.59765625 3.949219,-1.76953121 0.351562,0.84374996 0.925781,1.41796871 1.03125,1.41796871 0.105468,0 0.128906,-0.0234375 0.128906,-0.38671875 z m 9.618164,-1.2421875 c 0,-1.359375 0,-2.0859375 -0.867187,-2.8828125 -0.773438,-0.6914063 -1.652344,-0.890625 -2.355469,-0.890625 -1.640625,0 -2.8125,1.2773437 -2.8125,2.6367187 0,0.7734375 0.621094,0.8085938 0.738281,0.8085938 0.269531,0 0.75,-0.1640625 0.75,-0.7382813 0,-0.515625 -0.398437,-0.75 -0.75,-0.75 -0.08203,0 -0.1875,0.023437 -0.246094,0.046875 0.433594,-1.3007812 1.546875,-1.6757812 2.273438,-1.6757812 1.03125,0 2.167969,0.9140625 2.167969,2.6484375 v 0.9023437 c -1.21875,0.046875 -2.683594,0.2109375 -3.84375,0.8320313 -1.300782,0.7148437 -1.664063,1.7578125 -1.664063,2.5429687 0,1.58203126 1.851563,2.03906251 2.953125,2.03906251 1.136719,0 2.191406,-0.64453125 2.636719,-1.81640621 0.04687,0.91406246 0.621094,1.73437496 1.535156,1.73437496 0.433594,0 1.523438,-0.29296875 1.523438,-1.92187496 v -1.1601563 h -0.375 v 1.1835938 c 0,1.25390621 -0.550782,1.42968746 -0.820313,1.42968746 -0.84375,0 -0.84375,-1.07812496 -0.84375,-1.99218746 z m -1.101562,2.484375 c 0,1.7929687 -1.277344,2.70703121 -2.414063,2.70703121 -1.03125,0 -1.839844,-0.76171875 -1.839844,-1.71093751 0,-0.6210937 0.269532,-1.7226562 1.464844,-2.3789062 0.996094,-0.5625 2.132813,-0.6445313 2.789063,-0.6796875 z M 51.465078,-14.272867 c -0.105469,-0.269531 -0.140625,-0.328125 -0.351562,-0.328125 -0.210938,0 -0.246094,0.05859 -0.351563,0.328125 l -4.382812,12.3984373 c -0.386719,1.11328126 -1.21875,1.33593751 -1.933594,1.33593751 V 5.703125e-4 C 44.808828,-0.04630469 45.640859,-0.04630469 46.027578,-0.04630469 c 0.515625,0 1.347656,0 1.839844,0.0468750025 V -0.53849219 c -0.972656,-0.0351563 -1.113281,-0.70312501 -1.113281,-0.94921871 0,-0.1875 0.04687,-0.2929688 0.08203,-0.4101563 l 1.089844,-3.0820312 h 5.414062 l 1.242188,3.515625 c 0.105468,0.2460937 0.105468,0.2929687 0.105468,0.375 0,0.55078121 -0.890625,0.55078121 -1.277343,0.55078121 V 5.703125e-4 C 54.008047,-0.04630469 55.074453,-0.04630469 55.718984,-0.04630469 c 0.539063,0 1.570313,0 2.0625,0.0468750025 V -0.53849219 c -1.089843,0 -1.464843,0 -1.734375,-0.76171871 z m -0.832031,1.652344 2.53125,7.1015621 h -5.050781 z m 14.044922,3.9023433 c 0,-0.375 -0.02344,-0.3867187 -0.152344,-0.3867187 -0.08203,0 -0.09375,0.011719 -0.351562,0.328125 -0.05859,0.082031 -0.246094,0.28125 -0.304688,0.3632812 -0.65625,-0.6914062 -1.59375,-0.7148437 -1.945312,-0.7148437 -2.285157,0 -3.117188,1.1953125 -3.117188,2.390625 0,1.8632812 2.109375,2.296875 2.707031,2.4257812 1.300782,0.2578125 1.757813,0.3515625 2.191407,0.7148438 0.269531,0.2460937 0.726562,0.703125 0.726562,1.453125 0,0.8671875 -0.503906,1.98046871 -2.402344,1.98046871 -1.792968,0 -2.4375,-1.35937501 -2.8125,-3.18750001 -0.05859,-0.28125 -0.05859,-0.3046875 -0.222656,-0.3046875 -0.164062,0 -0.1875,0.023437 -0.1875,0.4335938 v 2.97656246 c 0,0.375 0.02344,0.38671875 0.140625,0.38671875 0.105469,0 0.128906,-0.0117188 0.234375,-0.1875 0.117188,-0.17578125 0.433594,-0.6796875 0.550781,-0.87890625 0.421875,0.55078125 1.136719,1.08984375 2.296875,1.08984375 2.050782,0 3.140625,-1.11328125 3.140625,-2.73046871 0,-1.0546875 -0.5625,-1.6054688 -0.820312,-1.8515625 -0.621094,-0.6445313 -1.347656,-0.7851563 -2.214844,-0.9492188 -1.136719,-0.2578125 -2.578125,-0.5390625 -2.578125,-1.8046875 0,-0.5390625 0.28125,-1.6757812 2.367188,-1.6757812 2.214843,0 2.34375,2.0742187 2.378906,2.7304687 0.02344,0.1054688 0.128906,0.1289063 0.1875,0.1289063 0.1875,0 0.1875,-0.070312 0.1875,-0.421875 z m 0,0"
       style="fill:#000000;fill-opacity:1;fill-rule:nonzero;stroke:none"
       aria-label="AlGaAs"
       transform="matrix(1.3333333,0,0,1.3333333,168.15333,46.745333)" />
  </g>
</svg>
