<?xml version="1.0" encoding="UTF-8" standalone="no"?>
<!-- Created with Inkscape (http://www.inkscape.org/) -->

<svg
   version="1.1"
   id="svg1"
   width="155.03867"
   height="141.76666"
   viewBox="0 0 155.03867 141.76666"
   sodipodi:docname="thermal.pdf"
   xmlns:inkscape="http://www.inkscape.org/namespaces/inkscape"
   xmlns:sodipodi="http://sodipodi.sourceforge.net/DTD/sodipodi-0.dtd"
   xmlns="http://www.w3.org/2000/svg"
   xmlns:svg="http://www.w3.org/2000/svg">
  <defs
     id="defs1" />
  <sodipodi:namedview
     id="namedview1"
     pagecolor="#ffffff"
     bordercolor="#000000"
     borderopacity="0.25"
     inkscape:showpageshadow="2"
     inkscape:pageopacity="0.0"
     inkscape:pagecheckerboard="0"
     inkscape:deskcolor="#d1d1d1">
    <inkscape:page
       x="0"
       y="0"
       inkscape:label="1"
       id="page1"
       width="155.03867"
       height="141.76666"
       margin="0"
       bleed="0" />
  </sodipodi:namedview>
  <g
     id="g1"
     inkscape:groupmode="layer"
     inkscape:label="1">
    <path
       id="path1"
       d="m 0,0 v 13.46465 m 0,29.76431 v 13.46466 h 9.2978 m 38.098,0 h 9.29782 3.75604 m 20.8347,0 h 3.75606 7.08668 m 0,0 h 7.08672"
       style="fill:none;stroke:#000000;stroke-width:0.3985;stroke-linecap:butt;stroke-linejoin:miter;stroke-miterlimit:10;stroke-dasharray:none;stroke-opacity:1"
       transform="matrix(1.3333333,0,0,-1.3333333,20.373333,117.424)" />
    <path
       id="path2"
       d="M 0,0 V -9.92134"
       style="fill:none;stroke:#000000;stroke-width:0.3985;stroke-linecap:butt;stroke-linejoin:miter;stroke-miterlimit:10;stroke-dasharray:none;stroke-opacity:1"
       transform="matrix(1.3333333,0,0,-1.3333333,20.373333,117.424)" />
    <path
       id="path3"
       d="M -5.95285,-9.92134 H 5.95285 L 0,-17.85843 Z"
       style="fill:none;stroke:#000000;stroke-width:0.797;stroke-linecap:butt;stroke-linejoin:miter;stroke-miterlimit:10;stroke-dasharray:none;stroke-opacity:1"
       transform="matrix(1.3333333,0,0,-1.3333333,20.373333,117.424)" />
    <path
       id="path4"
       d="m -14.88216,28.3468 c 0,8.21929 6.66288,14.88216 14.88216,14.88216 8.21928,0 14.88216,-6.66287 14.88216,-14.88216 0,-8.21928 -6.66288,-14.88215 -14.88216,-14.88215 -8.21928,0 -14.88216,6.66287 -14.88216,14.88215 z"
       style="fill:none;stroke:#000000;stroke-width:0.797;stroke-linecap:butt;stroke-linejoin:miter;stroke-miterlimit:10;stroke-dasharray:none;stroke-opacity:1"
       transform="matrix(1.3333333,0,0,-1.3333333,20.373333,117.424)" />
    <path
       id="path5"
       d="m 7.8743359,-2.7533516 c 0.2109375,0 0.421875,0 0.421875,-0.234375 0,-0.234375 -0.2109375,-0.234375 -0.421875,-0.234375 h -6.46875 c -0.1992187,0 -0.41015621,0 -0.41015621,0.234375 0,0.234375 0.21093751,0.234375 0.41015621,0.234375 z m 0,0"
       style="fill:#000000;fill-opacity:1;fill-rule:nonzero;stroke:none"
       aria-label="−"
       transform="matrix(-1.3333333,0,0,1.3333333,26.573333,92.190667)" />
    <path
       id="path6"
       d="m 4.7685469,-2.7662891 h 3.3046875 c 0.1640625,0 0.375,0 0.375,-0.2109375 0,-0.2226562 -0.1992188,-0.2226562 -0.375,-0.2226562 H 4.7685469 v -3.3046875 c 0,-0.1640625 0,-0.3867188 -0.2109375,-0.3867188 -0.234375,0 -0.234375,0.2109375 -0.234375,0.3867188 v 3.3046875 H 1.0302656 c -0.17578123,0 -0.38671873,0 -0.38671873,0.2109375 0,0.2226562 0.19921875,0.2226562 0.38671873,0.2226562 h 3.2929688 v 3.30468754 c 0,0.1640625 0,0.38671875 0.2226562,0.38671875 0.2226563,0 0.2226563,-0.2109375 0.2226563,-0.38671875 z m 0,0"
       style="fill:#000000;fill-opacity:1;fill-rule:nonzero;stroke:none"
       aria-label="+"
       transform="matrix(-1.3333333,0,0,1.3333333,26.444,74.926667)" />
    <path
       id="path7"
       d="M 9.2978,63.83702 H 47.39578 V 49.55022 H 9.2978 Z"
       style="fill:none;stroke:#000000;stroke-width:0.797;stroke-linecap:butt;stroke-linejoin:miter;stroke-miterlimit:10;stroke-dasharray:none;stroke-opacity:1"
       transform="matrix(1.3333333,0,0,-1.3333333,20.373333,117.424)" />
    <path
       id="path8"
       d="m 14.461852,-13.4655 c 0.128906,-0.152344 0.222656,-0.269531 0.222656,-0.480469 0,-0.140625 -0.01172,-0.164062 -0.492188,-0.164062 H 5.6610703 c -0.46875,0 -0.4921875,0.02344 -0.6210937,0.386719 L 3.9032578,-9.99675 c -0.058594,0.1992188 -0.058594,0.2460938 -0.058594,0.28125 0,0.082031 0.058594,0.2109375 0.2109375,0.2109375 0.1640625,0 0.1992187,-0.082031 0.28125,-0.3515625 0.7617187,-2.226562 1.78125,-3.65625 5.0390625,-3.65625 H 12.774352 L 1.4423203,-0.70378125 C 1.2665391,-0.481125 1.1727891,-0.387375 1.1727891,-0.16471875 c 0,0.1640625 0.1054687,0.1640625 0.5039062,0.1640625 h 8.8242187 c 0.46875,0 0.492188,-0.0234375 0.609375,-0.38671875 l 1.453125,-4.5703125 c 0.02344,-0.058594 0.05859,-0.2109375 0.05859,-0.2929687 0,-0.1054688 -0.08203,-0.1992188 -0.199219,-0.1992188 -0.175781,0 -0.1875,0.011719 -0.351562,0.5273438 -0.867188,2.671875 -1.78125,4.2773437 -5.3789067,4.2773437 H 3.1181016 Z m 0,0"
       style="fill:#000000;fill-opacity:1;fill-rule:nonzero;stroke:none"
       aria-label="Z"
       transform="matrix(1.3333333,0,0,1.3333333,47.948,26.204)" />
    <path
       id="path9"
       d="M 60.44966,68.15277 81.28436,56.69362 60.44966,45.23445 Z"
       style="fill:none;stroke:#000000;stroke-width:0.797;stroke-linecap:butt;stroke-linejoin:miter;stroke-miterlimit:10;stroke-dasharray:none;stroke-opacity:1"
       transform="matrix(1.3333333,0,0,-1.3333333,20.373333,117.424)" />
    <path
       id="path10"
       d="m 3.515125,-2.2971172 c -0.7265625,1.21875 -1.4296875,1.64062501 -2.4257812,1.69921876 -0.2226563,0.0234375 -0.3867188,0.0234375 -0.3867188,0.38671875 0,0.12890625 0.10546875,0.2109375025 0.24609375,0.2109375025 0.37500005,0 1.30078125,-0.0468750025 1.67578125,-0.0468750025 0.5976563,0 1.2539063,0.0468750025 1.8398438,0.0468750025 0.1171875,0 0.375,0 0.375,-0.3867187525 0,-0.1875 -0.1757813,-0.2109375 -0.2929688,-0.2109375 -0.4804687,-0.046875 -0.8671875,-0.2109375 -0.8671875,-0.70312496 0,-0.2929688 0.1171875,-0.515625 0.3867188,-0.9726563 l 1.5703125,-2.6015625 h 5.2734372 c 0.02344,0.1875 0.02344,0.3515625 0.03516,0.5390625 0.07031,0.5390625 0.316406,2.6835938 0.316406,3.0703125 0,0.62109376 -1.054688,0.66796876 -1.3828127,0.66796876 -0.234375,0 -0.4570313,0 -0.4570313,0.375 0,0.2226562525 0.1875,0.2226562525 0.3046875,0.2226562525 0.3515625,0 0.7734375,-0.0468750025 1.1250005,-0.0468750025 h 1.171875 c 1.265625,0 2.167968,0.0468750025 2.191406,0.0468750025 0.140625,0 0.375,0 0.375,-0.3867187525 0,-0.2109375 -0.1875,-0.2109375 -0.503906,-0.2109375 -1.136719,0 -1.148438,-0.1875 -1.21875,-0.80859376 l -1.25391,-12.8906248 c -0.04687,-0.410156 -0.128906,-0.457031 -0.351562,-0.457031 -0.210938,0 -0.328125,0.04687 -0.515625,0.351562 z m 2.4726563,-3.1757812 4.1601567,-6.9492186 0.703125,6.9492186 z m 0,0"
       style="fill:#000000;fill-opacity:1;fill-rule:nonzero;stroke:none"
       aria-label="A"
       transform="matrix(1.3333333,0,0,1.3333333,104.75067,21.402667)" />
    <path
       id="path11"
       d="m 100.80096,56.69362 c 0,0.87656 -0.71058,1.58714 -1.58714,1.58714 -0.87655,0 -1.58714,-0.71058 -1.58714,-1.58714 0,-0.87657 0.71059,-1.58716 1.58714,-1.58716 0.87656,0 1.58714,0.71059 1.58714,1.58716 z"
       style="fill:#ffffff;fill-opacity:1;fill-rule:nonzero;stroke:#000000;stroke-width:0.3985;stroke-linecap:butt;stroke-linejoin:miter;stroke-miterlimit:10;stroke-dasharray:none;stroke-opacity:1"
       transform="matrix(1.3333333,0,0,-1.3333333,20.373333,117.424)" />
  </g>
</svg>
