<?xml version="1.0" encoding="UTF-8" standalone="no"?>
<!-- Created with Inkscape (http://www.inkscape.org/) -->

<svg
   version="1.1"
   id="svg1"
   width="459.81467"
   height="313.20132"
   viewBox="0 0 459.81467 313.20132"
   sodipodi:docname="BlochSphere.pdf"
   xmlns:inkscape="http://www.inkscape.org/namespaces/inkscape"
   xmlns:sodipodi="http://sodipodi.sourceforge.net/DTD/sodipodi-0.dtd"
   xmlns="http://www.w3.org/2000/svg"
   xmlns:svg="http://www.w3.org/2000/svg">
  <defs
     id="defs1" />
  <sodipodi:namedview
     id="namedview1"
     pagecolor="#ffffff"
     bordercolor="#000000"
     borderopacity="0.25"
     inkscape:showpageshadow="2"
     inkscape:pageopacity="0.0"
     inkscape:pagecheckerboard="0"
     inkscape:deskcolor="#d1d1d1">
    <inkscape:page
       x="0"
       y="0"
       inkscape:label="1"
       id="page1"
       width="459.81467"
       height="313.20132"
       margin="0"
       bleed="0" />
  </sodipodi:namedview>
  <g
     id="g1"
     inkscape:groupmode="layer"
     inkscape:label="1">
    <path
       id="path1"
       d="m 70.85619,0 c 0,39.13329 -31.7229,70.85619 -70.85619,70.85619 -39.13329,0 -70.85619,-31.7229 -70.85619,-70.85619 0,-39.13329 31.7229,-70.85619 70.85619,-70.85619 39.13329,0 70.85619,31.7229 70.85619,70.85619 z"
       style="fill:none;stroke:#000000;stroke-width:1.99255;stroke-linecap:butt;stroke-linejoin:miter;stroke-miterlimit:10;stroke-dasharray:none;stroke-opacity:1"
       transform="matrix(1.3333333,0,0,-1.3333333,230.70533,156.6)" />
    <path
       id="path2"
       d="M 70.85619,0 C 55.79018,-15.06601 11.8542,-27.27908 -27.27908,-27.27908 -66.41237,-27.27908 -85.9222,-15.06601 -70.85619,0"
       style="fill:none;stroke:#000000;stroke-width:1.99255;stroke-linecap:butt;stroke-linejoin:miter;stroke-miterlimit:10;stroke-dasharray:none;stroke-opacity:1"
       transform="matrix(1.3333333,0,0,-1.3333333,230.70533,156.6)" />
    <path
       id="path3"
       d="M 70.85619,0 C 85.9222,15.06601 66.41237,27.27908 27.27908,27.27908 -11.8542,27.27908 -55.79018,15.06601 -70.85619,0"
       style="fill:none;stroke:#000000;stroke-width:1.99255;stroke-linecap:butt;stroke-linejoin:miter;stroke-miterlimit:10;stroke-dasharray:2.98883, 2.98883;stroke-dashoffset:0;stroke-opacity:1"
       transform="matrix(1.3333333,0,0,-1.3333333,230.70533,156.6)" />
    <path
       id="path4"
       d="M -85.02744,0 H 74.06839"
       style="fill:none;stroke:#000000;stroke-width:1.99255;stroke-linecap:butt;stroke-linejoin:miter;stroke-miterlimit:10;stroke-dasharray:none;stroke-opacity:1"
       transform="matrix(1.3333333,0,0,-1.3333333,230.70533,156.6)" />
    <path
       id="path5"
       d="M 6.85132,0 C 6.00995,0.21417 2.31152,1.42789 0,2.74866 V -2.74866 C 2.31152,-1.42789 6.00995,-0.21417 6.85132,0 Z"
       style="fill:#000000;fill-opacity:1;fill-rule:nonzero;stroke:#000000;stroke-width:1.99255;stroke-linecap:butt;stroke-linejoin:miter;stroke-miterlimit:10;stroke-dasharray:none;stroke-opacity:1"
       transform="matrix(1.3333333,0,0,-1.3333333,329.46319,156.6)" />
    <path
       id="path6"
       d="m 3.2798984,-14.752617 c 0,-0.375 0,-0.738281 -0.4101562,-0.738281 -0.4101563,0 -0.4101563,0.363281 -0.4101563,0.738281 V 4.4192578 c 0,0.375 0,0.75 0.4101563,0.75 0.4101562,0 0.4101562,-0.375 0.4101562,-0.75 z m 0,0"
       style="fill:#000000;fill-opacity:1;fill-rule:nonzero;stroke:none"
       aria-label="|"
       transform="matrix(1.3333333,0,0,1.3333333,6.0213333,153.26)" />
    <path
       id="path7"
       d="m 8.6727109,-6.6315234 c 0,-1.2539063 -0.011719,-3.4101566 -0.8789062,-5.0624996 -0.7734375,-1.441407 -1.9921875,-1.957032 -3.0585938,-1.957032 -0.9960937,0 -2.25,0.445313 -3.0351562,1.933594 -0.83203126,1.558594 -0.91406251,3.4804688 -0.91406251,5.0859376 0,1.1835937 0.0234375,2.9765625 0.65625001,4.546875 0.890625,2.13281246 2.484375,2.41406246 3.2929687,2.41406246 0.9492188,0 2.390625,-0.38671875 3.2460938,-2.35546876 0.609375,-1.4179687 0.6914062,-3.09375 0.6914062,-4.6054687 z m -3.9375,6.63281246 c -1.3242187,0 -2.109375,-1.13671876 -2.4023437,-2.70703126 -0.2226563,-1.21875 -0.2226563,-3 -0.2226563,-4.1484375 0,-1.59375 0,-2.9179687 0.2695313,-4.1718753 0.3867187,-1.757812 1.546875,-2.296875 2.3554687,-2.296875 0.84375,0 1.9335938,0.550782 2.3320313,2.25 0.2695312,1.1835941 0.2929687,2.5664066 0.2929687,4.2187503 0,1.3359375 0,2.9882813 -0.2578125,4.2070313 -0.4335937,2.26171871 -1.6523437,2.64843746 -2.3671875,2.64843746 z m 0,0"
       style="fill:#000000;fill-opacity:1;fill-rule:nonzero;stroke:none"
       aria-label="0"
       transform="matrix(1.3333333,0,0,1.3333333,13.674667,153.26)" />
    <path
       id="path8"
       d="m 13.616633,-4.7096484 c 0.386719,-0.1875 0.410156,-0.3046875 0.410156,-0.4570313 0,-0.1171875 -0.03516,-0.2695312 -0.410156,-0.4335937 L 2.4369453,-10.744805 c -0.2695312,-0.117187 -0.3046875,-0.140625 -0.3515625,-0.140625 -0.2460937,0 -0.3867187,0.210938 -0.3867187,0.375 0,0.246094 0.1640625,0.328125 0.4335937,0.445313 L 12.749445,-5.1666797 2.1088203,-0.24480469 c -0.4101562,0.1875 -0.4101562,0.328125 -0.4101562,0.45703125 0,0.1640625 0.140625,0.36328125 0.3867187,0.36328125 0.046875,0 0.058594,-0.0117188 0.3515625,-0.140625 z m 0,0"
       style="fill:#000000;fill-opacity:1;fill-rule:nonzero;stroke:none"
       aria-label="&gt;"
       transform="matrix(1.3333333,0,0,1.3333333,26.309333,153.26)" />
    <path
       id="path9"
       d="m 13.615984,-4.7448047 c 0.351563,0 0.726563,0 0.726563,-0.421875 0,-0.4101562 -0.375,-0.4101562 -0.726563,-0.4101562 H 2.4362969 c -0.3515625,0 -0.7265625,0 -0.7265625,0.4101562 0,0.421875 0.375,0.421875 0.7265625,0.421875 z m 5.736328,-10.0078123 c 0,-0.375 0,-0.738281 -0.410156,-0.738281 -0.410156,0 -0.410156,0.363281 -0.410156,0.738281 V 4.4192578 c 0,0.375 0,0.75 0.410156,0.75 0.410156,0 0.410156,-0.375 0.410156,-0.75 z m 0,0"
       style="fill:#000000;fill-opacity:1;fill-rule:nonzero;stroke:none"
       aria-label="−|"
       transform="matrix(1.3333333,0,0,1.3333333,47.290667,153.26)" />
    <path
       id="path10"
       d="m 5.4964141,-13.205742 c 0,-0.433594 -0.023437,-0.445313 -0.3046875,-0.445313 -0.8085938,0.972657 -2.0273438,1.277344 -3.1875,1.3125 -0.058594,0 -0.1640625,0 -0.1875,0.04687 -0.023437,0.04687 -0.023437,0.08203 -0.023437,0.515625 0.6445312,0 1.7226562,-0.117187 2.5429687,-0.621093 v 10.8867183 c 0,0.72656251 -0.035156,0.97265626 -1.8164062,0.97265626 H 1.8987578 v 0.5390625 c 0.9960938,-0.0234375 2.0273438,-0.046875 3.0234375,-0.046875 0.984375,0 2.015625,0.0234375 3.0117188,0.046875 v -0.5390625 H 7.3128203 c -1.78125,0 -1.8164062,-0.22265625 -1.8164062,-0.97265626 z m 0,0"
       style="fill:#000000;fill-opacity:1;fill-rule:nonzero;stroke:none"
       aria-label="1"
       transform="matrix(1.3333333,0,0,1.3333333,76.370667,153.26)" />
    <path
       id="path11"
       d="m 13.616117,-4.7096484 c 0.386719,-0.1875 0.410156,-0.3046875 0.410156,-0.4570313 0,-0.1171875 -0.03516,-0.2695312 -0.410156,-0.4335937 L 2.4364297,-10.744805 c -0.2695313,-0.117187 -0.3046875,-0.140625 -0.3515625,-0.140625 -0.2460938,0 -0.3867188,0.210938 -0.3867188,0.375 0,0.246094 0.1640625,0.328125 0.4335938,0.445313 L 12.74893,-5.1666797 2.1083047,-0.24480469 c -0.4101563,0.1875 -0.4101563,0.328125 -0.4101563,0.45703125 0,0.1640625 0.140625,0.36328125 0.3867188,0.36328125 0.046875,0 0.058594,-0.0117188 0.3515625,-0.140625 z m 0,0"
       style="fill:#000000;fill-opacity:1;fill-rule:nonzero;stroke:none"
       aria-label="&gt;"
       transform="matrix(1.3333333,0,0,1.3333333,89.005333,153.26)" />
    <path
       id="path12"
       d="M 0,0 H 77.974"
       style="fill:none;stroke:#000000;stroke-width:0.398;stroke-linecap:butt;stroke-linejoin:miter;stroke-miterlimit:10;stroke-dasharray:none;stroke-opacity:1"
       transform="matrix(1.3333333,0,0,-1.3333333,6.0213333,160.944)" />
    <path
       id="path13"
       d="m 8.6139062,-3.1981172 h -0.375 C 8.0396875,-1.7332734 7.875625,-1.4871797 7.7935937,-1.3582734 7.688125,-1.1942109 6.1998437,-1.1942109 5.906875,-1.1942109 H 1.9459375 c 0.7382812,-0.8085938 2.1914062,-2.2734375 3.9375,-3.9726563 1.265625,-1.1953125 2.7304687,-2.6015625 2.7304687,-4.640625 0,-2.4374998 -1.9453125,-3.8437498 -4.1132812,-3.8437498 -2.2734375,0 -3.65625,2.003906 -3.65625,3.8554686 0,0.8085937 0.5976562,0.9140625 0.8554687,0.9140625 0.1992188,0 0.8203125,-0.1289063 0.8203125,-0.84375 0,-0.6445311 -0.5390625,-0.8320311 -0.8203125,-0.8320311 -0.1289062,0 -0.2578125,0.02344 -0.3398437,0.05859 0.3984375,-1.746094 1.59375,-2.625 2.859375,-2.625 1.7929687,0 2.9765625,1.429687 2.9765625,3.3164058 0,1.7929688 -1.0546875,3.3398438 -2.2382813,4.6875 L 0.844375,-0.47936719 v 0.48046875 h 7.2773437 z m 0,0"
       style="fill:#000000;fill-opacity:1;fill-rule:nonzero;stroke:none"
       aria-label="2"
       transform="matrix(1.3333333,0,0,1.3333333,51.686667,180.604)" />
    <path
       id="path14"
       d="m 3.2825859,-14.752617 c 0,-0.375 0,-0.738281 -0.4101562,-0.738281 -0.4101563,0 -0.4101563,0.363281 -0.4101563,0.738281 V 4.4192578 c 0,0.375 0,0.75 0.4101563,0.75 0.4101562,0 0.4101562,-0.375 0.4101562,-0.75 z m 0,0"
       style="fill:#000000;fill-opacity:1;fill-rule:nonzero;stroke:none"
       aria-label="|"
       transform="matrix(1.3333333,0,0,1.3333333,351.424,153.26)" />
    <path
       id="path15"
       d="m 8.6705391,-6.6315234 c 0,-1.2539063 -0.011719,-3.4101566 -0.8789063,-5.0624996 -0.7734375,-1.441407 -1.9921875,-1.957032 -3.0585937,-1.957032 -0.9960938,0 -2.25,0.445313 -3.0351563,1.933594 -0.83203124,1.558594 -0.91406249,3.4804688 -0.91406249,5.0859376 0,1.1835937 0.0234375,2.9765625 0.65624999,4.546875 0.890625,2.13281246 2.484375,2.41406246 3.2929688,2.41406246 0.9492187,0 2.390625,-0.38671875 3.2460937,-2.35546876 0.609375,-1.4179687 0.6914063,-3.09375 0.6914063,-4.6054687 z m -3.9375,6.63281246 c -1.3242188,0 -2.109375,-1.13671876 -2.4023438,-2.70703126 -0.2226562,-1.21875 -0.2226562,-3 -0.2226562,-4.1484375 0,-1.59375 0,-2.9179687 0.2695312,-4.1718753 0.3867188,-1.757812 1.546875,-2.296875 2.3554688,-2.296875 0.84375,0 1.9335937,0.550782 2.3320312,2.25 0.2695313,1.1835941 0.2929688,2.5664066 0.2929688,4.2187503 0,1.3359375 0,2.9882813 -0.2578125,4.2070313 -0.4335938,2.26171871 -1.6523438,2.64843746 -2.3671875,2.64843746 z m 0,0"
       style="fill:#000000;fill-opacity:1;fill-rule:nonzero;stroke:none"
       aria-label="0"
       transform="matrix(1.3333333,0,0,1.3333333,359.076,153.26)" />
    <path
       id="path16"
       d="m 13.617391,-4.7096484 c 0.386718,-0.1875 0.410156,-0.3046875 0.410156,-0.4570313 0,-0.1171875 -0.03516,-0.2695312 -0.410156,-0.4335937 L 2.4377031,-10.744805 c -0.2695312,-0.117187 -0.3046875,-0.140625 -0.3515625,-0.140625 -0.2460937,0 -0.3867187,0.210938 -0.3867187,0.375 0,0.246094 0.1640625,0.328125 0.4335937,0.445313 L 12.750203,-5.1666797 2.1095781,-0.24480469 c -0.4101562,0.1875 -0.4101562,0.328125 -0.4101562,0.45703125 0,0.1640625 0.140625,0.36328125 0.3867187,0.36328125 0.046875,0 0.058594,-0.0117188 0.3515625,-0.140625 z m 0,0"
       style="fill:#000000;fill-opacity:1;fill-rule:nonzero;stroke:none"
       aria-label="&gt;"
       transform="matrix(1.3333333,0,0,1.3333333,371.71067,153.26)" />
    <path
       id="path17"
       d="M 7.7925234,-4.7916797 H 13.26518 c 0.292968,0 0.632812,0 0.632812,-0.3515625 0,-0.375 -0.328125,-0.375 -0.632812,-0.375 H 7.7925234 v -5.4726558 c 0,-0.292969 0,-0.644532 -0.3515625,-0.644532 -0.375,0 -0.375,0.339844 -0.375,0.644532 v 5.4726558 H 1.5933047 c -0.2929688,0 -0.64453126,0 -0.64453126,0.3515625 0,0.375 0.32812496,0.375 0.64453126,0.375 h 5.4726562 v 5.47265626 c 0,0.29296875 0,0.64453124 0.3515625,0.64453124 0.375,0 0.375,-0.32812499 0.375,-0.64453124 z m 0,0"
       style="fill:#000000;fill-opacity:1;fill-rule:nonzero;stroke:none"
       aria-label="+"
       transform="matrix(1.3333333,0,0,1.3333333,392.692,153.26)" />
    <path
       id="path18"
       d="m 3.2808281,-14.752617 c 0,-0.375 0,-0.738281 -0.4101562,-0.738281 -0.4101563,0 -0.4101563,0.363281 -0.4101563,0.738281 V 4.4192578 c 0,0.375 0,0.75 0.4101563,0.75 0.4101562,0 0.4101562,-0.375 0.4101562,-0.75 z m 0,0"
       style="fill:#000000;fill-opacity:1;fill-rule:nonzero;stroke:none"
       aria-label="|"
       transform="matrix(1.3333333,0,0,1.3333333,412.524,153.26)" />
    <path
       id="path19"
       d="m 5.4959297,-13.205742 c 0,-0.433594 -0.023437,-0.445313 -0.3046875,-0.445313 -0.8085938,0.972657 -2.0273438,1.277344 -3.1875,1.3125 -0.058594,0 -0.1640625,0 -0.1875,0.04687 -0.023437,0.04687 -0.023437,0.08203 -0.023437,0.515625 0.6445312,0 1.7226562,-0.117187 2.5429687,-0.621093 v 10.8867183 c 0,0.72656251 -0.035156,0.97265626 -1.8164062,0.97265626 H 1.8982734 v 0.5390625 c 0.9960938,-0.0234375 2.0273438,-0.046875 3.0234375,-0.046875 0.984375,0 2.015625,0.0234375 3.0117188,0.046875 v -0.5390625 H 7.3123359 c -1.78125,0 -1.8164062,-0.22265625 -1.8164062,-0.97265626 z m 0,0"
       style="fill:#000000;fill-opacity:1;fill-rule:nonzero;stroke:none"
       aria-label="1"
       transform="matrix(1.3333333,0,0,1.3333333,420.176,153.26)" />
    <path
       id="path20"
       d="m 13.617562,-4.7096484 c 0.386719,-0.1875 0.410157,-0.3046875 0.410157,-0.4570313 0,-0.1171875 -0.03516,-0.2695312 -0.410157,-0.4335937 L 2.437875,-10.744805 c -0.2695313,-0.117187 -0.3046875,-0.140625 -0.3515625,-0.140625 -0.2460938,0 -0.3867188,0.210938 -0.3867188,0.375 0,0.246094 0.1640625,0.328125 0.4335938,0.445313 L 12.750375,-5.1666797 2.10975,-0.24480469 c -0.4101563,0.1875 -0.4101563,0.328125 -0.4101563,0.45703125 0,0.1640625 0.140625,0.36328125 0.3867188,0.36328125 0.046875,0 0.058594,-0.0117188 0.3515625,-0.140625 z m 0,0"
       style="fill:#000000;fill-opacity:1;fill-rule:nonzero;stroke:none"
       aria-label="&gt;"
       transform="matrix(1.3333333,0,0,1.3333333,432.812,153.26)" />
    <path
       id="path21"
       d="M 0,0 H 76.777"
       style="fill:none;stroke:#000000;stroke-width:0.398;stroke-linecap:butt;stroke-linejoin:miter;stroke-miterlimit:10;stroke-dasharray:none;stroke-opacity:1"
       transform="matrix(1.3333333,0,0,-1.3333333,351.424,160.944)" />
    <path
       id="path22"
       d="m 8.6120781,-3.1981172 h -0.375 c -0.1992187,1.4648438 -0.3632812,1.7109375 -0.4453125,1.8398438 -0.1054687,0.1640625 -1.59375,0.1640625 -1.8867187,0.1640625 H 1.9441094 c 0.7382812,-0.8085938 2.1914062,-2.2734375 3.9375,-3.9726563 1.265625,-1.1953125 2.7304687,-2.6015625 2.7304687,-4.640625 0,-2.4374998 -1.9453125,-3.8437498 -4.1132812,-3.8437498 -2.2734375,0 -3.65625002,2.003906 -3.65625002,3.8554686 0,0.8085937 0.59765622,0.9140625 0.85546872,0.9140625 0.1992188,0 0.8203125,-0.1289063 0.8203125,-0.84375 0,-0.6445311 -0.5390625,-0.8320311 -0.8203125,-0.8320311 -0.1289062,0 -0.2578125,0.02344 -0.3398437,0.05859 0.3984375,-1.746094 1.59375,-2.625 2.859375,-2.625 1.7929687,0 2.9765625,1.429687 2.9765625,3.3164058 0,1.7929688 -1.0546875,3.3398438 -2.2382813,4.6875 L 0.84254688,-0.47936719 V 0.00110156 H 8.1198906 Z m 0,0"
       style="fill:#000000;fill-opacity:1;fill-rule:nonzero;stroke:none"
       aria-label="2"
       transform="matrix(1.3333333,0,0,1.3333333,396.29067,180.604)" />
    <path
       id="path23"
       d="M 0,70.85619 C -15.06601,55.79018 -27.27908,11.8542 -27.27908,-27.27908 -27.27908,-66.41237 -15.06601,-85.9222 0,-70.85619"
       style="fill:none;stroke:#000000;stroke-width:1.99255;stroke-linecap:butt;stroke-linejoin:miter;stroke-miterlimit:10;stroke-dasharray:none;stroke-opacity:1"
       transform="matrix(1.3333333,0,0,-1.3333333,230.70533,156.6)" />
    <path
       id="path24"
       d="M 0,70.85619 C 15.06601,85.9222 27.27908,66.41237 27.27908,27.27908 27.27908,-11.8542 15.06601,-55.79018 0,-70.85619"
       style="fill:none;stroke:#000000;stroke-width:1.99255;stroke-linecap:butt;stroke-linejoin:miter;stroke-miterlimit:10;stroke-dasharray:2.98883, 2.98883;stroke-dashoffset:0;stroke-opacity:1"
       transform="matrix(1.3333333,0,0,-1.3333333,230.70533,156.6)" />
    <path
       id="path25"
       d="M 0,-85.02744 V 74.06839"
       style="fill:none;stroke:#000000;stroke-width:1.99255;stroke-linecap:butt;stroke-linejoin:miter;stroke-miterlimit:10;stroke-dasharray:none;stroke-opacity:1"
       transform="matrix(1.3333333,0,0,-1.3333333,230.70533,156.6)" />
    <path
       id="path26"
       d="M 6.85132,0 C 6.00995,0.21417 2.31152,1.42789 0,2.74866 V -2.74866 C 2.31152,-1.42789 6.00995,-0.21417 6.85132,0 Z"
       style="fill:#000000;fill-opacity:1;fill-rule:nonzero;stroke:#000000;stroke-width:1.99255;stroke-linecap:butt;stroke-linejoin:miter;stroke-miterlimit:10;stroke-dasharray:none;stroke-opacity:1"
       transform="matrix(0,-1.3333333,-1.3333333,0,230.70533,57.842147)" />
    <path
       id="path27"
       d="m 3.936375,-17.695523 c 0,-0.445313 0,-0.890625 -0.4921875,-0.890625 C 2.952,-18.586148 2.952,-18.140836 2.952,-17.695523 V 5.3083828 c 0,0.4453125 0,0.890625 0.4921875,0.890625 0.4921875,0 0.4921875,-0.4453125 0.4921875,-0.890625 z m 0,0"
       style="fill:#000000;fill-opacity:1;fill-rule:nonzero;stroke:none"
       aria-label="|"
       transform="matrix(1.3333333,0,0,1.3333333,200.564,300.512)" />
    <path
       id="path28"
       d="m 6.5982266,-15.832242 c 0,-0.527344 -0.035156,-0.550781 -0.375,-0.550781 -0.9726563,1.160156 -2.4257813,1.535156 -3.8203125,1.582031 -0.070312,0 -0.1992188,0 -0.2226563,0.05859 -0.023437,0.04687 -0.023437,0.09375 -0.023437,0.609375 0.7734375,0 2.0625,-0.140625 3.046875,-0.738282 v 13.0664066 c 0,0.86718746 -0.046875,1.16015621 -2.1796875,1.16015621 H 2.2857266 V -2.109375e-4 C 3.4693203,-0.02364844 4.7115078,-0.04708594 5.8951016,-0.04708594 c 1.1953125,0 2.4375,0.0234375 3.6210937,0.0468750025 V -0.64474219 H 8.7779141 c -2.1328125,0 -2.1796875,-0.26953125 -2.1796875,-1.16015621 z m 0,0"
       style="fill:#000000;fill-opacity:1;fill-rule:nonzero;stroke:none"
       aria-label="1"
       transform="matrix(1.3333333,0,0,1.3333333,209.74533,300.512)" />
    <path
       id="path29"
       d="m 16.335773,-5.6486484 c 0.46875,-0.2226563 0.492188,-0.375 0.492188,-0.5507813 0,-0.140625 -0.04687,-0.3164062 -0.492188,-0.515625 L 2.9295234,-12.890836 c -0.328125,-0.140625 -0.375,-0.175781 -0.421875,-0.175781 -0.3046875,0 -0.4804687,0.257812 -0.4804687,0.445312 0,0.304688 0.1992187,0.398438 0.5273437,0.550782 L 15.292805,-6.1994297 2.5310859,-0.29317969 c -0.5039062,0.22265625 -0.5039062,0.38671875 -0.5039062,0.5390625 0,0.19921875 0.1757812,0.4453125 0.4804687,0.4453125 0.046875,0 0.070312,-0.0234375 0.421875,-0.17578125 z m 0,0"
       style="fill:#000000;fill-opacity:1;fill-rule:nonzero;stroke:none"
       aria-label="&gt;"
       transform="matrix(1.3333333,0,0,1.3333333,235.676,300.512)" />
    <path
       id="path30"
       d="m 3.9389609,-17.69418 c 0,-0.445312 0,-0.890625 -0.4921875,-0.890625 -0.4921875,0 -0.4921875,0.445313 -0.4921875,0.890625 V 5.3097266 c 0,0.4453125 0,0.890625 0.4921875,0.890625 0.4921875,0 0.4921875,-0.4453125 0.4921875,-0.890625 z m 0,0"
       style="fill:#000000;fill-opacity:1;fill-rule:nonzero;stroke:none"
       aria-label="|"
       transform="matrix(1.3333333,0,0,1.3333333,201.36133,29.213333)" />
    <path
       id="path31"
       d="m 10.406477,-7.9558984 c 0,-1.5117188 -0.02344,-4.0898436 -1.0664067,-6.0703126 -0.9140625,-1.734375 -2.3789062,-2.355469 -3.6679687,-2.355469 -1.1835938,0 -2.6953125,0.550782 -3.6445313,2.332032 -0.984375,1.851562 -1.08984374,4.1601558 -1.08984374,6.0937496 0,1.4179687 0.0234375,3.5742187 0.79687504,5.4492187 1.0664062,2.55468751 2.9765625,2.90625001 3.9375,2.90625001 1.1484375,0 2.8828125,-0.46875 3.890625,-2.82421871 0.7500004,-1.7109375 0.8437504,-3.7265625 0.8437504,-5.53125 z M 5.6721016,0.00113281 c -1.5820313,0 -2.5195313,-1.35937501 -2.8710938,-3.24609371 -0.2695312,-1.4648438 -0.2695312,-3.5976563 -0.2695312,-4.9804688 0,-1.9101563 0,-3.4921873 0.3164062,-5.0039063 0.46875,-2.109375 1.8632813,-2.753906 2.8242188,-2.753906 1.0195312,0 2.3320312,0.667969 2.8007812,2.695312 0.328125,1.417969 0.3515625,3.082032 0.3515625,5.0625003 0,1.6054688 0,3.5859375 -0.2929687,5.0507813 -0.5273438,2.70703121 -1.9921875,3.17578121 -2.859375,3.17578121 z m 0,0"
       style="fill:#000000;fill-opacity:1;fill-rule:nonzero;stroke:none"
       aria-label="0"
       transform="matrix(1.3333333,0,0,1.3333333,210.54267,29.213333)" />
    <path
       id="path32"
       d="m 16.335117,-5.6473047 c 0.46875,-0.2226562 0.492188,-0.375 0.492188,-0.5507812 0,-0.140625 -0.04687,-0.3164063 -0.492188,-0.515625 L 2.9288672,-12.889492 c -0.328125,-0.140625 -0.375,-0.175781 -0.421875,-0.175781 -0.3046875,0 -0.4804688,0.257812 -0.4804688,0.445312 0,0.304688 0.1992188,0.398438 0.5273438,0.550781 L 15.292148,-6.1980859 2.5304297,-0.29183594 c -0.5039063,0.22265625 -0.5039063,0.38671875 -0.5039063,0.5390625 0,0.19921875 0.1757813,0.4453125 0.4804688,0.4453125 0.046875,0 0.070312,-0.0234375 0.421875,-0.17578125 z m 0,0"
       style="fill:#000000;fill-opacity:1;fill-rule:nonzero;stroke:none"
       aria-label="&gt;"
       transform="matrix(1.3333333,0,0,1.3333333,234.88,29.213333)" />
    <path
       id="path33"
       d="M 32.7349,32.7349 -24.98567,-24.98567"
       style="fill:none;stroke:#000000;stroke-width:1.99255;stroke-linecap:butt;stroke-linejoin:miter;stroke-miterlimit:10;stroke-dasharray:none;stroke-opacity:1"
       transform="matrix(1.3333333,0,0,-1.3333333,230.70533,156.6)" />
    <path
       id="path34"
       d="M 6.85132,0 C 6.00995,0.21417 2.31152,1.42789 0,2.74866 V -2.74866 C 2.31152,-1.42789 6.00995,-0.21417 6.85132,0 Z"
       style="fill:#000000;fill-opacity:1;fill-rule:nonzero;stroke:#000000;stroke-width:1.99255;stroke-linecap:butt;stroke-linejoin:miter;stroke-miterlimit:10;stroke-dasharray:none;stroke-opacity:1"
       transform="matrix(-0.9428,0.9428,0.9428,0.9428,197.39111,189.91423)" />
    <path
       id="path35"
       d="m 8.50412,70.867 c 0,4.69677 -3.80737,8.50414 -8.50412,8.50414 -4.69675,0 -8.50412,-3.80737 -8.50412,-8.50414 0,-4.69674 3.80737,-8.50412 8.50412,-8.50412 4.69675,0 8.50412,3.80738 8.50412,8.50412 z"
       style="fill:#a6e6ff;fill-opacity:1;fill-rule:nonzero;stroke:#000000;stroke-width:1.19553;stroke-linecap:butt;stroke-linejoin:miter;stroke-miterlimit:10;stroke-dasharray:none;stroke-opacity:1"
       transform="matrix(1.3333333,0,0,-1.3333333,230.70533,156.6)" />
  </g>
</svg>
