<?xml version="1.0" encoding="UTF-8" standalone="no"?>
<!-- Created with Inkscape (http://www.inkscape.org/) -->

<svg
   version="1.1"
   id="svg1"
   width="649.01068"
   height="219.84"
   viewBox="0 0 649.01068 219.84"
   sodipodi:docname="circuits.pdf"
   xmlns:inkscape="http://www.inkscape.org/namespaces/inkscape"
   xmlns:sodipodi="http://sodipodi.sourceforge.net/DTD/sodipodi-0.dtd"
   xmlns="http://www.w3.org/2000/svg"
   xmlns:svg="http://www.w3.org/2000/svg">
  <defs
     id="defs1" />
  <sodipodi:namedview
     id="namedview1"
     pagecolor="#ffffff"
     bordercolor="#000000"
     borderopacity="0.25"
     inkscape:showpageshadow="2"
     inkscape:pageopacity="0.0"
     inkscape:pagecheckerboard="0"
     inkscape:deskcolor="#d1d1d1">
    <inkscape:page
       x="0"
       y="0"
       inkscape:label="1"
       id="page1"
       width="649.01068"
       height="219.84"
       margin="0"
       bleed="0" />
  </sodipodi:namedview>
  <g
     id="g1"
     inkscape:groupmode="layer"
     inkscape:label="1">
    <path
       id="path1"
       d="m 11.90572,28.3468 c 0,6.57543 -5.33031,11.90572 -11.90572,11.90572 -6.57541,0 -11.90572,-5.33029 -11.90572,-11.90572 0,-6.57542 5.33031,-11.90571 11.90572,-11.90571 6.57541,0 11.90572,5.33029 11.90572,11.90571 z"
       style="fill:none;stroke:#000000;stroke-width:1.59404;stroke-linecap:butt;stroke-linejoin:miter;stroke-miterlimit:10;stroke-dasharray:none;stroke-opacity:1"
       transform="matrix(1.3333333,0,0,-1.3333333,72.925333,194.96667)" />
    <path
       id="path2"
       d="m 7.8749219,-2.7550625 c 0.2109375,0 0.421875,0 0.421875,-0.234375 0,-0.234375 -0.2109375,-0.234375 -0.421875,-0.234375 h -6.46875 c -0.1992188,0 -0.41015627,0 -0.41015627,0.234375 0,0.234375 0.21093747,0.234375 0.41015627,0.234375 z m 0,0"
       style="fill:#000000;fill-opacity:1;fill-rule:nonzero;stroke:none"
       aria-label="−"
       transform="matrix(1.3333333,0,0,1.3333333,66.726667,166.95467)" />
    <path
       id="path3"
       d="m 4.7691328,-2.7660547 h 3.3046875 c 0.1640625,0 0.375,0 0.375,-0.2109375 0,-0.2226562 -0.1992187,-0.2226562 -0.375,-0.2226562 H 4.7691328 v -3.3046875 c 0,-0.1640625 0,-0.3867188 -0.2109375,-0.3867188 -0.234375,0 -0.234375,0.2109375 -0.234375,0.3867188 v 3.3046875 H 1.0308516 c -0.17578129,0 -0.38671879,0 -0.38671879,0.2109375 0,0.2226562 0.19921875,0.2226562 0.38671879,0.2226562 h 3.2929687 v 3.30468751 c 0,0.1640625 0,0.38671875 0.2226563,0.38671875 0.2226562,0 0.2226562,-0.2109375 0.2226562,-0.38671875 z m 0,0"
       style="fill:#000000;fill-opacity:1;fill-rule:nonzero;stroke:none"
       aria-label="+"
       transform="matrix(1.3333333,0,0,1.3333333,66.856,155.24667)" />
    <path
       id="path4"
       d="m 10.651719,-9.8445469 c 0.585937,-0.9375001 1.125,-1.3476561 2.003906,-1.4179691 0.164063,-0.01172 0.304688,-0.01172 0.304688,-0.328125 0,-0.07031 -0.03516,-0.164062 -0.1875,-0.164062 -0.304688,0 -1.054688,0.03516 -1.359375,0.03516 -0.503907,0 -1.019532,-0.03516 -1.5000005,-0.03516 -0.140625,0 -0.3046875,0 -0.3046875,0.328125 0,0.152344 0.1523438,0.164062 0.2226563,0.164062 0.6328127,0.05859 0.7031247,0.363282 0.7031247,0.574219 0,0.257813 -0.246093,0.65625 -0.257812,0.667969 L 4.874375,-1.4422031 3.6673438,-10.723453 c 0,-0.503906 0.890625,-0.539063 1.078125,-0.539063 0.2578125,0 0.421875,0 0.421875,-0.328125 0,-0.164062 -0.1875,-0.164062 -0.2460938,-0.164062 -0.2929687,0 -0.6328125,0.03516 -0.9257812,0.03516 H 3.0345313 c -1.265625,0 -1.78125,-0.03516 -1.7929688,-0.03516 -0.1054687,0 -0.31640625,0 -0.31640625,0.304687 0,0.1875 0.12890625,0.1875 0.39843755,0.1875 0.8789062,0 0.9257812,0.152344 0.984375,0.585938 l 1.3710937,10.62890612 c 0.058594,0.3515625 0.058594,0.41015625 0.2929688,0.41015625 0.2109375,0 0.2929687,-0.0585938 0.46875,-0.328125 z m 0,0"
       style="fill:#000000;fill-opacity:1;fill-rule:nonzero;stroke:none"
       aria-label="V"
       transform="matrix(1.3333333,0,0,1.3333333,5.3133333,163.212)" />
    <text
       id="text4"
       xml:space="preserve"
       transform="matrix(1.3333333,0,0,1.3333333,18.416,166.656)"><tspan
         id="tspan4"
         style="font-variant:normal;font-weight:normal;font-size:11.9552px;font-family:'Latin Modern Roman';writing-mode:lr-tb;fill:#000000;fill-opacity:1;fill-rule:nonzero;stroke:none"
         x="0"
         y="0">bias</tspan></text>
    <path
       id="path5"
       d="m 0,68.3692 -5.95285,3.50914 11.9057,5.42421 -11.9057,5.42423 11.9057,5.42421 -11.9057,5.42422 11.9057,5.42421 L 0,101.71153"
       style="fill:none;stroke:#000000;stroke-width:1.59404;stroke-linecap:butt;stroke-linejoin:bevel;stroke-miterlimit:10;stroke-dasharray:none;stroke-opacity:1"
       transform="matrix(1.3333333,0,0,-1.3333333,72.925333,194.96667)" />
    <path
       id="path6"
       d="m 6.3391094,-10.582625 c 0.1523437,-0.644531 0.2226562,-0.679688 0.890625,-0.679688 h 1.2421875 c 1.4765625,0 2.5781251,0.445313 2.5781251,1.7929692 0,0.8789063 -0.445313,3.4101563 -3.9023439,3.4101563 H 5.2023906 Z m 2.390625,4.734375 c 2.1328126,-0.46875 3.7968746,-1.8515625 3.7968746,-3.328125 0,-1.347656 -1.359375,-2.578125 -3.7499996,-2.578125 H 4.1125469 c -0.3398438,0 -0.5039063,0 -0.5039063,0.328125 0,0.164062 0.1289063,0.164062 0.4570313,0.164062 1.03125,0 1.03125,0.140625 1.03125,0.328125 0,0.03516 0,0.140625 -0.070312,0.398438 l -2.320313,9.2578125 C 2.5422344,-0.6685625 2.5070781,-0.5045 1.3234844,-0.5045 c -0.39843753,0 -0.51562503,0 -0.51562503,0.328125 0,0.17578125 0.1875,0.17578125 0.24609373,0.17578125 0.3046875,0 0.6679688,-0.03515625 0.9960938,-0.03515625 h 2.0273437 c 0.3164063,0 0.6679688,0.03515625 0.984375,0.03515625 0.140625,0 0.328125,0 0.328125,-0.328125 C 5.3898906,-0.5045 5.2375469,-0.5045 4.9797344,-0.5045 c -1.0546875,0 -1.0546875,-0.12890625 -1.0546875,-0.3046875 0,-0.0234375 0,-0.140625 0.035156,-0.28125 l 1.1484375,-4.6289063 h 2.0742188 c 1.6289062,0 1.9453125,1.03125 1.9453125,1.6054688 0,0.2578125 -0.1757813,0.9257812 -0.2929688,1.3710937 -0.1992187,0.796875 -0.2460937,0.984375 -0.2460937,1.3125 0,1.21875005 0.9960937,1.7929688 2.1562498,1.7929688 1.394532,0 1.992188,-1.7109375 1.992188,-1.9453125 0,-0.1171875 -0.08203,-0.1757813 -0.1875,-0.1757813 -0.140625,0 -0.175781,0.1054688 -0.210938,0.2460938 -0.410156,1.21875 -1.113281,1.5234375 -1.546875,1.5234375 -0.433593,0 -0.703125,-0.1875 -0.703125,-0.9609375 0,-0.4101563 0.199219,-1.9804688 0.222657,-2.0625 0.08203,-0.6328125 0.08203,-0.703125 0.08203,-0.84375 0,-1.2539063 -1.0078128,-1.7929688 -1.6640628,-1.9921875 z m 0,0"
       style="fill:#000000;fill-opacity:1;fill-rule:nonzero;stroke:none"
       aria-label="R"
       transform="matrix(1.3333333,0,0,1.3333333,35.930667,89.422667)" />
    <path
       id="path7"
       d="m 0,0 v 16.44109 m 0,23.81143 v 28.91371 m 0,31.74838 v 12.47263"
       style="fill:none;stroke:#000000;stroke-width:0.79701;stroke-linecap:butt;stroke-linejoin:miter;stroke-miterlimit:10;stroke-dasharray:none;stroke-opacity:1"
       transform="matrix(1.3333333,0,0,-1.3333333,72.925333,194.96667)" />
    <path
       id="path8"
       d="M 0,0 V -9.92134"
       style="fill:none;stroke:#000000;stroke-width:0.79701;stroke-linecap:butt;stroke-linejoin:miter;stroke-miterlimit:10;stroke-dasharray:none;stroke-opacity:1"
       transform="matrix(1.3333333,0,0,-1.3333333,72.925333,194.96667)" />
    <path
       id="path9"
       d="M -5.95285,-9.92134 H 5.95285 L 0,-17.85843 Z"
       style="fill:none;stroke:#000000;stroke-width:1.59404;stroke-linecap:butt;stroke-linejoin:miter;stroke-miterlimit:10;stroke-dasharray:none;stroke-opacity:1"
       transform="matrix(1.3333333,0,0,-1.3333333,72.925333,194.96667)" />
    <path
       id="path10"
       d="M 96.94614,60.6621 H 73.1347 M 96.94614,52.72513 H 73.1347"
       style="fill:none;stroke:#000000;stroke-width:1.59404;stroke-linecap:butt;stroke-linejoin:miter;stroke-miterlimit:10;stroke-dasharray:none;stroke-opacity:1"
       transform="matrix(1.3333333,0,0,-1.3333333,72.925333,194.96667)" />
    <path
       id="path11"
       d="m 12.855727,-11.964781 c 0,-0.152344 -0.117188,-0.152344 -0.152344,-0.152344 -0.03516,0 -0.105469,0 -0.234375,0.175781 l -1.195313,1.441406 c -0.597656,-1.03125 -1.5468747,-1.617187 -2.8359372,-1.617187 -3.7148437,0 -7.58203124,3.7734375 -7.58203124,7.8164062 0,2.8710938 2.01562504,4.66406255 4.53515624,4.66406255 1.3710938,0 2.578125,-0.5859375 3.5742188,-1.42968755 1.5000004,-1.2539062 1.9453124,-2.9296875 1.9453124,-3.0703125 0,-0.1523437 -0.128906,-0.1523437 -0.1875,-0.1523437 -0.152344,0 -0.175781,0.1054687 -0.199219,0.1757812 -0.7968747,2.6835938 -3.1171872,3.9726563 -4.8398434,3.9726563 -1.828125,0 -3.4101563,-1.171875 -3.4101563,-3.609375 0,-0.5507813 0.1757813,-3.5507813 2.1210938,-5.8007813 0.9375,-1.1015622 2.5546875,-2.0742192 4.1953125,-2.0742192 1.8984374,0 2.7421874,1.570313 2.7421874,3.3281255 0,0.4453125 -0.05859,0.8203125 -0.05859,0.890625 0,0.1640625 0.175782,0.1640625 0.222657,0.1640625 0.1875,0 0.210937,-0.023437 0.28125,-0.328125 z m 0,0"
       style="fill:#000000;fill-opacity:1;fill-rule:nonzero;stroke:none"
       aria-label="C"
       transform="matrix(1.3333333,0,0,1.3333333,139.652,127.21867)" />
    <path
       id="path12"
       d="m 85.04042,0 v 52.72513 m 0,7.93697 v 52.72514"
       style="fill:none;stroke:#000000;stroke-width:0.79701;stroke-linecap:butt;stroke-linejoin:miter;stroke-miterlimit:10;stroke-dasharray:none;stroke-opacity:1"
       transform="matrix(1.3333333,0,0,-1.3333333,72.925333,194.96667)" />
    <path
       id="path13"
       d="m 170.08086,45.01802 5.95284,-3.50914 -11.9057,-5.42421 11.9057,-5.42422 -11.9057,-5.42421 11.9057,-5.42423 -11.9057,-5.42421 5.95286,-2.71211"
       style="fill:none;stroke:#000000;stroke-width:1.59404;stroke-linecap:butt;stroke-linejoin:bevel;stroke-miterlimit:10;stroke-dasharray:none;stroke-opacity:1"
       transform="matrix(1.3333333,0,0,-1.3333333,72.925333,194.96667)" />
    <path
       id="path14"
       d="m 6.339,-10.582391 c 0.1523437,-0.644531 0.2226562,-0.679687 0.890625,-0.679687 h 1.2421875 c 1.4765625,0 2.5781245,0.445312 2.5781245,1.7929686 0,0.8789063 -0.445312,3.4101563 -3.9023433,3.4101563 H 5.2022812 Z m 2.390625,4.7343754 c 2.132812,-0.46875 3.796875,-1.8515625 3.796875,-3.328125 0,-1.3476564 -1.359375,-2.5781254 -3.75,-2.5781254 H 4.1124375 c -0.3398438,0 -0.5039063,0 -0.5039063,0.328125 0,0.164063 0.1289063,0.164063 0.4570313,0.164063 1.03125,0 1.03125,0.140625 1.03125,0.328125 0,0.03516 0,0.140625 -0.070312,0.398437 L 2.706188,-1.2777031 c -0.1640625,0.60937497 -0.1992188,0.77343747 -1.3828125,0.77343747 -0.3984375,0 -0.515625,0 -0.515625,0.328125 0,0.175781255 0.1875,0.175781255 0.2460937,0.175781255 0.3046875,0 0.6679688,-0.035156255 0.9960938,-0.035156255 h 2.0273437 c 0.3164063,0 0.6679688,0.035156255 0.984375,0.035156255 0.140625,0 0.328125,0 0.328125,-0.328125005 0,-0.17578125 -0.1523437,-0.17578125 -0.4101562,-0.17578125 -1.0546875,0 -1.0546875,-0.12890625 -1.0546875,-0.3046875 0,-0.0234375 0,-0.140625 0.035156,-0.28124997 L 5.1085312,-5.7191094 H 7.18275 c 1.6289062,0 1.9453125,1.03125 1.9453125,1.6054688 0,0.2578125 -0.1757813,0.9257812 -0.2929688,1.3710937 -0.1992187,0.796875 -0.2460937,0.984375 -0.2460937,1.3125 0,1.21875002 0.9960937,1.79296877 2.15625,1.79296877 1.394531,0 1.992187,-1.71093747 1.992187,-1.94531247 0,-0.1171875 -0.08203,-0.1757813 -0.1875,-0.1757813 -0.140625,0 -0.175781,0.1054688 -0.210937,0.2460938 -0.410156,1.21874997 -1.113281,1.52343747 -1.546875,1.52343747 -0.433594,0 -0.703125,-0.1875 -0.703125,-0.9609375 0,-0.41015627 0.199219,-1.98046877 0.222656,-2.06249997 0.08203,-0.6328125 0.08203,-0.703125 0.08203,-0.84375 0,-1.2539063 -1.007812,-1.7929688 -1.664061,-1.9921875 z m 0,0"
       style="fill:#000000;fill-opacity:1;fill-rule:nonzero;stroke:none"
       aria-label="R"
       transform="matrix(1.3333333,0,0,1.3333333,258.548,161.74267)" />
    <path
       id="path15"
       d="m 0.5158125,1.5221328 c -0.0820313,0.3515625 -0.12890625,0.4453125 -0.62109375,0.4453125 -0.140625,0 -0.26953125,0 -0.26953125,0.234375 0,0.023437 0.0117188,0.1171875 0.15234375,0.1171875 0.15234375,0 0.31640625,-0.023437 0.46875,-0.023437 h 0.515625 c 0.25781255,0 0.86718755,0.023437 1.11328125,0.023437 0.070312,0 0.2226563,0 0.2226563,-0.2109375 0,-0.140625 -0.09375,-0.140625 -0.2929688,-0.140625 -0.5507812,0 -0.5859375,-0.082031 -0.5859375,-0.1757812 0,-0.140625 0.5390625,-2.20312504 0.609375,-2.47265629 0.1289063,0.328125 0.4570313,0.796875 1.078125,0.796875 1.3476563,0 2.8125,-1.75781251 2.8125,-3.51562501 0,-1.1015625 -0.6210937,-1.875 -1.5234375,-1.875 -0.7617187,0 -1.40625,0.7382813 -1.546875,0.9140625 -0.09375,-0.5976562 -0.5507812,-0.9140625 -1.03125,-0.9140625 -0.3515625,0 -0.62109375,0.1640625 -0.85546875,0.6210938 -0.2109375,0.4335937 -0.375,1.1601562 -0.375,1.2070312 0,0.046875 0.046875,0.1054688 0.12890625,0.1054688 0.09375,0 0.10546875,-0.011719 0.17578125,-0.28125 0.17578125,-0.703125 0.41015625,-1.40625 0.89062505,-1.40625 0.2695312,0 0.3632812,0.1875 0.3632812,0.5390625 0,0.2929687 -0.035156,0.4101562 -0.082031,0.6328125 z m 2.0625,-5.25 c 0.082031,-0.3398437 0.421875,-0.6796875 0.609375,-0.8554687 0.140625,-0.1171875 0.5273438,-0.4453125 0.984375,-0.4453125 0.5273438,0 0.7617188,0.515625 0.7617188,1.1367187 0,0.5742188 -0.328125,1.9335938 -0.6328125,2.5546875 -0.2929688,0.64453126 -0.84375,1.21875001 -1.3945313,1.21875001 -0.8085937,0 -0.9492187,-1.03125001 -0.9492187,-1.07812501 0,-0.035156 0.023437,-0.1289062 0.035156,-0.1875 z m 0,0"
       style="fill:#000000;fill-opacity:1;fill-rule:nonzero;stroke:none"
       aria-label="p"
       transform="matrix(1.3333333,0,0,1.3333333,275.656,165.18533)" />
    <path
       id="path16"
       d="m 169.76205,97.74316 c 3.28771,0 5.95285,-1.67042 5.95285,-3.73104 0,-2.06064 -2.66514,-3.73105 -5.95285,-3.73105 -1.64376,0 -2.97627,0.66624 -2.97627,1.48813 0,0.82188 1.33251,1.48814 2.97627,1.48814 3.28771,0 5.95285,-1.67043 5.95285,-3.73106 0,-2.06063 -2.66514,-3.73105 -5.95285,-3.73105 -1.64376,0 -2.97627,0.66626 -2.97627,1.48814 0,0.82187 1.33251,1.48813 2.97627,1.48813 3.28771,0 5.95285,-1.67043 5.95285,-3.73105 0,-2.06062 -2.66514,-3.73105 -5.95285,-3.73105 -1.64376,0 -2.97627,0.66626 -2.97627,1.48813 0,0.82189 1.33251,1.48815 2.97627,1.48815 3.28771,0 5.95285,-1.67043 5.95285,-3.73105 0,-2.06064 -2.66514,-3.73107 -5.95285,-3.73107 -1.64376,0 -2.97627,0.66626 -2.97627,1.48814 0,0.82189 1.33251,1.48815 2.97627,1.48815 3.28771,0 5.95285,-1.67042 5.95285,-3.73106 0,-2.06063 -2.66514,-3.73105 -5.95285,-3.73105"
       style="fill:none;stroke:#000000;stroke-width:1.59404;stroke-linecap:butt;stroke-linejoin:bevel;stroke-miterlimit:10;stroke-dasharray:none;stroke-opacity:1"
       transform="matrix(1.3333333,0,0,-1.3333333,72.925333,194.96667)" />
    <path
       id="path17"
       d="m 6.3176797,-10.430281 c 0.1523437,-0.65625 0.2109375,-0.832032 1.7226562,-0.832032 0.46875,0 0.5859375,0 0.5859375,-0.328125 0,-0.164062 -0.1875,-0.164062 -0.2578125,-0.164062 -0.3398437,0 -0.7382812,0.03516 -1.0898437,0.03516 h -2.296875 c -0.328125,0 -0.7148438,-0.03516 -1.0429688,-0.03516 -0.1289062,0 -0.328125,0 -0.328125,0.328125 0,0.164062 0.1640625,0.164062 0.421875,0.164062 1.0429688,0 1.0429688,0.140625 1.0429688,0.328125 0,0.03516 0,0.140625 -0.070312,0.398438 l -2.3203125,9.2578125 c -0.1523438,0.609375 -0.1875,0.7734375 -1.3945313,0.7734375 -0.32812496,0 -0.49218746,0 -0.49218746,0.31640625 0,0.1875 0.09375,0.1875 0.44531246,0.1875 h 7.7109375 c 0.375,0 0.3984375,-0.01171875 0.515625,-0.328125 L 10.794242,-3.9966875 c 0.03516,-0.082031 0.07031,-0.1875 0.07031,-0.234375 0,-0.1054688 -0.08203,-0.1757813 -0.175782,-0.1757813 -0.01172,0 -0.105468,0 -0.140625,0.070312 -0.02344,0.011719 -0.02344,0.046875 -0.164062,0.375 C 9.8333047,-2.4498125 9.0598672,-0.5045 6.1418984,-0.5045 H 4.4895547 c -0.234375,0 -0.2695313,0 -0.375,-0.0117188 -0.1875,-0.0234375 -0.2109375,-0.046875 -0.2109375,-0.1875 0,-0.12890625 0.035156,-0.22265625 0.070312,-0.3867187 z m 0,0"
       style="fill:#000000;fill-opacity:1;fill-rule:nonzero;stroke:none"
       aria-label="L"
       transform="matrix(1.3333333,0,0,1.3333333,263.70533,89.422667)" />
    <path
       id="path18"
       d="m 170.08086,0 v 12.47261 m 0,31.74839 v 28.9137 m 0,23.81144 v 16.4411"
       style="fill:none;stroke:#000000;stroke-width:0.79701;stroke-linecap:butt;stroke-linejoin:miter;stroke-miterlimit:10;stroke-dasharray:none;stroke-opacity:1"
       transform="matrix(1.3333333,0,0,-1.3333333,72.925333,194.96667)" />
    <path
       id="path19"
       d="M 267.027,60.6621 H 243.21556 M 267.027,52.72513 h -23.81144"
       style="fill:none;stroke:#000000;stroke-width:1.59404;stroke-linecap:butt;stroke-linejoin:miter;stroke-miterlimit:10;stroke-dasharray:none;stroke-opacity:1"
       transform="matrix(1.3333333,0,0,-1.3333333,72.925333,194.96667)" />
    <path
       id="path20"
       d="m 12.854172,-11.965773 c 0,-0.152344 -0.117188,-0.152344 -0.152344,-0.152344 -0.03516,0 -0.105469,0 -0.234375,0.175781 l -1.195312,1.441406 c -0.597657,-1.03125 -1.5468754,-1.617187 -2.8359379,-1.617187 -3.7148437,0 -7.58203122,3.7734373 -7.58203122,7.8164061 0,2.8710937 2.01562502,4.66406246 4.53515622,4.66406246 1.3710938,0 2.578125,-0.5859375 3.5742188,-1.42968746 1.5000001,-1.2539063 1.9453121,-2.9296875 1.9453121,-3.0703125 0,-0.1523438 -0.128906,-0.1523438 -0.1875,-0.1523438 -0.152343,0 -0.175781,0.1054688 -0.199218,0.1757813 -0.7968754,2.6835937 -3.1171879,3.97265621 -4.8398441,3.97265621 -1.828125,0 -3.4101563,-1.17187501 -3.4101563,-3.60937501 0,-0.5507812 0.1757813,-3.5507812 2.1210938,-5.8007812 0.9375,-1.1015621 2.5546875,-2.0742191 4.1953125,-2.0742191 1.8984371,0 2.7421871,1.570313 2.7421871,3.3281253 0,0.4453125 -0.05859,0.8203125 -0.05859,0.890625 0,0.1640625 0.175781,0.1640625 0.222656,0.1640625 0.1875,0 0.210937,-0.023437 0.28125,-0.328125 z m 0,0"
       style="fill:#000000;fill-opacity:1;fill-rule:nonzero;stroke:none"
       aria-label="C"
       transform="matrix(1.3333333,0,0,1.3333333,350.96267,125.49733)" />
    <text
       id="text20"
       xml:space="preserve"
       transform="matrix(1.3333333,0,0,1.3333333,367.044,128.94)"><tspan
         id="tspan20"
         style="font-variant:normal;font-weight:normal;font-size:11.9552px;font-family:'Latin Modern Roman';writing-mode:lr-tb;fill:#000000;fill-opacity:1;fill-rule:nonzero;stroke:none"
         x="0"
         y="0">in</tspan></text>
    <path
       id="path21"
       d="m 255.12128,0 v 52.72513 m 0,7.93697 v 52.72514"
       style="fill:none;stroke:#000000;stroke-width:0.79701;stroke-linecap:butt;stroke-linejoin:miter;stroke-miterlimit:10;stroke-dasharray:none;stroke-opacity:1"
       transform="matrix(1.3333333,0,0,-1.3333333,72.925333,194.96667)" />
    <path
       id="path22"
       d="m 255.12128,113.38724 h 14.45698 m 27.77964,0 h 14.457 14.45698 m 27.77963,0 h 14.457"
       style="fill:none;stroke:#000000;stroke-width:0.79701;stroke-linecap:butt;stroke-linejoin:miter;stroke-miterlimit:10;stroke-dasharray:none;stroke-opacity:1"
       transform="matrix(1.3333333,0,0,-1.3333333,72.925333,194.96667)" />
    <path
       id="path23"
       d="M 269.57826,128.66612 297.3579,113.38724 269.57826,98.10835 Z"
       style="fill:none;stroke:#000000;stroke-width:1.59404;stroke-linecap:butt;stroke-linejoin:miter;stroke-miterlimit:10;stroke-dasharray:none;stroke-opacity:1"
       transform="matrix(1.3333333,0,0,-1.3333333,72.925333,194.96667)" />
    <path
       id="path24"
       d="m 2.92875,-1.9098672 c -0.609375,1.01953126 -1.1953125,1.35937501 -2.015625,1.40625001 -0.1875,0.0234375 -0.328125,0.0234375 -0.328125,0.328125 0,0.10546875 0.0820313,0.1757812525 0.2109375,0.1757812525 0.3046875,0 1.078125,-0.0351562525 1.3945313,-0.0351562525 0.4921875,0 1.0429687,0.0351562525 1.5234375,0.0351562525 0.1054687,0 0.3164062,0 0.3164062,-0.3281250025 0,-0.15234375 -0.140625,-0.17578125 -0.2460937,-0.17578125 -0.3984375,-0.0351563 -0.7265625,-0.1640625 -0.7265625,-0.58593751 0,-0.234375 0.1054687,-0.421875 0.328125,-0.8085937 l 1.3125,-2.1679688 h 4.3945312 c 0.011719,0.1640625 0.011719,0.2929688 0.035156,0.4570313 0.046875,0.4453125 0.2578125,2.2265625 0.2578125,2.5546875 0,0.51562496 -0.8789063,0.55078121 -1.1601563,0.55078121 -0.1875,0 -0.375,0 -0.375,0.31640625 0,0.1875000025 0.1523438,0.1875000025 0.2578125,0.1875000025 0.2929688,0 0.6328125,-0.0351562525 0.9257813,-0.0351562525 h 0.9843755 c 1.054687,0 1.804687,0.0351562525 1.828125,0.0351562525 0.117187,0 0.304687,0 0.304687,-0.3281250025 0,-0.17578125 -0.152343,-0.17578125 -0.410156,-0.17578125 -0.949219,0 -0.960937,-0.15234375 -1.019531,-0.66796871 L 9.67875,-11.91768 c -0.035156,-0.339843 -0.1054687,-0.375 -0.2929687,-0.375 -0.1757813,0 -0.28125,0.03516 -0.4335938,0.292969 z m 2.0625,-2.6484375 3.4570313,-5.7890623 0.5859375,5.7890623 z m 0,0"
       style="fill:#000000;fill-opacity:1;fill-rule:nonzero;stroke:none"
       aria-label="A"
       transform="matrix(1.3333333,0,0,1.3333333,438.22,18.261333)" />
    <path
       id="path25"
       d="m 3.4441172,-7.6647188 c 0,-0.2695312 0,-0.28125 -0.2460938,-0.28125 -0.28125,0.3164063 -0.8789062,0.7617188 -2.109375,0.7617188 v 0.3515625 c 0.2695313,0 0.8671875,0 1.5234375,-0.3164063 v 6.2226563 c 0,0.43359375 -0.035156,0.57421875 -1.078125,0.57421875 h -0.375 v 0.3515625 c 0.3164063,-0.0234375 1.4765625,-0.0234375 1.875,-0.0234375 0.3984375,0 1.546875,0 1.8632813,0.0234375 v -0.3515625 H 4.5339609 c -1.0546875,0 -1.0898437,-0.140625 -1.0898437,-0.57421875 z m 0,0"
       style="fill:#000000;fill-opacity:1;fill-rule:nonzero;stroke:none"
       aria-label="1"
       transform="matrix(1.3333333,0,0,1.3333333,455.068,21.704)" />
    <path
       id="path26"
       d="M 326.27188,128.66612 354.05151,113.38724 326.27188,98.10835 Z"
       style="fill:none;stroke:#000000;stroke-width:1.59404;stroke-linecap:butt;stroke-linejoin:miter;stroke-miterlimit:10;stroke-dasharray:none;stroke-opacity:1"
       transform="matrix(1.3333333,0,0,-1.3333333,72.925333,194.96667)" />
    <path
       id="path27"
       d="m 2.9310625,-1.9098672 c -0.609375,1.01953126 -1.1953125,1.35937501 -2.015625,1.40625001 -0.1875,0.0234375 -0.328125,0.0234375 -0.328125,0.328125 0,0.10546875 0.0820313,0.1757812525 0.2109375,0.1757812525 0.3046875,0 1.078125,-0.0351562525 1.3945312,-0.0351562525 0.4921875,0 1.0429688,0.0351562525 1.5234375,0.0351562525 0.1054688,0 0.3164063,0 0.3164063,-0.3281250025 0,-0.15234375 -0.140625,-0.17578125 -0.2460938,-0.17578125 -0.3984375,-0.0351563 -0.7265625,-0.1640625 -0.7265625,-0.58593751 0,-0.234375 0.1054688,-0.421875 0.328125,-0.8085937 l 1.3125,-2.1679688 H 9.095125 c 0.011719,0.1640625 0.011719,0.2929688 0.035156,0.4570313 0.046875,0.4453125 0.2578125,2.2265625 0.2578125,2.5546875 0,0.51562496 -0.8789062,0.55078121 -1.1601562,0.55078121 -0.1875,0 -0.375,0 -0.375,0.31640625 0,0.1875000025 0.1523437,0.1875000025 0.2578125,0.1875000025 0.2929687,0 0.6328125,-0.0351562525 0.9257812,-0.0351562525 h 0.984375 c 1.054688,0 1.804688,0.0351562525 1.828125,0.0351562525 0.117188,0 0.304688,0 0.304688,-0.3281250025 0,-0.17578125 -0.152344,-0.17578125 -0.410157,-0.17578125 -0.949218,0 -0.960937,-0.15234375 -1.019531,-0.66796871 L 9.6810625,-11.91768 c -0.035156,-0.339843 -0.1054688,-0.375 -0.2929688,-0.375 -0.1757812,0 -0.28125,0.03516 -0.4335937,0.292969 z m 2.0625,-2.6484375 3.4570312,-5.7890623 0.5859375,5.7890623 z m 0,0"
       style="fill:#000000;fill-opacity:1;fill-rule:nonzero;stroke:none"
       aria-label="A"
       transform="matrix(1.3333333,0,0,1.3333333,513.81067,18.261333)" />
    <path
       id="path28"
       d="M 5.2628359,-2.0045625 H 4.9933047 c -0.035156,0.1992187 -0.1289063,0.8554687 -0.2460938,1.04296875 -0.082031,0.1171875 -0.7617187,0.1171875 -1.125,0.1171875 H 1.4073672 C 1.7354922,-1.1256563 2.4620547,-1.887375 2.7784609,-2.1803438 c 1.8164063,-1.6640625 2.484375,-2.2851562 2.484375,-3.46875 0,-1.3828125 -1.0898437,-2.296875 -2.4726562,-2.296875 -1.3945313,0 -2.20312501,1.1835938 -2.20312501,2.203125 0,0.609375 0.52734371,0.609375 0.56250001,0.609375 0.2460937,0 0.5625,-0.1757812 0.5625,-0.5625 0,-0.328125 -0.234375,-0.5507812 -0.5625,-0.5507812 -0.1054688,0 -0.1289063,0 -0.16406251,0.011719 0.22265621,-0.8203128 0.86718751,-1.371094 1.64062501,-1.371094 1.0195312,0 1.640625,0.8554687 1.640625,1.9570312 0,1.0078125 -0.5859375,1.8984375 -1.265625,2.6601563 l -2.41406251,2.70703125 v 0.28125 H 4.9464297 Z m 0,0"
       style="fill:#000000;fill-opacity:1;fill-rule:nonzero;stroke:none"
       aria-label="2"
       transform="matrix(1.3333333,0,0,1.3333333,530.65867,21.704)" />
    <path
       id="path29"
       d="M 0,0 H 255.12128 M 0,113.38724 h 255.12128"
       style="fill:none;stroke:#000000;stroke-width:0.79701;stroke-linecap:butt;stroke-linejoin:miter;stroke-miterlimit:10;stroke-dasharray:none;stroke-opacity:1"
       transform="matrix(1.3333333,0,0,-1.3333333,72.925333,194.96667)" />
    <path
       id="path30"
       d="m 368.50851,113.38724 h 7.0867 m 0,0 h 7.08671"
       style="fill:none;stroke:#000000;stroke-width:0.79701;stroke-linecap:butt;stroke-linejoin:miter;stroke-miterlimit:10;stroke-dasharray:none;stroke-opacity:1"
       transform="matrix(1.3333333,0,0,-1.3333333,72.925333,194.96667)" />
    <path
       id="path31"
       d="m 384.26906,113.38724 c 0,0.87656 -0.71059,1.58714 -1.58714,1.58714 -0.87656,0 -1.58715,-0.71058 -1.58715,-1.58714 0,-0.87657 0.71059,-1.58716 1.58715,-1.58716 0.87655,0 1.58714,0.71059 1.58714,1.58716 z"
       style="fill:#ffffff;fill-opacity:1;fill-rule:nonzero;stroke:#000000;stroke-width:0.79701;stroke-linecap:butt;stroke-linejoin:miter;stroke-miterlimit:10;stroke-dasharray:none;stroke-opacity:1"
       transform="matrix(1.3333333,0,0,-1.3333333,72.925333,194.96667)" />
    <path
       id="path32"
       d="m 10.932523,-11.965242 c 0,-0.152344 -0.117187,-0.152344 -0.152343,-0.152344 -0.07031,0 -0.09375,0.01172 -0.292969,0.269531 -0.105469,0.128907 -0.8085938,1.019532 -0.8320313,1.03125 -0.5625,-1.113281 -1.6992188,-1.300781 -2.4257813,-1.300781 -2.1914062,0 -4.171875,1.992188 -4.171875,3.9375001 0,1.2890625 0.7851563,2.0507812 1.6289063,2.34375 0.1875,0.070312 1.1953125,0.3398437 1.7109375,0.46875 0.8789062,0.234375 1.1015625,0.3046875 1.4648437,0.6796875 0.070312,0.09375 0.421875,0.4921875 0.421875,1.3007812 0,1.59375 -1.4882812,3.24609376 -3.2109375,3.24609376 -1.40625,0 -2.9765625,-0.59765625 -2.9765625,-2.53124996 0,-0.328125 0.070312,-0.7382813 0.1289063,-0.9140625 0,-0.046875 0.011719,-0.1289063 0.011719,-0.1640625 0,-0.070312 -0.035156,-0.1523438 -0.1757812,-0.1523438 -0.1523438,0 -0.1640625,0.023437 -0.234375,0.3164063 l -0.87890626,3.53906246 c 0,0.01171875 -0.0703125,0.234375 -0.0703125,0.2578125 0,0.15234375 0.14062496,0.15234375 0.17578126,0.15234375 0.058594,0 0.082031,-0.0234375 0.2929687,-0.28125 l 0.7851563,-1.03125 c 0.4101562,0.62109375 1.3125,1.3125 2.90625,1.3125 2.2265625,0 4.2539062,-2.15625001 4.2539062,-4.30078121 0,-0.7265625 -0.1640625,-1.359375 -0.8203125,-2.0039063 C 8.1083047,-6.3050859 7.7918984,-6.3871172 6.2098672,-6.7972734 5.0614297,-7.1136797 4.9090859,-7.1605547 4.5926797,-7.4418047 c -0.2929688,-0.2929687 -0.515625,-0.703125 -0.515625,-1.2890625 0,-1.4414058 1.4648437,-2.9296878 3.1054687,-2.9296878 1.6875,0 2.4726563,1.042969 2.4726563,2.6718753 0,0.4453125 -0.082031,0.9140625 -0.082031,0.984375 0,0.1523438 0.140625,0.1523438 0.1875,0.1523438 0.1523438,0 0.1757813,-0.046875 0.234375,-0.328125 z m 0,0"
       style="fill:#000000;fill-opacity:1;fill-rule:nonzero;stroke:none"
       aria-label="S"
       transform="matrix(1.3333333,0,0,1.3333333,589.00533,48.356)" />
    <path
       id="path33"
       d="m 5.4610313,-4.4642578 c 0,-0.7617188 -0.375,-0.8085938 -0.4804688,-0.8085938 -0.28125,0 -0.5507812,0.2929688 -0.5507812,0.5273438 0,0.140625 0.09375,0.2226562 0.140625,0.28125 0.1171875,0.1054687 0.421875,0.421875 0.421875,1.0429687 0,0.5039063 -0.7148438,3.30468754 -2.1445313,3.30468754 -0.7265625,0 -0.8789062,-0.609375 -0.8789062,-1.05468754 0,-0.5976562 0.28125,-1.4296875 0.5976562,-2.296875 0.1992188,-0.4921875 0.2460938,-0.609375 0.2460938,-0.84375 0,-0.5039062 -0.3632813,-0.9609375 -0.9492188,-0.9609375 -1.1015625,0 -1.53515625,1.734375 -1.53515625,1.828125 0,0.046875 0.046875,0.1054688 0.12890625,0.1054688 0.10546875,0 0.1171875,-0.046875 0.1640625,-0.2109375 0.29296875,-1.03125 0.75,-1.4765625 1.2070313,-1.4765625 0.1054687,0 0.3164062,0 0.3164062,0.3867187 0,0.3164063 -0.140625,0.65625 -0.3164062,1.1132813 C 1.254,-1.9916016 1.254,-1.6283203 1.254,-1.3353516 c 0,0.2578125 0.035156,0.75000004 0.4101563,1.08984379 0.4335937,0.36328125 1.03125,0.36328125 1.1367187,0.36328125 1.9804688,0 2.6601563,-3.90234374 2.6601563,-4.58203124 z m 0,0"
       style="fill:#000000;fill-opacity:1;fill-rule:nonzero;stroke:none"
       aria-label="v"
       transform="matrix(1.3333333,0,0,1.3333333,602.828,51.8)" />
    <path
       id="path34"
       d="m 2.3332181,0.04746094 c 0,-0.69140625 -0.2226562,-1.20703124 -0.7148437,-1.20703124 -0.3867188,0 -0.5742188,0.31640624 -0.5742188,0.57421874 0,0.2578125 0.1757813,0.5859374975 0.5859375,0.5859374975 0.1523438,0 0.28125,-0.0468749975 0.3867188,-0.1523437475 0.023437,-0.0234375 0.035156,-0.0234375 0.046875,-0.0234375 0.035156,0 0.035156,0.1640625 0.035156,0.22265625 0,0.3984375 -0.082031,1.17187496 -0.7734375,1.94531246 -0.1289062,0.1523438 -0.1289062,0.1757813 -0.1289062,0.1992188 0,0.058594 0.058594,0.1171875 0.1171875,0.1171875 0.09375,0 1.0195312,-0.890625 1.0195314,-2.26171876 z m 0,0"
       style="fill:#000000;fill-opacity:1;fill-rule:nonzero;stroke:none"
       aria-label=","
       transform="matrix(1.3333333,0,0,1.3333333,610.93201,51.8)" />
    <text
       id="text34"
       xml:space="preserve"
       transform="matrix(1.3333333,0,0,1.3333333,615.28133,51.8)"><tspan
         id="tspan34"
         style="font-variant:normal;font-weight:normal;font-size:11.9552px;font-family:'Latin Modern Roman';writing-mode:lr-tb;fill:#000000;fill-opacity:1;fill-rule:nonzero;stroke:none"
         x="0"
         y="0">out</tspan></text>
  </g>
</svg>
