<?xml version="1.0" encoding="UTF-8" standalone="no"?>
<!-- Created with Inkscape (http://www.inkscape.org/) -->

<svg
   version="1.1"
   id="svg2"
   xml:space="preserve"
   width="349.71732"
   height="276.71466"
   viewBox="0 0 349.71732 276.71466"
   sodipodi:docname="pulse.pdf"
   xmlns:inkscape="http://www.inkscape.org/namespaces/inkscape"
   xmlns:sodipodi="http://sodipodi.sourceforge.net/DTD/sodipodi-0.dtd"
   xmlns="http://www.w3.org/2000/svg"
   xmlns:svg="http://www.w3.org/2000/svg"><defs
     id="defs6" /><sodipodi:namedview
     id="namedview4"
     pagecolor="#505050"
     bordercolor="#eeeeee"
     borderopacity="1"
     inkscape:pageshadow="0"
     inkscape:pageopacity="0"
     inkscape:pagecheckerboard="0" /><g
     id="g8"
     inkscape:groupmode="layer"
     inkscape:label="pulse"
     transform="matrix(1.3333333,0,0,-1.3333333,0,276.71467)"><g
       id="g10"
       transform="translate(115.159,99.412)"><g
         id="g12"><g
           id="g14"><g
             id="g16"><path
               d="M 0,0 V -85.04042 H 113.38724 V 0 Z"
               style="fill:#122d8d;fill-opacity:1;fill-rule:nonzero;stroke:#000000;stroke-width:0.3985;stroke-linecap:butt;stroke-linejoin:miter;stroke-miterlimit:10;stroke-dasharray:none;stroke-opacity:1"
               id="path18" /></g><g
             id="g20"><path
               d="M 0,-85.04042 V 74.08138"
               style="fill:none;stroke:#000000;stroke-width:1.99255;stroke-linecap:butt;stroke-linejoin:miter;stroke-miterlimit:10;stroke-dasharray:none;stroke-opacity:1"
               id="path22" /><g
               id="g24"
               transform="rotate(90,-37.04069,37.04069)"><g
                 id="g26"><path
                   d="M 6.85132,0 C 6.00995,0.21417 2.31152,1.42789 0,2.74866 V -2.74866 C 2.31152,-1.42789 6.00995,-0.21417 6.85132,0 Z"
                   style="fill:#000000;fill-opacity:1;fill-rule:nonzero;stroke:#000000;stroke-width:1.99255;stroke-linecap:butt;stroke-linejoin:miter;stroke-miterlimit:10;stroke-dasharray:none;stroke-opacity:1"
                   id="path28" /></g></g><g
               id="g30"><g
                 id="g32"
                 transform="translate(-8.094,90.02)"><g
                   id="g34"><g
                     id="g36"
                     transform="translate(-107.065,-189.432)"><text
                       transform="matrix(1,0,0,-1,107.065,189.432)"
                       style="font-variant:normal;font-weight:normal;font-size:20.6625px;font-family:CMMI12;-inkscape-font-specification:CMMI12;writing-mode:lr-tb;fill:#000000;fill-opacity:1;fill-rule:nonzero;stroke:none"
                       id="text40"><tspan
                         x="0"
                         y="0"
                         id="tspan38">E</tspan></text><g
                       id="g42"
                       transform="translate(107.065,189.432)" /></g></g><g
                   id="g44"
                   transform="translate(8.094,-90.02)" /></g></g></g><g
             id="g46"><path
               d="m 0,0 h -28.3468 m 0,0 h -28.34682 v -13.46465 m 0,-29.76431 v -13.46466"
               style="fill:none;stroke:#000000;stroke-width:1.19553;stroke-linecap:butt;stroke-linejoin:miter;stroke-miterlimit:10;stroke-dasharray:none;stroke-opacity:1"
               id="path48" /><g
               id="g50" /><g
               id="g52" /><g
               id="g54"><g
                 id="g56"
                 transform="rotate(180,-14.1735,0)"><g
                   id="g58" /><g
                   id="g60"
                   transform="translate(28.347)" /></g></g><g
               id="g62" /><g
               id="g64" /><g
               id="g66"><g
                 id="g68"><g
                   id="g70" /></g><g
                 id="g72"><g
                   id="g74"><path
                     d="M 1.58714,0 C 1.58714,0.87656 0.87656,1.58714 0,1.58714 -0.87656,1.58714 -1.58714,0.87656 -1.58714,0 c 0,-0.87656 0.71058,-1.58714 1.58714,-1.58714 0.87656,0 1.58714,0.71058 1.58714,1.58714 z"
                     style="fill:#000000;fill-opacity:1;fill-rule:nonzero;stroke:#000000;stroke-width:1.19553;stroke-linecap:butt;stroke-linejoin:miter;stroke-miterlimit:10;stroke-dasharray:none;stroke-opacity:1"
                     id="path76" /></g></g></g><g
               id="g78" /><g
               id="g80" /><g
               id="g82"><path
                 d="m -41.81145,-28.3468 c 0,8.21928 -6.66288,14.88215 -14.88217,14.88215 -8.21928,0 -14.88216,-6.66287 -14.88216,-14.88215 0,-8.21929 6.66288,-14.88216 14.88216,-14.88216 8.21929,0 14.88217,6.66287 14.88217,14.88216 z"
                 style="fill:none;stroke:#000000;stroke-width:2.39105;stroke-linecap:butt;stroke-linejoin:miter;stroke-miterlimit:10;stroke-dasharray:none;stroke-opacity:1"
                 id="path84" /><g
                 id="g86"><path
                   d="m -64.13469,-28.3468 c 1.21291,1.90487 2.3737,3.72053 3.72054,3.72053 1.34681,0 2.50761,-1.81564 3.72052,-3.72053 1.2129,-1.9049 2.3737,-3.72054 3.72053,-3.72054 1.34682,0 2.50762,1.81564 3.72054,3.72054"
                   style="fill:none;stroke:#000000;stroke-width:2.39105;stroke-linecap:butt;stroke-linejoin:miter;stroke-miterlimit:10;stroke-dasharray:none;stroke-opacity:1"
                   id="path88" /></g><g
                 id="g90"
                 transform="rotate(-90,-42.52,14.173)"><g
                   id="g92" /><g
                   id="g94"
                   transform="translate(56.693,28.347)" /></g></g><g
               id="g96" /><g
               id="g98" /><g
               id="g100" /><g
               id="g102"><g
                 id="g104"
                 transform="translate(-113.227,-30.923)"><g
                   id="g106"><g
                     id="g108"
                     transform="translate(-1.932,-68.489)"><text
                       transform="matrix(1,0,0,-1,1.932,68.489)"
                       style="font-variant:normal;font-weight:normal;font-size:20.6625px;font-family:CMMI12;-inkscape-font-specification:CMMI12;writing-mode:lr-tb;fill:#000000;fill-opacity:1;fill-rule:nonzero;stroke:none"
                       id="text112"><tspan
                         x="0"
                         y="0"
                         id="tspan110">V</tspan></text><text
                       transform="matrix(1,0,0,-1,18.223,68.489)"
                       style="font-variant:normal;font-weight:normal;font-size:20.6625px;font-family:CMR17;-inkscape-font-specification:CMR17;writing-mode:lr-tb;fill:#000000;fill-opacity:1;fill-rule:nonzero;stroke:none"
                       id="text116"><tspan
                         x="0"
                         y="0"
                         id="tspan114">(</tspan></text><text
                       transform="matrix(1,0,0,-1,25.54,68.489)"
                       style="font-variant:normal;font-weight:normal;font-size:20.6625px;font-family:CMMI12;-inkscape-font-specification:CMMI12;writing-mode:lr-tb;fill:#000000;fill-opacity:1;fill-rule:nonzero;stroke:none"
                       id="text120"><tspan
                         x="0"
                         y="0"
                         id="tspan118">t</tspan></text><text
                       transform="matrix(1,0,0,-1,32.846,68.489)"
                       style="font-variant:normal;font-weight:normal;font-size:20.6625px;font-family:CMR17;-inkscape-font-specification:CMR17;writing-mode:lr-tb;fill:#000000;fill-opacity:1;fill-rule:nonzero;stroke:none"
                       id="text124"><tspan
                         x="0"
                         y="0"
                         id="tspan122">)</tspan></text><g
                       id="g126"
                       transform="translate(1.932,68.489)" /></g></g><g
                   id="g128"
                   transform="translate(113.227,30.923)" /></g></g><g
               id="g130" /><g
               id="g132" /><g
               id="g134" /><g
               id="g136" /><g
               id="g138" /><g
               id="g140" /><g
               id="g142" /><g
               id="g144" /><g
               id="g146" /><g
               id="g148"><g
                 id="g150"
                 transform="translate(-56.693,-56.693)"><g
                   id="g152" /><g
                   id="g154"
                   transform="translate(56.693,56.693)" /></g><g
                 id="g156"><g
                   id="g158"><path
                     d="m -56.69362,-56.69362 v -9.92134"
                     style="fill:none;stroke:#000000;stroke-width:1.19553;stroke-linecap:butt;stroke-linejoin:miter;stroke-miterlimit:10;stroke-dasharray:none;stroke-opacity:1"
                     id="path160" /><path
                     d="m -62.64647,-66.61496 h 11.90572 l -5.95287,-7.93709 z"
                     style="fill:none;stroke:#000000;stroke-width:2.39105;stroke-linecap:butt;stroke-linejoin:miter;stroke-miterlimit:10;stroke-dasharray:none;stroke-opacity:1"
                     id="path162" /></g></g></g></g><g
             id="g164"><path
               d="M 42.5202,14.17339 H 88.25478"
               style="fill:none;stroke:#000000;stroke-width:1.99255;stroke-linecap:butt;stroke-linejoin:miter;stroke-miterlimit:10;stroke-dasharray:none;stroke-opacity:1"
               id="path166" /><g
               id="g168"
               transform="translate(88.25478,14.17339)"><g
                 id="g170"><path
                   d="M 6.85132,0 C 6.00995,0.21417 2.31152,1.42789 0,2.74866 V -2.74866 C 2.31152,-1.42789 6.00995,-0.21417 6.85132,0 Z"
                   style="fill:#000000;fill-opacity:1;fill-rule:nonzero;stroke:#000000;stroke-width:1.99255;stroke-linecap:butt;stroke-linejoin:miter;stroke-miterlimit:10;stroke-dasharray:none;stroke-opacity:1"
                   id="path172" /></g></g></g><g
             id="g174"><path
               d="m 33.82632,14.17339 c 0,3.02629 -2.45322,5.47952 -5.47952,5.47952 -3.02629,0 -5.47952,-2.45323 -5.47952,-5.47952 0,-3.02629 2.45323,-5.47953 5.47952,-5.47953 3.0263,0 5.47952,2.45324 5.47952,5.47953 z"
               style="fill:#5bcefa;fill-opacity:1;fill-rule:nonzero;stroke:#000000;stroke-width:0.3985;stroke-linecap:butt;stroke-linejoin:miter;stroke-miterlimit:10;stroke-dasharray:none;stroke-opacity:1"
               id="path176" /></g><g
             id="g178"><path
               d="m 33.82632,28.3468 c 0,3.0263 -2.45322,5.47952 -5.47952,5.47952 -3.02629,0 -5.47952,-2.45322 -5.47952,-5.47952 0,-3.02629 2.45323,-5.47952 5.47952,-5.47952 3.0263,0 5.47952,2.45323 5.47952,5.47952 z"
               style="fill:#5bcefa;fill-opacity:1;fill-rule:nonzero;stroke:#000000;stroke-width:0.3985;stroke-linecap:butt;stroke-linejoin:miter;stroke-miterlimit:10;stroke-dasharray:none;stroke-opacity:1"
               id="path180" /></g><g
             id="g182"><path
               d="m 33.82632,42.5202 c 0,3.0263 -2.45322,5.47953 -5.47952,5.47953 -3.02629,0 -5.47952,-2.45323 -5.47952,-5.47953 0,-3.02629 2.45323,-5.47952 5.47952,-5.47952 3.0263,0 5.47952,2.45323 5.47952,5.47952 z"
               style="fill:#5bcefa;fill-opacity:1;fill-rule:nonzero;stroke:#000000;stroke-width:0.3985;stroke-linecap:butt;stroke-linejoin:miter;stroke-miterlimit:10;stroke-dasharray:none;stroke-opacity:1"
               id="path184" /></g><g
             id="g186"><path
               d="m 33.82632,56.69362 c 0,3.02628 -2.45322,5.47952 -5.47952,5.47952 -3.02629,0 -5.47952,-2.45324 -5.47952,-5.47952 0,-3.02629 2.45323,-5.47952 5.47952,-5.47952 3.0263,0 5.47952,2.45323 5.47952,5.47952 z"
               style="fill:#5bcefa;fill-opacity:1;fill-rule:nonzero;stroke:#000000;stroke-width:0.3985;stroke-linecap:butt;stroke-linejoin:miter;stroke-miterlimit:10;stroke-dasharray:none;stroke-opacity:1"
               id="path188" /></g><g
             id="g190"><g
               id="g192"
               transform="rotate(90,-15.4815,47.0155)"><g
                 id="g194"><g
                   id="g196"
                   transform="translate(-146.693,-161.909)"><text
                     transform="matrix(1,0,0,-1,146.693,161.909)"
                     style="font-variant:normal;font-weight:normal;font-size:14.3462px;font-family:CMSY10;-inkscape-font-specification:CMSY10;writing-mode:lr-tb;fill:#000000;fill-opacity:1;fill-rule:nonzero;stroke:none"
                     id="text200"><tspan
                       x="0 6.3668437 12.748034"
                       y="0"
                       sodipodi:role="line"
                       id="tspan198">···</tspan></text><g
                     id="g202"
                     transform="translate(146.693,161.909)" /></g></g><g
                 id="g204"
                 transform="translate(-31.534,-62.497)" /></g></g><g
             id="g206"><path
               d="m 33.82632,-14.17339 c 0,3.02629 -2.45322,5.47953 -5.47952,5.47953 -3.02629,0 -5.47952,-2.45324 -5.47952,-5.47953 0,-3.02629 2.45323,-5.47952 5.47952,-5.47952 3.0263,0 5.47952,2.45323 5.47952,5.47952 z"
               style="fill:#ffffff;fill-opacity:1;fill-rule:nonzero;stroke:#000000;stroke-width:0.3985;stroke-linecap:butt;stroke-linejoin:miter;stroke-miterlimit:10;stroke-dasharray:none;stroke-opacity:1"
               id="path208" /></g><g
             id="g210"><path
               d="m 33.82632,-28.3468 c 0,3.02629 -2.45322,5.47952 -5.47952,5.47952 -3.02629,0 -5.47952,-2.45323 -5.47952,-5.47952 0,-3.0263 2.45323,-5.47952 5.47952,-5.47952 3.0263,0 5.47952,2.45322 5.47952,5.47952 z"
               style="fill:#ffffff;fill-opacity:1;fill-rule:nonzero;stroke:#000000;stroke-width:0.3985;stroke-linecap:butt;stroke-linejoin:miter;stroke-miterlimit:10;stroke-dasharray:none;stroke-opacity:1"
               id="path212" /></g><g
             id="g214"><path
               d="m 33.82632,-42.5202 c 0,3.02629 -2.45322,5.47952 -5.47952,5.47952 -3.02629,0 -5.47952,-2.45323 -5.47952,-5.47952 0,-3.0263 2.45323,-5.47953 5.47952,-5.47953 3.0263,0 5.47952,2.45323 5.47952,5.47953 z"
               style="fill:#ffffff;fill-opacity:1;fill-rule:nonzero;stroke:#000000;stroke-width:0.3985;stroke-linecap:butt;stroke-linejoin:miter;stroke-miterlimit:10;stroke-dasharray:none;stroke-opacity:1"
               id="path216" /></g><g
             id="g218"><path
               d="m 33.82632,-56.69362 c 0,3.02629 -2.45322,5.47952 -5.47952,5.47952 -3.02629,0 -5.47952,-2.45323 -5.47952,-5.47952 0,-3.02628 2.45323,-5.47952 5.47952,-5.47952 3.0263,0 5.47952,2.45324 5.47952,5.47952 z"
               style="fill:#ffffff;fill-opacity:1;fill-rule:nonzero;stroke:#000000;stroke-width:0.3985;stroke-linecap:butt;stroke-linejoin:miter;stroke-miterlimit:10;stroke-dasharray:none;stroke-opacity:1"
               id="path220" /></g><g
             id="g222"><g
               id="g224" /><g
               id="g226"
               transform="rotate(90,55.3845,-23.8505)"><g
                 id="g228"><g
                   id="g230"
                   transform="translate(-146.693,-20.177)"><text
                     transform="matrix(1,0,0,-1,146.693,20.177)"
                     style="font-variant:normal;font-weight:normal;font-size:14.3462px;font-family:CMSY10;-inkscape-font-specification:CMSY10;writing-mode:lr-tb;fill:#ffffff;fill-opacity:1;fill-rule:nonzero;stroke:none"
                     id="text234"><tspan
                       x="0 6.3668437 12.748034"
                       y="0"
                       sodipodi:role="line"
                       id="tspan232">···</tspan></text><g
                     id="g236"
                     transform="translate(146.693,20.177)" /></g></g><g
                 id="g238"
                 transform="translate(-31.534,79.235)" /></g></g><path
             d="m 119.0565,-85.04042 h 2.83486 V 0 h -2.83486"
             style="fill:none;stroke:#000000;stroke-width:0.3985;stroke-linecap:butt;stroke-linejoin:miter;stroke-miterlimit:10;stroke-dasharray:none;stroke-opacity:1"
             id="path240" /><path
             d="m 121.89136,-42.5202 h 2.83485"
             style="fill:none;stroke:#000000;stroke-width:0.3985;stroke-linecap:butt;stroke-linejoin:miter;stroke-miterlimit:10;stroke-dasharray:none;stroke-opacity:1"
             id="path242" /><g
             id="g244"><g
               id="g246"
               transform="rotate(-90,63.072,-66.002)"><g
                 id="g248"><g
                   id="g250"
                   transform="translate(-244.233,-96.482)"><text
                     transform="matrix(1,0,0,-1,244.233,96.482)"
                     style="font-variant:normal;font-weight:normal;font-size:20.6625px;font-family:LMRoman17;-inkscape-font-specification:LMRoman17-Regular;writing-mode:lr-tb;fill:#000000;fill-opacity:1;fill-rule:nonzero;stroke:none"
                     id="text254"><tspan
                       x="0 10.827161 19.216143 26.530676 42.48214 53.887852 61.305698 69.694679"
                       y="0"
                       sodipodi:role="line"
                       id="tspan252">Fermisea</tspan></text><g
                     id="g256"
                     transform="translate(244.233,96.482)" /></g></g><g
                 id="g258"
                 transform="translate(-129.074,2.93)" /></g></g><g
             id="g260"><path
               d="m 113.38724,-85.04042 v -14.1734"
               style="fill:none;stroke:#000000;stroke-width:0.3985;stroke-linecap:butt;stroke-linejoin:miter;stroke-miterlimit:10;stroke-dasharray:none;stroke-opacity:0"
               id="path262" /></g></g></g></g></g></svg>
