<?xml version="1.0" encoding="UTF-8" standalone="no"?>
<!-- Created with Inkscape (http://www.inkscape.org/) -->

<svg
   version="1.1"
   id="svg1"
   width="338.04666"
   height="265.48401"
   viewBox="0 0 338.04666 265.48401"
   sodipodi:docname="pulse.pdf"
   xmlns:inkscape="http://www.inkscape.org/namespaces/inkscape"
   xmlns:sodipodi="http://sodipodi.sourceforge.net/DTD/sodipodi-0.dtd"
   xmlns="http://www.w3.org/2000/svg"
   xmlns:svg="http://www.w3.org/2000/svg">
  <defs
     id="defs1" />
  <sodipodi:namedview
     id="namedview1"
     pagecolor="#ffffff"
     bordercolor="#000000"
     borderopacity="0.25"
     inkscape:showpageshadow="2"
     inkscape:pageopacity="0.0"
     inkscape:pagecheckerboard="0"
     inkscape:deskcolor="#d1d1d1">
    <inkscape:page
       x="0"
       y="0"
       inkscape:label="1"
       id="page1"
       width="338.04666"
       height="265.48401"
       margin="0"
       bleed="0" />
  </sodipodi:namedview>
  <g
     id="g1"
     inkscape:groupmode="layer"
     inkscape:label="1">
    <path
       id="path1"
       d="M 0,0 V -85.04042 H 113.38724 V 0 Z"
       style="fill:#122d8d;fill-opacity:1;fill-rule:nonzero;stroke:#000000;stroke-width:0.3985;stroke-linecap:butt;stroke-linejoin:miter;stroke-miterlimit:10;stroke-dasharray:none;stroke-opacity:1"
       transform="matrix(1.3333333,0,0,-1.3333333,145.04133,140.49333)" />
    <path
       id="path2"
       d="M 0,-85.04042 V 77.26947"
       style="fill:none;stroke:#000000;stroke-width:1.19553;stroke-linecap:butt;stroke-linejoin:miter;stroke-miterlimit:10;stroke-dasharray:none;stroke-opacity:1"
       transform="matrix(1.3333333,0,0,-1.3333333,145.04133,140.49333)" />
    <path
       id="path3"
       d="M 5.30629,0 C 4.65466,0.16344 1.79025,1.08963 0,2.09753 V -2.09753 C 1.79025,-1.08963 4.65466,-0.16344 5.30629,0 Z"
       style="fill:#000000;fill-opacity:1;fill-rule:nonzero;stroke:#000000;stroke-width:1.19553;stroke-linecap:butt;stroke-linejoin:miter;stroke-miterlimit:10;stroke-dasharray:none;stroke-opacity:1"
       transform="matrix(0,-1.3333333,-1.3333333,0,145.04133,37.467373)" />
    <path
       id="path4"
       d="m 11.96593,-3.9950937 c 0.01172,-0.046875 0.07031,-0.1640625 0.07031,-0.234375 0,-0.09375 -0.07031,-0.1757813 -0.175781,-0.1757813 -0.07031,0 -0.105469,0.011719 -0.152344,0.070312 -0.03516,0.011719 -0.03516,0.046875 -0.1875,0.3984375 -1.019531,2.4023438 -1.7578123,3.43359375 -4.5117186,3.43359375 H 4.4893672 c -0.234375,0 -0.2695313,0 -0.375,-0.0117188 -0.1875,-0.0234375 -0.2109375,-0.046875 -0.2109375,-0.1875 0,-0.12890625 0.035156,-0.22265625 0.070312,-0.38671865 L 5.1690542,-5.834938 h 1.6992187 c 1.3476563,0 1.453125,0.2929688 1.453125,0.8085938 0,0.1757812 0,0.328125 -0.1289062,0.84375 -0.035156,0.070312 -0.046875,0.140625 -0.046875,0.1875 0,0.1171875 0.082031,0.1757812 0.1875,0.1757812 0.1523437,0 0.1757812,-0.1171875 0.2460937,-0.3632812 l 0.9726563,-3.9960939 c 0,-0.082031 -0.070312,-0.1640625 -0.1640625,-0.1640625 -0.1640625,0 -0.1757813,0.058594 -0.2460938,0.3046875 -0.3398437,1.3242189 -0.6914062,1.6992189 -2.2148437,1.6992189 h -1.640625 l 1.0664062,-4.2304688 c 0.1523438,-0.597657 0.1875,-0.65625 0.890625,-0.65625 h 2.4726563 c 2.1093758,0 2.5429688,0.574218 2.5429688,1.8749999 0,0.023437 0,0.5039064 -0.07031,1.0664064 -0.01172,0.070312 -0.03516,0.1757811 -0.03516,0.2109375 0,0.140625 0.08203,0.1875 0.1875,0.1875 0.128906,0 0.1875,-0.070312 0.222656,-0.375 l 0.363281,-3.0117188 c 0,-0.05859 0.03516,-0.222657 0.03516,-0.257813 0,-0.1875 -0.152343,-0.1875 -0.46875,-0.1875 H 4.1026484 c -0.328125,0 -0.5039062,0 -0.5039062,0.304688 0,0.1875 0.1171875,0.1875 0.4101562,0.1875 1.0664063,0 1.0664063,0.117187 1.0664063,0.316406 0,0.08203 -0.011719,0.152344 -0.070312,0.339844 l -2.3203125,9.2929688 c -0.1523438,0.6093749 -0.1875,0.7734374 -1.3945313,0.7734374 -0.32812496,0 -0.49218746,0 -0.49218746,0.31640625 0,0.1875 0.09375,0.1875 0.44531246,0.1875 h 8.6367188 c 0.3867193,0 0.3984373,-0.01171875 0.5156243,-0.29296875 z m 0,0"
       style="fill:#000000;fill-opacity:1;fill-rule:nonzero;stroke:none"
       aria-label="E"
       transform="matrix(1.3333333,0,0,1.3333333,136.04933,20.998667)" />
    <path
       id="path5"
       d="m 0,0 h -28.3468 m 0,0 h -28.34682 v -13.46465 m 0,-29.76431 v -13.46466"
       style="fill:none;stroke:#000000;stroke-width:0.3985;stroke-linecap:butt;stroke-linejoin:miter;stroke-miterlimit:10;stroke-dasharray:none;stroke-opacity:1"
       transform="matrix(1.3333333,0,0,-1.3333333,145.04133,140.49333)" />
    <path
       id="path6"
       d="M 1.58714,0 C 1.58714,0.87656 0.87656,1.58714 0,1.58714 -0.87656,1.58714 -1.58714,0.87656 -1.58714,0 c 0,-0.87656 0.71058,-1.58714 1.58714,-1.58714 0.87656,0 1.58714,0.71058 1.58714,1.58714 z"
       style="fill:#000000;fill-opacity:1;fill-rule:nonzero;stroke:#000000;stroke-width:0.3985;stroke-linecap:butt;stroke-linejoin:miter;stroke-miterlimit:10;stroke-dasharray:none;stroke-opacity:1"
       transform="matrix(1.3333333,0,0,-1.3333333,145.04133,140.49333)" />
    <path
       id="path7"
       d="m -41.81145,-28.3468 c 0,8.21928 -6.66288,14.88215 -14.88217,14.88215 -8.21928,0 -14.88216,-6.66287 -14.88216,-14.88215 0,-8.21929 6.66288,-14.88216 14.88216,-14.88216 8.21929,0 14.88217,6.66287 14.88217,14.88216 z"
       style="fill:none;stroke:#000000;stroke-width:0.797;stroke-linecap:butt;stroke-linejoin:miter;stroke-miterlimit:10;stroke-dasharray:none;stroke-opacity:1"
       transform="matrix(1.3333333,0,0,-1.3333333,145.04133,140.49333)" />
    <path
       id="path8"
       d="m -64.13469,-28.3468 c 1.21291,1.90487 2.3737,3.72053 3.72054,3.72053 1.34681,0 2.50761,-1.81564 3.72052,-3.72053 1.2129,-1.9049 2.3737,-3.72054 3.72053,-3.72054 1.34682,0 2.50762,1.81564 3.72054,3.72054"
       style="fill:none;stroke:#000000;stroke-width:0.797;stroke-linecap:butt;stroke-linejoin:miter;stroke-miterlimit:10;stroke-dasharray:none;stroke-opacity:1"
       transform="matrix(1.3333333,0,0,-1.3333333,145.04133,140.49333)" />
    <path
       id="path9"
       d="m 10.651008,-9.8447578 c 0.585937,-0.9375002 1.125,-1.3476562 2.003906,-1.4179692 0.164063,-0.01172 0.304688,-0.01172 0.304688,-0.328125 0,-0.07031 -0.03516,-0.164062 -0.1875,-0.164062 -0.304688,0 -1.054688,0.03516 -1.359375,0.03516 -0.503907,0 -1.019532,-0.03516 -1.5000004,-0.03516 -0.140625,0 -0.3046875,0 -0.3046875,0.328125 0,0.152344 0.1523437,0.164062 0.2226562,0.164062 0.6328127,0.05859 0.7031247,0.363282 0.7031247,0.574219 0,0.257813 -0.246093,0.65625 -0.257812,0.667969 L 4.8736641,-1.4424141 3.6666328,-10.723664 c 0,-0.503906 0.890625,-0.539063 1.078125,-0.539063 0.2578125,0 0.421875,0 0.421875,-0.328125 0,-0.164062 -0.1875,-0.164062 -0.2460937,-0.164062 -0.2929688,0 -0.6328125,0.03516 -0.9257813,0.03516 H 3.0338203 c -1.265625,0 -1.78125,-0.03516 -1.7929687,-0.03516 -0.1054688,0 -0.31640629,0 -0.31640629,0.304687 0,0.1875 0.12890629,0.1875 0.39843749,0.1875 0.8789063,0 0.9257813,0.152344 0.984375,0.585938 l 1.3710938,10.62890619 c 0.058594,0.3515625 0.058594,0.41015625 0.2929687,0.41015625 0.2109375,0 0.2929688,-0.0585938 0.46875,-0.328125 z m 0,0"
       style="fill:#000000;fill-opacity:1;fill-rule:nonzero;stroke:none"
       aria-label="V"
       transform="matrix(1.3333333,0,0,1.3333333,2.576,181.724)" />
    <path
       id="path10"
       d="m 5.2723437,4.1943047 c 0,-0.011719 0,-0.046875 -0.058594,-0.09375 C 4.4285937,3.2919609 2.3075,1.0888359 2.3075,-4.2900703 c 0,-5.3671875 2.0859375,-7.5585937 2.9296875,-8.4140627 0,-0.02344 0.035156,-0.05859 0.035156,-0.105469 0,-0.04687 -0.058594,-0.08203 -0.1289062,-0.08203 -0.1875,0 -1.6523438,1.265625 -2.4960938,3.1640627 -0.8554687,1.9101562 -1.1015625,3.7734375 -1.1015625,5.4257812 0,1.2421875 0.1171875,3.33984379 1.1601563,5.5546875 0.8203125,1.7929688 2.2382812,3.046875 2.4375,3.046875 0.09375,0 0.1289062,-0.035156 0.1289062,-0.1054687 z m 0,0"
       style="fill:#000000;fill-opacity:1;fill-rule:nonzero;stroke:none"
       aria-label="("
       transform="matrix(1.3333333,0,0,1.3333333,20.673333,181.724)" />
    <path
       id="path11"
       d="m 3.4556172,-6.9267891 h 1.5820312 c 0.328125,0 0.5039063,0 0.5039063,-0.3046875 0,-0.1875 -0.1054688,-0.1875 -0.4453125,-0.1875 H 3.5845234 l 0.6328125,-2.5195312 c 0.070312,-0.2343752 0.070312,-0.2695312 0.070312,-0.3867192 0,-0.28125 -0.2226562,-0.433593 -0.4453125,-0.433593 -0.140625,0 -0.5390625,0.04687 -0.6796875,0.597656 L 2.4946797,-7.4189766 H 0.87749219 c -0.33984375,0 -0.50390625,0 -0.50390625,0.328125 0,0.1640625 0.12890625,0.1640625 0.45703125,0.1640625 H 2.3540547 l -1.1367188,4.546875 c -0.1289062,0.609375 -0.1875,0.7734375 -0.1875,0.9960938 0,0.82031249 0.5742188,1.55859374 1.5351563,1.55859374 1.734375,0 2.671875,-2.51953124 2.671875,-2.63671874 0,-0.1054688 -0.070312,-0.1523438 -0.1757813,-0.1523438 -0.035156,0 -0.1054687,0 -0.140625,0.070312 -0.011719,0.011719 -0.035156,0.035156 -0.1523437,0.3046875 -0.3632813,0.8554688 -1.1601563,2.06250004 -2.15625,2.06250004 -0.515625,0 -0.5507813,-0.421875 -0.5507813,-0.80859375 0,-0.0117188 0,-0.33984379 0.058594,-0.55078129 z m 0,0"
       style="fill:#000000;fill-opacity:1;fill-rule:nonzero;stroke:none"
       aria-label="t"
       transform="matrix(1.3333333,0,0,1.3333333,28.802667,181.724)" />
    <path
       id="path12"
       d="m 4.5229141,-4.2900703 c 0,-1.2421875 -0.1171875,-3.3398438 -1.1484375,-5.5546875 -0.8320313,-1.7929692 -2.2382813,-3.0468752 -2.44921879,-3.0468752 -0.046875,0 -0.1171875,0.01172 -0.1171875,0.105469 0,0.02344 0.0234375,0.04687 0.0351563,0.08203 0.82031249,0.855469 2.92968759,3.0468752 2.92968759,8.4023439 0,5.3671875 -2.0859375,7.5585938 -2.92968759,8.4140625 -0.0117188,0.035156 -0.0351563,0.046875 -0.0351563,0.082031 0,0.09375 0.0703125,0.1054687 0.1171875,0.1054687 0.18749999,0 1.65234379,-1.265625 2.49609379,-3.1640625 0.8671875,-1.91015621 1.1015625,-3.7734375 1.1015625,-5.4257812 z m 0,0"
       style="fill:#000000;fill-opacity:1;fill-rule:nonzero;stroke:none"
       aria-label=")"
       transform="matrix(1.3333333,0,0,1.3333333,36.918667,181.724)" />
    <path
       id="path13"
       d="m -56.69362,-56.69362 v -9.92134"
       style="fill:none;stroke:#000000;stroke-width:0.3985;stroke-linecap:butt;stroke-linejoin:miter;stroke-miterlimit:10;stroke-dasharray:none;stroke-opacity:1"
       transform="matrix(1.3333333,0,0,-1.3333333,145.04133,140.49333)" />
    <path
       id="path14"
       d="m -62.64647,-66.61496 h 11.90572 l -5.95287,-7.93709 z"
       style="fill:none;stroke:#000000;stroke-width:0.797;stroke-linecap:butt;stroke-linejoin:miter;stroke-miterlimit:10;stroke-dasharray:none;stroke-opacity:1"
       transform="matrix(1.3333333,0,0,-1.3333333,145.04133,140.49333)" />
    <path
       id="path15"
       d="M 42.5202,14.17339 H 93.0369"
       style="fill:none;stroke:#000000;stroke-width:0.79701;stroke-linecap:butt;stroke-linejoin:miter;stroke-miterlimit:10;stroke-dasharray:none;stroke-opacity:1"
       transform="matrix(1.3333333,0,0,-1.3333333,145.04133,140.49333)" />
    <path
       id="path16"
       d="M 4.53381,0 C 3.97704,0.13808 1.52963,0.92049 0,1.77196 V -1.77196 C 1.52963,-0.92049 3.97704,-0.13808 4.53381,0 Z"
       style="fill:#000000;fill-opacity:1;fill-rule:nonzero;stroke:#000000;stroke-width:0.79701;stroke-linecap:butt;stroke-linejoin:miter;stroke-miterlimit:10;stroke-dasharray:none;stroke-opacity:1"
       transform="matrix(1.3333333,0,0,-1.3333333,269.09053,121.59548)" />
    <path
       id="path17"
       d="m 7.3352656,-0.10475 c 2.9531254,-1.1835937 5.1562504,-4.3242187 5.1562504,-7.4296875 0,-2.8476565 -1.851563,-4.5820315 -4.2656254,-4.5820315 -3.6796875,0 -7.39453122,3.9609378 -7.39453122,7.933594 0,2.7070313 1.78125002,4.546875 4.27734372,4.546875 0.5859375,0 1.1601563,-0.0820313 1.7109375,-0.2578125 -0.1054687,1.03125 -0.1054687,1.1132813 -0.1054687,1.4414063 0,0.5039062 0,1.7929687 1.3710937,1.7929687 2.0507814,0 2.8125004,-3.22265625 2.8125004,-3.328125 0,-0.09375 -0.07031,-0.1640625 -0.152344,-0.1640625 -0.105469,0 -0.140625,0.08203125 -0.199219,0.26953125 -0.375,1.08984375 -1.2656249,1.71093755 -2.0273436,1.71093755 -0.8789063,0 -1.1015625,-0.609375 -1.1835938,-1.9335938 z M 4.2297969,-0.18678125 C 2.8704219,-0.65553125 2.2258906,-2.0852187 2.2258906,-3.66725 c 0,-1.2070312 0.4453125,-3.4921875 1.5820313,-5.2265625 1.265625,-1.9687495 2.9765625,-2.8476565 4.3125,-2.8476565 1.7929687,0 3.0000001,1.453125 3.0000001,3.6914065 0,1.265625 -0.597656,5.5429688 -3.8437501,7.4296875 -0.082031,-0.8789062 -0.328125,-1.9101562 -1.453125,-1.9101562 -0.9375,0 -1.7226563,0.9257812 -1.7226563,1.7695312 0,0.19921875 0.058594,0.45703125 0.1289063,0.57421875 z m 2.625,-0.2109375 C 6.2337031,-0.11646875 5.6946406,-0.011 5.2141719,-0.011 c -0.1757813,0 -0.7734375,0 -0.7734375,-0.76171875 0,-0.62109375 0.5976562,-1.41796875 1.3828125,-1.41796875 0.8554687,0 1.0429687,0.5859375 1.0429687,1.453125 0,0.10546875 0,0.234375 -0.011719,0.33984375 z m 0,0"
       style="fill:#000000;fill-opacity:1;fill-rule:nonzero;stroke:none"
       aria-label="Q"
       transform="matrix(1.3333333,0,0,1.3333333,40.649333,70.514667)" />
    <path
       id="path18"
       d="m 11.073383,-5.5305312 c 0.257812,0 0.515625,0 0.515625,-0.2929688 0,-0.3046875 -0.292969,-0.3046875 -0.585938,-0.3046875 H 1.3819766 c -0.2929688,0 -0.58593754,0 -0.58593754,0.3046875 0,0.2929688 0.25781254,0.2929688 0.51562504,0.2929688 z m -0.07031,3.0703125 c 0.292969,0 0.585938,0 0.585938,-0.3164063 0,-0.28125 -0.257813,-0.28125 -0.515625,-0.28125 H 1.3116641 c -0.2578125,0 -0.51562504,0 -0.51562504,0.28125 0,0.3164063 0.29296874,0.3164063 0.58593754,0.3164063 z m 10.740235,-8.5429683 c 0,-0.363282 -0.02344,-0.375 -0.257813,-0.375 -0.679687,0.808593 -1.6875,1.066406 -2.660156,1.101562 -0.04687,0 -0.128906,0 -0.152344,0.03516 -0.01172,0.03516 -0.01172,0.07031 -0.01172,0.433594 0.527344,0 1.429688,-0.1054687 2.109375,-0.515625 v 9.0703125 c 0,0.59765625 -0.02344,0.80859375 -1.511718,0.80859375 h -0.515625 v 0.4453125 c 0.832031,-0.01171875 1.6875,-0.03515625 2.519531,-0.03515625 0.820312,0 1.6875,0.0234375 2.507812,0.03515625 v -0.4453125 h -0.515625 c -1.476562,0 -1.511718,-0.1875 -1.511718,-0.80859375 z m 0,0"
       style="fill:#000000;fill-opacity:1;fill-rule:nonzero;stroke:none"
       aria-label="=1"
       transform="matrix(1.3333333,0,0,1.3333333,64.825333,70.514667)" />
    <path
       id="path19"
       d="m 33.32819,14.17339 c 0,2.75117 -2.23021,4.98138 -4.98139,4.98138 -2.75117,0 -4.98138,-2.23021 -4.98138,-4.98138 0,-2.75118 2.23021,-4.98139 4.98138,-4.98139 2.75118,0 4.98139,2.23021 4.98139,4.98139 z"
       style="fill:#5bcefa;fill-opacity:1;fill-rule:nonzero;stroke:#000000;stroke-width:0.3985;stroke-linecap:butt;stroke-linejoin:miter;stroke-miterlimit:10;stroke-dasharray:none;stroke-opacity:1"
       transform="matrix(1.3333333,0,0,-1.3333333,145.04133,140.49333)" />
    <path
       id="path20"
       d="m 119.0565,-85.04042 h 2.83486 V 0 h -2.83486"
       style="fill:none;stroke:#000000;stroke-width:0.3985;stroke-linecap:butt;stroke-linejoin:miter;stroke-miterlimit:10;stroke-dasharray:none;stroke-opacity:1"
       transform="matrix(1.3333333,0,0,-1.3333333,145.04133,140.49333)" />
    <path
       id="path21"
       d="m 121.89136,-42.5202 h 2.83485"
       style="fill:none;stroke:#000000;stroke-width:0.3985;stroke-linecap:butt;stroke-linejoin:miter;stroke-miterlimit:10;stroke-dasharray:none;stroke-opacity:1"
       transform="matrix(1.3333333,0,0,-1.3333333,145.04133,140.49333)" />
    <text
       id="text21"
       xml:space="preserve"
       transform="matrix(0,1.3333333,-1.3333333,0,317.10267,153.20667)"><tspan
         id="tspan21"
         style="font-variant:normal;font-weight:normal;font-size:17.2154px;font-family:'Latin Modern Roman';writing-mode:lr-tb;fill:#000000;fill-opacity:1;fill-rule:nonzero;stroke:none"
         x="0"
         dx="0 -1.3428043 0 0 0 5.1990628"
         y="0">Fermisea</tspan></text>
    <path
       id="path22"
       d="m 113.38724,-85.04042 v -8.50412"
       style="fill:none;stroke:#000000;stroke-width:0.3985;stroke-linecap:butt;stroke-linejoin:miter;stroke-miterlimit:10;stroke-dasharray:none;stroke-opacity:0"
       transform="matrix(1.3333333,0,0,-1.3333333,145.04133,140.49333)" />
  </g>
</svg>
