<?xml version="1.0" encoding="UTF-8" standalone="no"?>
<!-- Created with Inkscape (http://www.inkscape.org/) -->

<svg
   version="1.1"
   id="svg1"
   width="633.25598"
   height="107.39867"
   viewBox="0 0 633.25598 107.39867"
   sodipodi:docname="MZI.pdf"
   xmlns:inkscape="http://www.inkscape.org/namespaces/inkscape"
   xmlns:sodipodi="http://sodipodi.sourceforge.net/DTD/sodipodi-0.dtd"
   xmlns="http://www.w3.org/2000/svg"
   xmlns:svg="http://www.w3.org/2000/svg">
  <defs
     id="defs1" />
  <sodipodi:namedview
     id="namedview1"
     pagecolor="#ffffff"
     bordercolor="#000000"
     borderopacity="0.25"
     inkscape:showpageshadow="2"
     inkscape:pageopacity="0.0"
     inkscape:pagecheckerboard="0"
     inkscape:deskcolor="#d1d1d1">
    <inkscape:page
       x="0"
       y="0"
       inkscape:label="1"
       id="page1"
       width="633.25598"
       height="107.39867"
       margin="0"
       bleed="0" />
  </sodipodi:namedview>
  <g
     id="g1"
     inkscape:groupmode="layer"
     inkscape:label="1">
    <path
       id="path1"
       d="m 85.04042,0 h 56.69362 M 283.4681,0 h 56.69361"
       style="fill:none;stroke:#000000;stroke-width:1.19553;stroke-linecap:butt;stroke-linejoin:miter;stroke-miterlimit:10;stroke-dasharray:2.98883, 2.98883;stroke-dashoffset:0;stroke-opacity:1"
       transform="matrix(1.3333333,0,0,-1.3333333,33.164,53.698667)" />
    <path
       id="path2"
       d="M 14.17339,28.3468 H 28.3468 c 23.28682,0 33.4068,-18.42525 56.69362,-18.42525 h 56.69362 c 23.28682,0 33.4068,18.42525 56.69362,18.42525 h 28.34682 c 23.28682,0 33.40679,-18.42525 56.69362,-18.42525 h 56.69361 c 23.28682,0 33.4068,18.42525 56.69362,18.42525 h 14.1734"
       style="fill:none;stroke:#091540;stroke-width:14.9441;stroke-linecap:butt;stroke-linejoin:miter;stroke-miterlimit:10;stroke-dasharray:none;stroke-opacity:1"
       transform="matrix(1.3333333,0,0,-1.3333333,33.164,53.698667)" />
    <path
       id="path3"
       d="M 14.17339,-28.3468 H 28.3468 c 23.28682,0 33.4068,18.42525 56.69362,18.42525 h 56.69362 c 23.28682,0 33.4068,-18.42525 56.69362,-18.42525 h 28.34682 c 23.28682,0 33.40679,18.42525 56.69362,18.42525 h 56.69361 c 23.28682,0 33.4068,-18.42525 56.69362,-18.42525 h 14.1734"
       style="fill:none;stroke:#091540;stroke-width:14.9441;stroke-linecap:butt;stroke-linejoin:miter;stroke-miterlimit:10;stroke-dasharray:none;stroke-opacity:1"
       transform="matrix(1.3333333,0,0,-1.3333333,33.164,53.698667)" />
    <path
       id="path4"
       d="M 14.17339,28.3468 H 28.3468 c 23.28682,0 33.4068,-18.42525 56.69362,-18.42525 h 56.69362 c 23.28682,0 33.4068,18.42525 56.69362,18.42525 h 28.34682 c 23.28682,0 33.40679,-18.42525 56.69362,-18.42525 h 56.69361 c 23.28682,0 33.4068,18.42525 56.69362,18.42525 h 3.21436"
       style="fill:none;stroke:#ffffff;stroke-width:1.99255;stroke-linecap:butt;stroke-linejoin:miter;stroke-miterlimit:10;stroke-dasharray:2.98883, 2.98883;stroke-dashoffset:0;stroke-opacity:1"
       transform="matrix(1.3333333,0,0,-1.3333333,33.164,53.698667)" />
    <path
       id="path5"
       d="M 6.85132,0 C 6.00995,0.21417 2.31152,1.42789 0,2.74866 V -2.74866 C 2.31152,-1.42789 6.00995,-0.21417 6.85132,0 Z"
       style="fill:#ffffff;fill-opacity:1;fill-rule:nonzero;stroke:#ffffff;stroke-width:1.99255;stroke-linecap:butt;stroke-linejoin:miter;stroke-miterlimit:10;stroke-dasharray:none;stroke-opacity:1"
       transform="matrix(1.3333333,0,0,-1.3333333,566.59025,15.902933)" />
    <path
       id="path6"
       d="m 297.6415,9.92155 c 13.52844,0 14.81834,-19.8431 28.3468,-19.8431"
       style="fill:none;stroke:#ffffff;stroke-width:1.99255;stroke-linecap:butt;stroke-linejoin:miter;stroke-miterlimit:10;stroke-dasharray:2.98883, 2.98883;stroke-dashoffset:0;stroke-opacity:1"
       transform="matrix(1.3333333,0,0,-1.3333333,33.164,53.698667)" />
    <path
       id="path7"
       d="m 99.21382,9.92155 c 13.52846,0 14.81836,-19.8431 28.3468,-19.8431 h 14.17342 c 23.28682,0 33.4068,-18.42525 56.69362,-18.42525 h 28.34682 c 23.28682,0 33.40679,18.42525 56.69362,18.42525 h 56.69361 c 23.28682,0 33.4068,-18.42525 56.69362,-18.42525 h 3.21436"
       style="fill:none;stroke:#ffffff;stroke-width:1.99255;stroke-linecap:butt;stroke-linejoin:miter;stroke-miterlimit:10;stroke-dasharray:2.98883, 2.98883;stroke-dashoffset:0;stroke-opacity:1"
       transform="matrix(1.3333333,0,0,-1.3333333,33.164,53.698667)" />
    <path
       id="path8"
       d="M 6.85132,0 C 6.00995,0.21417 2.31152,1.42789 0,2.74866 V -2.74866 C 2.31152,-1.42789 6.00995,-0.21417 6.85132,0 Z"
       style="fill:#ffffff;fill-opacity:1;fill-rule:nonzero;stroke:#ffffff;stroke-width:1.99255;stroke-linecap:butt;stroke-linejoin:miter;stroke-miterlimit:10;stroke-dasharray:none;stroke-opacity:1"
       transform="matrix(1.3333333,0,0,-1.3333333,566.59025,91.4944)" />
    <path
       id="path9"
       d="m 297.6415,-9.92155 c 13.52844,0 14.81834,19.8431 28.3468,19.8431"
       style="fill:none;stroke:#ffffff;stroke-width:1.99255;stroke-linecap:butt;stroke-linejoin:miter;stroke-miterlimit:10;stroke-dasharray:2.98883, 2.98883;stroke-dashoffset:0;stroke-opacity:1"
       transform="matrix(1.3333333,0,0,-1.3333333,33.164,53.698667)" />
    <path
       id="path10"
       d="m 2.7434531,-12.29157 c 0,-0.304688 0,-0.621094 -0.3515625,-0.621094 -0.3398437,0 -0.3398437,0.316406 -0.3398437,0.621094 V 3.6810859 c 0,0.3164063 0,0.6210938 0.3398437,0.6210938 0.3515625,0 0.3515625,-0.3046875 0.3515625,-0.6210938 z m 0,0"
       style="fill:#000000;fill-opacity:1;fill-rule:nonzero;stroke:none"
       aria-label="|"
       transform="matrix(1.3333333,0,0,1.3333333,4.428,21.642667)" />
    <path
       id="path11"
       d="m 7.2309844,-5.5298516 c 0,-1.0429687 -0.011719,-2.8359375 -0.7382813,-4.2070312 -0.6445312,-1.2070312 -1.6523437,-1.6406252 -2.5546875,-1.6406252 -0.8203125,0 -1.875,0.375 -2.53125,1.6171877 -0.67968748,1.2890625 -0.74999998,2.8945312 -0.74999998,4.2304687 0,0.984375 0.0117188,2.484375 0.55078128,3.796875 0.7382812,1.76953129 2.0625,2.01562504 2.7304687,2.01562504 0.796875,0 2.0039063,-0.328125 2.7070313,-1.96875004 0.515625,-1.1835937 0.5859375,-2.578125 0.5859375,-3.84375 z M 3.9380156,0.00139844 c -1.1015625,0 -1.7460937,-0.94921875 -1.9921875,-2.25000004 -0.1875,-1.0195312 -0.1875,-2.4960937 -0.1875,-3.46875 0,-1.3242187 0,-2.4257812 0.2226563,-3.46875 0.328125,-1.4648434 1.2890625,-1.9218754 1.9570312,-1.9218754 0.7148438,0 1.6171875,0.46875 1.9453125,1.8867192 0.2226563,0.9726562 0.2460938,2.1328125 0.2460938,3.5039062 0,1.125 0,2.4960938 -0.2109375,3.515625 -0.3632813,1.87500004 -1.3710938,2.20312504 -1.9804688,2.20312504 z m 0,0"
       style="fill:#000000;fill-opacity:1;fill-rule:nonzero;stroke:none"
       aria-label="0"
       transform="matrix(1.3333333,0,0,1.3333333,10.804,21.642667)" />
    <path
       id="path12"
       d="m 11.344023,-3.9243828 c 0.328125,-0.1523438 0.339844,-0.2578125 0.339844,-0.375 0,-0.1054688 -0.02344,-0.2226563 -0.339844,-0.3632813 L 2.0276172,-8.9517266 C 1.8049609,-9.0571953 1.7698047,-9.0689141 1.7346484,-9.0689141 c -0.1992187,0 -0.328125,0.1757813 -0.328125,0.3046875 0,0.2109375 0.140625,0.28125 0.3632813,0.3867188 l 8.8476563,4.078125 -8.8593751,4.08984374 c -0.3515625,0.1640625 -0.3515625,0.28125 -0.3515625,0.38671875 0,0.12890625 0.1289063,0.3046875 0.328125,0.3046875 0.035156,0 0.058594,-0.0117188 0.2929688,-0.1171875 z m 0,0"
       style="fill:#000000;fill-opacity:1;fill-rule:nonzero;stroke:none"
       aria-label="&gt;"
       transform="matrix(1.3333333,0,0,1.3333333,27.706667,21.642667)" />
    <path
       id="path13"
       d="m 2.7434531,-12.292187 c 0,-0.304688 0,-0.621094 -0.3515625,-0.621094 -0.3398437,0 -0.3398437,0.316406 -0.3398437,0.621094 V 3.6804688 c 0,0.3164062 0,0.6210937 0.3398437,0.6210937 0.3515625,0 0.3515625,-0.3046875 0.3515625,-0.6210937 z m 0,0"
       style="fill:#000000;fill-opacity:1;fill-rule:nonzero;stroke:none"
       aria-label="|"
       transform="matrix(1.3333333,0,0,1.3333333,4.428,97.233333)" />
    <path
       id="path14"
       d="m 4.5825469,-11.003125 c 0,-0.363281 -0.023437,-0.375 -0.2578125,-0.375 -0.6796875,0.808594 -1.6875,1.066406 -2.6601563,1.101563 -0.046875,0 -0.1289062,0 -0.1523437,0.03516 -0.011719,0.03516 -0.011719,0.07031 -0.011719,0.4335935 0.5273438,0 1.4296875,-0.1054687 2.109375,-0.5156245 v 9.070312 c 0,0.59765625 -0.023437,0.80859375 -1.5117187,0.80859375 h -0.515625 v 0.4453125 c 0.8320312,-0.01171875 1.6875,-0.03515625 2.5195312,-0.03515625 0.8203125,0 1.6875,0.0234375 2.5078125,0.03515625 v -0.4453125 h -0.515625 c -1.4765625,0 -1.5117187,-0.1875 -1.5117187,-0.80859375 z m 0,0"
       style="fill:#000000;fill-opacity:1;fill-rule:nonzero;stroke:none"
       aria-label="1"
       transform="matrix(1.3333333,0,0,1.3333333,10.804,97.233333)" />
    <path
       id="path15"
       d="m 11.344023,-3.925 c 0.328125,-0.1523437 0.339844,-0.2578125 0.339844,-0.375 0,-0.1054687 -0.02344,-0.2226562 -0.339844,-0.3632812 L 2.0276172,-8.9523437 C 1.8049609,-9.0578125 1.7698047,-9.0695312 1.7346484,-9.0695312 c -0.1992187,0 -0.328125,0.1757812 -0.328125,0.3046875 0,0.2109375 0.140625,0.28125 0.3632813,0.3867187 L 10.617461,-4.3 1.7580859,-0.21015625 c -0.3515625,0.1640625 -0.3515625,0.28125 -0.3515625,0.38671875 0,0.12890625 0.1289063,0.3046875 0.328125,0.3046875 0.035156,0 0.058594,-0.0117188 0.2929688,-0.1171875 z m 0,0"
       style="fill:#000000;fill-opacity:1;fill-rule:nonzero;stroke:none"
       aria-label="&gt;"
       transform="matrix(1.3333333,0,0,1.3333333,27.706667,97.233333)" />
    <path
       id="path16"
       d="m 2.7436094,-12.29157 c 0,-0.304688 0,-0.621094 -0.3515625,-0.621094 -0.3398438,0 -0.3398438,0.316406 -0.3398438,0.621094 V 3.6810859 c 0,0.3164063 0,0.6210938 0.3398438,0.6210938 0.3515625,0 0.3515625,-0.3046875 0.3515625,-0.6210938 z m 0,0"
       style="fill:#000000;fill-opacity:1;fill-rule:nonzero;stroke:none"
       aria-label="|"
       transform="matrix(1.3333333,0,0,1.3333333,586.47467,21.642667)" />
    <path
       id="path17"
       d="m 7.2311406,-5.5298516 c 0,-1.0429687 -0.011719,-2.8359375 -0.7382812,-4.2070312 -0.6445313,-1.2070312 -1.6523438,-1.6406252 -2.5546875,-1.6406252 -0.8203125,0 -1.875,0.375 -2.53125,1.6171877 -0.67968752,1.2890625 -0.75000002,2.8945312 -0.75000002,4.2304687 0,0.984375 0.0117188,2.484375 0.55078122,3.796875 0.7382813,1.76953129 2.0625,2.01562504 2.7304688,2.01562504 0.796875,0 2.0039062,-0.328125 2.7070312,-1.96875004 0.515625,-1.1835937 0.5859375,-2.578125 0.5859375,-3.84375 z M 3.9381719,0.00139844 c -1.1015625,0 -1.7460938,-0.94921875 -1.9921875,-2.25000004 -0.1875,-1.0195312 -0.1875,-2.4960937 -0.1875,-3.46875 0,-1.3242187 0,-2.4257812 0.2226562,-3.46875 0.328125,-1.4648434 1.2890625,-1.9218754 1.9570313,-1.9218754 0.7148437,0 1.6171875,0.46875 1.9453125,1.8867192 0.2226562,0.9726562 0.2460937,2.1328125 0.2460937,3.5039062 0,1.125 0,2.4960938 -0.2109375,3.515625 -0.3632812,1.87500004 -1.3710937,2.20312504 -1.9804687,2.20312504 z m 0,0"
       style="fill:#000000;fill-opacity:1;fill-rule:nonzero;stroke:none"
       aria-label="0"
       transform="matrix(1.3333333,0,0,1.3333333,592.85067,21.642667)" />
    <path
       id="path18"
       d="m 11.34418,-3.9243828 c 0.328125,-0.1523438 0.339843,-0.2578125 0.339843,-0.375 0,-0.1054688 -0.02344,-0.2226563 -0.339843,-0.3632813 L 2.0277734,-8.9517266 C 1.8051172,-9.0571953 1.7699609,-9.0689141 1.7348047,-9.0689141 c -0.1992188,0 -0.328125,0.1757813 -0.328125,0.3046875 0,0.2109375 0.140625,0.28125 0.3632812,0.3867188 l 8.8476561,4.078125 -8.8593748,4.08984374 c -0.3515625,0.1640625 -0.3515625,0.28125 -0.3515625,0.38671875 0,0.12890625 0.1289062,0.3046875 0.328125,0.3046875 0.035156,0 0.058594,-0.0117188 0.2929687,-0.1171875 z m 0,0"
       style="fill:#000000;fill-opacity:1;fill-rule:nonzero;stroke:none"
       aria-label="&gt;"
       transform="matrix(1.3333333,0,0,1.3333333,609.75333,21.642667)" />
    <path
       id="path19"
       d="m 2.7436094,-12.292187 c 0,-0.304688 0,-0.621094 -0.3515625,-0.621094 -0.3398438,0 -0.3398438,0.316406 -0.3398438,0.621094 V 3.6804688 c 0,0.3164062 0,0.6210937 0.3398438,0.6210937 0.3515625,0 0.3515625,-0.3046875 0.3515625,-0.6210937 z m 0,0"
       style="fill:#000000;fill-opacity:1;fill-rule:nonzero;stroke:none"
       aria-label="|"
       transform="matrix(1.3333333,0,0,1.3333333,586.47467,97.233333)" />
    <path
       id="path20"
       d="m 4.5827031,-11.003125 c 0,-0.363281 -0.023437,-0.375 -0.2578125,-0.375 -0.6796875,0.808594 -1.6875,1.066406 -2.6601562,1.101563 -0.046875,0 -0.1289063,0 -0.1523438,0.03516 -0.011719,0.03516 -0.011719,0.07031 -0.011719,0.4335935 0.5273437,0 1.4296875,-0.1054687 2.109375,-0.5156245 v 9.070312 c 0,0.59765625 -0.023437,0.80859375 -1.5117188,0.80859375 h -0.515625 v 0.4453125 c 0.8320313,-0.01171875 1.6875,-0.03515625 2.5195313,-0.03515625 0.8203125,0 1.6875,0.0234375 2.5078125,0.03515625 v -0.4453125 h -0.515625 c -1.4765625,0 -1.5117188,-0.1875 -1.5117188,-0.80859375 z m 0,0"
       style="fill:#000000;fill-opacity:1;fill-rule:nonzero;stroke:none"
       aria-label="1"
       transform="matrix(1.3333333,0,0,1.3333333,592.85067,97.233333)" />
    <path
       id="path21"
       d="m 11.34418,-3.925 c 0.328125,-0.1523437 0.339843,-0.2578125 0.339843,-0.375 0,-0.1054687 -0.02344,-0.2226562 -0.339843,-0.3632812 L 2.0277734,-8.9523437 C 1.8051172,-9.0578125 1.7699609,-9.0695312 1.7348047,-9.0695312 c -0.1992188,0 -0.328125,0.1757812 -0.328125,0.3046875 0,0.2109375 0.140625,0.28125 0.3632812,0.3867187 L 10.617617,-4.3 1.7582422,-0.21015625 c -0.3515625,0.1640625 -0.3515625,0.28125 -0.3515625,0.38671875 0,0.12890625 0.1289062,0.3046875 0.328125,0.3046875 0.035156,0 0.058594,-0.0117188 0.2929687,-0.1171875 z m 0,0"
       style="fill:#000000;fill-opacity:1;fill-rule:nonzero;stroke:none"
       aria-label="&gt;"
       transform="matrix(1.3333333,0,0,1.3333333,609.75333,97.233333)" />
    <path
       id="path22"
       d="m 223.9396,0 c 0,6.26218 -5.07636,11.33855 -11.33854,11.33855 -6.26218,0 -11.33855,-5.07637 -11.33855,-11.33855 0,-6.26218 5.07637,-11.33855 11.33855,-11.33855 6.26218,0 11.33854,5.07637 11.33854,11.33855 z m -3.32102,-8.01752 -16.03504,16.03504 m 0,-16.03504 16.03504,16.03504"
       style="fill:none;stroke:#000000;stroke-width:1.19553;stroke-linecap:butt;stroke-linejoin:miter;stroke-miterlimit:10;stroke-dasharray:none;stroke-opacity:1"
       transform="matrix(1.3333333,0,0,-1.3333333,33.164,53.698667)" />
    <path
       id="path23"
       d="m 6.3049141,-10.582359 c 0.1523437,-0.644532 0.2226562,-0.679688 0.890625,-0.679688 h 2.2382812 c 1.9453127,0 1.9453127,1.6523439 1.9453127,1.8164064 0,1.3945312 -1.3945314,3.1640625 -3.6679689,3.1640625 H 5.2385078 Z m 2.90625,4.4414059 c 1.8749999,-0.3515625 3.5742189,-1.6523438 3.5742189,-3.2460938 0,-1.3359371 -1.183594,-2.3671871 -3.1289064,-2.3671871 H 4.1369453 c -0.328125,0 -0.4921875,0 -0.4921875,0.328125 0,0.164062 0.1640625,0.164062 0.421875,0.164062 1.0429688,0 1.0429688,0.140625 1.0429688,0.328125 0,0.03516 0,0.140625 -0.070312,0.398438 l -2.3203125,9.2578121 c -0.1523438,0.60937503 -0.1875,0.77343753 -1.3945313,0.77343753 -0.32812499,0 -0.49218749,0 -0.49218749,0.31640625 0,0.187499995 0.09375,0.187499995 0.44531249,0.187499995 h 5.90625 c 2.625,0 4.6640622,-1.992187475 4.6640622,-3.738281275 0,-1.40625 -1.242188,-2.2734375 -2.6367189,-2.4023437 z M 6.7619453,-0.50423437 H 4.4416328 c -0.2460937,0 -0.28125,0 -0.375,-0.0117188 -0.1875,-0.0234375 -0.2109375,-0.046875 -0.2109375,-0.1875 0,-0.12890625 0.035156,-0.22265625 0.070312,-0.38671873 l 1.2070313,-4.8515625 h 3.234375 c 2.0273434,0 2.0273434,1.8984375 2.0273434,2.0390624 0,1.6523438 -1.4999997,3.39843758 -3.6328117,3.39843763 z m 0,0"
       style="fill:#000000;fill-opacity:1;fill-rule:nonzero;stroke:none"
       aria-label="B"
       transform="matrix(1.3333333,0,0,1.3333333,332.54267,50.852)" />
    <path
       id="path24"
       d="m 10.98107,-12.46857 c 0,-2.53125 -0.796875,-4.980469 -2.8242184,-4.980469 -3.46875,0 -7.16015629,7.265625 -7.16015629,12.7148437 0,1.1367187 0.24609379,4.98046874 2.84765629,4.98046874 3.3632812,0 7.1367184,-7.08984374 7.1367184,-12.71484344 z m -7.5117184,3.4921872 c 0.375,-1.4531252 0.890625,-3.5390622 1.8867187,-5.2968752 0.8203125,-1.488281 1.6875,-2.683594 2.7773438,-2.683594 0.8203125,0 1.359375,0.703125 1.359375,3.082032 0,0.890625 -0.070312,2.121093 -0.796875,4.8984372 z m 5.0625,0.75 c -0.6210938,2.4257812 -1.1484375,3.984375 -2.0390625,5.5546875 -0.7148438,1.2539062 -1.5820313,2.42578124 -2.625,2.42578124 -0.7734375,0 -1.3828125,-0.59765625 -1.3828125,-3.04687504 0,-1.6171875 0.3867187,-3.3046875 0.7851562,-4.9335937 z m 0,0"
       style="fill:#122d8d;fill-opacity:1;fill-rule:nonzero;stroke:none"
       aria-label="θ"
       transform="matrix(1.3333333,0,0,1.3333333,176.35467,27.378667)" />
    <path
       id="path25"
       d="m 141.73402,9.92155 c 0,3.13109 -2.53817,5.66927 -5.66926,5.66927 -3.13111,0 -5.66928,-2.53818 -5.66928,-5.66927 0,-3.1311 2.53817,-5.66928 5.66928,-5.66928 3.13109,0 5.66926,2.53818 5.66926,5.66928 z"
       style="fill:#a6e6ff;fill-opacity:1;fill-rule:nonzero;stroke:#000000;stroke-width:0.3985;stroke-linecap:butt;stroke-linejoin:miter;stroke-miterlimit:10;stroke-dasharray:none;stroke-opacity:1"
       transform="matrix(1.3333333,0,0,-1.3333333,33.164,53.698667)" />
    <path
       id="path26"
       d="m 141.73402,-9.92155 c 0,3.1311 -2.53817,5.66928 -5.66926,5.66928 -3.13111,0 -5.66928,-2.53818 -5.66928,-5.66928 0,-3.13109 2.53817,-5.66927 5.66928,-5.66927 3.13109,0 5.66926,2.53818 5.66926,5.66927 z"
       style="fill:#a6e6ff;fill-opacity:1;fill-rule:nonzero;stroke:#000000;stroke-width:0.3985;stroke-linecap:butt;stroke-linejoin:miter;stroke-miterlimit:10;stroke-dasharray:none;stroke-opacity:1"
       transform="matrix(1.3333333,0,0,-1.3333333,33.164,53.698667)" />
  </g>
</svg>
