<?xml version="1.0" encoding="utf-8" standalone="no"?>
<!DOCTYPE svg PUBLIC "-//W3C//DTD SVG 1.1//EN"
  "http://www.w3.org/Graphics/SVG/1.1/DTD/svg11.dtd">
<svg xmlns:xlink="http://www.w3.org/1999/xlink" width="504pt" height="504pt" viewBox="0 0 504 504" xmlns="http://www.w3.org/2000/svg" version="1.1">
 <metadata>
  <rdf:RDF xmlns:dc="http://purl.org/dc/elements/1.1/" xmlns:cc="http://creativecommons.org/ns#" xmlns:rdf="http://www.w3.org/1999/02/22-rdf-syntax-ns#">
   <cc:Work>
    <dc:type rdf:resource="http://purl.org/dc/dcmitype/StillImage"/>
    <dc:date>2025-08-21T16:35:39.178027</dc:date>
    <dc:format>image/svg+xml</dc:format>
    <dc:creator>
     <cc:Agent>
      <dc:title>Matplotlib v3.10.1, https://matplotlib.org/</dc:title>
     </cc:Agent>
    </dc:creator>
   </cc:Work>
  </rdf:RDF>
 </metadata>
 <defs>
  <style type="text/css">*{stroke-linejoin: round; stroke-linecap: butt}</style>
 </defs>
 <g id="figure_1">
  <g id="patch_1">
   <path d="M 0 504 
L 504 504 
L 504 0 
L 0 0 
z
" style="fill: #ffffff"/>
  </g>
  <g id="axes_1">
   <g id="patch_2">
    <path d="M 63 448.56 
L 453.6 448.56 
L 453.6 60.48 
L 63 60.48 
z
" style="fill: #ffffff"/>
   </g>
   <g id="matplotlib.axis_1">
    <g id="xtick_1">
     <g id="line2d_1">
      <defs>
       <path id="m5384761349" d="M 0 0 
L 0 3.5 
" style="stroke: #000000; stroke-width: 0.8"/>
      </defs>
      <g>
       <use xlink:href="#m5384761349" x="80.754545" y="448.56" style="stroke: #000000; stroke-width: 0.8"/>
      </g>
     </g>
    </g>
    <g id="xtick_2">
     <g id="line2d_2">
      <g>
       <use xlink:href="#m5384761349" x="174.945335" y="448.56" style="stroke: #000000; stroke-width: 0.8"/>
      </g>
     </g>
    </g>
    <g id="xtick_3">
     <g id="line2d_3">
      <g>
       <use xlink:href="#m5384761349" x="269.136124" y="448.56" style="stroke: #000000; stroke-width: 0.8"/>
      </g>
     </g>
    </g>
    <g id="xtick_4">
     <g id="line2d_4">
      <g>
       <use xlink:href="#m5384761349" x="363.326913" y="448.56" style="stroke: #000000; stroke-width: 0.8"/>
      </g>
     </g>
    </g>
    <g id="text_1">
     <!-- $t$ -->
     <g transform="translate(251.1 486.914375) scale(0.36 -0.36)">
      <defs>
       <path id="DejaVuSans-Oblique-74" d="M 2706 3500 
L 2619 3053 
L 1472 3053 
L 1100 1153 
Q 1081 1047 1072 975 
Q 1063 903 1063 863 
Q 1063 663 1183 572 
Q 1303 481 1569 481 
L 2150 481 
L 2053 0 
L 1503 0 
Q 991 0 739 200 
Q 488 400 488 806 
Q 488 878 497 964 
Q 506 1050 525 1153 
L 897 3053 
L 409 3053 
L 500 3500 
L 978 3500 
L 1172 4494 
L 1747 4494 
L 1556 3500 
L 2706 3500 
z
" transform="scale(0.015625)"/>
      </defs>
      <use xlink:href="#DejaVuSans-Oblique-74" transform="translate(0 0.78125)"/>
     </g>
    </g>
   </g>
   <g id="matplotlib.axis_2">
    <g id="ytick_1">
     <g id="line2d_5">
      <defs>
       <path id="m39739d58fc" d="M 0 0 
L -3.5 0 
" style="stroke: #000000; stroke-width: 0.8"/>
      </defs>
      <g>
       <use xlink:href="#m39739d58fc" x="63" y="430.921963" style="stroke: #000000; stroke-width: 0.8"/>
      </g>
     </g>
    </g>
    <g id="ytick_2">
     <g id="line2d_6">
      <g>
       <use xlink:href="#m39739d58fc" x="63" y="342.720981" style="stroke: #000000; stroke-width: 0.8"/>
      </g>
     </g>
    </g>
    <g id="ytick_3">
     <g id="line2d_7">
      <g>
       <use xlink:href="#m39739d58fc" x="63" y="254.52" style="stroke: #000000; stroke-width: 0.8"/>
      </g>
     </g>
    </g>
    <g id="ytick_4">
     <g id="line2d_8">
      <g>
       <use xlink:href="#m39739d58fc" x="63" y="166.319019" style="stroke: #000000; stroke-width: 0.8"/>
      </g>
     </g>
    </g>
    <g id="ytick_5">
     <g id="line2d_9">
      <g>
       <use xlink:href="#m39739d58fc" x="63" y="78.118037" style="stroke: #000000; stroke-width: 0.8"/>
      </g>
     </g>
    </g>
    <g id="text_2">
     <!-- $I$ -->
     <g transform="translate(44.513125 259.92) rotate(-90) scale(0.36 -0.36)">
      <defs>
       <path id="DejaVuSans-Oblique-49" d="M 1081 4666 
L 1716 4666 
L 806 0 
L 172 0 
L 1081 4666 
z
" transform="scale(0.015625)"/>
      </defs>
      <use xlink:href="#DejaVuSans-Oblique-49" transform="translate(0 0.09375)"/>
     </g>
    </g>
   </g>
   <g id="line2d_10">
    <path d="M 80.754545 254.52 
L 86.797133 198.90206 
L 89.996151 171.41056 
L 92.839722 148.957699 
L 94.9724 133.667529 
L 97.105078 119.924626 
L 98.88231 109.781735 
L 100.659541 100.926123 
L 102.081327 94.821804 
L 103.503112 89.626738 
L 104.924898 85.370505 
L 105.991237 82.809222 
L 107.057576 80.79798 
L 108.123915 79.343222 
L 108.834808 78.684916 
L 109.5457 78.276982 
L 110.256593 78.12 
L 110.967486 78.214195 
L 111.678378 78.559431 
L 112.389271 79.155218 
L 113.100164 80.000707 
L 114.166503 81.734401 
L 115.232842 84.02158 
L 116.299181 86.854917 
L 117.36552 90.225335 
L 118.787305 95.535783 
L 120.209091 101.751419 
L 121.986323 110.739498 
L 123.763554 121.006338 
L 125.896233 134.885188 
L 128.028911 150.295717 
L 130.517035 169.946344 
L 133.360606 194.186975 
L 137.270516 229.640032 
L 147.223014 321.063983 
L 150.066585 344.873955 
L 152.554709 364.03951 
L 154.687387 378.960483 
L 156.820066 392.288251 
L 158.597297 402.053924 
L 160.374529 410.507454 
L 161.796314 416.274602 
L 163.2181 421.120788 
L 164.284439 424.134246 
L 165.350778 426.604379 
L 166.417117 428.523273 
L 167.483456 429.884782 
L 168.194349 430.480569 
L 168.905242 430.825805 
L 169.616134 430.92 
L 170.327027 430.763018 
L 171.03792 430.355084 
L 171.748812 429.696778 
L 172.459705 428.789038 
L 173.526044 426.962663 
L 174.592383 424.583901 
L 175.658722 421.660374 
L 177.080508 416.931358 
L 178.502293 411.27764 
L 179.924079 404.731411 
L 181.70131 395.350778 
L 183.478542 384.717619 
L 185.61122 370.438384 
L 187.743898 354.675052 
L 190.232023 334.678947 
L 193.43104 306.969567 
L 197.696396 267.821072 
L 205.516216 195.753486 
L 208.715233 168.489655 
L 211.203358 148.957699 
L 213.336036 133.667529 
L 215.468714 119.924626 
L 217.245946 109.781735 
L 219.023178 100.926123 
L 220.444963 94.821804 
L 221.866749 89.626738 
L 223.288534 85.370505 
L 224.354873 82.809222 
L 225.421212 80.79798 
L 226.487551 79.343222 
L 227.198444 78.684916 
L 227.909337 78.276982 
L 228.620229 78.12 
L 229.331122 78.214195 
L 230.042015 78.559431 
L 230.752907 79.155218 
L 231.4638 80.000707 
L 232.530139 81.734401 
L 233.596478 84.02158 
L 234.662817 86.854917 
L 235.729156 90.225335 
L 237.150942 95.535783 
L 238.572727 101.751419 
L 240.349959 110.739498 
L 242.127191 121.006338 
L 244.259869 134.885188 
L 246.392547 150.295717 
L 248.880672 169.946344 
L 251.724242 194.186975 
L 255.634152 229.640032 
L 265.58665 321.063983 
L 268.430221 344.873955 
L 270.918346 364.03951 
L 273.051024 378.960483 
L 275.183702 392.288251 
L 276.960934 402.053924 
L 278.738165 410.507454 
L 280.159951 416.274602 
L 281.581736 421.120788 
L 282.648075 424.134246 
L 283.714414 426.604379 
L 284.780753 428.523273 
L 285.847093 429.884782 
L 286.557985 430.480569 
L 287.268878 430.825805 
L 287.979771 430.92 
L 288.690663 430.763018 
L 289.401556 430.355084 
L 290.112449 429.696778 
L 290.823342 428.789038 
L 291.889681 426.962663 
L 292.95602 424.583901 
L 294.022359 421.660374 
L 295.444144 416.931358 
L 296.86593 411.27764 
L 298.287715 404.731411 
L 300.064947 395.350778 
L 301.842179 384.717619 
L 303.974857 370.438384 
L 306.107535 354.675052 
L 308.595659 334.678947 
L 311.794676 306.969567 
L 316.060033 267.821072 
L 323.879853 195.753486 
L 327.07887 168.489655 
L 329.566994 148.957699 
L 331.699672 133.667529 
L 333.832351 119.924626 
L 335.609582 109.781735 
L 337.386814 100.926123 
L 338.8086 94.821804 
L 340.230385 89.626738 
L 341.65217 85.370505 
L 342.718509 82.809222 
L 343.784848 80.79798 
L 344.851188 79.343222 
L 345.56208 78.684916 
L 346.272973 78.276982 
L 346.983866 78.12 
L 347.694758 78.214195 
L 348.405651 78.559431 
L 349.116544 79.155218 
L 349.827437 80.000707 
L 350.893776 81.734401 
L 351.960115 84.02158 
L 353.026454 86.854917 
L 354.092793 90.225335 
L 355.514578 95.535783 
L 356.936364 101.751419 
L 358.713595 110.739498 
L 360.490827 121.006338 
L 362.623505 134.885188 
L 364.756183 150.295717 
L 367.244308 169.946344 
L 370.087879 194.186975 
L 373.997789 229.640032 
L 383.950287 321.063983 
L 386.793857 344.873955 
L 389.281982 364.03951 
L 391.41466 378.960483 
L 393.547338 392.288251 
L 395.32457 402.053924 
L 397.101802 410.507454 
L 398.523587 416.274602 
L 399.945373 421.120788 
L 401.011712 424.134246 
L 402.078051 426.604379 
L 403.14439 428.523273 
L 404.210729 429.884782 
L 404.921622 430.480569 
L 405.632514 430.825805 
L 406.343407 430.92 
L 407.0543 430.763018 
L 407.765192 430.355084 
L 408.476085 429.696778 
L 409.186978 428.789038 
L 410.253317 426.962663 
L 411.319656 424.583901 
L 412.385995 421.660374 
L 413.807781 416.931358 
L 415.229566 411.27764 
L 416.651351 404.731411 
L 418.428583 395.350778 
L 420.205815 384.717619 
L 422.338493 370.438384 
L 424.471171 354.675052 
L 426.959296 334.678947 
L 430.158313 306.969567 
L 434.423669 267.821072 
L 435.845455 254.52 
L 435.845455 254.52 
" clip-path="url(#p9b6f7a9846)" style="fill: none; stroke: #f9123c; stroke-width: 2.5; stroke-linecap: square"/>
   </g>
   <g id="patch_3">
    <path d="M 63 448.56 
L 63 60.48 
" style="fill: none; stroke: #000000; stroke-width: 0.8; stroke-linejoin: miter; stroke-linecap: square"/>
   </g>
   <g id="patch_4">
    <path d="M 63 448.56 
L 453.6 448.56 
" style="fill: none; stroke: #000000; stroke-width: 0.8; stroke-linejoin: miter; stroke-linecap: square"/>
   </g>
   <g id="text_3">
    <!-- Signal -->
    <g transform="translate(210.37875 53.991375) scale(0.312 -0.312)">
     <defs>
      <path id="DejaVuSans-53" d="M 3425 4513 
L 3425 3897 
Q 3066 4069 2747 4153 
Q 2428 4238 2131 4238 
Q 1616 4238 1336 4038 
Q 1056 3838 1056 3469 
Q 1056 3159 1242 3001 
Q 1428 2844 1947 2747 
L 2328 2669 
Q 3034 2534 3370 2195 
Q 3706 1856 3706 1288 
Q 3706 609 3251 259 
Q 2797 -91 1919 -91 
Q 1588 -91 1214 -16 
Q 841 59 441 206 
L 441 856 
Q 825 641 1194 531 
Q 1563 422 1919 422 
Q 2459 422 2753 634 
Q 3047 847 3047 1241 
Q 3047 1584 2836 1778 
Q 2625 1972 2144 2069 
L 1759 2144 
Q 1053 2284 737 2584 
Q 422 2884 422 3419 
Q 422 4038 858 4394 
Q 1294 4750 2059 4750 
Q 2388 4750 2728 4690 
Q 3069 4631 3425 4513 
z
" transform="scale(0.015625)"/>
      <path id="DejaVuSans-69" d="M 603 3500 
L 1178 3500 
L 1178 0 
L 603 0 
L 603 3500 
z
M 603 4863 
L 1178 4863 
L 1178 4134 
L 603 4134 
L 603 4863 
z
" transform="scale(0.015625)"/>
      <path id="DejaVuSans-67" d="M 2906 1791 
Q 2906 2416 2648 2759 
Q 2391 3103 1925 3103 
Q 1463 3103 1205 2759 
Q 947 2416 947 1791 
Q 947 1169 1205 825 
Q 1463 481 1925 481 
Q 2391 481 2648 825 
Q 2906 1169 2906 1791 
z
M 3481 434 
Q 3481 -459 3084 -895 
Q 2688 -1331 1869 -1331 
Q 1566 -1331 1297 -1286 
Q 1028 -1241 775 -1147 
L 775 -588 
Q 1028 -725 1275 -790 
Q 1522 -856 1778 -856 
Q 2344 -856 2625 -561 
Q 2906 -266 2906 331 
L 2906 616 
Q 2728 306 2450 153 
Q 2172 0 1784 0 
Q 1141 0 747 490 
Q 353 981 353 1791 
Q 353 2603 747 3093 
Q 1141 3584 1784 3584 
Q 2172 3584 2450 3431 
Q 2728 3278 2906 2969 
L 2906 3500 
L 3481 3500 
L 3481 434 
z
" transform="scale(0.015625)"/>
      <path id="DejaVuSans-6e" d="M 3513 2113 
L 3513 0 
L 2938 0 
L 2938 2094 
Q 2938 2591 2744 2837 
Q 2550 3084 2163 3084 
Q 1697 3084 1428 2787 
Q 1159 2491 1159 1978 
L 1159 0 
L 581 0 
L 581 3500 
L 1159 3500 
L 1159 2956 
Q 1366 3272 1645 3428 
Q 1925 3584 2291 3584 
Q 2894 3584 3203 3211 
Q 3513 2838 3513 2113 
z
" transform="scale(0.015625)"/>
      <path id="DejaVuSans-61" d="M 2194 1759 
Q 1497 1759 1228 1600 
Q 959 1441 959 1056 
Q 959 750 1161 570 
Q 1363 391 1709 391 
Q 2188 391 2477 730 
Q 2766 1069 2766 1631 
L 2766 1759 
L 2194 1759 
z
M 3341 1997 
L 3341 0 
L 2766 0 
L 2766 531 
Q 2569 213 2275 61 
Q 1981 -91 1556 -91 
Q 1019 -91 701 211 
Q 384 513 384 1019 
Q 384 1609 779 1909 
Q 1175 2209 1959 2209 
L 2766 2209 
L 2766 2266 
Q 2766 2663 2505 2880 
Q 2244 3097 1772 3097 
Q 1472 3097 1187 3025 
Q 903 2953 641 2809 
L 641 3341 
Q 956 3463 1253 3523 
Q 1550 3584 1831 3584 
Q 2591 3584 2966 3190 
Q 3341 2797 3341 1997 
z
" transform="scale(0.015625)"/>
      <path id="DejaVuSans-6c" d="M 603 4863 
L 1178 4863 
L 1178 0 
L 603 0 
L 603 4863 
z
" transform="scale(0.015625)"/>
     </defs>
     <use xlink:href="#DejaVuSans-53"/>
     <use xlink:href="#DejaVuSans-69" transform="translate(63.476562 0)"/>
     <use xlink:href="#DejaVuSans-67" transform="translate(91.259766 0)"/>
     <use xlink:href="#DejaVuSans-6e" transform="translate(154.736328 0)"/>
     <use xlink:href="#DejaVuSans-61" transform="translate(218.115234 0)"/>
     <use xlink:href="#DejaVuSans-6c" transform="translate(279.394531 0)"/>
    </g>
   </g>
  </g>
 </g>
 <defs>
  <clipPath id="p9b6f7a9846">
   <rect x="63" y="60.48" width="390.6" height="388.08"/>
  </clipPath>
 </defs>
</svg>
