<?xml version="1.0" encoding="UTF-8" standalone="no"?>
<!-- Created with Inkscape (http://www.inkscape.org/) -->

<svg
   version="1.1"
   id="svg1"
   width="776.17468"
   height="232.50133"
   viewBox="0 0 776.17468 232.50133"
   sodipodi:docname="circuits.pdf"
   xmlns:inkscape="http://www.inkscape.org/namespaces/inkscape"
   xmlns:sodipodi="http://sodipodi.sourceforge.net/DTD/sodipodi-0.dtd"
   xmlns="http://www.w3.org/2000/svg"
   xmlns:svg="http://www.w3.org/2000/svg">
  <defs
     id="defs1" />
  <sodipodi:namedview
     id="namedview1"
     pagecolor="#ffffff"
     bordercolor="#000000"
     borderopacity="0.25"
     inkscape:showpageshadow="2"
     inkscape:pageopacity="0.0"
     inkscape:pagecheckerboard="0"
     inkscape:deskcolor="#d1d1d1">
    <inkscape:page
       x="0"
       y="0"
       inkscape:label="1"
       id="page1"
       width="776.17468"
       height="232.50133"
       margin="0"
       bleed="0" />
  </sodipodi:namedview>
  <g
     id="g1"
     inkscape:groupmode="layer"
     inkscape:label="1">
    <path
       id="path1"
       d="m 11.90572,28.3468 c 0,6.57543 -5.33031,11.90572 -11.90572,11.90572 -6.57541,0 -11.90572,-5.33029 -11.90572,-11.90572 0,-6.57542 5.33031,-11.90571 11.90572,-11.90571 6.57541,0 11.90572,5.33029 11.90572,11.90571 z"
       style="fill:none;stroke:#000000;stroke-width:1.59404;stroke-linecap:butt;stroke-linejoin:miter;stroke-miterlimit:10;stroke-dasharray:none;stroke-opacity:1"
       transform="matrix(1.3333333,0,0,-1.3333333,76.934667,207.628)" />
    <path
       id="path2"
       d="m 7.8737813,-2.7530156 c 0.2109375,0 0.421875,0 0.421875,-0.234375 0,-0.234375 -0.2109375,-0.234375 -0.421875,-0.234375 h -6.46875 c -0.1992188,0 -0.4101563,0 -0.4101563,0.234375 0,0.234375 0.2109375,0.234375 0.4101563,0.234375 z m 0,0"
       style="fill:#000000;fill-opacity:1;fill-rule:nonzero;stroke:none"
       aria-label="−"
       transform="matrix(1.3333333,0,0,1.3333333,70.736,179.616)" />
    <path
       id="path3"
       d="m 4.7709219,-2.7669375 h 3.3046875 c 0.1640625,0 0.375,0 0.375,-0.2109375 0,-0.2226562 -0.1992188,-0.2226562 -0.375,-0.2226562 H 4.7709219 v -3.3046875 c 0,-0.1640625 0,-0.3867188 -0.2109375,-0.3867188 -0.234375,0 -0.234375,0.2109375 -0.234375,0.3867188 v 3.3046875 H 1.0326406 c -0.17578122,0 -0.38671872,0 -0.38671872,0.2109375 0,0.2226562 0.19921875,0.2226562 0.38671872,0.2226562 H 4.3256094 V 0.53775 c 0,0.1640625 0,0.38671875 0.2226562,0.38671875 0.2226563,0 0.2226563,-0.2109375 0.2226563,-0.38671875 z m 0,0"
       style="fill:#000000;fill-opacity:1;fill-rule:nonzero;stroke:none"
       aria-label="+"
       transform="matrix(1.3333333,0,0,1.3333333,70.865333,167.908)" />
    <path
       id="path4"
       d="m 12.784531,-11.811047 c 0.703125,-1.125 1.347657,-1.617187 2.402344,-1.699219 0.199219,-0.02344 0.375,-0.02344 0.375,-0.386718 0,-0.09375 -0.04687,-0.210938 -0.234375,-0.210938 -0.375,0 -1.253906,0.03516 -1.628906,0.03516 -0.597656,0 -1.21875,-0.03516 -1.804688,-0.03516 -0.164062,0 -0.363281,0 -0.363281,0.386719 0,0.1875 0.1875,0.210937 0.269531,0.210937 0.761719,0.05859 0.84375,0.433594 0.84375,0.679688 0,0.316406 -0.292968,0.785156 -0.304687,0.808594 L 5.8470313,-1.7329219 4.405625,-12.865734 c 0,-0.597657 1.0664063,-0.644532 1.3007813,-0.644532 0.3046875,0 0.4921875,0 0.4921875,-0.386718 0,-0.210938 -0.2226563,-0.210938 -0.2929688,-0.210938 -0.3515625,0 -0.7617187,0.03516 -1.1132812,0.03516 H 3.6321875 c -1.5,0 -2.1210937,-0.03516 -2.1445312,-0.03516 -0.1289063,0 -0.375,0 -0.375,0.375 0,0.222656 0.1523437,0.222656 0.4804687,0.222656 1.0546875,0 1.1132813,0.1875 1.171875,0.703125 l 1.6523438,12.75000038 c 0.070312,0.43359375 0.070312,0.4921875 0.3515625,0.4921875 0.2460937,0 0.3515625,-0.0585938 0.5625,-0.38671875 z m 0,0"
       style="fill:#000000;fill-opacity:1;fill-rule:nonzero;stroke:none"
       aria-label="V"
       transform="matrix(1.3333333,0,0,1.3333333,5.3133333,177.084)" />
    <text
       id="text4"
       xml:space="preserve"
       transform="matrix(1.3333333,0,0,1.3333333,21.038667,181.216)"><tspan
         id="tspan4"
         style="font-variant:normal;font-weight:normal;font-size:14.3462px;font-family:'Latin Modern Roman';writing-mode:lr-tb;fill:#000000;fill-opacity:1;fill-rule:nonzero;stroke:none"
         x="0"
         y="0">bias</tspan></text>
    <path
       id="path5"
       d="m 0,68.3692 -5.95285,3.50914 11.9057,5.42421 -11.9057,5.42423 11.9057,5.42421 -11.9057,5.42422 11.9057,5.42421 L 0,101.71153"
       style="fill:none;stroke:#000000;stroke-width:1.59404;stroke-linecap:butt;stroke-linejoin:bevel;stroke-miterlimit:10;stroke-dasharray:none;stroke-opacity:1"
       transform="matrix(1.3333333,0,0,-1.3333333,76.934667,207.628)" />
    <path
       id="path6"
       d="m 7.6047422,-12.701937 c 0.1875,-0.761719 0.2695312,-0.808594 1.0664062,-0.808594 H 10.15943 c 1.78125,0 3.105468,0.539062 3.105468,2.144531 0,1.054688 -0.539062,4.0898438 -4.6874996,4.0898438 h -2.34375 z m 2.8710938,5.6835933 c 2.554687,-0.5625 4.558594,-2.2148438 4.558594,-3.9960933 0,-1.605469 -1.628907,-3.09375 -4.5,-3.09375 H 4.9328672 c -0.4101563,0 -0.5976563,0 -0.5976563,0.386718 0,0.210938 0.1523438,0.210938 0.5390625,0.210938 1.2421875,0 1.2421875,0.164062 1.2421875,0.386719 0,0.04687 0,0.175781 -0.082031,0.480468 L 3.2453672,-1.52225 c -0.1875,0.71484375 -0.234375,0.92578125 -1.6523438,0.92578125 -0.4804687,0 -0.62109371,0 -0.62109371,0.38671875 0,0.2109375 0.22265621,0.2109375 0.29296871,0.2109375 0.3632813,0 0.796875,-0.046875 1.1953125,-0.046875 h 2.4375 c 0.375,0 0.8085938,0.046875 1.171875,0.046875 0.1640625,0 0.3984375,0 0.3984375,-0.38671875 0,-0.2109375 -0.1875,-0.2109375 -0.4921875,-0.2109375 -1.265625,0 -1.265625,-0.1640625 -1.265625,-0.375 0,-0.0234375 0,-0.16406245 0.035156,-0.32812495 l 1.3945312,-5.5546875 h 2.4726563 c 1.9687506,0 2.3320316,1.2304687 2.3320316,1.921875 0,0.3046875 -0.199219,1.1132812 -0.351563,1.6523437 -0.222656,0.9492188 -0.28125,1.171875 -0.28125,1.5703125 0,1.46484375 1.195313,2.14453125 2.578125,2.14453125 1.675782,0 2.402344,-2.05078125 2.402344,-2.33203125 0,-0.1523437 -0.105469,-0.2109375 -0.234375,-0.2109375 -0.164062,0 -0.199219,0.1289063 -0.246094,0.2929688 -0.492187,1.4648437 -1.347656,1.8398437 -1.863281,1.8398437 -0.515625,0 -0.84375,-0.234375 -0.84375,-1.1601562 0,-0.4921875 0.246094,-2.3789063 0.269531,-2.484375 0.105469,-0.7617188 0.105469,-0.84375 0.105469,-1.0078125 0,-1.5117188 -1.21875,-2.1445313 -2.003906,-2.390625 z m 0,0"
       style="fill:#000000;fill-opacity:1;fill-rule:nonzero;stroke:none"
       aria-label="R"
       transform="matrix(1.3333333,0,0,1.3333333,38.208,103.65467)" />
    <path
       id="path7"
       d="m 0,0 v 16.44109 m 0,23.81143 v 28.91371 m 0,31.74838 v 12.47263"
       style="fill:none;stroke:#000000;stroke-width:0.79701;stroke-linecap:butt;stroke-linejoin:miter;stroke-miterlimit:10;stroke-dasharray:none;stroke-opacity:1"
       transform="matrix(1.3333333,0,0,-1.3333333,76.934667,207.628)" />
    <path
       id="path8"
       d="M 0,0 V -9.92134"
       style="fill:none;stroke:#000000;stroke-width:0.79701;stroke-linecap:butt;stroke-linejoin:miter;stroke-miterlimit:10;stroke-dasharray:none;stroke-opacity:1"
       transform="matrix(1.3333333,0,0,-1.3333333,76.934667,207.628)" />
    <path
       id="path9"
       d="M -5.95285,-9.92134 H 5.95285 L 0,-17.85843 Z"
       style="fill:none;stroke:#000000;stroke-width:1.59404;stroke-linecap:butt;stroke-linejoin:miter;stroke-miterlimit:10;stroke-dasharray:none;stroke-opacity:1"
       transform="matrix(1.3333333,0,0,-1.3333333,76.934667,207.628)" />
    <path
       id="path10"
       d="m 164.128,40.81941 v 31.7484 h 11.9057 v -31.7484 z"
       style="fill:none;stroke:#000000;stroke-width:1.59404;stroke-linecap:butt;stroke-linejoin:miter;stroke-miterlimit:10;stroke-dasharray:none;stroke-opacity:1"
       transform="matrix(1.3333333,0,0,-1.3333333,76.934667,207.628)" />
    <path
       id="path11"
       d="m 14.460977,-13.464148 c 0.128906,-0.152344 0.222656,-0.269532 0.222656,-0.480469 0,-0.140625 -0.01172,-0.164063 -0.492188,-0.164063 H 5.6601953 c -0.46875,0 -0.4921875,0.02344 -0.6210937,0.386719 l -1.1367188,3.7265626 c -0.058594,0.1992187 -0.058594,0.2460937 -0.058594,0.28125 0,0.082031 0.058594,0.2109375 0.2109375,0.2109375 0.1640625,0 0.1992187,-0.082031 0.28125,-0.3515625 0.7617187,-2.2265626 1.78125,-3.6562496 5.0390625,-3.6562496 H 12.773477 L 1.4414453,-0.70242969 c -0.1757812,0.22265625 -0.2695312,0.31640625 -0.2695312,0.5390625 0,0.1640625025 0.1054687,0.1640625025 0.5039062,0.1640625025 h 8.8242187 c 0.46875,0 0.492188,-0.0234375025 0.609375,-0.3867187525 l 1.453125,-4.57031246 c 0.02344,-0.058594 0.05859,-0.2109375 0.05859,-0.2929688 0,-0.1054687 -0.08203,-0.1992187 -0.199219,-0.1992187 -0.175781,0 -0.1875,0.011719 -0.351562,0.5273437 -0.867188,2.671875 -1.78125,4.27734376 -5.3789067,4.27734376 H 3.1172266 Z m 0,0"
       style="fill:#000000;fill-opacity:1;fill-rule:nonzero;stroke:none"
       aria-label="Z"
       transform="matrix(1.3333333,0,0,1.3333333,227.38667,139.18267)" />
    <text
       id="text11"
       xml:space="preserve"
       transform="matrix(1.3333333,0,0,1.3333333,245.85067,143.316)"><tspan
         id="tspan11"
         style="font-variant:normal;font-weight:normal;font-size:14.3462px;font-family:'Latin Modern Roman';writing-mode:lr-tb;fill:#000000;fill-opacity:1;fill-rule:nonzero;stroke:none"
         x="0"
         y="0">RLC</tspan></text>
    <path
       id="path12"
       d="m 170.08086,0 v 40.81941 m 0,31.7484 v 40.81943"
       style="fill:none;stroke:#000000;stroke-width:0.79701;stroke-linecap:butt;stroke-linejoin:miter;stroke-miterlimit:10;stroke-dasharray:none;stroke-opacity:1"
       transform="matrix(1.3333333,0,0,-1.3333333,76.934667,207.628)" />
    <path
       id="path13"
       d="M 352.06743,60.6621 H 328.256 m 23.81143,-7.93697 H 328.256"
       style="fill:none;stroke:#000000;stroke-width:1.59404;stroke-linecap:butt;stroke-linejoin:miter;stroke-miterlimit:10;stroke-dasharray:none;stroke-opacity:1"
       transform="matrix(1.3333333,0,0,-1.3333333,76.934667,207.628)" />
    <path
       id="path14"
       d="m 15.434508,-14.356359 c 0,-0.1875 -0.140625,-0.1875 -0.1875,-0.1875 -0.03516,0 -0.117188,0 -0.292969,0.199218 l -1.417969,1.746094 c -0.726562,-1.242187 -1.863281,-1.945312 -3.410156,-1.945312 -4.4648437,0 -9.0937499,4.523437 -9.0937499,9.3749996 0,3.4570313 2.4140625,5.60156252 5.4375,5.60156252 1.6523437,0 3.09375,-0.703125 4.3007809,-1.71093752 1.792969,-1.5117187 2.332032,-3.515625 2.332032,-3.6796875 0,-0.1875 -0.164063,-0.1875 -0.234375,-0.1875 -0.1875,0 -0.199219,0.1289063 -0.246094,0.2109375 -0.949219,3.2226563 -3.7382814,4.76953127 -5.8007814,4.76953127 -2.1914063,0 -4.0898438,-1.40624997 -4.0898438,-4.33593747 0,-0.6679688 0.1992188,-4.265625 2.5429688,-6.9609374 1.1367187,-1.324219 3.0703125,-2.484375 5.0390624,-2.484375 2.273438,0 3.28125,1.875 3.28125,3.9843749 0,0.5390625 -0.05859,0.9960937 -0.05859,1.078125 0,0.1875 0.199219,0.1875 0.269532,0.1875 0.222656,0 0.246093,-0.023437 0.328125,-0.3984375 z m 0,0"
       style="fill:#000000;fill-opacity:1;fill-rule:nonzero;stroke:none"
       aria-label="C"
       transform="matrix(1.3333333,0,0,1.3333333,465.448,139.384)" />
    <text
       id="text14"
       xml:space="preserve"
       transform="matrix(1.3333333,0,0,1.3333333,484.74667,143.516)"><tspan
         id="tspan14"
         style="font-variant:normal;font-weight:normal;font-size:14.3462px;font-family:'Latin Modern Roman';writing-mode:lr-tb;fill:#000000;fill-opacity:1;fill-rule:nonzero;stroke:none"
         x="0"
         y="0">in</tspan></text>
    <path
       id="path15"
       d="m 340.16171,0 v 52.72513 m 0,7.93697 v 52.72514"
       style="fill:none;stroke:#000000;stroke-width:0.79701;stroke-linecap:butt;stroke-linejoin:miter;stroke-miterlimit:10;stroke-dasharray:none;stroke-opacity:1"
       transform="matrix(1.3333333,0,0,-1.3333333,76.934667,207.628)" />
    <path
       id="path16"
       d="m 340.16171,113.38724 h 14.45699 m 27.77965,0 h 14.45698 14.45699 m 27.77964,0 h 14.45699"
       style="fill:none;stroke:#000000;stroke-width:0.79701;stroke-linecap:butt;stroke-linejoin:miter;stroke-miterlimit:10;stroke-dasharray:none;stroke-opacity:1"
       transform="matrix(1.3333333,0,0,-1.3333333,76.934667,207.628)" />
    <path
       id="path17"
       d="M 354.6187,128.66612 382.39835,113.38724 354.6187,98.10835 Z"
       style="fill:none;stroke:#000000;stroke-width:1.59404;stroke-linecap:butt;stroke-linejoin:miter;stroke-miterlimit:10;stroke-dasharray:none;stroke-opacity:1"
       transform="matrix(1.3333333,0,0,-1.3333333,76.934667,207.628)" />
    <path
       id="path18"
       d="m 3.5159531,-2.2974687 c -0.7265625,1.21875 -1.4296875,1.64062495 -2.4257812,1.6992187 -0.22265627,0.0234375 -0.38671877,0.0234375 -0.38671877,0.38671875 0,0.12890625 0.10546875,0.2109375 0.24609375,0.2109375 0.37500002,0 1.30078122,-0.046875 1.67578122,-0.046875 0.5976563,0 1.2539063,0.046875 1.8398438,0.046875 0.1171875,0 0.375,0 0.375,-0.38671875 0,-0.1875 -0.1757813,-0.2109375 -0.2929688,-0.2109375 -0.4804687,-0.046875 -0.8671875,-0.2109375 -0.8671875,-0.703125 0,-0.2929687 0.1171875,-0.515625 0.3867188,-0.9726562 l 1.5703125,-2.6015625 h 5.2734371 c 0.02344,0.1875 0.02344,0.3515625 0.03516,0.5390625 0.07031,0.5390625 0.316406,2.6835937 0.316406,3.0703125 0,0.6210937 -1.054688,0.6679687 -1.3828126,0.6679687 -0.234375,0 -0.4570313,0 -0.4570313,0.375 0,0.22265625 0.1875,0.22265625 0.3046875,0.22265625 0.3515624,0 0.7734374,-0.046875 1.1250004,-0.046875 h 1.171875 c 1.265625,0 2.167968,0.046875 2.191406,0.046875 0.140625,0 0.375,0 0.375,-0.38671875 0,-0.2109375 -0.1875,-0.2109375 -0.503906,-0.2109375 -1.136719,0 -1.148438,-0.1875 -1.21875,-0.8085937 l -1.25391,-12.8906253 c -0.04687,-0.410156 -0.128906,-0.457031 -0.351562,-0.457031 -0.210938,0 -0.328125,0.04687 -0.515625,0.351563 z m 2.4726563,-3.1757813 4.1601566,-6.949219 0.703125,6.949219 z m 0,0"
       style="fill:#000000;fill-opacity:1;fill-rule:nonzero;stroke:none"
       aria-label="A"
       transform="matrix(1.3333333,0,0,1.3333333,553.148,30.922667)" />
    <path
       id="path19"
       d="m 4.1380391,-9.1992031 c 0,-0.328125 0,-0.3398438 -0.2929688,-0.3398438 -0.3398437,0.3867188 -1.0664062,0.9140625 -2.5429687,0.9140625 v 0.421875 c 0.3398437,0 1.0546875,0 1.8398437,-0.375 v 7.4765625 c 0,0.51562503 -0.046875,0.69140628 -1.3007812,0.69140628 H 1.3958516 V 1.5625e-5 c 0.3867187,-0.023437495 1.78125,-0.023437495 2.25,-0.023437495 0.46875,0 1.8515625,0 2.2382812,0.023437495 V -0.41014062 H 5.4388203 c -1.265625,0 -1.3007812,-0.17578125 -1.3007812,-0.69140628 z m 0,0"
       style="fill:#000000;fill-opacity:1;fill-rule:nonzero;stroke:none"
       aria-label="1"
       transform="matrix(1.3333333,0,0,1.3333333,573.36933,35.054667)" />
    <path
       id="path20"
       d="M 411.31232,128.66612 439.09196,113.38724 411.31232,98.10835 Z"
       style="fill:none;stroke:#000000;stroke-width:1.59404;stroke-linecap:butt;stroke-linejoin:miter;stroke-miterlimit:10;stroke-dasharray:none;stroke-opacity:1"
       transform="matrix(1.3333333,0,0,-1.3333333,76.934667,207.628)" />
    <path
       id="path21"
       d="m 3.5163359,-2.2974687 c -0.7265625,1.21875 -1.4296875,1.64062495 -2.4257812,1.6992187 -0.22265626,0.0234375 -0.38671876,0.0234375 -0.38671876,0.38671875 0,0.12890625 0.10546875,0.2109375 0.24609375,0.2109375 0.37500001,0 1.30078121,-0.046875 1.67578121,-0.046875 0.5976563,0 1.2539063,0.046875 1.8398438,0.046875 0.1171875,0 0.375,0 0.375,-0.38671875 0,-0.1875 -0.1757813,-0.2109375 -0.2929688,-0.2109375 -0.4804687,-0.046875 -0.8671875,-0.2109375 -0.8671875,-0.703125 0,-0.2929687 0.1171875,-0.515625 0.3867188,-0.9726562 l 1.5703125,-2.6015625 h 5.2734373 c 0.02344,0.1875 0.02344,0.3515625 0.03516,0.5390625 0.07031,0.5390625 0.316407,2.6835937 0.316407,3.0703125 0,0.6210937 -1.054688,0.6679687 -1.3828128,0.6679687 -0.234375,0 -0.4570313,0 -0.4570313,0.375 0,0.22265625 0.1875,0.22265625 0.3046875,0.22265625 0.3515626,0 0.7734376,-0.046875 1.1249996,-0.046875 h 1.171875 c 1.265625,0 2.167969,0.046875 2.191407,0.046875 0.140625,0 0.375,0 0.375,-0.38671875 0,-0.2109375 -0.1875,-0.2109375 -0.503907,-0.2109375 -1.136718,0 -1.148437,-0.1875 -1.21875,-0.8085937 l -1.25391,-12.8906253 c -0.04687,-0.410156 -0.128906,-0.457031 -0.351562,-0.457031 -0.210938,0 -0.328125,0.04687 -0.515625,0.351563 z m 2.4726563,-3.1757813 4.1601558,-6.949219 0.703125,6.949219 z m 0,0"
       style="fill:#000000;fill-opacity:1;fill-rule:nonzero;stroke:none"
       aria-label="A"
       transform="matrix(1.3333333,0,0,1.3333333,628.73733,30.922667)" />
    <path
       id="path22"
       d="M 6.3171094,-2.4140469 H 6.0007031 c -0.046875,0.2460938 -0.1640625,1.03125 -0.3046875,1.265625 -0.1054687,0.1289063 -0.9140625,0.1289063 -1.3476562,0.1289063 H 1.6882031 c 0.3867188,-0.328125 1.265625,-1.2421875 1.640625,-1.59375 2.1796875,-2.0039063 2.9882813,-2.7539063 2.9882813,-4.171875 0,-1.6523438 -1.3125,-2.7539063 -2.9765625,-2.7539063 -1.6640625,0 -2.63671878,1.4179688 -2.63671878,2.6484375 0,0.7382813 0.63281248,0.7382813 0.67968748,0.7382813 0.2929688,0 0.6679688,-0.2109375 0.6679688,-0.6796875 0,-0.3984375 -0.2695313,-0.6679688 -0.6679688,-0.6679688 -0.140625,0 -0.1640625,0 -0.2109375,0.011719 0.28125,-0.9726563 1.0546875,-1.6289063 1.9804688,-1.6289063 1.21875,0 1.96875,1.0078125 1.96875,2.3320313 0,1.21875 -0.703125,2.2851562 -1.5234375,3.1992187 L 0.70382812,-0.33982812 V 1.5625e-5 H 5.9421094 Z m 0,0"
       style="fill:#000000;fill-opacity:1;fill-rule:nonzero;stroke:none"
       aria-label="2"
       transform="matrix(1.3333333,0,0,1.3333333,648.96,35.054667)" />
    <path
       id="path23"
       d="M 0,0 H 340.16171 M 0,113.38724 h 340.16171"
       style="fill:none;stroke:#000000;stroke-width:0.79701;stroke-linecap:butt;stroke-linejoin:miter;stroke-miterlimit:10;stroke-dasharray:none;stroke-opacity:1"
       transform="matrix(1.3333333,0,0,-1.3333333,76.934667,207.628)" />
    <path
       id="path24"
       d="m 453.54895,113.38724 h 7.08669 m 0,0 h 7.08671"
       style="fill:none;stroke:#000000;stroke-width:0.79701;stroke-linecap:butt;stroke-linejoin:miter;stroke-miterlimit:10;stroke-dasharray:none;stroke-opacity:1"
       transform="matrix(1.3333333,0,0,-1.3333333,76.934667,207.628)" />
    <path
       id="path25"
       d="m 469.3095,113.38724 c 0,0.87656 -0.7106,1.58714 -1.58715,1.58714 -0.87657,0 -1.58715,-0.71058 -1.58715,-1.58714 0,-0.87657 0.71058,-1.58716 1.58715,-1.58716 0.87655,0 1.58715,0.71059 1.58715,1.58716 z"
       style="fill:#ffffff;fill-opacity:1;fill-rule:nonzero;stroke:#000000;stroke-width:0.79701;stroke-linecap:butt;stroke-linejoin:miter;stroke-miterlimit:10;stroke-dasharray:none;stroke-opacity:1"
       transform="matrix(1.3333333,0,0,-1.3333333,76.934667,207.628)" />
    <path
       id="path26"
       d="m 13.123828,-14.355273 c 0,-0.1875 -0.152344,-0.1875 -0.1875,-0.1875 -0.08203,0 -0.105469,0.02344 -0.351562,0.328125 -0.128907,0.140625 -0.972657,1.21875 -0.996094,1.242187 -0.679688,-1.347656 -2.0390626,-1.570312 -2.9179689,-1.570312 -2.6132812,0 -4.9921875,2.390625 -4.9921875,4.7343746 0,1.546875 0.9257813,2.4492187 1.9453125,2.8007812 0.2226563,0.082031 1.4414063,0.421875 2.0625,0.5625 1.0546875,0.2929688 1.3242188,0.375 1.7578125,0.8203125 0.082031,0.1054688 0.4921875,0.5859375 0.4921875,1.5585938 0,1.921875 -1.78125,3.90234371 -3.84375,3.90234371 -1.6875,0 -3.5742187,-0.7265625 -3.5742187,-3.03515621 0,-0.3984375 0.082031,-0.890625 0.140625,-1.1015625 0,-0.058594 0.023437,-0.1640625 0.023437,-0.1992188 0,-0.082031 -0.035156,-0.1875 -0.1992188,-0.1875 -0.1875,0 -0.2109375,0.035156 -0.2929687,0.3867188 l -1.0546875,4.24218746 c 0,0.01171875 -0.082031,0.28125 -0.082031,0.3046875 0,0.1875 0.1640625,0.1875 0.2109375,0.1875 0.082031,0 0.09375,-0.0234375 0.3515625,-0.328125 l 0.949219,-1.24218746 c 0.4921875,0.74999996 1.5703125,1.57031246 3.4921875,1.57031246 2.6601562,0 5.0976561,-2.57812496 5.0976561,-5.16796876 0,-0.8671875 -0.210937,-1.6289062 -0.996094,-2.390625 -0.4335934,-0.4335937 -0.7968746,-0.5390625 -2.7070309,-1.03125 -1.3828125,-0.375 -1.5703125,-0.4335937 -1.9335937,-0.7734375 -0.3515625,-0.3515625 -0.6210938,-0.84375 -0.6210938,-1.5468748 0,-1.734375 1.7578125,-3.515625 3.7148438,-3.515625 2.0273436,0 2.9765626,1.242187 2.9765626,3.210937 0,0.539063 -0.105469,1.0898441 -0.105469,1.1718753 0,0.1875 0.164063,0.1875 0.234375,0.1875 0.175781,0 0.199219,-0.058594 0.28125,-0.3867187 z m 0,0"
       style="fill:#000000;fill-opacity:1;fill-rule:nonzero;stroke:none"
       aria-label="S"
       transform="matrix(1.3333333,0,0,1.3333333,706.4,61.933333)" />
    <path
       id="path27"
       d="m 6.5519219,-5.3673828 c 0,-0.9023438 -0.4570313,-0.9609375 -0.5742188,-0.9609375 -0.3398437,0 -0.65625,0.3515625 -0.65625,0.6328125 0,0.1757812 0.1054688,0.2695312 0.1640625,0.328125 0.140625,0.1289062 0.515625,0.515625 0.515625,1.265625 0,0.5976562 -0.8671875,3.96093749 -2.5898437,3.96093749 -0.8671875,0 -1.0429688,-0.73828125 -1.0429688,-1.26562499 0,-0.7148438 0.328125,-1.7226563 0.7148438,-2.7539063 0.234375,-0.5859375 0.2929687,-0.7265625 0.2929687,-1.0195312 0,-0.5976563 -0.4335937,-1.1484375 -1.1367187,-1.1484375 -1.32421878,0 -1.85156253,2.0859375 -1.85156253,2.1914062 0,0.058594 0.0585938,0.140625 0.1640625,0.140625 0.12890625,0 0.140625,-0.058594 0.19921875,-0.2695312 0.33984378,-1.2304688 0.90234378,-1.7695313 1.44140628,-1.7695313 0.1289062,0 0.375,0 0.375,0.46875 0,0.375 -0.1523438,0.7851563 -0.375,1.3359375 -0.6796875,1.8398438 -0.6796875,2.2851563 -0.6796875,2.625 0,0.3164063 0.035156,0.90234379 0.4804687,1.30078129 0.515625,0.4453125 1.2304688,0.4453125 1.359375,0.4453125 2.390625,0 3.1992188,-4.68749999 3.1992188,-5.50781249 z m 0,0"
       style="fill:#000000;fill-opacity:1;fill-rule:nonzero;stroke:none"
       aria-label="v"
       transform="matrix(1.3333333,0,0,1.3333333,722.99067,66.066667)" />
    <path
       id="path28"
       d="m 2.800306,0.05839844 c 0,-0.83203125 -0.28125,-1.45312504 -0.8671875,-1.45312504 -0.4570313,0 -0.6914063,0.375 -0.6914063,0.69140629 0,0.31640625 0.2226563,0.7031249975 0.703125,0.7031249975 0.1875,0 0.3515625,-0.0585937475 0.4804688,-0.1874999975 0.023437,-0.0234375 0.046875,-0.0234375 0.058594,-0.0234375 0.023437,0 0.023437,0.19921875 0.023437,0.26953125 0,0.46875 -0.082031,1.40624996 -0.9140625,2.33203126 C 1.429212,2.5662109 1.429212,2.6013672 1.429212,2.6248047 c 0,0.070312 0.082031,0.140625 0.1523438,0.140625 0.1054687,0 1.21875,-1.0546875 1.2187502,-2.70703126 z m 0,0"
       style="fill:#000000;fill-opacity:1;fill-rule:nonzero;stroke:none"
       aria-label=","
       transform="matrix(1.3333333,0,0,1.3333333,732.71548,66.066667)" />
    <text
       id="text28"
       xml:space="preserve"
       transform="matrix(1.3333333,0,0,1.3333333,737.93467,66.066667)"><tspan
         id="tspan28"
         style="font-variant:normal;font-weight:normal;font-size:14.3462px;font-family:'Latin Modern Roman';writing-mode:lr-tb;fill:#000000;fill-opacity:1;fill-rule:nonzero;stroke:none"
         x="0"
         y="0">out</tspan></text>
    <path
       id="path29"
       d="m 42.5202,125.29295 c -6.57542,0 -11.90571,-5.3303 -11.90571,-11.90571 0,-6.57543 5.33029,-11.90574 11.90571,-11.90574 6.57541,0 11.90572,5.33031 11.90572,11.90574 0,6.57541 -5.33031,11.90571 -11.90572,11.90571 z"
       style="fill:#fc899e;fill-opacity:1;fill-rule:nonzero;stroke:#000000;stroke-width:1.59404;stroke-linecap:butt;stroke-linejoin:miter;stroke-miterlimit:10;stroke-dasharray:none;stroke-opacity:1"
       transform="matrix(1.3333333,0,0,-1.3333333,76.934667,207.628)" />
    <path
       id="path30"
       d="m 35.3767,113.38724 h 14.287"
       style="fill:none;stroke:#000000;stroke-width:4.78214;stroke-linecap:round;stroke-linejoin:miter;stroke-miterlimit:10;stroke-dasharray:none;stroke-opacity:1"
       transform="matrix(1.3333333,0,0,-1.3333333,76.934667,207.628)" />
    <path
       id="path31"
       d="m 13.125203,-14.354469 c 0,-0.1875 -0.152344,-0.1875 -0.1875,-0.1875 -0.08203,0 -0.105469,0.02344 -0.351562,0.328125 -0.128907,0.140625 -0.972657,1.21875 -0.996094,1.242188 -0.679688,-1.347656 -2.0390626,-1.570313 -2.9179689,-1.570313 -2.6132812,0 -4.9921875,2.390625 -4.9921875,4.7343753 0,1.546875 0.9257813,2.4492187 1.9453125,2.8007812 0.2226563,0.082031 1.4414063,0.421875 2.0625,0.5625 1.0546875,0.2929688 1.3242188,0.375 1.7578125,0.8203125 0.082031,0.1054688 0.4921875,0.5859375 0.4921875,1.5585938 0,1.921875 -1.78125,3.9023437 -3.84375,3.9023437 -1.6875,0 -3.5742187,-0.7265625 -3.5742187,-3.0351562 0,-0.3984375 0.082031,-0.890625 0.140625,-1.1015625 0,-0.058594 0.023437,-0.1640625 0.023437,-0.1992188 0,-0.082031 -0.035156,-0.1875 -0.1992188,-0.1875 -0.1875,0 -0.2109375,0.035156 -0.2929687,0.3867188 l -1.0546875,4.24218745 c 0,0.01171875 -0.082031,0.28125 -0.082031,0.3046875 0,0.1875 0.1640625,0.1875 0.2109375,0.1875 0.082031,0 0.09375,-0.0234375 0.3515625,-0.328125 l 0.949219,-1.24218745 c 0.4921875,0.74999995 1.5703125,1.57031245 3.4921875,1.57031245 2.6601562,0 5.0976561,-2.57812495 5.0976561,-5.16796875 0,-0.8671875 -0.210937,-1.6289062 -0.996094,-2.390625 C 9.7267656,-7.5575937 9.3634844,-7.6630625 7.4533281,-8.15525 6.0705156,-8.53025 5.8830156,-8.5888437 5.5197344,-8.9286875 5.1681719,-9.28025 4.8986406,-9.7724375 4.8986406,-10.475562 c 0,-1.734375 1.7578125,-3.515625 3.7148438,-3.515625 2.0273436,0 2.9765626,1.242187 2.9765626,3.210937 0,0.539063 -0.105469,1.0898438 -0.105469,1.171875 0,0.1875 0.164063,0.1875 0.234375,0.1875 0.175781,0 0.199219,-0.058594 0.28125,-0.3867187 z m 0,0"
       style="fill:#f9123c;fill-opacity:1;fill-rule:nonzero;stroke:none"
       aria-label="S"
       transform="matrix(1.3333333,0,0,1.3333333,118.21067,25.998667)" />
    <path
       id="path32"
       d="m 5.9761484,-8.7552266 c 0.09375,-0.3398437 0.1171875,-0.46875 0.3398438,-0.5273437 0.1054687,-0.023437 0.5859375,-0.023437 0.8789062,-0.023437 1.4414063,0 2.109375,0.058594 2.109375,1.171875 0,0.2109375 -0.058594,0.7617187 -0.140625,1.2890625 l -0.011719,0.1757812 c 0,0.058594 0.058594,0.140625 0.140625,0.140625 0.140625,0 0.140625,-0.070312 0.1875,-0.3046875 l 0.421875,-2.53125 c 0.023437,-0.1289062 0.023437,-0.1640625 0.023437,-0.1992187 0,-0.1640625 -0.082031,-0.1640625 -0.375,-0.1640625 h -7.839843 c -0.328125,0 -0.3515625,0.011719 -0.4335937,0.2695312 l -0.87890626,2.5898438 c -0.0117188,0.023437 -0.0585938,0.1875 -0.0585938,0.1992187 0,0.070312 0.0585938,0.140625 0.15234375,0.140625 0.10546875,0 0.140625,-0.058594 0.19921875,-0.2460937 0.59765616,-1.734375 0.90234366,-2.53125 2.81249996,-2.53125 h 0.9609375 c 0.3398437,0 0.4804687,0 0.4804687,0.1523437 0,0.046875 0,0.070312 -0.070312,0.328125 l -1.921875,7.7109375 c -0.140625,0.55078129 -0.1757812,0.70312504 -1.6875,0.70312504 -0.36328116,0 -0.45703116,0 -0.45703116,0.26953125 0,0.140625 0.15234375,0.140625 0.22265616,0.140625 0.3632813,0 0.7382813,-0.0234375 1.0898438,-0.0234375 h 2.2382812 c 0.3632813,0 0.75,0.0234375 1.1015625,0.0234375 0.1640625,0 0.3046875,0 0.3046875,-0.26953125 0,-0.140625 -0.1054687,-0.140625 -0.46875,-0.140625 -1.3007812,0 -1.3007812,-0.140625 -1.3007812,-0.3515625 0,-0.0117188 0,-0.1171875 0.058594,-0.33984374 z m 0,0"
       style="fill:#f9123c;fill-opacity:1;fill-rule:nonzero;stroke:none"
       aria-label="T"
       transform="matrix(1.3333333,0,0,1.3333333,134.80133,30.130667)" />
    <path
       id="path33"
       d="m 297.6415,125.29295 c -6.57543,0 -11.90574,-5.3303 -11.90574,-11.90571 0,-6.57543 5.33031,-11.90574 11.90574,-11.90574 6.5754,0 11.90571,5.33031 11.90571,11.90574 0,6.57541 -5.33031,11.90571 -11.90571,11.90571 z"
       style="fill:#fc899e;fill-opacity:1;fill-rule:nonzero;stroke:#000000;stroke-width:1.59404;stroke-linecap:butt;stroke-linejoin:miter;stroke-miterlimit:10;stroke-dasharray:none;stroke-opacity:1"
       transform="matrix(1.3333333,0,0,-1.3333333,76.934667,207.628)" />
    <path
       id="path34"
       d="m 290.49799,113.38724 h 14.287"
       style="fill:none;stroke:#000000;stroke-width:4.78214;stroke-linecap:round;stroke-linejoin:miter;stroke-miterlimit:10;stroke-dasharray:none;stroke-opacity:1"
       transform="matrix(1.3333333,0,0,-1.3333333,76.934667,207.628)" />
    <path
       id="path35"
       d="m 13.125141,-14.35693 c 0,-0.1875 -0.152344,-0.1875 -0.1875,-0.1875 -0.08203,0 -0.105469,0.02344 -0.351563,0.328125 -0.128906,0.140625 -0.972656,1.21875 -0.996094,1.242188 -0.679687,-1.347656 -2.0390621,-1.570313 -2.9179684,-1.570313 -2.6132812,0 -4.9921875,2.390625 -4.9921875,4.7343753 0,1.546875 0.9257813,2.4492188 1.9453125,2.8007813 0.2226563,0.082031 1.4414063,0.421875 2.0625,0.5625 1.0546875,0.2929687 1.3242188,0.375 1.7578125,0.8203125 0.082031,0.1054687 0.4921875,0.5859375 0.4921875,1.5585937 0,1.921875 -1.78125,3.90234376 -3.84375,3.90234376 -1.6875,0 -3.5742187,-0.7265625 -3.5742187,-3.03515626 0,-0.3984375 0.082031,-0.890625 0.140625,-1.1015625 0,-0.058594 0.023437,-0.1640625 0.023437,-0.1992187 0,-0.082031 -0.035156,-0.1875 -0.1992188,-0.1875 -0.1875,0 -0.2109375,0.035156 -0.2929687,0.3867187 l -1.0546875,4.24218751 c 0,0.01171875 -0.082031,0.28125 -0.082031,0.3046875 0,0.1875 0.1640625,0.1875 0.2109375,0.1875 0.082031,0 0.09375,-0.0234375 0.3515625,-0.328125 l 0.949219,-1.24218751 c 0.4921875,0.75000001 1.5703125,1.57031251 3.4921875,1.57031251 2.6601562,0 5.0976566,-2.57812501 5.0976566,-5.16796871 0,-0.8671875 -0.210938,-1.6289063 -0.996094,-2.390625 -0.4335939,-0.4335938 -0.7968751,-0.5390625 -2.7070314,-1.03125 -1.3828125,-0.375 -1.5703125,-0.4335938 -1.9335937,-0.7734375 -0.3515625,-0.3515625 -0.6210938,-0.84375 -0.6210938,-1.5468746 0,-1.734375 1.7578125,-3.515625 3.7148438,-3.515625 2.0273441,0 2.9765621,1.242187 2.9765621,3.210937 0,0.539063 -0.105468,1.0898438 -0.105468,1.1718751 0,0.1875 0.164062,0.1875 0.234375,0.1875 0.175781,0 0.199218,-0.058594 0.28125,-0.3867188 z m 0,0"
       style="fill:#006b6b;fill-opacity:1;fill-rule:nonzero;stroke:none"
       aria-label="S"
       transform="matrix(1.3333333,0,0,1.3333333,439.992,24.138667)" />
    <path
       id="path36"
       d="m 6.5503047,-5.3680391 c 0,-0.9023437 -0.4570313,-0.9609375 -0.5742188,-0.9609375 -0.3398437,0 -0.65625,0.3515625 -0.65625,0.6328125 0,0.1757813 0.1054688,0.2695313 0.1640625,0.328125 0.140625,0.1289063 0.515625,0.515625 0.515625,1.265625 0,0.5976563 -0.8671875,3.96093754 -2.5898437,3.96093754 -0.8671875,0 -1.0429688,-0.73828125 -1.0429688,-1.26562504 0,-0.7148437 0.328125,-1.7226562 0.7148438,-2.7539062 0.234375,-0.5859375 0.2929687,-0.7265625 0.2929687,-1.0195313 0,-0.5976562 -0.4335937,-1.1484375 -1.1367187,-1.1484375 -1.32421876,0 -1.85156251,2.0859375 -1.85156251,2.1914063 0,0.058594 0.0585938,0.140625 0.1640625,0.140625 0.12890625,0 0.140625,-0.058594 0.19921875,-0.2695313 0.33984376,-1.2304687 0.90234376,-1.7695312 1.44140626,-1.7695312 0.1289062,0 0.375,0 0.375,0.46875 0,0.375 -0.1523438,0.7851562 -0.375,1.3359375 -0.6796875,1.8398437 -0.6796875,2.2851562 -0.6796875,2.625 0,0.3164062 0.035156,0.90234374 0.4804687,1.30078124 0.515625,0.4453125 1.2304688,0.4453125 1.359375,0.4453125 2.390625,0 3.1992188,-4.68750004 3.1992188,-5.50781254 z m 0,0"
       style="fill:#006b6b;fill-opacity:1;fill-rule:nonzero;stroke:none"
       aria-label="v"
       transform="matrix(1.3333333,0,0,1.3333333,456.58267,28.270667)" />
    <path
       id="path37"
       d="m 2.8016185,0.05774219 c 0,-0.83203125 -0.28125,-1.45312499 -0.8671875,-1.45312499 -0.4570313,0 -0.6914063,0.375 -0.6914063,0.69140624 0,0.31640625 0.2226563,0.7031249975 0.703125,0.7031249975 0.1875,0 0.3515625,-0.0585937475 0.4804688,-0.1874999975 0.023437,-0.0234375 0.046875,-0.0234375 0.058594,-0.0234375 0.023437,0 0.023437,0.19921875 0.023437,0.26953125 0,0.46875 -0.082031,1.40625001 -0.9140625,2.33203121 -0.1640625,0.1757813 -0.1640625,0.2109375 -0.1640625,0.234375 0,0.070312 0.082031,0.140625 0.1523438,0.140625 0.1054687,0 1.21875,-1.0546875 1.2187502,-2.70703121 z m 0,0"
       style="fill:#006b6b;fill-opacity:1;fill-rule:nonzero;stroke:none"
       aria-label=","
       transform="matrix(1.3333333,0,0,1.3333333,466.30748,28.270667)" />
    <text
       id="text37"
       xml:space="preserve"
       transform="matrix(1.3333333,0,0,1.3333333,471.52667,28.270667)"><tspan
         id="tspan37"
         style="font-variant:normal;font-weight:normal;font-size:14.3462px;font-family:'Latin Modern Roman';writing-mode:lr-tb;fill:#006b6b;fill-opacity:1;fill-rule:nonzero;stroke:none"
         x="0"
         y="0">amp</tspan></text>
    <path
       id="path38"
       d="m 96.94614,56.69362 c 0,6.57541 -5.3303,11.90571 -11.90572,11.90571 -6.57542,0 -11.90572,-5.3303 -11.90572,-11.90571 0,-6.57542 5.3303,-11.90573 11.90572,-11.90573 6.57542,0 11.90572,5.33031 11.90572,11.90573 z"
       style="fill:#fc899e;fill-opacity:1;fill-rule:nonzero;stroke:#000000;stroke-width:1.59404;stroke-linecap:butt;stroke-linejoin:miter;stroke-miterlimit:10;stroke-dasharray:none;stroke-opacity:1"
       transform="matrix(1.3333333,0,0,-1.3333333,76.934667,207.628)" />
    <path
       id="path39"
       d="m 92.18393,56.69362 h -14.287"
       style="fill:none;stroke:#000000;stroke-width:4.78214;stroke-linecap:round;stroke-linejoin:miter;stroke-miterlimit:10;stroke-dasharray:none;stroke-opacity:1"
       transform="matrix(1.3333333,0,0,-1.3333333,76.934667,207.628)" />
    <path
       id="path40"
       d="m 13.125383,-14.355891 c 0,-0.1875 -0.152344,-0.1875 -0.1875,-0.1875 -0.08203,0 -0.105469,0.02344 -0.351563,0.328125 -0.128906,0.140625 -0.972656,1.21875 -0.996093,1.242188 -0.679688,-1.347656 -2.0390629,-1.570313 -2.9179692,-1.570313 -2.6132812,0 -4.9921875,2.390625 -4.9921875,4.7343754 0,1.546875 0.9257813,2.4492187 1.9453125,2.8007812 0.2226563,0.082031 1.4414063,0.421875 2.0625,0.5625 1.0546875,0.2929688 1.3242188,0.375 1.7578125,0.8203125 0.082031,0.1054688 0.4921875,0.5859375 0.4921875,1.5585938 0,1.921875 -1.78125,3.90234372 -3.84375,3.90234372 -1.6875,0 -3.5742187,-0.7265625 -3.5742187,-3.03515622 0,-0.3984375 0.082031,-0.890625 0.140625,-1.1015625 0,-0.058594 0.023437,-0.1640625 0.023437,-0.1992188 0,-0.082031 -0.035156,-0.1875 -0.1992188,-0.1875 -0.1875,0 -0.2109375,0.035156 -0.2929687,0.3867188 l -1.0546875,4.24218747 c 0,0.01171875 -0.082031,0.28125 -0.082031,0.3046875 0,0.1875 0.1640625,0.1875 0.2109375,0.1875 0.082031,0 0.09375,-0.0234375 0.3515625,-0.328125 l 0.949219,-1.24218747 c 0.4921875,0.74999997 1.5703125,1.57031247 3.4921875,1.57031247 2.6601562,0 5.0976564,-2.57812497 5.0976564,-5.16796877 0,-0.8671875 -0.210938,-1.6289062 -0.996094,-2.390625 -0.4335937,-0.4335937 -0.7968749,-0.5390625 -2.7070312,-1.03125 -1.3828125,-0.375 -1.5703125,-0.4335937 -1.9335937,-0.7734375 -0.3515625,-0.3515625 -0.6210938,-0.84375 -0.6210938,-1.5468746 0,-1.734375 1.7578125,-3.515625 3.7148438,-3.515625 2.0273439,0 2.9765629,1.242187 2.9765629,3.210937 0,0.539063 -0.105469,1.0898439 -0.105469,1.1718751 0,0.1875 0.164062,0.1875 0.234375,0.1875 0.175781,0 0.199219,-0.058594 0.28125,-0.3867187 z m 0,0"
       style="fill:#122d8d;fill-opacity:1;fill-rule:nonzero;stroke:none"
       aria-label="S"
       transform="matrix(1.3333333,0,0,1.3333333,114.08933,137.524)" />
    <path
       id="path41"
       d="m 4.0544531,-2.0505938 c 0,-0.070312 -0.058594,-0.1289062 -0.140625,-0.1289062 -0.1289062,0 -0.140625,0.046875 -0.2109375,0.28125 -0.375,1.3125 -0.9609375,1.7578125 -1.4414062,1.7578125 -0.1640625,0 -0.3632813,-0.046875 -0.3632813,-0.48046875 0,-0.38671875 0.1640625,-0.80859375 0.328125,-1.24218755 l 0.9960938,-2.671875 c 0.046875,-0.1171875 0.1523437,-0.375 0.1523437,-0.6445312 0,-0.5976563 -0.4335937,-1.1484375 -1.1367187,-1.1484375 -1.32421877,0 -1.85156252,2.0859375 -1.85156252,2.1914062 0,0.058594 0.0585938,0.140625 0.1640625,0.140625 0.12890625,0 0.140625,-0.058594 0.19921875,-0.2695312 C 1.0896094,-5.46075 1.6403906,-6.0349688 2.1911719,-6.0349688 c 0.1289062,0 0.375,0.011719 0.375,0.46875 0,0.375 -0.1875,0.84375 -0.3046875,1.1601563 l -0.9960938,2.671875 c -0.09375,0.2226562 -0.1757812,0.4570312 -0.1757812,0.7148437 0,0.6445313 0.4453125,1.1601563 1.1367187,1.1601563 1.3125,0 1.828125,-2.0859375 1.828125,-2.1914063 z M 3.9489844,-8.9529375 c 0,-0.2109375 -0.1757813,-0.46875 -0.4921875,-0.46875 -0.328125,0 -0.703125,0.3164062 -0.703125,0.6914062 0,0.3515625 0.3046875,0.46875 0.46875,0.46875 0.3867187,0 0.7265625,-0.375 0.7265625,-0.6914062 z m 3.6445312,9.01171875 c 0,-0.83203125 -0.28125,-1.45312505 -0.8671875,-1.45312505 -0.4570312,0 -0.6914062,0.375 -0.6914062,0.6914063 0,0.31640625 0.2226562,0.703125 0.703125,0.703125 0.1875,0 0.3515625,-0.05859375 0.4804687,-0.1875 0.023437,-0.0234375 0.046875,-0.0234375 0.058594,-0.0234375 0.023437,0 0.023437,0.19921875 0.023437,0.26953125 0,0.46875 -0.082031,1.40624995 -0.9140625,2.33203125 -0.1640625,0.1757812 -0.1640625,0.2109375 -0.1640625,0.234375 0,0.070312 0.082031,0.140625 0.1523437,0.140625 0.1054688,0 1.21875,-1.0546875 1.2187503,-2.70703125 z m 0,0"
       style="fill:#122d8d;fill-opacity:1;fill-rule:nonzero;stroke:none"
       aria-label="i,"
       transform="matrix(1.3333333,0,0,1.3333333,130.68,141.656)" />
    <text
       id="text41"
       xml:space="preserve"
       transform="matrix(1.3333333,0,0,1.3333333,142.272,141.656)"><tspan
         id="tspan41"
         style="font-variant:normal;font-weight:normal;font-size:14.3462px;font-family:'Latin Modern Roman';writing-mode:lr-tb;fill:#122d8d;fill-opacity:1;fill-rule:nonzero;stroke:none"
         x="0"
         y="0">sn</tspan></text>
    <path
       id="path42"
       d="m 85.04042,0 v 44.78789 m 0,23.81144 v 44.78791"
       style="fill:none;stroke:#000000;stroke-width:0.79701;stroke-linecap:butt;stroke-linejoin:miter;stroke-miterlimit:10;stroke-dasharray:none;stroke-opacity:1"
       transform="matrix(1.3333333,0,0,-1.3333333,76.934667,207.628)" />
  </g>
</svg>
