<?xml version="1.0" encoding="UTF-8" standalone="no"?>
<!-- Created with Inkscape (http://www.inkscape.org/) -->

<svg
   version="1.1"
   id="svg1"
   width="416.81067"
   height="409.25201"
   viewBox="0 0 416.81067 409.25201"
   sodipodi:docname="setup.pdf"
   xmlns:inkscape="http://www.inkscape.org/namespaces/inkscape"
   xmlns:sodipodi="http://sodipodi.sourceforge.net/DTD/sodipodi-0.dtd"
   xmlns="http://www.w3.org/2000/svg"
   xmlns:svg="http://www.w3.org/2000/svg">
  <defs
     id="defs1" />
  <sodipodi:namedview
     id="namedview1"
     pagecolor="#ffffff"
     bordercolor="#000000"
     borderopacity="0.25"
     inkscape:showpageshadow="2"
     inkscape:pageopacity="0.0"
     inkscape:pagecheckerboard="0"
     inkscape:deskcolor="#d1d1d1">
    <inkscape:page
       x="0"
       y="0"
       inkscape:label="1"
       id="page1"
       width="416.81067"
       height="409.25201"
       margin="0"
       bleed="0" />
  </sodipodi:namedview>
  <g
     id="g1"
     inkscape:groupmode="layer"
     inkscape:label="1">
    <path
       id="path1"
       d="m -141.73404,218.27034 v 107.71794 h 311.8149 V 218.27034 Z"
       style="fill:none;stroke:#f9123c;stroke-width:0.79701;stroke-linecap:butt;stroke-linejoin:miter;stroke-miterlimit:10;stroke-dasharray:2.98883, 2.98883;stroke-dashoffset:0;stroke-opacity:1"
       transform="matrix(1.3333333,0,0,-1.3333333,189.508,435.17733)" />
    <path
       id="path2"
       d="m 4.5695625,-7.0200859 c 1.8398437,0 2.6367187,1.5820312 2.6367187,3.421875 0,2.484375 -1.3242187,3.43359371 -2.5195312,3.43359371 -1.0898438,0 -2.8710938,-0.5390625 -3.421875,-2.13281251 0.09375,0.046875 0.1992187,0.046875 0.3046875,0.046875 0.4921875,0 0.8671875,-0.328125 0.8671875,-0.8671875 0,-0.5976562 -0.4570313,-0.8671875 -0.8671875,-0.8671875 -0.3515625,0 -0.890625,0.1640625 -0.890625,0.9257813 0,1.8984375 1.8632812,3.38671871 4.0546875,3.38671871 2.2851562,0 4.0429687,-1.79296871 4.0429687,-3.90234371 0,-2.0039063 -1.6523437,-3.4453125 -3.609375,-3.6796875 1.5703125,-0.328125 3.0703125,-1.734375 3.0703125,-3.6093751 0,-1.617187 -1.6289062,-2.789062 -3.4921875,-2.789062 -1.875,0 -3.5273437,1.148437 -3.5273437,2.800781 0,0.726562 0.5390625,0.8554686 0.8085937,0.8554686 0.4335938,0 0.8085938,-0.2695316 0.8085938,-0.8085936 0,-0.539063 -0.375,-0.808594 -0.8085938,-0.808594 -0.082031,0 -0.1875,0 -0.2695312,0.04687 0.5976562,-1.371094 2.2265625,-1.617187 2.953125,-1.617187 0.7265625,0 2.0859375,0.351562 2.0859375,2.332031 0,0.585937 -0.082031,1.6171873 -0.7851563,2.5312498 -0.6210937,0.796875 -1.3242187,0.84375 -2.0039062,0.9023438 -0.1054688,0 -0.5742188,0.046875 -0.65625,0.046875 -0.1523438,0.011719 -0.234375,0.035156 -0.234375,0.1757812 0,0.1523438 0.023437,0.1757813 0.4335937,0.1757813 z m 13.5791015,0.3867187 c 0,-1.2539062 -0.01172,-3.4101558 -0.878906,-5.0624998 -0.773438,-1.441406 -1.992188,-1.957031 -3.058594,-1.957031 -0.996094,0 -2.25,0.445312 -3.035156,1.933593 -0.832031,1.558594 -0.914063,3.4804691 -0.914063,5.0859378 0,1.1835938 0.02344,2.9765625 0.65625,4.546875 0.890625,2.13281251 2.484375,2.41406251 3.292969,2.41406251 0.949219,0 2.390625,-0.38671875 3.246094,-2.35546871 0.609375,-1.4179688 0.691406,-3.09375 0.691406,-4.6054688 z m -3.9375,6.6328125125 c -1.324219,0 -2.109375,-1.1367187125 -2.402344,-2.7070312125 -0.222656,-1.21875 -0.222656,-3 -0.222656,-4.1484375 0,-1.59375 0,-2.9179688 0.269531,-4.1718746 0.386719,-1.757813 1.546875,-2.296875 2.355469,-2.296875 0.84375,0 1.933594,0.550781 2.332031,2.25 0.269532,1.1835933 0.292969,2.5664058 0.292969,4.2187496 0,1.3359375 0,2.9882812 -0.257812,4.2070312 -0.433594,2.26171876 -1.652344,2.6484375125 -2.367188,2.6484375125 z M 27.623273,-6.6333672 c 0,-1.2539062 -0.01172,-3.4101558 -0.878906,-5.0624998 -0.773437,-1.441406 -1.992187,-1.957031 -3.058594,-1.957031 -0.996093,0 -2.25,0.445312 -3.035156,1.933593 -0.832031,1.558594 -0.914062,3.4804691 -0.914062,5.0859378 0,1.1835938 0.02344,2.9765625 0.65625,4.546875 0.890625,2.13281251 2.484375,2.41406251 3.292968,2.41406251 0.949219,0 2.390625,-0.38671875 3.246094,-2.35546871 0.609375,-1.4179688 0.691406,-3.09375 0.691406,-4.6054688 z m -3.9375,6.6328125125 c -1.324218,0 -2.109375,-1.1367187125 -2.402343,-2.7070312125 -0.222657,-1.21875 -0.222657,-3 -0.222657,-4.1484375 0,-1.59375 0,-2.9179688 0.269532,-4.1718746 0.386718,-1.757813 1.546875,-2.296875 2.355468,-2.296875 0.84375,0 1.933594,0.550781 2.332032,2.25 0.269531,1.1835933 0.292968,2.5664058 0.292968,4.2187496 0,1.3359375 0,2.9882812 -0.257812,4.2070312 -0.433594,2.26171876 -1.652344,2.6484375125 -2.367188,2.6484375125 z M 39.485578,-8.6607109 43.059797,-12.23493 c 0.738281,-0.714843 1.523437,-1.300781 2.683594,-1.335937 v -0.539063 c -0.421875,0.02344 -0.9375,0.03516 -1.347657,0.03516 -0.550781,0 -1.523437,0 -2.0625,-0.03516 v 0.539063 c 0.539063,0.03516 0.621094,0.410156 0.621094,0.550781 0,0.152344 -0.08203,0.375 -0.164062,0.503906 l -6.867188,6.8789066 v -7.0078126 c 0,-0.925781 0.234375,-0.925781 1.652344,-0.925781 v -0.539063 c -0.597656,0.03516 -1.6875,0.03516 -2.332031,0.03516 -0.644532,0 -1.734375,0 -2.332032,-0.03516 v 0.539063 c 1.429688,0 1.652344,0 1.652344,0.925781 v 11.1796876 c 0,0.92578121 -0.222656,0.92578121 -1.652344,0.92578121 v 0.5390625025 c 0.597657,-0.0468750025 1.6875,-0.0468750025 2.332032,-0.0468750025 0.644531,0 1.734375,0 2.332031,0.0468750025 V -0.53961719 c -1.417969,0 -1.652344,0 -1.652344,-0.92578121 v -3.65625 l 2.648438,-2.625 3.902343,5.9882812 c 0.128907,0.2109375 0.269532,0.4804688 0.269532,0.6796875 0,0.53906251 -0.574219,0.53906251 -0.84375,0.53906251 v 0.5390625025 c 0.65625,-0.0468750025 1.605468,-0.0468750025 2.296875,-0.0468750025 0.492187,0 1.335937,0 1.816406,0.0468750025 V -0.53961719 c -0.996094,0 -1.300781,-0.1171875 -1.921875,-1.07812501 z m 0,0"
       style="fill:#f9123c;fill-opacity:1;fill-rule:nonzero;stroke:none"
       aria-label="300K"
       transform="matrix(1.3333333,0,0,1.3333333,6.376,138.30933)" />
    <path
       id="path3"
       d="m -141.73404,147.40332 v 65.19774 h 311.8149 v -65.19774 z"
       style="fill:none;stroke:#ff6700;stroke-width:0.79701;stroke-linecap:butt;stroke-linejoin:miter;stroke-miterlimit:10;stroke-dasharray:2.98883, 2.98883;stroke-dashoffset:0;stroke-opacity:1"
       transform="matrix(1.3333333,0,0,-1.3333333,189.508,435.17733)" />
    <path
       id="path4"
       d="m 6.93675,-13.371437 c 0,-0.433594 -0.011719,-0.445313 -0.3867188,-0.445313 l -6.14062495,9.7617188 v 0.5390625 H 5.7414375 v 2.0273437 c 0,0.75 -0.035156,0.94921875 -1.4882813,0.94921875 H 3.8664375 v 0.5390625 c 0.65625,-0.046875 1.7695312,-0.046875 2.4726562,-0.046875 0.703125,0 1.8164063,0 2.484375,0.046875 v -0.5390625 H 8.4250312 C 6.983625,-0.53940625 6.93675,-0.738625 6.93675,-1.488625 V -3.5159687 H 9.046125 V -4.0550312 H 6.93675 Z m -1.1367188,1.371093 v 7.9453128 H 0.83128125 Z M 20.53343,-8.6605 l 3.574218,-3.574219 c 0.738282,-0.714843 1.523438,-1.300781 2.683594,-1.335937 v -0.539063 c -0.421875,0.02344 -0.9375,0.03516 -1.347656,0.03516 -0.550781,0 -1.523438,0 -2.0625,-0.03516 v 0.539063 c 0.539062,0.03516 0.621094,0.410156 0.621094,0.550781 0,0.152344 -0.08203,0.375 -0.164063,0.503906 l -6.867187,6.8789065 v -7.0078125 c 0,-0.925781 0.234375,-0.925781 1.652343,-0.925781 v -0.539063 c -0.597656,0.03516 -1.6875,0.03516 -2.332031,0.03516 -0.644531,0 -1.734375,0 -2.332031,-0.03516 v 0.539063 c 1.429687,0 1.652344,0 1.652344,0.925781 v 11.1796875 c 0,0.92578125 -0.222657,0.92578125 -1.652344,0.92578125 v 0.5390625 c 0.597656,-0.046875 1.6875,-0.046875 2.332031,-0.046875 0.644531,0 1.734375,0 2.332031,0.046875 v -0.5390625 c -1.417968,0 -1.652343,0 -1.652343,-0.92578125 v -3.65625 l 2.648437,-2.625 3.902344,5.9882813 c 0.128906,0.2109375 0.269531,0.4804687 0.269531,0.6796875 0,0.53906245 -0.574219,0.53906245 -0.84375,0.53906245 v 0.5390625 c 0.65625,-0.046875 1.605469,-0.046875 2.296875,-0.046875 0.492188,0 1.335938,0 1.816406,0.046875 v -0.5390625 c -0.996093,0 -1.300781,-0.1171875 -1.921875,-1.07812495 z m 0,0"
       style="fill:#ff6700;fill-opacity:1;fill-rule:nonzero;stroke:none"
       aria-label="4K"
       transform="matrix(1.3333333,0,0,1.3333333,6.376,232.79733)" />
    <path
       id="path5"
       d="m -141.73404,19.84267 v 121.89135 h 311.8149 V 19.84267 Z"
       style="fill:none;stroke:#122d8d;stroke-width:0.79701;stroke-linecap:butt;stroke-linejoin:miter;stroke-miterlimit:10;stroke-dasharray:2.98883, 2.98883;stroke-dashoffset:0;stroke-opacity:1"
       transform="matrix(1.3333333,0,0,-1.3333333,189.508,435.17733)" />
    <path
       id="path6"
       d="m 5.4953437,-13.207781 c 0,-0.433594 -0.023437,-0.445313 -0.3046875,-0.445313 -0.8085937,0.972657 -2.0273437,1.277344 -3.1875,1.3125 -0.058594,0 -0.1640625,0 -0.1875,0.04687 -0.023437,0.04687 -0.023437,0.08203 -0.023437,0.515625 0.6445313,0 1.7226563,-0.117187 2.5429688,-0.621093 v 10.8867183 c 0,0.72656245 -0.035156,0.9726562 -1.8164063,0.9726562 H 1.8976875 V -7.5e-4 c 0.9960937,-0.0234375 2.0273437,-0.046875 3.0234375,-0.046875 0.984375,0 2.015625,0.0234375 3.0117187,0.046875 V -0.5398125 H 7.31175 c -1.78125,0 -1.8164063,-0.22265625 -1.8164063,-0.9726562 z m 12.6533203,6.5742185 c 0,-1.2539062 -0.01172,-3.4101565 -0.878906,-5.0624995 -0.773438,-1.441407 -1.992188,-1.957032 -3.058594,-1.957032 -0.996094,0 -2.25,0.445313 -3.035156,1.933594 -0.832031,1.558594 -0.914063,3.4804688 -0.914063,5.0859375 0,1.1835938 0.02344,2.9765625 0.65625,4.546875 0.890625,2.1328125 2.484375,2.4140625 3.292969,2.4140625 0.949219,0 2.390625,-0.38671875 3.246094,-2.3554687 0.609375,-1.4179688 0.691406,-3.09375 0.691406,-4.6054688 z m -3.9375,6.6328125 c -1.324219,0 -2.109375,-1.1367187 -2.402344,-2.7070312 -0.222656,-1.21875 -0.222656,-3 -0.222656,-4.1484375 0,-1.59375 0,-2.9179688 0.269531,-4.1718753 0.386719,-1.757812 1.546875,-2.296875 2.355469,-2.296875 0.84375,0 1.933594,0.550782 2.332031,2.25 0.269532,1.183594 0.292969,2.5664065 0.292969,4.2187503 0,1.3359375 0,2.9882812 -0.257812,4.2070312 C 16.144758,-0.38746875 14.926008,-7.5e-4 14.211164,-7.5e-4 Z M 36.350812,-6.282 c 0,-1.03125 -0.1875,-2.765625 -2.648437,-2.765625 -1.40625,0 -2.378906,0.9492188 -2.742188,2.0625 h -0.02344 c -0.246094,-1.6875 -1.464844,-2.0625 -2.625,-2.0625 -1.628906,0 -2.484375,1.2539063 -2.789063,2.0859375 H 25.49925 V -9.047625 l -2.4375,0.2226563 v 0.5390625 c 1.21875,0 1.40625,0.1289062 1.40625,1.1132812 v 5.7421875 c 0,0.78515625 -0.08203,0.890625 -1.40625,0.890625 V -7.5e-4 c 0.492187,-0.046875 1.40625,-0.046875 1.945312,-0.046875 0.539063,0 1.464844,0 1.957032,0.046875 v -0.5390625 c -1.3125,0 -1.394532,-0.0820313 -1.394532,-0.890625 V -5.391375 c 0,-1.8984375 1.148438,-3.328125 2.601563,-3.328125 1.523437,0 1.6875,1.359375 1.6875,2.3554688 v 4.9335937 c 0,0.78515625 -0.08203,0.890625 -1.40625,0.890625 V -7.5e-4 c 0.503906,-0.046875 1.40625,-0.046875 1.945312,-0.046875 0.539063,0 1.464844,0 1.96875,0.046875 v -0.5390625 c -1.324218,0 -1.40625,-0.0820313 -1.40625,-0.890625 V -5.391375 c 0,-1.8984375 1.148438,-3.328125 2.601563,-3.328125 1.523437,0 1.6875,1.359375 1.6875,2.3554688 v 4.9335937 c 0,0.78515625 -0.08203,0.890625 -1.40625,0.890625 V -7.5e-4 c 0.503906,-0.046875 1.40625,-0.046875 1.945312,-0.046875 0.539063,0 1.464844,0 1.96875,0.046875 v -0.5390625 c -1.324218,0 -1.40625,-0.0820313 -1.40625,-0.890625 z m 9.612305,-2.3789062 3.574219,-3.5742188 c 0.738281,-0.714844 1.523437,-1.300781 2.683594,-1.335937 v -0.539063 c -0.421875,0.02344 -0.9375,0.03516 -1.347657,0.03516 -0.550781,0 -1.523437,0 -2.0625,-0.03516 v 0.539063 c 0.539063,0.03516 0.621094,0.410156 0.621094,0.550781 0,0.152344 -0.08203,0.375 -0.164062,0.503906 l -6.867188,6.8789063 v -7.0078123 c 0,-0.925781 0.234375,-0.925781 1.652344,-0.925781 v -0.539063 c -0.597656,0.03516 -1.6875,0.03516 -2.332031,0.03516 -0.644532,0 -1.734375,0 -2.332032,-0.03516 v 0.539063 c 1.429688,0 1.652344,0 1.652344,0.925781 v 11.1796873 c 0,0.9257812 -0.222656,0.9257812 -1.652344,0.9257812 V -7.5e-4 c 0.597657,-0.046875 1.6875,-0.046875 2.332032,-0.046875 0.644531,0 1.734375,0 2.332031,0.046875 v -0.5390625 c -1.417969,0 -1.652344,0 -1.652344,-0.9257812 v -3.65625 l 2.648438,-2.625 3.902343,5.9882812 c 0.128907,0.2109375 0.269532,0.4804688 0.269532,0.6796875 0,0.5390625 -0.574219,0.5390625 -0.84375,0.5390625 V -7.5e-4 c 0.65625,-0.046875 1.605468,-0.046875 2.296875,-0.046875 0.492187,0 1.335937,0 1.816406,0.046875 v -0.5390625 c -0.996094,0 -1.300781,-0.1171875 -1.921875,-1.078125 z m 0,0"
       style="fill:#122d8d;fill-opacity:1;fill-rule:nonzero;stroke:none"
       aria-label="10mK"
       transform="matrix(1.3333333,0,0,1.3333333,6.376,402.876)" />
    <path
       id="path7"
       d="M -28.3468,127.56062 V 70.867 h 56.6936 v 56.69362 z"
       style="fill:#122d8d;fill-opacity:1;fill-rule:nonzero;stroke:#122d8d;stroke-width:0.3985;stroke-linecap:butt;stroke-linejoin:miter;stroke-miterlimit:10;stroke-dasharray:none;stroke-opacity:1"
       transform="matrix(1.3333333,0,0,-1.3333333,189.508,435.17733)" />
    <path
       id="path8"
       d="M -25.51193,104.88309 V 93.54454 h 11.33854 v 11.33855 z"
       style="fill:#b3b3b3;fill-opacity:1;fill-rule:nonzero;stroke:#000000;stroke-width:0.79701;stroke-linecap:butt;stroke-linejoin:miter;stroke-miterlimit:10;stroke-dasharray:none;stroke-opacity:1"
       transform="matrix(1.3333333,0,0,-1.3333333,189.508,435.17733)" />
    <path
       id="path9"
       d="M 25.51193,104.88309 V 93.54454 H 14.17339 v 11.33855 z"
       style="fill:#b3b3b3;fill-opacity:1;fill-rule:nonzero;stroke:#000000;stroke-width:0.79701;stroke-linecap:butt;stroke-linejoin:miter;stroke-miterlimit:10;stroke-dasharray:none;stroke-opacity:1"
       transform="matrix(1.3333333,0,0,-1.3333333,189.508,435.17733)" />
    <path
       id="path10"
       d="m -25.51193,93.54454 11.33854,11.33855 m -11.33854,0 11.33854,-11.33855"
       style="fill:none;stroke:#000000;stroke-width:0.79701;stroke-linecap:butt;stroke-linejoin:miter;stroke-miterlimit:10;stroke-dasharray:none;stroke-opacity:1"
       transform="matrix(1.3333333,0,0,-1.3333333,189.508,435.17733)" />
    <path
       id="path11"
       d="m 25.51193,93.54454 -11.33854,11.33855 m 11.33854,0 -11.33854,-11.33855"
       style="fill:none;stroke:#000000;stroke-width:0.79701;stroke-linecap:butt;stroke-linejoin:miter;stroke-miterlimit:10;stroke-dasharray:none;stroke-opacity:1"
       transform="matrix(1.3333333,0,0,-1.3333333,189.508,435.17733)" />
    <text
       id="text11"
       xml:space="preserve"
       transform="matrix(1.3333333,0,0,1.3333333,149.436,366.52933)"><tspan
         id="tspan11"
         style="font-variant:normal;font-weight:normal;font-size:20.6625px;font-family:'Latin Modern Roman';writing-mode:lr-tb;fill:#000000;fill-opacity:1;fill-rule:nonzero;stroke:none"
         x="0"
         y="0">Sample</tspan></text>
    <path
       id="path12"
       d="M -2.83484,127.56062 V 104.8831 h 5.66925 v 22.67752 z"
       style="fill:#fdde2a;fill-opacity:1;fill-rule:nonzero;stroke:#fdde2a;stroke-width:0.3985;stroke-linecap:butt;stroke-linejoin:miter;stroke-miterlimit:10;stroke-dasharray:none;stroke-opacity:1"
       transform="matrix(1.3333333,0,0,-1.3333333,189.508,435.17733)" />
    <path
       id="path13"
       d="M -2.83484,70.867 V 93.54453 H 2.83441 V 70.867 Z"
       style="fill:#fdde2a;fill-opacity:1;fill-rule:nonzero;stroke:#fdde2a;stroke-width:0.3985;stroke-linecap:butt;stroke-linejoin:miter;stroke-miterlimit:10;stroke-dasharray:none;stroke-opacity:1"
       transform="matrix(1.3333333,0,0,-1.3333333,189.508,435.17733)" />
    <path
       id="path14"
       d="m 28.3468,99.21382 h 28.34682 v -14.1734 -9.41125 m 0,-9.52431 v -9.41124 -14.1734 h 28.3468 m -28.3468,56.6936 h 56.69362 v -14.1734 0.11342 m 0,-28.57367 v 0.11345 -14.1734 H 85.04042"
       style="fill:none;stroke:#a30262;stroke-width:1.19553;stroke-linecap:butt;stroke-linejoin:miter;stroke-miterlimit:10;stroke-dasharray:none;stroke-opacity:1"
       transform="matrix(1.3333333,0,0,-1.3333333,189.508,435.17733)" />
    <path
       id="path15"
       d="M 70.98045,75.62917 H 42.40678 M 70.98045,66.10486 H 42.40678"
       style="fill:none;stroke:#a30262;stroke-width:2.39105;stroke-linecap:butt;stroke-linejoin:miter;stroke-miterlimit:10;stroke-dasharray:none;stroke-opacity:1"
       transform="matrix(1.3333333,0,0,-1.3333333,189.508,435.17733)" />
    <path
       id="path16"
       d="m 15.434273,-14.354719 c 0,-0.1875 -0.140625,-0.1875 -0.1875,-0.1875 -0.03516,0 -0.117187,0 -0.292968,0.199219 l -1.417969,1.746094 c -0.726563,-1.242188 -1.863281,-1.945313 -3.410156,-1.945313 -4.4648441,0 -9.0937503,4.523438 -9.0937503,9.3750003 0,3.4570312 2.4140625,5.60156245 5.4375,5.60156245 1.6523437,0 3.09375,-0.703125 4.3007813,-1.71093745 1.792969,-1.5117188 2.332031,-3.515625 2.332031,-3.6796875 0,-0.1875 -0.164062,-0.1875 -0.234375,-0.1875 -0.1875,0 -0.199219,0.1289062 -0.246094,0.2109375 -0.949218,3.2226562 -3.7382808,4.7695312 -5.8007808,4.7695312 -2.1914063,0 -4.0898438,-1.40625 -4.0898438,-4.3359375 0,-0.6679687 0.1992188,-4.265625 2.5429688,-6.960937 1.1367187,-1.324219 3.0703125,-2.484375 5.0390628,-2.484375 2.273437,0 3.28125,1.875 3.28125,3.9843745 0,0.5390625 -0.05859,0.9960938 -0.05859,1.078125 0,0.1875 0.199219,0.1875 0.269531,0.1875 0.222656,0 0.246094,-0.023437 0.328125,-0.3984375 z m 0,0"
       style="fill:#a30262;fill-opacity:1;fill-rule:nonzero;stroke:none"
       aria-label="C"
       transform="matrix(1.3333333,0,0,1.3333333,288.628,344.124)" />
    <path
       id="path17"
       d="m 112.90904,86.34938 c 3.94524,0 7.1434,-2.02592 7.1434,-4.52508 0,-2.49917 -3.19816,-4.52509 -7.1434,-4.52509 -1.97252,0 -3.57153,0.7995 -3.57153,1.78577 0,0.98625 1.59901,1.78575 3.57153,1.78575 3.94524,0 7.1434,-2.02593 7.1434,-4.52507 0,-2.49916 -3.19816,-4.52509 -7.1434,-4.52509 -1.97252,0 -3.57153,0.7995 -3.57153,1.78575 0,0.98627 1.59901,1.78577 3.57153,1.78577 3.94524,0 7.1434,-2.02592 7.1434,-4.52509 0,-2.49916 -3.19816,-4.52507 -7.1434,-4.52507 -1.97252,0 -3.57153,0.7995 -3.57153,1.78576 0,0.98626 1.59901,1.78576 3.57153,1.78576 3.94524,0 7.1434,-2.02592 7.1434,-4.52508 0,-2.49917 -3.19816,-4.52509 -7.1434,-4.52509 -1.97252,0 -3.57153,0.79952 -3.57153,1.78577 0,0.98625 1.59901,1.78576 3.57153,1.78576 3.94524,0 7.1434,-2.02592 7.1434,-4.52508 0,-2.49916 -3.19816,-4.52509 -7.1434,-4.52509"
       style="fill:none;stroke:#a30262;stroke-width:2.39105;stroke-linecap:butt;stroke-linejoin:bevel;stroke-miterlimit:10;stroke-dasharray:none;stroke-opacity:1"
       transform="matrix(1.3333333,0,0,-1.3333333,189.508,435.17733)" />
    <path
       id="path18"
       d="m 7.5826719,-12.514875 c 0.1875,-0.785156 0.2460937,-0.996094 2.0625,-0.996094 0.5625001,0 0.7031251,0 0.7031251,-0.386718 0,-0.210938 -0.222656,-0.210938 -0.304688,-0.210938 -0.4101559,0 -0.8906246,0.03516 -1.3007809,0.03516 h -2.765625 c -0.3984375,0 -0.8554687,-0.03516 -1.2421875,-0.03516 -0.1640625,0 -0.3984375,0 -0.3984375,0.386719 0,0.210937 0.1875,0.210937 0.5039063,0.210937 1.2539062,0 1.2539062,0.164063 1.2539062,0.386719 0,0.04687 0,0.175781 -0.082031,0.480469 L 3.2232969,-1.5226875 c -0.1875,0.71484375 -0.2226563,0.92578125 -1.6757813,0.92578125 -0.3867187,0 -0.59765622,0 -0.59765622,0.375 C 0.94985938,7.5e-4 1.0787656,7.5e-4 1.4889219,7.5e-4 h 9.2578121 c 0.457032,0 0.46875,-0.0234375 0.621094,-0.38671875 l 1.582031,-4.40624995 c 0.04687,-0.1054688 0.08203,-0.2226563 0.08203,-0.2929688 0,-0.1171875 -0.09375,-0.1992187 -0.199219,-0.1992187 -0.02344,0 -0.128906,0 -0.164063,0.082031 -0.04687,0.011719 -0.04687,0.058594 -0.210937,0.4570313 -0.65625,1.8164062 -1.59375,4.14843745 -5.0859376,4.14843745 H 5.3912656 c -0.2929687,0 -0.328125,0 -0.4570312,-0.0234375 C 4.7115781,-0.64378125 4.6881406,-0.6789375 4.6881406,-0.843 c 0,-0.15234375 0.046875,-0.2695312 0.082031,-0.4570312 z m 0,0"
       style="fill:#a30262;fill-opacity:1;fill-rule:nonzero;stroke:none"
       aria-label="L"
       transform="matrix(1.3333333,0,0,1.3333333,353.74133,344.124)" />
    <path
       id="path19"
       d="M 85.04042,42.52022 V 32.59888"
       style="fill:none;stroke:#a30262;stroke-width:1.19553;stroke-linecap:butt;stroke-linejoin:miter;stroke-miterlimit:10;stroke-dasharray:none;stroke-opacity:1"
       transform="matrix(1.3333333,0,0,-1.3333333,189.508,435.17733)" />
    <path
       id="path20"
       d="m 79.08757,32.59888 h 11.9057 l -5.95285,-7.93709 z"
       style="fill:none;stroke:#a30262;stroke-width:2.39105;stroke-linecap:butt;stroke-linejoin:miter;stroke-miterlimit:10;stroke-dasharray:none;stroke-opacity:1"
       transform="matrix(1.3333333,0,0,-1.3333333,189.508,435.17733)" />
    <path
       id="path21"
       d="M 85.04042,193.69917 73.92874,174.80936 H 96.1521 Z"
       style="fill:none;stroke:#000000;stroke-width:0.797;stroke-linecap:butt;stroke-linejoin:miter;stroke-miterlimit:10;stroke-dasharray:none;stroke-opacity:1"
       transform="matrix(1.3333333,0,0,-1.3333333,189.508,435.17733)" />
    <path
       id="path22"
       d="m 85.04042,170.76146 v 4.0479 m 0,22.93768 v -4.0479"
       style="fill:none;stroke:#000000;stroke-width:0.3985;stroke-linecap:butt;stroke-linejoin:miter;stroke-miterlimit:10;stroke-dasharray:none;stroke-opacity:1"
       transform="matrix(1.3333333,0,0,-1.3333333,189.508,435.17733)" />
    <path
       id="path23"
       d="m 3.5161172,-2.2963281 c -0.7265625,1.21875 -1.4296875,1.64062497 -2.4257813,1.69921872 -0.22265621,0.0234375 -0.38671871,0.0234375 -0.38671871,0.38671875 0,0.12890625 0.10546875,0.210937505 0.24609375,0.210937505 0.37499996,0 1.30078126,-0.046875005 1.67578126,-0.046875005 0.5976562,0 1.2539062,0.046875005 1.8398437,0.046875005 0.1171875,0 0.375,0 0.375,-0.386718755 0,-0.1875 -0.1757812,-0.2109375 -0.2929687,-0.2109375 -0.4804688,-0.046875 -0.8671875,-0.2109375 -0.8671875,-0.70312502 0,-0.2929687 0.1171875,-0.515625 0.3867187,-0.9726562 l 1.5703125,-2.6015625 h 5.2734371 c 0.02344,0.1875 0.02344,0.3515625 0.03516,0.5390625 0.07031,0.5390625 0.316406,2.6835937 0.316406,3.0703125 0,0.62109372 -1.054688,0.66796872 -1.3828126,0.66796872 -0.234375,0 -0.4570312,0 -0.4570312,0.375 0,0.222656255 0.1875,0.222656255 0.3046875,0.222656255 0.3515623,0 0.7734373,-0.046875005 1.1250003,-0.046875005 h 1.171875 c 1.265625,0 2.167968,0.046875005 2.191406,0.046875005 0.140625,0 0.375,0 0.375,-0.386718755 0,-0.2109375 -0.1875,-0.2109375 -0.503906,-0.2109375 -1.136719,0 -1.148438,-0.1875 -1.21875,-0.80859372 l -1.25391,-12.8906249 c -0.04687,-0.410156 -0.128906,-0.457031 -0.351562,-0.457031 -0.210938,0 -0.328125,0.04687 -0.515625,0.351562 z m 2.4726562,-3.1757813 4.1601566,-6.9492186 0.703125,6.9492186 z m 0,0"
       style="fill:#000000;fill-opacity:1;fill-rule:nonzero;stroke:none"
       aria-label="A"
       transform="matrix(1.3333333,0,0,1.3333333,249.972,204.41333)" />
    <path
       id="path24"
       d="m 4.1372031,-9.1990625 c 0,-0.328125 0,-0.3398438 -0.2929687,-0.3398438 -0.3398438,0.3867188 -1.0664063,0.9140625 -2.5429688,0.9140625 v 0.421875 c 0.3398438,0 1.0546875,0 1.8398438,-0.375 v 7.4765625 C 3.1411094,-0.58578125 3.0942344,-0.41 1.8403281,-0.41 H 1.3950156 V 1.5625e-4 c 0.3867188,-0.0234375 1.78125,-0.0234375 2.25,-0.0234375 0.46875,0 1.8515625,0 2.2382813,0.0234375 V -0.41 H 5.4379844 c -1.265625,0 -1.3007813,-0.17578125 -1.3007813,-0.6914063 z m 0,0"
       style="fill:#000000;fill-opacity:1;fill-rule:nonzero;stroke:none"
       aria-label="1"
       transform="matrix(1.3333333,0,0,1.3333333,270.19467,208.54667)" />
    <path
       id="path25"
       d="M 85.04042,250.39279 73.92874,231.50298 H 96.1521 Z"
       style="fill:none;stroke:#000000;stroke-width:0.797;stroke-linecap:butt;stroke-linejoin:miter;stroke-miterlimit:10;stroke-dasharray:none;stroke-opacity:1"
       transform="matrix(1.3333333,0,0,-1.3333333,189.508,435.17733)" />
    <path
       id="path26"
       d="m 85.04042,227.45508 v 4.0479 m 0,22.93768 v -4.0479"
       style="fill:none;stroke:#000000;stroke-width:0.3985;stroke-linecap:butt;stroke-linejoin:miter;stroke-miterlimit:10;stroke-dasharray:none;stroke-opacity:1"
       transform="matrix(1.3333333,0,0,-1.3333333,189.508,435.17733)" />
    <path
       id="path27"
       d="m 3.5161172,-2.2957109 c -0.7265625,1.21875 -1.4296875,1.64062496 -2.4257813,1.69921871 -0.22265621,0.0234375 -0.38671871,0.0234375 -0.38671871,0.38671875 0,0.12890625 0.10546875,0.2109375 0.24609375,0.2109375 0.37499996,0 1.30078126,-0.046875 1.67578126,-0.046875 0.5976562,0 1.2539062,0.046875 1.8398437,0.046875 0.1171875,0 0.375,0 0.375,-0.38671875 0,-0.1875 -0.1757812,-0.2109375 -0.2929687,-0.2109375 -0.4804688,-0.046875 -0.8671875,-0.2109375 -0.8671875,-0.70312501 0,-0.2929687 0.1171875,-0.515625 0.3867187,-0.9726562 l 1.5703125,-2.6015625 h 5.2734371 c 0.02344,0.1875 0.02344,0.3515625 0.03516,0.5390625 0.07031,0.5390625 0.316406,2.6835937 0.316406,3.0703125 0,0.62109371 -1.054688,0.66796871 -1.3828126,0.66796871 -0.234375,0 -0.4570312,0 -0.4570312,0.375 0,0.22265625 0.1875,0.22265625 0.3046875,0.22265625 0.3515623,0 0.7734373,-0.046875 1.1250003,-0.046875 h 1.171875 c 1.265625,0 2.167968,0.046875 2.191406,0.046875 0.140625,0 0.375,0 0.375,-0.38671875 0,-0.2109375 -0.1875,-0.2109375 -0.503906,-0.2109375 -1.136719,0 -1.148438,-0.1875 -1.21875,-0.80859371 l -1.25391,-12.8906251 c -0.04687,-0.410156 -0.128906,-0.457031 -0.351562,-0.457031 -0.210938,0 -0.328125,0.04687 -0.515625,0.351562 z m 2.4726562,-3.1757813 4.1601566,-6.9492188 0.703125,6.9492188 z m 0,0"
       style="fill:#000000;fill-opacity:1;fill-rule:nonzero;stroke:none"
       aria-label="A"
       transform="matrix(1.3333333,0,0,1.3333333,249.972,128.82267)" />
    <path
       id="path28"
       d="M 6.3168906,-2.4132891 H 6.0004844 c -0.046875,0.2460938 -0.1640625,1.03125 -0.3046875,1.265625 -0.1054688,0.1289063 -0.9140625,0.1289063 -1.3476563,0.1289063 H 1.6879844 c 0.3867187,-0.328125 1.265625,-1.2421875 1.640625,-1.59375 2.1796875,-2.0039063 2.9882812,-2.7539063 2.9882812,-4.171875 0,-1.6523438 -1.3125,-2.7539063 -2.9765625,-2.7539063 -1.6640625,0 -2.63671872,1.4179688 -2.63671872,2.6484375 0,0.7382813 0.63281252,0.7382813 0.67968752,0.7382813 0.2929687,0 0.6679687,-0.2109375 0.6679687,-0.6796875 0,-0.3984375 -0.2695312,-0.6679688 -0.6679687,-0.6679688 -0.140625,0 -0.1640625,0 -0.2109375,0.011719 0.28125,-0.9726563 1.0546875,-1.6289063 1.9804687,-1.6289063 1.21875,0 1.96875,1.0078125 1.96875,2.3320313 0,1.21875 -0.703125,2.2851562 -1.5234375,3.1992187 L 0.70360938,-0.33907031 V 7.734375e-4 H 5.9418906 Z m 0,0"
       style="fill:#000000;fill-opacity:1;fill-rule:nonzero;stroke:none"
       aria-label="2"
       transform="matrix(1.3333333,0,0,1.3333333,270.19467,132.956)" />
    <path
       id="path29"
       d="m 85.04042,99.21382 v 71.54764 m 0,26.98558 v 29.70804"
       style="fill:none;stroke:#000000;stroke-width:0.3985;stroke-linecap:butt;stroke-linejoin:miter;stroke-miterlimit:10;stroke-dasharray:none;stroke-opacity:1"
       transform="matrix(1.3333333,0,0,-1.3333333,189.508,435.17733)" />
    <path
       id="path30"
       d="m 0,127.56062 v 127.56064 -0.70876 m 0,29.76432 v -0.70874"
       style="fill:none;stroke:#000000;stroke-width:0.3985;stroke-linecap:butt;stroke-linejoin:miter;stroke-miterlimit:10;stroke-dasharray:none;stroke-opacity:1"
       transform="matrix(1.3333333,0,0,-1.3333333,189.508,435.17733)" />
    <path
       id="path31"
       d="m -14.88216,269.29466 c 0,-8.21928 6.66288,-14.88216 14.88216,-14.88216 8.21928,0 14.88216,6.66288 14.88216,14.88216 0,8.21929 -6.66288,14.88216 -14.88216,14.88216 -8.21928,0 -14.88216,-6.66287 -14.88216,-14.88216 z"
       style="fill:none;stroke:#000000;stroke-width:0.797;stroke-linecap:butt;stroke-linejoin:miter;stroke-miterlimit:10;stroke-dasharray:none;stroke-opacity:1"
       transform="matrix(1.3333333,0,0,-1.3333333,189.508,435.17733)" />
    <path
       id="path32"
       d="m 7.8747266,-2.7547813 c 0.2109375,0 0.421875,0 0.421875,-0.234375 0,-0.234375 -0.2109375,-0.234375 -0.421875,-0.234375 h -6.46875 c -0.1992188,0 -0.41015629,0 -0.41015629,0.234375 0,0.234375 0.21093749,0.234375 0.41015629,0.234375 z m 0,0"
       style="fill:#000000;fill-opacity:1;fill-rule:nonzero;stroke:none"
       aria-label="−"
       transform="matrix(-1.3333333,0,0,-1.3333333,195.70667,63.561333)" />
    <path
       id="path33"
       d="M 4.7689375,-2.7657891 H 8.073625 c 0.1640625,0 0.375,0 0.375,-0.2109375 0,-0.2226562 -0.1992188,-0.2226562 -0.375,-0.2226562 H 4.7689375 v -3.3046875 c 0,-0.1640625 0,-0.3867188 -0.2109375,-0.3867188 -0.234375,0 -0.234375,0.2109375 -0.234375,0.3867188 v 3.3046875 H 1.0306562 c -0.1757812,0 -0.3867187,0 -0.3867187,0.2109375 0,0.2226562 0.19921875,0.2226562 0.3867187,0.2226562 H 4.323625 v 3.30468754 c 0,0.1640625 0,0.38671875 0.2226562,0.38671875 0.2226563,0 0.2226563,-0.2109375 0.2226563,-0.38671875 z m 0,0"
       style="fill:#000000;fill-opacity:1;fill-rule:nonzero;stroke:none"
       aria-label="+"
       transform="matrix(-1.3333333,0,0,-1.3333333,195.57733,80.824)" />
    <path
       id="path34"
       d="m 12.78568,-11.811555 c 0.703125,-1.125 1.347656,-1.617187 2.402343,-1.699218 0.199219,-0.02344 0.375,-0.02344 0.375,-0.386719 0,-0.09375 -0.04687,-0.210938 -0.234375,-0.210938 -0.375,0 -1.253906,0.03516 -1.628906,0.03516 -0.597656,0 -1.21875,-0.03516 -1.804687,-0.03516 -0.164063,0 -0.363282,0 -0.363282,0.386719 0,0.1875 0.1875,0.210938 0.269532,0.210938 0.761718,0.05859 0.84375,0.433593 0.84375,0.679687 0,0.316406 -0.292969,0.785156 -0.304688,0.808594 L 5.8481797,-1.7334297 4.4067734,-12.866242 c 0,-0.597656 1.0664063,-0.644531 1.3007813,-0.644531 0.3046875,0 0.4921875,0 0.4921875,-0.386719 0,-0.210938 -0.2226563,-0.210938 -0.2929688,-0.210938 -0.3515625,0 -0.7617187,0.03516 -1.1132812,0.03516 H 3.6333359 c -1.5,0 -2.1210937,-0.03516 -2.1445312,-0.03516 -0.1289063,0 -0.375,0 -0.375,0.375 0,0.222657 0.1523437,0.222657 0.4804687,0.222657 1.0546875,0 1.1132813,0.1875 1.171875,0.703125 l 1.6523438,12.74999956 c 0.070312,0.43359375 0.070312,0.4921875 0.3515625,0.4921875 0.2460937,0 0.3515625,-0.0585938 0.5625,-0.38671875 z m 0,0"
       style="fill:#000000;fill-opacity:1;fill-rule:nonzero;stroke:none"
       aria-label="V"
       transform="matrix(1.3333333,0,0,1.3333333,119.58133,79.557333)" />
    <text
       id="text34"
       xml:space="preserve"
       transform="matrix(1.3333333,0,0,1.3333333,135.308,83.689333)"><tspan
         id="tspan34"
         style="font-variant:normal;font-weight:normal;font-size:14.3462px;font-family:'Latin Modern Roman';writing-mode:lr-tb;fill:#000000;fill-opacity:1;fill-rule:nonzero;stroke:none"
         x="0"
         y="0">qp</tspan></text>
    <text
       id="text35"
       xml:space="preserve"
       transform="matrix(1.3333333,0,0,1.3333333,156.11955,83.689333)"><tspan
         id="tspan35"
         style="font-variant:normal;font-weight:normal;font-size:14.3462px;font-family:'Latin Modern Roman';writing-mode:lr-tb;fill:#000000;fill-opacity:1;fill-rule:nonzero;stroke:none"
         x="0"
         y="0">c</tspan></text>
    <path
       id="path35"
       d="m 0,283.46808 v 9.92134"
       style="fill:none;stroke:#000000;stroke-width:0.3985;stroke-linecap:butt;stroke-linejoin:miter;stroke-miterlimit:10;stroke-dasharray:none;stroke-opacity:1"
       transform="matrix(1.3333333,0,0,-1.3333333,189.508,435.17733)" />
    <path
       id="path36"
       d="M 5.95285,293.38942 H -5.95285 L 0,301.3265 Z"
       style="fill:none;stroke:#000000;stroke-width:0.797;stroke-linecap:butt;stroke-linejoin:miter;stroke-miterlimit:10;stroke-dasharray:none;stroke-opacity:1"
       transform="matrix(1.3333333,0,0,-1.3333333,189.508,435.17733)" />
    <path
       id="path37"
       d="m -28.3468,99.21382 h -56.69362 v 155.90744 l 2e-5,-0.70876 m 0,29.76432 -2e-5,-0.70874"
       style="fill:none;stroke:#000000;stroke-width:0.3985;stroke-linecap:butt;stroke-linejoin:miter;stroke-miterlimit:10;stroke-dasharray:none;stroke-opacity:1"
       transform="matrix(1.3333333,0,0,-1.3333333,189.508,435.17733)" />
    <path
       id="path38"
       d="m -99.92256,269.29466 c 0,-8.21928 6.66287,-14.88216 14.88216,-14.88216 8.21928,0 14.88215,6.66288 14.88215,14.88216 0,8.21929 -6.66287,14.88216 -14.88215,14.88216 -8.21929,0 -14.88216,-6.66287 -14.88216,-14.88216 z"
       style="fill:none;stroke:#000000;stroke-width:0.797;stroke-linecap:butt;stroke-linejoin:miter;stroke-miterlimit:10;stroke-dasharray:none;stroke-opacity:1"
       transform="matrix(1.3333333,0,0,-1.3333333,189.508,435.17733)" />
    <path
       id="path39"
       d="m 7.8757656,-2.7547813 c 0.2109375,0 0.421875,0 0.421875,-0.234375 0,-0.234375 -0.2109375,-0.234375 -0.421875,-0.234375 h -6.46875 c -0.1992187,0 -0.41015623,0 -0.41015623,0.234375 0,0.234375 0.21093753,0.234375 0.41015623,0.234375 z m 0,0"
       style="fill:#000000;fill-opacity:1;fill-rule:nonzero;stroke:none"
       aria-label="−"
       transform="matrix(-1.3333333,0,0,-1.3333333,82.321333,63.561333)" />
    <path
       id="path40"
       d="m 4.7699766,-2.7657891 h 3.3046875 c 0.1640625,0 0.375,0 0.375,-0.2109375 0,-0.2226562 -0.1992188,-0.2226562 -0.375,-0.2226562 H 4.7699766 v -3.3046875 c 0,-0.1640625 0,-0.3867188 -0.2109375,-0.3867188 -0.234375,0 -0.234375,0.2109375 -0.234375,0.3867188 v 3.3046875 H 1.0316953 c -0.17578124,0 -0.38671874,0 -0.38671874,0.2109375 0,0.2226562 0.19921875,0.2226562 0.38671874,0.2226562 h 3.2929688 v 3.30468754 c 0,0.1640625 0,0.38671875 0.2226562,0.38671875 0.2226563,0 0.2226563,-0.2109375 0.2226563,-0.38671875 z m 0,0"
       style="fill:#000000;fill-opacity:1;fill-rule:nonzero;stroke:none"
       aria-label="+"
       transform="matrix(-1.3333333,0,0,-1.3333333,82.192,80.824)" />
    <path
       id="path41"
       d="m 12.783859,-11.811555 c 0.703125,-1.125 1.347657,-1.617187 2.402344,-1.699218 0.199219,-0.02344 0.375,-0.02344 0.375,-0.386719 0,-0.09375 -0.04687,-0.210938 -0.234375,-0.210938 -0.375,0 -1.253906,0.03516 -1.628906,0.03516 -0.597656,0 -1.21875,-0.03516 -1.804688,-0.03516 -0.164062,0 -0.363281,0 -0.363281,0.386719 0,0.1875 0.1875,0.210938 0.269531,0.210938 0.761719,0.05859 0.84375,0.433593 0.84375,0.679687 0,0.316406 -0.292968,0.785156 -0.304687,0.808594 L 5.8463594,-1.7334297 4.4049531,-12.866242 c 0,-0.597656 1.0664063,-0.644531 1.3007813,-0.644531 0.3046875,0 0.4921875,0 0.4921875,-0.386719 0,-0.210938 -0.2226563,-0.210938 -0.2929688,-0.210938 -0.3515625,0 -0.7617187,0.03516 -1.1132812,0.03516 H 3.6315156 c -1.5,0 -2.1210937,-0.03516 -2.1445312,-0.03516 -0.1289063,0 -0.375,0 -0.375,0.375 0,0.222657 0.1523437,0.222657 0.4804687,0.222657 1.0546875,0 1.1132813,0.1875 1.171875,0.703125 l 1.6523438,12.74999956 c 0.070312,0.43359375 0.070312,0.4921875 0.3515625,0.4921875 0.2460937,0 0.3515625,-0.0585938 0.5625,-0.38671875 z m 0,0"
       style="fill:#000000;fill-opacity:1;fill-rule:nonzero;stroke:none"
       aria-label="V"
       transform="matrix(1.3333333,0,0,1.3333333,2.9626667,79.557333)" />
    <text
       id="text41"
       xml:space="preserve"
       transform="matrix(1.3333333,0,0,1.3333333,18.689333,83.689333)"><tspan
         id="tspan41"
         style="font-variant:normal;font-weight:normal;font-size:14.3462px;font-family:'Latin Modern Roman';writing-mode:lr-tb;fill:#000000;fill-opacity:1;fill-rule:nonzero;stroke:none"
         x="0"
         y="0">bias</tspan></text>
    <path
       id="path42"
       d="m -85.04042,283.46808 v 9.92134"
       style="fill:none;stroke:#000000;stroke-width:0.3985;stroke-linecap:butt;stroke-linejoin:miter;stroke-miterlimit:10;stroke-dasharray:none;stroke-opacity:1"
       transform="matrix(1.3333333,0,0,-1.3333333,189.508,435.17733)" />
    <path
       id="path43"
       d="m -79.08757,293.38942 h -11.9057 l 5.95285,7.93708 z"
       style="fill:none;stroke:#000000;stroke-width:0.797;stroke-linecap:butt;stroke-linejoin:miter;stroke-miterlimit:10;stroke-dasharray:none;stroke-opacity:1"
       transform="matrix(1.3333333,0,0,-1.3333333,189.508,435.17733)" />
    <path
       id="path44"
       d="m 56.69362,258.42577 v 48.7234 c 0,2.20094 1.78416,3.98511 3.98511,3.98511 h 48.7234 c 2.20094,0 3.98511,-1.78417 3.98511,-3.98511 v -48.7234 c 0,-2.20095 -1.78417,-3.98511 -3.98511,-3.98511 h -48.7234 c -2.20095,0 -3.98511,1.78416 -3.98511,3.98511 z"
       style="fill:none;stroke:#000000;stroke-width:0.3985;stroke-linecap:butt;stroke-linejoin:miter;stroke-miterlimit:10;stroke-dasharray:none;stroke-opacity:1"
       transform="matrix(1.3333333,0,0,-1.3333333,189.508,435.17733)" />
    <path
       id="path45"
       d="M 63.7803,260.79056 V 298.7279"
       style="fill:none;stroke:#000000;stroke-width:0.3985;stroke-linecap:butt;stroke-linejoin:miter;stroke-miterlimit:10;stroke-dasharray:none;stroke-opacity:1"
       transform="matrix(1.3333333,0,0,-1.3333333,189.508,435.17733)" />
    <path
       id="path46"
       d="M 3.7613,0 C 3.2994,0.1127 1.26901,0.75136 0,1.44638 V -1.44638 C 1.26901,-0.75136 3.2994,-0.1127 3.7613,0 Z"
       style="fill:#000000;fill-opacity:1;fill-rule:nonzero;stroke:#000000;stroke-width:0.3985;stroke-linecap:butt;stroke-linejoin:miter;stroke-miterlimit:10;stroke-dasharray:none;stroke-opacity:1"
       transform="matrix(0,-1.3333333,-1.3333333,0,274.5484,36.873467)" />
    <path
       id="path47"
       d="m 3.5388125,-3.7967422 h 2.0039063 c 1.6523437,0 3.3046875,-1.21875 3.3046875,-2.5898437 0,-0.9257813 -0.796875,-1.78125 -2.296875,-1.78125 H 2.859125 c -0.234375,0 -0.3398437,0 -0.3398437,0.234375 0,0.1171875 0.1054687,0.1171875 0.2929687,0.1171875 0.7265625,0 0.7265625,0.09375 0.7265625,0.2226562 0,0.023437 0,0.09375 -0.046875,0.28125 L 1.87475,-0.87877344 c -0.1054687,0.41015625 -0.1289062,0.52734375 -0.9609375,0.52734375 -0.234375,0 -0.3515625,0 -0.3515625,0.22265625 0,0.1289062525 0.10546875,0.1289062525 0.17578125,0.1289062525 0.234375,0 0.46875005,-0.0234375025 0.69140625,-0.0234375025 h 1.40625 c 0.2226563,0 0.4804688,0.0234375025 0.703125,0.0234375025 0.09375,0 0.2226563,0 0.2226563,-0.2226562525 0,-0.12890625 -0.1054688,-0.12890625 -0.28125,-0.12890625 -0.7148438,0 -0.7265625,-0.0820313 -0.7265625,-0.19921875 0,-0.0585938 0.011719,-0.140625 0.023437,-0.19921875 z m 0.8554688,-3.5507812 c 0.1171875,-0.4453125 0.1640625,-0.46875 0.6210937,-0.46875 h 1.1835938 c 0.9023437,0 1.640625,0.28125 1.640625,1.1835937 0,0.3046875 -0.1523438,1.3242188 -0.703125,1.875 -0.1992188,0.2109375 -0.7734375,0.6679688 -1.8632813,0.6679688 h -1.6875 z m 0,0"
       style="fill:#000000;fill-opacity:1;fill-rule:nonzero;stroke:none"
       aria-label="P"
       transform="matrix(1.3333333,0,0,1.3333333,280.12533,36.214667)" />
    <path
       id="path48"
       d="m 7.592611,-8.3084609 c 0,-0.1054688 -0.082031,-0.1054688 -0.1054688,-0.1054688 -0.058594,0 -0.070312,0.011719 -0.2109375,0.1875 -0.070312,0.082031 -0.5625,0.703125 -0.5742187,0.7148438 -0.3867188,-0.7734375 -1.1835938,-0.9023438 -1.6875,-0.9023438 -1.5117188,0 -2.8828125,1.3828125 -2.8828125,2.7304688 0,0.9023437 0.5273437,1.4296875 1.1132812,1.6289062 0.140625,0.046875 0.84375,0.2460938 1.1953125,0.328125 0.609375,0.1640625 0.7734375,0.2109375 1.0195313,0.4804688 0.046875,0.058594 0.2929687,0.328125 0.2929687,0.890625 0,1.1132812 -1.03125,2.26171871 -2.2265625,2.26171871 -0.984375,0 -2.0742187,-0.421875 -2.0742187,-1.75781251 0,-0.2226562 0.058594,-0.515625 0.09375,-0.6328125 0,-0.035156 0.011719,-0.09375 0.011719,-0.1171875 0,-0.046875 -0.023437,-0.1171875 -0.1289062,-0.1171875 -0.1054688,0 -0.1171875,0.023437 -0.1640625,0.234375 l -0.60937503,2.44921876 c 0,0.01171875 -0.046875,0.1640625 -0.046875,0.17578125 0,0.10546875 0.09375,0.10546875 0.1171875,0.10546875 0.046875,0 0.0585938,-0.0117188 0.2109375,-0.1875 L 1.4754235,-0.65611719 c 0.2929687,0.43359375 0.9140625,0.90234375 2.0273437,0.90234375 1.5351563,0 2.953125,-1.48828126 2.953125,-2.98828126 0,-0.4921875 -0.1171875,-0.9375 -0.5742187,-1.3828125 C 5.623861,-4.3709609 5.4129235,-4.4295547 4.311361,-4.7225234 3.514486,-4.9334609 3.4090172,-4.9686172 3.186361,-5.1678359 2.9871422,-5.3670547 2.8347985,-5.6483047 2.8347985,-6.0584609 c 0,-1.0078125 1.0078125,-2.0390625 2.1445312,-2.0390625 1.171875,0 1.7226563,0.7265625 1.7226563,1.8632812 0,0.3046875 -0.058594,0.6328125 -0.058594,0.6796875 0,0.1054688 0.09375,0.1054688 0.1289063,0.1054688 0.1171875,0 0.1289062,-0.035156 0.1757812,-0.234375 z m 2.1738281,7.42968746 c -0.1054688,0.41015625 -0.1289063,0.52734375 -0.9609375,0.52734375 -0.234375,0 -0.3515625,0 -0.3515625,0.22265625 0,0.1289062525 0.070312,0.1289062525 0.3046875,0.1289062525 h 3.7968754 c 2.414062,0 4.769531,-2.4960937125 4.769531,-5.1679687125 0,-1.7226563 -1.03125,-3 -2.742188,-3 h -3.832031 c -0.234375,0 -0.339844,0 -0.339844,0.234375 0,0.1171875 0.105469,0.1171875 0.292969,0.1171875 0.726563,0 0.726563,0.09375 0.726563,0.2226562 0,0.023437 0,0.09375 -0.04687,0.28125 z M 12.28597,-7.3475234 c 0.117188,-0.4453125 0.164063,-0.46875 0.621094,-0.46875 h 1.324219 c 1.113281,0 2.144531,0.609375 2.144531,2.2617187 0,0.5976563 -0.234375,2.671875 -1.394531,3.984375 -0.339844,0.3984375 -1.242188,1.21875001 -2.625,1.21875001 h -1.359375 c -0.164063,0 -0.1875,0 -0.257813,-0.0117188 -0.128906,-0.0117188 -0.140625,-0.0351563 -0.140625,-0.12890625 0,-0.0820313 0.02344,-0.15234375 0.04687,-0.2578125 z m 0,0"
       style="fill:#000000;fill-opacity:1;fill-rule:nonzero;stroke:none"
       aria-label="SD"
       transform="matrix(1.3333333,0,0,1.3333333,292.35308,36.214667)" />
    <path
       id="path49"
       d="m 63.7803,260.79056 h 37.93737"
       style="fill:none;stroke:#000000;stroke-width:0.3985;stroke-linecap:butt;stroke-linejoin:miter;stroke-miterlimit:10;stroke-dasharray:none;stroke-opacity:1"
       transform="matrix(1.3333333,0,0,-1.3333333,189.508,435.17733)" />
    <path
       id="path50"
       d="M 3.7613,0 C 3.2994,0.1127 1.26901,0.75136 0,1.44638 V -1.44638 C 1.26901,-0.75136 3.2994,-0.1127 3.7613,0 Z"
       style="fill:#000000;fill-opacity:1;fill-rule:nonzero;stroke:#000000;stroke-width:0.3985;stroke-linecap:butt;stroke-linejoin:miter;stroke-miterlimit:10;stroke-dasharray:none;stroke-opacity:1"
       transform="matrix(1.3333333,0,0,-1.3333333,325.13156,87.456587)" />
    <path
       id="path51"
       d="m 5.3322578,-4.80575 c 0.234375,0 0.328125,0 0.328125,-0.2226563 0,-0.1289062 -0.09375,-0.1289062 -0.3046875,-0.1289062 H 4.3830391 c 0.234375,-1.2304688 0.3984375,-2.0742188 0.4921875,-2.4609375 0.070312,-0.28125 0.328125,-0.5625 0.6328125,-0.5625 0.2578125,0 0.5039062,0.1054687 0.6210937,0.2226562 -0.46875,0.046875 -0.609375,0.3867188 -0.609375,0.5976563 0,0.234375 0.1875,0.375 0.4101563,0.375 0.234375,0 0.5976562,-0.1992188 0.5976562,-0.65625 0,-0.5039063 -0.5039062,-0.7734375 -1.03125,-0.7734375 -0.515625,0 -1.0078125,0.3867187 -1.2539062,0.84375 -0.2109375,0.421875 -0.328125,0.8554687 -0.609375,2.4140625 h -0.796875 c -0.234375,0 -0.3515625,0 -0.3515625,0.2226562 0,0.1289063 0.070312,0.1289063 0.3164062,0.1289063 h 0.7617188 c -0.2109375,1.1132812 -0.703125,3.80859375 -0.984375,5.0859375 -0.1992188,1.0429687 -0.375,1.921875 -0.9726563,1.921875 -0.035156,0 -0.3867187,0 -0.5976562,-0.234375 0.609375,-0.046875 0.609375,-0.5742188 0.609375,-0.5859375 0,-0.234375 -0.1875,-0.375 -0.4101563,-0.375 -0.23437499,0 -0.59765624,0.1992187 -0.59765624,0.65625 0,0.515625 0.52734374,0.7734375 0.99609374,0.7734375 1.21875,0 1.7226563,-2.19140625 1.8515625,-2.7890625 0.2109375,-0.9140625 0.796875,-4.0898438 0.8554688,-4.453125 z m 0,0"
       style="fill:#000000;fill-opacity:1;fill-rule:nonzero;stroke:none"
       aria-label="f"
       transform="matrix(1.3333333,0,0,1.3333333,326.54267,78.782667)" />
    <path
       id="path52"
       d="m 65.19774,291.97395 1.57054,-14.90181 1.57056,-4.63247 1.57054,-2.25872 1.57054,-1.33699 1.57054,-0.88366 1.57054,-0.62372 1.57054,-0.45372 1.57056,-0.31664 1.57054,-0.16349 1.57054,0.045 1.57056,0.32786 1.57054,0.63758 1.57054,0.84387 1.57056,0.78851 1.57054,0.40312 1.57053,-0.19679 1.57055,-0.75435 1.57054,-1.04803 1.57056,-1.01778 1.57054,-0.78029 1.57054,-0.4944 1.57056,-0.2738 1.57054,-0.14229 1.57054,-0.0761"
       style="fill:none;stroke:#000000;stroke-width:0.3985;stroke-linecap:butt;stroke-linejoin:miter;stroke-miterlimit:10;stroke-dasharray:none;stroke-opacity:1"
       transform="matrix(1.3333333,0,0,-1.3333333,189.508,435.17733)" />
  </g>
</svg>
