<?xml version="1.0" encoding="UTF-8" standalone="no"?>
<!-- Created with Inkscape (http://www.inkscape.org/) -->

<svg
   version="1.1"
   id="svg1"
   width="387.93332"
   height="47.417332"
   viewBox="0 0 387.93332 47.417332"
   sodipodi:docname="shotnoise_eq.pdf"
   xmlns:inkscape="http://www.inkscape.org/namespaces/inkscape"
   xmlns:sodipodi="http://sodipodi.sourceforge.net/DTD/sodipodi-0.dtd"
   xmlns="http://www.w3.org/2000/svg"
   xmlns:svg="http://www.w3.org/2000/svg">
  <defs
     id="defs1" />
  <sodipodi:namedview
     id="namedview1"
     pagecolor="#ffffff"
     bordercolor="#000000"
     borderopacity="0.25"
     inkscape:showpageshadow="2"
     inkscape:pageopacity="0.0"
     inkscape:pagecheckerboard="0"
     inkscape:deskcolor="#d1d1d1">
    <inkscape:page
       x="0"
       y="0"
       inkscape:label="1"
       id="page1"
       width="387.93332"
       height="47.417332"
       margin="0"
       bleed="0" />
  </sodipodi:namedview>
  <g
     id="g1"
     inkscape:groupmode="layer"
     inkscape:label="1">
    <path
       id="path1"
       d="M -148.82074,0 V 7.08669 H 141.73404 V 0 Z"
       style="fill:none;stroke:#000000;stroke-width:0.3985;stroke-linecap:butt;stroke-linejoin:miter;stroke-miterlimit:10;stroke-dasharray:none;stroke-opacity:0"
       transform="matrix(1.3333333,0,0,-1.3333333,198.69067,23.708)" />
    <path
       id="path2"
       d="m 15.73743,-17.225828 c 0,-0.222656 -0.175782,-0.222656 -0.222657,-0.222656 -0.09375,0 -0.128906,0.02344 -0.421875,0.398437 -0.152343,0.175781 -1.160156,1.464844 -1.183593,1.488281 -0.820313,-1.617187 -2.460938,-1.886718 -3.503907,-1.886718 -3.1406246,0 -5.9999996,2.871093 -5.9999996,5.671875 0,1.8632809 1.125,2.9531246 2.3320313,3.3749996 0.28125,0.09375 1.734375,0.4921875 2.484375,0.6679688 1.2656253,0.3515625 1.5820313,0.4453125 2.1093753,0.9960937 0.09375,0.1171875 0.585937,0.6914063 0.585937,1.8515625 0,2.3085938 -2.1328123,4.68750002 -4.6054686,4.68750002 -2.0390625,0 -4.2890625,-0.86718752 -4.2890625,-3.64453122 0,-0.46875 0.09375,-1.0664063 0.1757813,-1.3125 0,-0.070312 0.023437,-0.1992188 0.023437,-0.2460938 0,-0.1054687 -0.046875,-0.2226562 -0.2460938,-0.2226562 -0.2226562,0 -0.2460937,0.046875 -0.3515625,0.46875 l -1.265625,5.08593747 c 0,0.0234375 -0.09375,0.33984375 -0.09375,0.36328125 0,0.22265625 0.1992188,0.22265625 0.2460938,0.22265625 0.09375,0 0.1289062,-0.0234375 0.421875,-0.38671875 L 3.0694609,-1.3586406 c 0.5976563,0.89062497 1.8867188,1.87499997 4.1953125,1.87499997 3.1992186,0 6.1171876,-3.09374997 6.1171876,-6.18749997 0,-1.0429688 -0.246094,-1.9570313 -1.183594,-2.8828125 -0.527344,-0.515625 -0.972656,-0.6445313 -3.2460936,-1.2304688 -1.6640625,-0.4453121 -1.8867187,-0.5273441 -2.3320312,-0.9257811 -0.421875,-0.421875 -0.75,-1.007813 -0.75,-1.851563 0,-2.085937 2.109375,-4.21875 4.4648438,-4.21875 2.425781,0 3.574219,1.488282 3.574219,3.84375 0,0.644532 -0.128907,1.3125 -0.128907,1.417969 0,0.222656 0.199219,0.222656 0.269532,0.222656 0.222656,0 0.246093,-0.08203 0.351562,-0.480468 z m 0,0"
       style="fill:#000000;fill-opacity:1;fill-rule:nonzero;stroke:none"
       aria-label="S"
       transform="matrix(1.3333333,0,0,1.3333333,23.770667,30.069333)" />
    <path
       id="path3"
       d="m 5.8475625,-2.9545547 c 0,-0.1054687 -0.082031,-0.1875 -0.2109375,-0.1875 -0.1875,0 -0.1992188,0.058594 -0.3046875,0.4101563 -0.5390625,1.88671871 -1.3828125,2.51953121 -2.0625,2.51953121 -0.2578125,0 -0.5390625,-0.0585937 -0.5390625,-0.6796875 0,-0.55078121 0.2460937,-1.17187501 0.46875,-1.79296871 l 1.453125,-3.84375 c 0.058594,-0.1640625 0.1992187,-0.5390625 0.1992187,-0.9257813 0,-0.8671875 -0.6210937,-1.6523437 -1.6289062,-1.6523437 -1.8984375,0 -2.66015625,2.9882812 -2.66015625,3.1523437 0,0.082031 0.0820313,0.1875 0.22265625,0.1875 0.1875,0 0.2109375,-0.082031 0.2929687,-0.375 0.4921875,-1.734375 1.2773438,-2.5546875 2.0859375,-2.5546875 0.1875,0 0.5390625,0.023437 0.5390625,0.6796875 0,0.5390625 -0.2695312,1.21875 -0.4335937,1.6757813 l -1.453125,3.84375 c -0.1171875,0.328125 -0.2460938,0.65625 -0.2460938,1.03125 0,0.92578121 0.6445313,1.67578121 1.6289063,1.67578121 1.8984375,0 2.6484375,-3.02343751 2.6484375,-3.16406251 z M 5.6835,-12.892055 c 0,-0.316406 -0.2460938,-0.679687 -0.703125,-0.679687 -0.4804688,0 -1.0195313,0.445312 -1.0195313,0.984375 0,0.515625 0.4453125,0.691406 0.6914063,0.691406 0.5507812,0 1.03125,-0.539062 1.03125,-0.996094 z m 5.25,12.97265656 c 0,-1.19531246 -0.398438,-2.08593746 -1.2421875,-2.08593746 -0.65625,0 -0.9960938,0.5390625 -0.9960938,0.9960937 0,0.44531251 0.3164063,1.00781251 1.0195313,1.00781251 0.2695312,0 0.492187,-0.08203125 0.679687,-0.26953125 0.03516,-0.0351563 0.05859,-0.0351563 0.08203,-0.0351563 0.04687,0 0.04687,0.28125 0.04687,0.38671875 0,0.6796875 -0.128907,2.02734379 -1.324219,3.36328129 C 8.96475,3.7016953 8.96475,3.7368516 8.96475,3.7837266 c 0,0.09375 0.1054687,0.1992187 0.2109375,0.1992187 0.1640625,0 1.7578125,-1.5234375 1.7578125,-3.90234374 z m 0,0"
       style="fill:#000000;fill-opacity:1;fill-rule:nonzero;stroke:none"
       aria-label="i,"
       transform="matrix(1.3333333,0,0,1.3333333,43.672,36.748)" />
    <text
       id="text3"
       xml:space="preserve"
       transform="matrix(1.3333333,0,0,1.3333333,60.368,36.748)"><tspan
         id="tspan3"
         style="font-variant:normal;font-weight:normal;font-size:20.6625px;font-family:'Latin Modern Roman';writing-mode:lr-tb;fill:#000000;fill-opacity:1;fill-rule:nonzero;stroke:none"
         x="0"
         y="0">sn</tspan></text>
    <path
       id="path4"
       d="m 15.936266,-7.9562969 c 0.375,0 0.738281,0 0.738281,-0.421875 0,-0.4453125 -0.421875,-0.4453125 -0.84375,-0.4453125 H 1.9792344 c -0.421875,0 -0.84375,0 -0.84375,0.4453125 0,0.421875 0.375,0.421875 0.75,0.421875 z m -0.105469,4.4179688 c 0.421875,0 0.84375,0 0.84375,-0.4570313 0,-0.4101562 -0.363281,-0.4101562 -0.738281,-0.4101562 H 1.8854844 c -0.375,0 -0.75,0 -0.75,0.4101562 0,0.4570313 0.421875,0.4570313 0.84375,0.4570313 z m 0,0"
       style="fill:#000000;fill-opacity:1;fill-rule:nonzero;stroke:none"
       aria-label="="
       transform="matrix(1.3333333,0,0,1.3333333,94.181333,30.069333)" />
    <path
       id="path5"
       d="M 10.335956,-3.8430156 H 9.8906436 c -0.2460938,1.7578125 -0.4453125,2.0625 -0.5507813,2.203125 -0.1171875,0.1992187 -1.8984375,0.1992187 -2.25,0.1992187 H 2.3320498 c 0.890625,-0.9609375 2.625,-2.71875 4.734375,-4.7578125 1.5117188,-1.4296875 3.2695312,-3.1171875 3.2695312,-5.5781246 0,-2.917969 -2.3320312,-4.605469 -4.9335937,-4.605469 -2.7304687,0 -4.3828125,2.402344 -4.3828125,4.628906 0,0.972656 0.7148438,1.101563 1.0078125,1.101563 0.2578125,0 0.9960938,-0.152344 0.9960938,-1.019532 0,-0.773437 -0.6445313,-0.996093 -0.9960938,-0.996093 -0.140625,0 -0.2929687,0.02344 -0.3867187,0.08203 0.46875,-2.109375 1.8984375,-3.152344 3.4101562,-3.152344 2.15625,0 3.5742188,1.710938 3.5742188,3.960938 0,2.1562496 -1.265625,4.0195309 -2.671875,5.6249996 L 1.0195498,-0.57348438 V 7.34375e-4 h 8.71875 z m 0,0"
       style="fill:#000000;fill-opacity:1;fill-rule:nonzero;stroke:none"
       aria-label="2"
       transform="matrix(1.3333333,0,0,1.3333333,127.12498,30.069333)" />
    <path
       id="path6"
       d="m 4.4408516,-5.7531719 c 0.6679687,0 2.3554687,-0.046875 3.5390625,-0.4921875 1.8867187,-0.7148437 2.0624999,-2.15625 2.0624999,-2.6015625 0,-1.0898437 -0.9492187,-2.0859371 -2.5781249,-2.0859371 -2.6015625,0 -6.3515625,2.3554684 -6.3515625,6.7734371 0,2.6015625 1.4882812,4.40625002 3.75,4.40625002 3.3632812,0 5.4960934,-2.62500002 5.4960934,-2.95312502 0,-0.140625 -0.152343,-0.2695312 -0.246093,-0.2695312 -0.07031,0 -0.105469,0.023437 -0.3281254,0.2460937 -1.5820313,2.10937502 -3.9375,2.48437502 -4.875,2.48437502 -1.4179688,0 -2.15625,-1.11328122 -2.15625,-2.95312502 0,-0.3398437 0,-0.9609375 0.3632812,-2.5546875 z M 3.2455391,-6.2453594 c 1.0664062,-3.8203126 3.421875,-4.1835936 4.21875,-4.1835936 1.0898437,0 1.828125,0.6445311 1.828125,1.5820311 0,2.6015625 -3.9609375,2.6015625 -5.0039063,2.6015625 z m 15.1171879,-3.09375 h 4.113281 c 0.328125,0 1.136719,0 1.136719,-0.7968746 0,-0.550782 -0.46875,-0.550782 -0.914063,-0.550782 H 15.89007 c -0.574218,0 -1.417968,0 -2.554687,1.2187504 -0.644531,0.7148437 -1.441406,2.0273437 -1.441406,2.1796875 0,0.1523437 0.128906,0.1992187 0.269531,0.1992187 0.175781,0 0.199219,-0.070312 0.328125,-0.2226562 1.289062,-2.0273438 2.578125,-2.0273438 3.199219,-2.0273438 h 2.050781 l -2.578125,8.49609377 c -0.117188,0.375 -0.117188,0.421875 -0.117188,0.4921875 0,0.28125 0.164063,0.62109375 0.667969,0.62109375 0.761719,0 0.890625,-0.66796875 0.960938,-1.04296875 z m 0,0"
       style="fill:#000000;fill-opacity:1;fill-rule:nonzero;stroke:none"
       aria-label="eτ"
       transform="matrix(1.3333333,0,0,1.3333333,142.30933,30.069333)" />
    <path
       id="path7"
       d="m 7.5811172,6.0476094 c 0,-0.023437 0,-0.070312 -0.070312,-0.1523438 -1.1367193,-1.1601562 -4.195313,-4.3359375 -4.195313,-12.0703125 0,-7.7343751 3,-10.8750001 4.21875,-12.1171871 0,-0.02344 0.046875,-0.07031 0.046875,-0.152344 0,-0.07031 -0.070312,-0.117188 -0.1757813,-0.117188 -0.2695312,0 -2.3789062,1.828125 -3.5859375,4.558594 -1.2421875,2.753906 -1.59375,5.4257814 -1.59375,7.8046876 0,1.7929688 0.1757813,4.8164063 1.6640625,8.0039063 1.1953125,2.578125 3.2226563,4.3945312 3.515625,4.3945312 0.1289063,0 0.1757813,-0.046875 0.1757813,-0.1523437 z M 15.374086,-15.831297 c 0,-0.527344 -0.03516,-0.550781 -0.375,-0.550781 -0.972656,1.160156 -2.425781,1.535156 -3.820313,1.582031 -0.07031,0 -0.199218,0 -0.222656,0.05859 -0.02344,0.04687 -0.02344,0.09375 -0.02344,0.609375 0.773437,0 2.0625,-0.140625 3.046875,-0.738281 v 13.0664059 c 0,0.86718747 -0.04687,1.16015622 -2.179688,1.16015622 H 11.061586 V 7.34375e-4 c 1.183594,-0.023437505 2.425781,-0.046875005 3.609375,-0.046875005 1.195312,0 2.4375,0.0234375 3.621094,0.046875005 V -0.64379688 h -0.738282 c -2.132812,0 -2.179687,-0.26953125 -2.179687,-1.16015622 z m 0,0"
       style="fill:#000000;fill-opacity:1;fill-rule:nonzero;stroke:none"
       aria-label="(1"
       transform="matrix(1.3333333,0,0,1.3333333,175.052,30.069333)" />
    <path
       id="path8"
       d="m 16.336297,-5.6945781 c 0.421875,0 0.867187,0 0.867187,-0.5039063 0,-0.4921875 -0.445312,-0.4921875 -0.867187,-0.4921875 H 2.9300469 c -0.421875,0 -0.8671875,0 -0.8671875,0.4921875 0,0.5039063 0.4453125,0.5039063 0.8671875,0.5039063 z m 0,0"
       style="fill:#000000;fill-opacity:1;fill-rule:nonzero;stroke:none"
       aria-label="−"
       transform="matrix(1.3333333,0,0,1.3333333,209.25733,30.069333)" />
    <path
       id="path9"
       d="m 7.1147266,-9.3391094 h 4.1132814 c 0.328125,0 1.136719,0 1.136719,-0.7968746 0,-0.550782 -0.46875,-0.550782 -0.914063,-0.550782 H 4.6420703 c -0.5742187,0 -1.4179687,0 -2.5546875,1.2187504 -0.6445312,0.7148437 -1.44140624,2.0273437 -1.44140624,2.1796875 0,0.1523437 0.12890625,0.1992187 0.26953125,0.1992187 0.17578129,0 0.19921879,-0.070312 0.32812499,-0.2226562 1.2890625,-2.0273438 2.578125,-2.0273438 3.1992188,-2.0273438 h 2.0507812 l -2.578125,8.49609377 c -0.1171875,0.375 -0.1171875,0.421875 -0.1171875,0.4921875 0,0.28125 0.1640625,0.62109375 0.6679688,0.62109375 0.7617187,0 0.890625,-0.66796875 0.9609375,-1.04296875 z m 0,0"
       style="fill:#000000;fill-opacity:1;fill-rule:nonzero;stroke:none"
       aria-label="τ"
       transform="matrix(1.3333333,0,0,1.3333333,242.30667,30.069333)" />
    <path
       id="path10"
       d="m 6.5147109,-6.1750469 c 0,-1.78125 -0.1757812,-4.8046871 -1.6523437,-8.0039061 -1.1953125,-2.578125 -3.2226563,-4.382813 -3.5273438,-4.382813 -0.070312,0 -0.1757812,0.02344 -0.1757812,0.152344 0,0.04687 0.035156,0.07031 0.058594,0.117188 1.1835938,1.242187 4.2070313,4.382812 4.2070313,12.0937496 0,7.734375 -3,10.8867188 -4.2070313,12.1171875 -0.023437,0.058594 -0.058594,0.082031 -0.058594,0.1289063 0,0.1289062 0.1054687,0.1523437 0.1757812,0.1523437 0.2695313,0 2.3789063,-1.8398437 3.5976563,-4.5585937 1.2421875,-2.7539063 1.5820312,-5.4375 1.5820312,-7.8164063 z m 0,0"
       style="fill:#000000;fill-opacity:1;fill-rule:nonzero;stroke:none"
       aria-label=")"
       transform="matrix(1.3333333,0,0,1.3333333,260.052,30.069333)" />
    <path
       id="path11"
       d="m 18.491617,-17.225828 c 0,-0.222656 -0.175781,-0.222656 -0.222656,-0.222656 -0.04687,0 -0.152344,0 -0.351563,0.246093 l -1.710937,2.0625 c -0.117188,-0.199218 -0.621094,-1.066406 -1.582031,-1.640625 -1.066407,-0.667968 -2.132813,-0.667968 -2.507813,-0.667968 -5.2968748,0 -10.8749998,5.402343 -10.8749998,11.2499996 0,4.0898438 2.8242187,6.71484377 6.5390625,6.71484377 1.78125,0 4.0429683,-0.5859375 5.2851563,-2.15624997 0.269531,0.94921872 0.808594,1.61718747 0.984375,1.61718747 0.128906,0 0.152344,-0.0703125 0.175781,-0.0703125 0.02344,-0.05859375 0.222656,-0.92578127 0.351563,-1.37109377 l 0.386718,-1.5820312 c 0.199219,-0.8203125 0.304688,-1.171875 0.480469,-1.9101563 0.246094,-0.9375 0.292969,-1.0195312 1.652344,-1.0429687 0.105469,0 0.398437,0 0.398437,-0.46875 0,-0.2460938 -0.246093,-0.2460938 -0.316406,-0.2460938 -0.421875,0 -0.890625,0.046875 -1.347656,0.046875 h -1.335938 c -1.042968,0 -2.132812,-0.046875 -3.140625,-0.046875 -0.222656,0 -0.527343,0 -0.527343,0.4453125 0,0.2460938 0.199218,0.2460938 0.199218,0.2695313 h 0.621094 c 1.957031,0 1.957031,0.1992187 1.957031,0.5742187 0,0.023437 -0.46875,2.53125 -0.9375,3.2695313 -0.949218,1.38281247 -2.9062496,1.95703122 -4.3593746,1.95703122 -1.9101562,0 -5.015625,-0.99609372 -5.015625,-5.27343752 0,-1.6640625 0.5976563,-5.4609371 3,-8.2617191 1.5585938,-1.78125 3.8671876,-3 6.0468746,-3 2.929688,0 3.972657,2.507813 3.972657,4.792969 0,0.386719 -0.105469,0.9375 -0.105469,1.289063 0,0.222656 0.246094,0.222656 0.328125,0.222656 0.269531,0 0.292969,-0.03516 0.398437,-0.480469 z m 0,0"
       style="fill:#000000;fill-opacity:1;fill-rule:nonzero;stroke:none"
       aria-label="G"
       transform="matrix(1.3333333,0,0,1.3333333,271.75467,30.069333)" />
    <path
       id="path12"
       d="m 8.6718125,-6.6328281 c 0,-1.2539063 -0.011719,-3.4101559 -0.8789063,-5.0624999 -0.7734375,-1.441406 -1.9921875,-1.957031 -3.0585937,-1.957031 -0.9960938,0 -2.25,0.445312 -3.0351563,1.933593 -0.8320312,1.558594 -0.91406245,3.4804691 -0.91406245,5.0859379 0,1.1835937 0.0234375,2.9765625 0.65624995,4.546875 0.890625,2.13281247 2.484375,2.41406247 3.2929688,2.41406247 0.9492187,0 2.390625,-0.38671875 3.2460937,-2.35546877 0.609375,-1.4179687 0.6914063,-3.09375 0.6914063,-4.6054687 z m -3.9375,6.632812475 c -1.3242188,0 -2.109375,-1.136718775 -2.4023438,-2.707031275 -0.2226562,-1.21875 -0.2226562,-3 -0.2226562,-4.1484375 0,-1.59375 0,-2.9179687 0.2695312,-4.1718746 0.3867188,-1.757813 1.546875,-2.296875 2.3554688,-2.296875 0.84375,0 1.9335937,0.550781 2.3320312,2.25 0.2695313,1.1835934 0.2929688,2.5664059 0.2929688,4.2187496 0,1.3359375 0,2.9882813 -0.2578125,4.2070313 C 6.6679062,-0.38673438 5.4491562,-1.5625e-5 4.7343125,-1.5625e-5 Z m 0,0"
       style="fill:#000000;fill-opacity:1;fill-rule:nonzero;stroke:none"
       aria-label="0"
       transform="matrix(1.3333333,0,0,1.3333333,297.28133,36.445333)" />
    <path
       id="path13"
       d="m 15.338437,-14.178953 c 0.84375,-1.335938 1.617188,-1.933594 2.882813,-2.027344 0.246094,-0.02344 0.445312,-0.02344 0.445312,-0.46875 0,-0.105469 -0.05859,-0.257812 -0.28125,-0.257812 -0.445312,0 -1.511718,0.05859 -1.957031,0.05859 -0.714844,0 -1.464844,-0.05859 -2.15625,-0.05859 -0.199219,0 -0.445312,0 -0.445312,0.480468 0,0.222657 0.222656,0.246094 0.328125,0.246094 0.914062,0.07031 1.007812,0.515625 1.007812,0.820313 0,0.363281 -0.339844,0.9375 -0.363281,0.960937 L 7.018125,-2.0852031 5.2720312,-15.444578 c 0,-0.714844 1.2890625,-0.761719 1.5703125,-0.761719 0.3632813,0 0.5976563,0 0.5976563,-0.46875 0,-0.257812 -0.28125,-0.257812 -0.3515625,-0.257812 -0.421875,0 -0.9140625,0.05859 -1.3359375,0.05859 H 4.3579687 c -1.8046875,0 -2.5546875,-0.05859 -2.578125,-0.05859 -0.140625,0 -0.4453125,0 -0.4453125,0.457031 0,0.269531 0.1757813,0.269531 0.5742188,0.269531 1.265625,0 1.3359375,0.222656 1.40625,0.84375 l 1.9921875,15.29296887 c 0.070312,0.515625 0.070312,0.5859375 0.421875,0.5859375 0.2929687,0 0.421875,-0.0703125 0.6679687,-0.46875 z m 0,0"
       style="fill:#000000;fill-opacity:1;fill-rule:nonzero;stroke:none"
       aria-label="V"
       transform="matrix(1.3333333,0,0,1.3333333,310.58,30.069333)" />
    <text
       id="text13"
       xml:space="preserve"
       transform="matrix(1.3333333,0,0,1.3333333,329.44533,37.805333)"><tspan
         id="tspan13"
         style="font-variant:normal;font-weight:normal;font-size:20.6625px;font-family:'Latin Modern Roman';writing-mode:lr-tb;fill:#000000;fill-opacity:1;fill-rule:nonzero;stroke:none"
         x="0"
         y="0">bias</tspan></text>
  </g>
</svg>
