<?xml version="1.0" encoding="utf-8" standalone="no"?>
<!DOCTYPE svg PUBLIC "-//W3C//DTD SVG 1.1//EN"
  "http://www.w3.org/Graphics/SVG/1.1/DTD/svg11.dtd">
<svg xmlns:xlink="http://www.w3.org/1999/xlink" width="504pt" height="504pt" viewBox="0 0 504 504" xmlns="http://www.w3.org/2000/svg" version="1.1">
 <metadata>
  <rdf:RDF xmlns:dc="http://purl.org/dc/elements/1.1/" xmlns:cc="http://creativecommons.org/ns#" xmlns:rdf="http://www.w3.org/1999/02/22-rdf-syntax-ns#">
   <cc:Work>
    <dc:type rdf:resource="http://purl.org/dc/dcmitype/StillImage"/>
    <dc:date>2025-08-21T10:57:58.947689</dc:date>
    <dc:format>image/svg+xml</dc:format>
    <dc:creator>
     <cc:Agent>
      <dc:title>Matplotlib v3.10.1, https://matplotlib.org/</dc:title>
     </cc:Agent>
    </dc:creator>
   </cc:Work>
  </rdf:RDF>
 </metadata>
 <defs>
  <style type="text/css">*{stroke-linejoin: round; stroke-linecap: butt}</style>
 </defs>
 <g id="figure_1">
  <g id="patch_1">
   <path d="M 0 504 
L 504 504 
L 504 0 
L 0 0 
z
" style="fill: #ffffff"/>
  </g>
  <g id="axes_1">
   <g id="patch_2">
    <path d="M 99.11 419.56 
L 478.08 419.56 
L 478.08 54.72 
L 99.11 54.72 
z
" style="fill: #ffffff"/>
   </g>
   <g id="matplotlib.axis_1">
    <g id="xtick_1">
     <g id="line2d_1">
      <defs>
       <path id="m85a9cbfcaf" d="M 0 0 
L 0 3.5 
" style="stroke: #000000; stroke-width: 0.8"/>
      </defs>
      <g>
       <use xlink:href="#m85a9cbfcaf" x="177.663753" y="419.56" style="stroke: #000000; stroke-width: 0.8"/>
      </g>
     </g>
     <g id="text_1">
      <!-- 7.5 -->
      <g transform="translate(158.580003 444.79625) scale(0.24 -0.24)">
       <defs>
        <path id="DejaVuSans-37" d="M 525 4666 
L 3525 4666 
L 3525 4397 
L 1831 0 
L 1172 0 
L 2766 4134 
L 525 4134 
L 525 4666 
z
" transform="scale(0.015625)"/>
        <path id="DejaVuSans-2e" d="M 684 794 
L 1344 794 
L 1344 0 
L 684 0 
L 684 794 
z
" transform="scale(0.015625)"/>
        <path id="DejaVuSans-35" d="M 691 4666 
L 3169 4666 
L 3169 4134 
L 1269 4134 
L 1269 2991 
Q 1406 3038 1543 3061 
Q 1681 3084 1819 3084 
Q 2600 3084 3056 2656 
Q 3513 2228 3513 1497 
Q 3513 744 3044 326 
Q 2575 -91 1722 -91 
Q 1428 -91 1123 -41 
Q 819 9 494 109 
L 494 744 
Q 775 591 1075 516 
Q 1375 441 1709 441 
Q 2250 441 2565 725 
Q 2881 1009 2881 1497 
Q 2881 1984 2565 2268 
Q 2250 2553 1709 2553 
Q 1456 2553 1204 2497 
Q 953 2441 691 2322 
L 691 4666 
z
" transform="scale(0.015625)"/>
       </defs>
       <use xlink:href="#DejaVuSans-37"/>
       <use xlink:href="#DejaVuSans-2e" transform="translate(63.623047 0)"/>
       <use xlink:href="#DejaVuSans-35" transform="translate(95.410156 0)"/>
      </g>
     </g>
    </g>
    <g id="xtick_2">
     <g id="line2d_2">
      <g>
       <use xlink:href="#m85a9cbfcaf" x="300.800443" y="419.56" style="stroke: #000000; stroke-width: 0.8"/>
      </g>
     </g>
     <g id="text_2">
      <!-- 8.0 -->
      <g transform="translate(281.716693 444.79625) scale(0.24 -0.24)">
       <defs>
        <path id="DejaVuSans-38" d="M 2034 2216 
Q 1584 2216 1326 1975 
Q 1069 1734 1069 1313 
Q 1069 891 1326 650 
Q 1584 409 2034 409 
Q 2484 409 2743 651 
Q 3003 894 3003 1313 
Q 3003 1734 2745 1975 
Q 2488 2216 2034 2216 
z
M 1403 2484 
Q 997 2584 770 2862 
Q 544 3141 544 3541 
Q 544 4100 942 4425 
Q 1341 4750 2034 4750 
Q 2731 4750 3128 4425 
Q 3525 4100 3525 3541 
Q 3525 3141 3298 2862 
Q 3072 2584 2669 2484 
Q 3125 2378 3379 2068 
Q 3634 1759 3634 1313 
Q 3634 634 3220 271 
Q 2806 -91 2034 -91 
Q 1263 -91 848 271 
Q 434 634 434 1313 
Q 434 1759 690 2068 
Q 947 2378 1403 2484 
z
M 1172 3481 
Q 1172 3119 1398 2916 
Q 1625 2713 2034 2713 
Q 2441 2713 2670 2916 
Q 2900 3119 2900 3481 
Q 2900 3844 2670 4047 
Q 2441 4250 2034 4250 
Q 1625 4250 1398 4047 
Q 1172 3844 1172 3481 
z
" transform="scale(0.015625)"/>
        <path id="DejaVuSans-30" d="M 2034 4250 
Q 1547 4250 1301 3770 
Q 1056 3291 1056 2328 
Q 1056 1369 1301 889 
Q 1547 409 2034 409 
Q 2525 409 2770 889 
Q 3016 1369 3016 2328 
Q 3016 3291 2770 3770 
Q 2525 4250 2034 4250 
z
M 2034 4750 
Q 2819 4750 3233 4129 
Q 3647 3509 3647 2328 
Q 3647 1150 3233 529 
Q 2819 -91 2034 -91 
Q 1250 -91 836 529 
Q 422 1150 422 2328 
Q 422 3509 836 4129 
Q 1250 4750 2034 4750 
z
" transform="scale(0.015625)"/>
       </defs>
       <use xlink:href="#DejaVuSans-38"/>
       <use xlink:href="#DejaVuSans-2e" transform="translate(63.623047 0)"/>
       <use xlink:href="#DejaVuSans-30" transform="translate(95.410156 0)"/>
      </g>
     </g>
    </g>
    <g id="xtick_3">
     <g id="line2d_3">
      <g>
       <use xlink:href="#m85a9cbfcaf" x="423.937134" y="419.56" style="stroke: #000000; stroke-width: 0.8"/>
      </g>
     </g>
     <g id="text_3">
      <!-- 8.5 -->
      <g transform="translate(404.853384 444.79625) scale(0.24 -0.24)">
       <use xlink:href="#DejaVuSans-38"/>
       <use xlink:href="#DejaVuSans-2e" transform="translate(63.623047 0)"/>
       <use xlink:href="#DejaVuSans-35" transform="translate(95.410156 0)"/>
      </g>
     </g>
    </g>
    <g id="text_4">
     <!-- Frequency [Hz] -->
     <g transform="translate(198.10375 472.02375) scale(0.24 -0.24)">
      <defs>
       <path id="DejaVuSans-46" d="M 628 4666 
L 3309 4666 
L 3309 4134 
L 1259 4134 
L 1259 2759 
L 3109 2759 
L 3109 2228 
L 1259 2228 
L 1259 0 
L 628 0 
L 628 4666 
z
" transform="scale(0.015625)"/>
       <path id="DejaVuSans-72" d="M 2631 2963 
Q 2534 3019 2420 3045 
Q 2306 3072 2169 3072 
Q 1681 3072 1420 2755 
Q 1159 2438 1159 1844 
L 1159 0 
L 581 0 
L 581 3500 
L 1159 3500 
L 1159 2956 
Q 1341 3275 1631 3429 
Q 1922 3584 2338 3584 
Q 2397 3584 2469 3576 
Q 2541 3569 2628 3553 
L 2631 2963 
z
" transform="scale(0.015625)"/>
       <path id="DejaVuSans-65" d="M 3597 1894 
L 3597 1613 
L 953 1613 
Q 991 1019 1311 708 
Q 1631 397 2203 397 
Q 2534 397 2845 478 
Q 3156 559 3463 722 
L 3463 178 
Q 3153 47 2828 -22 
Q 2503 -91 2169 -91 
Q 1331 -91 842 396 
Q 353 884 353 1716 
Q 353 2575 817 3079 
Q 1281 3584 2069 3584 
Q 2775 3584 3186 3129 
Q 3597 2675 3597 1894 
z
M 3022 2063 
Q 3016 2534 2758 2815 
Q 2500 3097 2075 3097 
Q 1594 3097 1305 2825 
Q 1016 2553 972 2059 
L 3022 2063 
z
" transform="scale(0.015625)"/>
       <path id="DejaVuSans-71" d="M 947 1747 
Q 947 1113 1208 752 
Q 1469 391 1925 391 
Q 2381 391 2643 752 
Q 2906 1113 2906 1747 
Q 2906 2381 2643 2742 
Q 2381 3103 1925 3103 
Q 1469 3103 1208 2742 
Q 947 2381 947 1747 
z
M 2906 525 
Q 2725 213 2448 61 
Q 2172 -91 1784 -91 
Q 1150 -91 751 415 
Q 353 922 353 1747 
Q 353 2572 751 3078 
Q 1150 3584 1784 3584 
Q 2172 3584 2448 3432 
Q 2725 3281 2906 2969 
L 2906 3500 
L 3481 3500 
L 3481 -1331 
L 2906 -1331 
L 2906 525 
z
" transform="scale(0.015625)"/>
       <path id="DejaVuSans-75" d="M 544 1381 
L 544 3500 
L 1119 3500 
L 1119 1403 
Q 1119 906 1312 657 
Q 1506 409 1894 409 
Q 2359 409 2629 706 
Q 2900 1003 2900 1516 
L 2900 3500 
L 3475 3500 
L 3475 0 
L 2900 0 
L 2900 538 
Q 2691 219 2414 64 
Q 2138 -91 1772 -91 
Q 1169 -91 856 284 
Q 544 659 544 1381 
z
M 1991 3584 
L 1991 3584 
z
" transform="scale(0.015625)"/>
       <path id="DejaVuSans-6e" d="M 3513 2113 
L 3513 0 
L 2938 0 
L 2938 2094 
Q 2938 2591 2744 2837 
Q 2550 3084 2163 3084 
Q 1697 3084 1428 2787 
Q 1159 2491 1159 1978 
L 1159 0 
L 581 0 
L 581 3500 
L 1159 3500 
L 1159 2956 
Q 1366 3272 1645 3428 
Q 1925 3584 2291 3584 
Q 2894 3584 3203 3211 
Q 3513 2838 3513 2113 
z
" transform="scale(0.015625)"/>
       <path id="DejaVuSans-63" d="M 3122 3366 
L 3122 2828 
Q 2878 2963 2633 3030 
Q 2388 3097 2138 3097 
Q 1578 3097 1268 2742 
Q 959 2388 959 1747 
Q 959 1106 1268 751 
Q 1578 397 2138 397 
Q 2388 397 2633 464 
Q 2878 531 3122 666 
L 3122 134 
Q 2881 22 2623 -34 
Q 2366 -91 2075 -91 
Q 1284 -91 818 406 
Q 353 903 353 1747 
Q 353 2603 823 3093 
Q 1294 3584 2113 3584 
Q 2378 3584 2631 3529 
Q 2884 3475 3122 3366 
z
" transform="scale(0.015625)"/>
       <path id="DejaVuSans-79" d="M 2059 -325 
Q 1816 -950 1584 -1140 
Q 1353 -1331 966 -1331 
L 506 -1331 
L 506 -850 
L 844 -850 
Q 1081 -850 1212 -737 
Q 1344 -625 1503 -206 
L 1606 56 
L 191 3500 
L 800 3500 
L 1894 763 
L 2988 3500 
L 3597 3500 
L 2059 -325 
z
" transform="scale(0.015625)"/>
       <path id="DejaVuSans-20" transform="scale(0.015625)"/>
       <path id="DejaVuSans-5b" d="M 550 4863 
L 1875 4863 
L 1875 4416 
L 1125 4416 
L 1125 -397 
L 1875 -397 
L 1875 -844 
L 550 -844 
L 550 4863 
z
" transform="scale(0.015625)"/>
       <path id="DejaVuSans-48" d="M 628 4666 
L 1259 4666 
L 1259 2753 
L 3553 2753 
L 3553 4666 
L 4184 4666 
L 4184 0 
L 3553 0 
L 3553 2222 
L 1259 2222 
L 1259 0 
L 628 0 
L 628 4666 
z
" transform="scale(0.015625)"/>
       <path id="DejaVuSans-7a" d="M 353 3500 
L 3084 3500 
L 3084 2975 
L 922 459 
L 3084 459 
L 3084 0 
L 275 0 
L 275 525 
L 2438 3041 
L 353 3041 
L 353 3500 
z
" transform="scale(0.015625)"/>
       <path id="DejaVuSans-5d" d="M 1947 4863 
L 1947 -844 
L 622 -844 
L 622 -397 
L 1369 -397 
L 1369 4416 
L 622 4416 
L 622 4863 
L 1947 4863 
z
" transform="scale(0.015625)"/>
      </defs>
      <use xlink:href="#DejaVuSans-46"/>
      <use xlink:href="#DejaVuSans-72" transform="translate(50.269531 0)"/>
      <use xlink:href="#DejaVuSans-65" transform="translate(89.132812 0)"/>
      <use xlink:href="#DejaVuSans-71" transform="translate(150.65625 0)"/>
      <use xlink:href="#DejaVuSans-75" transform="translate(214.132812 0)"/>
      <use xlink:href="#DejaVuSans-65" transform="translate(277.511719 0)"/>
      <use xlink:href="#DejaVuSans-6e" transform="translate(339.035156 0)"/>
      <use xlink:href="#DejaVuSans-63" transform="translate(402.414062 0)"/>
      <use xlink:href="#DejaVuSans-79" transform="translate(457.394531 0)"/>
      <use xlink:href="#DejaVuSans-20" transform="translate(516.574219 0)"/>
      <use xlink:href="#DejaVuSans-5b" transform="translate(548.361328 0)"/>
      <use xlink:href="#DejaVuSans-48" transform="translate(587.375 0)"/>
      <use xlink:href="#DejaVuSans-7a" transform="translate(662.570312 0)"/>
      <use xlink:href="#DejaVuSans-5d" transform="translate(715.060547 0)"/>
     </g>
    </g>
    <g id="text_5">
     <!-- 1e6 -->
     <g transform="translate(432.7725 471.02375) scale(0.24 -0.24)">
      <defs>
       <path id="DejaVuSans-31" d="M 794 531 
L 1825 531 
L 1825 4091 
L 703 3866 
L 703 4441 
L 1819 4666 
L 2450 4666 
L 2450 531 
L 3481 531 
L 3481 0 
L 794 0 
L 794 531 
z
" transform="scale(0.015625)"/>
       <path id="DejaVuSans-36" d="M 2113 2584 
Q 1688 2584 1439 2293 
Q 1191 2003 1191 1497 
Q 1191 994 1439 701 
Q 1688 409 2113 409 
Q 2538 409 2786 701 
Q 3034 994 3034 1497 
Q 3034 2003 2786 2293 
Q 2538 2584 2113 2584 
z
M 3366 4563 
L 3366 3988 
Q 3128 4100 2886 4159 
Q 2644 4219 2406 4219 
Q 1781 4219 1451 3797 
Q 1122 3375 1075 2522 
Q 1259 2794 1537 2939 
Q 1816 3084 2150 3084 
Q 2853 3084 3261 2657 
Q 3669 2231 3669 1497 
Q 3669 778 3244 343 
Q 2819 -91 2113 -91 
Q 1303 -91 875 529 
Q 447 1150 447 2328 
Q 447 3434 972 4092 
Q 1497 4750 2381 4750 
Q 2619 4750 2861 4703 
Q 3103 4656 3366 4563 
z
" transform="scale(0.015625)"/>
      </defs>
      <use xlink:href="#DejaVuSans-31"/>
      <use xlink:href="#DejaVuSans-65" transform="translate(63.623047 0)"/>
      <use xlink:href="#DejaVuSans-36" transform="translate(125.146484 0)"/>
     </g>
    </g>
   </g>
   <g id="matplotlib.axis_2">
    <g id="ytick_1">
     <g id="line2d_4">
      <defs>
       <path id="m0db596b951" d="M 0 0 
L -3.5 0 
" style="stroke: #000000; stroke-width: 0.8"/>
      </defs>
      <g>
       <use xlink:href="#m0db596b951" x="99.11" y="376.538631" style="stroke: #000000; stroke-width: 0.8"/>
      </g>
     </g>
     <g id="text_6">
      <!-- 0.2 -->
      <g transform="translate(53.9425 385.656756) scale(0.24 -0.24)">
       <defs>
        <path id="DejaVuSans-32" d="M 1228 531 
L 3431 531 
L 3431 0 
L 469 0 
L 469 531 
Q 828 903 1448 1529 
Q 2069 2156 2228 2338 
Q 2531 2678 2651 2914 
Q 2772 3150 2772 3378 
Q 2772 3750 2511 3984 
Q 2250 4219 1831 4219 
Q 1534 4219 1204 4116 
Q 875 4013 500 3803 
L 500 4441 
Q 881 4594 1212 4672 
Q 1544 4750 1819 4750 
Q 2544 4750 2975 4387 
Q 3406 4025 3406 3419 
Q 3406 3131 3298 2873 
Q 3191 2616 2906 2266 
Q 2828 2175 2409 1742 
Q 1991 1309 1228 531 
z
" transform="scale(0.015625)"/>
       </defs>
       <use xlink:href="#DejaVuSans-30"/>
       <use xlink:href="#DejaVuSans-2e" transform="translate(63.623047 0)"/>
       <use xlink:href="#DejaVuSans-32" transform="translate(95.410156 0)"/>
      </g>
     </g>
    </g>
    <g id="ytick_2">
     <g id="line2d_5">
      <g>
       <use xlink:href="#m0db596b951" x="99.11" y="300.956279" style="stroke: #000000; stroke-width: 0.8"/>
      </g>
     </g>
     <g id="text_7">
      <!-- 0.4 -->
      <g transform="translate(53.9425 310.074404) scale(0.24 -0.24)">
       <defs>
        <path id="DejaVuSans-34" d="M 2419 4116 
L 825 1625 
L 2419 1625 
L 2419 4116 
z
M 2253 4666 
L 3047 4666 
L 3047 1625 
L 3713 1625 
L 3713 1100 
L 3047 1100 
L 3047 0 
L 2419 0 
L 2419 1100 
L 313 1100 
L 313 1709 
L 2253 4666 
z
" transform="scale(0.015625)"/>
       </defs>
       <use xlink:href="#DejaVuSans-30"/>
       <use xlink:href="#DejaVuSans-2e" transform="translate(63.623047 0)"/>
       <use xlink:href="#DejaVuSans-34" transform="translate(95.410156 0)"/>
      </g>
     </g>
    </g>
    <g id="ytick_3">
     <g id="line2d_6">
      <g>
       <use xlink:href="#m0db596b951" x="99.11" y="225.373926" style="stroke: #000000; stroke-width: 0.8"/>
      </g>
     </g>
     <g id="text_8">
      <!-- 0.6 -->
      <g transform="translate(53.9425 234.492051) scale(0.24 -0.24)">
       <use xlink:href="#DejaVuSans-30"/>
       <use xlink:href="#DejaVuSans-2e" transform="translate(63.623047 0)"/>
       <use xlink:href="#DejaVuSans-36" transform="translate(95.410156 0)"/>
      </g>
     </g>
    </g>
    <g id="ytick_4">
     <g id="line2d_7">
      <g>
       <use xlink:href="#m0db596b951" x="99.11" y="149.791574" style="stroke: #000000; stroke-width: 0.8"/>
      </g>
     </g>
     <g id="text_9">
      <!-- 0.8 -->
      <g transform="translate(53.9425 158.909699) scale(0.24 -0.24)">
       <use xlink:href="#DejaVuSans-30"/>
       <use xlink:href="#DejaVuSans-2e" transform="translate(63.623047 0)"/>
       <use xlink:href="#DejaVuSans-38" transform="translate(95.410156 0)"/>
      </g>
     </g>
    </g>
    <g id="ytick_5">
     <g id="line2d_8">
      <g>
       <use xlink:href="#m0db596b951" x="99.11" y="74.209221" style="stroke: #000000; stroke-width: 0.8"/>
      </g>
     </g>
     <g id="text_10">
      <!-- 1.0 -->
      <g transform="translate(53.9425 83.327346) scale(0.24 -0.24)">
       <use xlink:href="#DejaVuSans-31"/>
       <use xlink:href="#DejaVuSans-2e" transform="translate(63.623047 0)"/>
       <use xlink:href="#DejaVuSans-30" transform="translate(95.410156 0)"/>
      </g>
     </g>
    </g>
    <g id="text_11">
     <!-- PSD [V²/Hz] -->
     <g transform="translate(44.95125 306.79625) rotate(-90) scale(0.24 -0.24)">
      <defs>
       <path id="DejaVuSans-50" d="M 1259 4147 
L 1259 2394 
L 2053 2394 
Q 2494 2394 2734 2622 
Q 2975 2850 2975 3272 
Q 2975 3691 2734 3919 
Q 2494 4147 2053 4147 
L 1259 4147 
z
M 628 4666 
L 2053 4666 
Q 2838 4666 3239 4311 
Q 3641 3956 3641 3272 
Q 3641 2581 3239 2228 
Q 2838 1875 2053 1875 
L 1259 1875 
L 1259 0 
L 628 0 
L 628 4666 
z
" transform="scale(0.015625)"/>
       <path id="DejaVuSans-53" d="M 3425 4513 
L 3425 3897 
Q 3066 4069 2747 4153 
Q 2428 4238 2131 4238 
Q 1616 4238 1336 4038 
Q 1056 3838 1056 3469 
Q 1056 3159 1242 3001 
Q 1428 2844 1947 2747 
L 2328 2669 
Q 3034 2534 3370 2195 
Q 3706 1856 3706 1288 
Q 3706 609 3251 259 
Q 2797 -91 1919 -91 
Q 1588 -91 1214 -16 
Q 841 59 441 206 
L 441 856 
Q 825 641 1194 531 
Q 1563 422 1919 422 
Q 2459 422 2753 634 
Q 3047 847 3047 1241 
Q 3047 1584 2836 1778 
Q 2625 1972 2144 2069 
L 1759 2144 
Q 1053 2284 737 2584 
Q 422 2884 422 3419 
Q 422 4038 858 4394 
Q 1294 4750 2059 4750 
Q 2388 4750 2728 4690 
Q 3069 4631 3425 4513 
z
" transform="scale(0.015625)"/>
       <path id="DejaVuSans-44" d="M 1259 4147 
L 1259 519 
L 2022 519 
Q 2988 519 3436 956 
Q 3884 1394 3884 2338 
Q 3884 3275 3436 3711 
Q 2988 4147 2022 4147 
L 1259 4147 
z
M 628 4666 
L 1925 4666 
Q 3281 4666 3915 4102 
Q 4550 3538 4550 2338 
Q 4550 1131 3912 565 
Q 3275 0 1925 0 
L 628 0 
L 628 4666 
z
" transform="scale(0.015625)"/>
       <path id="DejaVuSans-56" d="M 1831 0 
L 50 4666 
L 709 4666 
L 2188 738 
L 3669 4666 
L 4325 4666 
L 2547 0 
L 1831 0 
z
" transform="scale(0.015625)"/>
       <path id="DejaVuSans-b2" d="M 838 2444 
L 2163 2444 
L 2163 2088 
L 294 2088 
L 294 2431 
Q 400 2528 597 2703 
Q 1672 3656 1672 3950 
Q 1672 4156 1509 4282 
Q 1347 4409 1081 4409 
Q 919 4409 728 4354 
Q 538 4300 313 4191 
L 313 4575 
Q 553 4663 761 4706 
Q 969 4750 1147 4750 
Q 1600 4750 1872 4544 
Q 2144 4338 2144 4000 
Q 2144 3566 1109 2678 
Q 934 2528 838 2444 
z
" transform="scale(0.015625)"/>
       <path id="DejaVuSans-2f" d="M 1625 4666 
L 2156 4666 
L 531 -594 
L 0 -594 
L 1625 4666 
z
" transform="scale(0.015625)"/>
      </defs>
      <use xlink:href="#DejaVuSans-50"/>
      <use xlink:href="#DejaVuSans-53" transform="translate(60.302734 0)"/>
      <use xlink:href="#DejaVuSans-44" transform="translate(123.779297 0)"/>
      <use xlink:href="#DejaVuSans-20" transform="translate(200.78125 0)"/>
      <use xlink:href="#DejaVuSans-5b" transform="translate(232.568359 0)"/>
      <use xlink:href="#DejaVuSans-56" transform="translate(271.582031 0)"/>
      <use xlink:href="#DejaVuSans-b2" transform="translate(339.990234 0)"/>
      <use xlink:href="#DejaVuSans-2f" transform="translate(380.078125 0)"/>
      <use xlink:href="#DejaVuSans-48" transform="translate(413.769531 0)"/>
      <use xlink:href="#DejaVuSans-7a" transform="translate(488.964844 0)"/>
      <use xlink:href="#DejaVuSans-5d" transform="translate(541.455078 0)"/>
     </g>
    </g>
    <g id="text_12">
     <!-- 1e−13 -->
     <g transform="translate(99.11 51.72) scale(0.24 -0.24)">
      <defs>
       <path id="DejaVuSans-2212" d="M 678 2272 
L 4684 2272 
L 4684 1741 
L 678 1741 
L 678 2272 
z
" transform="scale(0.015625)"/>
       <path id="DejaVuSans-33" d="M 2597 2516 
Q 3050 2419 3304 2112 
Q 3559 1806 3559 1356 
Q 3559 666 3084 287 
Q 2609 -91 1734 -91 
Q 1441 -91 1130 -33 
Q 819 25 488 141 
L 488 750 
Q 750 597 1062 519 
Q 1375 441 1716 441 
Q 2309 441 2620 675 
Q 2931 909 2931 1356 
Q 2931 1769 2642 2001 
Q 2353 2234 1838 2234 
L 1294 2234 
L 1294 2753 
L 1863 2753 
Q 2328 2753 2575 2939 
Q 2822 3125 2822 3475 
Q 2822 3834 2567 4026 
Q 2313 4219 1838 4219 
Q 1578 4219 1281 4162 
Q 984 4106 628 3988 
L 628 4550 
Q 988 4650 1302 4700 
Q 1616 4750 1894 4750 
Q 2613 4750 3031 4423 
Q 3450 4097 3450 3541 
Q 3450 3153 3228 2886 
Q 3006 2619 2597 2516 
z
" transform="scale(0.015625)"/>
      </defs>
      <use xlink:href="#DejaVuSans-31"/>
      <use xlink:href="#DejaVuSans-65" transform="translate(63.623047 0)"/>
      <use xlink:href="#DejaVuSans-2212" transform="translate(125.146484 0)"/>
      <use xlink:href="#DejaVuSans-31" transform="translate(208.935547 0)"/>
      <use xlink:href="#DejaVuSans-33" transform="translate(272.558594 0)"/>
     </g>
    </g>
   </g>
   <g id="line2d_9">
    <path d="M 116.335909 370.393585 
L 117.237789 372.8676 
L 117.538416 375.217572 
L 117.839043 378.464451 
L 118.139669 378.478673 
L 118.440296 382.510843 
L 118.740923 377.356605 
L 119.041549 374.165761 
L 119.342176 379.040489 
L 119.642803 376.530283 
L 119.943429 380.105117 
L 120.244056 380.733369 
L 120.544683 381.057252 
L 120.845309 380.416516 
L 121.145936 378.39409 
L 121.446563 381.301953 
L 121.747189 378.402092 
L 122.047816 381.969695 
L 122.649069 376.487164 
L 122.949696 377.289098 
L 123.250323 379.400829 
L 123.851576 374.658227 
L 124.152203 374.154806 
L 124.45283 373.23252 
L 124.753456 374.703567 
L 125.054083 369.522467 
L 125.35471 368.526879 
L 125.655336 368.175668 
L 125.955963 369.057429 
L 126.25659 366.624867 
L 126.557216 369.119788 
L 126.857843 367.494184 
L 127.15847 367.734085 
L 127.459096 372.189689 
L 127.759723 370.594005 
L 128.06035 372.871305 
L 128.360977 369.434426 
L 128.661603 369.829506 
L 128.96223 365.814575 
L 129.262857 370.067481 
L 129.86411 363.236518 
L 132.870377 366.508075 
L 133.171003 372.402127 
L 133.47163 371.569791 
L 133.772257 372.332667 
L 134.072884 376.424918 
L 134.37351 376.584116 
L 134.674137 377.458797 
L 134.974764 374.72516 
L 135.27539 379.960086 
L 135.576017 379.731052 
L 135.876644 374.001378 
L 136.17727 376.774693 
L 136.477897 376.805616 
L 136.778524 374.876978 
L 137.07915 379.961338 
L 137.379777 379.5246 
L 137.680404 381.213926 
L 137.98103 376.054613 
L 138.281657 381.319978 
L 138.582284 375.726751 
L 138.882911 379.486985 
L 139.183537 379.10299 
L 139.484164 380.447128 
L 140.085417 373.744292 
L 140.386044 376.136222 
L 140.987297 371.202968 
L 141.889177 378.715765 
L 142.189804 372.135636 
L 142.490431 375.480734 
L 143.091684 372.880843 
L 143.392311 375.42689 
L 143.692937 374.233844 
L 143.993564 374.636121 
L 144.294191 372.72369 
L 144.594818 375.242481 
L 144.895444 371.274984 
L 145.196071 372.083683 
L 146.097951 365.897598 
L 146.398578 368.35326 
L 146.699204 367.039089 
L 150.006098 366.107659 
L 150.306725 370.658486 
L 150.607351 368.017129 
L 150.907978 373.221974 
L 151.208605 373.212805 
L 151.509231 375.785209 
L 151.809858 371.976527 
L 152.110485 373.99623 
L 152.411111 378.705569 
L 152.711738 373.213376 
L 153.012365 376.424347 
L 153.312991 375.941926 
L 153.613618 375.674162 
L 153.914245 373.001445 
L 154.816125 376.96592 
L 155.417378 372.767543 
L 155.718005 376.422644 
L 156.018632 374.268756 
L 156.319258 375.094484 
L 156.619885 374.912807 
L 156.920512 374.135075 
L 157.221138 372.773166 
L 157.521765 374.327741 
L 157.822392 373.755355 
L 158.123018 371.223188 
L 158.423645 370.30812 
L 158.724272 368.049032 
L 159.024898 367.135157 
L 159.325525 367.167516 
L 159.926779 372.265561 
L 160.227405 372.18194 
L 160.528032 367.764912 
L 160.828659 369.739786 
L 161.429912 371.899883 
L 161.730539 369.72688 
L 162.031165 369.690444 
L 162.632419 366.423721 
L 162.933045 367.905159 
L 163.233672 362.365937 
L 163.534299 363.473071 
L 163.834925 365.422282 
L 166.841192 363.419147 
L 167.141819 364.893637 
L 167.743072 365.360105 
L 168.043699 366.067988 
L 168.344326 370.998336 
L 168.644952 371.724733 
L 168.945579 370.450433 
L 169.546832 376.509564 
L 169.847459 373.355754 
L 170.448713 379.714324 
L 170.749339 373.795336 
L 171.049966 372.519404 
L 171.350593 374.970612 
L 171.651219 373.574776 
L 171.951846 373.245499 
L 172.252473 370.254616 
L 172.553099 374.914542 
L 172.853726 370.966644 
L 173.154353 375.539387 
L 173.454979 372.861213 
L 173.755606 373.880924 
L 174.056233 370.371011 
L 174.356859 371.70994 
L 174.657486 370.396225 
L 174.958113 369.751962 
L 175.258739 369.918156 
L 175.559366 376.209477 
L 175.859993 373.151719 
L 176.16062 371.313732 
L 176.461246 372.518218 
L 176.761873 367.390727 
L 177.0625 367.398483 
L 177.663753 373.327379 
L 177.96438 370.212938 
L 178.265006 368.669402 
L 178.565633 370.163115 
L 179.166886 367.201572 
L 179.467513 369.419492 
L 179.76814 370.616037 
L 180.068766 369.833992 
L 180.369393 373.436534 
L 180.970647 361.424118 
L 181.271273 364.112779 
L 183.976913 361.245699 
L 184.27754 365.96363 
L 184.578167 363.616356 
L 184.878793 363.415822 
L 185.17942 364.307475 
L 185.480047 370.908066 
L 185.780673 366.867231 
L 186.0813 368.550238 
L 186.381927 367.462364 
L 186.682554 370.673617 
L 186.98318 368.090234 
L 187.283807 373.496254 
L 187.584434 368.932264 
L 187.88506 371.257095 
L 188.185687 368.425432 
L 188.486314 375.151585 
L 188.78694 369.546145 
L 189.087567 374.667461 
L 189.388194 371.459274 
L 189.68882 365.567262 
L 189.989447 371.648871 
L 190.290074 366.320081 
L 190.5907 372.089583 
L 190.891327 367.689832 
L 191.191954 367.721742 
L 191.492581 370.608322 
L 192.093834 362.491137 
L 192.394461 368.765803 
L 192.695087 365.260186 
L 192.995714 366.435514 
L 193.296341 370.07198 
L 193.596967 368.280889 
L 193.897594 362.570602 
L 194.198221 366.471088 
L 194.498847 367.871592 
L 194.799474 364.847785 
L 195.100101 366.167208 
L 195.400727 369.739014 
L 195.701354 362.993031 
L 196.001981 362.026212 
L 196.302607 365.246442 
L 196.903861 358.109745 
L 197.204488 360.849056 
L 197.505114 359.052914 
L 197.805741 359.692831 
L 198.106368 359.183129 
L 198.406994 359.939117 
L 198.707621 356.63496 
L 200.812008 357.367765 
L 201.112634 357.808742 
L 201.413261 360.280368 
L 201.713888 356.754596 
L 202.014515 361.662575 
L 202.315141 362.790599 
L 202.615768 363.294411 
L 202.916395 362.683963 
L 203.217021 363.292737 
L 203.517648 364.540276 
L 203.818275 359.590351 
L 204.419528 363.533987 
L 204.720155 359.771366 
L 205.020781 361.953769 
L 205.622035 358.055814 
L 205.922661 365.714291 
L 206.223288 364.880595 
L 206.523915 361.84916 
L 207.125168 365.888959 
L 207.425795 366.465307 
L 207.726422 361.678991 
L 208.027048 364.604307 
L 208.327675 360.977066 
L 208.628302 364.168969 
L 209.530182 359.375941 
L 209.830808 360.491911 
L 210.131435 358.693084 
L 210.432062 359.234903 
L 210.732688 355.770414 
L 211.033315 356.081185 
L 211.333942 360.183492 
L 211.935195 356.165216 
L 212.235822 350.980839 
L 212.536449 355.689077 
L 213.137702 350.148719 
L 213.438329 351.110748 
L 214.039582 347.466994 
L 215.242089 346.933045 
L 216.745222 348.175814 
L 217.346475 348.18801 
L 217.647102 349.687836 
L 217.947729 356.223644 
L 218.248356 357.030477 
L 218.548982 352.757862 
L 219.150236 349.948273 
L 219.450862 351.033166 
L 219.751489 356.19908 
L 220.052116 352.438207 
L 220.352742 357.81412 
L 220.653369 352.411288 
L 220.953996 356.218822 
L 221.254622 357.176285 
L 221.555249 358.776143 
L 221.855876 357.918143 
L 222.156502 353.796686 
L 222.457129 356.869262 
L 222.757756 355.969297 
L 223.359009 351.541118 
L 223.960263 354.291789 
L 224.260889 354.16308 
L 224.561516 355.073708 
L 224.862143 355.266194 
L 225.162769 353.243123 
L 225.463396 353.061577 
L 225.764023 350.114814 
L 226.064649 350.009083 
L 226.365276 353.553225 
L 226.665903 351.015553 
L 226.966529 349.808409 
L 227.267156 351.532374 
L 227.567783 349.016035 
L 227.868409 349.835502 
L 228.169036 348.508429 
L 228.469663 346.590962 
L 228.77029 349.429342 
L 229.070916 344.685743 
L 229.371543 345.07376 
L 229.67217 344.385408 
L 230.57405 339.516721 
L 234.18157 339.485773 
L 234.482197 340.673124 
L 234.782823 343.454366 
L 235.08345 341.995248 
L 235.384077 341.158782 
L 235.684703 343.806768 
L 235.98533 342.832961 
L 236.285957 342.32711 
L 236.586583 342.198199 
L 236.88721 341.476806 
L 237.78909 340.535283 
L 238.089717 345.31225 
L 238.390343 339.412485 
L 238.69097 343.984689 
L 239.292224 336.587628 
L 239.59285 336.353788 
L 239.893477 339.140972 
L 240.194104 339.420694 
L 240.795357 336.323399 
L 241.095984 334.268754 
L 241.39661 335.078677 
L 241.697237 333.763836 
L 241.997864 335.093259 
L 242.29849 333.247984 
L 242.599117 334.895356 
L 242.899744 334.538565 
L 243.20037 331.64698 
L 243.500997 333.771853 
L 243.801624 329.284886 
L 244.102251 329.848695 
L 244.402877 329.57596 
L 244.703504 326.249732 
L 245.004131 327.495067 
L 245.304757 329.370588 
L 245.906011 324.162098 
L 246.206637 320.09695 
L 246.507264 323.645709 
L 246.807891 322.8962 
L 247.108517 323.385764 
L 247.409144 317.121165 
L 250.114784 310.865106 
L 250.716038 311.424014 
L 251.016664 317.17341 
L 251.317291 316.049197 
L 251.617918 315.992423 
L 251.918544 311.363073 
L 252.219171 310.449093 
L 252.519798 314.353155 
L 252.820424 311.902637 
L 253.121051 315.581698 
L 253.421678 311.552571 
L 253.722304 314.630587 
L 254.022931 312.109081 
L 254.323558 311.21138 
L 254.624185 308.866765 
L 254.924811 309.625992 
L 255.526065 303.633222 
L 255.826691 306.742586 
L 256.127318 308.405034 
L 256.427945 305.792091 
L 256.728571 305.728108 
L 257.029198 304.405121 
L 257.329825 300.137805 
L 257.630451 300.220317 
L 257.931078 298.789151 
L 258.532331 300.257488 
L 258.832958 301.203404 
L 259.434211 296.021209 
L 259.734838 296.933297 
L 260.035465 294.543707 
L 260.336092 293.916177 
L 260.636718 290.761771 
L 261.237972 291.450145 
L 261.538598 291.607214 
L 261.839225 285.195721 
L 262.139852 288.73893 
L 262.440478 290.351006 
L 262.741105 285.393696 
L 263.041732 286.102042 
L 263.342358 278.546655 
L 263.642985 285.635422 
L 263.943612 277.889845 
L 264.244238 273.970284 
L 264.544865 275.373715 
L 265.146119 267.735563 
L 265.446745 267.204703 
L 265.747372 260.262893 
L 266.949879 256.054653 
L 267.551132 258.835031 
L 267.851759 256.132332 
L 268.152385 262.938997 
L 268.453012 256.106434 
L 268.753639 254.185403 
L 269.054265 242.781601 
L 269.655519 242.663055 
L 270.557399 240.365274 
L 270.858026 240.851247 
L 271.158652 245.857034 
L 271.459279 248.572362 
L 271.759906 246.427663 
L 272.060532 240.848147 
L 272.661786 236.848917 
L 272.962412 239.965828 
L 273.263039 238.227443 
L 273.563666 232.347245 
L 273.864292 233.490545 
L 274.164919 228.88617 
L 274.465546 228.115841 
L 274.766172 226.561871 
L 275.066799 226.226735 
L 275.367426 223.082937 
L 275.668053 217.667266 
L 275.968679 216.209046 
L 276.269306 222.986928 
L 276.569933 211.161824 
L 276.870559 208.884743 
L 277.171186 211.063463 
L 277.471813 209.202219 
L 278.073066 204.039774 
L 278.674319 202.080041 
L 279.275573 190.901055 
L 279.576199 192.288158 
L 280.177453 185.038708 
L 280.478079 188.311691 
L 280.778706 183.990485 
L 281.079333 182.537421 
L 281.37996 176.809734 
L 281.680586 173.976421 
L 282.582466 162.767598 
L 282.883093 157.334422 
L 283.784973 148.887385 
L 284.386226 146.737241 
L 284.686853 151.058611 
L 284.98748 149.751312 
L 285.288106 145.084702 
L 285.588733 147.657437 
L 285.88936 142.714515 
L 286.189987 134.482508 
L 286.490613 139.300395 
L 286.79124 136.527228 
L 287.091867 135.074522 
L 287.392493 131.195084 
L 287.993747 118.338033 
L 288.294373 125.727337 
L 288.595 117.191283 
L 288.895627 117.639845 
L 289.196253 112.307131 
L 289.49688 109.813686 
L 289.797507 111.010754 
L 290.098133 102.991163 
L 290.39876 105.36479 
L 290.699387 102.483262 
L 291.000013 105.665872 
L 291.601267 97.247151 
L 291.901894 90.135701 
L 292.20252 90.746329 
L 292.503147 89.385185 
L 292.803774 94.479895 
L 293.1044 85.28706 
L 293.405027 93.937289 
L 293.705654 86.799917 
L 294.00628 85.29295 
L 294.306907 85.990573 
L 294.607534 82.280545 
L 295.208787 78.638031 
L 295.509414 84.27885 
L 295.81004 78.176559 
L 296.110667 75.921292 
L 296.411294 77.566831 
L 296.711921 80.017048 
L 297.012547 71.838871 
L 297.313174 71.303636 
L 297.914427 76.660621 
L 298.215054 77.100244 
L 298.515681 73.355214 
L 298.816307 81.742293 
L 301.221321 81.139781 
L 301.521947 86.141325 
L 302.123201 88.162771 
L 302.423828 92.336213 
L 302.724454 90.730745 
L 303.025081 98.618911 
L 303.325708 95.105641 
L 303.626334 103.258025 
L 303.926961 101.291144 
L 304.828841 110.564203 
L 305.129468 117.192519 
L 305.430094 120.215867 
L 305.730721 116.836129 
L 306.031348 119.24567 
L 306.331974 126.726773 
L 306.632601 122.995726 
L 306.933228 135.234337 
L 307.233855 137.012118 
L 307.534481 142.892422 
L 307.835108 144.992384 
L 308.135735 142.200092 
L 308.436361 142.982387 
L 308.736988 153.483404 
L 309.037615 149.480312 
L 309.338241 159.684945 
L 309.638868 159.671213 
L 309.939495 165.950116 
L 310.240121 168.587041 
L 310.841375 177.072714 
L 311.142001 175.801191 
L 311.442628 179.801736 
L 311.743255 191.801139 
L 312.043881 188.839769 
L 312.344508 188.297022 
L 312.645135 195.54152 
L 312.945762 197.501608 
L 313.246388 205.578295 
L 313.547015 204.596925 
L 313.847642 207.649499 
L 314.148268 215.097986 
L 314.448895 214.532299 
L 314.749522 217.400579 
L 315.050148 224.699913 
L 315.350775 223.576746 
L 315.651402 224.82018 
L 315.952028 230.540256 
L 316.252655 229.076889 
L 316.553282 237.308983 
L 316.853908 239.92093 
L 317.154535 245.376436 
L 317.455162 243.625402 
L 318.056415 250.432548 
L 318.357042 249.076134 
L 318.958295 262.359555 
L 319.258922 257.96392 
L 319.559549 263.078692 
L 319.860175 271.893215 
L 320.160802 267.3531 
L 320.762055 278.37597 
L 321.062682 277.170093 
L 321.363309 285.010369 
L 321.663935 281.577233 
L 322.265189 286.308892 
L 322.565815 288.352977 
L 322.866442 296.435956 
L 323.167069 296.320479 
L 323.467696 296.993621 
L 323.768322 298.780779 
L 324.068949 298.218413 
L 324.369576 298.944007 
L 324.670202 302.947332 
L 324.970829 300.227783 
L 325.271456 302.609766 
L 325.572082 306.453543 
L 325.872709 313.375974 
L 326.173336 311.998871 
L 326.473962 315.839611 
L 326.774589 316.200438 
L 327.075216 316.186445 
L 327.375842 310.982078 
L 327.676469 318.521621 
L 327.977096 322.315138 
L 328.277723 322.879127 
L 328.578349 323.041128 
L 328.878976 327.412834 
L 329.179603 327.323433 
L 329.480229 332.779472 
L 329.780856 330.546128 
L 330.081483 329.366526 
L 330.983363 337.062738 
L 331.283989 335.739605 
L 331.584616 335.304135 
L 331.885243 335.685936 
L 332.185869 332.350252 
L 335.192136 344.950526 
L 335.492763 350.370386 
L 335.79339 350.552415 
L 336.094016 352.033236 
L 336.394643 352.49158 
L 336.69527 353.527148 
L 337.296523 354.22954 
L 337.59715 358.335707 
L 337.897776 358.497321 
L 338.198403 361.410984 
L 338.49903 359.695976 
L 339.100283 364.077101 
L 339.40091 363.870274 
L 339.701537 364.203387 
L 340.002163 363.296082 
L 340.30279 363.44736 
L 340.603417 364.445274 
L 340.904043 367.54747 
L 341.20467 365.410844 
L 341.505297 369.731887 
L 341.805923 367.663151 
L 342.10655 372.159045 
L 342.407177 367.971936 
L 342.707803 370.518672 
L 343.309057 372.855313 
L 343.609683 373.459229 
L 343.91031 371.412368 
L 344.210937 371.429587 
L 344.81219 375.669963 
L 345.413444 370.045019 
L 346.014697 377.519063 
L 346.315324 371.777251 
L 346.61595 370.771099 
L 347.217204 372.876413 
L 347.51783 372.798922 
L 347.818457 369.901987 
L 348.41971 373.631477 
L 348.720337 367.121243 
L 351.726604 370.98864 
L 352.327857 370.359601 
L 352.628484 374.007211 
L 352.929111 374.90973 
L 353.229737 372.111151 
L 353.530364 374.320396 
L 354.432244 379.098782 
L 354.732871 383.223501 
L 355.033498 383.147563 
L 355.334124 385.320814 
L 355.634751 381.345871 
L 356.236004 386.990285 
L 356.536631 383.894893 
L 356.837258 385.818541 
L 357.137884 384.707888 
L 357.438511 386.010084 
L 358.039764 386.842904 
L 358.340391 383.920822 
L 358.641018 386.459489 
L 358.941644 386.431462 
L 359.242271 384.961907 
L 359.542898 385.394312 
L 359.843525 387.895473 
L 360.144151 387.926729 
L 360.444778 386.577278 
L 360.745405 386.138917 
L 361.046031 388.766067 
L 361.647285 389.037565 
L 361.947911 390.981628 
L 362.248538 390.604872 
L 362.549165 390.957782 
L 362.849791 389.585178 
L 363.150418 391.829833 
L 363.451045 391.987723 
L 364.052298 391.390871 
L 364.352925 389.405268 
L 364.653551 390.085814 
L 364.954178 388.122675 
L 365.254805 387.612585 
L 365.555432 385.489168 
L 368.862325 385.740138 
L 369.463578 389.743363 
L 369.764205 390.841152 
L 370.064832 389.957982 
L 370.365459 395.974682 
L 370.666085 392.882234 
L 370.966712 392.847047 
L 371.267339 395.575291 
L 371.567965 394.569333 
L 371.868592 394.322956 
L 372.169219 389.062295 
L 372.469845 388.15157 
L 372.770472 396.269399 
L 373.371725 391.485081 
L 373.672352 392.368954 
L 373.972979 390.726389 
L 375.175485 391.150319 
L 375.476112 392.774703 
L 375.776739 392.213552 
L 376.077366 394.030934 
L 376.377992 392.021778 
L 376.678619 392.186525 
L 376.979246 393.985029 
L 377.279872 394.655576 
L 377.580499 398.861883 
L 377.881126 395.96289 
L 378.181752 396.744179 
L 378.482379 395.446456 
L 378.783006 396.992894 
L 379.083632 397.460485 
L 379.384259 396.332951 
L 379.684886 394.481772 
L 379.985512 393.574733 
L 380.286139 399.149339 
L 380.586766 396.517128 
L 380.887393 396.880531 
L 381.188019 399.774413 
L 381.488646 394.27989 
L 381.789273 392.962459 
L 382.089899 392.218512 
L 382.390526 388.733873 
L 382.691153 387.043846 
L 385.998046 387.645626 
L 386.298673 393.906702 
L 386.5993 389.954801 
L 386.899926 393.32985 
L 387.200553 392.173015 
L 387.50118 395.630744 
L 387.801806 391.990049 
L 388.102433 392.428887 
L 388.40306 396.332432 
L 388.703686 396.494019 
L 389.004313 402.881367 
L 389.605566 388.391364 
L 389.906193 394.361022 
L 390.20682 394.795551 
L 391.1087 391.770412 
L 392.01058 391.434401 
L 392.311207 394.557814 
L 392.611833 391.419965 
L 392.91246 395.668624 
L 393.213087 393.96184 
L 393.513713 399.584259 
L 394.114967 394.698472 
L 394.415593 398.954124 
L 394.71622 399.984041 
L 395.016847 398.405964 
L 395.317473 401.45323 
L 395.6181 399.001224 
L 395.918727 402.976364 
L 396.219353 399.335096 
L 396.51998 397.269842 
L 396.820607 401.028511 
L 397.121234 398.665219 
L 397.722487 396.673989 
L 398.023114 391.915002 
L 398.924994 387.234137 
L 400.728754 385.068585 
L 401.931261 384.05385 
L 402.833141 385.483416 
L 403.133767 388.202539 
L 403.434394 392.016814 
L 403.735021 390.676734 
L 404.035647 396.060546 
L 404.336274 396.041049 
L 404.636901 394.418562 
L 404.937527 397.747968 
L 405.238154 395.107579 
L 405.538781 397.238209 
L 405.839407 391.294447 
L 406.140034 393.186102 
L 406.440661 397.326009 
L 406.741287 398.831086 
L 407.041914 393.475033 
L 407.342541 393.419807 
L 407.643168 391.744599 
L 409.446928 392.420019 
L 409.747554 391.007162 
L 410.048181 394.891942 
L 410.348808 392.656189 
L 410.649434 397.111276 
L 410.950061 394.431091 
L 412.152568 393.950691 
L 412.453195 393.168612 
L 412.753821 393.003131 
L 413.054448 398.11219 
L 413.355075 398.116389 
L 413.655701 397.646558 
L 413.956328 399.659031 
L 414.256955 402.841776 
L 414.557581 396.888425 
L 414.858208 400.303268 
L 415.158835 398.36677 
L 415.760088 397.129481 
L 416.060715 397.439281 
L 416.361341 395.564866 
L 416.661968 394.393279 
L 416.962595 395.186894 
L 417.864475 392.792186 
L 418.465728 394.453658 
L 419.066982 394.91011 
L 419.367608 397.479067 
L 419.668235 394.976819 
L 419.968862 396.825222 
L 420.269488 394.282359 
L 420.570115 398.618028 
L 421.171368 395.365349 
L 421.772622 401.145771 
L 422.373875 395.86465 
L 422.674502 399.488187 
L 422.975129 396.289859 
L 423.275755 396.396812 
L 423.576382 391.916063 
L 423.877009 395.749504 
L 424.177635 391.761686 
L 427.183902 394.664097 
L 427.484529 397.692967 
L 427.785155 396.754186 
L 428.085782 398.006464 
L 428.386409 401.552254 
L 428.987662 395.463053 
L 429.288289 397.917701 
L 429.588916 396.835845 
L 429.889542 397.261316 
L 430.190169 398.586106 
L 430.490796 397.594257 
L 430.791422 399.611879 
L 431.092049 402.474871 
L 431.392676 399.903703 
L 431.693302 399.152498 
L 431.993929 397.32514 
L 433.196436 392.763906 
L 435.000196 393.816254 
L 435.300823 392.774446 
L 435.902076 397.590503 
L 436.503329 394.94274 
L 436.803956 396.226663 
L 437.104583 396.743496 
L 437.405209 397.695394 
L 437.705836 399.994972 
L 438.006463 395.358519 
L 438.307089 400.290875 
L 438.607716 399.107978 
L 438.908343 396.646056 
L 439.20897 395.599511 
L 439.509596 398.069146 
L 439.810223 397.721921 
L 440.11085 396.732881 
L 441.01273 398.122354 
L 441.313356 393.68841 
L 444.319623 396.21347 
L 444.62025 393.403889 
L 444.920877 396.191218 
L 445.221503 395.84982 
L 445.52213 397.907025 
L 446.123383 395.447671 
L 446.42401 395.15191 
L 446.724637 396.162859 
L 447.025263 399.144728 
L 447.626517 393.041797 
L 447.927143 398.153376 
L 448.22777 394.898217 
L 448.829023 395.421095 
L 449.12965 397.001762 
L 449.430277 392.633364 
L 450.03153 390.688344 
L 451.234037 391.108829 
L 451.534664 390.840438 
L 451.83529 392.418517 
L 452.436544 392.434092 
L 452.73717 395.152439 
L 453.037797 395.891916 
L 453.338424 399.676224 
L 453.939677 392.490037 
L 454.240304 394.332124 
L 454.540931 397.831999 
L 454.841557 395.392269 
L 455.142184 402.013207 
L 455.743437 393.846025 
L 456.044064 394.471454 
L 456.344691 396.536622 
L 456.645317 397.563307 
L 456.945944 393.225507 
L 457.547197 394.1921 
L 458.148451 394.544189 
L 458.749704 393.916233 
L 459.050331 389.961049 
L 459.350957 390.831768 
L 459.651584 389.549728 
L 459.952211 390.04679 
L 460.252838 387.526872 
L 460.854091 395.174102 
L 460.854091 395.174102 
" clip-path="url(#p34ea259941)" style="fill: none; stroke: #ef1340; stroke-width: 2.5; stroke-linecap: square"/>
   </g>
   <g id="line2d_10">
    <path d="M 116.335909 376.929943 
L 129.563483 375.631032 
L 141.287924 374.259627 
L 151.509231 372.848708 
L 160.828659 371.341754 
L 169.246206 369.754923 
L 176.761873 368.114092 
L 183.676287 366.375525 
L 189.989447 364.554891 
L 195.701354 362.675903 
L 200.812008 360.77136 
L 205.622035 358.750022 
L 210.131435 356.617093 
L 214.340209 354.381986 
L 218.248356 352.059121 
L 221.855876 349.668658 
L 225.463396 347.003425 
L 228.77029 344.2806 
L 231.776556 341.53731 
L 234.782823 338.500587 
L 237.78909 335.126539 
L 240.49473 331.758604 
L 243.20037 328.030494 
L 245.906011 323.889529 
L 248.311024 319.812177 
L 250.716038 315.308904 
L 253.121051 310.320771 
L 255.526065 304.779501 
L 257.931078 298.606128 
L 260.035465 292.614678 
L 262.139852 286.000564 
L 264.244238 278.686422 
L 266.348625 270.586826 
L 268.453012 261.609119 
L 270.557399 251.655574 
L 272.661786 240.627656 
L 274.766172 228.433574 
L 276.870559 215.000737 
L 279.275573 198.091403 
L 281.680586 179.584016 
L 284.686853 154.623972 
L 290.39876 106.65572 
L 292.20252 93.714414 
L 293.405027 86.404597 
L 294.607534 80.467818 
L 295.509414 77.075224 
L 296.110667 75.375097 
L 296.711921 74.155397 
L 297.313174 73.438929 
L 297.613801 73.275422 
L 297.914427 73.244379 
L 298.215054 73.347407 
L 298.816307 73.960501 
L 299.417561 75.121009 
L 300.018814 76.829723 
L 300.920694 80.408535 
L 301.822574 85.168657 
L 302.724454 91.043311 
L 303.926961 100.450297 
L 305.430094 114.354804 
L 307.233855 133.383202 
L 310.240121 167.996328 
L 314.148268 212.491365 
L 316.553282 237.297961 
L 318.657669 256.796246 
L 320.762055 274.13491 
L 322.565815 287.325792 
L 324.369576 299.072949 
L 326.173336 309.495808 
L 327.977096 318.722898 
L 329.780856 326.882104 
L 331.584616 334.09488 
L 333.388376 340.47316 
L 335.192136 346.118062 
L 336.995896 351.119682 
L 338.799657 355.557542 
L 340.904043 360.115061 
L 343.00843 364.095491 
L 345.112817 367.580251 
L 347.217204 370.638503 
L 349.321591 373.32897 
L 351.726604 376.017085 
L 354.131617 378.352418 
L 356.536631 380.387176 
L 359.242271 382.371004 
L 361.947911 384.080904 
L 364.954178 385.710794 
L 368.261072 387.229783 
L 371.868592 388.617223 
L 375.776739 389.861591 
L 379.985512 390.958982 
L 384.795539 391.967955 
L 390.20682 392.858584 
L 396.219353 393.615576 
L 403.133767 394.259356 
L 411.250688 394.789691 
L 421.171368 395.207014 
L 433.497063 395.492252 
L 449.430277 395.628494 
L 460.854091 395.629678 
L 460.854091 395.629678 
" clip-path="url(#p34ea259941)" style="fill: none; stroke: #1d3087; stroke-width: 2; stroke-linecap: square"/>
   </g>
   <g id="patch_3">
    <path d="M 99.11 419.56 
L 99.11 54.72 
" style="fill: none; stroke: #000000; stroke-width: 0.8; stroke-linejoin: miter; stroke-linecap: square"/>
   </g>
   <g id="patch_4">
    <path d="M 478.08 419.56 
L 478.08 54.72 
" style="fill: none; stroke: #000000; stroke-width: 0.8; stroke-linejoin: miter; stroke-linecap: square"/>
   </g>
   <g id="patch_5">
    <path d="M 99.11 419.56 
L 478.08 419.56 
" style="fill: none; stroke: #000000; stroke-width: 0.8; stroke-linejoin: miter; stroke-linecap: square"/>
   </g>
   <g id="patch_6">
    <path d="M 99.11 54.72 
L 478.08 54.72 
" style="fill: none; stroke: #000000; stroke-width: 0.8; stroke-linejoin: miter; stroke-linecap: square"/>
   </g>
   <g id="text_13">
    <!-- T=95.6 mK -->
    <g transform="translate(207.62425 48.72) scale(0.288 -0.288)">
     <defs>
      <path id="DejaVuSans-54" d="M -19 4666 
L 3928 4666 
L 3928 4134 
L 2272 4134 
L 2272 0 
L 1638 0 
L 1638 4134 
L -19 4134 
L -19 4666 
z
" transform="scale(0.015625)"/>
      <path id="DejaVuSans-3d" d="M 678 2906 
L 4684 2906 
L 4684 2381 
L 678 2381 
L 678 2906 
z
M 678 1631 
L 4684 1631 
L 4684 1100 
L 678 1100 
L 678 1631 
z
" transform="scale(0.015625)"/>
      <path id="DejaVuSans-39" d="M 703 97 
L 703 672 
Q 941 559 1184 500 
Q 1428 441 1663 441 
Q 2288 441 2617 861 
Q 2947 1281 2994 2138 
Q 2813 1869 2534 1725 
Q 2256 1581 1919 1581 
Q 1219 1581 811 2004 
Q 403 2428 403 3163 
Q 403 3881 828 4315 
Q 1253 4750 1959 4750 
Q 2769 4750 3195 4129 
Q 3622 3509 3622 2328 
Q 3622 1225 3098 567 
Q 2575 -91 1691 -91 
Q 1453 -91 1209 -44 
Q 966 3 703 97 
z
M 1959 2075 
Q 2384 2075 2632 2365 
Q 2881 2656 2881 3163 
Q 2881 3666 2632 3958 
Q 2384 4250 1959 4250 
Q 1534 4250 1286 3958 
Q 1038 3666 1038 3163 
Q 1038 2656 1286 2365 
Q 1534 2075 1959 2075 
z
" transform="scale(0.015625)"/>
      <path id="DejaVuSans-6d" d="M 3328 2828 
Q 3544 3216 3844 3400 
Q 4144 3584 4550 3584 
Q 5097 3584 5394 3201 
Q 5691 2819 5691 2113 
L 5691 0 
L 5113 0 
L 5113 2094 
Q 5113 2597 4934 2840 
Q 4756 3084 4391 3084 
Q 3944 3084 3684 2787 
Q 3425 2491 3425 1978 
L 3425 0 
L 2847 0 
L 2847 2094 
Q 2847 2600 2669 2842 
Q 2491 3084 2119 3084 
Q 1678 3084 1418 2786 
Q 1159 2488 1159 1978 
L 1159 0 
L 581 0 
L 581 3500 
L 1159 3500 
L 1159 2956 
Q 1356 3278 1631 3431 
Q 1906 3584 2284 3584 
Q 2666 3584 2933 3390 
Q 3200 3197 3328 2828 
z
" transform="scale(0.015625)"/>
      <path id="DejaVuSans-4b" d="M 628 4666 
L 1259 4666 
L 1259 2694 
L 3353 4666 
L 4166 4666 
L 1850 2491 
L 4331 0 
L 3500 0 
L 1259 2247 
L 1259 0 
L 628 0 
L 628 4666 
z
" transform="scale(0.015625)"/>
     </defs>
     <use xlink:href="#DejaVuSans-54"/>
     <use xlink:href="#DejaVuSans-3d" transform="translate(61.083984 0)"/>
     <use xlink:href="#DejaVuSans-39" transform="translate(144.873047 0)"/>
     <use xlink:href="#DejaVuSans-35" transform="translate(208.496094 0)"/>
     <use xlink:href="#DejaVuSans-2e" transform="translate(272.119141 0)"/>
     <use xlink:href="#DejaVuSans-36" transform="translate(303.90625 0)"/>
     <use xlink:href="#DejaVuSans-20" transform="translate(367.529297 0)"/>
     <use xlink:href="#DejaVuSans-6d" transform="translate(399.316406 0)"/>
     <use xlink:href="#DejaVuSans-4b" transform="translate(496.728516 0)"/>
    </g>
   </g>
   <g id="legend_1">
    <g id="patch_7">
     <path d="M 327.17625 144.375 
L 461.28 144.375 
Q 466.08 144.375 466.08 139.575 
L 466.08 71.52 
Q 466.08 66.72 461.28 66.72 
L 327.17625 66.72 
Q 322.37625 66.72 322.37625 71.52 
L 322.37625 139.575 
Q 322.37625 144.375 327.17625 144.375 
z
" style="fill: #ffffff; opacity: 0.8; stroke: #cccccc; stroke-linejoin: miter"/>
    </g>
    <g id="line2d_11">
     <path d="M 331.97625 86.15625 
L 355.97625 86.15625 
L 379.97625 86.15625 
" style="fill: none; stroke: #ef1340; stroke-width: 2.5; stroke-linecap: square"/>
    </g>
    <g id="text_14">
     <!-- Data -->
     <g transform="translate(399.17625 94.55625) scale(0.24 -0.24)">
      <defs>
       <path id="DejaVuSans-61" d="M 2194 1759 
Q 1497 1759 1228 1600 
Q 959 1441 959 1056 
Q 959 750 1161 570 
Q 1363 391 1709 391 
Q 2188 391 2477 730 
Q 2766 1069 2766 1631 
L 2766 1759 
L 2194 1759 
z
M 3341 1997 
L 3341 0 
L 2766 0 
L 2766 531 
Q 2569 213 2275 61 
Q 1981 -91 1556 -91 
Q 1019 -91 701 211 
Q 384 513 384 1019 
Q 384 1609 779 1909 
Q 1175 2209 1959 2209 
L 2766 2209 
L 2766 2266 
Q 2766 2663 2505 2880 
Q 2244 3097 1772 3097 
Q 1472 3097 1187 3025 
Q 903 2953 641 2809 
L 641 3341 
Q 956 3463 1253 3523 
Q 1550 3584 1831 3584 
Q 2591 3584 2966 3190 
Q 3341 2797 3341 1997 
z
" transform="scale(0.015625)"/>
       <path id="DejaVuSans-74" d="M 1172 4494 
L 1172 3500 
L 2356 3500 
L 2356 3053 
L 1172 3053 
L 1172 1153 
Q 1172 725 1289 603 
Q 1406 481 1766 481 
L 2356 481 
L 2356 0 
L 1766 0 
Q 1100 0 847 248 
Q 594 497 594 1153 
L 594 3053 
L 172 3053 
L 172 3500 
L 594 3500 
L 594 4494 
L 1172 4494 
z
" transform="scale(0.015625)"/>
      </defs>
      <use xlink:href="#DejaVuSans-44"/>
      <use xlink:href="#DejaVuSans-61" transform="translate(77.001953 0)"/>
      <use xlink:href="#DejaVuSans-74" transform="translate(138.28125 0)"/>
      <use xlink:href="#DejaVuSans-61" transform="translate(177.490234 0)"/>
     </g>
    </g>
    <g id="line2d_12">
     <path d="M 331.97625 121.38375 
L 355.97625 121.38375 
L 379.97625 121.38375 
" style="fill: none; stroke: #1d3087; stroke-width: 2; stroke-linecap: square"/>
    </g>
    <g id="text_15">
     <!-- Fit -->
     <g transform="translate(399.17625 129.78375) scale(0.24 -0.24)">
      <defs>
       <path id="DejaVuSans-69" d="M 603 3500 
L 1178 3500 
L 1178 0 
L 603 0 
L 603 3500 
z
M 603 4863 
L 1178 4863 
L 1178 4134 
L 603 4134 
L 603 4863 
z
" transform="scale(0.015625)"/>
      </defs>
      <use xlink:href="#DejaVuSans-46"/>
      <use xlink:href="#DejaVuSans-69" transform="translate(50.269531 0)"/>
      <use xlink:href="#DejaVuSans-74" transform="translate(78.052734 0)"/>
     </g>
    </g>
   </g>
  </g>
 </g>
 <defs>
  <clipPath id="p34ea259941">
   <rect x="99.11" y="54.72" width="378.97" height="364.84"/>
  </clipPath>
 </defs>
</svg>
