<?xml version="1.0" encoding="UTF-8" standalone="no"?>
<!-- Created with Inkscape (http://www.inkscape.org/) -->

<svg
   version="1.1"
   id="svg1"
   width="572.0387"
   height="352.10934"
   viewBox="0 0 572.0387 352.10934"
   sodipodi:docname="tunnelling.pdf"
   xmlns:inkscape="http://www.inkscape.org/namespaces/inkscape"
   xmlns:sodipodi="http://sodipodi.sourceforge.net/DTD/sodipodi-0.dtd"
   xmlns="http://www.w3.org/2000/svg"
   xmlns:svg="http://www.w3.org/2000/svg">
  <defs
     id="defs1">
    <clipPath
       clipPathUnits="userSpaceOnUse"
       id="clipPath20">
      <path
         d="m 140.3165,-58.11111 h 59.52863 V 1.41752 H 140.3165 Z m 29.76433,38.69369 c -4.93161,0 -8.92939,-3.99777 -8.92939,-8.92938 0,-4.93161 3.99778,-8.92938 8.92939,-8.92938 4.93161,0 8.92938,3.99777 8.92938,8.92938 0,4.93161 -3.99777,8.92938 -8.92938,8.92938 z"
         transform="translate(2.5000001e-6)"
         clip-rule="evenodd"
         id="path20" />
    </clipPath>
    <clipPath
       clipPathUnits="userSpaceOnUse"
       id="clipPath22">
      <path
         d="m 140.3165,-58.11111 h 59.52863 V 1.41752 H 140.3165 Z m 29.76433,38.69369 c -4.93161,0 -8.92939,-3.99777 -8.92939,-8.92938 0,-4.93161 3.99778,-8.92938 8.92939,-8.92938 4.93161,0 8.92938,3.99777 8.92938,8.92938 0,4.93161 -3.99777,8.92938 -8.92938,8.92938 z"
         transform="matrix(0.55471655,-0.83208982,0.83208982,0.55471655,-89.115482,157.24718)"
         clip-rule="evenodd"
         id="path22" />
    </clipPath>
  </defs>
  <sodipodi:namedview
     id="namedview1"
     pagecolor="#ffffff"
     bordercolor="#000000"
     borderopacity="0.25"
     inkscape:showpageshadow="2"
     inkscape:pageopacity="0.0"
     inkscape:pagecheckerboard="0"
     inkscape:deskcolor="#d1d1d1">
    <inkscape:page
       x="0"
       y="0"
       inkscape:label="1"
       id="page1"
       width="572.0387"
       height="352.10934"
       margin="0"
       bleed="0" />
  </sodipodi:namedview>
  <g
     id="g1"
     inkscape:groupmode="layer"
     inkscape:label="1">
    <path
       id="path1"
       d="M -141.73404,-56.69362 V 56.69362 H 141.73404 V -56.69362 Z"
       style="fill:#122d8d;fill-opacity:1;fill-rule:nonzero;stroke:#122d8d;stroke-width:0.3985;stroke-linecap:butt;stroke-linejoin:miter;stroke-miterlimit:10;stroke-dasharray:none;stroke-opacity:1"
       transform="matrix(1.3333333,0,0,-1.3333333,305.58133,176.05467)" />
    <path
       id="path2"
       d="M -127.56062,-14.17339 V 14.1734 h 28.3468 v -28.34679 z"
       style="fill:#b3b3b3;fill-opacity:1;fill-rule:nonzero;stroke:#000000;stroke-width:0.79701;stroke-linecap:butt;stroke-linejoin:miter;stroke-miterlimit:10;stroke-dasharray:none;stroke-opacity:1"
       transform="matrix(1.3333333,0,0,-1.3333333,305.58133,176.05467)" />
    <path
       id="path3"
       d="M 127.56062,-14.17339 V 14.1734 h -28.3468 v -28.34679 z"
       style="fill:#b3b3b3;fill-opacity:1;fill-rule:nonzero;stroke:#000000;stroke-width:0.79701;stroke-linecap:butt;stroke-linejoin:miter;stroke-miterlimit:10;stroke-dasharray:none;stroke-opacity:1"
       transform="matrix(1.3333333,0,0,-1.3333333,305.58133,176.05467)" />
    <path
       id="path4"
       d="m -127.56062,-14.17339 28.3468,28.34679 m -28.3468,-1e-5 28.3468,-28.34679"
       style="fill:none;stroke:#000000;stroke-width:0.79701;stroke-linecap:butt;stroke-linejoin:miter;stroke-miterlimit:10;stroke-dasharray:none;stroke-opacity:1"
       transform="matrix(1.3333333,0,0,-1.3333333,305.58133,176.05467)" />
    <path
       id="path5"
       d="M 127.56062,-14.17339 99.21382,14.1734 m 28.3468,-1e-5 -28.3468,-28.34679"
       style="fill:none;stroke:#000000;stroke-width:0.79701;stroke-linecap:butt;stroke-linejoin:miter;stroke-miterlimit:10;stroke-dasharray:none;stroke-opacity:1"
       transform="matrix(1.3333333,0,0,-1.3333333,305.58133,176.05467)" />
    <path
       id="path6"
       d="M -7.08669,56.69362 V 7.0867 c 0,-3.55118 3.53551,-5.66928 7.08669,-5.66928 3.55118,0 7.08669,2.1181 7.08669,5.66928 V 56.69362 H -7.0867"
       style="fill:#bfbfbf;fill-opacity:1;fill-rule:nonzero;stroke:#bfbfbf;stroke-width:0.3985;stroke-linecap:butt;stroke-linejoin:miter;stroke-miterlimit:10;stroke-dasharray:none;stroke-opacity:1"
       transform="matrix(1.3333333,0,0,-1.3333333,305.58133,176.05467)" />
    <path
       id="path7"
       d="M -7.08669,-56.69362 V -7.0867 c 0,3.55118 3.53551,5.66928 7.08669,5.66928 3.55118,0 7.08669,-2.1181 7.08669,-5.66928 V -56.69362 H -7.0867"
       style="fill:#bfbfbf;fill-opacity:1;fill-rule:nonzero;stroke:#bfbfbf;stroke-width:0.3985;stroke-linecap:butt;stroke-linejoin:miter;stroke-miterlimit:10;stroke-dasharray:none;stroke-opacity:1"
       transform="matrix(1.3333333,0,0,-1.3333333,305.58133,176.05467)" />
    <path
       id="path8"
       d="M -5.66927,56.69362 V 14.1734 H 5.66927 v 42.52022 z"
       style="fill:#fdde2a;fill-opacity:1;fill-rule:nonzero;stroke:#fdde2a;stroke-width:0.3985;stroke-linecap:butt;stroke-linejoin:miter;stroke-miterlimit:10;stroke-dasharray:none;stroke-opacity:1"
       transform="matrix(1.3333333,0,0,-1.3333333,305.58133,176.05467)" />
    <path
       id="path9"
       d="M -5.66927,-56.69362 V -14.1734 H 5.66927 v -42.52022 z"
       style="fill:#fdde2a;fill-opacity:1;fill-rule:nonzero;stroke:#fdde2a;stroke-width:0.3985;stroke-linecap:butt;stroke-linejoin:miter;stroke-miterlimit:10;stroke-dasharray:none;stroke-opacity:1"
       transform="matrix(1.3333333,0,0,-1.3333333,305.58133,176.05467)" />
    <path
       id="path10"
       d="m -127.56062,0 h -42.52022 l 1e-5,-13.46465 m 0,-29.76431 -1e-5,-13.46466"
       style="fill:none;stroke:#000000;stroke-width:0.79701;stroke-linecap:butt;stroke-linejoin:miter;stroke-miterlimit:10;stroke-dasharray:none;stroke-opacity:1"
       transform="matrix(1.3333333,0,0,-1.3333333,305.58133,176.05467)" />
    <path
       id="path11"
       d="m 12.784531,-11.81368 c 0.703125,-1.125 1.347657,-1.617187 2.402344,-1.699218 0.199219,-0.02344 0.375,-0.02344 0.375,-0.386719 0,-0.09375 -0.04687,-0.210938 -0.234375,-0.210938 -0.375,0 -1.253906,0.03516 -1.628906,0.03516 -0.597656,0 -1.21875,-0.03516 -1.804688,-0.03516 -0.164062,0 -0.363281,0 -0.363281,0.386719 0,0.1875 0.1875,0.210938 0.269531,0.210938 0.761719,0.05859 0.84375,0.433593 0.84375,0.679687 0,0.316406 -0.292968,0.785156 -0.304687,0.808594 L 5.8470313,-1.7355547 4.405625,-12.868367 c 0,-0.597656 1.0664063,-0.644531 1.3007813,-0.644531 0.3046875,0 0.4921875,0 0.4921875,-0.386719 0,-0.210938 -0.2226563,-0.210938 -0.2929688,-0.210938 -0.3515625,0 -0.7617187,0.03516 -1.1132812,0.03516 H 3.6321875 c -1.5,0 -2.1210937,-0.03516 -2.1445312,-0.03516 -0.1289063,0 -0.375,0 -0.375,0.375 0,0.222657 0.1523437,0.222657 0.4804687,0.222657 1.0546875,0 1.1132813,0.1875 1.171875,0.703125 l 1.6523438,12.74999956 c 0.070312,0.43359375 0.070312,0.4921875 0.3515625,0.4921875 0.2460937,0 0.3515625,-0.0585938 0.5625,-0.38671875 z m 0,0"
       style="fill:#000000;fill-opacity:1;fill-rule:nonzero;stroke:none"
       aria-label="V"
       transform="matrix(1.3333333,0,0,1.3333333,5.3133333,219.62267)" />
    <text
       id="text11"
       xml:space="preserve"
       transform="matrix(1.3333333,0,0,1.3333333,21.038667,223.75467)"><tspan
         id="tspan11"
         style="font-variant:normal;font-weight:normal;font-size:14.3462px;font-family:'Latin Modern Roman';writing-mode:lr-tb;fill:#000000;fill-opacity:1;fill-rule:nonzero;stroke:none"
         x="0"
         y="0">bias</tspan></text>
    <path
       id="path12"
       d="m -155.19867,-28.3468 c 0,8.21928 -6.66287,14.88215 -14.88216,14.88215 -8.21928,0 -14.88215,-6.66287 -14.88215,-14.88215 0,-8.21929 6.66287,-14.88216 14.88215,-14.88216 8.21929,0 14.88216,6.66287 14.88216,14.88216 z"
       style="fill:none;stroke:#000000;stroke-width:1.59404;stroke-linecap:butt;stroke-linejoin:miter;stroke-miterlimit:10;stroke-dasharray:none;stroke-opacity:1"
       transform="matrix(1.3333333,0,0,-1.3333333,305.58133,176.05467)" />
    <path
       id="path13"
       d="m 7.8740313,-2.7542891 c 0.2109375,0 0.421875,0 0.421875,-0.234375 0,-0.234375 -0.2109375,-0.234375 -0.421875,-0.234375 h -6.46875 c -0.1992188,0 -0.4101563,0 -0.4101563,0.234375 0,0.234375 0.2109375,0.234375 0.4101563,0.234375 z m 0,0"
       style="fill:#000000;fill-opacity:1;fill-rule:nonzero;stroke:none"
       aria-label="−"
       transform="matrix(1.3333333,0,0,1.3333333,72.610667,226.41067)" />
    <path
       id="path14"
       d="m 4.7682422,-2.7652969 h 3.3046875 c 0.1640625,0 0.375,0 0.375,-0.2109375 0,-0.2226562 -0.1992188,-0.2226562 -0.375,-0.2226562 H 4.7682422 v -3.3046875 c 0,-0.1640625 0,-0.3867188 -0.2109375,-0.3867188 -0.234375,0 -0.234375,0.2109375 -0.234375,0.3867188 v 3.3046875 H 1.0299609 c -0.17578121,0 -0.38671871,0 -0.38671871,0.2109375 0,0.2226562 0.19921875,0.2226562 0.38671871,0.2226562 h 3.2929688 v 3.30468753 c 0,0.1640625 0,0.38671875 0.2226562,0.38671875 0.2226563,0 0.2226563,-0.2109375 0.2226563,-0.38671875 z m 0,0"
       style="fill:#000000;fill-opacity:1;fill-rule:nonzero;stroke:none"
       aria-label="+"
       transform="matrix(1.3333333,0,0,1.3333333,72.74,209.148)" />
    <path
       id="path15"
       d="m -170.08084,-56.69362 v -9.92134"
       style="fill:none;stroke:#000000;stroke-width:0.79701;stroke-linecap:butt;stroke-linejoin:miter;stroke-miterlimit:10;stroke-dasharray:none;stroke-opacity:1"
       transform="matrix(1.3333333,0,0,-1.3333333,305.58133,176.05467)" />
    <path
       id="path16"
       d="m -176.03369,-66.61496 h 11.9057 l -5.95285,-7.93709 z"
       style="fill:none;stroke:#000000;stroke-width:1.59404;stroke-linecap:butt;stroke-linejoin:miter;stroke-miterlimit:10;stroke-dasharray:none;stroke-opacity:1"
       transform="matrix(1.3333333,0,0,-1.3333333,305.58133,176.05467)" />
    <path
       id="path17"
       d="m 127.56062,0 h 42.52022 l -1e-5,-13.46465 m 0,-29.76431 1e-5,-13.46466"
       style="fill:none;stroke:#000000;stroke-width:0.79701;stroke-linecap:butt;stroke-linejoin:miter;stroke-miterlimit:10;stroke-dasharray:none;stroke-opacity:1"
       transform="matrix(1.3333333,0,0,-1.3333333,305.58133,176.05467)" />
    <path
       id="path18"
       d="m 184.96298,-28.3468 c 0,8.21928 -6.66287,14.88215 -14.88215,14.88215 -8.21929,0 -14.88216,-6.66287 -14.88216,-14.88215 0,-8.21929 6.66287,-14.88216 14.88216,-14.88216 8.21928,0 14.88215,6.66287 14.88215,14.88216 z"
       style="fill:none;stroke:#000000;stroke-width:1.59404;stroke-linecap:butt;stroke-linejoin:miter;stroke-miterlimit:10;stroke-dasharray:none;stroke-opacity:1"
       transform="matrix(1.3333333,0,0,-1.3333333,305.58133,176.05467)" />
    <path
       id="path19"
       d="m 158.17506,-46.20534 22.08744,33.13092"
       style="fill:none;stroke:#000000;stroke-width:0.79701;stroke-linecap:butt;stroke-linejoin:miter;stroke-miterlimit:10;stroke-dasharray:none;stroke-opacity:1"
       transform="matrix(1.3333333,0,0,-1.3333333,305.58133,176.05467)"
       clip-path="url(#clipPath20)" />
    <path
       id="path21"
       d="m 3.1083,0 c -1.29513,0.25902 -3.62635,0.77707 -5.1805,1.94269 1.29513,-1.42464 1.29513,-2.46074 0,-3.88538 C -0.51805,-0.77707 1.81317,-0.25902 3.1083,0 Z"
       style="fill:#000000;fill-opacity:1;fill-rule:evenodd;stroke:none"
       transform="matrix(0.73956,-1.10936,-1.10936,-0.73956,545.93131,193.48724)"
       clip-path="url(#clipPath22)" />
    <text
       id="text22"
       xml:space="preserve"
       transform="matrix(1.3333333,0,0,1.3333333,525.33333,220.67867)"><tspan
         id="tspan22"
         style="font-variant:normal;font-weight:normal;font-size:14.3462px;font-family:'Latin Modern Roman';writing-mode:lr-tb;fill:#000000;fill-opacity:1;fill-rule:nonzero;stroke:none"
         x="0"
         y="0">A</tspan></text>
    <path
       id="path23"
       d="m 170.08084,-56.69362 v -9.92134"
       style="fill:none;stroke:#000000;stroke-width:0.79701;stroke-linecap:butt;stroke-linejoin:miter;stroke-miterlimit:10;stroke-dasharray:none;stroke-opacity:1"
       transform="matrix(1.3333333,0,0,-1.3333333,305.58133,176.05467)" />
    <path
       id="path24"
       d="m 164.12799,-66.61496 h 11.9057 l -5.95285,-7.93709 z"
       style="fill:none;stroke:#000000;stroke-width:1.59404;stroke-linecap:butt;stroke-linejoin:miter;stroke-miterlimit:10;stroke-dasharray:none;stroke-opacity:1"
       transform="matrix(1.3333333,0,0,-1.3333333,305.58133,176.05467)" />
    <path
       id="path25"
       d="m -70.867,0 h 52.03114"
       style="fill:none;stroke:#ffffff;stroke-width:0.79701;stroke-linecap:butt;stroke-linejoin:miter;stroke-miterlimit:10;stroke-dasharray:none;stroke-opacity:1"
       transform="matrix(1.3333333,0,0,-1.3333333,305.58133,176.05467)" />
    <path
       id="path26"
       d="M 4.66248,0 C 3.28098,0.25902 1.0361,1.0361 -0.51805,1.94269 V -1.94269 C 1.0361,-1.0361 3.28098,-0.25902 4.66248,0"
       style="fill:#ffffff;fill-opacity:1;fill-rule:nonzero;stroke:none"
       transform="matrix(1.3333333,0,0,-1.3333333,280.46685,176.05467)" />
    <path
       id="path27"
       d="M 14.17339,0 H 66.20453"
       style="fill:none;stroke:#ffffff;stroke-width:0.79701;stroke-linecap:butt;stroke-linejoin:miter;stroke-miterlimit:10;stroke-dasharray:2.98883, 2.98883;stroke-dashoffset:0;stroke-opacity:1"
       transform="matrix(1.3333333,0,0,-1.3333333,305.58133,176.05467)" />
    <path
       id="path28"
       d="M 4.66248,0 C 3.28098,0.25902 1.0361,1.0361 -0.51805,1.94269 V -1.94269 C 1.0361,-1.0361 3.28098,-0.25902 4.66248,0"
       style="fill:#ffffff;fill-opacity:1;fill-rule:nonzero;stroke:none"
       transform="matrix(1.3333333,0,0,-1.3333333,393.85404,176.05467)" />
    <path
       id="path29"
       d="m 5.9285938,-7.7926797 h 3.4335937 c 0.2695313,0 0.9492185,0 0.9492185,-0.65625 0,-0.4570312 -0.3984372,-0.4570312 -0.7617185,-0.4570312 H 3.8660938 c -0.4804688,0 -1.1835938,0 -2.1328125,1.0195312 -0.5390625,0.5976563 -1.19531255,1.6875 -1.19531255,1.8164063 0,0.1171875 0.10546875,0.1640625 0.22265625,0.1640625 0.15234375,0 0.1640625,-0.070312 0.2695313,-0.1875 1.078125,-1.6992188 2.15625,-1.6992188 2.671875,-1.6992188 h 1.7109375 l -2.1445313,7.08984376 c -0.1054687,0.31640625 -0.1054687,0.3515625 -0.1054687,0.41015625 0,0.234375 0.140625,0.515625 0.5507812,0.515625 0.6445313,0 0.75,-0.55078125 0.8085938,-0.8671875 z m 0,0"
       style="fill:#ffffff;fill-opacity:1;fill-rule:nonzero;stroke:none"
       aria-label="τ"
       transform="matrix(1.3333333,0,0,1.3333333,392.67333,160.76133)" />
    <path
       id="path30"
       d="m -79.37115,0 c 0,3.13109 -2.53818,5.66927 -5.66927,5.66927 -3.13109,0 -5.66928,-2.53818 -5.66928,-5.66927 0,-3.13109 2.53819,-5.66927 5.66928,-5.66927 3.13109,0 5.66927,2.53818 5.66927,5.66927 z"
       style="fill:#5bcefa;fill-opacity:1;fill-rule:nonzero;stroke:#5bcefa;stroke-width:0.3985;stroke-linecap:butt;stroke-linejoin:miter;stroke-miterlimit:10;stroke-dasharray:none;stroke-opacity:1"
       transform="matrix(1.3333333,0,0,-1.3333333,305.58133,176.05467)" />
    <path
       id="path31"
       d="m 90.7097,0 c 0,3.13109 -2.53819,5.66927 -5.66928,5.66927 -3.13109,0 -5.66927,-2.53818 -5.66927,-5.66927 0,-3.13109 2.53818,-5.66927 5.66927,-5.66927 3.13109,0 5.66928,2.53818 5.66928,5.66927 z"
       style="fill:#5bcefa;fill-opacity:1;fill-rule:nonzero;stroke:#5bcefa;stroke-width:0.3985;stroke-linecap:butt;stroke-linejoin:miter;stroke-miterlimit:10;stroke-dasharray:none;stroke-opacity:1"
       transform="matrix(1.3333333,0,0,-1.3333333,305.58133,176.05467)" />
    <path
       id="path32"
       d="m -14.17339,14.17339 c 0,7.84796 -6.32544,14.1734 -14.1734,14.1734 H -50.6137"
       style="fill:none;stroke:#ffffff;stroke-width:0.79701;stroke-linecap:butt;stroke-linejoin:miter;stroke-miterlimit:10;stroke-dasharray:2.98883, 2.98883;stroke-dashoffset:0;stroke-opacity:1"
       transform="matrix(1.3333333,0,0,-1.3333333,305.58133,176.05467)" />
    <path
       id="path33"
       d="M 4.66248,0 C 3.28098,0.25902 1.0361,1.0361 -0.51805,1.94269 V -1.94269 C 1.0361,-1.0361 3.28098,-0.25902 4.66248,0"
       style="fill:#ffffff;fill-opacity:1;fill-rule:nonzero;stroke:none"
       transform="matrix(-1.3333333,0,0,1.3333333,238.0964,138.25895)" />
    <path
       id="path34"
       d="m 5.4961172,-13.206125 c 0,-0.433594 -0.023437,-0.445312 -0.3046875,-0.445312 -0.8085938,0.972656 -2.0273438,1.277343 -3.1875,1.3125 -0.058594,0 -0.1640625,0 -0.1875,0.04687 -0.023437,0.04687 -0.023437,0.08203 -0.023437,0.515625 0.6445312,0 1.7226562,-0.117188 2.5429687,-0.621094 v 10.8867185 c 0,0.7265625 -0.035156,0.97265625 -1.8164062,0.97265625 H 1.8984609 v 0.5390625 c 0.9960938,-0.0234375 2.0273438,-0.046875 3.0234375,-0.046875 0.984375,0 2.015625,0.0234375 3.0117188,0.046875 v -0.5390625 H 7.3125234 c -1.78125,0 -1.8164062,-0.22265625 -1.8164062,-0.97265625 z m 0,0"
       style="fill:#ffffff;fill-opacity:1;fill-rule:nonzero;stroke:none"
       aria-label="1"
       transform="matrix(1.3333333,0,0,1.3333333,201.332,120.67067)" />
    <path
       id="path35"
       d="m 13.61857,-4.7451875 c 0.351563,0 0.726563,0 0.726563,-0.421875 0,-0.4101562 -0.375,-0.4101562 -0.726563,-0.4101562 H 2.4388828 c -0.3515625,0 -0.7265625,0 -0.7265625,0.4101562 0,0.421875 0.375,0.421875 0.7265625,0.421875 z m 0,0"
       style="fill:#ffffff;fill-opacity:1;fill-rule:nonzero;stroke:none"
       aria-label="−"
       transform="matrix(1.3333333,0,0,1.3333333,220.088,120.67067)" />
    <path
       id="path36"
       d="m 5.9282266,-7.7920625 h 3.4335937 c 0.2695313,0 0.9492187,0 0.9492187,-0.65625 0,-0.4570312 -0.3984374,-0.4570312 -0.7617187,-0.4570312 H 3.8657266 c -0.4804688,0 -1.1835938,0 -2.1328125,1.0195312 -0.5390625,0.5976563 -1.19531254,1.6875 -1.19531254,1.8164063 0,0.1171875 0.10546875,0.1640625 0.22265625,0.1640625 0.15234375,0 0.1640625,-0.070312 0.26953129,-0.1875 1.078125,-1.6992188 2.15625,-1.6992188 2.671875,-1.6992188 h 1.7109375 l -2.1445313,7.08984375 c -0.1054687,0.31640625 -0.1054687,0.3515625 -0.1054687,0.41015625 0,0.234375 0.140625,0.515625 0.5507812,0.515625 0.6445313,0 0.75,-0.55078125 0.8085938,-0.8671875 z m 0,0"
       style="fill:#ffffff;fill-opacity:1;fill-rule:nonzero;stroke:none"
       aria-label="τ"
       transform="matrix(1.3333333,0,0,1.3333333,247.63867,120.67067)" />
    <path
       id="path37"
       d="m -58.11102,28.3468 c 0,3.13109 -2.5382,5.66928 -5.66928,5.66928 -3.13109,0 -5.66927,-2.53819 -5.66927,-5.66928 0,-3.13109 2.53818,-5.66926 5.66927,-5.66926 3.13108,0 5.66928,2.53817 5.66928,5.66926 z"
       style="fill:#5bcefa;fill-opacity:1;fill-rule:nonzero;stroke:#5bcefa;stroke-width:0.3985;stroke-linecap:butt;stroke-linejoin:miter;stroke-miterlimit:10;stroke-dasharray:none;stroke-opacity:1"
       transform="matrix(1.3333333,0,0,-1.3333333,305.58133,176.05467)" />
    <path
       id="path38"
       d="m 0,56.69362 v 13.46464 m 0,29.76432 v 13.46466"
       style="fill:none;stroke:#000000;stroke-width:0.79701;stroke-linecap:butt;stroke-linejoin:miter;stroke-miterlimit:10;stroke-dasharray:none;stroke-opacity:1"
       transform="matrix(1.3333333,0,0,-1.3333333,305.58133,176.05467)" />
    <path
       id="path39"
       d="m 12.78532,-11.81232 c 0.703125,-1.125 1.347657,-1.617188 2.402344,-1.699219 0.199219,-0.02344 0.375,-0.02344 0.375,-0.386719 0,-0.09375 -0.04687,-0.210937 -0.234375,-0.210937 -0.375,0 -1.253906,0.03516 -1.628906,0.03516 -0.597656,0 -1.21875,-0.03516 -1.804688,-0.03516 -0.164062,0 -0.363281,0 -0.363281,0.386718 0,0.1875 0.1875,0.210938 0.269531,0.210938 0.761719,0.05859 0.84375,0.433594 0.84375,0.679687 0,0.316407 -0.292968,0.785157 -0.304687,0.808594 L 5.8478203,-1.7341953 4.4064141,-12.867008 c 0,-0.597656 1.0664062,-0.644531 1.3007812,-0.644531 0.3046875,0 0.4921875,0 0.4921875,-0.386719 0,-0.210937 -0.2226562,-0.210937 -0.2929687,-0.210937 -0.3515625,0 -0.7617188,0.03516 -1.1132813,0.03516 H 3.6329766 c -1.5,0 -2.1210938,-0.03516 -2.1445313,-0.03516 -0.1289062,0 -0.375,0 -0.375,0.375 0,0.222656 0.1523438,0.222656 0.4804688,0.222656 1.0546875,0 1.1132812,0.1875 1.171875,0.703125 l 1.6523437,12.74999994 c 0.070312,0.43359375 0.070312,0.4921875 0.3515625,0.4921875 0.2460938,0 0.3515625,-0.0585938 0.5625,-0.38671875 z m 0,0"
       style="fill:#000000;fill-opacity:1;fill-rule:nonzero;stroke:none"
       aria-label="V"
       transform="matrix(1.3333333,0,0,1.3333333,330.324,67.878667)" />
    <text
       id="text39"
       xml:space="preserve"
       transform="matrix(1.3333333,0,0,1.3333333,346.04933,72.012)"><tspan
         id="tspan39"
         style="font-variant:normal;font-weight:normal;font-size:14.3462px;font-family:'Latin Modern Roman';writing-mode:lr-tb;fill:#000000;fill-opacity:1;fill-rule:nonzero;stroke:none"
         x="0"
         y="0">qp</tspan></text>
    <text
       id="text40"
       xml:space="preserve"
       transform="matrix(1.3333333,0,0,1.3333333,366.86089,72.012)"><tspan
         id="tspan40"
         style="font-variant:normal;font-weight:normal;font-size:14.3462px;font-family:'Latin Modern Roman';writing-mode:lr-tb;fill:#000000;fill-opacity:1;fill-rule:nonzero;stroke:none"
         x="0"
         y="0">c</tspan></text>
    <path
       id="path40"
       d="m -14.88216,85.04042 c 0,-8.21928 6.66288,-14.88216 14.88216,-14.88216 8.21928,0 14.88216,6.66288 14.88216,14.88216 0,8.21928 -6.66288,14.88216 -14.88216,14.88216 -8.21928,0 -14.88216,-6.66288 -14.88216,-14.88216 z"
       style="fill:none;stroke:#000000;stroke-width:1.59404;stroke-linecap:butt;stroke-linejoin:miter;stroke-miterlimit:10;stroke-dasharray:none;stroke-opacity:1"
       transform="matrix(1.3333333,0,0,-1.3333333,305.58133,176.05467)" />
    <path
       id="path41"
       d="m 7.8740625,-2.7549375 c 0.2109375,0 0.421875,0 0.421875,-0.234375 0,-0.234375 -0.2109375,-0.234375 -0.421875,-0.234375 h -6.46875 c -0.1992188,0 -0.41015625,0 -0.41015625,0.234375 0,0.234375 0.21093745,0.234375 0.41015625,0.234375 z m 0,0"
       style="fill:#000000;fill-opacity:1;fill-rule:nonzero;stroke:none"
       aria-label="−"
       transform="matrix(-1.3333333,0,0,-1.3333333,311.78,50.108)" />
    <path
       id="path42"
       d="m 4.7692734,-2.7659453 h 3.3046875 c 0.1640625,0 0.375,0 0.375,-0.2109375 0,-0.2226563 -0.1992187,-0.2226563 -0.375,-0.2226563 H 4.7692734 v -3.3046875 c 0,-0.1640625 0,-0.3867187 -0.2109375,-0.3867187 -0.234375,0 -0.234375,0.2109375 -0.234375,0.3867187 v 3.3046875 H 1.0309922 c -0.17578126,0 -0.38671876,0 -0.38671876,0.2109375 0,0.2226563 0.19921875,0.2226563 0.38671876,0.2226563 h 3.2929687 v 3.30468749 c 0,0.1640625 0,0.38671875 0.2226563,0.38671875 0.2226562,0 0.2226562,-0.2109375 0.2226562,-0.38671875 z m 0,0"
       style="fill:#000000;fill-opacity:1;fill-rule:nonzero;stroke:none"
       aria-label="+"
       transform="matrix(-1.3333333,0,0,-1.3333333,311.652,67.370667)" />
    <path
       id="path43"
       d="m 0,113.38724 v 9.92134"
       style="fill:none;stroke:#000000;stroke-width:0.79701;stroke-linecap:butt;stroke-linejoin:miter;stroke-miterlimit:10;stroke-dasharray:none;stroke-opacity:1"
       transform="matrix(1.3333333,0,0,-1.3333333,305.58133,176.05467)" />
    <path
       id="path44"
       d="M 5.95285,123.30858 H -5.95285 L 0,131.24567 Z"
       style="fill:none;stroke:#000000;stroke-width:1.59404;stroke-linecap:butt;stroke-linejoin:miter;stroke-miterlimit:10;stroke-dasharray:none;stroke-opacity:1"
       transform="matrix(1.3333333,0,0,-1.3333333,305.58133,176.05467)" />
    <path
       id="path45"
       d="m 0,-56.69362 v -13.46464 m 0,-29.76432 v -13.46466"
       style="fill:none;stroke:#000000;stroke-width:0.79701;stroke-linecap:butt;stroke-linejoin:miter;stroke-miterlimit:10;stroke-dasharray:none;stroke-opacity:1"
       transform="matrix(1.3333333,0,0,-1.3333333,305.58133,176.05467)" />
    <path
       id="path46"
       d="m 12.78532,-11.811367 c 0.703125,-1.125 1.347657,-1.617188 2.402344,-1.699219 0.199219,-0.02344 0.375,-0.02344 0.375,-0.386719 0,-0.09375 -0.04687,-0.210937 -0.234375,-0.210937 -0.375,0 -1.253906,0.03516 -1.628906,0.03516 -0.597656,0 -1.21875,-0.03516 -1.804688,-0.03516 -0.164062,0 -0.363281,0 -0.363281,0.386719 0,0.1875 0.1875,0.210937 0.269531,0.210937 0.761719,0.05859 0.84375,0.433594 0.84375,0.679688 0,0.316406 -0.292968,0.785156 -0.304687,0.808593 L 5.8478203,-1.7332422 4.4064141,-12.866055 c 0,-0.597656 1.0664062,-0.644531 1.3007812,-0.644531 0.3046875,0 0.4921875,0 0.4921875,-0.386719 0,-0.210937 -0.2226562,-0.210937 -0.2929687,-0.210937 -0.3515625,0 -0.7617188,0.03516 -1.1132813,0.03516 H 3.6329766 c -1.5,0 -2.1210938,-0.03516 -2.1445313,-0.03516 -0.1289062,0 -0.375,0 -0.375,0.375 0,0.222656 0.1523438,0.222656 0.4804688,0.222656 1.0546875,0 1.1132812,0.1875 1.171875,0.703125 l 1.6523437,12.75000006 c 0.070312,0.43359375 0.070312,0.4921875 0.3515625,0.4921875 0.2460938,0 0.3515625,-0.0585938 0.5625,-0.38671875 z m 0,0"
       style="fill:#000000;fill-opacity:1;fill-rule:nonzero;stroke:none"
       aria-label="V"
       transform="matrix(1.3333333,0,0,1.3333333,330.324,295.21333)" />
    <text
       id="text46"
       xml:space="preserve"
       transform="matrix(1.3333333,0,0,1.3333333,346.04933,299.34533)"><tspan
         id="tspan46"
         style="font-variant:normal;font-weight:normal;font-size:14.3462px;font-family:'Latin Modern Roman';writing-mode:lr-tb;fill:#000000;fill-opacity:1;fill-rule:nonzero;stroke:none"
         x="0"
         y="0">qp</tspan></text>
    <text
       id="text47"
       xml:space="preserve"
       transform="matrix(1.3333333,0,0,1.3333333,366.86089,299.34533)"><tspan
         id="tspan47"
         style="font-variant:normal;font-weight:normal;font-size:14.3462px;font-family:'Latin Modern Roman';writing-mode:lr-tb;fill:#000000;fill-opacity:1;fill-rule:nonzero;stroke:none"
         x="0"
         y="0">c</tspan></text>
    <path
       id="path47"
       d="m 14.88216,-85.04042 c 0,8.21928 -6.66288,14.88216 -14.88216,14.88216 -8.21928,0 -14.88216,-6.66288 -14.88216,-14.88216 0,-8.21928 6.66288,-14.88216 14.88216,-14.88216 8.21928,0 14.88216,6.66288 14.88216,14.88216 z"
       style="fill:none;stroke:#000000;stroke-width:1.59404;stroke-linecap:butt;stroke-linejoin:miter;stroke-miterlimit:10;stroke-dasharray:none;stroke-opacity:1"
       transform="matrix(1.3333333,0,0,-1.3333333,305.58133,176.05467)" />
    <path
       id="path48"
       d="m 7.8751094,-2.7549062 c 0.2109375,0 0.421875,0 0.421875,-0.234375 0,-0.234375 -0.2109375,-0.234375 -0.421875,-0.234375 h -6.46875 c -0.1992188,0 -0.41015627,0 -0.41015627,0.234375 0,0.234375 0.21093747,0.234375 0.41015627,0.234375 z m 0,0"
       style="fill:#000000;fill-opacity:1;fill-rule:nonzero;stroke:none"
       aria-label="−"
       transform="matrix(1.3333333,0,0,1.3333333,299.38267,302.00133)" />
    <path
       id="path49"
       d="m 4.7693203,-2.7659141 h 3.3046875 c 0.1640625,0 0.375,0 0.375,-0.2109375 0,-0.2226562 -0.1992187,-0.2226562 -0.375,-0.2226562 H 4.7693203 v -3.3046875 c 0,-0.1640625 0,-0.3867188 -0.2109375,-0.3867188 -0.234375,0 -0.234375,0.2109375 -0.234375,0.3867188 v 3.3046875 H 1.0310391 c -0.17578129,0 -0.38671879,0 -0.38671879,0.2109375 0,0.2226562 0.19921875,0.2226562 0.38671879,0.2226562 h 3.2929687 v 3.30468754 c 0,0.1640625 0,0.38671875 0.2226563,0.38671875 0.2226562,0 0.2226562,-0.2109375 0.2226562,-0.38671875 z m 0,0"
       style="fill:#000000;fill-opacity:1;fill-rule:nonzero;stroke:none"
       aria-label="+"
       transform="matrix(1.3333333,0,0,1.3333333,299.512,284.73867)" />
    <path
       id="path50"
       d="m 0,-113.38724 v -9.92134"
       style="fill:none;stroke:#000000;stroke-width:0.79701;stroke-linecap:butt;stroke-linejoin:miter;stroke-miterlimit:10;stroke-dasharray:none;stroke-opacity:1"
       transform="matrix(1.3333333,0,0,-1.3333333,305.58133,176.05467)" />
    <path
       id="path51"
       d="M -5.95285,-123.30858 H 5.95285 L 0,-131.24567 Z"
       style="fill:none;stroke:#000000;stroke-width:1.59404;stroke-linecap:butt;stroke-linejoin:miter;stroke-miterlimit:10;stroke-dasharray:none;stroke-opacity:1"
       transform="matrix(1.3333333,0,0,-1.3333333,305.58133,176.05467)" />
  </g>
</svg>
