<?xml version="1.0" encoding="UTF-8" standalone="no"?>
<!-- Created with Inkscape (http://www.inkscape.org/) -->

<svg
   version="1.1"
   id="svg2"
   xml:space="preserve"
   width="639.61066"
   height="353.172"
   viewBox="0 0 639.61066 353.172"
   sodipodi:docname="tunnelling.pdf"
   xmlns:inkscape="http://www.inkscape.org/namespaces/inkscape"
   xmlns:sodipodi="http://sodipodi.sourceforge.net/DTD/sodipodi-0.dtd"
   xmlns="http://www.w3.org/2000/svg"
   xmlns:svg="http://www.w3.org/2000/svg"><defs
     id="defs6"><clipPath
       clipPathUnits="userSpaceOnUse"
       id="clipPath188"><path
         d="m 140.3165,-58.11111 h 59.52863 V 1.41752 H 140.3165 Z m 29.76433,38.69369 c -4.93161,0 -8.92939,-3.99777 -8.92939,-8.92938 0,-4.93161 3.99778,-8.92938 8.92939,-8.92938 4.93161,0 8.92938,3.99777 8.92938,8.92938 0,4.93161 -3.99777,8.92938 -8.92938,8.92938 z"
         clip-rule="evenodd"
         id="path186" /></clipPath></defs><sodipodi:namedview
     id="namedview4"
     pagecolor="#505050"
     bordercolor="#eeeeee"
     borderopacity="1"
     inkscape:pageshadow="0"
     inkscape:pageopacity="0"
     inkscape:pagecheckerboard="0" /><g
     id="g8"
     inkscape:groupmode="layer"
     inkscape:label="tunnelling"
     transform="matrix(1.3333333,0,0,-1.3333333,0,353.172)"><g
       id="g10"
       transform="translate(229.386,132.44)"><g
         id="g12"><g
           id="g14"><g
             id="g16"><path
               d="M -141.73404,-56.69362 V 56.69362 H 141.73404 V -56.69362 Z"
               style="fill:#122d8d;fill-opacity:1;fill-rule:nonzero;stroke:#122d8d;stroke-width:0.3985;stroke-linecap:butt;stroke-linejoin:miter;stroke-miterlimit:10;stroke-dasharray:none;stroke-opacity:1"
               id="path18" /></g><g
             id="g20"><path
               d="M -127.56062,-14.17339 V 14.1734 h 28.3468 v -28.34679 z"
               style="fill:#b3b3b3;fill-opacity:1;fill-rule:nonzero;stroke:#000000;stroke-width:1.19553;stroke-linecap:butt;stroke-linejoin:miter;stroke-miterlimit:10;stroke-dasharray:none;stroke-opacity:1"
               id="path22" /></g><g
             id="g24"><path
               d="M 127.56062,-14.17339 V 14.1734 h -28.3468 v -28.34679 z"
               style="fill:#b3b3b3;fill-opacity:1;fill-rule:nonzero;stroke:#000000;stroke-width:1.19553;stroke-linecap:butt;stroke-linejoin:miter;stroke-miterlimit:10;stroke-dasharray:none;stroke-opacity:1"
               id="path26" /></g><g
             id="g28"><path
               d="m -127.56062,-14.17339 28.3468,28.34679 m -28.3468,-1e-5 28.3468,-28.34679"
               style="fill:none;stroke:#000000;stroke-width:1.19553;stroke-linecap:butt;stroke-linejoin:miter;stroke-miterlimit:10;stroke-dasharray:none;stroke-opacity:1"
               id="path30" /></g><g
             id="g32"><path
               d="M 127.56062,-14.17339 99.21382,14.1734 m 28.3468,-1e-5 -28.3468,-28.34679"
               style="fill:none;stroke:#000000;stroke-width:1.19553;stroke-linecap:butt;stroke-linejoin:miter;stroke-miterlimit:10;stroke-dasharray:none;stroke-opacity:1"
               id="path34" /></g><g
             id="g36"><path
               d="m -7.08669,56.69362 v -35.4335 c 0,-3.5512 3.53551,-5.66928 7.08669,-5.66928 3.55118,0 7.08669,2.11808 7.08669,5.66928 v 35.4335 H -7.0867"
               style="fill:#bfbfbf;fill-opacity:1;fill-rule:nonzero;stroke:#bfbfbf;stroke-width:0.3985;stroke-linecap:butt;stroke-linejoin:miter;stroke-miterlimit:10;stroke-dasharray:none;stroke-opacity:1"
               id="path38" /></g><g
             id="g40"><path
               d="m -7.08669,-56.69362 v 35.4335 c 0,3.5512 3.53551,5.66928 7.08669,5.66928 3.55118,0 7.08669,-2.11808 7.08669,-5.66928 v -35.4335 H -7.0867"
               style="fill:#bfbfbf;fill-opacity:1;fill-rule:nonzero;stroke:#bfbfbf;stroke-width:0.3985;stroke-linecap:butt;stroke-linejoin:miter;stroke-miterlimit:10;stroke-dasharray:none;stroke-opacity:1"
               id="path42" /></g><g
             id="g44"><path
               d="M -5.66927,56.69362 V 21.26012 H 5.66927 v 35.4335 z"
               style="fill:#fdde2a;fill-opacity:1;fill-rule:nonzero;stroke:#fdde2a;stroke-width:0.3985;stroke-linecap:butt;stroke-linejoin:miter;stroke-miterlimit:10;stroke-dasharray:none;stroke-opacity:1"
               id="path46" /></g><g
             id="g48"><path
               d="m -5.66927,-56.69362 v 35.4335 H 5.66927 v -35.4335 z"
               style="fill:#fdde2a;fill-opacity:1;fill-rule:nonzero;stroke:#fdde2a;stroke-width:0.3985;stroke-linecap:butt;stroke-linejoin:miter;stroke-miterlimit:10;stroke-dasharray:none;stroke-opacity:1"
               id="path50" /></g><g
             id="g52"><path
               d="m -127.56062,0 h -42.52022 l 1e-5,-13.46465 m 0,-29.76431 -1e-5,-13.46466"
               style="fill:none;stroke:#000000;stroke-width:1.19553;stroke-linecap:butt;stroke-linejoin:miter;stroke-miterlimit:10;stroke-dasharray:none;stroke-opacity:1"
               id="path54" /><g
               id="g56"><g
                 id="g58"
                 transform="translate(-225.401,-32.875)"><g
                   id="g60"><g
                     id="g62"
                     transform="translate(-3.985,-99.565)"><text
                       transform="matrix(1,0,0,-1,3.985,99.565)"
                       style="font-variant:normal;font-weight:normal;font-size:20.6625px;font-family:CMMI12;-inkscape-font-specification:CMMI12;writing-mode:lr-tb;fill:#000000;fill-opacity:1;fill-rule:nonzero;stroke:none"
                       id="text66"><tspan
                         x="0"
                         y="0"
                         id="tspan64">V</tspan></text><text
                       transform="matrix(1,0,0,-1,15.779,96.465)"
                       style="font-variant:normal;font-weight:normal;font-size:14.3462px;font-family:LMRoman12;-inkscape-font-specification:LMRoman12-Regular;writing-mode:lr-tb;fill:#000000;fill-opacity:1;fill-rule:nonzero;stroke:none"
                       id="text70"><tspan
                         x="0 7.8043327 11.706499 18.736137"
                         y="0"
                         sodipodi:role="line"
                         id="tspan68">bias</tspan></text><g
                       id="g72"
                       transform="translate(3.985,99.565)" /></g></g><g
                   id="g74"
                   transform="translate(225.401,32.875)" /></g></g><g
               id="g76" /><g
               id="g78" /><g
               id="g80"><path
                 d="m -155.19867,-28.3468 c 0,8.21928 -6.66287,14.88215 -14.88216,14.88215 -8.21928,0 -14.88215,-6.66287 -14.88215,-14.88215 0,-8.21929 6.66287,-14.88216 14.88215,-14.88216 8.21929,0 14.88216,6.66287 14.88216,14.88216 z"
                 style="fill:none;stroke:#000000;stroke-width:2.39105;stroke-linecap:butt;stroke-linejoin:miter;stroke-miterlimit:10;stroke-dasharray:none;stroke-opacity:1"
                 id="path82" /><g
                 id="g84"
                 transform="translate(-174.728,-37.768)"><g
                   id="g86"
                   transform="translate(-54.658,-94.672)"><text
                     transform="matrix(1,0,0,-1,54.658,94.672)"
                     style="font-variant:normal;font-weight:normal;font-size:11.9552px;font-family:CMSY10;-inkscape-font-specification:CMSY10;writing-mode:lr-tb;fill:#000000;fill-opacity:1;fill-rule:nonzero;stroke:none"
                     id="text90"><tspan
                       x="0"
                       y="0"
                       id="tspan88">−</tspan></text><g
                     id="g92"
                     transform="translate(54.658,94.672)" /></g><g
                   id="g94"
                   transform="translate(174.728,37.768)" /></g><g
                 id="g96"
                 transform="translate(-174.631,-24.82)"><g
                   id="g98"
                   transform="translate(-54.755,-107.62)"><text
                     transform="matrix(1,0,0,-1,54.755,107.62)"
                     style="font-variant:normal;font-weight:normal;font-size:11.9552px;font-family:CMR12;-inkscape-font-specification:CMR12;writing-mode:lr-tb;fill:#000000;fill-opacity:1;fill-rule:nonzero;stroke:none"
                     id="text102"><tspan
                       x="0"
                       y="0"
                       id="tspan100">+</tspan></text><g
                     id="g104"
                     transform="translate(54.755,107.62)" /></g><g
                   id="g106"
                   transform="translate(174.631,24.82)" /></g><g
                 id="g108"
                 transform="rotate(-90,-99.213,70.866)"><g
                   id="g110" /><g
                   id="g112"
                   transform="translate(170.079,28.347)" /></g></g><g
               id="g114" /><g
               id="g116" /><g
               id="g118" /><g
               id="g120" /><g
               id="g122" /><g
               id="g124" /><g
               id="g126" /><g
               id="g128" /><g
               id="g130" /><g
               id="g132" /><g
               id="g134" /><g
               id="g136"><g
                 id="g138"
                 transform="translate(-170.079,-56.693)"><g
                   id="g140" /><g
                   id="g142"
                   transform="translate(170.079,56.693)" /></g><g
                 id="g144"><g
                   id="g146"><path
                     d="m -170.08084,-56.69362 v -9.92134"
                     style="fill:none;stroke:#000000;stroke-width:1.19553;stroke-linecap:butt;stroke-linejoin:miter;stroke-miterlimit:10;stroke-dasharray:none;stroke-opacity:1"
                     id="path148" /><path
                     d="m -176.03369,-66.61496 h 11.9057 l -5.95285,-7.93709 z"
                     style="fill:none;stroke:#000000;stroke-width:2.39105;stroke-linecap:butt;stroke-linejoin:miter;stroke-miterlimit:10;stroke-dasharray:none;stroke-opacity:1"
                     id="path150" /></g></g></g></g><g
             id="g152"><path
               d="m 127.56062,0 h 42.52022 l -1e-5,-13.46465 m 0,-29.76431 1e-5,-13.46466"
               style="fill:none;stroke:#000000;stroke-width:1.19553;stroke-linecap:butt;stroke-linejoin:miter;stroke-miterlimit:10;stroke-dasharray:none;stroke-opacity:1"
               id="path154" /><g
               id="g156"><g
                 id="g158"
                 transform="translate(195.92,-40.286)"><g
                   id="g160"><g
                     id="g162"
                     transform="translate(-425.306,-92.154)"><text
                       transform="matrix(1,0,0,-1,425.306,92.154)"
                       style="font-variant:normal;font-weight:normal;font-size:20.6625px;font-family:LMRoman17;-inkscape-font-specification:LMRoman17-Regular;writing-mode:lr-tb;fill:#000000;fill-opacity:1;fill-rule:nonzero;stroke:none"
                       id="text166"><tspan
                         x="0 10.558548 15.724177 25.208275 35.766823 45.250919"
                         y="0"
                         sodipodi:role="line"
                         id="tspan164">Signal</tspan></text><g
                       id="g168"
                       transform="translate(425.306,92.154)" /></g></g><g
                   id="g170"
                   transform="translate(-195.92,40.286)" /></g></g><g
               id="g172" /><g
               id="g174" /><g
               id="g176"><path
                 d="m 184.96298,-28.3468 c 0,8.21928 -6.66287,14.88215 -14.88215,14.88215 -8.21929,0 -14.88216,-6.66287 -14.88216,-14.88215 0,-8.21929 6.66287,-14.88216 14.88216,-14.88216 8.21928,0 14.88215,6.66287 14.88215,14.88216 z"
                 style="fill:none;stroke:#000000;stroke-width:2.39105;stroke-linecap:butt;stroke-linejoin:miter;stroke-miterlimit:10;stroke-dasharray:none;stroke-opacity:1"
                 id="path178" /><g
                 id="g180"><g
                   id="g182"><g
                     id="g184"
                     clip-path="url(#clipPath188)"><path
                       d="M 158.17506,-46.20534 179.8646,-13.6713"
                       style="fill:none;stroke:#000000;stroke-width:1.19553;stroke-linecap:butt;stroke-linejoin:miter;stroke-miterlimit:10;stroke-dasharray:none;stroke-opacity:1"
                       id="path190" /><g
                       id="g192"
                       transform="matrix(0.55467,0.83202,-0.83202,0.55467,179.86458,-13.67131)"><g
                         id="g194"><path
                           d="m 3.8257,0 c -1.59406,0.31879 -4.4633,0.9564 -6.37616,2.39105 1.59406,-1.75345 1.59406,-3.02865 0,-4.7821 C -0.6376,-0.9564 2.23164,-0.31879 3.8257,0 Z"
                           style="fill:#000000;fill-opacity:1;fill-rule:evenodd;stroke:none"
                           id="path196" /></g></g></g></g><g
                   id="g198"
                   transform="translate(164.813,-33.469)"><g
                     id="g200"
                     transform="translate(-394.199,-98.971)"><text
                       transform="matrix(1,0,0,-1,394.199,98.971)"
                       style="font-variant:normal;font-weight:normal;font-size:14.3462px;font-family:LMRoman12;-inkscape-font-specification:LMRoman12-Regular;writing-mode:lr-tb;fill:#000000;fill-opacity:1;fill-rule:nonzero;stroke:none"
                       id="text204"><tspan
                         x="0"
                         y="0"
                         id="tspan202">A</tspan></text><g
                       id="g206"
                       transform="translate(394.199,98.971)" /></g><g
                     id="g208"
                     transform="translate(-164.813,33.469)" /></g></g><g
                 id="g210"
                 transform="rotate(-90,70.8655,-99.2125)"><g
                   id="g212" /><g
                   id="g214"
                   transform="translate(-170.078,28.347)" /></g></g><g
               id="g216" /><g
               id="g218" /><g
               id="g220"><g
                 id="g222"
                 transform="translate(170.078,-56.693)"><g
                   id="g224" /><g
                   id="g226"
                   transform="translate(-170.078,56.693)" /></g><g
                 id="g228"><g
                   id="g230"><path
                     d="m 170.08084,-56.69362 v -9.92134"
                     style="fill:none;stroke:#000000;stroke-width:1.19553;stroke-linecap:butt;stroke-linejoin:miter;stroke-miterlimit:10;stroke-dasharray:none;stroke-opacity:1"
                     id="path232" /><path
                     d="m 164.12799,-66.61496 h 11.9057 l -5.95285,-7.93709 z"
                     style="fill:none;stroke:#000000;stroke-width:2.39105;stroke-linecap:butt;stroke-linejoin:miter;stroke-miterlimit:10;stroke-dasharray:none;stroke-opacity:1"
                     id="path234" /></g></g></g></g><g
             id="g236"><path
               d="m -77.95374,0 c 0,3.91391 -3.17277,7.08669 -7.08668,7.08669 -3.91393,0 -7.08668,-3.17278 -7.08668,-7.08669 0,-3.91391 3.17275,-7.08669 7.08668,-7.08669 3.91391,0 7.08668,3.17278 7.08668,7.08669 z"
               style="fill:#5bcefa;fill-opacity:1;fill-rule:nonzero;stroke:#ffffff;stroke-width:1.19553;stroke-linecap:butt;stroke-linejoin:miter;stroke-miterlimit:10;stroke-dasharray:none;stroke-opacity:1"
               id="path238" /></g><g
             id="g240"><path
               d="m -49.60692,0 c 0,3.91391 -3.17278,7.08669 -7.0867,7.08669 -3.91391,0 -7.08668,-3.17278 -7.08668,-7.08669 0,-3.91391 3.17277,-7.08669 7.08668,-7.08669 3.91392,0 7.0867,3.17278 7.0867,7.08669 z"
               style="fill:#5bcefa;fill-opacity:1;fill-rule:nonzero;stroke:#ffffff;stroke-width:1.19553;stroke-linecap:butt;stroke-linejoin:miter;stroke-miterlimit:10;stroke-dasharray:none;stroke-opacity:1"
               id="path242" /></g><g
             id="g244"><path
               d="m -21.26012,0 c 0,3.91391 -3.17277,7.08669 -7.08668,7.08669 -3.91391,0 -7.08669,-3.17278 -7.08669,-7.08669 0,-3.91391 3.17278,-7.08669 7.08669,-7.08669 3.91391,0 7.08668,3.17278 7.08668,7.08669 z"
               style="fill:#5bcefa;fill-opacity:1;fill-rule:nonzero;stroke:#ffffff;stroke-width:1.19553;stroke-linecap:butt;stroke-linejoin:miter;stroke-miterlimit:10;stroke-dasharray:none;stroke-opacity:1"
               id="path246" /></g><g
             id="g248"><path
               d="M 7.08669,0 C 7.08669,3.91391 3.91391,7.08669 0,7.08669 -3.91391,7.08669 -7.08669,3.91391 -7.08669,0 c 0,-3.91391 3.17278,-7.08669 7.08669,-7.08669 3.91391,0 7.08669,3.17278 7.08669,7.08669 z"
               style="fill:#5bcefa;fill-opacity:1;fill-rule:nonzero;stroke:#ffffff;stroke-width:1.19553;stroke-linecap:butt;stroke-linejoin:miter;stroke-miterlimit:10;stroke-dasharray:none;stroke-opacity:1"
               id="path250" /></g><g
             id="g252"><path
               d="m 35.43349,0 c 0,3.91391 -3.17278,7.08669 -7.08669,7.08669 -3.91391,0 -7.08668,-3.17278 -7.08668,-7.08669 0,-3.91391 3.17277,-7.08669 7.08668,-7.08669 3.91391,0 7.08669,3.17278 7.08669,7.08669 z"
               style="fill:#5bcefa;fill-opacity:1;fill-rule:nonzero;stroke:#ffffff;stroke-width:1.19553;stroke-linecap:butt;stroke-linejoin:miter;stroke-miterlimit:10;stroke-dasharray:none;stroke-opacity:1"
               id="path254" /></g><g
             id="g256"><path
               d="m 63.7803,0 c 0,3.91391 -3.17277,7.08669 -7.08668,7.08669 -3.91392,0 -7.0867,-3.17278 -7.0867,-7.08669 0,-3.91391 3.17278,-7.08669 7.0867,-7.08669 3.91391,0 7.08668,3.17278 7.08668,7.08669 z"
               style="fill:#5bcefa;fill-opacity:1;fill-rule:nonzero;stroke:#ffffff;stroke-width:1.19553;stroke-linecap:butt;stroke-linejoin:miter;stroke-miterlimit:10;stroke-dasharray:none;stroke-opacity:1"
               id="path258" /></g><g
             id="g260"><path
               d="m 92.1271,0 c 0,3.91391 -3.17275,7.08669 -7.08668,7.08669 -3.91391,0 -7.08668,-3.17278 -7.08668,-7.08669 0,-3.91391 3.17277,-7.08669 7.08668,-7.08669 3.91393,0 7.08668,3.17278 7.08668,7.08669 z"
               style="fill:#5bcefa;fill-opacity:1;fill-rule:nonzero;stroke:#ffffff;stroke-width:1.19553;stroke-linecap:butt;stroke-linejoin:miter;stroke-miterlimit:10;stroke-dasharray:none;stroke-opacity:1"
               id="path262" /></g><g
             id="g264"><path
               d="M -85.04042,12.75595 H 77.14987"
               style="fill:none;stroke:#ffffff;stroke-width:1.99255;stroke-linecap:butt;stroke-linejoin:miter;stroke-miterlimit:10;stroke-dasharray:none;stroke-opacity:1"
               id="path266" /><g
               id="g268"
               transform="translate(77.14987,12.75595)"><g
                 id="g270"><path
                   d="M 7.89055,0 C 5.55257,0.43835 1.75345,1.75345 -0.87672,3.28772 V -3.28772 C 1.75345,-1.75345 5.55257,-0.43835 7.89055,0"
                   style="fill:#ffffff;fill-opacity:1;fill-rule:nonzero;stroke:none"
                   id="path272" /></g></g></g><g
             id="g274"><path
               d="m 0,56.69362 v 13.46464 m 0,29.76432 v 13.46466"
               style="fill:none;stroke:#000000;stroke-width:1.19553;stroke-linecap:butt;stroke-linejoin:miter;stroke-miterlimit:10;stroke-dasharray:none;stroke-opacity:1"
               id="path276" /><g
               id="g278"><g
                 id="g280"
                 transform="translate(18.755,81.331)"><g
                   id="g282"><g
                     id="g284"
                     transform="translate(-248.141,-213.771)"><text
                       transform="matrix(1,0,0,-1,248.141,213.771)"
                       style="font-variant:normal;font-weight:normal;font-size:20.6625px;font-family:CMMI12;-inkscape-font-specification:CMMI12;writing-mode:lr-tb;fill:#000000;fill-opacity:1;fill-rule:nonzero;stroke:none"
                       id="text288"><tspan
                         x="0"
                         y="0"
                         id="tspan286">V</tspan></text><text
                       transform="matrix(1,0,0,-1,259.936,210.671)"
                       style="font-variant:normal;font-weight:normal;font-size:14.3462px;font-family:LMRoman12;-inkscape-font-specification:LMRoman12-Regular;writing-mode:lr-tb;fill:#000000;fill-opacity:1;fill-rule:nonzero;stroke:none"
                       id="text292"><tspan
                         x="0 7.4169855 15.608665"
                         y="0"
                         sodipodi:role="line"
                         id="tspan290">qpc</tspan></text><g
                       id="g294"
                       transform="translate(248.141,213.771)" /></g></g><g
                   id="g296"
                   transform="translate(-18.755,-81.331)" /></g></g><g
               id="g298" /><g
               id="g300" /><g
               id="g302"><path
                 d="m -14.88216,85.04042 c 0,-8.21928 6.66288,-14.88216 14.88216,-14.88216 8.21928,0 14.88216,6.66288 14.88216,14.88216 0,8.21928 -6.66288,14.88216 -14.88216,14.88216 -8.21928,0 -14.88216,-6.66288 -14.88216,-14.88216 z"
                 style="fill:none;stroke:#000000;stroke-width:2.39105;stroke-linecap:butt;stroke-linejoin:miter;stroke-miterlimit:10;stroke-dasharray:none;stroke-opacity:1"
                 id="path304" /><g
                 id="g306"
                 transform="rotate(180,2.3245,47.23)"><g
                   id="g308"
                   transform="translate(-234.035,-226.9)"><text
                     transform="matrix(1,0,0,-1,234.035,226.9)"
                     style="font-variant:normal;font-weight:normal;font-size:11.9552px;font-family:CMSY10;-inkscape-font-specification:CMSY10;writing-mode:lr-tb;fill:#000000;fill-opacity:1;fill-rule:nonzero;stroke:none"
                     id="text312"><tspan
                       x="0"
                       y="0"
                       id="tspan310">−</tspan></text><g
                     id="g314"
                     transform="translate(234.035,226.9)" /></g><g
                   id="g316"
                   transform="translate(-4.649,-94.46)" /></g><g
                 id="g318"
                 transform="rotate(180,2.276,40.756)"><g
                   id="g320"
                   transform="translate(-233.938,-213.952)"><text
                     transform="matrix(1,0,0,-1,233.938,213.952)"
                     style="font-variant:normal;font-weight:normal;font-size:11.9552px;font-family:CMR12;-inkscape-font-specification:CMR12;writing-mode:lr-tb;fill:#000000;fill-opacity:1;fill-rule:nonzero;stroke:none"
                     id="text324"><tspan
                       x="0"
                       y="0"
                       id="tspan322">+</tspan></text><g
                     id="g326"
                     transform="translate(233.938,213.952)" /></g><g
                   id="g328"
                   transform="translate(-4.552,-81.512)" /></g><g
                 id="g330"
                 transform="rotate(90,-42.5195,42.5195)"><g
                   id="g332" /><g
                   id="g334"
                   transform="translate(0,-85.039)" /></g></g><g
               id="g336" /><g
               id="g338" /><g
               id="g340" /><g
               id="g342" /><g
               id="g344" /><g
               id="g346" /><g
               id="g348" /><g
               id="g350" /><g
               id="g352" /><g
               id="g354" /><g
               id="g356" /><g
               id="g358"><g
                 id="g360"
                 transform="rotate(180,0,56.6925)"><g
                   id="g362" /><g
                   id="g364"
                   transform="translate(0,-113.385)" /></g><g
                 id="g366"><g
                   id="g368"><path
                     d="m 0,113.38724 v 9.92134"
                     style="fill:none;stroke:#000000;stroke-width:1.19553;stroke-linecap:butt;stroke-linejoin:miter;stroke-miterlimit:10;stroke-dasharray:none;stroke-opacity:1"
                     id="path370" /><path
                     d="M 5.95285,123.30858 H -5.95285 L 0,131.24567 Z"
                     style="fill:none;stroke:#000000;stroke-width:2.39105;stroke-linecap:butt;stroke-linejoin:miter;stroke-miterlimit:10;stroke-dasharray:none;stroke-opacity:1"
                     id="path372" /></g></g></g></g><g
             id="g374"><path
               d="m 0,-56.69362 v -13.46464 m 0,-29.76432 v -13.46466"
               style="fill:none;stroke:#000000;stroke-width:1.19553;stroke-linecap:butt;stroke-linejoin:miter;stroke-miterlimit:10;stroke-dasharray:none;stroke-opacity:1"
               id="path376" /><g
               id="g378"><g
                 id="g380"
                 transform="translate(18.755,-89.568)"><g
                   id="g382"><g
                     id="g384"
                     transform="translate(-248.141,-42.872)"><text
                       transform="matrix(1,0,0,-1,248.141,42.872)"
                       style="font-variant:normal;font-weight:normal;font-size:20.6625px;font-family:CMMI12;-inkscape-font-specification:CMMI12;writing-mode:lr-tb;fill:#000000;fill-opacity:1;fill-rule:nonzero;stroke:none"
                       id="text388"><tspan
                         x="0"
                         y="0"
                         id="tspan386">V</tspan></text><text
                       transform="matrix(1,0,0,-1,259.936,39.772)"
                       style="font-variant:normal;font-weight:normal;font-size:14.3462px;font-family:LMRoman12;-inkscape-font-specification:LMRoman12-Regular;writing-mode:lr-tb;fill:#000000;fill-opacity:1;fill-rule:nonzero;stroke:none"
                       id="text392"><tspan
                         x="0 7.4169855 15.608665"
                         y="0"
                         sodipodi:role="line"
                         id="tspan390">qpc</tspan></text><g
                       id="g394"
                       transform="translate(248.141,42.872)" /></g></g><g
                   id="g396"
                   transform="translate(-18.755,89.568)" /></g></g><g
               id="g398" /><g
               id="g400" /><g
               id="g402"><path
                 d="m 14.88216,-85.04042 c 0,8.21928 -6.66288,14.88216 -14.88216,14.88216 -8.21928,0 -14.88216,-6.66288 -14.88216,-14.88216 0,-8.21928 6.66288,-14.88216 14.88216,-14.88216 8.21928,0 14.88216,6.66288 14.88216,14.88216 z"
                 style="fill:none;stroke:#000000;stroke-width:2.39105;stroke-linecap:butt;stroke-linejoin:miter;stroke-miterlimit:10;stroke-dasharray:none;stroke-opacity:1"
                 id="path404" /><g
                 id="g406"
                 transform="translate(-4.65,-94.461)"><g
                   id="g408"
                   transform="translate(-224.736,-37.979)"><text
                     transform="matrix(1,0,0,-1,224.736,37.979)"
                     style="font-variant:normal;font-weight:normal;font-size:11.9552px;font-family:CMSY10;-inkscape-font-specification:CMSY10;writing-mode:lr-tb;fill:#000000;fill-opacity:1;fill-rule:nonzero;stroke:none"
                     id="text412"><tspan
                       x="0"
                       y="0"
                       id="tspan410">−</tspan></text><g
                     id="g414"
                     transform="translate(224.736,37.979)" /></g><g
                   id="g416"
                   transform="translate(4.65,94.461)" /></g><g
                 id="g418"
                 transform="translate(-4.553,-81.513)"><g
                   id="g420"
                   transform="translate(-224.833,-50.927)"><text
                     transform="matrix(1,0,0,-1,224.833,50.927)"
                     style="font-variant:normal;font-weight:normal;font-size:11.9552px;font-family:CMR12;-inkscape-font-specification:CMR12;writing-mode:lr-tb;fill:#000000;fill-opacity:1;fill-rule:nonzero;stroke:none"
                     id="text424"><tspan
                       x="0"
                       y="0"
                       id="tspan422">+</tspan></text><g
                     id="g426"
                     transform="translate(224.833,50.927)" /></g><g
                   id="g428"
                   transform="translate(4.553,81.513)" /></g><g
                 id="g430"
                 transform="rotate(-90,-42.52,-42.52)"><g
                   id="g432" /><g
                   id="g434"
                   transform="translate(0,85.04)" /></g></g><g
               id="g436" /><g
               id="g438" /><g
               id="g440" /><g
               id="g442" /><g
               id="g444" /><g
               id="g446" /><g
               id="g448" /><g
               id="g450" /><g
               id="g452" /><g
               id="g454" /><g
               id="g456" /><g
               id="g458"><g
                 id="g460"
                 transform="translate(0,-113.386)"><g
                   id="g462" /><g
                   id="g464"
                   transform="translate(0,113.386)" /></g><g
                 id="g466"><g
                   id="g468"><path
                     d="m 0,-113.38724 v -9.92134"
                     style="fill:none;stroke:#000000;stroke-width:1.19553;stroke-linecap:butt;stroke-linejoin:miter;stroke-miterlimit:10;stroke-dasharray:none;stroke-opacity:1"
                     id="path470" /><path
                     d="M -5.95285,-123.30858 H 5.95285 L 0,-131.24567 Z"
                     style="fill:none;stroke:#000000;stroke-width:2.39105;stroke-linecap:butt;stroke-linejoin:miter;stroke-miterlimit:10;stroke-dasharray:none;stroke-opacity:1"
                     id="path472" /></g></g></g></g></g></g></g></g></svg>
