<?xml version="1.0" encoding="UTF-8" standalone="no"?>
<!-- Created with Inkscape (http://www.inkscape.org/) -->

<svg
   version="1.1"
   id="svg2"
   xml:space="preserve"
   width="639.61066"
   height="176.85201"
   viewBox="0 0 639.61066 176.85201"
   sodipodi:docname="tunnelling.pdf"
   xmlns:inkscape="http://www.inkscape.org/namespaces/inkscape"
   xmlns:sodipodi="http://sodipodi.sourceforge.net/DTD/sodipodi-0.dtd"
   xmlns="http://www.w3.org/2000/svg"
   xmlns:svg="http://www.w3.org/2000/svg"><defs
     id="defs6"><clipPath
       clipPathUnits="userSpaceOnUse"
       id="clipPath172"><path
         d="m 140.3165,-58.11111 h 59.52863 V 1.41752 H 140.3165 Z m 29.76433,38.69369 c -4.93161,0 -8.92939,-3.99777 -8.92939,-8.92938 0,-4.93161 3.99778,-8.92938 8.92939,-8.92938 4.93161,0 8.92938,3.99777 8.92938,8.92938 0,4.93161 -3.99777,8.92938 -8.92938,8.92938 z"
         clip-rule="evenodd"
         id="path170" /></clipPath></defs><sodipodi:namedview
     id="namedview4"
     pagecolor="#505050"
     bordercolor="#eeeeee"
     borderopacity="1"
     inkscape:pageshadow="0"
     inkscape:pageopacity="0"
     inkscape:pagecheckerboard="0" /><g
     id="g8"
     inkscape:groupmode="layer"
     inkscape:label="tunnelling"
     transform="matrix(1.3333333,0,0,-1.3333333,0,176.852)"><g
       id="g10"
       transform="translate(229.386,75.747)"><g
         id="g12"><g
           id="g14"><g
             id="g16"><path
               d="M -141.73404,-56.69362 V 56.69362 H 141.73404 V -56.69362 Z"
               style="fill:#122d8d;fill-opacity:1;fill-rule:nonzero;stroke:#122d8d;stroke-width:0.3985;stroke-linecap:butt;stroke-linejoin:miter;stroke-miterlimit:10;stroke-dasharray:none;stroke-opacity:1"
               id="path18" /></g><g
             id="g20"><path
               d="M -127.56062,-14.17339 V 14.1734 h 28.3468 v -28.34679 z"
               style="fill:#b3b3b3;fill-opacity:1;fill-rule:nonzero;stroke:#000000;stroke-width:1.19553;stroke-linecap:butt;stroke-linejoin:miter;stroke-miterlimit:10;stroke-dasharray:none;stroke-opacity:1"
               id="path22" /></g><g
             id="g24"><path
               d="M 127.56062,-14.17339 V 14.1734 h -28.3468 v -28.34679 z"
               style="fill:#b3b3b3;fill-opacity:1;fill-rule:nonzero;stroke:#000000;stroke-width:1.19553;stroke-linecap:butt;stroke-linejoin:miter;stroke-miterlimit:10;stroke-dasharray:none;stroke-opacity:1"
               id="path26" /></g><g
             id="g28"><path
               d="m -127.56062,-14.17339 28.3468,28.34679 m -28.3468,-1e-5 28.3468,-28.34679"
               style="fill:none;stroke:#000000;stroke-width:1.19553;stroke-linecap:butt;stroke-linejoin:miter;stroke-miterlimit:10;stroke-dasharray:none;stroke-opacity:1"
               id="path30" /></g><g
             id="g32"><path
               d="M 127.56062,-14.17339 99.21382,14.1734 m 28.3468,-1e-5 -28.3468,-28.34679"
               style="fill:none;stroke:#000000;stroke-width:1.19553;stroke-linecap:butt;stroke-linejoin:miter;stroke-miterlimit:10;stroke-dasharray:none;stroke-opacity:1"
               id="path34" /></g><g
             id="g36"><path
               d="m -127.56062,0 h -42.52022 l 1e-5,-13.46465 m 0,-29.76431 -1e-5,-13.46466"
               style="fill:none;stroke:#000000;stroke-width:1.19553;stroke-linecap:butt;stroke-linejoin:miter;stroke-miterlimit:10;stroke-dasharray:none;stroke-opacity:1"
               id="path38" /><g
               id="g40"><g
                 id="g42"
                 transform="translate(-225.401,-32.875)"><g
                   id="g44"><g
                     id="g46"
                     transform="translate(-3.985,-42.872)"><text
                       transform="matrix(1,0,0,-1,3.985,42.872)"
                       style="font-variant:normal;font-weight:normal;font-size:20.6625px;font-family:CMMI12;-inkscape-font-specification:CMMI12;writing-mode:lr-tb;fill:#000000;fill-opacity:1;fill-rule:nonzero;stroke:none"
                       id="text50"><tspan
                         x="0"
                         y="0"
                         id="tspan48">V</tspan></text><text
                       transform="matrix(1,0,0,-1,15.779,39.772)"
                       style="font-variant:normal;font-weight:normal;font-size:14.3462px;font-family:LMRoman12;-inkscape-font-specification:LMRoman12-Regular;writing-mode:lr-tb;fill:#000000;fill-opacity:1;fill-rule:nonzero;stroke:none"
                       id="text54"><tspan
                         x="0 7.8043327 11.706499 18.736137"
                         y="0"
                         sodipodi:role="line"
                         id="tspan52">bias</tspan></text><g
                       id="g56"
                       transform="translate(3.985,42.872)" /></g></g><g
                   id="g58"
                   transform="translate(225.401,32.875)" /></g></g><g
               id="g60" /><g
               id="g62" /><g
               id="g64"><path
                 d="m -155.19867,-28.3468 c 0,8.21928 -6.66287,14.88215 -14.88216,14.88215 -8.21928,0 -14.88215,-6.66287 -14.88215,-14.88215 0,-8.21929 6.66287,-14.88216 14.88215,-14.88216 8.21929,0 14.88216,6.66287 14.88216,14.88216 z"
                 style="fill:none;stroke:#000000;stroke-width:2.39105;stroke-linecap:butt;stroke-linejoin:miter;stroke-miterlimit:10;stroke-dasharray:none;stroke-opacity:1"
                 id="path66" /><g
                 id="g68"
                 transform="translate(-174.728,-37.768)"><g
                   id="g70"
                   transform="translate(-54.658,-37.979)"><text
                     transform="matrix(1,0,0,-1,54.658,37.979)"
                     style="font-variant:normal;font-weight:normal;font-size:11.9552px;font-family:CMSY10;-inkscape-font-specification:CMSY10;writing-mode:lr-tb;fill:#000000;fill-opacity:1;fill-rule:nonzero;stroke:none"
                     id="text74"><tspan
                       x="0"
                       y="0"
                       id="tspan72">−</tspan></text><g
                     id="g76"
                     transform="translate(54.658,37.979)" /></g><g
                   id="g78"
                   transform="translate(174.728,37.768)" /></g><g
                 id="g80"
                 transform="translate(-174.631,-24.82)"><g
                   id="g82"
                   transform="translate(-54.755,-50.927)"><text
                     transform="matrix(1,0,0,-1,54.755,50.927)"
                     style="font-variant:normal;font-weight:normal;font-size:11.9552px;font-family:CMR12;-inkscape-font-specification:CMR12;writing-mode:lr-tb;fill:#000000;fill-opacity:1;fill-rule:nonzero;stroke:none"
                     id="text86"><tspan
                       x="0"
                       y="0"
                       id="tspan84">+</tspan></text><g
                     id="g88"
                     transform="translate(54.755,50.927)" /></g><g
                   id="g90"
                   transform="translate(174.631,24.82)" /></g><g
                 id="g92"
                 transform="rotate(-90,-99.213,70.866)"><g
                   id="g94" /><g
                   id="g96"
                   transform="translate(170.079,28.347)" /></g></g><g
               id="g98" /><g
               id="g100" /><g
               id="g102" /><g
               id="g104" /><g
               id="g106" /><g
               id="g108" /><g
               id="g110" /><g
               id="g112" /><g
               id="g114" /><g
               id="g116" /><g
               id="g118" /><g
               id="g120"><g
                 id="g122"
                 transform="translate(-170.079,-56.693)"><g
                   id="g124" /><g
                   id="g126"
                   transform="translate(170.079,56.693)" /></g><g
                 id="g128"><g
                   id="g130"><path
                     d="m -170.08084,-56.69362 v -9.92134"
                     style="fill:none;stroke:#000000;stroke-width:1.19553;stroke-linecap:butt;stroke-linejoin:miter;stroke-miterlimit:10;stroke-dasharray:none;stroke-opacity:1"
                     id="path132" /><path
                     d="m -176.03369,-66.61496 h 11.9057 l -5.95285,-7.93709 z"
                     style="fill:none;stroke:#000000;stroke-width:2.39105;stroke-linecap:butt;stroke-linejoin:miter;stroke-miterlimit:10;stroke-dasharray:none;stroke-opacity:1"
                     id="path134" /></g></g></g></g><g
             id="g136"><path
               d="m 127.56062,0 h 42.52022 l -1e-5,-13.46465 m 0,-29.76431 1e-5,-13.46466"
               style="fill:none;stroke:#000000;stroke-width:1.19553;stroke-linecap:butt;stroke-linejoin:miter;stroke-miterlimit:10;stroke-dasharray:none;stroke-opacity:1"
               id="path138" /><g
               id="g140"><g
                 id="g142"
                 transform="translate(195.92,-40.286)"><g
                   id="g144"><g
                     id="g146"
                     transform="translate(-425.306,-35.461)"><text
                       transform="matrix(1,0,0,-1,425.306,35.461)"
                       style="font-variant:normal;font-weight:normal;font-size:20.6625px;font-family:LMRoman17;-inkscape-font-specification:LMRoman17-Regular;writing-mode:lr-tb;fill:#000000;fill-opacity:1;fill-rule:nonzero;stroke:none"
                       id="text150"><tspan
                         x="0 10.558548 15.724177 25.208275 35.766823 45.250919"
                         y="0"
                         sodipodi:role="line"
                         id="tspan148">Signal</tspan></text><g
                       id="g152"
                       transform="translate(425.306,35.461)" /></g></g><g
                   id="g154"
                   transform="translate(-195.92,40.286)" /></g></g><g
               id="g156" /><g
               id="g158" /><g
               id="g160"><path
                 d="m 184.96298,-28.3468 c 0,8.21928 -6.66287,14.88215 -14.88215,14.88215 -8.21929,0 -14.88216,-6.66287 -14.88216,-14.88215 0,-8.21929 6.66287,-14.88216 14.88216,-14.88216 8.21928,0 14.88215,6.66287 14.88215,14.88216 z"
                 style="fill:none;stroke:#000000;stroke-width:2.39105;stroke-linecap:butt;stroke-linejoin:miter;stroke-miterlimit:10;stroke-dasharray:none;stroke-opacity:1"
                 id="path162" /><g
                 id="g164"><g
                   id="g166"><g
                     id="g168"
                     clip-path="url(#clipPath172)"><path
                       d="M 158.17506,-46.20534 179.8646,-13.6713"
                       style="fill:none;stroke:#000000;stroke-width:1.19553;stroke-linecap:butt;stroke-linejoin:miter;stroke-miterlimit:10;stroke-dasharray:none;stroke-opacity:1"
                       id="path174" /><g
                       id="g176"
                       transform="matrix(0.55467,0.83202,-0.83202,0.55467,179.86458,-13.67131)"><g
                         id="g178"><path
                           d="m 3.8257,0 c -1.59406,0.31879 -4.4633,0.9564 -6.37616,2.39105 1.59406,-1.75345 1.59406,-3.02865 0,-4.7821 C -0.6376,-0.9564 2.23164,-0.31879 3.8257,0 Z"
                           style="fill:#000000;fill-opacity:1;fill-rule:evenodd;stroke:none"
                           id="path180" /></g></g></g></g><g
                   id="g182"
                   transform="translate(164.813,-33.468)"><g
                     id="g184"
                     transform="translate(-394.199,-42.279)"><text
                       transform="matrix(1,0,0,-1,394.199,42.279)"
                       style="font-variant:normal;font-weight:normal;font-size:14.3462px;font-family:LMRoman12;-inkscape-font-specification:LMRoman12-Regular;writing-mode:lr-tb;fill:#000000;fill-opacity:1;fill-rule:nonzero;stroke:none"
                       id="text188"><tspan
                         x="0"
                         y="0"
                         id="tspan186">A</tspan></text><g
                       id="g190"
                       transform="translate(394.199,42.279)" /></g><g
                     id="g192"
                     transform="translate(-164.813,33.468)" /></g></g><g
                 id="g194"
                 transform="rotate(-90,70.8655,-99.2125)"><g
                   id="g196" /><g
                   id="g198"
                   transform="translate(-170.078,28.347)" /></g></g><g
               id="g200" /><g
               id="g202" /><g
               id="g204"><g
                 id="g206"
                 transform="translate(170.078,-56.693)"><g
                   id="g208" /><g
                   id="g210"
                   transform="translate(-170.078,56.693)" /></g><g
                 id="g212"><g
                   id="g214"><path
                     d="m 170.08084,-56.69362 v -9.92134"
                     style="fill:none;stroke:#000000;stroke-width:1.19553;stroke-linecap:butt;stroke-linejoin:miter;stroke-miterlimit:10;stroke-dasharray:none;stroke-opacity:1"
                     id="path216" /><path
                     d="m 164.12799,-66.61496 h 11.9057 l -5.95285,-7.93709 z"
                     style="fill:none;stroke:#000000;stroke-width:2.39105;stroke-linecap:butt;stroke-linejoin:miter;stroke-miterlimit:10;stroke-dasharray:none;stroke-opacity:1"
                     id="path218" /></g></g></g></g><g
             id="g220"><path
               d="m -77.95374,0 c 0,3.91391 -3.17277,7.08669 -7.08668,7.08669 -3.91393,0 -7.08668,-3.17278 -7.08668,-7.08669 0,-3.91391 3.17275,-7.08669 7.08668,-7.08669 3.91391,0 7.08668,3.17278 7.08668,7.08669 z"
               style="fill:#5bcefa;fill-opacity:1;fill-rule:nonzero;stroke:#ffffff;stroke-width:1.19553;stroke-linecap:butt;stroke-linejoin:miter;stroke-miterlimit:10;stroke-dasharray:none;stroke-opacity:1"
               id="path222" /></g><g
             id="g224"><path
               d="m -49.60692,0 c 0,3.91391 -3.17278,7.08669 -7.0867,7.08669 -3.91391,0 -7.08668,-3.17278 -7.08668,-7.08669 0,-3.91391 3.17277,-7.08669 7.08668,-7.08669 3.91392,0 7.0867,3.17278 7.0867,7.08669 z"
               style="fill:#5bcefa;fill-opacity:1;fill-rule:nonzero;stroke:#ffffff;stroke-width:1.19553;stroke-linecap:butt;stroke-linejoin:miter;stroke-miterlimit:10;stroke-dasharray:none;stroke-opacity:1"
               id="path226" /></g><g
             id="g228"><path
               d="m -21.26012,0 c 0,3.91391 -3.17277,7.08669 -7.08668,7.08669 -3.91391,0 -7.08669,-3.17278 -7.08669,-7.08669 0,-3.91391 3.17278,-7.08669 7.08669,-7.08669 3.91391,0 7.08668,3.17278 7.08668,7.08669 z"
               style="fill:#5bcefa;fill-opacity:1;fill-rule:nonzero;stroke:#ffffff;stroke-width:1.19553;stroke-linecap:butt;stroke-linejoin:miter;stroke-miterlimit:10;stroke-dasharray:none;stroke-opacity:1"
               id="path230" /></g><g
             id="g232"><path
               d="M 7.08669,0 C 7.08669,3.91391 3.91391,7.08669 0,7.08669 -3.91391,7.08669 -7.08669,3.91391 -7.08669,0 c 0,-3.91391 3.17278,-7.08669 7.08669,-7.08669 3.91391,0 7.08669,3.17278 7.08669,7.08669 z"
               style="fill:#5bcefa;fill-opacity:1;fill-rule:nonzero;stroke:#ffffff;stroke-width:1.19553;stroke-linecap:butt;stroke-linejoin:miter;stroke-miterlimit:10;stroke-dasharray:none;stroke-opacity:1"
               id="path234" /></g><g
             id="g236"><path
               d="m 35.43349,0 c 0,3.91391 -3.17278,7.08669 -7.08669,7.08669 -3.91391,0 -7.08668,-3.17278 -7.08668,-7.08669 0,-3.91391 3.17277,-7.08669 7.08668,-7.08669 3.91391,0 7.08669,3.17278 7.08669,7.08669 z"
               style="fill:#5bcefa;fill-opacity:1;fill-rule:nonzero;stroke:#ffffff;stroke-width:1.19553;stroke-linecap:butt;stroke-linejoin:miter;stroke-miterlimit:10;stroke-dasharray:none;stroke-opacity:1"
               id="path238" /></g><g
             id="g240"><path
               d="m 63.7803,0 c 0,3.91391 -3.17277,7.08669 -7.08668,7.08669 -3.91392,0 -7.0867,-3.17278 -7.0867,-7.08669 0,-3.91391 3.17278,-7.08669 7.0867,-7.08669 3.91391,0 7.08668,3.17278 7.08668,7.08669 z"
               style="fill:#5bcefa;fill-opacity:1;fill-rule:nonzero;stroke:#ffffff;stroke-width:1.19553;stroke-linecap:butt;stroke-linejoin:miter;stroke-miterlimit:10;stroke-dasharray:none;stroke-opacity:1"
               id="path242" /></g><g
             id="g244"><path
               d="m 92.1271,0 c 0,3.91391 -3.17275,7.08669 -7.08668,7.08669 -3.91391,0 -7.08668,-3.17278 -7.08668,-7.08669 0,-3.91391 3.17277,-7.08669 7.08668,-7.08669 3.91393,0 7.08668,3.17278 7.08668,7.08669 z"
               style="fill:#5bcefa;fill-opacity:1;fill-rule:nonzero;stroke:#ffffff;stroke-width:1.19553;stroke-linecap:butt;stroke-linejoin:miter;stroke-miterlimit:10;stroke-dasharray:none;stroke-opacity:1"
               id="path246" /></g><g
             id="g248"><path
               d="M -85.04042,12.75595 H 77.14987"
               style="fill:none;stroke:#ffffff;stroke-width:1.99255;stroke-linecap:butt;stroke-linejoin:miter;stroke-miterlimit:10;stroke-dasharray:none;stroke-opacity:1"
               id="path250" /><g
               id="g252"
               transform="translate(77.14987,12.75595)"><g
                 id="g254"><path
                   d="M 7.89055,0 C 5.55257,0.43835 1.75345,1.75345 -0.87672,3.28772 V -3.28772 C 1.75345,-1.75345 5.55257,-0.43835 7.89055,0"
                   style="fill:#ffffff;fill-opacity:1;fill-rule:nonzero;stroke:none"
                   id="path256" /></g></g></g></g></g></g></g></svg>
