<?xml version="1.0" encoding="UTF-8" standalone="no"?>
<!-- Created with Inkscape (http://www.inkscape.org/) -->

<svg
   version="1.1"
   id="svg1"
   width="397.84"
   height="275.72534"
   viewBox="0 0 397.84 275.72534"
   sodipodi:docname="2DEG_bands.pdf"
   xmlns:inkscape="http://www.inkscape.org/namespaces/inkscape"
   xmlns:sodipodi="http://sodipodi.sourceforge.net/DTD/sodipodi-0.dtd"
   xmlns="http://www.w3.org/2000/svg"
   xmlns:svg="http://www.w3.org/2000/svg">
  <defs
     id="defs1" />
  <sodipodi:namedview
     id="namedview1"
     pagecolor="#ffffff"
     bordercolor="#000000"
     borderopacity="0.25"
     inkscape:showpageshadow="2"
     inkscape:pageopacity="0.0"
     inkscape:pagecheckerboard="0"
     inkscape:deskcolor="#d1d1d1">
    <inkscape:page
       x="0"
       y="0"
       inkscape:label="1"
       id="page1"
       width="397.84"
       height="275.72534"
       margin="0"
       bleed="0" />
  </sodipodi:namedview>
  <g
     id="g1"
     inkscape:groupmode="layer"
     inkscape:label="1">
    <path
       id="path1"
       d="m -113.38724,33.2189 4.72418,-4.2817 4.72419,-3.98583 4.72418,-3.69084 4.72418,-3.39586 4.72418,-3.10043 4.72419,-2.80458 4.72418,-2.51001 4.72416,-2.21459 4.72419,-1.91917 4.72418,-1.62419 4.72418,-1.32875 4.72418,-1.03377 L -51.97289,0.5904 -47.2487,0.14748 -42.52454,0 l 4.72419,0.14703 4.72418,0.44251 4.72418,0.7379 4.72419,1.0329 4.72417,1.32876 4.72419,1.62331 4.72418,1.91875 4.72416,2.21415 4.72419,2.5096 v -77.95372 c 13.76669,51.37801 67.28357,63.78032 120.47392,63.78032"
       style="fill:none;stroke:#000000;stroke-width:1.19553;stroke-linecap:butt;stroke-linejoin:miter;stroke-miterlimit:10;stroke-dasharray:none;stroke-opacity:1"
       transform="matrix(1.3333333,0,0,-1.3333333,181.24533,101.52533)" />
    <text
       id="text1"
       xml:space="preserve"
       transform="matrix(1.3333333,0,0,1.3333333,18.012,83.005333)"><tspan
         id="tspan1"
         style="font-variant:normal;font-weight:700;font-size:20.6625px;font-family:'Latin Modern Roman';writing-mode:lr-tb;fill:#f9123c;fill-opacity:1;fill-rule:nonzero;stroke:none"
         x="0"
         y="0">+</tspan></text>
    <text
       id="text2"
       xml:space="preserve"
       transform="matrix(1.3333333,0,0,1.3333333,46.357333,105.59467)"><tspan
         id="tspan2"
         style="font-variant:normal;font-weight:700;font-size:20.6625px;font-family:'Latin Modern Roman';writing-mode:lr-tb;fill:#f9123c;fill-opacity:1;fill-rule:nonzero;stroke:none"
         x="0"
         y="0">+</tspan></text>
    <text
       id="text3"
       xml:space="preserve"
       transform="matrix(1.3333333,0,0,1.3333333,74.704,120.21067)"><tspan
         id="tspan3"
         style="font-variant:normal;font-weight:700;font-size:20.6625px;font-family:'Latin Modern Roman';writing-mode:lr-tb;fill:#f9123c;fill-opacity:1;fill-rule:nonzero;stroke:none"
         x="0"
         y="0">+</tspan></text>
    <text
       id="text4"
       xml:space="preserve"
       transform="matrix(1.3333333,0,0,1.3333333,103.05067,126.85333)"><tspan
         id="tspan4"
         style="font-variant:normal;font-weight:700;font-size:20.6625px;font-family:'Latin Modern Roman';writing-mode:lr-tb;fill:#f9123c;fill-opacity:1;fill-rule:nonzero;stroke:none"
         x="0"
         y="0">+</tspan></text>
    <path
       id="path4"
       d="M 7.08669,-49.6069 H 34.74924"
       style="fill:none;stroke:#122d8d;stroke-width:1.19553;stroke-linecap:butt;stroke-linejoin:miter;stroke-miterlimit:10;stroke-dasharray:none;stroke-opacity:1"
       transform="matrix(1.3333333,0,0,-1.3333333,181.24533,101.52533)" />
    <path
       id="path5"
       d="M 5.30629,0 C 4.65466,0.16344 1.79025,1.08963 0,2.09753 V -2.09753 C 1.79025,-1.08963 4.65466,-0.16344 5.30629,0 Z"
       style="fill:#122d8d;fill-opacity:1;fill-rule:nonzero;stroke:#122d8d;stroke-width:1.19553;stroke-linecap:butt;stroke-linejoin:miter;stroke-miterlimit:10;stroke-dasharray:none;stroke-opacity:1"
       transform="matrix(1.3333333,0,0,-1.3333333,227.57765,167.66787)" />
    <text
       id="text5"
       xml:space="preserve"
       transform="matrix(1.3333333,0,0,1.3333333,244.048,177.076)"><tspan
         id="tspan5"
         style="font-variant:normal;font-weight:normal;font-size:20.6625px;font-family:'Latin Modern Roman';writing-mode:lr-tb;fill:#122d8d;fill-opacity:1;fill-rule:nonzero;stroke:none"
         x="0"
         y="0">2DEG</tspan></text>
    <path
       id="path6"
       d="M 0,-42.5202 H 10.77191"
       style="fill:none;stroke:#000000;stroke-width:1.19553;stroke-linecap:butt;stroke-linejoin:miter;stroke-miterlimit:10;stroke-dasharray:none;stroke-opacity:1"
       transform="matrix(1.3333333,0,0,-1.3333333,181.24533,101.52533)" />
    <path
       id="path7"
       d="M 0,-28.3468 H 23.24458"
       style="fill:none;stroke:#000000;stroke-width:1.19553;stroke-linecap:butt;stroke-linejoin:miter;stroke-miterlimit:10;stroke-dasharray:none;stroke-opacity:1"
       transform="matrix(1.3333333,0,0,-1.3333333,181.24533,101.52533)" />
    <path
       id="path8"
       d="M -127.56062,-35.43349 H 127.56064"
       style="fill:none;stroke:#000000;stroke-width:0.79701;stroke-linecap:butt;stroke-linejoin:miter;stroke-miterlimit:10;stroke-dasharray:2.98883, 2.98883;stroke-dashoffset:0;stroke-opacity:1"
       transform="matrix(1.3333333,0,0,-1.3333333,181.24533,101.52533)" />
    <path
       id="path9"
       d="m 14.355445,-4.7920781 c 0.02344,-0.058594 0.08203,-0.2109375 0.08203,-0.2929688 0,-0.1054687 -0.08203,-0.1992187 -0.199219,-0.1992187 -0.08203,0 -0.128906,0.011719 -0.1875,0.082031 -0.04687,0.011719 -0.04687,0.058594 -0.234375,0.46875 -1.21875,2.8945313 -2.097656,4.13671878 -5.4023439,4.13671878 H 5.3906016 c -0.2929688,0 -0.328125,0 -0.4570313,-0.0234375 -0.2226562,-0.0234375 -0.2460937,-0.0585938 -0.2460937,-0.22265625 0,-0.15234375 0.046875,-0.26953123 0.082031,-0.45703123 l 1.4296875,-5.7070313 h 2.0390625 c 1.6171875,0 1.7460938,0.3515625 1.7460938,0.9726563 0,0.2109375 0,0.3984375 -0.1523438,1.0195312 -0.035156,0.082031 -0.058594,0.1640625 -0.058594,0.2226563 0,0.140625 0.1054687,0.2109375 0.2226562,0.2109375 0.1875002,0 0.2109382,-0.1523438 0.2929692,-0.4335938 l 1.171875,-4.7929687 c 0,-0.1054688 -0.08203,-0.2109377 -0.199219,-0.2109377 -0.1875,0 -0.210937,0.082032 -0.292968,0.3750002 -0.410157,1.5820312 -0.820313,2.0390625 -2.6601572,2.0390625 h -1.96875 l 1.2890625,-5.0742187 c 0.1757813,-0.726562 0.2226563,-0.785156 1.0664063,-0.785156 h 2.9531254 c 2.542969,0 3.058594,0.679687 3.058594,2.25 0,0.01172 0,0.597656 -0.08203,1.2773434 -0.02344,0.082031 -0.03516,0.2109375 -0.03516,0.2460938 0,0.1640625 0.09375,0.234375 0.222657,0.234375 0.140625,0 0.222656,-0.09375 0.269531,-0.4570313 L 15.5156,-13.534266 c 0,-0.05859 0.04687,-0.269531 0.04687,-0.304687 0,-0.234375 -0.1875,-0.234375 -0.5625,-0.234375 H 4.9218516 c -0.3984375,0 -0.609375,0 -0.609375,0.375 0,0.234375 0.1523437,0.234375 0.5039062,0.234375 1.2773438,0 1.2773438,0.140625 1.2773438,0.363281 0,0.105469 -0.023437,0.1875 -0.082031,0.421875 L 3.2226328,-1.5225469 c -0.1875,0.71484378 -0.2226562,0.92578128 -1.6757812,0.92578128 -0.3867188,0 -0.59765629,0 -0.59765629,0.375 0,0.222656245 0.12890629,0.222656245 0.53906249,0.222656245 H 11.859352 c 0.457031,0 0.480468,-0.023437495 0.621093,-0.351562495 z m 0,0"
       style="fill:#000000;fill-opacity:1;fill-rule:nonzero;stroke:none"
       aria-label="E"
       transform="matrix(1.3333333,0,0,1.3333333,357.168,156.116)" />
    <path
       id="path10"
       d="m 4.2651641,-4.6752812 h 1.3710937 c 1.0898438,0 1.171875,0.2460937 1.171875,0.65625 0,0.1875 -0.023437,0.3867187 -0.09375,0.703125 -0.035156,0.058594 -0.046875,0.1289062 -0.046875,0.1640625 0,0.09375 0.058594,0.1523437 0.1640625,0.1523437 0.1054688,0 0.1289063,-0.058594 0.1875,-0.28125 l 0.8320313,-3.3398437 c 0,-0.058594 -0.046875,-0.1523438 -0.1523438,-0.1523438 -0.1289062,0 -0.140625,0.058594 -0.1992187,0.3046875 -0.3046875,1.078125 -0.5859375,1.3710938 -1.8398438,1.3710938 H 4.3589141 L 5.2964141,-8.812 c 0.1289062,-0.4921875 0.1523437,-0.5390625 0.7382812,-0.5390625 h 1.921875 c 1.7929688,0 2.0507817,0.5273438 2.0507817,1.546875 0,0.082031 0,0.3984375 -0.035157,0.7734375 -0.023437,0.058594 -0.046875,0.2460938 -0.046875,0.3046875 0,0.1171875 0.070312,0.1523438 0.152344,0.1523438 0.105469,0 0.164063,-0.046875 0.1875,-0.3164063 l 0.304688,-2.5078125 c 0,-0.035156 0.03516,-0.1875 0.03516,-0.2109375 0,-0.1640625 -0.128906,-0.1640625 -0.398438,-0.1640625 H 3.4096953 c -0.2695312,0 -0.4101562,0 -0.4101562,0.2578125 0,0.1640625 0.09375,0.1640625 0.3398437,0.1640625 0.890625,0 0.890625,0.1054688 0.890625,0.2578125 0,0.070312 -0.011719,0.1289063 -0.058594,0.28125 L 2.2378203,-1.0659062 C 2.1089141,-0.562 2.0737578,-0.40965625 1.0776641,-0.40965625 c -0.26953129,0 -0.42187504,0 -0.42187504,0.2578125 C 0.65578906,5e-4 0.78469531,5e-4 0.87844531,5e-4 1.1479766,5e-4 1.4292266,-0.0229375 1.7104766,-0.0229375 h 1.8632812 c 0.3164063,0 0.65625,0.0234375 0.9726563,0.0234375 0.1289062,0 0.3046875,0 0.3046875,-0.2578125 0,-0.15234375 -0.09375,-0.15234375 -0.4101563,-0.15234375 -1.125,0 -1.1601562,-0.10546875 -1.1601562,-0.31640625 0,-0.0820313 0.035156,-0.1875 0.058594,-0.2929687 z m 0,0"
       style="fill:#000000;fill-opacity:1;fill-rule:nonzero;stroke:none"
       aria-label="F"
       transform="matrix(1.3333333,0,0,1.3333333,377.13733,160.24933)" />
    <path
       id="path11"
       d="M 63.7803,-113.38724 H -43.43"
       style="fill:none;stroke:#808080;stroke-width:0.79701;stroke-linecap:butt;stroke-linejoin:miter;stroke-miterlimit:10;stroke-dasharray:none;stroke-opacity:1"
       transform="matrix(1.3333333,0,0,-1.3333333,181.24533,101.52533)" />
    <path
       id="path12"
       d="M 4.53381,0 C 3.97704,0.13808 1.52963,0.92049 0,1.77196 V -1.77196 C 1.52963,-0.92049 3.97704,-0.13808 4.53381,0 Z"
       style="fill:#808080;fill-opacity:1;fill-rule:nonzero;stroke:#808080;stroke-width:0.79701;stroke-linecap:butt;stroke-linejoin:miter;stroke-miterlimit:10;stroke-dasharray:none;stroke-opacity:1"
       transform="matrix(-1.3333333,0,0,1.3333333,123.33867,252.70832)" />
    <path
       id="path13"
       d="m 2.6263047,-1.6771641 c 0.890625,-1.0078125 1.6054687,-1.6523437 2.6484375,-2.578125 1.2304687,-1.078125 1.7695312,-1.59375 2.0625,-1.8984375 1.4414062,-1.4296875 2.1679687,-2.625 2.1679687,-2.7890625 0,-0.1640625 -0.1640625,-0.1640625 -0.2109375,-0.1640625 -0.140625,0 -0.1875,0.082031 -0.28125,0.2226563 -0.515625,0.890625 -1.0195312,1.3242187 -1.5585937,1.3242187 -0.4335938,0 -0.65625,-0.1875 -1.0429688,-0.6796875 -0.4335937,-0.5273437 -0.7851562,-0.8671875 -1.3945312,-0.8671875 -1.5,0 -2.4140625,1.875 -2.4140625,2.3085938 0,0.058594 0.023437,0.1875 0.2109375,0.1875 0.1640625,0 0.1875,-0.082031 0.2460937,-0.234375 0.3515625,-0.8203125 1.3476563,-0.9609375 1.734375,-0.9609375 0.4335938,0 0.84375,0.140625 1.2773438,0.328125 0.7851562,0.328125 1.125,0.328125 1.3242187,0.328125 0.140625,0 0.234375,0 0.328125,-0.023437 -0.6796875,0.8085937 -1.7929687,1.8046875 -2.71875,2.6484375 l -2.0859375,1.921875 c -1.265625,1.2773437 -2.02734371,2.49609374 -2.02734371,2.64843749 0,0.1171875 0.10546875,0.1640625 0.22265621,0.1640625 0.1289063,0 0.1523438,-0.0234375 0.2929688,-0.26953125 0.328125,-0.515625 0.9960937,-1.28906254 1.7578125,-1.28906254 0.4335937,0 0.6328125,0.1523438 1.0546875,0.66796879 0.3867187,0.45703125 0.7382812,0.890625 1.40625,0.890625 2.015625,0 3.1757812,-2.62499999 3.1757812,-3.10546879 0,-0.082031 -0.023437,-0.1992187 -0.2226562,-0.1992187 -0.1640625,0 -0.1875,0.082031 -0.2578125,0.28125 -0.4453125,1.21875 -1.6640625,1.7226562 -2.4726563,1.7226562 -0.4335937,0 -0.84375,-0.1523437 -1.2773437,-0.3398437 -0.8320313,-0.328125 -1.0546875,-0.328125 -1.3242188,-0.328125 -0.2109375,0 -0.4335937,0 -0.6210937,0.082031 z m 0,0"
       style="fill:#808080;fill-opacity:1;fill-rule:nonzero;stroke:none"
       aria-label="z"
       transform="matrix(1.3333333,0,0,1.3333333,183.81467,270.412)" />
    <path
       id="path14"
       d="m -42.5202,49.6069 h -57.78005"
       style="fill:none;stroke:#000000;stroke-width:0.3985;stroke-linecap:butt;stroke-linejoin:miter;stroke-miterlimit:10;stroke-dasharray:none;stroke-opacity:1"
       transform="matrix(1.3333333,0,0,-1.3333333,181.24533,101.52533)" />
    <path
       id="path15"
       d="M 3.7613,0 C 3.2994,0.1127 1.26901,0.75136 0,1.44638 V -1.44638 C 1.26901,-0.75136 3.2994,-0.1127 3.7613,0 Z"
       style="fill:#000000;fill-opacity:1;fill-rule:nonzero;stroke:#000000;stroke-width:0.3985;stroke-linecap:butt;stroke-linejoin:miter;stroke-miterlimit:10;stroke-dasharray:none;stroke-opacity:1"
       transform="matrix(-1.3333333,0,0,1.3333333,47.511667,35.3828)" />
    <text
       id="text15"
       xml:space="preserve"
       transform="matrix(1.3333333,0,0,1.3333333,5.3133333,24.433333)"><tspan
         id="tspan15"
         style="font-variant:normal;font-weight:normal;font-size:20.6625px;font-family:'Latin Modern Roman';writing-mode:lr-tb;fill:#000000;fill-opacity:1;fill-rule:nonzero;stroke:none"
         x="0"
         y="0">Dop</tspan></text>
    <text
       id="text16"
       xml:space="preserve"
       transform="matrix(1.3333333,0,0,1.3333333,52.231029,24.433333)"><tspan
         id="tspan16"
         style="font-variant:normal;font-weight:normal;font-size:20.6625px;font-family:'Latin Modern Roman';writing-mode:lr-tb;fill:#000000;fill-opacity:1;fill-rule:nonzero;stroke:none"
         x="0"
         y="0">ed</tspan></text>
    <path
       id="path16"
       d="M -42.5202,49.6069 H 15.25983"
       style="fill:none;stroke:#000000;stroke-width:0.3985;stroke-linecap:butt;stroke-linejoin:miter;stroke-miterlimit:10;stroke-dasharray:none;stroke-opacity:1"
       transform="matrix(1.3333333,0,0,-1.3333333,181.24533,101.52533)" />
    <path
       id="path17"
       d="M 3.7613,0 C 3.2994,0.1127 1.26901,0.75136 0,1.44638 V -1.44638 C 1.26901,-0.75136 3.2994,-0.1127 3.7613,0 Z"
       style="fill:#000000;fill-opacity:1;fill-rule:nonzero;stroke:#000000;stroke-width:0.3985;stroke-linecap:butt;stroke-linejoin:miter;stroke-miterlimit:10;stroke-dasharray:none;stroke-opacity:1"
       transform="matrix(1.3333333,0,0,-1.3333333,201.59177,35.3828)" />
    <text
       id="text17"
       xml:space="preserve"
       transform="matrix(1.3333333,0,0,1.3333333,157.72667,24.433333)"><tspan
         id="tspan17"
         style="font-variant:normal;font-weight:normal;font-size:20.6625px;font-family:'Latin Modern Roman';writing-mode:lr-tb;fill:#000000;fill-opacity:1;fill-rule:nonzero;stroke:none"
         x="0"
         dx="0 0 0 0 0 0.53722554"
         y="0">Undoped</tspan></text>
    <path
       id="path18"
       d="M -42.5202,43.93764 V 55.27618"
       style="fill:none;stroke:#000000;stroke-width:0.3985;stroke-linecap:butt;stroke-linejoin:miter;stroke-miterlimit:10;stroke-dasharray:none;stroke-opacity:1"
       transform="matrix(1.3333333,0,0,-1.3333333,181.24533,101.52533)" />
    <text
       id="text18"
       xml:space="preserve"
       transform="matrix(1.3333333,0,0,1.3333333,61.850667,233.87867)"><tspan
         id="tspan18"
         style="font-variant:normal;font-weight:normal;font-size:20.6625px;font-family:'Latin Modern Roman';writing-mode:lr-tb;fill:#000000;fill-opacity:1;fill-rule:nonzero;stroke:none"
         x="0"
         y="0">AlGaAs</tspan></text>
    <text
       id="text19"
       xml:space="preserve"
       transform="matrix(1.3333333,0,0,1.3333333,226.02133,233.87867)"><tspan
         id="tspan19"
         style="font-variant:normal;font-weight:normal;font-size:20.6625px;font-family:'Latin Modern Roman';writing-mode:lr-tb;fill:#000000;fill-opacity:1;fill-rule:nonzero;stroke:none"
         x="0"
         y="0">GaAs</tspan></text>
  </g>
</svg>
