<?xml version="1.0" encoding="UTF-8" standalone="no"?>
<!-- Created with Inkscape (http://www.inkscape.org/) -->

<svg
   version="1.1"
   id="svg1"
   width="418.57599"
   height="303.42532"
   viewBox="0 0 418.57599 303.42532"
   sodipodi:docname="2DEG_sample.pdf"
   xmlns:inkscape="http://www.inkscape.org/namespaces/inkscape"
   xmlns:sodipodi="http://sodipodi.sourceforge.net/DTD/sodipodi-0.dtd"
   xmlns="http://www.w3.org/2000/svg"
   xmlns:svg="http://www.w3.org/2000/svg">
  <defs
     id="defs1" />
  <sodipodi:namedview
     id="namedview1"
     pagecolor="#ffffff"
     bordercolor="#000000"
     borderopacity="0.25"
     inkscape:showpageshadow="2"
     inkscape:pageopacity="0.0"
     inkscape:pagecheckerboard="0"
     inkscape:deskcolor="#d1d1d1">
    <inkscape:page
       x="0"
       y="0"
       inkscape:label="1"
       id="page1"
       width="418.57599"
       height="303.42532"
       margin="0"
       bleed="0" />
  </sodipodi:namedview>
  <g
     id="g1"
     inkscape:groupmode="layer"
     inkscape:label="1">
    <path
       id="path1"
       d="M -85.04042,0 V 220.59755"
       style="fill:none;stroke:#000000;stroke-width:0.79701;stroke-linecap:butt;stroke-linejoin:miter;stroke-miterlimit:10;stroke-dasharray:none;stroke-opacity:1"
       transform="matrix(1.3333333,0,0,-1.3333333,149.28267,302.89333)" />
    <path
       id="path2"
       d="M 4.53381,0 C 3.97704,0.13808 1.52963,0.92049 0,1.77196 V -1.77196 C 1.52963,-0.92049 3.97704,-0.13808 4.53381,0 Z"
       style="fill:#000000;fill-opacity:1;fill-rule:nonzero;stroke:#000000;stroke-width:0.79701;stroke-linecap:butt;stroke-linejoin:miter;stroke-miterlimit:10;stroke-dasharray:none;stroke-opacity:1"
       transform="matrix(0,-1.3333333,-1.3333333,0,35.89544,8.7632667)" />
    <path
       id="path3"
       d="m 2.6255391,-1.6745859 c 0.890625,-1.0078125 1.6054687,-1.6523438 2.6484375,-2.578125 1.2304687,-1.078125 1.7695312,-1.59375 2.0625,-1.8984375 1.4414062,-1.4296875 2.1679687,-2.625 2.1679687,-2.7890625 0,-0.1640625 -0.1640625,-0.1640625 -0.2109375,-0.1640625 -0.140625,0 -0.1875,0.082031 -0.28125,0.2226562 -0.515625,0.890625 -1.0195312,1.3242188 -1.5585937,1.3242188 -0.4335938,0 -0.65625,-0.1875 -1.0429688,-0.6796875 -0.4335937,-0.5273438 -0.7851562,-0.8671875 -1.3945312,-0.8671875 -1.5,0 -2.4140625,1.875 -2.4140625,2.3085937 0,0.058594 0.023437,0.1875 0.2109375,0.1875 0.1640625,0 0.1875,-0.082031 0.2460937,-0.234375 0.3515625,-0.8203125 1.3476563,-0.9609375 1.734375,-0.9609375 0.4335938,0 0.84375,0.140625 1.2773438,0.328125 0.7851562,0.328125 1.125,0.328125 1.3242187,0.328125 0.140625,0 0.234375,0 0.328125,-0.023437 -0.6796875,0.8085938 -1.7929687,1.8046875 -2.71875,2.6484375 l -2.0859375,1.921875 c -1.265625,1.2773438 -2.02734374,2.49609376 -2.02734374,2.64843751 0,0.1171875 0.10546875,0.1640625 0.22265624,0.1640625 0.1289063,0 0.1523438,-0.0234375 0.2929688,-0.26953125 0.328125,-0.515625 0.9960937,-1.28906246 1.7578125,-1.28906246 0.4335937,0 0.6328125,0.1523437 1.0546875,0.66796871 0.3867187,0.45703125 0.7382812,0.890625 1.40625,0.890625 2.015625,0 3.1757812,-2.62500001 3.1757812,-3.10546871 0,-0.082031 -0.023437,-0.1992188 -0.2226562,-0.1992188 -0.1640625,0 -0.1875,0.082031 -0.2578125,0.28125 -0.4453125,1.21875 -1.6640625,1.7226563 -2.4726563,1.7226563 -0.4335937,0 -0.84375,-0.1523438 -1.2773437,-0.3398438 -0.8320313,-0.328125 -1.0546875,-0.328125 -1.3242188,-0.328125 -0.2109375,0 -0.4335937,0 -0.6210937,0.082031 z m 0,0"
       style="fill:#000000;fill-opacity:1;fill-rule:nonzero;stroke:none"
       aria-label="z"
       transform="matrix(0,-1.3333333,1.3333333,0,24.432,256.864)" />
    <text
       id="text3"
       xml:space="preserve"
       transform="matrix(0,-1.3333333,1.3333333,0,24.432,243.104)"><tspan
         id="tspan3"
         style="font-variant:normal;font-weight:normal;font-size:20.6625px;font-family:'Latin Modern Roman';writing-mode:lr-tb;fill:#000000;fill-opacity:1;fill-rule:nonzero;stroke:none"
         x="0"
         dx="0 6.2400808 0 0 -0.53722554 0 0 6.2400808"
         y="0">,growthdirection</tspan></text>
    <path
       id="path4"
       d="M -56.69362,0 V 113.38724 H 113.38724 V 0 Z"
       style="fill:#8996c6;fill-opacity:1;fill-rule:nonzero;stroke:#000000;stroke-width:0.79701;stroke-linecap:butt;stroke-linejoin:miter;stroke-miterlimit:10;stroke-dasharray:none;stroke-opacity:1"
       transform="matrix(1.3333333,0,0,-1.3333333,149.28267,302.89333)" />
    <text
       id="text4"
       xml:space="preserve"
       transform="matrix(1.3333333,0,0,1.3333333,156.26267,252.62533)"><tspan
         id="tspan4"
         style="font-variant:normal;font-weight:normal;font-size:20.6625px;font-family:'Latin Modern Roman';writing-mode:lr-tb;fill:#000000;fill-opacity:1;fill-rule:nonzero;stroke:none"
         x="0"
         y="0">GaAs</tspan></text>
    <path
       id="path5"
       d="m 117.97008,116.93057 h 23.76396"
       style="fill:none;stroke:#000000;stroke-width:0.3985;stroke-linecap:butt;stroke-linejoin:miter;stroke-miterlimit:10;stroke-dasharray:none;stroke-opacity:0"
       transform="matrix(1.3333333,0,0,-1.3333333,149.28267,302.89333)" />
    <path
       id="path6"
       d="M 3.7613,0 C 3.2994,0.1127 1.26901,0.75136 0,1.44638 V -1.44638 C 1.26901,-0.75136 3.2994,-0.1127 3.7613,0 Z"
       style="fill:#000000;fill-opacity:0;fill-rule:nonzero;stroke:#000000;stroke-width:0.3985;stroke-linecap:butt;stroke-linejoin:miter;stroke-miterlimit:10;stroke-dasharray:none;stroke-opacity:0"
       transform="matrix(-1.3333333,0,0,1.3333333,306.57611,146.98591)" />
    <text
       id="text6"
       xml:space="preserve"
       transform="matrix(1.3333333,0,0,1.3333333,343.83733,156.39733)"><tspan
         id="tspan6"
         style="font-variant:normal;font-weight:normal;font-size:20.6625px;font-family:'Latin Modern Roman';writing-mode:lr-tb;fill:#000000;fill-opacity:0;fill-rule:nonzero;stroke:none"
         x="0"
         y="0">2DEG</tspan></text>
  </g>
</svg>
