<?xml version="1.0" encoding="UTF-8" standalone="no"?>
<!-- Created with Inkscape (http://www.inkscape.org/) -->

<svg
   version="1.1"
   id="svg1"
   width="987.58936"
   height="58.588001"
   viewBox="0 0 987.58936 58.588001"
   sodipodi:docname="circuits.pdf"
   xmlns:inkscape="http://www.inkscape.org/namespaces/inkscape"
   xmlns:sodipodi="http://sodipodi.sourceforge.net/DTD/sodipodi-0.dtd"
   xmlns="http://www.w3.org/2000/svg"
   xmlns:svg="http://www.w3.org/2000/svg">
  <defs
     id="defs1" />
  <sodipodi:namedview
     id="namedview1"
     pagecolor="#ffffff"
     bordercolor="#000000"
     borderopacity="0.25"
     inkscape:showpageshadow="2"
     inkscape:pageopacity="0.0"
     inkscape:pagecheckerboard="0"
     inkscape:deskcolor="#d1d1d1">
    <inkscape:page
       x="0"
       y="0"
       inkscape:label="1"
       id="page1"
       width="987.58936"
       height="58.588001"
       margin="0"
       bleed="0" />
  </sodipodi:namedview>
  <g
     id="g1"
     inkscape:groupmode="layer"
     inkscape:label="1">
    <path
       id="path1"
       d="m 15.737656,-17.225758 c 0,-0.222656 -0.175781,-0.222656 -0.222656,-0.222656 -0.09375,0 -0.128906,0.02344 -0.421875,0.398437 -0.152344,0.175782 -1.160156,1.464844 -1.183594,1.488282 -0.820312,-1.617188 -2.460937,-1.886719 -3.503906,-1.886719 -3.140625,0 -6,2.871094 -6,5.671875 0,1.8632812 1.125,2.9531249 2.3320312,3.3749999 0.28125,0.09375 1.734375,0.4921875 2.484375,0.6679688 1.2656248,0.3515625 1.5820308,0.4453125 2.1093748,0.9960937 0.09375,0.1171875 0.585938,0.6914063 0.585938,1.8515625 0,2.3085938 -2.1328128,4.68750004 -4.605469,4.68750004 -2.0390625,0 -4.2890625,-0.86718754 -4.2890625,-3.64453124 0,-0.46875 0.09375,-1.0664063 0.1757812,-1.3125 0,-0.070312 0.023437,-0.1992188 0.023437,-0.2460938 0,-0.1054687 -0.046875,-0.2226562 -0.2460937,-0.2226562 -0.2226563,0 -0.2460938,0.046875 -0.3515625,0.46875 L 1.35875,-0.06950781 c 0,0.0234375 -0.09375,0.33984375 -0.09375,0.36328125 0,0.22265625 0.1992187,0.22265625 0.2460937,0.22265625 0.09375,0 0.1289063,-0.0234375 0.421875,-0.38671875 L 3.0696875,-1.3585703 C 3.6673437,-0.46794531 4.9564062,0.51642969 7.265,0.51642969 c 3.199219,0 6.117187,-3.09374999 6.117187,-6.18749999 0,-1.0429688 -0.246093,-1.9570313 -1.183593,-2.8828125 C 11.67125,-9.0695078 11.225937,-9.1984141 8.9525,-9.7843516 7.2884375,-10.229664 7.0657812,-10.311695 6.6204687,-10.710133 c -0.421875,-0.421875 -0.75,-1.007812 -0.75,-1.851562 0,-2.085938 2.109375,-4.21875 4.4648433,-4.21875 2.425782,0 3.574219,1.488281 3.574219,3.84375 0,0.644531 -0.128906,1.3125 -0.128906,1.417968 0,0.222657 0.199219,0.222657 0.269531,0.222657 0.222656,0 0.246094,-0.08203 0.351563,-0.480469 z m 0,0"
       style="fill:#000000;fill-opacity:1;fill-rule:nonzero;stroke:none"
       aria-label="S"
       transform="matrix(1.3333333,0,0,1.3333333,5.3133333,35.065333)" />
    <path
       id="path2"
       d="m 15.937734,-7.9562266 c 0.375,0 0.738282,0 0.738282,-0.421875 0,-0.4453125 -0.421875,-0.4453125 -0.84375,-0.4453125 H 1.9807031 c -0.421875,0 -0.84375,0 -0.84375,0.4453125 0,0.421875 0.375,0.421875 0.75,0.421875 z m -0.105468,4.4179688 c 0.421875,0 0.84375,0 0.84375,-0.4570313 0,-0.4101562 -0.363282,-0.4101562 -0.738282,-0.4101562 H 1.8869531 c -0.375,0 -0.75,0 -0.75,0.4101562 0,0.4570313 0.421875,0.4570313 0.84375,0.4570313 z m 0,0"
       style="fill:#000000;fill-opacity:1;fill-rule:nonzero;stroke:none"
       aria-label="="
       transform="matrix(1.3333333,0,0,1.3333333,36.32,35.065333)" />
    <path
       id="path3"
       d=""
       style="fill:#000000;fill-opacity:1;fill-rule:nonzero;stroke:none"
       aria-label=""
       transform="matrix(1.3333333,0,0,1.3333333,69.289333,8.296)" />
    <path
       id="path4"
       d="m 15.738406,-17.225758 c 0,-0.222656 -0.175781,-0.222656 -0.222656,-0.222656 -0.09375,0 -0.128906,0.02344 -0.421875,0.398437 -0.152344,0.175782 -1.160156,1.464844 -1.183594,1.488282 -0.820312,-1.617188 -2.460937,-1.886719 -3.503906,-1.886719 -3.140625,0 -6,2.871094 -6,5.671875 0,1.8632812 1.125,2.9531249 2.3320312,3.3749999 0.28125,0.09375 1.734375,0.4921875 2.484375,0.6679688 1.2656248,0.3515625 1.5820308,0.4453125 2.1093748,0.9960937 0.09375,0.1171875 0.585938,0.6914063 0.585938,1.8515625 0,2.3085938 -2.1328128,4.68750004 -4.605469,4.68750004 -2.0390625,0 -4.2890625,-0.86718754 -4.2890625,-3.64453124 0,-0.46875 0.09375,-1.0664063 0.1757812,-1.3125 0,-0.070312 0.023437,-0.1992188 0.023437,-0.2460938 0,-0.1054687 -0.046875,-0.2226562 -0.2460937,-0.2226562 -0.2226563,0 -0.2460938,0.046875 -0.3515625,0.46875 L 1.3595,-0.06950781 c 0,0.0234375 -0.09375,0.33984375 -0.09375,0.36328125 0,0.22265625 0.1992187,0.22265625 0.2460937,0.22265625 0.09375,0 0.1289063,-0.0234375 0.421875,-0.38671875 L 3.0704375,-1.3585703 c 0.5976562,0.89062499 1.8867187,1.87499999 4.1953125,1.87499999 3.199219,0 6.117187,-3.09374999 6.117187,-6.18749999 0,-1.0429688 -0.246093,-1.9570313 -1.183593,-2.8828125 C 11.672,-9.0695078 11.226687,-9.1984141 8.95325,-9.7843516 7.2891875,-10.229664 7.0665312,-10.311695 6.6212187,-10.710133 c -0.421875,-0.421875 -0.75,-1.007812 -0.75,-1.851562 0,-2.085938 2.109375,-4.21875 4.4648433,-4.21875 2.425782,0 3.574219,1.488281 3.574219,3.84375 0,0.644531 -0.128906,1.3125 -0.128906,1.417968 0,0.222657 0.199219,0.222657 0.269531,0.222657 0.222656,0 0.246094,-0.08203 0.351563,-0.480469 z m 0,0"
       style="fill:#000000;fill-opacity:1;fill-rule:nonzero;stroke:none"
       aria-label="S"
       transform="matrix(1.3333333,0,0,1.3333333,84.437333,35.065333)" />
    <path
       id="path5"
       d="m 5.8475391,-2.9544844 c 0,-0.1054687 -0.082031,-0.1875 -0.2109375,-0.1875 -0.1875,0 -0.1992188,0.058594 -0.3046875,0.4101563 -0.5390625,1.88671873 -1.3828125,2.51953123 -2.0625,2.51953123 -0.2578125,0 -0.5390625,-0.0585938 -0.5390625,-0.6796875 0,-0.55078123 0.2460937,-1.17187503 0.46875,-1.79296873 l 1.453125,-3.84375 c 0.058594,-0.1640625 0.1992187,-0.5390625 0.1992187,-0.9257813 0,-0.8671875 -0.6210937,-1.6523437 -1.6289062,-1.6523437 -1.8984375,0 -2.66015629,2.9882812 -2.66015629,3.1523437 0,0.082031 0.0820313,0.1875 0.22265625,0.1875 0.1875,0 0.2109375,-0.082031 0.29296874,-0.375 0.4921875,-1.734375 1.2773438,-2.5546875 2.0859375,-2.5546875 0.1875,0 0.5390625,0.023437 0.5390625,0.6796875 0,0.5390625 -0.2695312,1.21875 -0.4335937,1.6757813 l -1.453125,3.84375 c -0.1171875,0.328125 -0.2460938,0.65625 -0.2460938,1.03125 0,0.92578123 0.6445313,1.67578123 1.6289063,1.67578123 1.8984375,0 2.6484375,-3.02343753 2.6484375,-3.16406253 z M 5.6834766,-12.891984 c 0,-0.316407 -0.2460938,-0.679688 -0.703125,-0.679688 -0.4804688,0 -1.0195313,0.445313 -1.0195313,0.984375 0,0.515625 0.4453125,0.691406 0.6914063,0.691406 0.5507812,0 1.03125,-0.539062 1.03125,-0.996093 z M 10.933477,0.08067188 c 0,-1.19531248 -0.398438,-2.08593748 -1.2421879,-2.08593748 -0.65625,0 -0.9960938,0.5390625 -0.9960938,0.9960937 0,0.44531253 0.3164063,1.00781253 1.0195313,1.00781253 0.2695312,0 0.4921874,-0.08203125 0.6796874,-0.26953125 0.03516,-0.0351563 0.05859,-0.0351563 0.08203,-0.0351563 0.04687,0 0.04687,0.28125 0.04687,0.38671875 0,0.6796875 -0.128906,2.02734377 -1.3242184,3.36328127 -0.234375,0.2578125 -0.234375,0.2929688 -0.234375,0.3398438 0,0.09375 0.1054687,0.1992187 0.2109375,0.1992187 0.1640625,0 1.7578129,-1.5234375 1.7578129,-3.90234377 z m 0,0"
       style="fill:#000000;fill-opacity:1;fill-rule:nonzero;stroke:none"
       aria-label="i,"
       transform="matrix(1.3333333,0,0,1.3333333,104.34,41.744)" />
    <text
       id="text5"
       xml:space="preserve"
       transform="matrix(1.3333333,0,0,1.3333333,121.036,41.744)"><tspan
         id="tspan5"
         style="font-variant:normal;font-weight:normal;font-size:20.6625px;font-family:'Latin Modern Roman';writing-mode:lr-tb;fill:#000000;fill-opacity:1;fill-rule:nonzero;stroke:none"
         x="0"
         y="0">sn</tspan></text>
    <path
       id="path6"
       d="m 3.9374766,-17.694508 c 0,-0.445312 0,-0.890625 -0.4921875,-0.890625 -0.4921875,0 -0.4921875,0.445313 -0.4921875,0.890625 V 5.3093984 c 0,0.4453125 0,0.890625 0.4921875,0.890625 0.4921875,0 0.4921875,-0.4453125 0.4921875,-0.890625 z m 0,0"
       style="fill:#000000;fill-opacity:1;fill-rule:nonzero;stroke:none"
       aria-label="|"
       transform="matrix(1.3333333,0,0,1.3333333,145.668,35.065333)" />
    <path
       id="path7"
       d="m 17.354211,-16.159352 c 0.140625,-0.175781 0.269531,-0.316406 0.269531,-0.574218 0,-0.164063 -0.02344,-0.199219 -0.597656,-0.199219 H 6.7956172 c -0.5742188,0 -0.5976563,0.03516 -0.75,0.480469 l -1.359375,4.453125 c -0.082031,0.246093 -0.082031,0.304687 -0.082031,0.351562 0,0.09375 0.082031,0.246094 0.2578125,0.246094 0.1875,0 0.2460938,-0.09375 0.3398438,-0.421875 0.9140625,-2.671875 2.1328125,-4.382813 6.0468745,-4.382813 h 4.066406 L 1.7331172,-0.84294531 c -0.2226563,0.26953125 -0.3164063,0.375 -0.3164063,0.64453125 0,0.1992187475 0.1171875,0.1992187475 0.5859375,0.1992187475 H 12.58468 c 0.574218,0 0.597656,-0.0234374975 0.75,-0.4687499975 l 1.734375,-5.48437499 c 0.02344,-0.070312 0.07031,-0.2460938 0.07031,-0.3398438 0,-0.1289062 -0.09375,-0.2460937 -0.246094,-0.2460937 -0.199218,0 -0.222656,0.023437 -0.421875,0.6445312 -1.042968,3.1875 -2.132812,5.12109379 -6.4453121,5.12109379 H 3.7370234 Z m 0,0"
       style="fill:#000000;fill-opacity:1;fill-rule:nonzero;stroke:none"
       aria-label="Z"
       transform="matrix(1.3333333,0,0,1.3333333,154.84933,35.065333)" />
    <text
       id="text7"
       xml:space="preserve"
       transform="matrix(1.3333333,0,0,1.3333333,176.99867,40.022667)"><tspan
         id="tspan7"
         style="font-variant:normal;font-weight:normal;font-size:20.6625px;font-family:'Latin Modern Roman';writing-mode:lr-tb;fill:#000000;fill-opacity:1;fill-rule:nonzero;stroke:none"
         x="0"
         y="0">eq</tspan></text>
    <path
       id="path8"
       d="m 3.9387031,-17.694508 c 0,-0.445312 0,-0.890625 -0.4921875,-0.890625 -0.4921875,0 -0.4921875,0.445313 -0.4921875,0.890625 V 5.3093984 c 0,0.4453125 0,0.890625 0.4921875,0.890625 0.4921875,0 0.4921875,-0.4453125 0.4921875,-0.890625 z m 0,0"
       style="fill:#000000;fill-opacity:1;fill-rule:nonzero;stroke:none"
       aria-label="|"
       transform="matrix(1.3333333,0,0,1.3333333,202.20933,35.065333)" />
    <path
       id="path9"
       d="m 8.61425,-3.2004844 h -0.375 c -0.1992188,1.4648438 -0.3632813,1.7109375 -0.4453125,1.8398438 -0.1054688,0.1640625 -1.59375,0.1640625 -1.8867188,0.1640625 H 1.9462812 c 0.7382813,-0.8085938 2.1914063,-2.2734375 3.9375,-3.9726563 1.265625,-1.1953125 2.7304688,-2.6015625 2.7304688,-4.640625 0,-2.4374996 -1.9453125,-3.8437496 -4.1132813,-3.8437496 -2.2734375,0 -3.65624995,2.003906 -3.65624995,3.8554684 0,0.8085937 0.59765625,0.9140625 0.85546875,0.9140625 0.1992187,0 0.8203125,-0.1289063 0.8203125,-0.84375 0,-0.6445309 -0.5390625,-0.8320309 -0.8203125,-0.8320309 -0.1289063,0 -0.2578125,0.02344 -0.3398438,0.05859 0.3984375,-1.746093 1.59375,-2.625 2.859375,-2.625 1.7929688,0 2.9765625,1.429688 2.9765625,3.3164066 0,1.7929688 -1.0546875,3.3398438 -2.2382812,4.6875 l -4.11328125,4.64062503 v 0.48046875 H 8.1220625 Z m 0,0"
       style="fill:#000000;fill-opacity:1;fill-rule:nonzero;stroke:none"
       aria-label="2"
       transform="matrix(1.3333333,0,0,1.3333333,211.38933,23.072)" />
    <path
       id="path10"
       d="m 9.3384687,-5.7531016 h 6.5742183 c 0.339844,0 0.761719,0 0.761719,-0.421875 0,-0.4453125 -0.386719,-0.4453125 -0.761719,-0.4453125 H 9.3384687 v -6.5624999 c 0,-0.351563 0,-0.773438 -0.421875,-0.773438 -0.4453125,0 -0.4453125,0.398438 -0.4453125,0.773438 v 6.5624999 h -6.5625 c -0.3515625,0 -0.7734375,0 -0.7734375,0.421875 0,0.4453125 0.3984375,0.4453125 0.7734375,0.4453125 h 6.5625 v 6.57421879 c 0,0.33984371 0,0.76171871 0.421875,0.76171871 0.4453125,0 0.4453125,-0.3867187 0.4453125,-0.76171871 z m 0,0"
       style="fill:#000000;fill-opacity:1;fill-rule:nonzero;stroke:none"
       aria-label="+"
       transform="matrix(1.3333333,0,0,1.3333333,224.68933,35.065333)" />
    <path
       id="path11"
       d="m 15.739633,-17.225758 c 0,-0.222656 -0.175781,-0.222656 -0.222656,-0.222656 -0.09375,0 -0.128907,0.02344 -0.421875,0.398437 -0.152344,0.175782 -1.160157,1.464844 -1.183594,1.488282 -0.820313,-1.617188 -2.460938,-1.886719 -3.503906,-1.886719 -3.1406254,0 -6.0000004,2.871094 -6.0000004,5.671875 0,1.8632812 1.125,2.9531249 2.3320312,3.3749999 0.28125,0.09375 1.734375,0.4921875 2.484375,0.6679688 1.2656252,0.3515625 1.5820312,0.4453125 2.1093752,0.9960937 0.09375,0.1171875 0.585937,0.6914063 0.585937,1.8515625 0,2.3085938 -2.1328122,4.68750004 -4.6054684,4.68750004 -2.0390625,0 -4.2890625,-0.86718754 -4.2890625,-3.64453124 0,-0.46875 0.09375,-1.0664063 0.1757812,-1.3125 0,-0.070312 0.023437,-0.1992188 0.023437,-0.2460938 0,-0.1054687 -0.046875,-0.2226562 -0.2460937,-0.2226562 -0.2226563,0 -0.2460938,0.046875 -0.3515625,0.46875 l -1.265625,5.08593749 c 0,0.0234375 -0.09375,0.33984375 -0.09375,0.36328125 0,0.22265625 0.1992187,0.22265625 0.2460937,0.22265625 0.09375,0 0.1289063,-0.0234375 0.421875,-0.38671875 L 3.0716641,-1.3585703 c 0.5976562,0.89062499 1.8867187,1.87499999 4.1953125,1.87499999 3.1992184,0 6.1171874,-3.09374999 6.1171874,-6.18749999 0,-1.0429688 -0.246094,-1.9570313 -1.183594,-2.8828125 -0.527343,-0.515625 -0.972656,-0.6445313 -3.2460934,-1.2304688 -1.6640625,-0.4453124 -1.8867188,-0.5273434 -2.3320313,-0.9257814 -0.421875,-0.421875 -0.75,-1.007812 -0.75,-1.851562 0,-2.085938 2.109375,-4.21875 4.4648437,-4.21875 2.425781,0 3.574219,1.488281 3.574219,3.84375 0,0.644531 -0.128906,1.3125 -0.128906,1.417968 0,0.222657 0.199218,0.222657 0.269531,0.222657 0.222656,0 0.246094,-0.08203 0.351562,-0.480469 z m 0,0"
       style="fill:#000000;fill-opacity:1;fill-rule:nonzero;stroke:none"
       aria-label="S"
       transform="matrix(1.3333333,0,0,1.3333333,248.47867,35.065333)" />
    <path
       id="path12"
       d="m 8.6143906,-12.597797 c 0.1289063,-0.503906 0.1640625,-0.691406 0.4804688,-0.773437 0.1640625,-0.03516 0.84375,-0.03516 1.2773436,-0.03516 2.0625,0 3.035156,0.08203 3.035156,1.6875 0,0.316407 -0.08203,1.101563 -0.199218,1.8632816 l -0.02344,0.2460938 c 0,0.082031 0.08203,0.2109375 0.199219,0.2109375 0.210937,0 0.210937,-0.1054688 0.269531,-0.4335938 l 0.597656,-3.6562501 c 0.04687,-0.1875 0.04687,-0.234375 0.04687,-0.292969 0,-0.222656 -0.128906,-0.222656 -0.539062,-0.222656 H 2.4620469 c -0.4804688,0 -0.5039063,0.01172 -0.6210938,0.386719 l -1.26562498,3.7265624 c -0.0117188,0.035156 -0.0820313,0.2578125 -0.0820313,0.28125 0,0.1054687 0.0820313,0.2109375 0.2109375,0.2109375 0.1640625,0 0.2109375,-0.082031 0.29296875,-0.3515625 C 1.8643906,-12.246234 2.2979844,-13.406391 5.0401719,-13.406391 h 1.3828125 c 0.5039062,0 0.703125,0 0.703125,0.222657 0,0.05859 0,0.105468 -0.1054688,0.480468 l -2.765625,11.0859379 c -0.1992187,0.80859373 -0.2460937,1.01953123 -2.4375,1.01953123 -0.515625,0 -0.65625,0 -0.65625,0.38671875 0,0.210937495 0.2226563,0.210937495 0.328125,0.210937495 0.515625,0 1.0546875,-0.046874995 1.5703125,-0.046874995 h 3.2226563 c 0.515625,0 1.078125,0.046874995 1.59375,0.046874995 0.2226562,0 0.4335937,0 0.4335937,-0.386718745 0,-0.2109375 -0.1523437,-0.2109375 -0.6796875,-0.2109375 -1.8632812,0 -1.8632812,-0.1875 -1.8632812,-0.49218753 0,-0.023437 0,-0.1757812 0.082031,-0.5039062 z m 0,0"
       style="fill:#000000;fill-opacity:1;fill-rule:nonzero;stroke:none"
       aria-label="T"
       transform="matrix(1.3333333,0,0,1.3333333,268.38133,42.508)" />
    <path
       id="path13"
       d="m 3.9366719,-17.694508 c 0,-0.445312 0,-0.890625 -0.4921875,-0.890625 -0.4921875,0 -0.4921875,0.445313 -0.4921875,0.890625 V 5.3093984 c 0,0.4453125 0,0.890625 0.4921875,0.890625 0.4921875,0 0.4921875,-0.4453125 0.4921875,-0.890625 z m 0,0"
       style="fill:#000000;fill-opacity:1;fill-rule:nonzero;stroke:none"
       aria-label="|"
       transform="matrix(1.3333333,0,0,1.3333333,288.60267,35.065333)" />
    <path
       id="path14"
       d="m 18.53993,-15.116383 c 0.222656,-0.84375 0.269531,-1.089844 2.027343,-1.089844 0.457032,0 0.703125,0 0.703125,-0.445312 0,-0.28125 -0.222656,-0.28125 -0.375,-0.28125 -0.445312,0 -0.972656,0.05859 -1.441406,0.05859 h -2.917969 c -0.46875,0 -0.996093,-0.05859 -1.464843,-0.05859 -0.175782,0 -0.46875,0 -0.46875,0.480469 0,0.246093 0.175781,0.246093 0.644531,0.246093 1.488281,0 1.488281,0.199219 1.488281,0.46875 0,0.04687 0,0.199219 -0.105469,0.574219 l -1.511718,5.9882814 H 7.6297734 l 1.4882813,-5.9414064 c 0.2226562,-0.84375 0.28125,-1.089844 2.0390623,-1.089844 0.445313,0 0.691406,0 0.691406,-0.445312 0,-0.28125 -0.222656,-0.28125 -0.375,-0.28125 -0.445312,0 -0.960937,0.05859 -1.429687,0.05859 H 7.1141484 c -0.46875,0 -0.9960937,-0.05859 -1.4648437,-0.05859 -0.1757813,0 -0.46875,0 -0.46875,0.480469 0,0.246093 0.1757812,0.246093 0.6445312,0.246093 1.4882813,0 1.4882813,0.199219 1.4882813,0.46875 0,0.04687 0,0.199219 -0.1054688,0.574219 L 3.8680547,-1.8390391 c -0.2226563,0.87890629 -0.2695313,1.12500004 -1.9804688,1.12500004 -0.5742187,0 -0.75,0 -0.75,0.46875 0,0.2460937475 0.28125,0.2460937475 0.3515625,0.2460937475 0.4453125,0 0.9609375,-0.0468749975 1.4414063,-0.0468749975 h 2.9179687 c 0.46875,0 0.9960938,0.0468749975 1.4648438,0.0468749975 0.1992187,0 0.46875,0 0.46875,-0.4687499975 0,-0.24609375 -0.2226563,-0.24609375 -0.5976563,-0.24609375 -1.5117187,0 -1.5117187,-0.19921875 -1.5117187,-0.44531254 0,-0.035156 0,-0.1992187 0.058594,-0.3984375 l 1.7109375,-6.890625 h 7.4999993 c -0.421875,1.6289063 -1.675781,6.8085938 -1.734375,6.9609375 -0.269531,0.75000004 -0.667968,0.75000004 -2.132812,0.77343754 -0.292969,0 -0.515625,0 -0.515625,0.46875 0,0.2460937475 0.269531,0.2460937475 0.351562,0.2460937475 0.445313,0 0.960938,-0.0468749975 1.429688,-0.0468749975 h 2.929687 c 0.46875,0 0.984375,0.0468749975 1.464844,0.0468749975 0.199219,0 0.46875,0 0.46875,-0.4687499975 0,-0.24609375 -0.222656,-0.24609375 -0.597656,-0.24609375 -1.511719,0 -1.511719,-0.19921875 -1.511719,-0.44531254 0,-0.035156 0,-0.1992187 0.04687,-0.3984375 z m 0,0"
       style="fill:#000000;fill-opacity:1;fill-rule:nonzero;stroke:none"
       aria-label="H"
       transform="matrix(1.3333333,0,0,1.3333333,297.784,35.065333)" />
    <path
       id="path15"
       d="m 8.6145234,-12.597797 c 0.1289063,-0.503906 0.1640625,-0.691406 0.4804688,-0.773437 0.1640625,-0.03516 0.84375,-0.03516 1.2773438,-0.03516 2.0625,0 3.035156,0.08203 3.035156,1.6875 0,0.316407 -0.08203,1.101563 -0.199219,1.8632816 l -0.02344,0.2460938 c 0,0.082031 0.08203,0.2109375 0.199219,0.2109375 0.210937,0 0.210937,-0.1054688 0.269531,-0.4335938 l 0.597656,-3.6562501 c 0.04687,-0.1875 0.04687,-0.234375 0.04687,-0.292969 0,-0.222656 -0.128906,-0.222656 -0.539062,-0.222656 H 2.4621797 c -0.4804688,0 -0.5039063,0.01172 -0.6210938,0.386719 l -1.26562496,3.7265624 c -0.0117188,0.035156 -0.0820313,0.2578125 -0.0820313,0.28125 0,0.1054687 0.0820313,0.2109375 0.2109375,0.2109375 0.1640625,0 0.2109375,-0.082031 0.29296875,-0.3515625 C 1.8645234,-12.246234 2.2981172,-13.406391 5.0403047,-13.406391 h 1.3828125 c 0.5039062,0 0.703125,0 0.703125,0.222657 0,0.05859 0,0.105468 -0.1054688,0.480468 l -2.765625,11.0859379 c -0.1992187,0.80859373 -0.2460937,1.01953123 -2.4375,1.01953123 -0.515625,0 -0.65625,0 -0.65625,0.38671875 0,0.210937495 0.2226563,0.210937495 0.328125,0.210937495 0.515625,0 1.0546875,-0.046874995 1.5703125,-0.046874995 h 3.2226563 c 0.515625,0 1.078125,0.046874995 1.59375,0.046874995 0.2226562,0 0.4335937,0 0.4335937,-0.386718745 0,-0.2109375 -0.1523437,-0.2109375 -0.6796875,-0.2109375 -1.8632812,0 -1.8632812,-0.1875 -1.8632812,-0.49218753 0,-0.023437 0,-0.1757812 0.082031,-0.5039062 z m 0,0"
       style="fill:#000000;fill-opacity:1;fill-rule:nonzero;stroke:none"
       aria-label="T"
       transform="matrix(1.3333333,0,0,1.3333333,324.596,42.508)" />
    <path
       id="path16"
       d="m 3.9368047,-17.694508 c 0,-0.445312 0,-0.890625 -0.4921875,-0.890625 -0.4921875,0 -0.4921875,0.445313 -0.4921875,0.890625 V 5.3093984 c 0,0.4453125 0,0.890625 0.4921875,0.890625 0.4921875,0 0.4921875,-0.4453125 0.4921875,-0.890625 z m 0,0"
       style="fill:#000000;fill-opacity:1;fill-rule:nonzero;stroke:none"
       aria-label="|"
       transform="matrix(1.3333333,0,0,1.3333333,344.81733,35.065333)" />
    <path
       id="path17"
       d="m 8.6123516,-3.2004844 h -0.375 c -0.1992188,1.4648438 -0.3632813,1.7109375 -0.4453125,1.8398438 -0.1054688,0.1640625 -1.59375,0.1640625 -1.8867188,0.1640625 H 1.9443828 c 0.7382813,-0.8085938 2.1914063,-2.2734375 3.9375,-3.9726563 1.265625,-1.1953125 2.7304688,-2.6015625 2.7304688,-4.640625 0,-2.4374996 -1.9453125,-3.8437496 -4.1132813,-3.8437496 -2.2734375,0 -3.65624999,2.003906 -3.65624999,3.8554684 0,0.8085937 0.59765629,0.9140625 0.85546879,0.9140625 0.1992187,0 0.8203125,-0.1289063 0.8203125,-0.84375 0,-0.6445309 -0.5390625,-0.8320309 -0.8203125,-0.8320309 -0.1289063,0 -0.2578125,0.02344 -0.3398438,0.05859 0.3984375,-1.746093 1.59375,-2.625 2.859375,-2.625 1.7929688,0 2.9765625,1.429688 2.9765625,3.3164066 0,1.7929688 -1.0546875,3.3398438 -2.2382812,4.6875 l -4.11328129,4.64062503 v 0.48046875 H 8.1201641 Z m 0,0"
       style="fill:#000000;fill-opacity:1;fill-rule:nonzero;stroke:none"
       aria-label="2"
       transform="matrix(1.3333333,0,0,1.3333333,353.99733,23.072)" />
    <path
       id="path18"
       d="m 9.3395,-5.7531016 h 6.574219 c 0.339844,0 0.761719,0 0.761719,-0.421875 0,-0.4453125 -0.386719,-0.4453125 -0.761719,-0.4453125 H 9.3395 v -6.5624999 c 0,-0.351563 0,-0.773438 -0.421875,-0.773438 -0.4453125,0 -0.4453125,0.398438 -0.4453125,0.773438 v 6.5624999 h -6.5625 c -0.3515625,0 -0.7734375,0 -0.7734375,0.421875 0,0.4453125 0.3984375,0.4453125 0.7734375,0.4453125 h 6.5625 v 6.57421879 c 0,0.33984371 0,0.76171871 0.421875,0.76171871 C 9.3395,1.5828359 9.3395,1.1961172 9.3395,0.82111719 Z m 0,0"
       style="fill:#000000;fill-opacity:1;fill-rule:nonzero;stroke:none"
       aria-label="+"
       transform="matrix(1.3333333,0,0,1.3333333,367.29733,35.065333)" />
    <path
       id="path19"
       d="m 15.737734,-17.225758 c 0,-0.222656 -0.175781,-0.222656 -0.222656,-0.222656 -0.09375,0 -0.128906,0.02344 -0.421875,0.398437 -0.152344,0.175782 -1.160156,1.464844 -1.183594,1.488282 -0.820312,-1.617188 -2.460937,-1.886719 -3.503906,-1.886719 -3.1406249,0 -5.9999999,2.871094 -5.9999999,5.671875 0,1.8632812 1.125,2.9531249 2.3320313,3.3749999 0.28125,0.09375 1.734375,0.4921875 2.484375,0.6679688 1.2656246,0.3515625 1.5820316,0.4453125 2.1093746,0.9960937 0.09375,0.1171875 0.585938,0.6914063 0.585938,1.8515625 0,2.3085938 -2.1328126,4.68750004 -4.6054689,4.68750004 -2.0390625,0 -4.2890625,-0.86718754 -4.2890625,-3.64453124 0,-0.46875 0.09375,-1.0664063 0.1757813,-1.3125 0,-0.070312 0.023437,-0.1992188 0.023437,-0.2460938 0,-0.1054687 -0.046875,-0.2226562 -0.2460938,-0.2226562 -0.2226562,0 -0.2460937,0.046875 -0.3515625,0.46875 l -1.265625,5.08593749 c 0,0.0234375 -0.09375,0.33984375 -0.09375,0.36328125 0,0.22265625 0.1992188,0.22265625 0.2460938,0.22265625 0.09375,0 0.1289062,-0.0234375 0.421875,-0.38671875 L 3.0697656,-1.3585703 c 0.5976563,0.89062499 1.8867188,1.87499999 4.1953125,1.87499999 3.1992189,0 6.1171879,-3.09374999 6.1171879,-6.18749999 0,-1.0429688 -0.246094,-1.9570313 -1.183594,-2.8828125 -0.527344,-0.515625 -0.972656,-0.6445313 -3.2460939,-1.2304688 -1.6640625,-0.4453124 -1.8867187,-0.5273434 -2.3320312,-0.9257814 -0.421875,-0.421875 -0.75,-1.007812 -0.75,-1.851562 0,-2.085938 2.109375,-4.21875 4.4648441,-4.21875 2.425781,0 3.574218,1.488281 3.574218,3.84375 0,0.644531 -0.128906,1.3125 -0.128906,1.417968 0,0.222657 0.199219,0.222657 0.269531,0.222657 0.222657,0 0.246094,-0.08203 0.351563,-0.480469 z m 0,0"
       style="fill:#000000;fill-opacity:1;fill-rule:nonzero;stroke:none"
       aria-label="S"
       transform="matrix(1.3333333,0,0,1.3333333,391.08667,35.065333)" />
    <path
       id="path20"
       d="m 9.4445234,-7.7220781 c 0,-1.3007813 -0.6679687,-1.3828125 -0.8320312,-1.3828125 -0.4921875,0 -0.9492188,0.4921875 -0.9492188,0.9023437 0,0.2460938 0.140625,0.3984375 0.2226563,0.4804688 0.2109375,0.1875 0.75,0.7382812 0.75,1.8164062 0,0.8671875 -1.2421875,5.69531253 -3.7148438,5.69531253 -1.265625,0 -1.5117187,-1.05468753 -1.5117187,-1.81640623 0,-1.03125 0.46875,-2.4726563 1.03125,-3.9609375 0.328125,-0.8554688 0.4101562,-1.0546875 0.4101562,-1.4648438 0,-0.8671875 -0.6210937,-1.6523437 -1.6289062,-1.6523437 -1.8984375,0 -2.66015626,2.9882812 -2.66015626,3.1523437 0,0.082031 0.0820313,0.1875 0.22265625,0.1875 0.1875,0 0.2109375,-0.082031 0.29296871,-0.375 0.4921875,-1.7695312 1.3007813,-2.5546875 2.0859375,-2.5546875 0.1875,0 0.5390625,0 0.5390625,0.6796875 0,0.5390625 -0.234375,1.1367188 -0.5390625,1.921875 -0.9960937,2.6484375 -0.9960937,3.28125 -0.9960937,3.7851563 0,0.4453125 0.058594,1.3007812 0.703125,1.87499998 0.75,0.64453125 1.78125,0.64453125 1.96875,0.64453125 3.421875,0 4.6054687,-6.76171873 4.6054687,-7.93359373 z m 0,0"
       style="fill:#000000;fill-opacity:1;fill-rule:nonzero;stroke:none"
       aria-label="v"
       transform="matrix(1.3333333,0,0,1.3333333,410.98933,40.022667)" />
    <path
       id="path21"
       d="m 4.0314951,0.08260938 c 0,-1.19531248 -0.3984375,-2.08593748 -1.2421875,-2.08593748 -0.65625,0 -0.9960937,0.5390625 -0.9960937,0.9960937 0,0.44531253 0.3164062,1.007812525 1.0195312,1.007812525 0.2695313,0 0.4921875,-0.082031245 0.6796875,-0.269531245 0.035156,-0.0351563 0.058594,-0.0351563 0.082031,-0.0351563 0.046875,0 0.046875,0.28125 0.046875,0.38671875 0,0.6796875 -0.1289063,2.02734377 -1.3242188,3.36328127 -0.234375,0.2578125 -0.234375,0.2929688 -0.234375,0.3398438 0,0.09375 0.1054688,0.1992187 0.2109375,0.1992187 0.1640625,0 1.7578125,-1.5234375 1.7578128,-3.90234372 z m 0,0"
       style="fill:#000000;fill-opacity:1;fill-rule:nonzero;stroke:none"
       aria-label=","
       transform="matrix(1.3333333,0,0,1.3333333,424.99577,40.022667)" />
    <text
       id="text21"
       xml:space="preserve"
       transform="matrix(1.3333333,0,0,1.3333333,432.512,40.022667)"><tspan
         id="tspan21"
         style="font-variant:normal;font-weight:normal;font-size:20.6625px;font-family:'Latin Modern Roman';writing-mode:lr-tb;fill:#000000;fill-opacity:1;fill-rule:nonzero;stroke:none"
         x="0"
         y="0">amp</tspan></text>
    <path
       id="path22"
       d="m 3.9364766,-17.694508 c 0,-0.445312 0,-0.890625 -0.4921875,-0.890625 -0.4921875,0 -0.4921875,0.445313 -0.4921875,0.890625 V 5.3093984 c 0,0.4453125 0,0.890625 0.4921875,0.890625 0.4921875,0 0.4921875,-0.4453125 0.4921875,-0.890625 z m 0,0"
       style="fill:#000000;fill-opacity:1;fill-rule:nonzero;stroke:none"
       aria-label="|"
       transform="matrix(1.3333333,0,0,1.3333333,481.16933,35.065333)" />
    <path
       id="path23"
       d="m 18.537805,-15.116383 c 0.222656,-0.84375 0.269531,-1.089844 2.027343,-1.089844 0.457032,0 0.703125,0 0.703125,-0.445312 0,-0.28125 -0.222656,-0.28125 -0.375,-0.28125 -0.445312,0 -0.972656,0.05859 -1.441406,0.05859 h -2.917969 c -0.46875,0 -0.996093,-0.05859 -1.464843,-0.05859 -0.175782,0 -0.46875,0 -0.46875,0.480469 0,0.246093 0.175781,0.246093 0.644531,0.246093 1.488281,0 1.488281,0.199219 1.488281,0.46875 0,0.04687 0,0.199219 -0.105469,0.574219 L 15.11593,-9.1749766 H 7.6276484 l 1.4882813,-5.9414064 c 0.2226562,-0.84375 0.28125,-1.089844 2.0390623,-1.089844 0.445313,0 0.691406,0 0.691406,-0.445312 0,-0.28125 -0.222656,-0.28125 -0.375,-0.28125 -0.445312,0 -0.960937,0.05859 -1.429687,0.05859 H 7.1120234 c -0.46875,0 -0.9960937,-0.05859 -1.4648437,-0.05859 -0.1757813,0 -0.46875,0 -0.46875,0.480469 0,0.246093 0.1757812,0.246093 0.6445312,0.246093 1.4882813,0 1.4882813,0.199219 1.4882813,0.46875 0,0.04687 0,0.199219 -0.1054688,0.574219 L 3.8659297,-1.8390391 c -0.2226563,0.87890629 -0.2695313,1.12500004 -1.9804688,1.12500004 -0.5742187,0 -0.75,0 -0.75,0.46875 0,0.2460937475 0.28125,0.2460937475 0.3515625,0.2460937475 0.4453125,0 0.9609375,-0.0468749975 1.4414063,-0.0468749975 h 2.9179687 c 0.46875,0 0.9960938,0.0468749975 1.4648438,0.0468749975 0.1992187,0 0.46875,0 0.46875,-0.4687499975 0,-0.24609375 -0.2226563,-0.24609375 -0.5976563,-0.24609375 -1.5117187,0 -1.5117187,-0.19921875 -1.5117187,-0.44531254 0,-0.035156 0,-0.1992187 0.058594,-0.3984375 l 1.7109375,-6.890625 h 7.4999993 c -0.421875,1.6289063 -1.675781,6.8085938 -1.734375,6.9609375 -0.269531,0.75000004 -0.667968,0.75000004 -2.132812,0.77343754 -0.292969,0 -0.515625,0 -0.515625,0.46875 0,0.2460937475 0.269531,0.2460937475 0.351562,0.2460937475 0.445313,0 0.960938,-0.0468749975 1.429688,-0.0468749975 h 2.929687 c 0.46875,0 0.984375,0.0468749975 1.464844,0.0468749975 0.199219,0 0.46875,0 0.46875,-0.4687499975 0,-0.24609375 -0.222656,-0.24609375 -0.597656,-0.24609375 -1.511719,0 -1.511719,-0.19921875 -1.511719,-0.44531254 0,-0.035156 0,-0.1992187 0.04687,-0.3984375 z m 0,0"
       style="fill:#000000;fill-opacity:1;fill-rule:nonzero;stroke:none"
       aria-label="H"
       transform="matrix(1.3333333,0,0,1.3333333,490.34933,35.065333)" />
    <text
       id="text23"
       xml:space="preserve"
       transform="matrix(1.3333333,0,0,1.3333333,517.16133,40.022667)"><tspan
         id="tspan23"
         style="font-variant:normal;font-weight:normal;font-size:20.6625px;font-family:'Latin Modern Roman';writing-mode:lr-tb;fill:#000000;fill-opacity:1;fill-rule:nonzero;stroke:none"
         x="0"
         y="0">amp</tspan></text>
    <path
       id="path24"
       d="m 3.9368047,-17.694508 c 0,-0.445312 0,-0.890625 -0.4921875,-0.890625 -0.4921875,0 -0.4921875,0.445313 -0.4921875,0.890625 V 5.3093984 c 0,0.4453125 0,0.890625 0.4921875,0.890625 0.4921875,0 0.4921875,-0.4453125 0.4921875,-0.890625 z m 0,0"
       style="fill:#000000;fill-opacity:1;fill-rule:nonzero;stroke:none"
       aria-label="|"
       transform="matrix(1.3333333,0,0,1.3333333,565.81733,35.065333)" />
    <path
       id="path25"
       d="m 8.6142813,-3.2004844 h -0.375 C 8.0400625,-1.7356406 7.876,-1.4895469 7.7939688,-1.3606406 7.6885,-1.1965781 6.2002188,-1.1965781 5.90725,-1.1965781 H 1.9463125 c 0.7382813,-0.8085938 2.1914063,-2.2734375 3.9375,-3.9726563 1.265625,-1.1953125 2.7304688,-2.6015625 2.7304688,-4.640625 0,-2.4374996 -1.9453125,-3.8437496 -4.1132813,-3.8437496 -2.2734375,0 -3.65625,2.003906 -3.65625,3.8554684 0,0.8085937 0.5976563,0.9140625 0.8554688,0.9140625 0.1992187,0 0.8203125,-0.1289063 0.8203125,-0.84375 0,-0.6445309 -0.5390625,-0.8320309 -0.8203125,-0.8320309 -0.1289063,0 -0.2578125,0.02344 -0.3398438,0.05859 0.3984375,-1.746093 1.59375,-2.625 2.859375,-2.625 1.7929688,0 2.9765625,1.429688 2.9765625,3.3164066 0,1.7929688 -1.0546875,3.3398438 -2.2382812,4.6875 L 0.84475,-0.48173437 v 0.48046875 h 7.2773438 z m 0,0"
       style="fill:#000000;fill-opacity:1;fill-rule:nonzero;stroke:none"
       aria-label="2"
       transform="matrix(1.3333333,0,0,1.3333333,574.99867,23.072)" />
    <path
       id="path26"
       d="m 9.3395,-5.7531016 h 6.574219 c 0.339844,0 0.761719,0 0.761719,-0.421875 0,-0.4453125 -0.386719,-0.4453125 -0.761719,-0.4453125 H 9.3395 v -6.5624999 c 0,-0.351563 0,-0.773438 -0.421875,-0.773438 -0.4453125,0 -0.4453125,0.398438 -0.4453125,0.773438 v 6.5624999 h -6.5625 c -0.3515625,0 -0.7734375,0 -0.7734375,0.421875 0,0.4453125 0.3984375,0.4453125 0.7734375,0.4453125 h 6.5625 v 6.57421879 c 0,0.33984371 0,0.76171871 0.421875,0.76171871 C 9.3395,1.5828359 9.3395,1.1961172 9.3395,0.82111719 Z m 0,0"
       style="fill:#000000;fill-opacity:1;fill-rule:nonzero;stroke:none"
       aria-label="+"
       transform="matrix(1.3333333,0,0,1.3333333,588.29733,35.065333)" />
    <path
       id="path27"
       d="m 15.739664,-17.225758 c 0,-0.222656 -0.175781,-0.222656 -0.222656,-0.222656 -0.09375,0 -0.128906,0.02344 -0.421875,0.398437 -0.152344,0.175782 -1.160156,1.464844 -1.183594,1.488282 -0.820312,-1.617188 -2.460937,-1.886719 -3.503906,-1.886719 -3.1406252,0 -6.0000002,2.871094 -6.0000002,5.671875 0,1.8632812 1.125,2.9531249 2.3320313,3.3749999 0.28125,0.09375 1.734375,0.4921875 2.484375,0.6679688 1.2656249,0.3515625 1.5820309,0.4453125 2.1093749,0.9960937 0.09375,0.1171875 0.585938,0.6914063 0.585938,1.8515625 0,2.3085938 -2.1328129,4.68750004 -4.6054692,4.68750004 -2.0390625,0 -4.2890625,-0.86718754 -4.2890625,-3.64453124 0,-0.46875 0.09375,-1.0664063 0.1757813,-1.3125 0,-0.070312 0.023437,-0.1992188 0.023437,-0.2460938 0,-0.1054687 -0.046875,-0.2226562 -0.2460938,-0.2226562 -0.2226562,0 -0.2460937,0.046875 -0.3515625,0.46875 l -1.265625,5.08593749 c 0,0.0234375 -0.09375,0.33984375 -0.09375,0.36328125 0,0.22265625 0.1992188,0.22265625 0.2460938,0.22265625 0.09375,0 0.1289062,-0.0234375 0.421875,-0.38671875 L 3.0716953,-1.3585703 c 0.5976563,0.89062499 1.8867188,1.87499999 4.1953125,1.87499999 3.1992192,0 6.1171872,-3.09374999 6.1171872,-6.18749999 0,-1.0429688 -0.246093,-1.9570313 -1.183593,-2.8828125 -0.527344,-0.515625 -0.972657,-0.6445313 -3.2460942,-1.2304688 -1.6640625,-0.4453124 -1.8867187,-0.5273434 -2.3320312,-0.9257814 -0.421875,-0.421875 -0.75,-1.007812 -0.75,-1.851562 0,-2.085938 2.109375,-4.21875 4.4648434,-4.21875 2.425782,0 3.574219,1.488281 3.574219,3.84375 0,0.644531 -0.128906,1.3125 -0.128906,1.417968 0,0.222657 0.199219,0.222657 0.269531,0.222657 0.222656,0 0.246094,-0.08203 0.351563,-0.480469 z m 0,0"
       style="fill:#000000;fill-opacity:1;fill-rule:nonzero;stroke:none"
       aria-label="S"
       transform="matrix(1.3333333,0,0,1.3333333,612.088,35.065333)" />
    <path
       id="path28"
       d="m 5.8468672,-2.9544844 c 0,-0.1054687 -0.082031,-0.1875 -0.2109375,-0.1875 -0.1875,0 -0.1992188,0.058594 -0.3046875,0.4101563 -0.5390625,1.88671873 -1.3828125,2.51953123 -2.0625,2.51953123 -0.2578125,0 -0.5390625,-0.0585938 -0.5390625,-0.6796875 0,-0.55078123 0.2460937,-1.17187503 0.46875,-1.79296873 l 1.453125,-3.84375 c 0.058594,-0.1640625 0.1992187,-0.5390625 0.1992187,-0.9257813 0,-0.8671875 -0.6210937,-1.6523437 -1.6289062,-1.6523437 -1.8984375,0 -2.66015626,2.9882812 -2.66015626,3.1523437 0,0.082031 0.0820313,0.1875 0.22265625,0.1875 0.1875,0 0.2109375,-0.082031 0.29296871,-0.375 0.4921875,-1.734375 1.2773438,-2.5546875 2.0859375,-2.5546875 0.1875,0 0.5390625,0.023437 0.5390625,0.6796875 0,0.5390625 -0.2695312,1.21875 -0.4335937,1.6757813 l -1.453125,3.84375 c -0.1171875,0.328125 -0.2460938,0.65625 -0.2460938,1.03125 0,0.92578123 0.6445313,1.67578123 1.6289063,1.67578123 1.8984375,0 2.6484375,-3.02343753 2.6484375,-3.16406253 z M 5.6828047,-12.891984 c 0,-0.316407 -0.2460938,-0.679688 -0.703125,-0.679688 -0.4804688,0 -1.0195313,0.445313 -1.0195313,0.984375 0,0.515625 0.4453125,0.691406 0.6914063,0.691406 0.5507812,0 1.03125,-0.539062 1.03125,-0.996093 z M 10.932805,0.08067188 c 0,-1.19531248 -0.398438,-2.08593748 -1.2421878,-2.08593748 -0.65625,0 -0.9960938,0.5390625 -0.9960938,0.9960937 0,0.44531253 0.3164063,1.00781253 1.0195313,1.00781253 0.2695312,0 0.4921873,-0.08203125 0.6796873,-0.26953125 0.03516,-0.0351563 0.05859,-0.0351563 0.08203,-0.0351563 0.04687,0 0.04687,0.28125 0.04687,0.38671875 0,0.6796875 -0.128906,2.02734377 -1.3242183,3.36328127 -0.234375,0.2578125 -0.234375,0.2929688 -0.234375,0.3398438 0,0.09375 0.1054687,0.1992187 0.2109375,0.1992187 0.1640625,0 1.7578128,-1.5234375 1.7578128,-3.90234377 z m 0,0"
       style="fill:#000000;fill-opacity:1;fill-rule:nonzero;stroke:none"
       aria-label="i,"
       transform="matrix(1.3333333,0,0,1.3333333,631.98933,41.744)" />
    <text
       id="text28"
       xml:space="preserve"
       transform="matrix(1.3333333,0,0,1.3333333,648.68533,41.744)"><tspan
         id="tspan28"
         style="font-variant:normal;font-weight:normal;font-size:20.6625px;font-family:'Latin Modern Roman';writing-mode:lr-tb;fill:#000000;fill-opacity:1;fill-rule:nonzero;stroke:none"
         x="0"
         y="0">amp</tspan></text>
    <path
       id="path29"
       d="m 3.9363828,-17.694508 c 0,-0.445312 0,-0.890625 -0.4921875,-0.890625 -0.4921875,0 -0.4921875,0.445313 -0.4921875,0.890625 V 5.3093984 c 0,0.4453125 0,0.890625 0.4921875,0.890625 0.4921875,0 0.4921875,-0.4453125 0.4921875,-0.890625 z m 0,0"
       style="fill:#000000;fill-opacity:1;fill-rule:nonzero;stroke:none"
       aria-label="|"
       transform="matrix(1.3333333,0,0,1.3333333,697.34133,35.065333)" />
    <path
       id="path30"
       d="m 17.356047,-16.159352 c 0.140625,-0.175781 0.269531,-0.316406 0.269531,-0.574218 0,-0.164063 -0.02344,-0.199219 -0.597656,-0.199219 H 6.7974531 c -0.5742187,0 -0.5976562,0.03516 -0.75,0.480469 l -1.359375,4.453125 c -0.082031,0.246093 -0.082031,0.304687 -0.082031,0.351562 0,0.09375 0.082031,0.246094 0.2578125,0.246094 0.1875,0 0.2460937,-0.09375 0.3398437,-0.421875 0.9140625,-2.671875 2.1328125,-4.382813 6.0468747,-4.382813 h 4.066406 L 1.7349531,-0.84294531 c -0.2226562,0.26953125 -0.3164062,0.375 -0.3164062,0.64453125 0,0.1992187475 0.1171875,0.1992187475 0.5859375,0.1992187475 H 12.586516 c 0.574218,0 0.597656,-0.0234374975 0.75,-0.4687499975 l 1.734375,-5.48437499 c 0.02344,-0.070312 0.07031,-0.2460938 0.07031,-0.3398438 0,-0.1289062 -0.09375,-0.2460937 -0.246094,-0.2460937 -0.199218,0 -0.222656,0.023437 -0.421875,0.6445312 -1.042968,3.1875 -2.132812,5.12109379 -6.4453121,5.12109379 H 3.7388594 Z m 0,0"
       style="fill:#000000;fill-opacity:1;fill-rule:nonzero;stroke:none"
       aria-label="Z"
       transform="matrix(1.3333333,0,0,1.3333333,706.52267,35.065333)" />
    <text
       id="text30"
       xml:space="preserve"
       transform="matrix(1.3333333,0,0,1.3333333,728.672,40.022667)"><tspan
         id="tspan30"
         style="font-variant:normal;font-weight:normal;font-size:20.6625px;font-family:'Latin Modern Roman';writing-mode:lr-tb;fill:#000000;fill-opacity:1;fill-rule:nonzero;stroke:none"
         x="0"
         y="0">eq</tspan></text>
    <path
       id="path31"
       d="m 3.9376094,-17.694508 c 0,-0.445312 0,-0.890625 -0.4921875,-0.890625 -0.4921875,0 -0.4921875,0.445313 -0.4921875,0.890625 V 5.3093984 c 0,0.4453125 0,0.890625 0.4921875,0.890625 0.4921875,0 0.4921875,-0.4453125 0.4921875,-0.890625 z m 0,0"
       style="fill:#000000;fill-opacity:1;fill-rule:nonzero;stroke:none"
       aria-label="|"
       transform="matrix(1.3333333,0,0,1.3333333,753.88267,35.065333)" />
    <path
       id="path32"
       d="m 8.6121562,-3.2004844 h -0.375 C 8.0379375,-1.7356406 7.873875,-1.4895469 7.7918437,-1.3606406 7.686375,-1.1965781 6.1980937,-1.1965781 5.905125,-1.1965781 H 1.9441875 c 0.7382812,-0.8085938 2.1914062,-2.2734375 3.9375,-3.9726563 1.265625,-1.1953125 2.7304687,-2.6015625 2.7304687,-4.640625 0,-2.4374996 -1.9453125,-3.8437496 -4.1132812,-3.8437496 -2.2734375,0 -3.65625,2.003906 -3.65625,3.8554684 0,0.8085937 0.5976562,0.9140625 0.8554687,0.9140625 0.1992188,0 0.8203125,-0.1289063 0.8203125,-0.84375 0,-0.6445309 -0.5390625,-0.8320309 -0.8203125,-0.8320309 -0.1289062,0 -0.2578125,0.02344 -0.3398437,0.05859 0.3984375,-1.746093 1.59375,-2.625 2.859375,-2.625 1.7929687,0 2.9765625,1.429688 2.9765625,3.3164066 0,1.7929688 -1.0546875,3.3398438 -2.2382813,4.6875 L 0.842625,-0.48173437 v 0.48046875 h 7.2773437 z m 0,0"
       style="fill:#000000;fill-opacity:1;fill-rule:nonzero;stroke:none"
       aria-label="2"
       transform="matrix(1.3333333,0,0,1.3333333,763.064,23.072)" />
    <path
       id="path33"
       d="m 4.2193984,-2.7531016 c -0.8671875,1.4648438 -1.7109375,1.95703129 -2.90625,2.03906254 -0.2695312,0.0234375 -0.46874996,0.0234375 -0.46874996,0.46875 0,0.15234375 0.1171875,0.2460937475 0.29296876,0.2460937475 0.4453125,0 1.5703125,-0.0468749975 2.015625,-0.0468749975 0.7148437,0 1.5117187,0.0468749975 2.203125,0.0468749975 0.1523437,0 0.4453125,0 0.4453125,-0.4687499975 0,-0.22265625 -0.1992188,-0.24609375 -0.3515625,-0.24609375 -0.5625,-0.0585938 -1.0429688,-0.24609375 -1.0429688,-0.84375004 0,-0.3515625 0.1523438,-0.6210937 0.4804688,-1.171875 l 1.875,-3.1171875 h 6.3281248 c 0.02344,0.2226563 0.02344,0.421875 0.04687,0.6445313 0.07031,0.6445312 0.375,3.2226562 0.375,3.6914062 0,0.73828129 -1.265625,0.79687504 -1.664062,0.79687504 -0.269532,0 -0.550782,0 -0.550782,0.4453125 0,0.2695312475 0.222657,0.2695312475 0.375,0.2695312475 0.421875,0 0.914063,-0.0468749975 1.335938,-0.0468749975 h 1.417969 c 1.511718,0 2.601562,0.0468749975 2.625,0.0468749975 0.175781,0 0.445312,0 0.445312,-0.4687499975 0,-0.24609375 -0.222656,-0.24609375 -0.597656,-0.24609375 -1.359375,0 -1.382813,-0.22265625 -1.453125,-0.97265624 L 13.934242,-17.155445 c -0.05859,-0.492188 -0.152344,-0.539063 -0.421875,-0.539063 -0.246094,0 -0.398437,0.04687 -0.621094,0.421875 z m 2.9648438,-3.8085937 4.9804688,-8.3320317 0.84375,8.3320317 z m 0,0"
       style="fill:#f9123c;fill-opacity:1;fill-rule:nonzero;stroke:none"
       aria-label="A"
       transform="matrix(1.3333333,0,0,1.3333333,797.01867,35.065333)" />
    <path
       id="path34"
       d="m 5.4961016,-13.206977 c 0,-0.433593 -0.023437,-0.445312 -0.3046875,-0.445312 -0.8085938,0.972656 -2.0273438,1.277344 -3.1875,1.3125 -0.058594,0 -0.1640625,0 -0.1875,0.04687 -0.023437,0.04687 -0.023437,0.08203 -0.023437,0.515625 0.6445312,0 1.7226562,-0.117188 2.5429687,-0.621094 v 10.8867189 c 0,0.72656254 -0.035156,0.97265629 -1.8164062,0.97265629 H 1.8984453 V 5.46875e-5 C 2.8945391,-0.02338281 3.9257891,-0.04682031 4.9218828,-0.04682031 c 0.984375,0 2.015625,0.0234375 3.0117188,0.0468749975 V -0.53900781 H 7.3125078 c -1.78125,0 -1.8164062,-0.22265625 -1.8164062,-0.97265629 z m 0,0"
       style="fill:#f9123c;fill-opacity:1;fill-rule:nonzero;stroke:none"
       aria-label="1"
       transform="matrix(1.3333333,0,0,1.3333333,821.27733,41.441333)" />
    <path
       id="path35"
       d="m 4.2174141,-2.7531016 c -0.8671875,1.4648438 -1.7109375,1.95703129 -2.90625,2.03906254 -0.2695313,0.0234375 -0.46875004,0.0234375 -0.46875004,0.46875 0,0.15234375 0.1171875,0.2460937475 0.29296874,0.2460937475 0.4453125,0 1.5703125,-0.0468749975 2.015625,-0.0468749975 0.7148438,0 1.5117188,0.0468749975 2.203125,0.0468749975 0.1523438,0 0.4453125,0 0.4453125,-0.4687499975 0,-0.22265625 -0.1992187,-0.24609375 -0.3515625,-0.24609375 -0.5625,-0.0585938 -1.0429687,-0.24609375 -1.0429687,-0.84375004 0,-0.3515625 0.1523437,-0.6210937 0.4804687,-1.171875 l 1.875,-3.1171875 h 6.3281252 c 0.02344,0.2226563 0.02344,0.421875 0.04687,0.6445313 0.07031,0.6445312 0.375,3.2226562 0.375,3.6914062 0,0.73828129 -1.265625,0.79687504 -1.664063,0.79687504 -0.269531,0 -0.550781,0 -0.550781,0.4453125 0,0.2695312475 0.222656,0.2695312475 0.375,0.2695312475 0.421875,0 0.914063,-0.0468749975 1.335938,-0.0468749975 h 1.417968 c 1.511719,0 2.601563,0.0468749975 2.625,0.0468749975 0.175782,0 0.445313,0 0.445313,-0.4687499975 0,-0.24609375 -0.222656,-0.24609375 -0.597656,-0.24609375 -1.359375,0 -1.382813,-0.22265625 -1.453125,-0.97265624 L 13.932258,-17.155445 c -0.05859,-0.492188 -0.152344,-0.539063 -0.421875,-0.539063 -0.246094,0 -0.398438,0.04687 -0.621094,0.421875 z m 2.9648437,-3.8085937 4.9804692,-8.3320317 0.84375,8.3320317 z m 0,0"
       style="fill:#f9123c;fill-opacity:1;fill-rule:nonzero;stroke:none"
       aria-label="A"
       transform="matrix(1.3333333,0,0,1.3333333,834.576,35.065333)" />
    <path
       id="path36"
       d="m 8.6132344,-3.1991641 h -0.375 c -0.1992188,1.4648438 -0.3632813,1.7109375 -0.4453125,1.8398438 -0.1054688,0.1640625 -1.59375,0.1640625 -1.8867188,0.1640625 H 1.9452656 c 0.7382813,-0.8085938 2.1914063,-2.2734375 3.9375,-3.9726563 1.265625,-1.1953125 2.7304688,-2.6015625 2.7304688,-4.640625 0,-2.4374999 -1.9453125,-3.8437499 -4.1132813,-3.8437499 -2.2734375,0 -3.65624997,2.003906 -3.65624997,3.8554687 0,0.8085937 0.59765627,0.9140625 0.85546877,0.9140625 0.1992187,0 0.8203125,-0.1289063 0.8203125,-0.84375 0,-0.6445312 -0.5390625,-0.8320312 -0.8203125,-0.8320312 -0.1289063,0 -0.2578125,0.02344 -0.3398438,0.05859 0.3984375,-1.746094 1.59375,-2.625 2.859375,-2.625 1.7929688,0 2.9765625,1.429687 2.9765625,3.3164059 0,1.7929688 -1.0546875,3.3398438 -2.2382812,4.6875 L 0.84370313,-0.48041406 V 5.46875e-5 H 8.1210469 Z m 0,0"
       style="fill:#f9123c;fill-opacity:1;fill-rule:nonzero;stroke:none"
       aria-label="2"
       transform="matrix(1.3333333,0,0,1.3333333,858.836,41.441333)" />
    <path
       id="path37"
       d="m 9.3411953,-5.7531016 h 6.5742187 c 0.339844,0 0.761719,0 0.761719,-0.421875 0,-0.4453125 -0.386719,-0.4453125 -0.761719,-0.4453125 H 9.3411953 v -6.5624999 c 0,-0.351563 0,-0.773438 -0.421875,-0.773438 -0.4453125,0 -0.4453125,0.398438 -0.4453125,0.773438 v 6.5624999 h -6.5625 c -0.3515625,0 -0.7734375,0 -0.7734375,0.421875 0,0.4453125 0.3984375,0.4453125 0.7734375,0.4453125 h 6.5625 v 6.57421879 c 0,0.33984371 0,0.76171871 0.421875,0.76171871 0.4453125,0 0.4453125,-0.3867187 0.4453125,-0.76171871 z m 0,0"
       style="fill:#f9123c;fill-opacity:1;fill-rule:nonzero;stroke:none"
       aria-label="+"
       transform="matrix(1.3333333,0,0,1.3333333,879.47867,35.065333)" />
    <path
       id="path38"
       d="m 6.2222266,-2.4599219 c -0.1054688,0.3515625 -0.1054688,0.3984375 -0.3984375,0.7851563 -0.4570313,0.5859375 -1.359375,1.46484373 -2.3320313,1.46484373 -0.84375,0 -1.3242187,-0.76171875 -1.3242187,-1.98046873 0,-1.1367188 0.6445312,-3.4453125 1.03125,-4.3125 0.703125,-1.453125 1.6757812,-2.1914063 2.484375,-2.1914063 1.359375,0 1.6289062,1.6875 1.6289062,1.8515625 0,0.023437 -0.058594,0.2929688 -0.082031,0.3398438 z m 1.3125,-5.2851562 c -0.2226563,-0.5390625 -0.7734375,-1.359375 -1.8515625,-1.359375 -2.3320313,0 -4.85156254,3.0117187 -4.85156254,6.0703125 0,2.03906248 1.19531254,3.24609373 2.60156254,3.24609373 1.1367187,0 2.0976562,-0.890625 2.6835937,-1.57031253 0.1992188,1.21875003 1.171875,1.57031253 1.7929688,1.57031253 0.6210937,0 1.1132812,-0.375 1.4882812,-1.125 0.328125,-0.70312503 0.6210942,-1.95703123 0.6210942,-2.03906253 0,-0.1054687 -0.082032,-0.1875 -0.2109379,-0.1875 -0.1757813,0 -0.1992188,0.1054688 -0.28125,0.4101563 -0.3164063,1.21875 -0.703125,2.51953123 -1.546875,2.51953123 -0.609375,0 -0.6445313,-0.52734375 -0.6445313,-0.94921873 0,-0.46875 0.058594,-0.703125 0.2460938,-1.5 0.140625,-0.5273438 0.2460937,-0.9726563 0.4101562,-1.5703125 0.7734375,-3.1054688 0.9492188,-3.84375 0.9492188,-3.9726563 0,-0.2929687 -0.2226563,-0.515625 -0.5273438,-0.515625 -0.6679687,0 -0.8320312,0.7265625 -0.8789062,0.9726563 z m 0,0"
       style="fill:#f9123c;fill-opacity:1;fill-rule:nonzero;stroke:none"
       aria-label="a"
       transform="matrix(1.3333333,0,0,1.3333333,913.24667,22.053333)" />
    <path
       id="path39"
       d="M 0,0 H 12.179"
       style="fill:none;stroke:#f9123c;stroke-width:0.991;stroke-linecap:butt;stroke-linejoin:miter;stroke-miterlimit:10;stroke-dasharray:none;stroke-opacity:1"
       transform="matrix(1.3333333,0,0,-1.3333333,912.208,26.804)" />
    <path
       id="path40"
       d="m 9.2102109,-8.3091172 c 0.421875,0 0.5859375,0 0.5859375,-0.3867187 0,-0.2109375 -0.1640625,-0.2109375 -0.5390625,-0.2109375 H 7.5813047 c 0.3984375,-2.1210936 0.6796875,-3.5976566 0.84375,-4.2539066 0.1289062,-0.492187 0.5625,-0.972656 1.1015625,-0.972656 0.4335937,0 0.8671878,0.1875 1.0664058,0.375 -0.7968746,0.08203 -1.0429683,0.679688 -1.0429683,1.03125 0,0.410156 0.3046875,0.65625 0.6914063,0.65625 0.421875,0 1.042969,-0.351562 1.042969,-1.136719 0,-0.867187 -0.867188,-1.335937 -1.7812503,-1.335937 -0.890625,0 -1.7578125,0.65625 -2.1679688,1.464844 -0.375,0.726562 -0.5742187,1.464843 -1.0546875,4.1718746 H 4.8977109 c -0.3984375,0 -0.5976562,0 -0.5976562,0.375 0,0.2226562 0.1171875,0.2226562 0.5390625,0.2226562 h 1.3125 c -0.3632813,1.921875 -1.21875,6.5976563 -1.6875,8.80078126 C 4.1125547,2.2963516 3.7961484,3.7963516 2.7648984,3.7963516 c -0.058594,0 -0.65625,0 -1.03125,-0.3867188 1.0546875,-0.082031 1.0546875,-0.9960937 1.0546875,-1.0078125 0,-0.421875 -0.3046875,-0.6679687 -0.703125,-0.6679687 -0.4101562,0 -1.03125,0.3515625 -1.03125,1.1367187 0,0.890625 0.9023438,1.3476563 1.7109375,1.3476563 2.109375,0 2.9765625,-3.78515629 3.2109375,-4.81640629 C 6.3391172,-2.1919297 7.3586484,-7.6880234 7.4523984,-8.3091172 Z m 0,0"
       style="fill:#f9123c;fill-opacity:1;fill-rule:nonzero;stroke:none"
       aria-label="f"
       transform="matrix(1.3333333,0,0,1.3333333,912.208,47.918667)" />
    <path
       id="path41"
       d="m 9.3389531,-5.7531016 h 6.5742189 c 0.339844,0 0.761719,0 0.761719,-0.421875 0,-0.4453125 -0.386719,-0.4453125 -0.761719,-0.4453125 H 9.3389531 v -6.5624999 c 0,-0.351563 0,-0.773438 -0.421875,-0.773438 -0.4453125,0 -0.4453125,0.398438 -0.4453125,0.773438 v 6.5624999 h -6.5625 c -0.3515625,0 -0.7734375,0 -0.7734375,0.421875 0,0.4453125 0.3984375,0.4453125 0.7734375,0.4453125 h 6.5625 v 6.57421879 c 0,0.33984371 0,0.76171871 0.421875,0.76171871 0.4453125,0 0.4453125,-0.3867187 0.4453125,-0.76171871 z m 0,0"
       style="fill:#f9123c;fill-opacity:1;fill-rule:nonzero;stroke:none"
       aria-label="+"
       transform="matrix(1.3333333,0,0,1.3333333,937.384,35.065333)" />
    <path
       id="path42"
       d="m 5.7311172,-16.581227 c 0.023437,-0.09375 0.070312,-0.246093 0.070312,-0.375 0,-0.246093 -0.2460938,-0.246093 -0.2929688,-0.246093 -0.035156,0 -0.9257812,0.08203 -1.3710937,0.128906 -0.421875,0.02344 -0.7851563,0.07031 -1.2421875,0.09375 -0.5859375,0.04687 -0.7617188,0.08203 -0.7617188,0.527344 0,0.246093 0.2460938,0.246093 0.4921875,0.246093 1.265625,0 1.265625,0.222657 1.265625,0.46875 0,0.175782 -0.1992187,0.890625 -0.2929687,1.335938 l -0.5976563,2.378906 c -0.2460937,0.996094 -1.6640625,6.6210939 -1.7578125,7.0664064 -0.1289062,0.6210938 -0.1289062,1.0429688 -0.1289062,1.359375 0,2.53125 1.4179687,3.84375004 3.0234375,3.84375004 2.8828125,0 5.8476562,-3.69140624 5.8476562,-7.28906254 0,-2.2734375 -1.2890625,-3.8906249 -3.140625,-3.8906249 -1.2890625,0 -2.4609375,1.0664062 -2.9296875,1.5703124 z M 4.1608047,-0.24528906 c -0.7851563,0 -1.6523438,-0.59765625 -1.6523438,-2.53125004 0,-0.8203125 0.070312,-1.2890625 0.515625,-3.0234375 0.070312,-0.3164062 0.46875,-1.9101562 0.5742188,-2.2265625 0.046875,-0.1992187 1.5117187,-2.4023439 3.1992187,-2.4023439 1.0898438,0 1.5820313,1.0898439 1.5820313,2.3789064 0,1.1835938 -0.6914063,3.984375 -1.3125,5.2734375 -0.6210938,1.3359375 -1.7578125,2.53125004 -2.90625,2.53125004 z m 0,0"
       style="fill:#f9123c;fill-opacity:1;fill-rule:nonzero;stroke:none"
       aria-label="b"
       transform="matrix(1.3333333,0,0,1.3333333,968.51867,35.065333)" />
  </g>
</svg>
