<?xml version="1.0" encoding="UTF-8" standalone="no"?>
<!-- Created with Inkscape (http://www.inkscape.org/) -->

<svg
   version="1.1"
   id="svg1"
   width="647.98401"
   height="215.21733"
   viewBox="0 0 647.98401 215.21733"
   sodipodi:docname="leviton.pdf"
   xmlns:inkscape="http://www.inkscape.org/namespaces/inkscape"
   xmlns:sodipodi="http://sodipodi.sourceforge.net/DTD/sodipodi-0.dtd"
   xmlns="http://www.w3.org/2000/svg"
   xmlns:svg="http://www.w3.org/2000/svg">
  <defs
     id="defs1" />
  <sodipodi:namedview
     id="namedview1"
     pagecolor="#ffffff"
     bordercolor="#000000"
     borderopacity="0.25"
     inkscape:showpageshadow="2"
     inkscape:pageopacity="0.0"
     inkscape:pagecheckerboard="0"
     inkscape:deskcolor="#d1d1d1">
    <inkscape:page
       x="0"
       y="0"
       inkscape:label="1"
       id="page1"
       width="647.98401"
       height="215.21733"
       margin="0"
       bleed="0" />
  </sodipodi:namedview>
  <g
     id="g1"
     inkscape:groupmode="layer"
     inkscape:label="1">
    <path
       id="path1"
       d="M 0,-56.69362 V 0 h 155.90744 v -56.69362 z"
       style="fill:#122d8d;fill-opacity:1;fill-rule:nonzero;stroke:#000000;stroke-width:0.3985;stroke-linecap:butt;stroke-linejoin:miter;stroke-miterlimit:10;stroke-dasharray:none;stroke-opacity:1"
       transform="matrix(1.3333333,0,0,-1.3333333,145.04133,114.08533)" />
    <path
       id="path2"
       d="M 0,-56.69362 H 162.3099"
       style="fill:none;stroke:#000000;stroke-width:1.19553;stroke-linecap:butt;stroke-linejoin:miter;stroke-miterlimit:10;stroke-dasharray:none;stroke-opacity:1"
       transform="matrix(1.3333333,0,0,-1.3333333,145.04133,114.08533)" />
    <path
       id="path3"
       d="M 5.30629,0 C 4.65466,0.16344 1.79025,1.08963 0,2.09753 V -2.09753 C 1.79025,-1.08963 4.65466,-0.16344 5.30629,0 Z"
       style="fill:#000000;fill-opacity:1;fill-rule:nonzero;stroke:#000000;stroke-width:1.19553;stroke-linecap:butt;stroke-linejoin:miter;stroke-miterlimit:10;stroke-dasharray:none;stroke-opacity:1"
       transform="matrix(1.3333333,0,0,-1.3333333,361.45453,189.67683)" />
    <path
       id="path4"
       d="m 3.4564219,-6.9270234 h 1.5820312 c 0.328125,0 0.5039063,0 0.5039063,-0.3046875 0,-0.1875 -0.1054688,-0.1875 -0.4453125,-0.1875 H 3.5853281 l 0.6328125,-2.5195313 c 0.070312,-0.2343748 0.070312,-0.2695308 0.070312,-0.3867188 0,-0.28125 -0.2226562,-0.433594 -0.4453125,-0.433594 -0.140625,0 -0.5390625,0.04687 -0.6796875,0.597657 L 2.4954844,-7.4192109 H 0.87829687 c -0.33984375,0 -0.50390625,0 -0.50390625,0.328125 0,0.1640625 0.12890625,0.1640625 0.45703125,0.1640625 H 2.3548594 l -1.1367188,4.546875 c -0.1289062,0.609375 -0.1875,0.7734375 -0.1875,0.9960937 0,0.82031251 0.5742188,1.55859376 1.5351563,1.55859376 1.734375,0 2.671875,-2.51953126 2.671875,-2.63671876 0,-0.1054687 -0.070312,-0.1523437 -0.1757813,-0.1523437 -0.035156,0 -0.1054687,0 -0.140625,0.070312 -0.011719,0.011719 -0.035156,0.035156 -0.1523437,0.3046875 -0.3632813,0.8554687 -1.1601563,2.06249996 -2.15625,2.06249996 -0.515625,0 -0.5507813,-0.421875 -0.5507813,-0.80859375 0,-0.0117188 0,-0.33984371 0.058594,-0.55078121 z m 0,0"
       style="fill:#000000;fill-opacity:1;fill-rule:nonzero;stroke:none"
       aria-label="t"
       transform="matrix(1.3333333,0,0,1.3333333,254.368,209.904)" />
    <path
       id="path5"
       d="M 0,-56.69362 V 48.92267"
       style="fill:none;stroke:#000000;stroke-width:1.19553;stroke-linecap:butt;stroke-linejoin:miter;stroke-miterlimit:10;stroke-dasharray:none;stroke-opacity:1"
       transform="matrix(1.3333333,0,0,-1.3333333,145.04133,114.08533)" />
    <path
       id="path6"
       d="M 5.30629,0 C 4.65466,0.16344 1.79025,1.08963 0,2.09753 V -2.09753 C 1.79025,-1.08963 4.65466,-0.16344 5.30629,0 Z"
       style="fill:#000000;fill-opacity:1;fill-rule:nonzero;stroke:#000000;stroke-width:1.19553;stroke-linecap:butt;stroke-linejoin:miter;stroke-miterlimit:10;stroke-dasharray:none;stroke-opacity:1"
       transform="matrix(0,-1.3333333,-1.3333333,0,145.04133,48.855107)" />
    <path
       id="path7"
       d="m 2.7426953,-12.291641 c 0,-0.304687 0,-0.621093 -0.3515625,-0.621093 -0.3398437,0 -0.3398437,0.316406 -0.3398437,0.621093 V 3.6810156 c 0,0.3164063 0,0.6210938 0.3398437,0.6210938 0.3515625,0 0.3515625,-0.3046875 0.3515625,-0.6210938 z m 0,0"
       style="fill:#000000;fill-opacity:1;fill-rule:nonzero;stroke:none"
       aria-label="|"
       transform="matrix(1.3333333,0,0,1.3333333,114.52667,26.646667)" />
    <path
       id="path8"
       d="m 8.0856953,-11.529922 c 0,-0.02344 0.070312,-0.246094 0.070312,-0.257812 0,-0.152344 -0.1289062,-0.152344 -0.1875,-0.152344 -0.1523437,0 -0.1757812,0.08203 -0.234375,0.339844 L 4.8864766,-0.20960937 C 3.4567891,-0.37367187 2.9294453,-1.1002344 2.9294453,-2.1314844 c 0,-0.375 0,-0.7734375 0.8085938,-2.90625 0.2226562,-0.6210937 0.3046875,-0.84375 0.3046875,-1.1601562 0,-0.7734375 -0.5507813,-1.3945313 -1.359375,-1.3945313 -1.5820313,0 -2.21484379,2.4960938 -2.21484379,2.6367188 0,0.070312 0.0703125,0.1523437 0.1875,0.1523437 0.15234375,0 0.17578125,-0.070312 0.234375,-0.3046875 0.42187499,-1.5 1.10156249,-2.1328125 1.74609379,-2.1328125 0.1523437,0 0.4453125,0.011719 0.4453125,0.5625 0,0.070312 0,0.4453125 -0.2929688,1.2070313 -0.9257812,2.4375 -0.9257812,2.8242187 -0.9257812,3.2226562 0,1.65234378 1.3710937,2.28515628 2.9179687,2.40234378 -0.1289062,0.5390625 -0.2578125,1.08984372 -0.3867187,1.61718752 -0.28125,1.03125 -0.3984375,1.5234375 -0.3984375,1.5820312 0,0.1640625 0.140625,0.1640625 0.1875,0.1640625 0.035156,0 0.1054687,0 0.140625,-0.070312 0.070312,-0.070312 0.7734375,-2.96484372 0.84375,-3.26953122 0.6328125,0 1.9921875,0 3.5390625,-1.60546878 0.5742187,-0.6210937 1.0898437,-1.40625 1.3828129,-2.15625 0.175781,-0.4453125 0.585937,-1.96875 0.585937,-2.8476562 0,-1.0429688 -0.515625,-1.1601563 -0.6914062,-1.1601563 -0.4101562,0 -0.796875,0.4101563 -0.796875,0.7617188 0,0.1992187 0.1289063,0.328125 0.1992188,0.3984375 0.1523437,0.1523437 0.609375,0.609375 0.609375,1.5117187 0,0.6210938 -0.3398438,1.8867188 -1.4414063,3.1289063 -1.4414062,1.61718748 -2.765625,1.61718748 -3.28125,1.61718748 z m 0,0"
       style="fill:#000000;fill-opacity:1;fill-rule:nonzero;stroke:none"
       aria-label="ψ"
       transform="matrix(1.3333333,0,0,1.3333333,120.90267,26.646667)" />
    <path
       id="path9"
       d="m 5.2723906,4.1966406 c 0,-0.011719 0,-0.046875 -0.058594,-0.09375 -0.7851563,-0.8085937 -2.90625,-3.0117187 -2.90625,-8.390625 0,-5.3671875 2.0859375,-7.5585936 2.9296875,-8.4140626 0,-0.02344 0.035156,-0.05859 0.035156,-0.105469 0,-0.04687 -0.058594,-0.08203 -0.1289062,-0.08203 -0.1875,0 -1.6523438,1.265625 -2.4960938,3.1640626 -0.8554687,1.9101563 -1.1015625,3.7734375 -1.1015625,5.4257813 0,1.2421875 0.1171875,3.33984373 1.1601563,5.5546875 0.8203125,1.7929687 2.2382812,3.046875 2.4375,3.046875 0.09375,0 0.1289062,-0.035156 0.1289062,-0.1054688 z m 0,0"
       style="fill:#000000;fill-opacity:1;fill-rule:nonzero;stroke:none"
       aria-label="("
       transform="matrix(1.3333333,0,0,1.3333333,136.33733,26.646667)" />
    <path
       id="path10"
       d="m 3.4556641,-6.9244531 h 1.5820312 c 0.328125,0 0.5039063,0 0.5039063,-0.3046875 0,-0.1875 -0.1054688,-0.1875 -0.4453125,-0.1875 H 3.5845703 l 0.6328125,-2.5195313 c 0.070312,-0.2343751 0.070312,-0.2695311 0.070312,-0.3867191 0,-0.28125 -0.2226562,-0.433593 -0.4453125,-0.433593 -0.140625,0 -0.5390625,0.04687 -0.6796875,0.597656 L 2.4947266,-7.4166406 H 0.87753906 c -0.33984375,0 -0.50390625,0 -0.50390625,0.328125 0,0.1640625 0.12890625,0.1640625 0.45703125,0.1640625 H 2.3541016 l -1.1367188,4.546875 c -0.1289062,0.609375 -0.1875,0.7734375 -0.1875,0.9960937 0,0.82031253 0.5742188,1.55859378 1.5351563,1.55859378 1.734375,0 2.671875,-2.51953128 2.671875,-2.63671878 0,-0.1054687 -0.070312,-0.1523437 -0.1757813,-0.1523437 -0.035156,0 -0.1054687,0 -0.140625,0.070312 -0.011719,0.011719 -0.035156,0.035156 -0.1523437,0.3046875 -0.3632813,0.8554687 -1.1601563,2.06249998 -2.15625,2.06249998 -0.515625,0 -0.5507813,-0.421875 -0.5507813,-0.80859375 0,-0.0117188 0,-0.33984373 0.058594,-0.55078123 z m 0,0"
       style="fill:#000000;fill-opacity:1;fill-rule:nonzero;stroke:none"
       aria-label="t"
       transform="matrix(1.3333333,0,0,1.3333333,144.46667,26.646667)" />
    <path
       id="path11"
       d="m 4.5229609,-4.2877344 c 0,-1.2421875 -0.1171875,-3.3398437 -1.1484375,-5.5546875 -0.8320312,-1.7929691 -2.2382812,-3.0468751 -2.44921871,-3.0468751 -0.046875,0 -0.1171875,0.01172 -0.1171875,0.105469 0,0.02344 0.0234375,0.04687 0.0351563,0.08203 0.82031251,0.855469 2.92968751,3.0468751 2.92968751,8.4023439 0,5.3671875 -2.0859375,7.5585937 -2.92968751,8.4140625 -0.0117188,0.035156 -0.0351563,0.046875 -0.0351563,0.082031 0,0.09375 0.0703125,0.1054688 0.1171875,0.1054688 0.18750001,0 1.65234371,-1.265625 2.49609371,-3.1640625 0.8671875,-1.91015627 1.1015625,-3.7734375 1.1015625,-5.4257813 z m 0,0"
       style="fill:#000000;fill-opacity:1;fill-rule:nonzero;stroke:none"
       aria-label=")"
       transform="matrix(1.3333333,0,0,1.3333333,152.58267,26.646667)" />
    <path
       id="path12"
       d="m 2.7423906,-12.291641 c 0,-0.304687 0,-0.621093 -0.3515625,-0.621093 -0.3398437,0 -0.3398437,0.316406 -0.3398437,0.621093 V 3.6810156 c 0,0.3164063 0,0.6210938 0.3398437,0.6210938 0.3515625,0 0.3515625,-0.3046875 0.3515625,-0.6210938 z m 0,0"
       style="fill:#000000;fill-opacity:1;fill-rule:nonzero;stroke:none"
       aria-label="|"
       transform="matrix(1.3333333,0,0,1.3333333,160.71067,26.646667)" />
    <path
       id="path13"
       d="M 5.2611719,-2.0044531 H 4.9916406 c -0.035156,0.1992187 -0.1289062,0.8554687 -0.2460937,1.04296872 -0.082031,0.1171875 -0.7617188,0.1171875 -1.125,0.1171875 H 1.4057031 c 0.328125,-0.28125002 1.0546875,-1.04296872 1.3710938,-1.33593752 1.8164062,-1.6640625 2.484375,-2.2851562 2.484375,-3.46875 0,-1.3828125 -1.0898438,-2.296875 -2.4726563,-2.296875 -1.3945312,0 -2.20312497,1.1835938 -2.20312497,2.203125 0,0.609375 0.52734377,0.609375 0.56249997,0.609375 0.2460938,0 0.5625,-0.1757812 0.5625,-0.5625 0,-0.328125 -0.234375,-0.5507812 -0.5625,-0.5507812 -0.1054687,0 -0.1289062,0 -0.16406247,0.011719 0.22265627,-0.8203125 0.86718747,-1.3710937 1.64062497,-1.3710937 1.0195313,0 1.640625,0.8554687 1.640625,1.9570312 0,1.0078125 -0.5859375,1.8984375 -1.265625,2.6601563 L 0.58539063,-0.28179688 V -5.46875e-4 H 4.9447656 Z m 0,0"
       style="fill:#000000;fill-opacity:1;fill-rule:nonzero;stroke:none"
       aria-label="2"
       transform="matrix(1.3333333,0,0,1.3333333,167.08667,15.586667)" />
    <path
       id="path14"
       d="M 59.52846,21.2601 H 91.79654"
       style="fill:none;stroke:#000000;stroke-width:0.3985;stroke-linecap:butt;stroke-linejoin:miter;stroke-miterlimit:10;stroke-dasharray:none;stroke-opacity:1"
       transform="matrix(1.3333333,0,0,-1.3333333,145.04133,114.08533)" />
    <path
       id="path15"
       d="M 3.7613,0 C 3.2994,0.1127 1.26901,0.75136 0,1.44638 V -1.44638 C 1.26901,-0.75136 3.2994,-0.1127 3.7613,0 Z"
       style="fill:#000000;fill-opacity:1;fill-rule:nonzero;stroke:#000000;stroke-width:0.3985;stroke-linecap:butt;stroke-linejoin:miter;stroke-miterlimit:10;stroke-dasharray:none;stroke-opacity:1"
       transform="matrix(1.3333333,0,0,-1.3333333,267.43672,85.738533)" />
    <path
       id="path16"
       d="m 8.0866875,-11.529852 c 0,-0.02344 0.070312,-0.246093 0.070312,-0.257812 0,-0.152344 -0.1289062,-0.152344 -0.1875,-0.152344 -0.1523437,0 -0.1757812,0.08203 -0.234375,0.339844 L 4.8874688,-0.20953906 C 3.4577813,-0.37360156 2.9304375,-1.1001641 2.9304375,-2.1314141 c 0,-0.375 0,-0.7734375 0.8085938,-2.90625 0.2226562,-0.6210937 0.3046875,-0.84375 0.3046875,-1.1601562 0,-0.7734375 -0.5507813,-1.3945313 -1.359375,-1.3945313 -1.5820313,0 -2.2148438,2.4960938 -2.2148438,2.6367188 0,0.070312 0.0703125,0.1523437 0.1875,0.1523437 0.15234375,0 0.17578125,-0.070312 0.234375,-0.3046875 0.421875,-1.5 1.1015625,-2.1328125 1.7460938,-2.1328125 0.1523437,0 0.4453125,0.011719 0.4453125,0.5625 0,0.070312 0,0.4453125 -0.2929688,1.2070313 -0.9257812,2.4375 -0.9257812,2.8242187 -0.9257812,3.2226562 0,1.65234379 1.3710937,2.28515629 2.9179687,2.40234379 -0.1289062,0.5390625 -0.2578125,1.08984371 -0.3867187,1.61718751 -0.28125,1.03125 -0.3984375,1.5234375 -0.3984375,1.5820312 0,0.1640625 0.140625,0.1640625 0.1875,0.1640625 0.035156,0 0.1054687,0 0.140625,-0.070312 0.070312,-0.070312 0.7734375,-2.96484371 0.84375,-3.26953121 0.6328125,0 1.9921875,0 3.5390625,-1.60546879 0.5742187,-0.6210937 1.0898437,-1.40625 1.3828127,-2.15625 0.175781,-0.4453125 0.585937,-1.96875 0.585937,-2.8476562 0,-1.0429688 -0.515625,-1.1601563 -0.691406,-1.1601563 -0.4101562,0 -0.796875,0.4101563 -0.796875,0.7617188 0,0.1992187 0.1289063,0.328125 0.1992188,0.3984375 0.1523437,0.1523437 0.609375,0.609375 0.609375,1.5117187 0,0.6210938 -0.3398438,1.8867188 -1.4414063,3.1289063 -1.4414062,1.61718749 -2.765625,1.61718749 -3.28125,1.61718749 z m 0,0"
       style="fill:#000000;fill-opacity:1;fill-rule:nonzero;stroke:none"
       aria-label="ψ"
       transform="matrix(1.3333333,0,0,1.3333333,201.624,51.142667)" />
    <path
       id="path17"
       d="m 5.2733828,4.1967109 c 0,-0.011719 0,-0.046875 -0.058594,-0.09375 -0.7851563,-0.8085937 -2.90625,-3.0117187 -2.90625,-8.390625 0,-5.3671875 2.0859375,-7.5585939 2.9296875,-8.4140629 0,-0.02344 0.035156,-0.05859 0.035156,-0.105468 0,-0.04687 -0.058594,-0.08203 -0.1289062,-0.08203 -0.1875,0 -1.6523438,1.265625 -2.4960938,3.1640629 -0.8554687,1.9101563 -1.1015625,3.7734375 -1.1015625,5.4257813 0,1.2421875 0.1171875,3.33984374 1.1601563,5.5546875 0.8203125,1.7929687 2.2382812,3.046875 2.4375,3.046875 0.09375,0 0.1289062,-0.035156 0.1289062,-0.1054688 z m 0,0"
       style="fill:#000000;fill-opacity:1;fill-rule:nonzero;stroke:none"
       aria-label="("
       transform="matrix(1.3333333,0,0,1.3333333,217.05867,51.142667)" />
    <path
       id="path18"
       d="m 3.4566562,-6.9243828 h 1.5820313 c 0.328125,0 0.5039062,0 0.5039062,-0.3046875 0,-0.1875 -0.1054687,-0.1875 -0.4453125,-0.1875 H 3.5855625 L 4.218375,-9.9361016 c 0.070312,-0.2343754 0.070312,-0.2695314 0.070312,-0.3867184 0,-0.28125 -0.2226563,-0.433594 -0.4453125,-0.433594 -0.140625,0 -0.5390625,0.04687 -0.6796875,0.597656 L 2.4957187,-7.4165703 H 0.87853125 c -0.33984375,0 -0.50390625,0 -0.50390625,0.328125 0,0.1640625 0.12890625,0.1640625 0.45703125,0.1640625 H 2.3550937 l -1.1367187,4.546875 c -0.1289063,0.609375 -0.1875,0.7734375 -0.1875,0.9960937 0,0.82031254 0.5742187,1.55859379 1.5351562,1.55859379 1.734375,0 2.671875,-2.51953129 2.671875,-2.63671879 0,-0.1054687 -0.070312,-0.1523437 -0.1757812,-0.1523437 -0.035156,0 -0.1054688,0 -0.140625,0.070312 -0.011719,0.011719 -0.035156,0.035156 -0.1523438,0.3046875 -0.3632812,0.8554687 -1.1601562,2.06249999 -2.15625,2.06249999 -0.515625,0 -0.5507812,-0.421875 -0.5507812,-0.80859375 0,-0.0117188 0,-0.33984374 0.058594,-0.55078124 z m 0,0"
       style="fill:#000000;fill-opacity:1;fill-rule:nonzero;stroke:none"
       aria-label="t"
       transform="matrix(1.3333333,0,0,1.3333333,225.188,51.142667)" />
    <path
       id="path19"
       d="m 4.5239531,-4.2876641 c 0,-1.2421875 -0.1171875,-3.3398437 -1.1484375,-5.5546875 -0.8320312,-1.7929684 -2.2382812,-3.0468754 -2.44921873,-3.0468754 -0.046875,0 -0.1171875,0.01172 -0.1171875,0.105469 0,0.02344 0.0234375,0.04687 0.0351563,0.08203 0.82031243,0.855469 2.92968753,3.0468754 2.92968753,8.4023442 0,5.3671875 -2.0859375,7.5585937 -2.92968753,8.4140625 -0.0117188,0.035156 -0.0351563,0.046875 -0.0351563,0.082031 0,0.09375 0.0703125,0.1054688 0.1171875,0.1054688 0.18750003,0 1.65234373,-1.265625 2.49609373,-3.1640625 0.8671875,-1.91015626 1.1015625,-3.7734375 1.1015625,-5.4257813 z m 0,0"
       style="fill:#000000;fill-opacity:1;fill-rule:nonzero;stroke:none"
       aria-label=")"
       transform="matrix(1.3333333,0,0,1.3333333,233.304,51.142667)" />
    <path
       id="path20"
       d="m 12.433039,-0.54938281 c -0.07031,0 -0.351562,0.0351563 -0.398437,0.0351563 -1.359375,0 -2.2734379,-1.34765619 -2.8593754,-2.23828129 -0.1757813,-0.2929688 -0.6328125,-0.9960938 -0.8320313,-1.2890624 0.421875,-0.9375 1.5703125,-3.0703125 3.6210937,-3.0703125 0.117188,0 0.269531,0 0.46875,0.058594 0,-0.4453125 -0.02344,-0.46875 -0.05859,-0.5039062 -0.117187,-0.035156 -0.375,-0.046875 -0.527343,-0.046875 -2.1914067,0 -3.4687504,2.0976562 -3.8789067,2.953125 C 7.2767891,-5.6939141 7.0424141,-6.0806328 6.3978828,-6.6079766 5.3549141,-7.5220391 4.4056953,-7.6040703 3.9721016,-7.6040703 c -1.9101563,0 -3.01171879,1.921875 -3.01171879,3.9023437 0,1.9335938 1.06640629,3.89062504 2.96484379,3.89062504 2.1796875,0 3.4570312,-2.09765624 3.8671875,-2.96484374 0.6914062,1.0546875 0.9375,1.4296875 1.5703125,1.96874999 1.0546874,0.9140625 2.0039064,0.99609375 2.4257814,0.99609375 0.210937,0 0.480469,-0.0351563 0.644531,-0.0703125 z M 7.4174141,-3.3736016 c -0.4101563,0.9257813 -1.5703125,3.07031254 -3.609375,3.07031254 -1.6757813,0 -2.4609375,-1.82812504 -2.4609375,-3.39843754 0,-1.6992187 0.9609375,-3.1992187 2.390625,-3.1992187 1.359375,0 2.2734375,1.3476562 2.859375,2.2382812 0.1640625,0.2929688 0.6328125,0.9960938 0.8203125,1.2890625 z m 0,0"
       style="fill:#000000;fill-opacity:1;fill-rule:nonzero;stroke:none"
       aria-label="∝"
       transform="matrix(1.3333333,0,0,1.3333333,247.80933,51.142667)" />
    <path
       id="path21"
       d="m 3.4441641,-7.6639609 c 0,-0.2695313 0,-0.28125 -0.2460938,-0.28125 -0.28125,0.3164062 -0.8789062,0.7617187 -2.109375,0.7617187 v 0.3515625 c 0.2695313,0 0.8671875,0 1.5234375,-0.3164062 v 6.22265621 c 0,0.43359375 -0.035156,0.57421875 -1.078125,0.57421875 h -0.375 V 1.015625e-4 c 0.3164063,-0.0234375025 1.4765625,-0.0234375025 1.875,-0.0234375025 0.3984375,0 1.546875,0 1.8632813,0.0234375025 V -0.35146094 H 4.5340078 c -1.0546875,0 -1.0898437,-0.140625 -1.0898437,-0.57421875 z m 0,0"
       style="fill:#000000;fill-opacity:1;fill-rule:nonzero;stroke:none"
       aria-label="1"
       transform="matrix(1.3333333,0,0,1.3333333,289.732,42.105333)" />
    <path
       id="path22"
       d="M 0,0 H 30.003"
       style="fill:none;stroke:#000000;stroke-width:0.689;stroke-linecap:butt;stroke-linejoin:miter;stroke-miterlimit:10;stroke-dasharray:none;stroke-opacity:1"
       transform="matrix(1.3333333,0,0,-1.3333333,273.632,45.404)" />
    <path
       id="path23"
       d="m 2.4029531,-4.8047422 h 1.1015625 c 0.2226563,0 0.3398438,0 0.3398438,-0.2109375 0,-0.140625 -0.070312,-0.140625 -0.3046875,-0.140625 H 2.4849844 l 0.4453125,-1.7460937 c 0.046875,-0.1640625 0.046875,-0.1875 0.046875,-0.2695313 0,-0.1875 -0.1523438,-0.3046875 -0.3164063,-0.3046875 -0.09375,0 -0.3632812,0.046875 -0.4570312,0.421875 l -0.46875,1.8984375 H 0.60998438 c -0.234375,0 -0.3515625,0 -0.3515625,0.234375 0,0.1171875 0.09375,0.1171875 0.31640625,0.1171875 H 1.6412344 l -0.79687502,3.1523438 c -0.09375,0.421875 -0.12890625,0.5390625 -0.12890625,0.69140621 0,0.5625 0.39843747,1.078125 1.06640627,1.078125 1.2070312,0 1.8515625,-1.74609371 1.8515625,-1.82812501 0,-0.070312 -0.046875,-0.1054687 -0.1171875,-0.1054687 -0.023437,0 -0.070312,0 -0.09375,0.046875 -0.011719,0.011719 -0.023437,0.023437 -0.1054688,0.2109375 -0.2578125,0.59765621 -0.8085937,1.44140621 -1.5,1.44140621 -0.3632812,0 -0.3867187,-0.3046875 -0.3867187,-0.5625 0,-0.0117188 0,-0.24609375 0.035156,-0.38671871 z m 0,0"
       style="fill:#000000;fill-opacity:1;fill-rule:nonzero;stroke:none"
       aria-label="t"
       transform="matrix(1.3333333,0,0,1.3333333,273.632,59.058667)" />
    <path
       id="path24"
       d="m 4.7706797,-2.7656797 h 3.3046875 c 0.1640625,0 0.375,0 0.375,-0.2109375 0,-0.2226562 -0.1992188,-0.2226562 -0.375,-0.2226562 H 4.7706797 v -3.3046875 c 0,-0.1640625 0,-0.3867188 -0.2109375,-0.3867188 -0.234375,0 -0.234375,0.2109375 -0.234375,0.3867188 v 3.3046875 H 1.0323984 c -0.17578121,0 -0.38671871,0 -0.38671871,0.2109375 0,0.2226562 0.19921875,0.2226562 0.38671871,0.2226562 h 3.2929688 v 3.30468751 c 0,0.1640625 0,0.38671875 0.2226562,0.38671875 0.2226563,0 0.2226563,-0.2109375 0.2226563,-0.38671875 z m 0,0"
       style="fill:#000000;fill-opacity:1;fill-rule:nonzero;stroke:none"
       aria-label="+"
       transform="matrix(1.3333333,0,0,1.3333333,279.268,59.058667)" />
    <path
       id="path25"
       d="m 3.3854062,-1.7109922 c 0,-0.058594 -0.046875,-0.1054687 -0.1289062,-0.1054687 -0.1054688,0 -0.1171875,0.035156 -0.1757813,0.234375 -0.3046875,1.08984371 -0.796875,1.46484371 -1.1953125,1.46484371 -0.140625,0 -0.3046875,-0.0351563 -0.3046875,-0.3984375 0,-0.31640625 0.140625,-0.67968751 0.2695313,-1.04296871 L 2.694,-3.7734922 c 0.035156,-0.09375 0.1171875,-0.3164062 0.1171875,-0.5390625 0,-0.5039062 -0.3632813,-0.9609375 -0.9492188,-0.9609375 -1.10156245,0 -1.5351562,1.734375 -1.5351562,1.828125 0,0.046875 0.046875,0.1054688 0.12890625,0.1054688 0.10546875,0 0.1171875,-0.046875 0.1640625,-0.2109375 C 0.91275,-4.5586484 1.3580625,-5.0273984 1.8268125,-5.0273984 c 0.1054687,0 0.3164062,0.011719 0.3164062,0.3867187 0,0.3164063 -0.1640625,0.703125 -0.2578125,0.9726563 L 1.053375,-1.4414609 c -0.0703125,0.1875 -0.140625,0.375 -0.140625,0.59765621 0,0.52734375 0.3632812,0.9609375 0.9375,0.9609375 1.1015625,0 1.5351562,-1.74609371 1.5351562,-1.82812501 z m -0.09375,-5.7421875 c 0,-0.1875 -0.1523437,-0.3984375 -0.4101562,-0.3984375 -0.28125,0 -0.5859375,0.2578125 -0.5859375,0.5742188 0,0.2929687 0.2460937,0.3867187 0.3984375,0.3867187 0.3164062,0 0.5976562,-0.3046875 0.5976562,-0.5625 z M 14.78482,-6.8320859 c 0.28125,-0.46875 0.539063,-0.9140625 1.253907,-0.984375 0.105468,-0.011719 0.222656,-0.023437 0.222656,-0.2109375 0,-0.140625 -0.117188,-0.140625 -0.152344,-0.140625 -0.02344,0 -0.105469,0.023437 -0.890625,0.023437 -0.363281,0 -0.726562,-0.023437 -1.078125,-0.023437 -0.07031,0 -0.210937,0 -0.210937,0.234375 0,0.1054687 0.09375,0.1171875 0.164062,0.1171875 0.234375,0.011719 0.621094,0.082031 0.621094,0.4570312 0,0.1523438 -0.04687,0.234375 -0.164063,0.4335938 l -3.269531,5.71875 -0.433594,-6.2226563 c 0,-0.1523437 0.140625,-0.375 0.808594,-0.3867187 0.152344,0 0.269531,0 0.269531,-0.2226563 0,-0.1289062 -0.117187,-0.1289062 -0.175781,-0.1289062 -0.421875,0 -0.855469,0.023437 -1.289062,0.023437 H 9.8395078 c -0.1875,0 -0.3984375,-0.023437 -0.5742187,-0.023437 -0.070312,0 -0.2226563,0 -0.2226563,0.234375 0,0.1171875 0.09375,0.1171875 0.2929688,0.1171875 0.5507812,0 0.5507812,0.011719 0.5976562,0.7382812 l 0.035156,0.4335938 -3.09375,5.4375 -0.4453125,-6.1640625 c 0,-0.140625 0,-0.4335938 0.8085937,-0.4453125 0.140625,0 0.2695313,0 0.2695313,-0.2109375 0,-0.140625 -0.1054688,-0.140625 -0.1757813,-0.140625 -0.421875,0 -0.8671875,0.023437 -1.3007812,0.023437 H 5.4098203 c -0.1757812,0 -0.3867187,-0.023437 -0.5742187,-0.023437 -0.070312,0 -0.2109375,0 -0.2109375,0.234375 0,0.1171875 0.09375,0.1171875 0.2695312,0.1171875 0.5507813,0 0.5625,0.070312 0.5976563,0.4570312 l 0.515625,7.33593751 c 0.011719,0.19921875 0.023437,0.26953125 0.1757812,0.26953125 0.1171875,0 0.140625,-0.046875 0.2460938,-0.22265625 l 3.5625,-6.22265621 0.4453124,6.17578121 c 0.01172,0.19921875 0.02344,0.26953125 0.164063,0.26953125 0.117187,0 0.152343,-0.0585938 0.246093,-0.22265625 z m 0,0"
       style="fill:#000000;fill-opacity:1;fill-rule:nonzero;stroke:none"
       aria-label="iW"
       transform="matrix(1.3333333,0,0,1.3333333,291.408,59.058667)" />
    <path
       id="path26"
       d="M 0,0.43727 0.15569,0.43944 0.3114,0.44203 0.46712,0.44464 0.62283,0.44724 0.77855,0.452 0.93427,0.45415 1.08998,0.45676 1.24568,0.45978 1.4014,0.46367 1.55711,0.46626 1.71283,0.4693 1.86855,0.47188 2.02426,0.47447 2.17998,0.47923 2.33568,0.48225 2.4914,0.48529 2.64711,0.48833 2.80283,0.49135 2.95854,0.4948 3.11426,0.4974 3.26997,0.50217 3.42569,0.50519 3.58139,0.50952 3.7371,0.51212 3.89282,0.516 4.04854,0.51945 4.20425,0.52249 4.35997,0.52596 4.51569,0.53072 4.67139,0.53418 4.8271,0.5385 4.98282,0.54239 5.13853,0.54585 5.29425,0.54974 5.44997,0.55363 5.60568,0.5571 5.76138,0.56142 5.9171,0.56444 6.07281,0.57007 6.22853,0.57353 6.38425,0.5783 6.53996,0.58089 6.69568,0.58694 6.8514,0.58954 7.0071,0.59515 7.16281,0.59819 7.31853,0.60382 7.47424,0.6064 7.62996,0.61246 7.78568,0.61807 7.94139,0.6237 8.09709,0.6263 8.2528,0.63193 8.40852,0.63797 8.56424,0.64058 8.71996,0.6462 l 0.15571,0.00562 0.15572,0.00562 0.1557,0.00304 0.15571,0.00865 0.15572,0.00259 0.15572,0.00562 0.15571,0.00561 0.15572,0.00608 0.15571,0.00561 0.15572,0.00562 0.1557,0.00563 0.15572,0.00561 0.15571,0.00563 0.15572,0.00865 0.15571,0.00562 0.15572,0.00261 0.15572,0.00561 0.1557,0.00866 0.15571,0.00562 0.15572,0.00562 0.15571,0.00562 0.15572,0.00865 0.15572,0.00563 0.15571,0.00561 0.15571,0.00866 0.1557,0.00865 0.15571,0.00563 0.15572,0.00823 0.15571,0.00604 0.15572,0.00563 0.15571,0.00822 0.15572,0.00561 0.1557,0.00866 0.15571,0.00865 0.15572,0.00563 0.15572,0.00865 0.15571,0.00821 0.15572,0.00864 0.15572,0.00822 0.1557,0.00865 0.15571,0.00865 0.15572,0.00823 0.15571,0.00865 0.15572,0.00866 0.15572,0.0082 0.15571,0.00865 0.1557,0.00865 0.15572,0.00823 0.15571,0.00865 0.15572,0.01125 0.15572,0.01167 0.15571,0.01125 0.15572,0.00821 0.15572,0.00864 0.1557,0.01125 0.15571,0.00865 0.15572,0.01125 0.15571,0.01126 0.15572,0.00865 0.15571,0.01125 0.15572,0.01427 0.1557,0.00865 0.15571,0.01384 0.15572,0.01167 0.15572,0.01125 0.15572,0.01124 0.15571,0.01428 0.15572,0.01125 0.1557,0.01123 0.15571,0.01428 0.15572,0.01125 0.15572,0.01428 0.15571,0.01427 0.15572,0.01124 0.15571,0.01686 0.15572,0.01386 0.1557,0.01469 0.15572,0.01428 0.15571,0.01471 0.15572,0.01514 0.15571,0.01558 0.15572,0.01557 0.15572,0.01556 0.1557,0.016 0.15571,0.01644 0.15572,0.01687 0.15571,0.01688 0.15572,0.0173 0.15572,0.01729 0.15571,0.01773 0.15571,0.01818 0.15571,0.0186 0.15571,0.0186 0.15572,0.01947 0.15572,0.01945 0.15571,0.0199 0.15572,0.0199 0.15571,0.02076 0.1557,0.02076 0.15572,0.02163 0.15572,0.02163 0.15571,0.02206 0.15572,0.02249 0.15571,0.02292 0.15572,0.02379 0.1557,0.02379 0.1557,0.02421 0.15572,0.0251 0.15571,0.02509 0.15572,0.02595 0.15572,0.02595 0.15571,0.02726 0.1557,0.02724 0.15572,0.02768 0.15571,0.02855 0.15572,0.02897 0.15572,0.02986 0.15571,0.03026 0.15572,0.03116 0.15572,0.03157 0.1557,0.032 0.15571,0.03288 0.15572,0.03374 0.15571,0.03459 0.15572,0.03505 0.15571,0.0359 0.15572,0.03634 0.1557,0.03762 0.15571,0.03807 0.15572,0.03893 0.15572,0.04022 0.15571,0.04109 0.15572,0.04152 0.15572,0.04283 0.15571,0.04412 0.1557,0.04455 0.15572,0.04627 0.15572,0.04672 0.15571,0.04845 0.15572,0.04931 0.15571,0.05017 0.15572,0.0519 0.1557,0.05278 0.15572,0.0545 0.15571,0.05536 0.15572,0.05709 0.15571,0.05839 0.15572,0.06012 0.15572,0.06186 0.1557,0.06273 0.15571,0.06488 0.15572,0.06617 0.15571,0.06835 0.15572,0.06963 0.15572,0.07223 0.15571,0.07353 0.15571,0.07615 0.15571,0.07783 0.15571,0.08003 0.15572,0.08261 0.15572,0.08435 0.15571,0.08695 0.15572,0.08952 0.15571,0.09213 0.1557,0.09516 0.15572,0.09732 0.15572,0.10034 0.15571,0.10339 0.15572,0.1064 0.15571,0.10942 0.15572,0.11335 0.1557,0.11635 0.15572,0.12025 0.15571,0.12369 0.15572,0.12761 0.15571,0.13192 0.15572,0.13581 0.15572,0.14015 0.15571,0.1449 0.1557,0.14966 0.15572,0.15441 0.15571,0.16004 0.15572,0.16481 0.15572,0.17041 0.15572,0.17604 0.15571,0.18296 0.1557,0.18816 0.1557,0.19507 0.15572,0.202 0.15571,0.20891 0.15572,0.2167 0.15571,0.22406 0.15572,0.23184 0.1557,0.24092 0.15571,0.25 0.15572,0.2578 0.15572,0.26732 0.15571,0.27855 0.15572,0.28763 0.15572,0.30018 0.15571,0.30971 0.1557,0.32179 0.15572,0.3335 0.15571,0.34689 0.15572,0.36074 0.15572,0.37242 0.15571,0.38711 0.15572,0.40357 0.1557,0.41696 0.15572,0.43515 0.15571,0.44939 0.15572,0.4667 0.15571,0.48618 0.15572,0.50305 0.15572,0.5212 0.1557,0.54067 0.15571,0.56273 0.15572,0.5809 0.15571,0.59821 0.15572,0.62544 0.15572,0.64362 0.15571,0.66179 0.15571,0.69032 0.15571,0.70418 0.15571,0.72926 0.15572,0.75478 0.15572,0.76083 0.15571,0.78938 0.15572,0.80841 0.15571,0.82529 0.1557,0.84085 0.15572,0.85427 0.15572,0.85167 0.15571,0.87286 0.15572,0.88713 0.15571,0.87199 0.15572,0.8694 0.1557,0.86162 0.15572,0.8495 0.15571,0.83135 0.15572,0.82918 0.15571,0.76904 0.15572,0.75522 0.15572,0.70286 0.15571,0.64276 0.1557,0.61333 0.15572,0.55409 0.15571,0.46197 0.15572,0.40482 0.15572,0.34345 0.15572,0.23659 0.15571,0.1687 0.1557,0.0852 h 0.15571 l 0.15572,-0.0852 0.15572,-0.1687 0.15571,-0.25043 0.15572,-0.343 0.15571,-0.40486 0.1557,-0.48747 0.15572,-0.54067 0.15572,-0.60036 0.15571,-0.66568 0.15572,-0.71326 0.15572,-0.74267 0.15571,-0.78851 0.15572,-0.79673 0.1557,-0.84994 0.1557,-0.84691 0.15571,-0.87762 0.15572,-0.86681 0.15572,-0.86984 0.15571,-0.87632 0.15572,-0.87805 0.1557,-0.86249 0.15571,-0.84516 0.15572,-0.83826 0.15572,-0.82269 0.15571,-0.80625 0.15572,-0.78723 0.15572,-0.77249 0.1557,-0.74786 0.15571,-0.72278 0.15572,-0.7059 0.15571,-0.68818 0.15572,-0.6596 0.15571,-0.64492 0.15572,-0.6233 0.15571,-0.59949 0.1557,-0.58176 0.15572,-0.55842 0.15572,-0.54154 0.15572,-0.51947 0.15571,-0.50131 0.15572,-0.48488 0.15571,-0.4667 0.1557,-0.45027 0.15572,-0.43168 0.15572,-0.4174 0.15571,-0.40097 0.15572,-0.38754 0.15571,-0.37285 0.15572,-0.35944 0.1557,-0.34689 0.15572,-0.33263 0.15571,-0.32094 0.15572,-0.30969 0.15571,-0.29846 0.15572,-0.28764 0.15572,-0.27683 0.15571,-0.26773 0.1557,-0.25867 0.15572,-0.24783 0.15571,-0.24092 0.15572,-0.23141 0.15572,-0.22362 0.15571,-0.21628 0.15572,-0.20848 0.1557,-0.20198 0.15571,-0.19466 0.15572,-0.18773 0.15572,-0.18252 0.15571,-0.17562 0.15572,-0.17041 0.15571,-0.16523 0.15572,-0.15874 0.1557,-0.15485 0.15572,-0.14966 0.15571,-0.1436 L 60.10547,6.171 60.26118,6.03519 60.4169,5.9037 60.57262,5.7761 60.72832,5.65282 60.88403,5.5326 61.03975,5.41623 61.19547,5.30334 61.35118,5.1939 61.5069,5.08792 61.66261,4.98499 61.81831,4.8842 61.97403,4.78688 62.12975,4.69215 62.28546,4.60002 62.44118,4.51093 62.5969,4.42398 62.75261,4.33965 62.90833,4.25746 63.06403,4.17743 63.21973,4.09958 63.37544,4.02388 63.53116,3.94992 63.68687,3.87856 63.84259,3.80849 63.9983,3.74057 64.154,3.67397 64.30972,3.60951 64.46544,3.54637 64.62115,3.48494 64.77687,3.42526 64.93259,3.36687 65.0883,3.30977 65.244,3.25397 65.39972,3.1999 65.55544,3.14714 65.71115,3.09521 65.86687,3.04506 66.02258,2.99574 66.1783,2.94774 66.33401,2.90059 66.48972,2.85474 66.64543,2.81018 66.80115,2.76607 66.95686,2.72325 67.11258,2.68173 67.2683,2.64063 67.42401,2.60085 67.57971,2.56148 67.73543,2.52383 67.89114,2.48622 68.04686,2.44945 68.20258,2.41354 68.35829,2.37895 68.514,2.34433 68.66971,2.31061 68.82542,2.27774 68.98114,2.24571 69.13686,2.21414 69.29257,2.18344 69.44829,2.15315 69.604,2.1233 69.75972,2.09435 69.91542,2.0658 70.07114,2.0381 70.22685,2.01042 70.38257,1.98361 70.53828,1.95766 70.694,1.93169 70.84972,1.90662 71.00542,1.88153 71.16113,1.85732 71.31685,1.83351 71.47256,1.81015 71.62828,1.78723 71.784,1.76474 71.93971,1.74225 72.09541,1.72063 72.25113,1.69942 72.40685,1.67867 72.56256,1.6579 72.71828,1.638 72.874,1.61768 73.02971,1.59865 73.18542,1.57918 73.34113,1.56058 73.49684,1.54199 73.65256,1.52382 73.80827,1.50609 73.96399,1.48878 74.1197,1.47148 74.27542,1.4546 74.43112,1.43773 74.58684,1.42174 74.74255,1.40529 74.89827,1.38972 75.05399,1.37416 75.2097,1.3586 75.36542,1.34387 75.52112,1.32874 75.67683,1.31447 75.83253,1.30019 75.98825,1.28593 76.14397,1.26991 76.29968,1.25867 76.4554,1.2444 76.61111,1.23012 76.76682,1.21585 76.92253,1.20459 77.07825,1.19336 77.23396,1.1791 77.38968,1.16783 77.5454,1.15659 77.70111,1.14534 77.85681,1.13367 78.01253,1.11983 78.16824,1.11118 78.32396,1.09691 78.47968,1.08566 78.63539,1.0744 78.7911,1.06575 78.94681,1.0545 79.10252,1.04585 79.25824,1.0346 79.41396,1.02338 79.56967,1.01472 79.72539,1.0065 79.8811,0.99483 80.03682,0.98358 80.19252,0.97493 80.34824,0.9667 80.50395,0.95805 80.65967,0.9494 80.81538,0.9412 80.9711,0.93254 81.12682,0.9213 81.28252,0.91566 81.43823,0.90701 81.59395,0.89836 81.74966,0.89014 81.90538,0.8815 82.0611,0.87329 82.21681,0.86464 82.37251,0.85901 82.52823,0.85036 82.68394,0.8417 82.83966,0.83609 82.99538,0.82787 83.1511,0.81921 83.30681,0.81358 83.46252,0.80797 83.61823,0.80234 83.77394,0.79369 83.92966,0.78503 84.08537,0.77942 84.24109,0.77379 84.3968,0.76514 84.55252,0.75952 84.70822,0.7539 84.86394,0.74568 85.01965,0.73962 85.17537,0.73401 85.33109,0.7314 85.4868,0.72578 85.64252,0.71713 85.79822,0.7115 85.95393,0.70589 86.10965,0.70026 86.26537,0.69464 86.42108,0.68903 86.5768,0.68295 86.73251,0.67734 86.88823,0.67172 87.04393,0.66913 87.19965,0.66048 87.35536,0.65744 87.51108,0.65182 87.6668,0.6462 87.82251,0.64058 87.97823,0.63797 88.13393,0.63193 88.28964,0.6263 88.44534,0.6237 88.60106,0.61505 88.75677,0.61246 88.91249,0.6064 89.0682,0.60382 89.22392,0.59819 89.37962,0.59515 89.53534,0.58954 89.69106,0.58694 89.84677,0.58089 90.00249,0.5783 90.1582,0.57353 90.31392,0.56964 90.46962,0.56444 90.62534,0.56142 90.78105,0.5571 90.93677,0.5532 91.09248,0.54974 91.2482,0.54585 91.40392,0.54196 91.55962,0.5385 91.71533,0.53418 91.87105,0.52898 92.02676,0.52596 92.18248,0.52249 92.3382,0.51945 92.49391,0.516 92.64963,0.51212 92.80533,0.50952 92.96104,0.50476 93.11676,0.50043 93.27248,0.4974 93.42819,0.49437 93.58391,0.49135 93.73962,0.48833 93.89532,0.48529 94.05104,0.48225 94.20676,0.47836 94.36247,0.47447 94.51819,0.47188 94.6739,0.46886 94.82962,0.46582 94.98532,0.46236 95.14104,0.45934 95.29675,0.45676 95.45247,0.45415 95.60818,0.452 95.7639,0.44724 l 0.15572,-0.0026 0.15571,-0.00261 0.1557,-0.00259 0.15572,-0.00217 0.15572,-0.00345 0.15571,-0.00259 0.15572,-0.00303 0.15571,-0.00217 0.15572,-0.0039 0.1557,-0.00215 0.15572,-0.00216 0.15571,-0.00216 0.15572,-0.00305 0.15572,-0.00258 0.15571,-0.00259 0.15572,-0.00217 0.1557,-0.00302 0.15571,-0.00216 0.15572,-0.0026 0.15571,-0.00172 0.15572,-0.00261 0.15571,-0.00216 0.15572,-0.0026 0.15572,-0.0026 0.1557,-0.00258 0.15571,-0.00218 0.15572,-0.00215 0.15572,-0.00174 0.15571,-0.00258 0.15572,-0.00261 0.15571,-0.00172 0.1557,-0.00261 0.15572,-0.00171 0.1557,-0.00218 0.15572,-0.00215 0.15571,-0.00174 0.15572,-0.0026 0.15572,-0.00215 0.1557,-0.00174 0.15571,-0.00172 0.15572,-0.0026 0.15571,-0.00174 0.15572,-0.00172 0.15572,-0.00259 0.15571,-0.0013 0.15572,-0.00261 0.1557,-0.00128 0.15571,-0.00217 0.15572,-0.00129 0.15572,-0.0026 0.15571,-0.0013 0.15572,-0.00129 0.15571,-0.00302 0.1557,-0.00217 0.15572,-0.00172 0.15572,-0.00132 0.15571,-0.00216 0.15572,-0.00129 0.15571,-0.00217 0.15572,-0.00172 0.1557,-0.00131 0.15572,-0.00172 0.15571,-0.00173 0.15572,-0.00174 0.15571,-0.00172 0.15572,-0.00174 0.15572,-0.00171 0.15571,-0.00131 0.1557,-0.00174 0.15572,-0.00128 0.15571,-0.00174 0.15572,-0.0013 0.15572,-0.00172 0.15571,-0.00174 0.15572,-0.00128 0.1557,-0.00132 0.15572,-0.00172 0.15571,-0.0013 0.15572,-0.00174 0.15572,-0.00172 0.15571,-8.6e-4 0.15571,-0.00174 0.15571,-8.7e-4 0.15571,-0.00172 0.15572,-0.00174 0.15571,-8.5e-4 0.15572,-0.00217 0.15571,-8.7e-4 0.15572,-0.00171 0.15572,-8.7e-4 0.1557,-0.00174 0.15571,-0.00131 0.15572,-0.00128 0.15572,-0.0013 0.15571,-8.7e-4 0.15572,-0.00172 0.15571,-8.8e-4 0.1557,-0.00173 0.15572,-0.00129 0.15572,-8.6e-4 0.15571,-0.00174 0.15572,-4.3e-4 0.15571,-0.0013 0.15572,-0.00172 0.1557,-8.7e-4 0.15572,-0.00173 0.15571,-8.7e-4 0.15572,-8.6e-4 0.15572,-0.00129 0.15571,-8.7e-4 0.15572,-0.00131 0.15571,-0.0013 0.1557,-8.5e-4 0.15572,-0.00174 0.1557,-8.6e-4 0.15572,-8.7e-4 0.15571,-0.00172 0.15571,-0.00131 0.15572,-8.6e-4 0.1557,-0.00129 0.15572,-0.0013 0.15572,-4.4e-4 0.15571,-0.0013 0.15572,-0.00128 0.15571,-0.00131 0.15572,-4.3e-4 0.1557,-8.7e-4 0.15572,-0.00172 h 0.15571 l 0.15572,-0.00174 0.15571,-0.00129 0.15572,-8.7e-4 0.15572,-4.2e-4 0.15571,-0.00132 0.1557,-0.00128 0.15572,-0.00129 0.15571,-4.5e-4 0.15572,-8.7e-4 0.15572,-8.7e-4 0.15571,-0.00128 0.15572,-4.4e-4 0.1557,-0.0013 0.15571,-8.6e-4 0.15572,-0.00129 h 0.15572 l 0.15572,-0.00131 0.15571,-0.0013 0.15571,-4.3e-4 0.15572,-0.00129 0.1557,-4.3e-4 0.15572,-8.7e-4 0.15571,-8.7e-4 0.15572,-0.00128 0.15571,-4.4e-4 0.15572,-8.7e-4 0.15572,-8.7e-4 0.1557,-8.7e-4 0.15571,-0.00128 0.15572,-8.7e-4 0.15572,-8.7e-4 h 0.15571 l 0.15572,-8.7e-4 0.15571,-0.00129 0.1557,-8.7e-4 0.15572,-8.6e-4 0.15572,-4.3e-4 0.15571,-8.7e-4 0.15572,-4.4e-4 0.15571,-0.00171 0.15572,-4.5e-4 0.15572,-8.7e-4 0.1557,-4.2e-4 0.15571,-0.0013 0.15572,-8.5e-4 0.15572,-4.5e-4 0.15571,-8.7e-4 0.15572,-8.7e-4 0.15571,-4.2e-4 0.1557,-8.6e-4 0.15572,-4.4e-4 0.15571,-8.6e-4 0.15572,-8.6e-4 0.15571,-4.5e-4 0.15572,-8.7e-4 0.15572,-8.5e-4 0.1557,-8.6e-4 0.15571,-8.7e-4 0.15572,-4.4e-4 0.15572,-8.7e-4 0.15571,-4.1e-4 0.15572,-4.4e-4 0.15571,-8.7e-4 0.15572,-4.3e-4 0.1557,-4.3e-4 0.15572,-0.00131 0.15571,-4.1e-4 0.1557,-8.7e-4 0.15572,-4.4e-4 0.15572,-4.3e-4 0.15571,-8.7e-4 0.1557,-8.7e-4 0.15572,-4.3e-4 0.15571,-4.2e-4 0.15572,-8.7e-4 0.15572,-4.3e-4 0.15571,-8.7e-4 0.15572,-4.4e-4 0.1557,-8.6e-4 0.15571,-4.3e-4 0.15572,-8.6e-4 0.15572,-8.8e-4 0.15571,-4.2e-4 0.15572,-4.4e-4 0.15571,-4.3e-4 0.15572,-8.7e-4 0.1557,-4.1e-4 0.15572,-4.5e-4 0.15571,-8.7e-4 0.15572,-8.7e-4 0.15571,-4.2e-4 0.15572,-4.4e-4 0.15572,-4.3e-4 0.1557,-4.1e-4 0.15571,-0.00132 0.15572,-4.2e-4 0.15571,-4.5e-4 0.15572,-4.2e-4 0.15572,-4.5e-4 0.15571,-4.2e-4 0.1557,-8.6e-4 0.15572,-4.2e-4 0.15572,-4.5e-4 0.15571,-4.3e-4 0.15572,-8.7e-4 0.15571,-4.4e-4 0.15572,-4.2e-4 0.15572,-8.6e-4 h 0.1557 l 0.15571,-8.7e-4 0.15572,-4.3e-4 0.15572,-4.4e-4 0.15571,-8.7e-4 0.15572,-4.2e-4 0.15571,-4.5e-4 0.1557,-4.3e-4 0.15572,-4.2e-4 0.15571,-4.3e-4 0.15572,-8.7e-4 h 0.15571 l 0.15572,-4.3e-4 0.15572,-4.4e-4 0.1557,-8.7e-4 0.15571,-4.3e-4 0.15572,-4.3e-4 0.15572,-4.2e-4 0.15571,-4.4e-4 0.15572,-8.7e-4 h 0.15571 l 0.15572,-4.3e-4 0.1557,-4.3e-4 0.15572,-8.7e-4 0.15571,-4.2e-4 0.15572,-4.3e-4 h 0.15571 l 0.15572,-8.7e-4 0.15572,-4.4e-4 h 0.1557 l 0.15571,-8.6e-4 0.15572,-8.7e-4 h 0.15572 l 0.15571,-4.4e-4 0.15572,-4.1e-4 0.15571,-4.5e-4 0.1557,-4.2e-4 0.15572,-4.5e-4 0.15572,-4.2e-4 0.15571,-4.5e-4 0.1557,-4.2e-4 0.15572,-8.7e-4 h 0.15571 l 0.15572,-4.2e-4 0.1557,-4.4e-4 0.15572,-4.2e-4 0.15571,-4.4e-4 0.15572,-4.3e-4 h 0.15571 l 0.15572,-8.7e-4 0.15572,-4.5e-4 0.1557,-4.2e-4 h 0.15571 l 0.15572,-8.6e-4 h 0.15571 l 0.15572,-4.2e-4 0.15572,-4.5e-4 0.15571,-4.2e-4 0.1557,-4.5e-4 0.15572,-4.3e-4 0.15571,-4.4e-4 h 0.15572 L 142.478,0.1146 h 0.15571 l 0.15572,-4.2e-4 0.15571,-4.3e-4 0.15571,-4.4e-4 0.15571,-4.3e-4 h 0.15572 l 0.15572,-4.4e-4 0.15571,-4.3e-4 0.15572,-4.4e-4 h 0.15571 l 0.1557,-8.7e-4 0.15572,-4.2e-4 0.15571,-4.3e-4 h 0.15572 l 0.15571,-4.3e-4 0.15572,-4.2e-4 0.15572,-4.5e-4 0.1557,-4.3e-4 h 0.15571 l 0.15572,-8.7e-4 h 0.15572 l 0.15571,-4.4e-4 0.15572,-4.3e-4 0.15571,-4.2e-4 h 0.15572 l 0.1557,-4.3e-4 h 0.15572 l 0.15571,-8.7e-4 h 0.15572 l 0.15571,-4.3e-4 h 0.15572 l 0.15572,-8.7e-4 h 0.1557 l 0.15571,-4.4e-4 h 0.15572 l 0.15572,-4.2e-4 0.15571,-4.3e-4 0.15572,-4.3e-4 h 0.15571 l 0.15572,-4.4e-4 0.1557,-4.3e-4 h 0.15571 l 0.15572,-4.3e-4 0.15571,-4.4e-4 0.15572,-4.3e-4 0.15572,-4.4e-4 0.15571,4.4e-4 0.15571,-0.00131 h 0.15571 l 0.15572,-4.1e-4 h 0.15571 l 0.15572,-4.5e-4 0.15571,-4.2e-4 h 0.15572 l 0.1557,-4.4e-4 h 0.15572 l 0.15571,-4.3e-4 0.15572,-4.3e-4 h 0.1557 l 0.15572,-4.4e-4 h 0.15571 l 0.15572,-4.3e-4 0.1557,-4.4e-4 h 0.15571 l 0.15572,-4.1e-4 0.15572,-4.5e-4 h 0.15571 l 0.15572,-4.2e-4 0.15571,-4.5e-4 h 0.1557 l 0.15572,-4.2e-4 0.15572,-4.5e-4 h 0.15572 l 0.15571,-4.2e-4 0.15571,-4.3e-4 h 0.15572 l 0.1557,-4.4e-4 0.15572,-4.3e-4 h 0.15571 0.15572 l 0.15571,-4.3e-4 0.15572,-4.2e-4 0.15572,-4.5e-4 h 0.15571 l 0.1557,-4.2e-4 h 0.15572"
       style="fill:#5bcefa;fill-opacity:1;fill-rule:nonzero;stroke:#000000;stroke-width:0.79701;stroke-linecap:butt;stroke-linejoin:miter;stroke-miterlimit:10;stroke-dasharray:none;stroke-opacity:1"
       transform="matrix(1.3333333,0,0,-1.3333333,145.04133,114.08533)" />
    <path
       id="path27"
       d="m 0,0 h -28.3468 m 0,0 h -28.34682 v -13.46465 m 0,-29.76431 v -13.46466"
       style="fill:none;stroke:#000000;stroke-width:0.3985;stroke-linecap:butt;stroke-linejoin:miter;stroke-miterlimit:10;stroke-dasharray:none;stroke-opacity:1"
       transform="matrix(1.3333333,0,0,-1.3333333,145.04133,114.08533)" />
    <path
       id="path28"
       d="M 1.58714,0 C 1.58714,0.87656 0.87656,1.58714 0,1.58714 -0.87656,1.58714 -1.58714,0.87656 -1.58714,0 c 0,-0.87656 0.71058,-1.58714 1.58714,-1.58714 0.87656,0 1.58714,0.71058 1.58714,1.58714 z"
       style="fill:#000000;fill-opacity:1;fill-rule:nonzero;stroke:#000000;stroke-width:0.3985;stroke-linecap:butt;stroke-linejoin:miter;stroke-miterlimit:10;stroke-dasharray:none;stroke-opacity:1"
       transform="matrix(1.3333333,0,0,-1.3333333,145.04133,114.08533)" />
    <path
       id="path29"
       d="m -41.81145,-28.3468 c 0,8.21928 -6.66288,14.88215 -14.88217,14.88215 -8.21928,0 -14.88216,-6.66287 -14.88216,-14.88215 0,-8.21929 6.66288,-14.88216 14.88216,-14.88216 8.21929,0 14.88217,6.66287 14.88217,14.88216 z"
       style="fill:none;stroke:#000000;stroke-width:0.797;stroke-linecap:butt;stroke-linejoin:miter;stroke-miterlimit:10;stroke-dasharray:none;stroke-opacity:1"
       transform="matrix(1.3333333,0,0,-1.3333333,145.04133,114.08533)" />
    <path
       id="path30"
       d="m -64.13469,-28.3468 c 1.21291,1.90487 2.3737,3.72053 3.72054,3.72053 1.34681,0 2.50761,-1.81564 3.72052,-3.72053 1.2129,-1.9049 2.3737,-3.72054 3.72053,-3.72054 1.34682,0 2.50762,1.81564 3.72054,3.72054"
       style="fill:none;stroke:#000000;stroke-width:0.797;stroke-linecap:butt;stroke-linejoin:miter;stroke-miterlimit:10;stroke-dasharray:none;stroke-opacity:1"
       transform="matrix(1.3333333,0,0,-1.3333333,145.04133,114.08533)" />
    <path
       id="path31"
       d="m 10.651008,-9.8434453 c 0.585937,-0.9374997 1.125,-1.3476567 2.003906,-1.4179687 0.164063,-0.01172 0.304688,-0.01172 0.304688,-0.328125 0,-0.07031 -0.03516,-0.164063 -0.1875,-0.164063 -0.304688,0 -1.054688,0.03516 -1.359375,0.03516 -0.503907,0 -1.019532,-0.03516 -1.5000004,-0.03516 -0.140625,0 -0.3046875,0 -0.3046875,0.328125 0,0.152344 0.1523437,0.164063 0.2226562,0.164063 0.6328127,0.05859 0.7031247,0.363281 0.7031247,0.574219 0,0.257812 -0.246093,0.65625 -0.257812,0.667968 L 4.8736641,-1.4411016 3.6666328,-10.722352 c 0,-0.503906 0.890625,-0.539062 1.078125,-0.539062 0.2578125,0 0.421875,0 0.421875,-0.328125 0,-0.164063 -0.1875,-0.164063 -0.2460937,-0.164063 -0.2929688,0 -0.6328125,0.03516 -0.9257813,0.03516 H 3.0338203 c -1.265625,0 -1.78125,-0.03516 -1.7929687,-0.03516 -0.1054688,0 -0.31640629,0 -0.31640629,0.304688 0,0.1875 0.12890629,0.1875 0.39843749,0.1875 0.8789063,0 0.9257813,0.152344 0.984375,0.585937 l 1.3710938,10.62890669 c 0.058594,0.3515625 0.058594,0.41015625 0.2929687,0.41015625 0.2109375,0 0.2929688,-0.0585938 0.46875,-0.328125 z m 0,0"
       style="fill:#000000;fill-opacity:1;fill-rule:nonzero;stroke:none"
       aria-label="V"
       transform="matrix(1.3333333,0,0,1.3333333,2.576,155.316)" />
    <path
       id="path32"
       d="m 5.2723437,4.1956172 c 0,-0.011719 0,-0.046875 -0.058594,-0.09375 C 4.4285937,3.2932734 2.3075,1.0901484 2.3075,-4.2887578 c 0,-5.3671875 2.0859375,-7.5585942 2.9296875,-8.4140622 0,-0.02344 0.035156,-0.05859 0.035156,-0.105469 0,-0.04687 -0.058594,-0.08203 -0.1289062,-0.08203 -0.1875,0 -1.6523438,1.265625 -2.4960938,3.1640622 -0.8554687,1.9101562 -1.1015625,3.7734375 -1.1015625,5.4257812 0,1.2421875 0.1171875,3.33984379 1.1601563,5.5546875 0.8203125,1.7929688 2.2382812,3.046875 2.4375,3.046875 0.09375,0 0.1289062,-0.035156 0.1289062,-0.1054687 z m 0,0"
       style="fill:#000000;fill-opacity:1;fill-rule:nonzero;stroke:none"
       aria-label="("
       transform="matrix(1.3333333,0,0,1.3333333,20.673333,155.316)" />
    <path
       id="path33"
       d="m 3.4556172,-6.9254766 h 1.5820312 c 0.328125,0 0.5039063,0 0.5039063,-0.3046875 0,-0.1875 -0.1054688,-0.1875 -0.4453125,-0.1875 H 3.5845234 l 0.6328125,-2.5195312 c 0.070312,-0.2343747 0.070312,-0.2695317 0.070312,-0.3867187 0,-0.28125 -0.2226562,-0.433594 -0.4453125,-0.433594 -0.140625,0 -0.5390625,0.04687 -0.6796875,0.597656 L 2.4946797,-7.4176641 H 0.87749219 c -0.33984375,0 -0.50390625,0 -0.50390625,0.328125 0,0.1640625 0.12890625,0.1640625 0.45703125,0.1640625 H 2.3540547 l -1.1367188,4.546875 c -0.1289062,0.609375 -0.1875,0.7734375 -0.1875,0.9960938 0,0.82031249 0.5742188,1.55859374 1.5351563,1.55859374 1.734375,0 2.671875,-2.51953124 2.671875,-2.63671874 0,-0.1054688 -0.070312,-0.1523438 -0.1757813,-0.1523438 -0.035156,0 -0.1054687,0 -0.140625,0.070312 -0.011719,0.011719 -0.035156,0.035156 -0.1523437,0.3046875 -0.3632813,0.8554688 -1.1601563,2.06250004 -2.15625,2.06250004 -0.515625,0 -0.5507813,-0.421875 -0.5507813,-0.80859375 0,-0.0117188 0,-0.33984379 0.058594,-0.55078129 z m 0,0"
       style="fill:#000000;fill-opacity:1;fill-rule:nonzero;stroke:none"
       aria-label="t"
       transform="matrix(1.3333333,0,0,1.3333333,28.802667,155.316)" />
    <path
       id="path34"
       d="m 4.5229141,-4.2887578 c 0,-1.2421875 -0.1171875,-3.3398438 -1.1484375,-5.5546875 C 2.5424453,-11.636414 1.1361953,-12.89032 0.92525781,-12.89032 c -0.046875,0 -0.1171875,0.01172 -0.1171875,0.105468 0,0.02344 0.0234375,0.04687 0.0351563,0.08203 0.82031249,0.855468 2.92968759,3.0468747 2.92968759,8.4023434 0,5.3671875 -2.0859376,7.5585938 -2.92968759,8.4140625 -0.0117188,0.035156 -0.0351563,0.046875 -0.0351563,0.082031 0,0.09375 0.0703125,0.1054687 0.1171875,0.1054687 0.18749999,0 1.65234379,-1.265625 2.49609379,-3.1640625 0.8671875,-1.91015621 1.1015625,-3.7734375 1.1015625,-5.4257812 z m 0,0"
       style="fill:#000000;fill-opacity:1;fill-rule:nonzero;stroke:none"
       aria-label=")"
       transform="matrix(1.3333333,0,0,1.3333333,36.918667,155.316)" />
    <path
       id="path35"
       d="m -56.69362,-56.69362 v -9.92134"
       style="fill:none;stroke:#000000;stroke-width:0.3985;stroke-linecap:butt;stroke-linejoin:miter;stroke-miterlimit:10;stroke-dasharray:none;stroke-opacity:1"
       transform="matrix(1.3333333,0,0,-1.3333333,145.04133,114.08533)" />
    <path
       id="path36"
       d="m -62.64647,-66.61496 h 11.90572 l -5.95287,-7.93709 z"
       style="fill:none;stroke:#000000;stroke-width:0.797;stroke-linecap:butt;stroke-linejoin:miter;stroke-miterlimit:10;stroke-dasharray:none;stroke-opacity:1"
       transform="matrix(1.3333333,0,0,-1.3333333,145.04133,114.08533)" />
    <path
       id="path37"
       d="M 184.25424,-56.69362 V 0 h 56.69364 v -56.69362 z"
       style="fill:#122d8d;fill-opacity:1;fill-rule:nonzero;stroke:#000000;stroke-width:0.3985;stroke-linecap:butt;stroke-linejoin:miter;stroke-miterlimit:10;stroke-dasharray:none;stroke-opacity:1"
       transform="matrix(1.3333333,0,0,-1.3333333,145.04133,114.08533)" />
    <path
       id="path38"
       d="m 184.25424,36.85092 0.57225,-1.45115 0.57225,-1.40057 0.57226,-1.34564 0.57224,-1.29371 0.57226,-1.23836 0.57224,-1.19423 0.57224,-1.14233 0.57225,-1.09908 0.57225,-1.05755 0.57225,-1.01387 0.57225,-0.97323 0.57225,-0.93643 0.57224,-0.89882 0.57225,-0.86291 0.57225,-0.82918 0.57225,-0.79631 0.57225,-0.76298 0.57225,-0.73316 0.57225,-0.70807 0.57223,-0.67822 0.57225,-0.6488 0.57225,-0.6263 0.57225,-0.59735 0.57225,-0.57829 0.57224,-0.55278 0.57225,-0.53116 0.57224,-0.51256 0.57225,-0.48964 0.57225,-0.46844 0.57225,-0.4533 0.57225,-0.43513 0.57225,-0.4161 0.57223,-0.40227 0.57225,-0.38322 0.57225,-0.37242 0.57225,-0.35382 0.57225,-0.33911 0.57225,-0.32829 0.57225,-0.31662 0.57224,-0.29845 0.57225,-0.29111 0.57225,-0.28027 0.57225,-0.26515 0.57225,-0.25823 0.57225,-0.24696 0.57225,-0.23619 0.57224,-0.22838 0.57225,-0.22144 0.57225,-0.20632 0.57225,-0.20243 0.57225,-0.19551 0.57225,-0.18382 0.57223,-0.18125 0.57225,-0.16912 0.57225,-0.16609 0.57226,-0.15832 0.57225,-0.15138 0.57225,-0.14749 0.57225,-0.13972 0.57223,-0.13279 0.57225,-0.1328 0.57225,-0.12153 0.57225,-0.12198 0.57225,-0.11418 0.57225,-0.11073 0.57225,-0.10295 0.57224,-0.10337 0.57225,-0.09559 0.57225,-0.09603 0.57225,-0.08824 0.57225,-0.08867 0.57225,-0.08087 0.57224,-0.08131 0.57223,-0.07398 0.57225,-0.07353 0.57225,-0.07353 0.57225,-0.06662 0.57225,-0.06618 0.57225,-0.06227 0.57224,-0.05927 0.57225,-0.05883 0.57225,-0.05536 0.57225,-0.05145 0.57225,-0.05193 0.57225,-0.04758 0.57225,-0.048 0.57224,-0.04454 0.57225,-0.04415 0.57225,-0.04064 0.57225,-0.04023 0.57225,-0.04066 0.57225,-0.0372 0.57223,-0.03331 0.57225,-0.03633 0.57225,-0.0333 0.57225,-0.02984 0.57225,-0.02898 0.57225,-0.02984 0.57225,-0.02943 h -56.69361"
       style="fill:#5bcefa;fill-opacity:1;fill-rule:nonzero;stroke:#000000;stroke-width:0.79701;stroke-linecap:butt;stroke-linejoin:miter;stroke-miterlimit:10;stroke-dasharray:none;stroke-opacity:1"
       transform="matrix(1.3333333,0,0,-1.3333333,145.04133,114.08533)" />
    <path
       id="path39"
       d="m 184.25424,0 h 63.09609"
       style="fill:none;stroke:#000000;stroke-width:1.19553;stroke-linecap:butt;stroke-linejoin:miter;stroke-miterlimit:10;stroke-dasharray:none;stroke-opacity:1"
       transform="matrix(1.3333333,0,0,-1.3333333,145.04133,114.08533)" />
    <path
       id="path40"
       d="M 5.30629,0 C 4.65466,0.16344 1.79025,1.08963 0,2.09753 V -2.09753 C 1.79025,-1.08963 4.65466,-0.16344 5.30629,0 Z"
       style="fill:#000000;fill-opacity:1;fill-rule:nonzero;stroke:#000000;stroke-width:1.19553;stroke-linecap:butt;stroke-linejoin:miter;stroke-miterlimit:10;stroke-dasharray:none;stroke-opacity:1"
       transform="matrix(1.3333333,0,0,-1.3333333,474.84177,114.08533)" />
    <path
       id="path41"
       d="m 2.7416875,-12.292258 c 0,-0.304687 0,-0.621094 -0.3515625,-0.621094 -0.3398437,0 -0.3398437,0.316407 -0.3398437,0.621094 V 3.6803984 c 0,0.3164063 0,0.6210938 0.3398437,0.6210938 0.3515625,0 0.3515625,-0.3046875 0.3515625,-0.6210938 z m 0,0"
       style="fill:#000000;fill-opacity:1;fill-rule:nonzero;stroke:none"
       aria-label="|"
       transform="matrix(1.3333333,0,0,1.3333333,449.75067,102.23733)" />
    <path
       id="path42"
       d="m 8.0846875,-11.530539 c 0,-0.02344 0.070312,-0.246094 0.070312,-0.257813 0,-0.152343 -0.1289063,-0.152343 -0.1875,-0.152343 -0.1523438,0 -0.1757813,0.08203 -0.234375,0.339843 L 4.8854687,-0.21022656 C 3.4557812,-0.37428906 2.9284375,-1.1008516 2.9284375,-2.1321016 c 0,-0.375 0,-0.7734375 0.8085937,-2.90625 0.2226563,-0.6210937 0.3046875,-0.84375 0.3046875,-1.1601562 0,-0.7734375 -0.5507812,-1.3945313 -1.359375,-1.3945313 -1.5820312,0 -2.2148437,2.4960938 -2.2148437,2.6367188 0,0.070312 0.0703125,0.1523437 0.1875,0.1523437 0.15234375,0 0.17578125,-0.070312 0.234375,-0.3046875 0.421875,-1.5 1.1015625,-2.1328125 1.7460937,-2.1328125 0.1523438,0 0.4453125,0.011719 0.4453125,0.5625 0,0.070312 0,0.4453125 -0.2929687,1.2070313 -0.9257813,2.4375 -0.9257813,2.8242187 -0.9257813,3.2226562 0,1.65234379 1.3710938,2.28515629 2.9179688,2.40234379 -0.1289063,0.5390625 -0.2578125,1.08984371 -0.3867188,1.61718751 -0.28125,1.03125 -0.3984375,1.5234375 -0.3984375,1.5820312 0,0.1640625 0.140625,0.1640625 0.1875,0.1640625 0.035156,0 0.1054688,0 0.140625,-0.070312 0.070312,-0.070312 0.7734375,-2.96484371 0.84375,-3.26953121 0.6328125,0 1.9921875,0 3.5390625,-1.60546879 0.5742188,-0.6210937 1.0898438,-1.40625 1.3828128,-2.15625 0.175781,-0.4453125 0.585937,-1.96875 0.585937,-2.8476562 0,-1.0429688 -0.515625,-1.1601563 -0.691406,-1.1601563 -0.4101563,0 -0.796875,0.4101563 -0.796875,0.7617188 0,0.1992187 0.1289062,0.328125 0.1992187,0.3984375 0.1523438,0.1523437 0.609375,0.609375 0.609375,1.5117187 0,0.6210938 -0.3398437,1.8867188 -1.4414062,3.1289063 -1.4414063,1.61718749 -2.765625,1.61718749 -3.28125,1.61718749 z m 0,0"
       style="fill:#000000;fill-opacity:1;fill-rule:nonzero;stroke:none"
       aria-label="ψ"
       transform="matrix(1.3333333,0,0,1.3333333,456.12667,102.23733)" />
    <path
       id="path43"
       d="m 5.2743125,4.1960234 c 0,-0.011719 0,-0.046875 -0.058594,-0.09375 -0.7851562,-0.8085937 -2.90625,-3.0117187 -2.90625,-8.390625 0,-5.3671875 2.0859375,-7.5585934 2.9296875,-8.4140624 0,-0.02344 0.035156,-0.05859 0.035156,-0.105469 0,-0.04687 -0.058594,-0.08203 -0.1289063,-0.08203 -0.1875,0 -1.6523437,1.265625 -2.4960937,3.1640624 -0.8554688,1.9101563 -1.1015625,3.7734375 -1.1015625,5.4257813 0,1.2421875 0.1171875,3.33984374 1.1601562,5.5546875 0.8203125,1.7929687 2.2382813,3.046875 2.4375,3.046875 0.09375,0 0.1289063,-0.035156 0.1289063,-0.1054688 z m 0,0"
       style="fill:#000000;fill-opacity:1;fill-rule:nonzero;stroke:none"
       aria-label="("
       transform="matrix(1.3333333,0,0,1.3333333,471.56133,102.23733)" />
    <path
       id="path44"
       d="m 11.965398,-3.9953828 c 0.01172,-0.046875 0.07031,-0.1640625 0.07031,-0.234375 0,-0.09375 -0.07031,-0.1757813 -0.175781,-0.1757813 -0.07031,0 -0.105469,0.011719 -0.152344,0.070312 -0.03516,0.011719 -0.03516,0.046875 -0.1875,0.3984375 -1.019531,2.4023438 -1.7578126,3.43359379 -4.5117188,3.43359379 H 4.4888359 c -0.234375,0 -0.2695312,0 -0.375,-0.0117188 -0.1875,-0.0234375 -0.2109375,-0.046875 -0.2109375,-0.1875 0,-0.12890625 0.035156,-0.22265625 0.070312,-0.38671869 l 1.1953125,-4.7460938 h 1.6992188 c 1.3476562,0 1.453125,0.2929688 1.453125,0.8085938 0,0.1757812 0,0.328125 -0.1289063,0.84375 -0.035156,0.070312 -0.046875,0.140625 -0.046875,0.1875 0,0.1171875 0.082031,0.1757812 0.1875,0.1757812 0.1523438,0 0.1757813,-0.1171875 0.2460938,-0.3632812 l 0.9726562,-3.9960939 c 0,-0.082031 -0.070312,-0.1640625 -0.1640625,-0.1640625 -0.1640625,0 -0.1757812,0.058594 -0.2460937,0.3046875 -0.3398438,1.3242189 -0.6914063,1.6992189 -2.2148438,1.6992189 h -1.640625 l 1.0664063,-4.2304697 c 0.1523437,-0.597656 0.1875,-0.65625 0.890625,-0.65625 h 2.4726562 c 2.1093751,0 2.5429681,0.574219 2.5429681,1.8750008 0,0.023437 0,0.5039064 -0.07031,1.0664064 -0.01172,0.070312 -0.03516,0.1757811 -0.03516,0.2109375 0,0.140625 0.08203,0.1875 0.1875,0.1875 0.128907,0 0.1875,-0.070312 0.222657,-0.375 l 0.363281,-3.0117197 c 0,-0.05859 0.03516,-0.222656 0.03516,-0.257812 0,-0.1875 -0.152344,-0.1875 -0.46875,-0.1875 H 4.1021172 c -0.328125,0 -0.5039063,0 -0.5039063,0.304687 0,0.1875 0.1171875,0.1875 0.4101563,0.1875 1.0664062,0 1.0664062,0.117188 1.0664062,0.316407 0,0.08203 -0.011719,0.152343 -0.070312,0.339843 l -2.3203125,9.2929697 c -0.1523437,0.60937494 -0.1875,0.77343744 -1.3945312,0.77343744 -0.32812501,0 -0.49218751,0 -0.49218751,0.31640625 0,0.1874999975 0.09375,0.1874999975 0.44531251,0.1874999975 h 8.6367187 c 0.3867196,0 0.3984376,-0.0117187475 0.5156256,-0.2929687475 z m 0,0"
       style="fill:#000000;fill-opacity:1;fill-rule:nonzero;stroke:none"
       aria-label="E"
       transform="matrix(1.3333333,0,0,1.3333333,479.69067,102.23733)" />
    <path
       id="path45"
       d="m 4.5223438,-4.2883516 c 0,-1.2421875 -0.1171875,-3.3398437 -1.1484375,-5.5546875 C 2.541875,-11.636008 1.135625,-12.889914 0.9246875,-12.889914 c -0.046875,0 -0.1171875,0.01172 -0.1171875,0.105469 0,0.02344 0.0234375,0.04687 0.0351563,0.08203 0.8203125,0.855469 2.9296876,3.0468749 2.9296876,8.4023437 0,5.3671875 -2.0859375,7.5585937 -2.9296876,8.4140625 C 0.8309375,4.1491484 0.8075,4.1608672 0.8075,4.1960234 c 0,0.09375 0.0703125,0.1054688 0.1171875,0.1054688 0.1875,0 1.6523438,-1.265625 2.4960938,-3.1640625 0.8671875,-1.91015626 1.1015625,-3.7734375 1.1015625,-5.4257813 z m 0,0"
       style="fill:#000000;fill-opacity:1;fill-rule:nonzero;stroke:none"
       aria-label=")"
       transform="matrix(1.3333333,0,0,1.3333333,497.67333,102.23733)" />
    <path
       id="path46"
       d="m 2.7407734,-12.292258 c 0,-0.304687 0,-0.621094 -0.3515625,-0.621094 -0.3398437,0 -0.3398437,0.316407 -0.3398437,0.621094 V 3.6803984 c 0,0.3164063 0,0.6210938 0.3398437,0.6210938 0.3515625,0 0.3515625,-0.3046875 0.3515625,-0.6210938 z m 0,0"
       style="fill:#000000;fill-opacity:1;fill-rule:nonzero;stroke:none"
       aria-label="|"
       transform="matrix(1.3333333,0,0,1.3333333,505.80267,102.23733)" />
    <path
       id="path47"
       d="M 5.2624844,-2.0040703 H 4.9929531 c -0.035156,0.1992187 -0.1289062,0.8554687 -0.2460937,1.04296874 -0.082031,0.1171875 -0.7617188,0.1171875 -1.125,0.1171875 H 1.4070156 c 0.328125,-0.28125004 1.0546875,-1.04296874 1.3710938,-1.33593754 1.8164062,-1.6640625 2.484375,-2.2851562 2.484375,-3.46875 0,-1.3828125 -1.0898438,-2.296875 -2.4726563,-2.296875 -1.3945312,0 -2.20312498,1.1835938 -2.20312498,2.203125 0,0.609375 0.52734378,0.609375 0.56249998,0.609375 0.2460938,0 0.5625,-0.1757812 0.5625,-0.5625 0,-0.328125 -0.234375,-0.5507812 -0.5625,-0.5507812 -0.1054687,0 -0.1289062,0 -0.16406248,0.011719 0.22265628,-0.8203125 0.86718748,-1.3710937 1.64062498,-1.3710937 1.0195313,0 1.640625,0.8554687 1.640625,1.9570312 0,1.0078125 -0.5859375,1.8984375 -1.265625,2.6601563 L 0.58670312,-0.28141406 V -1.640625e-4 H 4.9460781 Z m 0,0"
       style="fill:#000000;fill-opacity:1;fill-rule:nonzero;stroke:none"
       aria-label="2"
       transform="matrix(1.3333333,0,0,1.3333333,512.17867,91.176)" />
    <path
       id="path48"
       d="M 184.25424,-56.69362 V 48.92267"
       style="fill:none;stroke:#000000;stroke-width:1.19553;stroke-linecap:butt;stroke-linejoin:miter;stroke-miterlimit:10;stroke-dasharray:none;stroke-opacity:1"
       transform="matrix(1.3333333,0,0,-1.3333333,145.04133,114.08533)" />
    <path
       id="path49"
       d="M 5.30629,0 C 4.65466,0.16344 1.79025,1.08963 0,2.09753 V -2.09753 C 1.79025,-1.08963 4.65466,-0.16344 5.30629,0 Z"
       style="fill:#000000;fill-opacity:1;fill-rule:nonzero;stroke:#000000;stroke-width:1.19553;stroke-linecap:butt;stroke-linejoin:miter;stroke-miterlimit:10;stroke-dasharray:none;stroke-opacity:1"
       transform="matrix(0,-1.3333333,-1.3333333,0,390.71365,48.855107)" />
    <path
       id="path50"
       d="m 11.964906,-3.9950547 c 0.01172,-0.046875 0.07031,-0.1640625 0.07031,-0.234375 0,-0.09375 -0.07031,-0.1757812 -0.175781,-0.1757812 -0.07031,0 -0.105469,0.011719 -0.152344,0.070312 -0.03516,0.011719 -0.03516,0.046875 -0.1875,0.3984375 -1.019531,2.4023437 -1.7578127,3.43359371 -4.511719,3.43359371 H 4.4883438 c -0.234375,0 -0.2695313,0 -0.375,-0.0117188 -0.1875,-0.0234375 -0.2109375,-0.046875 -0.2109375,-0.1875 0,-0.12890625 0.035156,-0.22265625 0.070312,-0.38671871 l 1.195313,-4.7460932 H 6.86725 c 1.3476563,0 1.453125,0.2929687 1.453125,0.8085937 0,0.1757813 0,0.328125 -0.1289062,0.84375 -0.035156,0.070312 -0.046875,0.140625 -0.046875,0.1875 0,0.1171875 0.082031,0.1757813 0.1875,0.1757813 0.1523437,0 0.1757812,-0.1171875 0.2460937,-0.3632813 l 0.9726563,-3.9960937 c 0,-0.082031 -0.070312,-0.1640625 -0.1640625,-0.1640625 -0.1640625,0 -0.1757813,0.058594 -0.2460938,0.3046875 -0.3398437,1.3242187 -0.6914062,1.6992187 -2.2148437,1.6992187 H 5.2852188 L 6.351625,-10.569273 c 0.1523438,-0.597657 0.1875,-0.65625 0.890625,-0.65625 h 2.4726563 c 2.1093747,0 2.5429687,0.574218 2.5429687,1.8749996 0,0.023437 0,0.5039062 -0.07031,1.0664062 -0.01172,0.070312 -0.03516,0.1757813 -0.03516,0.2109375 0,0.140625 0.08203,0.1875 0.1875,0.1875 0.128907,0 0.1875,-0.070312 0.222657,-0.375 l 0.363281,-3.0117183 c 0,-0.05859 0.03516,-0.222657 0.03516,-0.257813 0,-0.1875 -0.152344,-0.1875 -0.46875,-0.1875 H 4.101625 c -0.328125,0 -0.5039062,0 -0.5039062,0.304688 0,0.1875 0.1171875,0.1875 0.4101562,0.1875 1.0664063,0 1.0664063,0.117187 1.0664063,0.316406 0,0.08203 -0.011719,0.152344 -0.070312,0.339844 l -2.3203125,9.2929683 c -0.1523438,0.60937501 -0.1875,0.77343751 -1.3945313,0.77343751 -0.328125,0 -0.4921875,0 -0.4921875,0.31640625 0,0.1875 0.09375,0.1875 0.4453125,0.1875 h 8.6367188 c 0.3867197,0 0.3984377,-0.01171875 0.5156257,-0.29296875 z m 0,0"
       style="fill:#000000;fill-opacity:1;fill-rule:nonzero;stroke:none"
       aria-label="E"
       transform="matrix(1.3333333,0,0,1.3333333,381.71867,32.385333)" />
    <path
       id="path51"
       d="m 11.965477,-3.9969062 c 0.01172,-0.046875 0.07031,-0.1640625 0.07031,-0.234375 0,-0.09375 -0.07031,-0.1757813 -0.175781,-0.1757813 -0.07031,0 -0.105469,0.011719 -0.152344,0.070312 -0.03516,0.011719 -0.03516,0.046875 -0.1875,0.3984375 -1.019531,2.4023438 -1.7578124,3.43359375 -4.5117187,3.43359375 H 4.4889141 c -0.234375,0 -0.2695313,0 -0.375,-0.0117188 -0.1875,-0.0234375 -0.2109375,-0.046875 -0.2109375,-0.1875 0,-0.12890625 0.035156,-0.22265625 0.070312,-0.38671865 L 5.1686016,-5.83675 h 1.6992187 c 1.3476563,0 1.453125,0.2929688 1.453125,0.8085938 0,0.1757812 0,0.328125 -0.1289062,0.84375 -0.035156,0.070312 -0.046875,0.140625 -0.046875,0.1875 0,0.1171875 0.082031,0.1757812 0.1875,0.1757812 0.1523437,0 0.1757812,-0.1171875 0.2460937,-0.3632812 L 9.5514141,-8.1805 c 0,-0.082031 -0.070312,-0.1640625 -0.1640625,-0.1640625 -0.1640625,0 -0.1757813,0.058594 -0.2460938,0.3046875 -0.3398437,1.3242188 -0.6914062,1.6992188 -2.2148437,1.6992188 h -1.640625 l 1.0664062,-4.2304688 c 0.1523438,-0.597656 0.1875,-0.65625 0.890625,-0.65625 h 2.4726563 c 2.1093754,0 2.5429684,0.574219 2.5429684,1.875 0,0.023437 0,0.5039063 -0.07031,1.0664063 -0.01172,0.070312 -0.03516,0.1757812 -0.03516,0.2109375 0,0.140625 0.08203,0.1875 0.1875,0.1875 0.128906,0 0.1875,-0.070312 0.222656,-0.375 l 0.363281,-3.0117188 c 0,-0.05859 0.03516,-0.222656 0.03516,-0.257812 0,-0.1875 -0.152343,-0.1875 -0.46875,-0.1875 H 4.1021953 c -0.328125,0 -0.5039062,0 -0.5039062,0.304687 0,0.1875 0.1171875,0.1875 0.4101562,0.1875 1.0664063,0 1.0664063,0.117188 1.0664063,0.316406 0,0.08203 -0.011719,0.152344 -0.070312,0.339844 l -2.3203125,9.2929688 c -0.1523438,0.60937495 -0.1875,0.77343745 -1.3945313,0.77343745 -0.32812499,0 -0.49218749,0 -0.49218749,0.31640625 0,0.1875 0.09375,0.1875 0.44531249,0.1875 h 8.6367188 c 0.3867184,0 0.3984374,-0.01171875 0.5156254,-0.29296875 z m 0,0"
       style="fill:#000000;fill-opacity:1;fill-rule:nonzero;stroke:none"
       aria-label="E"
       transform="matrix(1.3333333,0,0,1.3333333,358.464,118.65733)" />
    <path
       id="path52"
       d="m 5.3322031,-4.8035156 c 0.234375,0 0.328125,0 0.328125,-0.2226563 0,-0.1289062 -0.09375,-0.1289062 -0.3046875,-0.1289062 H 4.3829844 c 0.234375,-1.2304688 0.3984375,-2.0742188 0.4921875,-2.4609375 0.070312,-0.28125 0.328125,-0.5625 0.6328125,-0.5625 0.2578125,0 0.5039062,0.1054687 0.6210937,0.2226562 -0.46875,0.046875 -0.609375,0.3867188 -0.609375,0.5976563 0,0.234375 0.1875,0.375 0.4101563,0.375 0.234375,0 0.5976562,-0.1992188 0.5976562,-0.65625 0,-0.5039063 -0.5039062,-0.7734375 -1.03125,-0.7734375 -0.515625,0 -1.0078125,0.3867187 -1.2539062,0.84375 -0.2109375,0.421875 -0.328125,0.8554687 -0.609375,2.4140625 h -0.796875 c -0.234375,0 -0.3515625,0 -0.3515625,0.2226562 0,0.1289063 0.070312,0.1289063 0.3164062,0.1289063 h 0.7617188 c -0.2109375,1.1132812 -0.703125,3.80859373 -0.984375,5.08593748 -0.1992188,1.04296872 -0.375,1.92187502 -0.9726563,1.92187502 -0.035156,0 -0.3867187,0 -0.5976562,-0.234375 0.609375,-0.046875 0.609375,-0.5742188 0.609375,-0.5859375 0,-0.234375 -0.1875,-0.375 -0.4101563,-0.375 -0.23437497,0 -0.59765622,0.1992187 -0.59765622,0.65625 0,0.515625 0.52734372,0.7734375 0.99609372,0.7734375 1.21875,0 1.7226563,-2.19140627 1.8515625,-2.78906252 0.2109375,-0.91406248 0.796875,-4.08984378 0.8554688,-4.45312498 z m 0,0"
       style="fill:#000000;fill-opacity:1;fill-rule:nonzero;stroke:none"
       aria-label="f"
       transform="matrix(1.3333333,0,0,1.3333333,375.10133,122.1)" />
    <path
       id="path53"
       d="m 289.13736,28.3468 h 2.83485 V 5.66928 h -2.83485"
       style="fill:none;stroke:#000000;stroke-width:0.3985;stroke-linecap:butt;stroke-linejoin:miter;stroke-miterlimit:10;stroke-dasharray:none;stroke-opacity:1"
       transform="matrix(1.3333333,0,0,-1.3333333,145.04133,114.08533)" />
    <path
       id="path54"
       d="m 289.13736,-5.66927 h 2.83485 V -56.6936 h -2.83485"
       style="fill:none;stroke:#000000;stroke-width:0.3985;stroke-linecap:butt;stroke-linejoin:miter;stroke-miterlimit:10;stroke-dasharray:none;stroke-opacity:1"
       transform="matrix(1.3333333,0,0,-1.3333333,145.04133,114.08533)" />
    <path
       id="path55"
       d="m 291.97221,17.00824 h 2.83486"
       style="fill:none;stroke:#000000;stroke-width:0.3985;stroke-linecap:butt;stroke-linejoin:miter;stroke-miterlimit:10;stroke-dasharray:none;stroke-opacity:1"
       transform="matrix(1.3333333,0,0,-1.3333333,145.04133,114.08533)" />
    <text
       id="text55"
       xml:space="preserve"
       transform="matrix(1.3333333,0,0,1.3333333,543.69067,99.154667)"><tspan
         id="tspan55"
         style="font-variant:normal;font-weight:normal;font-size:17.2154px;font-family:'Latin Modern Roman';writing-mode:lr-tb;fill:#000000;fill-opacity:1;fill-rule:nonzero;stroke:none"
         x="0"
         y="0">Leviton</tspan></text>
    <path
       id="path56"
       d="m 291.97221,-31.18166 h 2.83486"
       style="fill:none;stroke:#000000;stroke-width:0.3985;stroke-linecap:butt;stroke-linejoin:miter;stroke-miterlimit:10;stroke-dasharray:none;stroke-opacity:1"
       transform="matrix(1.3333333,0,0,-1.3333333,145.04133,114.08533)" />
    <text
       id="text56"
       xml:space="preserve"
       transform="matrix(1.3333333,0,0,1.3333333,543.69067,163.384)"><tspan
         id="tspan56"
         style="font-variant:normal;font-weight:normal;font-size:17.2154px;font-family:'Latin Modern Roman';writing-mode:lr-tb;fill:#000000;fill-opacity:1;fill-rule:nonzero;stroke:none"
         x="0"
         dx="0 -1.3428043 0 0 0 5.1990628"
         y="0">Fermisea</tspan></text>
    <path
       id="path57"
       d="m 348.66583,-31.18166 h 28.34682"
       style="fill:none;stroke:#000000;stroke-width:0.3985;stroke-linecap:butt;stroke-linejoin:miter;stroke-miterlimit:10;stroke-dasharray:none;stroke-opacity:0"
       transform="matrix(1.3333333,0,0,-1.3333333,145.04133,114.08533)" />
  </g>
</svg>
