<?xml version="1.0" encoding="utf-8" standalone="no"?>
<!DOCTYPE svg PUBLIC "-//W3C//DTD SVG 1.1//EN"
  "http://www.w3.org/Graphics/SVG/1.1/DTD/svg11.dtd">
<svg xmlns:xlink="http://www.w3.org/1999/xlink" width="504pt" height="504pt" viewBox="0 0 504 504" xmlns="http://www.w3.org/2000/svg" version="1.1">
 <metadata>
  <rdf:RDF xmlns:dc="http://purl.org/dc/elements/1.1/" xmlns:cc="http://creativecommons.org/ns#" xmlns:rdf="http://www.w3.org/1999/02/22-rdf-syntax-ns#">
   <cc:Work>
    <dc:type rdf:resource="http://purl.org/dc/dcmitype/StillImage"/>
    <dc:date>2025-08-21T16:35:39.226741</dc:date>
    <dc:format>image/svg+xml</dc:format>
    <dc:creator>
     <cc:Agent>
      <dc:title>Matplotlib v3.10.1, https://matplotlib.org/</dc:title>
     </cc:Agent>
    </dc:creator>
   </cc:Work>
  </rdf:RDF>
 </metadata>
 <defs>
  <style type="text/css">*{stroke-linejoin: round; stroke-linecap: butt}</style>
 </defs>
 <g id="figure_1">
  <g id="patch_1">
   <path d="M 0 504 
L 504 504 
L 504 0 
L 0 0 
z
" style="fill: #ffffff"/>
  </g>
  <g id="axes_1">
   <g id="patch_2">
    <path d="M 63 448.56 
L 453.6 448.56 
L 453.6 60.48 
L 63 60.48 
z
" style="fill: #ffffff"/>
   </g>
   <g id="matplotlib.axis_1">
    <g id="xtick_1">
     <g id="line2d_1">
      <defs>
       <path id="m5ccfa4df0a" d="M 0 0 
L 0 3.5 
" style="stroke: #000000; stroke-width: 0.8"/>
      </defs>
      <g>
       <use xlink:href="#m5ccfa4df0a" x="80.754545" y="448.56" style="stroke: #000000; stroke-width: 0.8"/>
      </g>
     </g>
    </g>
    <g id="xtick_2">
     <g id="line2d_2">
      <g>
       <use xlink:href="#m5ccfa4df0a" x="169.527273" y="448.56" style="stroke: #000000; stroke-width: 0.8"/>
      </g>
     </g>
    </g>
    <g id="xtick_3">
     <g id="line2d_3">
      <g>
       <use xlink:href="#m5ccfa4df0a" x="258.3" y="448.56" style="stroke: #000000; stroke-width: 0.8"/>
      </g>
     </g>
    </g>
    <g id="xtick_4">
     <g id="line2d_4">
      <g>
       <use xlink:href="#m5ccfa4df0a" x="347.072727" y="448.56" style="stroke: #000000; stroke-width: 0.8"/>
      </g>
     </g>
    </g>
    <g id="xtick_5">
     <g id="line2d_5">
      <g>
       <use xlink:href="#m5ccfa4df0a" x="435.845455" y="448.56" style="stroke: #000000; stroke-width: 0.8"/>
      </g>
     </g>
    </g>
    <g id="text_1">
     <!-- $t$ -->
     <g transform="translate(253.1 479.315938) scale(0.26 -0.26)">
      <defs>
       <path id="DejaVuSans-Oblique-74" d="M 2706 3500 
L 2619 3053 
L 1472 3053 
L 1100 1153 
Q 1081 1047 1072 975 
Q 1063 903 1063 863 
Q 1063 663 1183 572 
Q 1303 481 1569 481 
L 2150 481 
L 2053 0 
L 1503 0 
Q 991 0 739 200 
Q 488 400 488 806 
Q 488 878 497 964 
Q 506 1050 525 1153 
L 897 3053 
L 409 3053 
L 500 3500 
L 978 3500 
L 1172 4494 
L 1747 4494 
L 1556 3500 
L 2706 3500 
z
" transform="scale(0.015625)"/>
      </defs>
      <use xlink:href="#DejaVuSans-Oblique-74" transform="translate(0 0.78125)"/>
     </g>
    </g>
   </g>
   <g id="matplotlib.axis_2">
    <g id="ytick_1">
     <g id="line2d_6">
      <defs>
       <path id="mbbe2cef05d" d="M 0 0 
L -3.5 0 
" style="stroke: #000000; stroke-width: 0.8"/>
      </defs>
      <g>
       <use xlink:href="#mbbe2cef05d" x="63" y="436.185309" style="stroke: #000000; stroke-width: 0.8"/>
      </g>
     </g>
    </g>
    <g id="ytick_2">
     <g id="line2d_7">
      <g>
       <use xlink:href="#mbbe2cef05d" x="63" y="377.862459" style="stroke: #000000; stroke-width: 0.8"/>
      </g>
     </g>
    </g>
    <g id="ytick_3">
     <g id="line2d_8">
      <g>
       <use xlink:href="#mbbe2cef05d" x="63" y="319.539609" style="stroke: #000000; stroke-width: 0.8"/>
      </g>
     </g>
    </g>
    <g id="ytick_4">
     <g id="line2d_9">
      <g>
       <use xlink:href="#mbbe2cef05d" x="63" y="261.216759" style="stroke: #000000; stroke-width: 0.8"/>
      </g>
     </g>
    </g>
    <g id="ytick_5">
     <g id="line2d_10">
      <g>
       <use xlink:href="#mbbe2cef05d" x="63" y="202.89391" style="stroke: #000000; stroke-width: 0.8"/>
      </g>
     </g>
    </g>
    <g id="ytick_6">
     <g id="line2d_11">
      <g>
       <use xlink:href="#mbbe2cef05d" x="63" y="144.57106" style="stroke: #000000; stroke-width: 0.8"/>
      </g>
     </g>
    </g>
    <g id="ytick_7">
     <g id="line2d_12">
      <g>
       <use xlink:href="#mbbe2cef05d" x="63" y="86.24821" style="stroke: #000000; stroke-width: 0.8"/>
      </g>
     </g>
    </g>
    <g id="text_2">
     <!-- $I$ -->
     <g transform="translate(46.592813 258.42) rotate(-90) scale(0.26 -0.26)">
      <defs>
       <path id="DejaVuSans-Oblique-49" d="M 1081 4666 
L 1716 4666 
L 806 0 
L 172 0 
L 1081 4666 
z
" transform="scale(0.015625)"/>
      </defs>
      <use xlink:href="#DejaVuSans-Oblique-49" transform="translate(0 0.09375)"/>
     </g>
    </g>
   </g>
   <g id="line2d_13">
    <path d="M 80.754545 202.045959 
L 81.109992 303.209292 
L 81.465438 285.8182 
L 81.820885 232.789771 
L 82.176331 273.816156 
L 82.531777 113.300328 
L 82.887224 336.095692 
L 83.24267 252.802471 
L 83.598116 281.81323 
L 83.953563 402.961642 
L 84.309009 303.134345 
L 84.664455 262.690084 
L 85.019902 242.850715 
L 85.375348 278.61092 
L 85.730794 300.570798 
L 86.086241 301.900303 
L 86.441687 263.613413 
L 86.797133 313.781511 
L 87.15258 279.972202 
L 87.508026 280.155544 
L 87.863473 278.994769 
L 88.218919 159.622454 
L 88.574365 362.580451 
L 88.929812 287.479748 
L 89.285258 254.675205 
L 89.640704 338.413926 
L 89.996151 249.199649 
L 90.351597 286.135968 
L 90.707043 172.308378 
L 91.06249 165.881045 
L 91.417936 298.655252 
L 91.773382 313.914451 
L 92.128829 251.982507 
L 92.484275 303.18146 
L 92.839722 241.620698 
L 93.195168 221.596078 
L 93.550614 223.416113 
L 94.261507 299.563737 
L 94.616953 195.861832 
L 94.9724 258.679513 
L 95.327846 248.509828 
L 96.038739 121.897792 
L 96.394185 312.566046 
L 96.749631 224.259659 
L 97.105078 296.985609 
L 97.460524 257.231566 
L 97.815971 291.149207 
L 98.171417 338.736734 
L 98.526863 282.708158 
L 98.88231 259.365199 
L 99.237756 176.63473 
L 99.593202 279.817397 
L 99.948649 286.413583 
L 100.304095 364.85897 
L 100.659541 188.716952 
L 101.014988 248.936336 
L 101.370434 204.632996 
L 101.72588 301.962669 
L 102.081327 197.577555 
L 102.436773 243.789072 
L 102.792219 255.969564 
L 103.147666 317.131388 
L 103.503112 205.89739 
L 103.858559 202.758931 
L 104.214005 281.336087 
L 104.569451 182.166861 
L 104.924898 388.619292 
L 105.280344 195.063547 
L 105.63579 297.514002 
L 105.991237 249.633465 
L 106.346683 183.117559 
L 106.702129 309.703342 
L 107.057576 258.943496 
L 107.413022 266.375361 
L 108.123915 333.132139 
L 108.834808 78.12 
L 109.190254 402.845485 
L 109.5457 212.396141 
L 109.901147 246.917559 
L 110.256593 267.603342 
L 110.612039 195.735618 
L 110.967486 192.87142 
L 111.322932 260.367291 
L 112.033825 311.840285 
L 112.744717 221.896705 
L 113.100164 298.271518 
L 113.45561 209.385285 
L 113.811057 281.613083 
L 114.166503 320.397119 
L 114.521949 216.946279 
L 114.877396 213.880541 
L 115.232842 267.181906 
L 115.588288 286.891432 
L 115.943735 413.182629 
L 116.654627 205.787127 
L 117.010074 138.421859 
L 117.36552 119.957028 
L 117.720966 211.325517 
L 118.076413 225.494864 
L 118.431859 121.869373 
L 118.787305 157.647592 
L 119.142752 360.484333 
L 119.498198 236.369514 
L 119.853645 404.100024 
L 120.209091 204.338079 
L 120.564537 246.59826 
L 120.919984 235.88438 
L 121.27543 293.185677 
L 121.630876 323.705881 
L 121.986323 307.263917 
L 122.341769 248.576522 
L 122.697215 283.313854 
L 123.408108 173.781933 
L 123.763554 273.873834 
L 124.119001 272.920888 
L 124.474447 209.832449 
L 125.18534 328.549539 
L 125.540786 280.946164 
L 125.896233 314.178858 
L 126.251679 201.811321 
L 126.607125 299.379189 
L 126.962572 228.96582 
L 127.318018 241.419272 
L 128.028911 111.500394 
L 128.384357 320.161218 
L 128.739803 110.398901 
L 129.09525 329.378463 
L 129.450696 227.223761 
L 130.161589 308.116172 
L 130.517035 150.884355 
L 130.872482 146.616197 
L 131.227928 158.489198 
L 131.583374 293.437171 
L 131.938821 200.837714 
L 132.294267 282.977558 
L 132.649713 259.184942 
L 133.00516 272.136615 
L 133.360606 356.063092 
L 133.716052 211.79298 
L 134.071499 319.681472 
L 134.782391 237.666417 
L 135.137838 372.159571 
L 135.493284 223.698562 
L 135.848731 225.454442 
L 136.204177 430.92 
L 136.559623 266.892529 
L 136.91507 247.141141 
L 137.270516 251.320942 
L 137.625962 308.330533 
L 138.336855 299.932697 
L 138.692301 279.305651 
L 139.047748 286.960826 
L 139.403194 246.253722 
L 140.114087 298.579786 
L 140.469533 279.978329 
L 140.82498 245.408845 
L 141.180426 282.343685 
L 141.535872 204.255976 
L 142.246765 259.981191 
L 142.602211 305.314343 
L 142.957658 193.436237 
L 143.313104 331.164752 
L 143.66855 207.304409 
L 144.379443 267.383501 
L 144.734889 195.916179 
L 145.090336 313.742338 
L 145.445782 231.542969 
L 145.801229 301.803136 
L 146.156675 306.295865 
L 146.867568 116.597793 
L 147.223014 221.167839 
L 147.57846 247.930088 
L 147.933907 202.586888 
L 148.289353 276.91617 
L 148.644799 251.407149 
L 149.000246 299.281058 
L 149.355692 265.150205 
L 149.711138 260.489079 
L 150.066585 253.329753 
L 150.422031 376.123187 
L 150.777477 316.868119 
L 151.132924 223.240739 
L 151.48837 296.4258 
L 151.843817 194.952832 
L 152.199263 371.816211 
L 152.554709 177.340894 
L 152.910156 229.628966 
L 153.265602 254.936675 
L 153.621048 296.109428 
L 153.976495 132.267982 
L 154.331941 330.850993 
L 154.687387 291.842841 
L 155.042834 333.795161 
L 155.39828 272.157596 
L 155.753726 160.306733 
L 156.109173 268.799013 
L 156.464619 271.136861 
L 156.820066 311.732065 
L 157.175512 271.541803 
L 157.530958 152.430224 
L 157.886405 300.193311 
L 158.241851 242.883844 
L 158.597297 258.241163 
L 158.952744 255.986463 
L 159.30819 296.04439 
L 159.663636 193.646262 
L 160.019083 187.400156 
L 160.374529 173.966718 
L 161.085422 240.443 
L 161.440868 325.626799 
L 161.796314 156.487084 
L 162.151761 262.163313 
L 162.507207 143.58426 
L 162.862654 330.438161 
L 163.2181 295.204877 
L 163.573546 231.697928 
L 163.928993 238.017348 
L 164.284439 271.499409 
L 164.639885 248.429545 
L 164.995332 235.53229 
L 165.350778 228.610974 
L 165.706224 322.88645 
L 166.061671 221.375422 
L 166.417117 201.780412 
L 166.772563 214.915089 
L 167.12801 139.631649 
L 167.483456 415.351127 
L 168.194349 262.434955 
L 168.549795 265.416614 
L 168.905242 195.742299 
L 169.260688 198.643842 
L 169.616134 282.949987 
L 170.327027 207.474533 
L 170.682473 240.095236 
L 171.03792 183.835282 
L 171.393366 294.67064 
L 171.748812 335.827923 
L 172.104259 362.527159 
L 172.459705 323.84942 
L 172.815152 233.482774 
L 173.526044 350.671012 
L 173.881491 314.779766 
L 174.236937 344.406272 
L 174.592383 254.467864 
L 174.94783 397.457265 
L 175.303276 255.060167 
L 175.658722 258.091438 
L 176.014169 274.33277 
L 176.369615 319.531216 
L 176.725061 190.272655 
L 177.080508 322.107546 
L 177.435954 312.679678 
L 177.7914 271.589955 
L 178.146847 217.394392 
L 178.502293 259.414648 
L 178.85774 245.126687 
L 179.213186 135.045225 
L 179.568632 235.250307 
L 179.924079 226.54482 
L 180.279525 302.607574 
L 180.634971 348.03771 
L 181.345864 172.703688 
L 181.70131 336.733611 
L 182.412203 247.803974 
L 182.767649 333.575235 
L 183.123096 280.25347 
L 183.478542 189.567096 
L 183.833989 259.845021 
L 184.189435 360.864499 
L 184.544881 354.910844 
L 184.900328 202.088856 
L 185.255774 328.840204 
L 185.61122 278.002108 
L 185.966667 200.690047 
L 186.322113 320.608479 
L 186.677559 321.487631 
L 187.033006 301.878731 
L 187.388452 257.129812 
L 187.743898 234.105305 
L 188.099345 245.140365 
L 188.454791 266.066759 
L 188.810238 249.652313 
L 189.165684 195.198731 
L 189.52113 305.056914 
L 189.876577 271.9231 
L 190.232023 201.952297 
L 190.587469 275.64341 
L 190.942916 205.587713 
L 191.298362 258.295705 
L 191.653808 281.136811 
L 192.009255 224.405921 
L 192.364701 291.137843 
L 192.720147 217.020238 
L 193.075594 315.997669 
L 193.43104 155.749317 
L 193.786486 301.945969 
L 194.141933 242.390509 
L 194.497379 261.420933 
L 194.852826 262.940066 
L 195.208272 286.40811 
L 195.563718 291.274479 
L 195.919165 226.15567 
L 196.274611 316.681798 
L 196.630057 301.187869 
L 196.985504 206.288737 
L 197.34095 174.401739 
L 197.696396 254.203365 
L 198.051843 300.332478 
L 198.762735 286.103111 
L 199.118182 375.380134 
L 199.473628 255.942193 
L 199.829075 372.284335 
L 200.184521 373.51572 
L 200.895414 178.531124 
L 201.25086 228.407357 
L 201.606306 256.981748 
L 201.961753 251.371955 
L 202.317199 206.495185 
L 202.672645 144.198758 
L 203.028092 322.646649 
L 203.383538 212.081916 
L 203.738984 220.969225 
L 204.094431 249.527918 
L 204.449877 269.050128 
L 204.805324 237.747822 
L 205.516216 274.784105 
L 205.871663 133.969686 
L 206.227109 356.434903 
L 206.582555 219.779204 
L 206.938002 353.463175 
L 207.293448 204.002345 
L 207.648894 263.497792 
L 208.004341 397.707621 
L 208.359787 199.755142 
L 208.715233 273.802376 
L 209.07068 269.432235 
L 209.426126 244.452677 
L 209.781572 330.673634 
L 210.137019 328.676316 
L 210.492465 300.477078 
L 210.847912 209.855523 
L 211.203358 243.796962 
L 211.558804 244.222357 
L 211.914251 302.093878 
L 212.269697 323.2159 
L 212.98059 262.080157 
L 213.336036 318.405738 
L 213.691482 317.447227 
L 214.046929 246.061265 
L 214.402375 228.137344 
L 214.757821 326.204382 
L 215.113268 311.761656 
L 215.468714 237.91269 
L 215.824161 127.273626 
L 216.179607 221.902051 
L 216.535053 248.77552 
L 216.8905 108.07246 
L 217.245946 254.526766 
L 217.601392 264.519129 
L 217.956839 218.759463 
L 218.312285 301.108276 
L 218.667731 171.317942 
L 219.023178 208.035735 
L 219.378624 331.344726 
L 219.73407 193.727185 
L 220.089517 297.576667 
L 220.444963 347.312258 
L 220.80041 164.124297 
L 221.155856 309.614283 
L 221.511302 296.800605 
L 221.866749 335.693784 
L 222.222195 227.852361 
L 222.577641 293.326469 
L 222.933088 291.745227 
L 223.288534 229.18059 
L 223.64398 366.521699 
L 223.999427 280.635337 
L 224.354873 309.59084 
L 225.065766 229.56594 
L 225.421212 242.048293 
L 225.776658 296.457132 
L 226.132105 215.10879 
L 226.487551 324.603204 
L 226.842998 176.432718 
L 227.198444 187.34184 
L 227.55389 243.86537 
L 227.909337 346.096452 
L 228.264783 352.124753 
L 228.975676 130.177612 
L 229.331122 310.237843 
L 229.686568 282.438689 
L 230.042015 342.096887 
L 230.397461 278.245649 
L 230.752907 341.478606 
L 231.108354 312.684666 
L 231.4638 358.492971 
L 232.174693 251.23737 
L 232.530139 153.546591 
L 232.885586 355.385959 
L 233.241032 275.233467 
L 233.596478 273.502256 
L 233.951925 184.392132 
L 234.307371 235.206437 
L 234.662817 263.186159 
L 235.018264 249.871469 
L 235.37371 279.645022 
L 235.729156 290.984321 
L 236.084603 241.225102 
L 236.795495 310.074082 
L 237.150942 294.045294 
L 237.861835 315.133138 
L 238.217281 151.683957 
L 238.572727 267.966243 
L 238.928174 341.073017 
L 239.28362 249.653278 
L 239.639066 289.025561 
L 239.994513 224.225554 
L 240.349959 366.753288 
L 240.705405 292.57332 
L 241.060852 262.612149 
L 241.416298 332.032668 
L 241.771744 271.238247 
L 242.127191 151.403807 
L 242.482637 304.623226 
L 242.838084 323.044149 
L 243.19353 202.896682 
L 243.548976 249.319394 
L 243.904423 266.415552 
L 244.259869 336.662864 
L 244.615315 270.517035 
L 244.970762 238.161384 
L 245.326208 185.960219 
L 245.681654 185.682243 
L 246.037101 333.895786 
L 246.392547 259.310912 
L 246.747993 229.318895 
L 247.10344 210.658357 
L 247.458886 163.607905 
L 247.814333 237.42579 
L 248.169779 268.517699 
L 248.525225 230.387489 
L 248.880672 206.825799 
L 249.236118 220.973446 
L 249.591564 255.382291 
L 249.947011 198.739532 
L 250.302457 344.557655 
L 251.01335 195.030174 
L 251.368796 292.700155 
L 251.724242 205.770619 
L 252.079689 228.836421 
L 252.435135 242.665793 
L 252.790581 308.679232 
L 253.146028 229.163957 
L 253.501474 247.433062 
L 253.856921 384.491001 
L 254.212367 283.162512 
L 254.567813 223.270509 
L 254.92326 307.099538 
L 255.278706 204.185047 
L 255.634152 335.510136 
L 255.989599 147.315595 
L 256.345045 293.784714 
L 256.700491 182.570213 
L 257.055938 255.786276 
L 257.411384 294.814745 
L 257.76683 317.974059 
L 258.122277 327.211422 
L 258.477723 288.823199 
L 258.83317 188.057782 
L 259.188616 332.135357 
L 259.544062 242.85386 
L 259.899509 189.487886 
L 260.254955 312.1663 
L 260.610401 227.319329 
L 260.965848 324.952288 
L 261.321294 166.83379 
L 261.67674 257.085938 
L 262.032187 282.047286 
L 262.387633 358.157186 
L 262.743079 186.149773 
L 263.098526 254.474594 
L 263.453972 188.109201 
L 263.809419 251.089443 
L 264.164865 256.355783 
L 264.520311 242.170797 
L 264.875758 99.587959 
L 265.231204 276.918943 
L 265.58665 292.662783 
L 265.942097 224.242473 
L 266.297543 287.828099 
L 266.652989 213.466012 
L 267.008436 186.933069 
L 267.719328 400.807385 
L 268.074775 247.315302 
L 268.430221 296.302226 
L 268.785667 262.460733 
L 269.141114 204.242009 
L 269.49656 225.226116 
L 269.852007 299.404967 
L 270.207453 264.724352 
L 270.918346 232.435979 
L 271.273792 284.717992 
L 271.629238 214.433446 
L 271.984685 186.394583 
L 272.340131 205.233109 
L 272.695577 294.704491 
L 273.051024 315.600938 
L 273.40647 205.19391 
L 274.117363 269.332002 
L 274.472809 324.487725 
L 275.183702 202.993805 
L 275.539148 253.784369 
L 275.894595 218.679366 
L 276.250041 277.074249 
L 276.605487 296.453264 
L 276.960934 207.926791 
L 277.31638 331.541392 
L 277.671826 322.032293 
L 278.027273 197.711204 
L 278.382719 289.146422 
L 278.738165 182.691284 
L 279.093612 275.491065 
L 279.449058 272.05592 
L 280.159951 179.04083 
L 280.515397 268.565443 
L 280.870844 290.599845 
L 281.22629 282.016853 
L 281.581736 260.344834 
L 281.937183 305.389425 
L 282.292629 151.882879 
L 282.648075 245.219716 
L 283.003522 225.407799 
L 283.358968 382.702152 
L 283.714414 269.17719 
L 284.069861 264.278692 
L 284.425307 225.200933 
L 284.780753 350.616313 
L 285.1362 232.488876 
L 285.491646 304.53041 
L 285.847093 292.899523 
L 286.202539 397.986594 
L 286.557985 186.974847 
L 286.913432 211.833852 
L 287.268878 307.384086 
L 287.624324 255.125761 
L 287.979771 168.587832 
L 288.335217 208.809319 
L 288.690663 171.968535 
L 289.04611 117.236983 
L 289.401556 300.203663 
L 289.757002 272.700715 
L 290.112449 223.702459 
L 290.467895 299.681141 
L 290.823342 259.864862 
L 291.178788 307.972624 
L 291.534234 332.763931 
L 291.889681 391.722193 
L 292.245127 308.362414 
L 292.600573 270.721099 
L 292.95602 207.090232 
L 293.311466 206.705879 
L 293.666912 249.39772 
L 294.022359 329.044294 
L 294.377805 253.963264 
L 294.733251 319.286322 
L 295.088698 324.06091 
L 295.444144 242.636439 
L 295.79959 298.41938 
L 296.155037 192.2446 
L 296.510483 270.581804 
L 296.86593 296.667073 
L 297.221376 264.347179 
L 297.576822 363.947727 
L 297.932269 171.482428 
L 298.287715 233.267091 
L 298.643161 405.191892 
L 298.998608 269.189715 
L 299.354054 321.799236 
L 299.7095 126.09623 
L 300.064947 169.397593 
L 300.420393 229.985678 
L 300.775839 238.155878 
L 301.131286 359.581026 
L 301.486732 176.449219 
L 301.842179 285.094017 
L 302.197625 284.61127 
L 302.553071 199.732646 
L 302.908518 320.065323 
L 303.263964 204.347249 
L 303.61941 169.228491 
L 303.974857 280.798391 
L 304.330303 228.185692 
L 304.685749 301.33536 
L 305.041196 177.110852 
L 305.396642 252.127593 
L 305.752088 288.685768 
L 306.107535 260.20708 
L 306.818428 146.106384 
L 307.173874 288.632372 
L 307.52932 280.549101 
L 308.240213 337.283033 
L 308.595659 298.09864 
L 308.951106 178.105695 
L 309.306552 164.166091 
L 309.661998 284.98792 
L 310.017445 278.739695 
L 310.372891 232.228084 
L 310.728337 241.003794 
L 311.083784 219.872213 
L 311.43923 259.721517 
L 311.794676 284.259017 
L 312.150123 265.251637 
L 312.505569 342.777796 
L 312.861016 344.390902 
L 313.216462 237.958981 
L 313.571908 277.710076 
L 313.927355 331.578737 
L 314.282801 189.575118 
L 314.638247 199.832771 
L 314.993694 236.382295 
L 315.34914 315.620771 
L 315.704586 242.462736 
L 316.060033 249.781797 
L 316.770925 177.042396 
L 317.126372 235.185338 
L 317.481818 218.478085 
L 318.192711 344.510351 
L 318.548157 312.607658 
L 318.903604 172.724448 
L 319.25905 255.082139 
L 319.614496 188.103212 
L 319.969943 186.047117 
L 320.325389 361.146099 
L 320.680835 225.818234 
L 321.036282 275.3131 
L 321.391728 305.969376 
L 321.747174 244.513247 
L 322.102621 401.733756 
L 322.458067 171.638253 
L 322.813514 306.656854 
L 323.16896 309.154986 
L 323.524406 285.791753 
L 323.879853 373.251763 
L 324.235299 328.90661 
L 324.590745 317.921745 
L 324.946192 378.679669 
L 325.301638 200.23599 
L 325.657084 258.956934 
L 326.012531 202.816074 
L 326.367977 342.514044 
L 326.723423 196.44407 
L 327.07887 281.418741 
L 327.434316 222.306016 
L 327.789762 283.992619 
L 328.145209 254.025486 
L 328.500655 211.410976 
L 328.856102 239.475663 
L 329.211548 285.782143 
L 329.566994 420.023832 
L 330.277887 309.294545 
L 330.633333 336.839914 
L 330.98878 326.620712 
L 331.344226 196.734557 
L 331.699672 373.047943 
L 332.055119 300.678543 
L 332.410565 300.836906 
L 332.766011 247.356264 
L 333.121458 256.416593 
L 333.476904 309.672581 
L 333.832351 268.474758 
L 334.187797 250.117896 
L 334.543243 317.335773 
L 334.89869 230.93424 
L 335.254136 351.980846 
L 335.609582 251.997853 
L 335.965029 209.382475 
L 336.320475 283.850914 
L 336.675921 430.160989 
L 337.031368 198.188054 
L 337.386814 288.300824 
L 338.097707 211.423617 
L 338.453153 112.107215 
L 338.8086 296.568285 
L 339.164046 277.585561 
L 339.519492 188.031693 
L 339.874939 338.128452 
L 340.230385 256.562099 
L 340.585831 134.694113 
L 340.941278 294.852305 
L 341.296724 271.229589 
L 341.65217 265.908444 
L 342.007617 386.40841 
L 342.363063 232.786607 
L 342.718509 201.791728 
L 343.073956 325.755441 
L 343.429402 298.251666 
L 343.784848 197.546482 
L 344.140295 231.031244 
L 344.495741 343.079189 
L 344.851188 258.495849 
L 345.206634 299.308304 
L 345.56208 205.474499 
L 345.917527 239.422266 
L 346.272973 284.242982 
L 346.983866 301.008322 
L 347.339312 121.455321 
L 347.694758 280.155418 
L 348.050205 183.519014 
L 348.405651 260.077097 
L 348.761097 285.245498 
L 349.116544 163.194177 
L 349.47199 317.346431 
L 350.182883 275.854189 
L 350.538329 237.836096 
L 350.893776 279.638673 
L 351.249222 271.32931 
L 351.604668 280.304265 
L 351.960115 283.142714 
L 352.315561 330.204264 
L 352.671007 222.376539 
L 353.026454 229.737298 
L 353.3819 271.774788 
L 353.737346 199.624198 
L 354.092793 289.434601 
L 354.803686 267.606314 
L 355.159132 361.228099 
L 355.514578 219.682459 
L 355.870025 219.743496 
L 356.225471 401.554714 
L 356.580917 293.027118 
L 356.936364 244.334229 
L 357.29181 288.674046 
L 357.647256 138.05177 
L 358.002703 205.209737 
L 358.358149 221.305273 
L 358.713595 184.299892 
L 359.069042 264.574253 
L 359.424488 296.723217 
L 359.779934 252.428547 
L 360.135381 339.106969 
L 360.490827 373.321736 
L 360.846274 221.627484 
L 361.20172 269.475311 
L 361.557166 339.530867 
L 362.268059 236.232417 
L 362.623505 318.951373 
L 362.978952 315.381594 
L 363.334398 323.830251 
L 363.689844 190.27137 
L 364.045291 284.093624 
L 364.400737 251.552098 
L 364.756183 348.947433 
L 365.11163 352.185688 
L 365.467076 272.605155 
L 365.822523 166.846948 
L 366.177969 290.120067 
L 366.533415 235.793459 
L 366.888862 253.809324 
L 367.244308 288.775591 
L 367.599754 199.157004 
L 367.955201 309.138342 
L 368.310647 315.875054 
L 368.666093 245.400856 
L 369.02154 337.04938 
L 369.376986 285.547197 
L 369.732432 176.49415 
L 370.087879 264.43751 
L 370.443325 206.452737 
L 370.798771 307.378405 
L 371.154218 283.128905 
L 371.509664 295.431637 
L 371.865111 267.272064 
L 372.220557 337.486745 
L 372.576003 320.574386 
L 372.93145 242.915747 
L 373.286896 214.786242 
L 373.642342 295.339052 
L 373.997789 305.048444 
L 374.353235 377.395679 
L 374.708681 263.753293 
L 375.419574 360.529851 
L 375.77502 205.809752 
L 376.130467 234.033268 
L 376.485913 167.239933 
L 376.84136 205.284493 
L 377.196806 307.210198 
L 377.552252 263.846874 
L 377.907699 242.399445 
L 378.263145 207.080762 
L 378.618591 213.618525 
L 378.974038 236.754146 
L 379.329484 336.282535 
L 379.68493 312.648161 
L 380.040377 272.906219 
L 380.395823 340.164663 
L 380.751269 249.87739 
L 381.106716 327.392823 
L 381.462162 199.219031 
L 381.817609 240.557024 
L 382.173055 344.573336 
L 382.528501 381.033991 
L 382.883948 313.842951 
L 383.239394 279.440114 
L 383.59484 217.220187 
L 383.950287 263.712614 
L 384.305733 341.620562 
L 385.016626 189.490178 
L 385.372072 227.342644 
L 385.727518 339.216908 
L 386.082965 248.799777 
L 386.438411 192.765716 
L 386.793857 246.222582 
L 387.149304 162.002235 
L 387.50475 288.42436 
L 387.860197 290.335045 
L 388.215643 149.738085 
L 388.571089 268.834584 
L 388.926536 205.59282 
L 389.281982 376.058849 
L 389.637428 194.835758 
L 389.992875 159.08395 
L 390.348321 264.101624 
L 390.703767 305.815813 
L 391.059214 263.760303 
L 391.41466 261.558881 
L 391.770106 194.145192 
L 392.125553 188.863652 
L 392.480999 319.645934 
L 392.836446 195.774633 
L 393.191892 354.320442 
L 393.547338 293.365452 
L 393.902785 252.258789 
L 394.258231 226.260662 
L 394.969124 333.615143 
L 395.32457 302.16138 
L 395.680016 282.041337 
L 396.035463 228.364476 
L 396.390909 225.74778 
L 396.746355 224.369159 
L 397.457248 175.216584 
L 397.812695 305.672605 
L 398.168141 287.058154 
L 398.523587 233.200069 
L 398.879034 262.034238 
L 399.23448 319.604421 
L 399.589926 278.458834 
L 399.945373 295.567869 
L 400.300819 283.422691 
L 400.656265 213.711672 
L 401.011712 225.532154 
L 401.367158 188.819089 
L 401.722604 212.188146 
L 402.078051 199.884355 
L 402.433497 163.12671 
L 402.788943 167.487588 
L 403.14439 289.973682 
L 403.499836 295.550732 
L 403.855283 141.030788 
L 404.210729 351.13576 
L 404.921622 207.534901 
L 405.277068 293.738447 
L 405.632514 219.55444 
L 405.987961 305.013334 
L 406.343407 215.247055 
L 406.698853 381.105647 
L 407.0543 297.514533 
L 407.765192 186.041125 
L 408.120639 211.783134 
L 408.831532 294.7873 
L 409.186978 338.065015 
L 409.542424 309.530246 
L 410.253317 223.648848 
L 410.608763 275.914015 
L 410.96421 300.217557 
L 411.319656 204.583841 
L 411.675102 260.315855 
L 412.030549 212.533509 
L 412.385995 302.190037 
L 412.741441 208.316982 
L 413.096888 282.557815 
L 413.452334 282.900981 
L 413.807781 177.055676 
L 414.163227 282.028004 
L 414.518673 278.917939 
L 414.87412 331.017931 
L 415.229566 211.429715 
L 415.585012 300.44645 
L 415.940459 276.735767 
L 416.295905 183.079945 
L 416.651351 271.557762 
L 417.006798 170.464449 
L 417.362244 231.533145 
L 417.71769 226.021027 
L 418.073137 218.40673 
L 418.428583 313.439513 
L 418.784029 290.291607 
L 419.139476 201.102891 
L 419.494922 174.189578 
L 419.850369 264.093708 
L 420.205815 241.559545 
L 420.561261 269.695102 
L 420.916708 281.103243 
L 421.272154 191.506184 
L 421.6276 309.077989 
L 421.983047 261.591087 
L 422.338493 270.852136 
L 422.693939 190.4656 
L 423.049386 329.891089 
L 423.404832 292.766555 
L 423.760278 332.472135 
L 424.115725 266.139891 
L 424.471171 237.029145 
L 424.826618 250.741619 
L 425.182064 258.618356 
L 425.53751 250.647675 
L 425.892957 268.905608 
L 426.248403 223.808829 
L 426.603849 295.13529 
L 427.314742 212.798783 
L 427.670188 264.947995 
L 428.025635 265.08552 
L 428.381081 251.832583 
L 428.736527 227.208296 
L 429.091974 250.115079 
L 429.44742 297.340102 
L 429.802867 262.089443 
L 430.158313 278.483691 
L 430.513759 196.243417 
L 430.869206 236.536024 
L 431.224652 218.603628 
L 431.580098 209.876886 
L 431.935545 233.501201 
L 432.290991 269.101498 
L 432.646437 279.228123 
L 433.35733 133.760775 
L 433.712776 204.677141 
L 434.068223 304.661435 
L 434.423669 219.167631 
L 434.779115 287.668285 
L 435.134562 328.22229 
L 435.490008 227.324085 
L 435.845455 293.085959 
L 435.845455 293.085959 
" clip-path="url(#p97249c0ff0)" style="fill: none; stroke: #f9123c; stroke-width: 2.5; stroke-linecap: square"/>
   </g>
   <g id="patch_3">
    <path d="M 63 448.56 
L 63 60.48 
" style="fill: none; stroke: #000000; stroke-width: 0.8; stroke-linejoin: miter; stroke-linecap: square"/>
   </g>
   <g id="patch_4">
    <path d="M 63 448.56 
L 453.6 448.56 
" style="fill: none; stroke: #000000; stroke-width: 0.8; stroke-linejoin: miter; stroke-linecap: square"/>
   </g>
   <g id="text_3">
    <!-- Signal -->
    <g transform="translate(210.37875 53.991375) scale(0.312 -0.312)">
     <defs>
      <path id="DejaVuSans-53" d="M 3425 4513 
L 3425 3897 
Q 3066 4069 2747 4153 
Q 2428 4238 2131 4238 
Q 1616 4238 1336 4038 
Q 1056 3838 1056 3469 
Q 1056 3159 1242 3001 
Q 1428 2844 1947 2747 
L 2328 2669 
Q 3034 2534 3370 2195 
Q 3706 1856 3706 1288 
Q 3706 609 3251 259 
Q 2797 -91 1919 -91 
Q 1588 -91 1214 -16 
Q 841 59 441 206 
L 441 856 
Q 825 641 1194 531 
Q 1563 422 1919 422 
Q 2459 422 2753 634 
Q 3047 847 3047 1241 
Q 3047 1584 2836 1778 
Q 2625 1972 2144 2069 
L 1759 2144 
Q 1053 2284 737 2584 
Q 422 2884 422 3419 
Q 422 4038 858 4394 
Q 1294 4750 2059 4750 
Q 2388 4750 2728 4690 
Q 3069 4631 3425 4513 
z
" transform="scale(0.015625)"/>
      <path id="DejaVuSans-69" d="M 603 3500 
L 1178 3500 
L 1178 0 
L 603 0 
L 603 3500 
z
M 603 4863 
L 1178 4863 
L 1178 4134 
L 603 4134 
L 603 4863 
z
" transform="scale(0.015625)"/>
      <path id="DejaVuSans-67" d="M 2906 1791 
Q 2906 2416 2648 2759 
Q 2391 3103 1925 3103 
Q 1463 3103 1205 2759 
Q 947 2416 947 1791 
Q 947 1169 1205 825 
Q 1463 481 1925 481 
Q 2391 481 2648 825 
Q 2906 1169 2906 1791 
z
M 3481 434 
Q 3481 -459 3084 -895 
Q 2688 -1331 1869 -1331 
Q 1566 -1331 1297 -1286 
Q 1028 -1241 775 -1147 
L 775 -588 
Q 1028 -725 1275 -790 
Q 1522 -856 1778 -856 
Q 2344 -856 2625 -561 
Q 2906 -266 2906 331 
L 2906 616 
Q 2728 306 2450 153 
Q 2172 0 1784 0 
Q 1141 0 747 490 
Q 353 981 353 1791 
Q 353 2603 747 3093 
Q 1141 3584 1784 3584 
Q 2172 3584 2450 3431 
Q 2728 3278 2906 2969 
L 2906 3500 
L 3481 3500 
L 3481 434 
z
" transform="scale(0.015625)"/>
      <path id="DejaVuSans-6e" d="M 3513 2113 
L 3513 0 
L 2938 0 
L 2938 2094 
Q 2938 2591 2744 2837 
Q 2550 3084 2163 3084 
Q 1697 3084 1428 2787 
Q 1159 2491 1159 1978 
L 1159 0 
L 581 0 
L 581 3500 
L 1159 3500 
L 1159 2956 
Q 1366 3272 1645 3428 
Q 1925 3584 2291 3584 
Q 2894 3584 3203 3211 
Q 3513 2838 3513 2113 
z
" transform="scale(0.015625)"/>
      <path id="DejaVuSans-61" d="M 2194 1759 
Q 1497 1759 1228 1600 
Q 959 1441 959 1056 
Q 959 750 1161 570 
Q 1363 391 1709 391 
Q 2188 391 2477 730 
Q 2766 1069 2766 1631 
L 2766 1759 
L 2194 1759 
z
M 3341 1997 
L 3341 0 
L 2766 0 
L 2766 531 
Q 2569 213 2275 61 
Q 1981 -91 1556 -91 
Q 1019 -91 701 211 
Q 384 513 384 1019 
Q 384 1609 779 1909 
Q 1175 2209 1959 2209 
L 2766 2209 
L 2766 2266 
Q 2766 2663 2505 2880 
Q 2244 3097 1772 3097 
Q 1472 3097 1187 3025 
Q 903 2953 641 2809 
L 641 3341 
Q 956 3463 1253 3523 
Q 1550 3584 1831 3584 
Q 2591 3584 2966 3190 
Q 3341 2797 3341 1997 
z
" transform="scale(0.015625)"/>
      <path id="DejaVuSans-6c" d="M 603 4863 
L 1178 4863 
L 1178 0 
L 603 0 
L 603 4863 
z
" transform="scale(0.015625)"/>
     </defs>
     <use xlink:href="#DejaVuSans-53"/>
     <use xlink:href="#DejaVuSans-69" transform="translate(63.476562 0)"/>
     <use xlink:href="#DejaVuSans-67" transform="translate(91.259766 0)"/>
     <use xlink:href="#DejaVuSans-6e" transform="translate(154.736328 0)"/>
     <use xlink:href="#DejaVuSans-61" transform="translate(218.115234 0)"/>
     <use xlink:href="#DejaVuSans-6c" transform="translate(279.394531 0)"/>
    </g>
   </g>
  </g>
 </g>
 <defs>
  <clipPath id="p97249c0ff0">
   <rect x="63" y="60.48" width="390.6" height="388.08"/>
  </clipPath>
 </defs>
</svg>
