<?xml version="1.0" encoding="UTF-8" standalone="no"?>
<!-- Created with Inkscape (http://www.inkscape.org/) -->

<svg
   version="1.1"
   id="svg1"
   width="463.52267"
   height="203.51733"
   viewBox="0 0 463.52267 203.51733"
   sodipodi:docname="shotnoise_eq.pdf"
   xmlns:inkscape="http://www.inkscape.org/namespaces/inkscape"
   xmlns:sodipodi="http://sodipodi.sourceforge.net/DTD/sodipodi-0.dtd"
   xmlns="http://www.w3.org/2000/svg"
   xmlns:svg="http://www.w3.org/2000/svg">
  <defs
     id="defs1" />
  <sodipodi:namedview
     id="namedview1"
     pagecolor="#ffffff"
     bordercolor="#000000"
     borderopacity="0.25"
     inkscape:showpageshadow="2"
     inkscape:pageopacity="0.0"
     inkscape:pagecheckerboard="0"
     inkscape:deskcolor="#d1d1d1">
    <inkscape:page
       x="0"
       y="0"
       inkscape:label="1"
       id="page1"
       width="463.52267"
       height="203.51733"
       margin="0"
       bleed="0" />
  </sodipodi:namedview>
  <g
     id="g1"
     inkscape:groupmode="layer"
     inkscape:label="1">
    <path
       id="path1"
       d="m -148.82074,0 v -134.64734 h 347.2484 V 0 Z"
       style="fill:none;stroke:#000000;stroke-width:0.3985;stroke-linecap:butt;stroke-linejoin:miter;stroke-miterlimit:10;stroke-dasharray:none;stroke-opacity:0"
       transform="matrix(1.3333333,0,0,-1.3333333,198.69067,23.724)" />
    <path
       id="path2"
       d="m 15.737273,-17.225391 c 0,-0.222656 -0.175781,-0.222656 -0.222656,-0.222656 -0.09375,0 -0.128906,0.02344 -0.421875,0.398438 -0.152344,0.175781 -1.160156,1.464843 -1.183594,1.488281 -0.820312,-1.617188 -2.460937,-1.886719 -3.503906,-1.886719 -3.1406248,0 -5.9999998,2.871094 -5.9999998,5.671875 0,1.8632814 1.125,2.9531251 2.3320312,3.3750001 0.28125,0.09375 1.734375,0.4921875 2.484375,0.6679688 1.2656246,0.3515625 1.5820316,0.4453125 2.1093746,0.9960937 0.09375,0.1171875 0.585938,0.6914063 0.585938,1.8515625 0,2.3085938 -2.1328126,4.68750002 -4.6054688,4.68750002 -2.0390625,0 -4.2890625,-0.86718752 -4.2890625,-3.64453122 0,-0.46875 0.09375,-1.0664063 0.1757812,-1.3125 0,-0.070312 0.023437,-0.1992188 0.023437,-0.2460938 0,-0.1054687 -0.046875,-0.2226562 -0.2460937,-0.2226562 -0.2226563,0 -0.2460938,0.046875 -0.3515625,0.46875 l -1.265625,5.08593747 c 0,0.0234375 -0.09375,0.33984375 -0.09375,0.36328125 0,0.22265625 0.1992187,0.22265625 0.2460937,0.22265625 0.09375,0 0.1289063,-0.0234375 0.421875,-0.38671875 L 3.0693047,-1.3582031 c 0.5976562,0.89062497 1.8867187,1.87499997 4.1953125,1.87499997 3.1992188,0 6.1171878,-3.09374997 6.1171878,-6.18749997 0,-1.0429688 -0.246094,-1.9570313 -1.183594,-2.8828125 -0.527344,-0.515625 -0.972656,-0.6445313 -3.2460938,-1.2304688 -1.6640625,-0.4453126 -1.8867188,-0.5273436 -2.3320313,-0.9257816 -0.421875,-0.421875 -0.75,-1.007812 -0.75,-1.851562 0,-2.085938 2.109375,-4.21875 4.4648441,-4.21875 2.425781,0 3.574218,1.488281 3.574218,3.84375 0,0.644531 -0.128906,1.3125 -0.128906,1.417969 0,0.222656 0.199219,0.222656 0.269531,0.222656 0.222657,0 0.246094,-0.08203 0.351563,-0.480469 z m 0,0"
       style="fill:#000000;fill-opacity:1;fill-rule:nonzero;stroke:none"
       aria-label="S"
       transform="matrix(1.3333333,0,0,1.3333333,83.224,30.1)" />
    <path
       id="path3"
       d="m 5.8464062,-2.9541172 c 0,-0.1054687 -0.082031,-0.1875 -0.2109375,-0.1875 -0.1875,0 -0.1992187,0.058594 -0.3046875,0.4101563 -0.5390625,1.88671871 -1.3828125,2.51953121 -2.0625,2.51953121 -0.2578125,0 -0.5390625,-0.0585938 -0.5390625,-0.6796875 0,-0.55078121 0.2460938,-1.17187501 0.46875,-1.79296871 l 1.453125,-3.84375 c 0.058594,-0.1640625 0.1992188,-0.5390625 0.1992188,-0.9257813 0,-0.8671875 -0.6210938,-1.6523437 -1.6289063,-1.6523437 -1.8984375,0 -2.6601562,2.9882812 -2.6601562,3.1523437 0,0.082031 0.0820313,0.1875 0.22265625,0.1875 0.1875,0 0.2109375,-0.082031 0.29296875,-0.375 0.4921875,-1.734375 1.2773437,-2.5546875 2.0859375,-2.5546875 0.1875,0 0.5390625,0.023437 0.5390625,0.6796875 0,0.5390625 -0.2695313,1.21875 -0.4335938,1.6757813 l -1.453125,3.84375 c -0.1171875,0.328125 -0.2460937,0.65625 -0.2460937,1.03125 0,0.92578121 0.6445312,1.67578121 1.6289062,1.67578121 1.8984375,0 2.6484375,-3.02343751 2.6484375,-3.16406251 z M 5.6823437,-12.891617 c 0,-0.316406 -0.2460937,-0.679688 -0.703125,-0.679688 -0.4804687,0 -1.0195312,0.445313 -1.0195312,0.984375 0,0.515625 0.4453125,0.691407 0.6914062,0.691407 0.5507813,0 1.03125,-0.539063 1.03125,-0.996094 z M 10.932344,0.08103906 c 0,-1.19531246 -0.398438,-2.08593746 -1.2421878,-2.08593746 -0.65625,0 -0.9960937,0.5390625 -0.9960937,0.9960937 0,0.44531251 0.3164062,1.0078125125 1.0195312,1.0078125125 0.2695313,0 0.4921873,-0.0820312525 0.6796873,-0.2695312525 0.03516,-0.0351563 0.05859,-0.0351563 0.08203,-0.0351563 0.04687,0 0.04687,0.28125 0.04687,0.38671875 0,0.6796875 -0.128906,2.02734379 -1.3242183,3.36328129 -0.234375,0.2578125 -0.234375,0.2929688 -0.234375,0.3398438 0,0.09375 0.1054688,0.1992187 0.2109375,0.1992187 0.1640625,0 1.7578128,-1.5234375 1.7578128,-3.90234379 z m 0,0"
       style="fill:#000000;fill-opacity:1;fill-rule:nonzero;stroke:none"
       aria-label="i,"
       transform="matrix(1.3333333,0,0,1.3333333,103.12667,36.778667)" />
    <text
       id="text3"
       xml:space="preserve"
       transform="matrix(1.3333333,0,0,1.3333333,119.82267,36.778667)"><tspan
         id="tspan3"
         style="font-variant:normal;font-weight:normal;font-size:20.6625px;font-family:'Latin Modern Roman';writing-mode:lr-tb;fill:#000000;fill-opacity:1;fill-rule:nonzero;stroke:none"
         x="0"
         y="0">sn</tspan></text>
    <path
       id="path4"
       d="m 15.936109,-7.9558594 c 0.375,0 0.738282,0 0.738282,-0.421875 0,-0.4453125 -0.421875,-0.4453125 -0.84375,-0.4453125 H 1.9790781 c -0.421875,0 -0.84375,0 -0.84375,0.4453125 0,0.421875 0.375,0.421875 0.75,0.421875 z m -0.105468,4.4179688 c 0.421875,0 0.84375,0 0.84375,-0.4570313 0,-0.4101562 -0.363282,-0.4101562 -0.738282,-0.4101562 H 1.8853281 c -0.375,0 -0.75,0 -0.75,0.4101562 0,0.4570313 0.421875,0.4570313 0.84375,0.4570313 z m 0,0"
       style="fill:#000000;fill-opacity:1;fill-rule:nonzero;stroke:none"
       aria-label="="
       transform="matrix(1.3333333,0,0,1.3333333,153.63467,30.1)" />
    <path
       id="path5"
       d="M 10.3358,-3.8425781 H 9.8904873 c -0.2460937,1.7578125 -0.4453125,2.0625 -0.5507812,2.203125 -0.1171875,0.1992187 -1.8984375,0.1992187 -2.25,0.1992187 H 2.3318936 c 0.890625,-0.9609375 2.625,-2.71875 4.734375,-4.7578125 1.5117187,-1.4296875 3.2695314,-3.1171875 3.2695314,-5.5781251 0,-2.917969 -2.3320314,-4.605469 -4.9335939,-4.605469 -2.7304688,0 -4.3828125,2.402344 -4.3828125,4.628907 0,0.972656 0.7148437,1.101562 1.0078125,1.101562 0.2578125,0 0.9960937,-0.152344 0.9960937,-1.019531 0,-0.773438 -0.6445312,-0.996094 -0.9960937,-0.996094 -0.140625,0 -0.2929688,0.02344 -0.3867188,0.08203 0.46875,-2.109375 1.8984375,-3.152343 3.4101563,-3.152343 2.15625,0 3.5742187,1.710937 3.5742187,3.960937 0,2.1562501 -1.265625,4.0195314 -2.671875,5.6250001 l -4.9335937,5.57812502 v 0.57421875 h 8.71875 z m 0,0"
       style="fill:#000000;fill-opacity:1;fill-rule:nonzero;stroke:none"
       aria-label="2"
       transform="matrix(1.3333333,0,0,1.3333333,186.57831,30.1)" />
    <path
       id="path6"
       d="m 4.4406953,-5.7527344 c 0.6679688,0 2.3554688,-0.046875 3.5390625,-0.4921875 1.8867188,-0.7148437 2.0625002,-2.15625 2.0625002,-2.6015625 0,-1.0898437 -0.9492189,-2.0859376 -2.5781252,-2.0859376 -2.6015625,0 -6.3515625,2.3554689 -6.3515625,6.7734376 0,2.6015625 1.4882813,4.40625002 3.75,4.40625002 3.3632813,0 5.4960937,-2.62500002 5.4960937,-2.95312502 0,-0.140625 -0.152344,-0.2695312 -0.246094,-0.2695312 -0.07031,0 -0.105468,0.023437 -0.3281247,0.2460937 -1.5820312,2.10937502 -3.9375,2.48437502 -4.875,2.48437502 -1.4179687,0 -2.15625,-1.11328122 -2.15625,-2.95312502 0,-0.3398437 0,-0.9609375 0.3632813,-2.5546875 z M 3.2453828,-6.2449219 c 1.0664063,-3.8203121 3.421875,-4.1835941 4.21875,-4.1835941 1.0898438,0 1.828125,0.6445316 1.828125,1.5820316 0,2.6015625 -3.9609375,2.6015625 -5.0039062,2.6015625 z m 0,0"
       style="fill:#000000;fill-opacity:1;fill-rule:nonzero;stroke:none"
       aria-label="e"
       transform="matrix(1.3333333,0,0,1.3333333,201.76267,30.1)" />
    <path
       id="path7"
       d="m 3.9376484,-17.694141 c 0,-0.445312 0,-0.890625 -0.4921875,-0.890625 -0.4921875,0 -0.4921875,0.445313 -0.4921875,0.890625 V 5.3097656 c 0,0.4453125 0,0.890625 0.4921875,0.890625 0.4921875,0 0.4921875,-0.4453125 0.4921875,-0.890625 z m 11.0800786,0.04687 c 0.117187,-0.269531 0.117187,-0.316406 0.117187,-0.445312 0,-0.269531 -0.222656,-0.492188 -0.492187,-0.492188 -0.222657,0 -0.398438,0.117188 -0.574219,0.5625 L 9.7325703,-6.6433594 c -0.046875,0.1523438 -0.1171875,0.3046875 -0.1171875,0.4453125 0,0.082031 0,0.1289063 0.1171875,0.421875 L 14.068508,5.6027344 c 0.105469,0.2695312 0.222656,0.5976562 0.574219,0.5976562 0.269531,0 0.492187,-0.2226562 0.492187,-0.5039062 0,-0.070312 0,-0.1171875 -0.117187,-0.3867188 L 10.623195,-6.1980469 Z m 0,0"
       style="fill:#000000;fill-opacity:1;fill-rule:nonzero;stroke:none"
       aria-label="|h"
       transform="matrix(1.3333333,0,0,1.3333333,222.26933,30.1)" />
    <path
       id="path8"
       d="m 9.1157734,-15.092578 c 0.2226563,-0.867188 0.28125,-1.113281 2.0859376,-1.113281 0.550781,0 0.738281,0 0.738281,-0.46875 0,-0.257813 -0.269531,-0.257813 -0.339844,-0.257813 -0.445312,0 -0.996093,0.05859 -1.441406,0.05859 H 7.1118672 c -0.4921875,0 -1.0664063,-0.05859 -1.5585938,-0.05859 -0.1992187,0 -0.46875,0 -0.46875,0.480469 0,0.246094 0.1875,0.246094 0.6914063,0.246094 1.5351562,0 1.5351562,0.199218 1.5351562,0.46875 0,0.175781 -0.046875,0.316406 -0.1054687,0.550781 L 3.8657734,-1.8386719 c -0.2226562,0.87890627 -0.2695312,1.12500002 -2.0859375,1.12500002 -0.5390625,0 -0.7617187,0 -0.7617187,0.46875 0,0.24609375 0.2460937,0.24609375 0.3632812,0.24609375 0.4570313,0 0.9960938,-0.046875 1.4414063,-0.046875 h 3.046875 c 0.5039062,0 1.0429687,0.046875 1.5351562,0.046875 0.1992188,0 0.5039063,0 0.5039063,-0.4453125 0,-0.26953125 -0.1523438,-0.26953125 -0.703125,-0.26953125 -1.5351563,0 -1.5351563,-0.19921875 -1.5351563,-0.50390622 0,-0.046875 0,-0.1640625 0.1054688,-0.5625 z m 0,0"
       style="fill:#000000;fill-opacity:1;fill-rule:nonzero;stroke:none"
       aria-label="I"
       transform="matrix(1.3333333,0,0,1.3333333,244.30267,30.1)" />
    <path
       id="path9"
       d="m 6.760625,-5.7761719 c 0.1289063,-0.2929687 0.1289063,-0.3398437 0.1289063,-0.421875 0,-0.070312 0,-0.1171875 -0.1289063,-0.421875 L 2.4246875,-18.022266 c -0.140625,-0.421875 -0.2929687,-0.5625 -0.5625,-0.5625 -0.28125,0 -0.5039062,0.222657 -0.5039062,0.492188 0,0.07031 0,0.128906 0.1289062,0.398437 L 5.87,-6.1980469 1.4871875,5.2511719 c -0.1289062,0.28125 -0.1289062,0.328125 -0.1289062,0.4453125 0,0.28125 0.2226562,0.5039062 0.5039062,0.5039062 0.3164063,0 0.421875,-0.2460937 0.515625,-0.5039062 z m 6.817383,-11.9179691 c 0,-0.445312 0,-0.890625 -0.492188,-0.890625 -0.492187,0 -0.492187,0.445313 -0.492187,0.890625 V 5.3097656 c 0,0.4453125 0,0.890625 0.492187,0.890625 0.492188,0 0.492188,-0.4453125 0.492188,-0.890625 z m 0,0"
       style="fill:#000000;fill-opacity:1;fill-rule:nonzero;stroke:none"
       aria-label="i|"
       transform="matrix(1.3333333,0,0,1.3333333,261.17333,30.1)" />
    <path
       id="path10"
       d="m 7.3595078,-8.0730469 h 2.3789063 c 1.8867189,0 2.0390629,0.4101563 2.0390629,1.1367188 0,0.3164062 -0.05859,0.6679687 -0.175782,1.2070312 -0.04687,0.1054688 -0.08203,0.2226563 -0.08203,0.28125 0,0.1757813 0.105469,0.2695313 0.28125,0.2695313 0.199219,0 0.222656,-0.09375 0.316406,-0.4921875 l 1.441407,-5.7773439 c 0,-0.105469 -0.07031,-0.246094 -0.246094,-0.246094 -0.222656,0 -0.246094,0.09375 -0.351563,0.515625 -0.515625,1.8632816 -1.019531,2.3789066 -3.1757809,2.3789066 h -2.25 l 1.6054687,-6.4218746 c 0.2226563,-0.867188 0.28125,-0.9375 1.2890622,-0.9375 h 3.328125 c 3.09375,0 3.539063,0.914062 3.539063,2.671875 0,0.152343 0,0.703125 -0.07031,1.347656 -0.02344,0.09375 -0.07031,0.421875 -0.07031,0.515625 0,0.199219 0.117187,0.269531 0.269531,0.269531 0.175781,0 0.269531,-0.09375 0.316406,-0.539062 l 0.527344,-4.335938 c 0,-0.08203 0.04687,-0.328125 0.04687,-0.375 0,-0.269531 -0.222656,-0.269531 -0.667969,-0.269531 H 5.8946641 c -0.46875,0 -0.7148438,0 -0.7148438,0.445312 0,0.269532 0.1757813,0.269532 0.5976563,0.269532 1.5351562,0 1.5351562,0.175781 1.5351562,0.445312 0,0.128906 -0.023437,0.222656 -0.1054687,0.492188 L 3.8673203,-1.8386719 c -0.2226562,0.87890627 -0.2695312,1.12500002 -2.0039062,1.12500002 -0.4804688,0 -0.7265625,0 -0.7265625,0.4453125 0,0.26953125 0.2226562,0.26953125 0.375,0.26953125 0.46875,0 0.9726562,-0.046875 1.4414062,-0.046875 h 3.2226563 c 0.5390625,0 1.1367187,0.046875 1.6757812,0.046875 0.2226563,0 0.5273438,0 0.5273438,-0.4453125 0,-0.26953125 -0.1523438,-0.26953125 -0.6914063,-0.26953125 -1.9570312,0 -2.015625,-0.17578125 -2.015625,-0.55078122 0,-0.1171875 0.058594,-0.3164063 0.1054688,-0.4921875 z m 0,0"
       style="fill:#000000;fill-opacity:1;fill-rule:nonzero;stroke:none"
       aria-label="F"
       transform="matrix(1.3333333,0,0,1.3333333,288.71467,30.1)" />
    <path
       id="path11"
       d="M 40.81946,-14.17339 C 40.81944,-61.6055 -62.77145,-24.82253 -71.92351,-64.81438"
       style="fill:none;stroke:#000000;stroke-width:0.79701;stroke-linecap:butt;stroke-linejoin:miter;stroke-miterlimit:10;stroke-dasharray:none;stroke-opacity:0"
       transform="matrix(1.3333333,0,0,-1.3333333,198.69067,23.724)" />
    <path
       id="path12"
       d="M 4.53381,0 C 3.97704,0.13808 1.52963,0.92049 0,1.77196 V -1.77196 C 1.52963,-0.92049 3.97704,-0.13808 4.53381,0 Z"
       style="fill:#000000;fill-opacity:0;fill-rule:nonzero;stroke:#000000;stroke-width:0.79701;stroke-linecap:butt;stroke-linejoin:miter;stroke-miterlimit:10;stroke-dasharray:none;stroke-opacity:0"
       transform="matrix(-0.15061333,1.3247333,1.3247333,0.15061333,102.86396,110.0306)" />
    <path
       id="path13"
       d="M 10.429734,13.229484 1.6406719,24.116203 c -0.1992188,0.246094 -0.2226563,0.292969 -0.2226563,0.398438 0,0.269531 0.2226563,0.269531 0.6679688,0.269531 H 22.628953 l 2.132813,-6.175781 h -0.621094 c -0.621094,1.863281 -2.285156,3.375 -4.382813,4.089843 -0.398437,0.128907 -2.109375,0.726563 -5.753906,0.726563 H 3.4687969 L 12.070359,12.784172 c 0.175782,-0.222656 0.222657,-0.292969 0.222657,-0.386719 0,-0.105469 -0.02344,-0.128906 -0.175782,-0.351562 L 4.0664531,0.99510937 h 9.8085939 c 2.835937,0 8.53125,0.16406253 10.265625,4.80468753 h 0.621094 L 22.628953,-9.84375e-4 H 2.0859844 c -0.6679688,0 -0.703125,0.023437495 -0.703125,0.796874995 z m 0,0"
       style="fill:#000000;fill-opacity:0;fill-rule:nonzero;stroke:none"
       aria-label="P"
       transform="matrix(1.3333333,0,0,1.3333333,8.164,124.056)" />
    <path
       id="path14"
       d="m 5.8018672,-13.816125 c 0.023437,-0.08203 0.070312,-0.210938 0.070312,-0.316406 0,-0.210938 -0.2109375,-0.210938 -0.2460938,-0.210938 -0.023437,0 -0.7734375,0.07031 -1.1367187,0.105469 -0.3515625,0.02344 -0.6679688,0.07031 -1.0429688,0.08203 -0.4921875,0.04687 -0.6328125,0.07031 -0.6328125,0.433594 0,0.210937 0.1992188,0.210937 0.4101563,0.210937 1.0546875,0 1.0546875,0.1875 1.0546875,0.386719 0,0.09375 0,0.128906 -0.1054688,0.503906 l -2.953125,11.8125005 c -0.082031,0.31640625 -0.082031,0.3515625 -0.082031,0.48046875 0,0.45703125 0.3515625,0.5390625 0.5625,0.5390625 0.5742187,0 0.703125,-0.45703125 0.8671875,-1.1015625 L 3.5284297,-4.7458125 c 1.4882812,0.1640625 2.3789062,0.7851563 2.3789062,1.7695313 0,0.1289062 0,0.2109375 -0.058594,0.515625 -0.082031,0.3164062 -0.082031,0.5625 -0.082031,0.6679687 0,1.1953125 0.7851563,2.00390625 1.8398438,2.00390625 0.9492187,0 1.4414062,-0.8671875 1.6054687,-1.16015625 0.4335938,-0.7617187 0.703125,-1.921875 0.703125,-2.0039062 0,-0.1054688 -0.082031,-0.1875 -0.1992187,-0.1875 -0.1875,0 -0.2109375,0.082031 -0.2929688,0.4101562 -0.2929687,1.078125 -0.7265625,2.51953125 -1.78125,2.51953125 -0.4101562,0 -0.6796875,-0.19921875 -0.6796875,-0.98437495 0,-0.3984375 0.082031,-0.8554688 0.1640625,-1.1601563 0.082031,-0.375 0.082031,-0.3867187 0.082031,-0.6445312 0,-1.21875 -1.0898438,-1.8984375 -2.9882813,-2.1445313 0.7382813,-0.4570312 1.4882813,-1.265625 1.7695313,-1.5703125 1.1835937,-1.3242188 1.9921875,-1.9804688 2.9414062,-1.9804688 0.46875,0 0.5976563,0.1171875 0.7382813,0.2460938 -0.7617188,0.082031 -1.0546875,0.6210938 -1.0546875,1.03125 0,0.4921875 0.3984375,0.65625 0.6796875,0.65625 0.5625,0 1.0546876,-0.46875 1.0546876,-1.125 0,-0.609375 -0.4687501,-1.21875 -1.4062501,-1.21875 -1.1367188,0 -2.0625,0.796875 -3.5273438,2.4492188 -0.2109375,0.2460937 -0.9726562,1.03125 -1.734375,1.3242187 z m 0,0"
       style="fill:#000000;fill-opacity:0;fill-rule:nonzero;stroke:none"
       aria-label="k"
       transform="matrix(1.3333333,0,0,1.3333333,43.049333,158.484)" />
    <path
       id="path15"
       d="m 7.1121172,-9.3400312 h 4.1132808 c 0.328125,0 1.136719,0 1.136719,-0.7968748 0,-0.550781 -0.46875,-0.550781 -0.914062,-0.550781 H 4.6394609 c -0.5742187,0 -1.4179687,0 -2.5546875,1.2187495 -0.6445312,0.7148438 -1.44140621,2.0273438 -1.44140621,2.1796875 0,0.1523438 0.12890625,0.1992188 0.26953125,0.1992188 0.17578126,0 0.19921876,-0.070312 0.32812496,-0.2226563 1.2890625,-2.0273437 2.578125,-2.0273437 3.1992188,-2.0273437 h 2.0507812 l -2.578125,8.4960937 c -0.1171875,0.375 -0.1171875,0.421875 -0.1171875,0.4921875 0,0.28125 0.1640625,0.62109375 0.6679688,0.62109375 0.7617187,0 0.890625,-0.66796875 0.9609375,-1.04296875 z m 0,0"
       style="fill:#000000;fill-opacity:0;fill-rule:nonzero;stroke:none"
       aria-label="τ"
       transform="matrix(1.3333333,0,0,1.3333333,64.177333,148.844)" />
    <path
       id="path16"
       d="m 5.8006328,-13.815094 c 0.023437,-0.08203 0.070312,-0.210937 0.070312,-0.316406 0,-0.210938 -0.2109375,-0.210938 -0.2460937,-0.210938 -0.023437,0 -0.7734375,0.07031 -1.1367188,0.105469 -0.3515625,0.02344 -0.6679687,0.07031 -1.0429687,0.08203 -0.4921875,0.04687 -0.6328125,0.07031 -0.6328125,0.433594 0,0.210938 0.1992187,0.210938 0.4101562,0.210938 1.0546875,0 1.0546875,0.1875 1.0546875,0.386718 0,0.09375 0,0.128907 -0.1054687,0.503907 l -2.953125,11.81249975 c -0.082031,0.31640625 -0.082031,0.3515625 -0.082031,0.48046875 0,0.45703125 0.3515625,0.5390625 0.5625,0.5390625 0.5742188,0 0.703125,-0.45703125 0.8671875,-1.1015625 l 0.9609375,-3.8554688 c 1.4882813,0.1640625 2.3789063,0.7851563 2.3789063,1.7695313 0,0.1289062 0,0.2109375 -0.058594,0.515625 -0.082031,0.3164062 -0.082031,0.5625 -0.082031,0.6679687 0,1.19531255 0.7851562,2.0039063 1.8398437,2.0039063 0.9492188,0 1.4414063,-0.8671875 1.6054688,-1.16015625 0.4335937,-0.76171875 0.703125,-1.92187505 0.703125,-2.00390625 0,-0.1054688 -0.082031,-0.1875 -0.1992188,-0.1875 -0.1875,0 -0.2109375,0.082031 -0.2929687,0.4101562 -0.2929688,1.078125 -0.7265625,2.5195313 -1.78125,2.5195313 -0.4101563,0 -0.6796875,-0.19921875 -0.6796875,-0.984375 0,-0.3984375 0.082031,-0.8554688 0.1640625,-1.1601563 0.082031,-0.375 0.082031,-0.3867187 0.082031,-0.6445312 0,-1.21875 -1.0898437,-1.8984375 -2.9882812,-2.1445313 C 4.9568828,-5.60025 5.7068828,-6.4088438 5.9881328,-6.7135313 7.1717266,-8.03775 7.9803203,-8.694 8.9295391,-8.694 c 0.46875,0 0.5976562,0.1171875 0.7382812,0.2460937 -0.7617187,0.082031 -1.0546875,0.6210938 -1.0546875,1.03125 0,0.4921875 0.3984375,0.65625 0.6796875,0.65625 0.5625,0 1.0546877,-0.46875 1.0546877,-1.125 0,-0.609375 -0.4687502,-1.21875 -1.4062502,-1.21875 -1.1367187,0 -2.0625,0.796875 -3.5273437,2.4492188 -0.2109375,0.2460937 -0.9726563,1.03125 -1.734375,1.3242187 z m 0,0"
       style="fill:#000000;fill-opacity:0;fill-rule:nonzero;stroke:none"
       aria-label="k"
       transform="matrix(1.3333333,0,0,1.3333333,78.230667,156.592)" />
    <path
       id="path17"
       d="m 18.49093,-17.22675 c 0,-0.222656 -0.175782,-0.222656 -0.222657,-0.222656 -0.04687,0 -0.152343,0 -0.351562,0.246094 l -1.710938,2.0625 c -0.117187,-0.199219 -0.621093,-1.066407 -1.582031,-1.640625 -1.066406,-0.667969 -2.132812,-0.667969 -2.507812,-0.667969 -5.2968753,0 -10.8750003,5.402344 -10.8750003,11.2499998 0,4.0898437 2.8242187,6.7148437 6.5390625,6.7148437 1.78125,0 4.0429688,-0.5859375 5.2851558,-2.15625 0.269532,0.94921875 0.808594,1.6171875 0.984375,1.6171875 0.128907,0 0.152344,-0.0703125 0.175782,-0.0703125 0.02344,-0.05859375 0.222656,-0.9257812 0.351562,-1.3710937 l 0.386719,-1.5820313 c 0.199219,-0.8203125 0.304687,-1.171875 0.480469,-1.9101562 0.246093,-0.9375 0.292968,-1.0195313 1.652343,-1.0429688 0.105469,0 0.398438,0 0.398438,-0.46875 0,-0.2460937 -0.246094,-0.2460937 -0.316406,-0.2460937 -0.421875,0 -0.890625,0.046875 -1.347657,0.046875 h -1.335937 c -1.042969,0 -2.132813,-0.046875 -3.140625,-0.046875 -0.222656,0 -0.527344,0 -0.527344,0.4453125 0,0.2460937 0.199219,0.2460937 0.199219,0.2695312 h 0.621094 c 1.957031,0 1.957031,0.1992188 1.957031,0.5742188 0,0.023437 -0.46875,2.53125 -0.9375,3.2695312 -0.949219,1.3828125 -2.9062501,1.95703125 -4.3593751,1.95703125 -1.9101562,0 -5.015625,-0.99609375 -5.015625,-5.27343745 0,-1.6640625 0.5976563,-5.4609373 3,-8.2617183 1.5585938,-1.78125 3.8671871,-3 6.0468751,-3 2.929687,0 3.972656,2.507812 3.972656,4.792968 0,0.386719 -0.105469,0.9375 -0.105469,1.289063 0,0.222656 0.246094,0.222656 0.328125,0.222656 0.269532,0 0.292969,-0.03516 0.398438,-0.480469 z m 0,0"
       style="fill:#000000;fill-opacity:0;fill-rule:nonzero;stroke:none"
       aria-label="G"
       transform="matrix(1.3333333,0,0,1.3333333,93.849333,148.844)" />
    <path
       id="path18"
       d="m 8.672125,-6.63275 c 0,-1.2539063 -0.011719,-3.410156 -0.8789062,-5.0625 -0.7734375,-1.441406 -1.9921875,-1.957031 -3.0585938,-1.957031 -0.9960937,0 -2.25,0.445312 -3.0351562,1.933593 -0.8320313,1.558594 -0.91406255,3.4804692 -0.91406255,5.085938 0,1.1835937 0.0234375,2.9765625 0.65625005,4.546875 0.890625,2.1328125 2.484375,2.4140625 3.2929687,2.4140625 0.9492188,0 2.390625,-0.38671875 3.2460938,-2.3554688 C 8.5900938,-3.44525 8.672125,-5.1210313 8.672125,-6.63275 Z M 4.734625,6.25e-5 c -1.3242187,0 -2.109375,-1.1367188 -2.4023437,-2.7070313 -0.2226563,-1.21875 -0.2226563,-3 -0.2226563,-4.1484375 0,-1.59375 0,-2.9179687 0.2695313,-4.1718747 0.3867187,-1.757813 1.546875,-2.296875 2.3554687,-2.296875 0.84375,0 1.9335938,0.550781 2.3320313,2.25 0.2695312,1.1835935 0.2929687,2.566406 0.2929687,4.2187497 0,1.3359375 0,2.9882813 -0.2578125,4.2070313 C 6.6682188,-0.38665625 5.4494688,6.25e-5 4.734625,6.25e-5 Z m 0,0"
       style="fill:#000000;fill-opacity:0;fill-rule:nonzero;stroke:none"
       aria-label="0"
       transform="matrix(1.3333333,0,0,1.3333333,119.37467,155.21867)" />
    <path
       id="path19"
       d="m 15.34068,-14.179875 c 0.84375,-1.335937 1.617187,-1.933594 2.882812,-2.027344 0.246094,-0.02344 0.445313,-0.02344 0.445313,-0.46875 0,-0.105468 -0.05859,-0.257812 -0.28125,-0.257812 -0.445313,0 -1.511719,0.05859 -1.957032,0.05859 -0.714843,0 -1.464843,-0.05859 -2.15625,-0.05859 -0.199218,0 -0.445312,0 -0.445312,0.480469 0,0.222656 0.222656,0.246093 0.328125,0.246093 0.914062,0.07031 1.007812,0.515625 1.007812,0.820313 0,0.363281 -0.339843,0.9375 -0.363281,0.960937 L 7.0203672,-2.086125 5.2742734,-15.4455 c 0,-0.714844 1.2890625,-0.761719 1.5703125,-0.761719 0.3632813,0 0.5976563,0 0.5976563,-0.46875 0,-0.257812 -0.28125,-0.257812 -0.3515625,-0.257812 -0.421875,0 -0.9140625,0.05859 -1.3359375,0.05859 H 4.3602109 c -1.8046875,0 -2.5546875,-0.05859 -2.578125,-0.05859 -0.140625,0 -0.4453125,0 -0.4453125,0.457031 0,0.269531 0.1757813,0.269531 0.5742188,0.269531 1.265625,0 1.3359375,0.222657 1.40625,0.84375 L 5.3094297,-0.0705 c 0.070312,0.515625 0.070312,0.5859375 0.421875,0.5859375 0.2929687,0 0.421875,-0.0703125 0.6679687,-0.46875 z m 0,0"
       style="fill:#000000;fill-opacity:0;fill-rule:nonzero;stroke:none"
       aria-label="V"
       transform="matrix(1.3333333,0,0,1.3333333,132.67467,148.844)" />
    <text
       id="text19"
       xml:space="preserve"
       transform="matrix(1.3333333,0,0,1.3333333,151.54,156.58)"><tspan
         id="tspan19"
         style="font-variant:normal;font-weight:normal;font-size:20.6625px;font-family:'Latin Modern Roman';writing-mode:lr-tb;fill:#000000;fill-opacity:0;fill-rule:nonzero;stroke:none"
         x="0"
         y="0">bias</tspan></text>
    <path
       id="path20"
       d="m 77.6704,-14.17339 c -2e-5,-29.18585 49.00453,-25.97241 55.89282,-50.60408"
       style="fill:none;stroke:#000000;stroke-width:0.79701;stroke-linecap:butt;stroke-linejoin:miter;stroke-miterlimit:10;stroke-dasharray:none;stroke-opacity:0"
       transform="matrix(1.3333333,0,0,-1.3333333,198.69067,23.724)" />
    <path
       id="path21"
       d="M 4.53381,0 C 3.97704,0.13808 1.52963,0.92049 0,1.77196 V -1.77196 C 1.52963,-0.92049 3.97704,-0.13808 4.53381,0 Z"
       style="fill:#000000;fill-opacity:0;fill-rule:nonzero;stroke:#000000;stroke-width:0.79701;stroke-linecap:butt;stroke-linejoin:miter;stroke-miterlimit:10;stroke-dasharray:none;stroke-opacity:0"
       transform="matrix(0.18522667,1.3204,1.3204,-0.18522667,376.6986,110.05737)" />
    <path
       id="path22"
       d="m 8.6956172,11.026359 -7.3359375,9.070313 c -0.1640625,0.210937 -0.1875,0.257812 -0.1875,0.339844 0,0.222656 0.1875,0.222656 0.5625,0.222656 H 18.867492 l 1.769531,-5.144531 h -0.515625 c -0.515625,1.546875 -1.898437,2.8125 -3.65625,3.410156 -0.328125,0.105469 -1.757812,0.597656 -4.792968,0.597656 H 2.8948359 l 7.1718751,-8.859375 c 0.140625,-0.1875 0.175781,-0.246094 0.175781,-0.328125 0,-0.09375 -0.01172,-0.105469 -0.140625,-0.292969 L 3.3870234,0.83104687 h 8.1796876 c 2.355469,0 7.113281,0.140625 8.554687,4.00781253 h 0.515625 L 18.867492,-9.84375e-4 H 1.7346797 c -0.5625,0 -0.5742188,0.023437495 -0.5742188,0.656249995 z m 0,0"
       style="fill:#000000;fill-opacity:0;fill-rule:nonzero;stroke:none"
       aria-label="P"
       transform="matrix(1.3333333,0,0,1.3333333,302.816,124.056)" />
    <path
       id="path23"
       d="m 4.8387422,-11.520102 c 0.011719,-0.07031 0.046875,-0.164062 0.046875,-0.257812 0,-0.164063 -0.1640625,-0.164063 -0.1992188,-0.164063 -0.023437,0 -0.6445312,0.04687 -0.9492187,0.08203 -0.2929688,0.01172 -0.5507813,0.04687 -0.8671875,0.07031 -0.4101563,0.03516 -0.5273438,0.04687 -0.5273438,0.363281 0,0.164063 0.1640625,0.164063 0.3398438,0.164063 0.8789062,0 0.8789062,0.152344 0.8789062,0.328125 0,0.07031 0,0.105469 -0.082031,0.410156 l -2.4609375,9.85546894 c -0.0703125,0.2578125 -0.0703125,0.29296875 -0.0703125,0.38671875 0,0.38671875 0.2929687,0.45703125 0.4570312,0.45703125 0.4921875,0 0.5859375,-0.38671875 0.7265625,-0.9140625 L 2.9403047,-3.9615078 c 1.2421875,0.140625 1.9804687,0.65625 1.9804687,1.4765625 0,0.1054687 0,0.1757812 -0.046875,0.4335937 -0.070312,0.2578125 -0.070312,0.46875 -0.070312,0.5507813 0,0.99609374 0.65625,1.67578124 1.5351563,1.67578124 0.7851562,0 1.1953125,-0.7265625 1.3359375,-0.97265625 0.3632812,-0.63281249 0.5859375,-1.59374999 0.5859375,-1.66406249 0,-0.082031 -0.070312,-0.1523438 -0.1757813,-0.1523438 -0.1523437,0 -0.1640625,0.070312 -0.234375,0.3398438 -0.2460937,0.890625 -0.609375,2.09765624 -1.4765625,2.09765624 -0.3515625,0 -0.5742187,-0.1640625 -0.5742187,-0.8203125 0,-0.32812504 0.070312,-0.70312504 0.140625,-0.96093754 0.070312,-0.3164062 0.070312,-0.328125 0.070312,-0.5390625 0,-1.0195312 -0.9140625,-1.5820312 -2.4960938,-1.7929687 0.6210938,-0.375 1.2304688,-1.0429688 1.4765625,-1.3007813 0.984375,-1.1015625 1.6523438,-1.6523437 2.4492188,-1.6523437 0.3867187,0 0.4921875,0.09375 0.609375,0.1992187 -0.6328125,0.070312 -0.8671875,0.515625 -0.8671875,0.8671875 0,0.4101563 0.3164062,0.5507813 0.5625,0.5507813 0.46875,0 0.8789062,-0.3984375 0.8789062,-0.9492188 0,-0.5039062 -0.3984375,-1.0195312 -1.171875,-1.0195312 -0.9492187,0 -1.7226562,0.6679687 -2.9414062,2.0507812 -0.1757813,0.2109375 -0.8085938,0.8554688 -1.453125,1.1015625 z m 0,0"
       style="fill:#000000;fill-opacity:0;fill-rule:nonzero;stroke:none"
       aria-label="k"
       transform="matrix(1.3333333,0,0,1.3333333,331.896,152.75467)" />
    <path
       id="path24"
       d="m 5.9306484,-7.7929063 h 3.4335938 c 0.2695312,0 0.9492188,0 0.9492188,-0.65625 0,-0.4570312 -0.3984376,-0.4570312 -0.7617188,-0.4570312 H 3.8681484 c -0.4804687,0 -1.1835937,0 -2.1328125,1.0195312 -0.5390625,0.5976563 -1.19531246,1.6875 -1.19531246,1.8164063 0,0.1171875 0.10546875,0.1640625 0.22265625,0.1640625 0.15234375,0 0.1640625,-0.070312 0.26953121,-0.1875 1.078125,-1.6992188 2.15625,-1.6992188 2.671875,-1.6992188 H 5.4150234 L 3.2704922,-0.7030625 C 3.1650234,-0.38665625 3.1650234,-0.3515 3.1650234,-0.29290625 c 0,0.234375 0.140625,0.515625 0.5507813,0.515625 0.6445312,0 0.75,-0.55078125 0.8085937,-0.8671875 z m 0,0"
       style="fill:#000000;fill-opacity:0;fill-rule:nonzero;stroke:none"
       aria-label="τ"
       transform="matrix(1.3333333,0,0,1.3333333,349.612,144.71867)" />
    <path
       id="path25"
       d="m 4.8409375,-11.520555 c 0.011719,-0.07031 0.046875,-0.164062 0.046875,-0.257812 0,-0.164063 -0.1640625,-0.164063 -0.1992187,-0.164063 -0.023437,0 -0.6445313,0.04687 -0.9492188,0.08203 -0.2929687,0.01172 -0.5507812,0.04687 -0.8671875,0.07031 -0.4101562,0.03516 -0.5273437,0.04687 -0.5273437,0.363281 0,0.164063 0.1640625,0.164063 0.3398437,0.164063 0.8789063,0 0.8789063,0.152344 0.8789063,0.328125 0,0.07031 0,0.105469 -0.082031,0.410156 L 1.020625,-0.66899219 c -0.0703125,0.2578125 -0.0703125,0.29296875 -0.0703125,0.38671875 0,0.38671875 0.2929688,0.45703125 0.4570313,0.45703125 0.4921875,0 0.5859375,-0.38671875 0.7265625,-0.9140625 L 2.9425,-3.9619609 c 1.2421875,0.140625 1.9804688,0.65625 1.9804688,1.4765625 0,0.1054687 0,0.1757812 -0.046875,0.4335937 -0.070312,0.2578125 -0.070312,0.46875 -0.070312,0.5507813 0,0.99609371 0.65625,1.67578121 1.5351562,1.67578121 0.7851563,0 1.1953125,-0.7265625 1.3359375,-0.97265625 C 8.0401568,-1.4307109 8.262813,-2.3916484 8.262813,-2.4619609 c 0,-0.082031 -0.070312,-0.1523438 -0.1757812,-0.1523438 -0.1523438,0 -0.1640625,0.070312 -0.234375,0.3398438 -0.2460938,0.890625 -0.609375,2.09765621 -1.4765625,2.09765621 -0.3515625,0 -0.5742188,-0.1640625 -0.5742188,-0.8203125 0,-0.32812501 0.070312,-0.70312501 0.140625,-0.96093751 0.070312,-0.3164062 0.070312,-0.328125 0.070312,-0.5390625 0,-1.0195312 -0.9140625,-1.5820312 -2.4960937,-1.7929687 0.6210937,-0.375 1.2304687,-1.0429688 1.4765625,-1.3007813 0.984375,-1.1015625 1.6523437,-1.6523437 2.4492187,-1.6523437 0.3867188,0 0.4921875,0.09375 0.609375,0.1992187 -0.6328125,0.070312 -0.8671875,0.515625 -0.8671875,0.8671875 0,0.4101563 0.3164063,0.5507813 0.5625,0.5507813 0.46875,0 0.8789063,-0.3984375 0.8789063,-0.9492188 0,-0.5039062 -0.3984375,-1.0195312 -1.171875,-1.0195312 -0.9492188,0 -1.7226563,0.6679687 -2.9414063,2.0507812 -0.1757812,0.2109375 -0.8085937,0.8554688 -1.453125,1.1015625 z m 0,0"
       style="fill:#000000;fill-opacity:0;fill-rule:nonzero;stroke:none"
       aria-label="k"
       transform="matrix(1.3333333,0,0,1.3333333,361.32667,151.16933)" />
    <path
       id="path26"
       d="m 6.3153203,5.039125 c 0,-0.023437 0,-0.058594 -0.058594,-0.1171875 C 5.3075078,3.9492812 2.7645391,1.3008437 2.7645391,-5.1444688 c 0,-6.4453122 2.5078125,-9.0703122 3.515625,-10.1015622 0,-0.02344 0.035156,-0.05859 0.035156,-0.128907 0,-0.05859 -0.058594,-0.09375 -0.140625,-0.09375 -0.2226562,0 -1.9804687,1.523438 -2.9882812,3.796875 -1.0429688,2.2968755 -1.3242188,4.523438 -1.3242188,6.5039067 0,1.4882813 0.140625,4.0078125 1.3828125,6.6796875 0.984375,2.1445313 2.6835938,3.65625 2.9296875,3.65625 0.1054688,0 0.140625,-0.046875 0.1406252,-0.1289062 z m 6.4980467,-18.246094 c 0,-0.433594 -0.02344,-0.445312 -0.304687,-0.445312 -0.808594,0.972656 -2.027344,1.277343 -3.1875003,1.3125 -0.058594,0 -0.1640625,0 -0.1875,0.04687 -0.023437,0.04687 -0.023437,0.08203 -0.023437,0.515625 0.6445312,0 1.7226563,-0.117188 2.5429693,-0.621094 v 10.8867187 c 0,0.72656255 -0.03516,0.9726563 -1.8164068,0.9726563 H 9.2157109 V 6.25e-5 c 0.9960941,-0.0234375 2.0273441,-0.046875 3.0234371,-0.046875 0.984375,0 2.015625,0.0234375 3.011719,0.046875 V -0.539 h -0.621094 c -1.78125,0 -1.816406,-0.22265625 -1.816406,-0.9726563 z m 0,0"
       style="fill:#000000;fill-opacity:0;fill-rule:nonzero;stroke:none"
       aria-label="(1"
       transform="matrix(1.3333333,0,0,1.3333333,374.45067,144.71867)" />
    <path
       id="path27"
       d="m 13.618,-4.7460313 c 0.351562,0 0.726562,0 0.726562,-0.421875 0,-0.4101562 -0.375,-0.4101562 -0.726562,-0.4101562 H 2.4383125 c -0.3515625,0 -0.7265625,0 -0.7265625,0.4101562 0,0.421875 0.375,0.421875 0.7265625,0.421875 z m 0,0"
       style="fill:#000000;fill-opacity:0;fill-rule:nonzero;stroke:none"
       aria-label="−"
       transform="matrix(1.3333333,0,0,1.3333333,396.84267,144.71867)" />
    <path
       id="path28"
       d="m 5.9288359,-7.7929063 h 3.4335938 c 0.2695312,0 0.9492183,0 0.9492183,-0.65625 0,-0.4570312 -0.3984371,-0.4570312 -0.7617183,-0.4570312 H 3.8663359 c -0.4804687,0 -1.1835937,0 -2.1328125,1.0195312 -0.5390625,0.5976563 -1.19531246,1.6875 -1.19531246,1.8164063 0,0.1171875 0.10546875,0.1640625 0.22265625,0.1640625 0.15234375,0 0.1640625,-0.070312 0.26953121,-0.1875 1.078125,-1.6992188 2.15625,-1.6992188 2.671875,-1.6992188 H 5.4132109 L 3.2686797,-0.7030625 C 3.1632109,-0.38665625 3.1632109,-0.3515 3.1632109,-0.29290625 c 0,0.234375 0.140625,0.515625 0.5507813,0.515625 0.6445312,0 0.75,-0.55078125 0.8085937,-0.8671875 z m 0,0"
       style="fill:#000000;fill-opacity:0;fill-rule:nonzero;stroke:none"
       aria-label="τ"
       transform="matrix(1.3333333,0,0,1.3333333,418.27067,144.71867)" />
    <path
       id="path29"
       d="m 4.839125,-11.520555 c 0.011719,-0.07031 0.046875,-0.164062 0.046875,-0.257812 0,-0.164063 -0.1640625,-0.164063 -0.1992187,-0.164063 -0.023437,0 -0.6445313,0.04687 -0.9492188,0.08203 -0.2929687,0.01172 -0.5507812,0.04687 -0.8671875,0.07031 -0.4101562,0.03516 -0.5273437,0.04687 -0.5273437,0.363281 0,0.164063 0.1640625,0.164063 0.3398437,0.164063 0.8789063,0 0.8789063,0.152344 0.8789063,0.328125 0,0.07031 0,0.105469 -0.082031,0.410156 L 1.0188125,-0.66899219 C 0.9485,-0.41117969 0.9485,-0.37602344 0.9485,-0.28227344 c 0,0.38671875 0.2929688,0.45703125 0.4570313,0.45703125 0.4921875,0 0.5859375,-0.38671875 0.7265625,-0.9140625 L 2.9406875,-3.9619609 c 1.2421875,0.140625 1.9804688,0.65625 1.9804688,1.4765625 0,0.1054687 0,0.1757812 -0.046875,0.4335937 -0.070312,0.2578125 -0.070312,0.46875 -0.070312,0.5507813 0,0.99609371 0.65625,1.67578121 1.5351562,1.67578121 0.7851563,0 1.1953125,-0.7265625 1.3359375,-0.97265625 C 8.0383438,-1.4307109 8.261,-2.3916484 8.261,-2.4619609 c 0,-0.082031 -0.070312,-0.1523438 -0.1757812,-0.1523438 -0.1523438,0 -0.1640625,0.070312 -0.234375,0.3398438 -0.2460938,0.890625 -0.609375,2.09765621 -1.4765625,2.09765621 -0.3515625,0 -0.5742188,-0.1640625 -0.5742188,-0.8203125 0,-0.32812501 0.070312,-0.70312501 0.140625,-0.96093751 C 6.011,-2.2744609 6.011,-2.2861797 6.011,-2.4971172 c 0,-1.0195312 -0.9140625,-1.5820312 -2.4960937,-1.7929687 0.6210937,-0.375 1.2304687,-1.0429688 1.4765625,-1.3007813 0.984375,-1.1015625 1.6523437,-1.6523437 2.4492187,-1.6523437 0.3867188,0 0.4921875,0.09375 0.609375,0.1992187 -0.6328125,0.070312 -0.8671875,0.515625 -0.8671875,0.8671875 0,0.4101563 0.3164063,0.5507813 0.5625,0.5507813 0.46875,0 0.8789063,-0.3984375 0.8789063,-0.9492188 0,-0.5039062 -0.3984375,-1.0195312 -1.171875,-1.0195312 -0.9492188,0 -1.7226563,0.6679687 -2.9414063,2.0507812 -0.1757812,0.2109375 -0.8085937,0.8554688 -1.453125,1.1015625 z m 0,0"
       style="fill:#000000;fill-opacity:0;fill-rule:nonzero;stroke:none"
       aria-label="k"
       transform="matrix(1.3333333,0,0,1.3333333,429.98533,151.16933)" />
    <path
       id="path30"
       d="m 5.4375313,-5.1444688 c 0,-1.4882812 -0.1523438,-4.0078125 -1.3828125,-6.6679692 -0.9960938,-2.15625 -2.6953125,-3.65625 -2.9414063,-3.65625 -0.058594,0 -0.140625,0.01172 -0.140625,0.117188 0,0.04687 0.0234375,0.05859 0.0351563,0.105469 0.9960937,1.03125 3.515625,3.65625 3.515625,10.0781247 0,6.4453125 -2.4960938,9.0703125 -3.515625,10.1015625 -0.0117188,0.046875 -0.0351563,0.070312 -0.0351563,0.1054688 0,0.1054687 0.0820313,0.1289062 0.140625,0.1289062 0.234375,0 1.9804688,-1.5351562 3,-3.8085937 1.03125,-2.28515625 1.3242188,-4.5234375 1.3242188,-6.5039063 z m 0,0"
       style="fill:#000000;fill-opacity:0;fill-rule:nonzero;stroke:none"
       aria-label=")"
       transform="matrix(1.3333333,0,0,1.3333333,443.10933,144.71867)" />
    <path
       id="path31"
       d="M 0,0 H 112.537"
       style="fill:none;stroke:#000000;stroke-width:0.991;stroke-linecap:butt;stroke-linejoin:miter;stroke-miterlimit:10;stroke-dasharray:none;stroke-opacity:0"
       transform="matrix(1.3333333,0,0,-1.3333333,302.816,154.73733)" />
    <path
       id="path32"
       d="m 8.6958906,11.026406 -7.3359375,9.070313 c -0.1640625,0.210937 -0.1875,0.257812 -0.1875,0.339844 0,0.222656 0.1875,0.222656 0.5625,0.222656 H 18.867766 l 1.769531,-5.144531 h -0.515625 c -0.515625,1.546875 -1.898438,2.8125 -3.65625,3.410156 -0.328125,0.105469 -1.757813,0.597656 -4.792969,0.597656 H 2.8951094 l 7.1718746,-8.859375 c 0.140625,-0.1875 0.175782,-0.246094 0.175782,-0.328125 0,-0.09375 -0.01172,-0.105469 -0.140625,-0.292969 L 3.3872969,0.83109375 h 8.1796871 c 2.355469,0 7.113282,0.140625 8.554688,4.00781255 h 0.515625 L 18.867766,-9.375e-4 H 1.7349531 c -0.5625,0 -0.5742187,0.0234375 -0.5742187,0.65625 z m 0,0"
       style="fill:#000000;fill-opacity:0;fill-rule:nonzero;stroke:none"
       aria-label="P"
       transform="matrix(1.3333333,0,0,1.3333333,342.02267,156.72)" />
    <path
       id="path33"
       d="m 4.8409453,-11.520055 c 0.011719,-0.07031 0.046875,-0.164062 0.046875,-0.257812 0,-0.164063 -0.1640625,-0.164063 -0.1992187,-0.164063 -0.023437,0 -0.6445313,0.04687 -0.9492188,0.08203 -0.2929687,0.01172 -0.5507812,0.04687 -0.8671875,0.07031 -0.4101562,0.03516 -0.5273437,0.04687 -0.5273437,0.363281 0,0.164063 0.1640625,0.164063 0.3398437,0.164063 0.8789063,0 0.8789063,0.152344 0.8789063,0.328125 0,0.07031 0,0.105469 -0.082031,0.410156 l -2.4609375,9.85546881 c -0.0703125,0.2578125 -0.0703125,0.29296875 -0.0703125,0.38671875 0,0.38671875 0.2929688,0.45703125 0.4570313,0.45703125 0.4921875,0 0.5859375,-0.38671875 0.7265625,-0.9140625 L 2.9425078,-3.9614609 c 1.2421875,0.140625 1.9804688,0.65625 1.9804688,1.4765625 0,0.1054687 0,0.1757812 -0.046875,0.4335937 -0.070312,0.2578125 -0.070312,0.46875 -0.070312,0.5507813 0,0.99609371 0.65625,1.67578121 1.5351562,1.67578121 0.7851563,0 1.1953125,-0.7265625 1.3359375,-0.97265625 0.3632813,-0.63281246 0.5859375,-1.59374996 0.5859375,-1.66406246 0,-0.082031 -0.070312,-0.1523438 -0.1757812,-0.1523438 -0.1523438,0 -0.1640625,0.070312 -0.234375,0.3398438 -0.2460938,0.890625 -0.609375,2.09765621 -1.4765625,2.09765621 -0.3515625,0 -0.5742188,-0.1640625 -0.5742188,-0.8203125 0,-0.32812501 0.070312,-0.70312501 0.140625,-0.96093751 0.070312,-0.3164062 0.070312,-0.328125 0.070312,-0.5390625 0,-1.0195312 -0.9140625,-1.5820312 -2.4960937,-1.7929687 0.6210937,-0.375 1.2304687,-1.0429688 1.4765625,-1.3007813 0.984375,-1.1015625 1.6523437,-1.6523437 2.4492187,-1.6523437 0.3867188,0 0.4921875,0.09375 0.609375,0.1992187 -0.6328125,0.070312 -0.8671875,0.515625 -0.8671875,0.8671875 0,0.4101563 0.3164063,0.5507813 0.5625,0.5507813 0.46875,0 0.8789063,-0.3984375 0.8789063,-0.9492188 0,-0.5039062 -0.3984375,-1.0195312 -1.171875,-1.0195312 -0.9492188,0 -1.7226563,0.6679687 -2.9414063,2.0507812 -0.1757812,0.2109375 -0.8085937,0.8554688 -1.453125,1.1015625 z m 0,0"
       style="fill:#000000;fill-opacity:0;fill-rule:nonzero;stroke:none"
       aria-label="k"
       transform="matrix(1.3333333,0,0,1.3333333,371.104,185.41867)" />
    <path
       id="path34"
       d="m 5.9309219,-7.7928594 h 3.4335937 c 0.2695313,0 0.9492184,0 0.9492184,-0.65625 0,-0.4570312 -0.3984371,-0.4570312 -0.7617184,-0.4570312 H 3.8684219 c -0.4804688,0 -1.1835938,0 -2.1328125,1.0195312 -0.5390625,0.5976563 -1.19531253,1.6875 -1.19531253,1.8164063 0,0.1171875 0.10546875,0.1640625 0.22265625,0.1640625 0.15234375,0 0.1640625,-0.070312 0.26953128,-0.1875 1.078125,-1.6992188 2.15625,-1.6992188 2.671875,-1.6992188 h 1.7109375 l -2.1445313,7.08984377 c -0.1054687,0.31640625 -0.1054687,0.3515625 -0.1054687,0.41015625 0,0.234375 0.140625,0.515625 0.5507812,0.515625 0.6445313,0 0.75,-0.55078125 0.8085938,-0.8671875 z m 0,0"
       style="fill:#000000;fill-opacity:0;fill-rule:nonzero;stroke:none"
       aria-label="τ"
       transform="matrix(1.3333333,0,0,1.3333333,388.81867,177.38267)" />
    <path
       id="path35"
       d="m 4.8402109,-11.520508 c 0.011719,-0.07031 0.046875,-0.164062 0.046875,-0.257812 0,-0.164063 -0.1640625,-0.164063 -0.1992187,-0.164063 -0.023437,0 -0.6445313,0.04687 -0.9492188,0.08203 -0.2929687,0.01172 -0.5507812,0.04687 -0.8671875,0.07031 -0.4101562,0.03516 -0.5273437,0.04687 -0.5273437,0.363281 0,0.164063 0.1640625,0.164063 0.3398437,0.164063 0.8789063,0 0.8789063,0.152343 0.8789063,0.328125 0,0.07031 0,0.105468 -0.082031,0.410156 l -2.4609375,9.85546869 c -0.0703125,0.2578125 -0.0703125,0.29296875 -0.0703125,0.38671875 0,0.38671875 0.2929688,0.45703125 0.4570313,0.45703125 0.4921875,0 0.5859375,-0.38671875 0.7265625,-0.9140625 L 2.9417734,-3.9619141 c 1.2421875,0.140625 1.9804688,0.65625 1.9804688,1.4765625 0,0.1054688 0,0.1757813 -0.046875,0.4335938 -0.070312,0.2578125 -0.070312,0.46875 -0.070312,0.5507812 0,0.99609379 0.65625,1.67578129 1.5351562,1.67578129 0.7851563,0 1.1953125,-0.7265625 1.3359375,-0.97265625 0.3632813,-0.63281254 0.5859375,-1.59375004 0.5859375,-1.66406254 0,-0.082031 -0.070312,-0.1523437 -0.1757812,-0.1523437 -0.1523438,0 -0.1640625,0.070312 -0.234375,0.3398437 -0.2460938,0.890625 -0.609375,2.09765629 -1.4765625,2.09765629 -0.3515625,0 -0.5742188,-0.1640625 -0.5742188,-0.8203125 0,-0.32812499 0.070312,-0.70312499 0.140625,-0.96093749 0.070312,-0.3164063 0.070312,-0.328125 0.070312,-0.5390625 0,-1.0195313 -0.9140625,-1.5820313 -2.4960937,-1.7929688 0.6210937,-0.375 1.2304687,-1.0429687 1.4765625,-1.3007812 0.984375,-1.1015625 1.6523437,-1.6523438 2.4492187,-1.6523438 0.3867188,0 0.4921875,0.09375 0.609375,0.1992188 -0.6328125,0.070312 -0.8671875,0.515625 -0.8671875,0.8671875 0,0.4101562 0.3164063,0.5507812 0.5625,0.5507812 0.46875,0 0.8789063,-0.3984375 0.8789063,-0.9492187 0,-0.5039063 -0.3984375,-1.0195313 -1.171875,-1.0195313 -0.9492188,0 -1.7226563,0.6679688 -2.9414063,2.0507813 -0.1757812,0.2109375 -0.8085937,0.8554687 -1.453125,1.1015625 z m 0,0"
       style="fill:#000000;fill-opacity:0;fill-rule:nonzero;stroke:none"
       aria-label="k"
       transform="matrix(1.3333333,0,0,1.3333333,400.53467,183.83333)" />
  </g>
</svg>
