<?xml version="1.0" encoding="UTF-8" standalone="no"?>
<!-- Created with Inkscape (http://www.inkscape.org/) -->

<svg
   version="1.1"
   id="svg1"
   width="463.52267"
   height="203.51733"
   viewBox="0 0 463.52267 203.51733"
   sodipodi:docname="shotnoise_eq.pdf"
   xmlns:inkscape="http://www.inkscape.org/namespaces/inkscape"
   xmlns:sodipodi="http://sodipodi.sourceforge.net/DTD/sodipodi-0.dtd"
   xmlns="http://www.w3.org/2000/svg"
   xmlns:svg="http://www.w3.org/2000/svg">
  <defs
     id="defs1" />
  <sodipodi:namedview
     id="namedview1"
     pagecolor="#ffffff"
     bordercolor="#000000"
     borderopacity="0.25"
     inkscape:showpageshadow="2"
     inkscape:pageopacity="0.0"
     inkscape:pagecheckerboard="0"
     inkscape:deskcolor="#d1d1d1">
    <inkscape:page
       x="0"
       y="0"
       inkscape:label="1"
       id="page1"
       width="463.52267"
       height="203.51733"
       margin="0"
       bleed="0" />
  </sodipodi:namedview>
  <g
     id="g1"
     inkscape:groupmode="layer"
     inkscape:label="1">
    <path
       id="path1"
       d="m -148.82074,0 v -134.64734 h 347.2484 V 0 Z"
       style="fill:none;stroke:#000000;stroke-width:0.3985;stroke-linecap:butt;stroke-linejoin:miter;stroke-miterlimit:10;stroke-dasharray:none;stroke-opacity:0"
       transform="matrix(1.3333333,0,0,-1.3333333,198.69067,23.724)" />
    <path
       id="path2"
       d="m 15.737273,-17.225391 c 0,-0.222656 -0.175781,-0.222656 -0.222656,-0.222656 -0.09375,0 -0.128906,0.02344 -0.421875,0.398438 -0.152344,0.175781 -1.160156,1.464843 -1.183594,1.488281 -0.820312,-1.617188 -2.460937,-1.886719 -3.503906,-1.886719 -3.1406248,0 -5.9999998,2.871094 -5.9999998,5.671875 0,1.8632814 1.125,2.9531251 2.3320312,3.3750001 0.28125,0.09375 1.734375,0.4921875 2.484375,0.6679688 1.2656246,0.3515625 1.5820316,0.4453125 2.1093746,0.9960937 0.09375,0.1171875 0.585938,0.6914063 0.585938,1.8515625 0,2.3085938 -2.1328126,4.68750002 -4.6054688,4.68750002 -2.0390625,0 -4.2890625,-0.86718752 -4.2890625,-3.64453122 0,-0.46875 0.09375,-1.0664063 0.1757812,-1.3125 0,-0.070312 0.023437,-0.1992188 0.023437,-0.2460938 0,-0.1054687 -0.046875,-0.2226562 -0.2460937,-0.2226562 -0.2226563,0 -0.2460938,0.046875 -0.3515625,0.46875 l -1.265625,5.08593747 c 0,0.0234375 -0.09375,0.33984375 -0.09375,0.36328125 0,0.22265625 0.1992187,0.22265625 0.2460937,0.22265625 0.09375,0 0.1289063,-0.0234375 0.421875,-0.38671875 L 3.0693047,-1.3582031 c 0.5976562,0.89062497 1.8867187,1.87499997 4.1953125,1.87499997 3.1992188,0 6.1171878,-3.09374997 6.1171878,-6.18749997 0,-1.0429688 -0.246094,-1.9570313 -1.183594,-2.8828125 -0.527344,-0.515625 -0.972656,-0.6445313 -3.2460938,-1.2304688 -1.6640625,-0.4453126 -1.8867188,-0.5273436 -2.3320313,-0.9257816 -0.421875,-0.421875 -0.75,-1.007812 -0.75,-1.851562 0,-2.085938 2.109375,-4.21875 4.4648441,-4.21875 2.425781,0 3.574218,1.488281 3.574218,3.84375 0,0.644531 -0.128906,1.3125 -0.128906,1.417969 0,0.222656 0.199219,0.222656 0.269531,0.222656 0.222657,0 0.246094,-0.08203 0.351563,-0.480469 z m 0,0"
       style="fill:#000000;fill-opacity:1;fill-rule:nonzero;stroke:none"
       aria-label="S"
       transform="matrix(1.3333333,0,0,1.3333333,83.224,30.1)" />
    <path
       id="path3"
       d="m 5.8464062,-2.9541172 c 0,-0.1054687 -0.082031,-0.1875 -0.2109375,-0.1875 -0.1875,0 -0.1992187,0.058594 -0.3046875,0.4101563 -0.5390625,1.88671871 -1.3828125,2.51953121 -2.0625,2.51953121 -0.2578125,0 -0.5390625,-0.0585938 -0.5390625,-0.6796875 0,-0.55078121 0.2460938,-1.17187501 0.46875,-1.79296871 l 1.453125,-3.84375 c 0.058594,-0.1640625 0.1992188,-0.5390625 0.1992188,-0.9257813 0,-0.8671875 -0.6210938,-1.6523437 -1.6289063,-1.6523437 -1.8984375,0 -2.6601562,2.9882812 -2.6601562,3.1523437 0,0.082031 0.0820313,0.1875 0.22265625,0.1875 0.1875,0 0.2109375,-0.082031 0.29296875,-0.375 0.4921875,-1.734375 1.2773437,-2.5546875 2.0859375,-2.5546875 0.1875,0 0.5390625,0.023437 0.5390625,0.6796875 0,0.5390625 -0.2695313,1.21875 -0.4335938,1.6757813 l -1.453125,3.84375 c -0.1171875,0.328125 -0.2460937,0.65625 -0.2460937,1.03125 0,0.92578121 0.6445312,1.67578121 1.6289062,1.67578121 1.8984375,0 2.6484375,-3.02343751 2.6484375,-3.16406251 z M 5.6823437,-12.891617 c 0,-0.316406 -0.2460937,-0.679688 -0.703125,-0.679688 -0.4804687,0 -1.0195312,0.445313 -1.0195312,0.984375 0,0.515625 0.4453125,0.691407 0.6914062,0.691407 0.5507813,0 1.03125,-0.539063 1.03125,-0.996094 z M 10.932344,0.08103906 c 0,-1.19531246 -0.398438,-2.08593746 -1.2421878,-2.08593746 -0.65625,0 -0.9960937,0.5390625 -0.9960937,0.9960937 0,0.44531251 0.3164062,1.0078125125 1.0195312,1.0078125125 0.2695313,0 0.4921873,-0.0820312525 0.6796873,-0.2695312525 0.03516,-0.0351563 0.05859,-0.0351563 0.08203,-0.0351563 0.04687,0 0.04687,0.28125 0.04687,0.38671875 0,0.6796875 -0.128906,2.02734379 -1.3242183,3.36328129 -0.234375,0.2578125 -0.234375,0.2929688 -0.234375,0.3398438 0,0.09375 0.1054688,0.1992187 0.2109375,0.1992187 0.1640625,0 1.7578128,-1.5234375 1.7578128,-3.90234379 z m 0,0"
       style="fill:#000000;fill-opacity:1;fill-rule:nonzero;stroke:none"
       aria-label="i,"
       transform="matrix(1.3333333,0,0,1.3333333,103.12667,36.778667)" />
    <text
       id="text3"
       xml:space="preserve"
       transform="matrix(1.3333333,0,0,1.3333333,119.82267,36.778667)"><tspan
         id="tspan3"
         style="font-variant:normal;font-weight:normal;font-size:20.6625px;font-family:'Latin Modern Roman';writing-mode:lr-tb;fill:#000000;fill-opacity:1;fill-rule:nonzero;stroke:none"
         x="0"
         y="0">sn</tspan></text>
    <path
       id="path4"
       d="m 15.936109,-7.9558594 c 0.375,0 0.738282,0 0.738282,-0.421875 0,-0.4453125 -0.421875,-0.4453125 -0.84375,-0.4453125 H 1.9790781 c -0.421875,0 -0.84375,0 -0.84375,0.4453125 0,0.421875 0.375,0.421875 0.75,0.421875 z m -0.105468,4.4179688 c 0.421875,0 0.84375,0 0.84375,-0.4570313 0,-0.4101562 -0.363282,-0.4101562 -0.738282,-0.4101562 H 1.8853281 c -0.375,0 -0.75,0 -0.75,0.4101562 0,0.4570313 0.421875,0.4570313 0.84375,0.4570313 z m 0,0"
       style="fill:#000000;fill-opacity:1;fill-rule:nonzero;stroke:none"
       aria-label="="
       transform="matrix(1.3333333,0,0,1.3333333,153.63467,30.1)" />
    <path
       id="path5"
       d="M 10.3358,-3.8425781 H 9.8904873 c -0.2460937,1.7578125 -0.4453125,2.0625 -0.5507812,2.203125 -0.1171875,0.1992187 -1.8984375,0.1992187 -2.25,0.1992187 H 2.3318936 c 0.890625,-0.9609375 2.625,-2.71875 4.734375,-4.7578125 1.5117187,-1.4296875 3.2695314,-3.1171875 3.2695314,-5.5781251 0,-2.917969 -2.3320314,-4.605469 -4.9335939,-4.605469 -2.7304688,0 -4.3828125,2.402344 -4.3828125,4.628907 0,0.972656 0.7148437,1.101562 1.0078125,1.101562 0.2578125,0 0.9960937,-0.152344 0.9960937,-1.019531 0,-0.773438 -0.6445312,-0.996094 -0.9960937,-0.996094 -0.140625,0 -0.2929688,0.02344 -0.3867188,0.08203 0.46875,-2.109375 1.8984375,-3.152343 3.4101563,-3.152343 2.15625,0 3.5742187,1.710937 3.5742187,3.960937 0,2.1562501 -1.265625,4.0195314 -2.671875,5.6250001 l -4.9335937,5.57812502 v 0.57421875 h 8.71875 z m 0,0"
       style="fill:#000000;fill-opacity:1;fill-rule:nonzero;stroke:none"
       aria-label="2"
       transform="matrix(1.3333333,0,0,1.3333333,186.57831,30.1)" />
    <path
       id="path6"
       d="m 4.4406953,-5.7527344 c 0.6679688,0 2.3554688,-0.046875 3.5390625,-0.4921875 1.8867188,-0.7148437 2.0625002,-2.15625 2.0625002,-2.6015625 0,-1.0898437 -0.9492189,-2.0859376 -2.5781252,-2.0859376 -2.6015625,0 -6.3515625,2.3554689 -6.3515625,6.7734376 0,2.6015625 1.4882813,4.40625002 3.75,4.40625002 3.3632813,0 5.4960937,-2.62500002 5.4960937,-2.95312502 0,-0.140625 -0.152344,-0.2695312 -0.246094,-0.2695312 -0.07031,0 -0.105468,0.023437 -0.3281247,0.2460937 -1.5820312,2.10937502 -3.9375,2.48437502 -4.875,2.48437502 -1.4179687,0 -2.15625,-1.11328122 -2.15625,-2.95312502 0,-0.3398437 0,-0.9609375 0.3632813,-2.5546875 z M 3.2453828,-6.2449219 c 1.0664063,-3.8203121 3.421875,-4.1835941 4.21875,-4.1835941 1.0898438,0 1.828125,0.6445316 1.828125,1.5820316 0,2.6015625 -3.9609375,2.6015625 -5.0039062,2.6015625 z m 0,0"
       style="fill:#000000;fill-opacity:1;fill-rule:nonzero;stroke:none"
       aria-label="e"
       transform="matrix(1.3333333,0,0,1.3333333,201.76267,30.1)" />
    <path
       id="path7"
       d="m 3.9376484,-17.694141 c 0,-0.445312 0,-0.890625 -0.4921875,-0.890625 -0.4921875,0 -0.4921875,0.445313 -0.4921875,0.890625 V 5.3097656 c 0,0.4453125 0,0.890625 0.4921875,0.890625 0.4921875,0 0.4921875,-0.4453125 0.4921875,-0.890625 z m 11.0800786,0.04687 c 0.117187,-0.269531 0.117187,-0.316406 0.117187,-0.445312 0,-0.269531 -0.222656,-0.492188 -0.492187,-0.492188 -0.222657,0 -0.398438,0.117188 -0.574219,0.5625 L 9.7325703,-6.6433594 c -0.046875,0.1523438 -0.1171875,0.3046875 -0.1171875,0.4453125 0,0.082031 0,0.1289063 0.1171875,0.421875 L 14.068508,5.6027344 c 0.105469,0.2695312 0.222656,0.5976562 0.574219,0.5976562 0.269531,0 0.492187,-0.2226562 0.492187,-0.5039062 0,-0.070312 0,-0.1171875 -0.117187,-0.3867188 L 10.623195,-6.1980469 Z m 0,0"
       style="fill:#000000;fill-opacity:1;fill-rule:nonzero;stroke:none"
       aria-label="|h"
       transform="matrix(1.3333333,0,0,1.3333333,222.26933,30.1)" />
    <path
       id="path8"
       d="m 9.1157734,-15.092578 c 0.2226563,-0.867188 0.28125,-1.113281 2.0859376,-1.113281 0.550781,0 0.738281,0 0.738281,-0.46875 0,-0.257813 -0.269531,-0.257813 -0.339844,-0.257813 -0.445312,0 -0.996093,0.05859 -1.441406,0.05859 H 7.1118672 c -0.4921875,0 -1.0664063,-0.05859 -1.5585938,-0.05859 -0.1992187,0 -0.46875,0 -0.46875,0.480469 0,0.246094 0.1875,0.246094 0.6914063,0.246094 1.5351562,0 1.5351562,0.199218 1.5351562,0.46875 0,0.175781 -0.046875,0.316406 -0.1054687,0.550781 L 3.8657734,-1.8386719 c -0.2226562,0.87890627 -0.2695312,1.12500002 -2.0859375,1.12500002 -0.5390625,0 -0.7617187,0 -0.7617187,0.46875 0,0.24609375 0.2460937,0.24609375 0.3632812,0.24609375 0.4570313,0 0.9960938,-0.046875 1.4414063,-0.046875 h 3.046875 c 0.5039062,0 1.0429687,0.046875 1.5351562,0.046875 0.1992188,0 0.5039063,0 0.5039063,-0.4453125 0,-0.26953125 -0.1523438,-0.26953125 -0.703125,-0.26953125 -1.5351563,0 -1.5351563,-0.19921875 -1.5351563,-0.50390622 0,-0.046875 0,-0.1640625 0.1054688,-0.5625 z m 0,0"
       style="fill:#000000;fill-opacity:1;fill-rule:nonzero;stroke:none"
       aria-label="I"
       transform="matrix(1.3333333,0,0,1.3333333,244.30267,30.1)" />
    <path
       id="path9"
       d="m 6.760625,-5.7761719 c 0.1289063,-0.2929687 0.1289063,-0.3398437 0.1289063,-0.421875 0,-0.070312 0,-0.1171875 -0.1289063,-0.421875 L 2.4246875,-18.022266 c -0.140625,-0.421875 -0.2929687,-0.5625 -0.5625,-0.5625 -0.28125,0 -0.5039062,0.222657 -0.5039062,0.492188 0,0.07031 0,0.128906 0.1289062,0.398437 L 5.87,-6.1980469 1.4871875,5.2511719 c -0.1289062,0.28125 -0.1289062,0.328125 -0.1289062,0.4453125 0,0.28125 0.2226562,0.5039062 0.5039062,0.5039062 0.3164063,0 0.421875,-0.2460937 0.515625,-0.5039062 z m 6.817383,-11.9179691 c 0,-0.445312 0,-0.890625 -0.492188,-0.890625 -0.492187,0 -0.492187,0.445313 -0.492187,0.890625 V 5.3097656 c 0,0.4453125 0,0.890625 0.492187,0.890625 0.492188,0 0.492188,-0.4453125 0.492188,-0.890625 z m 0,0"
       style="fill:#000000;fill-opacity:1;fill-rule:nonzero;stroke:none"
       aria-label="i|"
       transform="matrix(1.3333333,0,0,1.3333333,261.17333,30.1)" />
    <path
       id="path10"
       d="m 7.3595078,-8.0730469 h 2.3789063 c 1.8867189,0 2.0390629,0.4101563 2.0390629,1.1367188 0,0.3164062 -0.05859,0.6679687 -0.175782,1.2070312 -0.04687,0.1054688 -0.08203,0.2226563 -0.08203,0.28125 0,0.1757813 0.105469,0.2695313 0.28125,0.2695313 0.199219,0 0.222656,-0.09375 0.316406,-0.4921875 l 1.441407,-5.7773439 c 0,-0.105469 -0.07031,-0.246094 -0.246094,-0.246094 -0.222656,0 -0.246094,0.09375 -0.351563,0.515625 -0.515625,1.8632816 -1.019531,2.3789066 -3.1757809,2.3789066 h -2.25 l 1.6054687,-6.4218746 c 0.2226563,-0.867188 0.28125,-0.9375 1.2890622,-0.9375 h 3.328125 c 3.09375,0 3.539063,0.914062 3.539063,2.671875 0,0.152343 0,0.703125 -0.07031,1.347656 -0.02344,0.09375 -0.07031,0.421875 -0.07031,0.515625 0,0.199219 0.117187,0.269531 0.269531,0.269531 0.175781,0 0.269531,-0.09375 0.316406,-0.539062 l 0.527344,-4.335938 c 0,-0.08203 0.04687,-0.328125 0.04687,-0.375 0,-0.269531 -0.222656,-0.269531 -0.667969,-0.269531 H 5.8946641 c -0.46875,0 -0.7148438,0 -0.7148438,0.445312 0,0.269532 0.1757813,0.269532 0.5976563,0.269532 1.5351562,0 1.5351562,0.175781 1.5351562,0.445312 0,0.128906 -0.023437,0.222656 -0.1054687,0.492188 L 3.8673203,-1.8386719 c -0.2226562,0.87890627 -0.2695312,1.12500002 -2.0039062,1.12500002 -0.4804688,0 -0.7265625,0 -0.7265625,0.4453125 0,0.26953125 0.2226562,0.26953125 0.375,0.26953125 0.46875,0 0.9726562,-0.046875 1.4414062,-0.046875 h 3.2226563 c 0.5390625,0 1.1367187,0.046875 1.6757812,0.046875 0.2226563,0 0.5273438,0 0.5273438,-0.4453125 0,-0.26953125 -0.1523438,-0.26953125 -0.6914063,-0.26953125 -1.9570312,0 -2.015625,-0.17578125 -2.015625,-0.55078122 0,-0.1171875 0.058594,-0.3164063 0.1054688,-0.4921875 z m 0,0"
       style="fill:#000000;fill-opacity:1;fill-rule:nonzero;stroke:none"
       aria-label="F"
       transform="matrix(1.3333333,0,0,1.3333333,288.71467,30.1)" />
    <path
       id="path11"
       d="M 40.81946,-14.17339 C 40.81944,-61.6055 -62.77145,-24.82253 -71.92351,-64.81438"
       style="fill:none;stroke:#000000;stroke-width:0.79701;stroke-linecap:butt;stroke-linejoin:miter;stroke-miterlimit:10;stroke-dasharray:none;stroke-opacity:1"
       transform="matrix(1.3333333,0,0,-1.3333333,198.69067,23.724)" />
    <path
       id="path12"
       d="M 4.53381,0 C 3.97704,0.13808 1.52963,0.92049 0,1.77196 V -1.77196 C 1.52963,-0.92049 3.97704,-0.13808 4.53381,0 Z"
       style="fill:#000000;fill-opacity:1;fill-rule:nonzero;stroke:#000000;stroke-width:0.79701;stroke-linecap:butt;stroke-linejoin:miter;stroke-miterlimit:10;stroke-dasharray:none;stroke-opacity:1"
       transform="matrix(-0.15061333,1.3247333,1.3247333,0.15061333,102.86396,110.0306)" />
    <path
       id="path13"
       d="m 7.1118906,-9.339375 h 4.1132814 c 0.328125,0 1.136719,0 1.136719,-0.796875 0,-0.550781 -0.46875,-0.550781 -0.914063,-0.550781 H 4.6392344 c -0.5742188,0 -1.4179688,0 -2.5546875,1.2187497 -0.6445313,0.7148438 -1.44140627,2.0273438 -1.44140627,2.1796875 0,0.1523438 0.12890625,0.1992188 0.26953125,0.1992188 0.17578122,0 0.19921872,-0.070312 0.32812502,-0.2226563 1.2890625,-2.0273437 2.578125,-2.0273437 3.1992187,-2.0273437 h 2.0507813 l -2.578125,8.49609375 c -0.1171875,0.375 -0.1171875,0.421875 -0.1171875,0.4921875 0,0.28125 0.1640625,0.62109375 0.6679687,0.62109375 0.7617188,0 0.890625,-0.66796875 0.9609375,-1.04296875 z m 24.6708984,-7.886719 c 0,-0.222656 -0.175781,-0.222656 -0.222656,-0.222656 -0.04687,0 -0.152344,0 -0.351563,0.246094 l -1.710937,2.0625 c -0.117188,-0.199219 -0.621094,-1.066407 -1.582031,-1.640625 -1.066407,-0.667969 -2.132813,-0.667969 -2.507813,-0.667969 -5.296875,0 -10.875,5.402344 -10.875,11.25 0,4.0898437 2.824219,6.71484375 6.539063,6.71484375 1.78125,0 4.042968,-0.5859375 5.285156,-2.15625005 0.269531,0.9492188 0.808594,1.61718755 0.984375,1.61718755 0.128906,0 0.152344,-0.0703125 0.175781,-0.0703125 0.02344,-0.05859375 0.222656,-0.92578125 0.351563,-1.37109375 l 0.386718,-1.5820313 c 0.199219,-0.8203125 0.304688,-1.171875 0.480469,-1.9101562 0.246094,-0.9375 0.292969,-1.0195313 1.652344,-1.0429688 0.105469,0 0.398437,0 0.398437,-0.46875 0,-0.2460937 -0.246093,-0.2460937 -0.316406,-0.2460937 -0.421875,0 -0.890625,0.046875 -1.347656,0.046875 h -1.335938 c -1.042968,0 -2.132812,-0.046875 -3.140625,-0.046875 -0.222656,0 -0.527343,0 -0.527343,0.4453125 0,0.2460937 0.199218,0.2460937 0.199218,0.2695312 h 0.621094 c 1.957031,0 1.957031,0.1992188 1.957031,0.5742188 0,0.023437 -0.46875,2.53125 -0.9375,3.2695312 -0.949218,1.38281255 -2.90625,1.9570313 -4.359375,1.9570313 -1.910156,0 -5.015625,-0.9960938 -5.015625,-5.2734375 0,-1.6640625 0.597657,-5.4609375 3,-8.2617185 1.558594,-1.78125 3.867188,-3 6.046875,-3 2.929688,0 3.972657,2.507812 3.972657,4.792968 0,0.386719 -0.105469,0.9375 -0.105469,1.289063 0,0.222656 0.246094,0.222656 0.328125,0.222656 0.269531,0 0.292969,-0.03516 0.398437,-0.480469 z m 0,0"
       style="fill:#000000;fill-opacity:1;fill-rule:nonzero;stroke:none"
       aria-label="τG"
       transform="matrix(1.3333333,0,0,1.3333333,42.134667,146.64)" />
    <path
       id="path14"
       d="m 8.6725625,-6.6330938 c 0,-1.2539062 -0.011719,-3.4101562 -0.8789062,-5.0625002 -0.7734375,-1.441406 -1.9921875,-1.957031 -3.0585938,-1.957031 -0.9960937,0 -2.25,0.445312 -3.0351562,1.933594 -0.8320313,1.558593 -0.91406255,3.4804685 -0.91406255,5.0859372 0,1.1835938 0.0234375,2.9765625 0.65625005,4.546875 0.890625,2.13281255 2.484375,2.41406255 3.2929687,2.41406255 0.9492188,0 2.390625,-0.38671875 3.2460938,-2.35546875 0.609375,-1.4179688 0.6914062,-3.09375 0.6914062,-4.6054688 z m -3.9375,6.63281255 c -1.3242187,0 -2.109375,-1.13671875 -2.4023437,-2.70703125 -0.2226563,-1.21875 -0.2226563,-3 -0.2226563,-4.1484375 0,-1.59375 0,-2.9179688 0.2695313,-4.171875 0.3867187,-1.757813 1.546875,-2.296875 2.3554687,-2.296875 0.84375,0 1.9335938,0.550781 2.3320313,2.25 0.2695312,1.1835937 0.2929687,2.5664062 0.2929687,4.21875 0,1.3359375 0,2.9882812 -0.2578125,4.2070312 C 6.6686563,-0.387 5.4499063,-2.8125e-4 4.7350625,-2.8125e-4 Z m 0,0"
       style="fill:#000000;fill-opacity:1;fill-rule:nonzero;stroke:none"
       aria-label="0"
       transform="matrix(1.3333333,0,0,1.3333333,85.405333,153.016)" />
    <path
       id="path15"
       d="m 15.339188,-14.179219 c 0.84375,-1.335937 1.617187,-1.933594 2.882812,-2.027344 0.246094,-0.02344 0.445313,-0.02344 0.445313,-0.46875 0,-0.105468 -0.05859,-0.257812 -0.28125,-0.257812 -0.445313,0 -1.511719,0.05859 -1.957032,0.05859 -0.714843,0 -1.464843,-0.05859 -2.15625,-0.05859 -0.199218,0 -0.445312,0 -0.445312,0.480469 0,0.222656 0.222656,0.246093 0.328125,0.246093 0.914062,0.07031 1.007812,0.515625 1.007812,0.820313 0,0.363281 -0.339843,0.9375 -0.363281,0.960937 L 7.018875,-2.0854688 5.2727813,-15.444844 c 0,-0.714844 1.2890625,-0.761719 1.5703125,-0.761719 0.3632812,0 0.5976562,0 0.5976562,-0.46875 0,-0.257812 -0.28125,-0.257812 -0.3515625,-0.257812 -0.421875,0 -0.9140625,0.05859 -1.3359375,0.05859 H 4.3587188 c -1.8046875,0 -2.5546875,-0.05859 -2.578125,-0.05859 -0.140625,0 -0.4453125,0 -0.4453125,0.457031 0,0.269531 0.1757812,0.269531 0.5742187,0.269531 1.265625,0 1.3359375,0.222657 1.40625,0.84375 l 1.9921875,15.29296925 c 0.070312,0.515625 0.070312,0.5859375 0.421875,0.5859375 0.2929688,0 0.421875,-0.0703125 0.6679688,-0.46875 z m 0,0"
       style="fill:#000000;fill-opacity:1;fill-rule:nonzero;stroke:none"
       aria-label="V"
       transform="matrix(1.3333333,0,0,1.3333333,98.704,146.64)" />
    <text
       id="text15"
       xml:space="preserve"
       transform="matrix(1.3333333,0,0,1.3333333,117.56933,154.376)"><tspan
         id="tspan15"
         style="font-variant:normal;font-weight:normal;font-size:20.6625px;font-family:'Latin Modern Roman';writing-mode:lr-tb;fill:#000000;fill-opacity:1;fill-rule:nonzero;stroke:none"
         x="0"
         y="0">bias</tspan></text>
    <path
       id="path16"
       d="m 77.6704,-14.17339 c -2e-5,-29.18585 49.00453,-25.97241 55.89282,-50.60408"
       style="fill:none;stroke:#000000;stroke-width:0.79701;stroke-linecap:butt;stroke-linejoin:miter;stroke-miterlimit:10;stroke-dasharray:none;stroke-opacity:1"
       transform="matrix(1.3333333,0,0,-1.3333333,198.69067,23.724)" />
    <path
       id="path17"
       d="M 4.53381,0 C 3.97704,0.13808 1.52963,0.92049 0,1.77196 V -1.77196 C 1.52963,-0.92049 3.97704,-0.13808 4.53381,0 Z"
       style="fill:#000000;fill-opacity:1;fill-rule:nonzero;stroke:#000000;stroke-width:0.79701;stroke-linecap:butt;stroke-linejoin:miter;stroke-miterlimit:10;stroke-dasharray:none;stroke-opacity:1"
       transform="matrix(0.18522667,1.3204,1.3204,-0.18522667,376.6986,110.05737)" />
    <path
       id="path18"
       d="m 7.5812422,6.04625 c 0,-0.023437 0,-0.070312 -0.070312,-0.1523438 C 6.3742109,4.73375 3.3156172,1.5579687 3.3156172,-6.1764063 c 0,-7.7343747 3,-10.8749997 4.21875,-12.1171877 0,-0.02344 0.046875,-0.07031 0.046875,-0.152344 0,-0.07031 -0.070312,-0.117187 -0.1757813,-0.117187 -0.2695312,0 -2.3789062,1.828125 -3.5859375,4.558594 -1.2421875,2.753906 -1.59375,5.425781 -1.59375,7.8046872 0,1.7929688 0.1757813,4.8164063 1.6640625,8.0039063 1.1953125,2.578125 3.2226563,4.3945312 3.515625,4.3945312 0.1289063,0 0.1757813,-0.046875 0.1757813,-0.1523437 z m 7.7929688,-21.878906 c 0,-0.527344 -0.03516,-0.550782 -0.375,-0.550782 -0.972656,1.160157 -2.425781,1.535157 -3.820313,1.582032 -0.07031,0 -0.199218,0 -0.222656,0.05859 -0.02344,0.04687 -0.02344,0.09375 -0.02344,0.609375 0.773437,0 2.0625,-0.140625 3.046875,-0.738281 v 13.0664065 c 0,0.8671875 -0.04687,1.16015625 -2.179688,1.16015625 H 11.061711 V -6.25e-4 c 1.183594,-0.0234375 2.425781,-0.046875 3.609375,-0.046875 1.195312,0 2.4375,0.0234375 3.621094,0.046875 v -0.64453125 h -0.738282 c -2.132812,0 -2.179687,-0.26953125 -2.179687,-1.16015625 z m 0,0"
       style="fill:#000000;fill-opacity:1;fill-rule:nonzero;stroke:none"
       aria-label="(1"
       transform="matrix(1.3333333,0,0,1.3333333,329.48933,148.81333)" />
    <path
       id="path19"
       d="m 16.336422,-5.6959375 c 0.421875,0 0.867187,0 0.867187,-0.5039063 0,-0.4921875 -0.445312,-0.4921875 -0.867187,-0.4921875 H 2.9301719 c -0.421875,0 -0.8671875,0 -0.8671875,0.4921875 0,0.5039063 0.4453125,0.5039063 0.8671875,0.5039063 z m 0,0"
       style="fill:#000000;fill-opacity:1;fill-rule:nonzero;stroke:none"
       aria-label="−"
       transform="matrix(1.3333333,0,0,1.3333333,363.69467,148.81333)" />
    <path
       id="path20"
       d="m 7.1119219,-9.3404688 h 4.1132811 c 0.328125,0 1.136719,0 1.136719,-0.7968752 0,-0.550781 -0.46875,-0.550781 -0.914063,-0.550781 H 4.6392656 c -0.5742187,0 -1.4179687,0 -2.5546875,1.21875 -0.6445312,0.7148437 -1.44140622,2.0273437 -1.44140622,2.1796875 0,0.1523437 0.12890625,0.1992187 0.26953125,0.1992187 0.17578127,0 0.19921877,-0.070312 0.32812497,-0.2226562 1.2890625,-2.0273438 2.578125,-2.0273438 3.1992188,-2.0273438 h 2.0507812 l -2.578125,8.4960938 c -0.1171875,0.375 -0.1171875,0.421875 -0.1171875,0.4921875 0,0.28125 0.1640625,0.62109375 0.6679688,0.62109375 0.7617187,0 0.890625,-0.66796875 0.9609375,-1.04296875 z m 0,0"
       style="fill:#000000;fill-opacity:1;fill-rule:nonzero;stroke:none"
       aria-label="τ"
       transform="matrix(1.3333333,0,0,1.3333333,396.744,148.81333)" />
    <path
       id="path21"
       d="m 6.5158359,-6.1764063 c 0,-1.78125 -0.1757812,-4.8046877 -1.6523437,-8.0039067 -1.1953125,-2.578125 -3.2226563,-4.382812 -3.5273438,-4.382812 -0.070312,0 -0.1757812,0.02344 -0.1757812,0.152344 0,0.04687 0.035156,0.07031 0.058594,0.117187 1.1835938,1.242188 4.2070313,4.382813 4.2070313,12.0937502 0,7.734375 -3,10.8867188 -4.2070313,12.1171875 -0.023437,0.058594 -0.058594,0.082031 -0.058594,0.1289063 0,0.1289062 0.1054687,0.1523437 0.1757812,0.1523437 0.2695313,0 2.3789063,-1.8398437 3.5976563,-4.5585937 1.2421875,-2.7539063 1.5820312,-5.4375 1.5820312,-7.8164063 z m 0,0"
       style="fill:#000000;fill-opacity:1;fill-rule:nonzero;stroke:none"
       aria-label=")"
       transform="matrix(1.3333333,0,0,1.3333333,414.488,148.81333)" />
  </g>
</svg>
