<?xml version="1.0" encoding="utf-8" standalone="no"?>
<!DOCTYPE svg PUBLIC "-//W3C//DTD SVG 1.1//EN"
  "http://www.w3.org/Graphics/SVG/1.1/DTD/svg11.dtd">
<svg xmlns:xlink="http://www.w3.org/1999/xlink" width="504pt" height="504pt" viewBox="0 0 504 504" xmlns="http://www.w3.org/2000/svg" version="1.1">
 <metadata>
  <rdf:RDF xmlns:dc="http://purl.org/dc/elements/1.1/" xmlns:cc="http://creativecommons.org/ns#" xmlns:rdf="http://www.w3.org/1999/02/22-rdf-syntax-ns#">
   <cc:Work>
    <dc:type rdf:resource="http://purl.org/dc/dcmitype/StillImage"/>
    <dc:date>2025-08-21T15:49:38.854801</dc:date>
    <dc:format>image/svg+xml</dc:format>
    <dc:creator>
     <cc:Agent>
      <dc:title>Matplotlib v3.10.1, https://matplotlib.org/</dc:title>
     </cc:Agent>
    </dc:creator>
   </cc:Work>
  </rdf:RDF>
 </metadata>
 <defs>
  <style type="text/css">*{stroke-linejoin: round; stroke-linecap: butt}</style>
 </defs>
 <g id="figure_1">
  <g id="patch_1">
   <path d="M 0 504 
L 504 504 
L 504 0 
L 0 0 
z
" style="fill: #ffffff"/>
  </g>
  <g id="axes_1">
   <g id="patch_2">
    <path d="M 86.024 415.96 
L 475.92 415.96 
L 475.92 50.52 
L 86.024 50.52 
z
" style="fill: #ffffff"/>
   </g>
   <g id="matplotlib.axis_1">
    <g id="xtick_1">
     <g id="line2d_1">
      <defs>
       <path id="mdc6f7cff0c" d="M 0 0 
L 0 3.5 
" style="stroke: #000000; stroke-width: 0.8"/>
      </defs>
      <g>
       <use xlink:href="#mdc6f7cff0c" x="132.102618" y="415.96" style="stroke: #000000; stroke-width: 0.8"/>
      </g>
     </g>
     <g id="text_1">
      <!-- −500 -->
      <g transform="translate(96.395274 442.715937) scale(0.26 -0.26)">
       <defs>
        <path id="DejaVuSans-2212" d="M 678 2272 
L 4684 2272 
L 4684 1741 
L 678 1741 
L 678 2272 
z
" transform="scale(0.015625)"/>
        <path id="DejaVuSans-35" d="M 691 4666 
L 3169 4666 
L 3169 4134 
L 1269 4134 
L 1269 2991 
Q 1406 3038 1543 3061 
Q 1681 3084 1819 3084 
Q 2600 3084 3056 2656 
Q 3513 2228 3513 1497 
Q 3513 744 3044 326 
Q 2575 -91 1722 -91 
Q 1428 -91 1123 -41 
Q 819 9 494 109 
L 494 744 
Q 775 591 1075 516 
Q 1375 441 1709 441 
Q 2250 441 2565 725 
Q 2881 1009 2881 1497 
Q 2881 1984 2565 2268 
Q 2250 2553 1709 2553 
Q 1456 2553 1204 2497 
Q 953 2441 691 2322 
L 691 4666 
z
" transform="scale(0.015625)"/>
        <path id="DejaVuSans-30" d="M 2034 4250 
Q 1547 4250 1301 3770 
Q 1056 3291 1056 2328 
Q 1056 1369 1301 889 
Q 1547 409 2034 409 
Q 2525 409 2770 889 
Q 3016 1369 3016 2328 
Q 3016 3291 2770 3770 
Q 2525 4250 2034 4250 
z
M 2034 4750 
Q 2819 4750 3233 4129 
Q 3647 3509 3647 2328 
Q 3647 1150 3233 529 
Q 2819 -91 2034 -91 
Q 1250 -91 836 529 
Q 422 1150 422 2328 
Q 422 3509 836 4129 
Q 1250 4750 2034 4750 
z
" transform="scale(0.015625)"/>
       </defs>
       <use xlink:href="#DejaVuSans-2212"/>
       <use xlink:href="#DejaVuSans-35" transform="translate(83.789062 0)"/>
       <use xlink:href="#DejaVuSans-30" transform="translate(147.412109 0)"/>
       <use xlink:href="#DejaVuSans-30" transform="translate(211.035156 0)"/>
      </g>
     </g>
    </g>
    <g id="xtick_2">
     <g id="line2d_2">
      <g>
       <use xlink:href="#mdc6f7cff0c" x="309.328073" y="415.96" style="stroke: #000000; stroke-width: 0.8"/>
      </g>
     </g>
     <g id="text_2">
      <!-- 0 -->
      <g transform="translate(301.056823 442.715937) scale(0.26 -0.26)">
       <use xlink:href="#DejaVuSans-30"/>
      </g>
     </g>
    </g>
    <g id="text_3">
     <!-- Voltage bias (µV) -->
     <g transform="translate(170.031219 471.879063) scale(0.26 -0.26)">
      <defs>
       <path id="DejaVuSans-56" d="M 1831 0 
L 50 4666 
L 709 4666 
L 2188 738 
L 3669 4666 
L 4325 4666 
L 2547 0 
L 1831 0 
z
" transform="scale(0.015625)"/>
       <path id="DejaVuSans-6f" d="M 1959 3097 
Q 1497 3097 1228 2736 
Q 959 2375 959 1747 
Q 959 1119 1226 758 
Q 1494 397 1959 397 
Q 2419 397 2687 759 
Q 2956 1122 2956 1747 
Q 2956 2369 2687 2733 
Q 2419 3097 1959 3097 
z
M 1959 3584 
Q 2709 3584 3137 3096 
Q 3566 2609 3566 1747 
Q 3566 888 3137 398 
Q 2709 -91 1959 -91 
Q 1206 -91 779 398 
Q 353 888 353 1747 
Q 353 2609 779 3096 
Q 1206 3584 1959 3584 
z
" transform="scale(0.015625)"/>
       <path id="DejaVuSans-6c" d="M 603 4863 
L 1178 4863 
L 1178 0 
L 603 0 
L 603 4863 
z
" transform="scale(0.015625)"/>
       <path id="DejaVuSans-74" d="M 1172 4494 
L 1172 3500 
L 2356 3500 
L 2356 3053 
L 1172 3053 
L 1172 1153 
Q 1172 725 1289 603 
Q 1406 481 1766 481 
L 2356 481 
L 2356 0 
L 1766 0 
Q 1100 0 847 248 
Q 594 497 594 1153 
L 594 3053 
L 172 3053 
L 172 3500 
L 594 3500 
L 594 4494 
L 1172 4494 
z
" transform="scale(0.015625)"/>
       <path id="DejaVuSans-61" d="M 2194 1759 
Q 1497 1759 1228 1600 
Q 959 1441 959 1056 
Q 959 750 1161 570 
Q 1363 391 1709 391 
Q 2188 391 2477 730 
Q 2766 1069 2766 1631 
L 2766 1759 
L 2194 1759 
z
M 3341 1997 
L 3341 0 
L 2766 0 
L 2766 531 
Q 2569 213 2275 61 
Q 1981 -91 1556 -91 
Q 1019 -91 701 211 
Q 384 513 384 1019 
Q 384 1609 779 1909 
Q 1175 2209 1959 2209 
L 2766 2209 
L 2766 2266 
Q 2766 2663 2505 2880 
Q 2244 3097 1772 3097 
Q 1472 3097 1187 3025 
Q 903 2953 641 2809 
L 641 3341 
Q 956 3463 1253 3523 
Q 1550 3584 1831 3584 
Q 2591 3584 2966 3190 
Q 3341 2797 3341 1997 
z
" transform="scale(0.015625)"/>
       <path id="DejaVuSans-67" d="M 2906 1791 
Q 2906 2416 2648 2759 
Q 2391 3103 1925 3103 
Q 1463 3103 1205 2759 
Q 947 2416 947 1791 
Q 947 1169 1205 825 
Q 1463 481 1925 481 
Q 2391 481 2648 825 
Q 2906 1169 2906 1791 
z
M 3481 434 
Q 3481 -459 3084 -895 
Q 2688 -1331 1869 -1331 
Q 1566 -1331 1297 -1286 
Q 1028 -1241 775 -1147 
L 775 -588 
Q 1028 -725 1275 -790 
Q 1522 -856 1778 -856 
Q 2344 -856 2625 -561 
Q 2906 -266 2906 331 
L 2906 616 
Q 2728 306 2450 153 
Q 2172 0 1784 0 
Q 1141 0 747 490 
Q 353 981 353 1791 
Q 353 2603 747 3093 
Q 1141 3584 1784 3584 
Q 2172 3584 2450 3431 
Q 2728 3278 2906 2969 
L 2906 3500 
L 3481 3500 
L 3481 434 
z
" transform="scale(0.015625)"/>
       <path id="DejaVuSans-65" d="M 3597 1894 
L 3597 1613 
L 953 1613 
Q 991 1019 1311 708 
Q 1631 397 2203 397 
Q 2534 397 2845 478 
Q 3156 559 3463 722 
L 3463 178 
Q 3153 47 2828 -22 
Q 2503 -91 2169 -91 
Q 1331 -91 842 396 
Q 353 884 353 1716 
Q 353 2575 817 3079 
Q 1281 3584 2069 3584 
Q 2775 3584 3186 3129 
Q 3597 2675 3597 1894 
z
M 3022 2063 
Q 3016 2534 2758 2815 
Q 2500 3097 2075 3097 
Q 1594 3097 1305 2825 
Q 1016 2553 972 2059 
L 3022 2063 
z
" transform="scale(0.015625)"/>
       <path id="DejaVuSans-20" transform="scale(0.015625)"/>
       <path id="DejaVuSans-62" d="M 3116 1747 
Q 3116 2381 2855 2742 
Q 2594 3103 2138 3103 
Q 1681 3103 1420 2742 
Q 1159 2381 1159 1747 
Q 1159 1113 1420 752 
Q 1681 391 2138 391 
Q 2594 391 2855 752 
Q 3116 1113 3116 1747 
z
M 1159 2969 
Q 1341 3281 1617 3432 
Q 1894 3584 2278 3584 
Q 2916 3584 3314 3078 
Q 3713 2572 3713 1747 
Q 3713 922 3314 415 
Q 2916 -91 2278 -91 
Q 1894 -91 1617 61 
Q 1341 213 1159 525 
L 1159 0 
L 581 0 
L 581 4863 
L 1159 4863 
L 1159 2969 
z
" transform="scale(0.015625)"/>
       <path id="DejaVuSans-69" d="M 603 3500 
L 1178 3500 
L 1178 0 
L 603 0 
L 603 3500 
z
M 603 4863 
L 1178 4863 
L 1178 4134 
L 603 4134 
L 603 4863 
z
" transform="scale(0.015625)"/>
       <path id="DejaVuSans-73" d="M 2834 3397 
L 2834 2853 
Q 2591 2978 2328 3040 
Q 2066 3103 1784 3103 
Q 1356 3103 1142 2972 
Q 928 2841 928 2578 
Q 928 2378 1081 2264 
Q 1234 2150 1697 2047 
L 1894 2003 
Q 2506 1872 2764 1633 
Q 3022 1394 3022 966 
Q 3022 478 2636 193 
Q 2250 -91 1575 -91 
Q 1294 -91 989 -36 
Q 684 19 347 128 
L 347 722 
Q 666 556 975 473 
Q 1284 391 1588 391 
Q 1994 391 2212 530 
Q 2431 669 2431 922 
Q 2431 1156 2273 1281 
Q 2116 1406 1581 1522 
L 1381 1569 
Q 847 1681 609 1914 
Q 372 2147 372 2553 
Q 372 3047 722 3315 
Q 1072 3584 1716 3584 
Q 2034 3584 2315 3537 
Q 2597 3491 2834 3397 
z
" transform="scale(0.015625)"/>
       <path id="DejaVuSans-28" d="M 1984 4856 
Q 1566 4138 1362 3434 
Q 1159 2731 1159 2009 
Q 1159 1288 1364 580 
Q 1569 -128 1984 -844 
L 1484 -844 
Q 1016 -109 783 600 
Q 550 1309 550 2009 
Q 550 2706 781 3412 
Q 1013 4119 1484 4856 
L 1984 4856 
z
" transform="scale(0.015625)"/>
       <path id="DejaVuSans-b5" d="M 544 -1331 
L 544 3500 
L 1119 3500 
L 1119 1325 
Q 1119 872 1334 640 
Q 1550 409 1972 409 
Q 2434 409 2667 671 
Q 2900 934 2900 1459 
L 2900 3500 
L 3475 3500 
L 3475 806 
Q 3475 619 3529 530 
Q 3584 441 3700 441 
Q 3728 441 3778 458 
Q 3828 475 3916 513 
L 3916 50 
Q 3788 -22 3673 -56 
Q 3559 -91 3450 -91 
Q 3234 -91 3106 31 
Q 2978 153 2931 403 
Q 2775 156 2548 32 
Q 2322 -91 2016 -91 
Q 1697 -91 1473 31 
Q 1250 153 1119 397 
L 1119 -1331 
L 544 -1331 
z
" transform="scale(0.015625)"/>
       <path id="DejaVuSans-29" d="M 513 4856 
L 1013 4856 
Q 1481 4119 1714 3412 
Q 1947 2706 1947 2009 
Q 1947 1309 1714 600 
Q 1481 -109 1013 -844 
L 513 -844 
Q 928 -128 1133 580 
Q 1338 1288 1338 2009 
Q 1338 2731 1133 3434 
Q 928 4138 513 4856 
z
" transform="scale(0.015625)"/>
      </defs>
      <use xlink:href="#DejaVuSans-56"/>
      <use xlink:href="#DejaVuSans-6f" transform="translate(60.658203 0)"/>
      <use xlink:href="#DejaVuSans-6c" transform="translate(121.839844 0)"/>
      <use xlink:href="#DejaVuSans-74" transform="translate(149.623047 0)"/>
      <use xlink:href="#DejaVuSans-61" transform="translate(188.832031 0)"/>
      <use xlink:href="#DejaVuSans-67" transform="translate(250.111328 0)"/>
      <use xlink:href="#DejaVuSans-65" transform="translate(313.587891 0)"/>
      <use xlink:href="#DejaVuSans-20" transform="translate(375.111328 0)"/>
      <use xlink:href="#DejaVuSans-62" transform="translate(406.898438 0)"/>
      <use xlink:href="#DejaVuSans-69" transform="translate(470.375 0)"/>
      <use xlink:href="#DejaVuSans-61" transform="translate(498.158203 0)"/>
      <use xlink:href="#DejaVuSans-73" transform="translate(559.4375 0)"/>
      <use xlink:href="#DejaVuSans-20" transform="translate(611.537109 0)"/>
      <use xlink:href="#DejaVuSans-28" transform="translate(643.324219 0)"/>
      <use xlink:href="#DejaVuSans-b5" transform="translate(682.337891 0)"/>
      <use xlink:href="#DejaVuSans-56" transform="translate(745.960938 0)"/>
      <use xlink:href="#DejaVuSans-29" transform="translate(814.369141 0)"/>
     </g>
    </g>
   </g>
   <g id="matplotlib.axis_2">
    <g id="ytick_1">
     <g id="line2d_3">
      <defs>
       <path id="m66e4ce7d9b" d="M 0 0 
L -3.5 0 
" style="stroke: #000000; stroke-width: 0.8"/>
      </defs>
      <g>
       <use xlink:href="#m66e4ce7d9b" x="86.024" y="411.944176" style="stroke: #000000; stroke-width: 0.8"/>
      </g>
     </g>
     <g id="text_4">
      <!-- 0 -->
      <g transform="translate(62.4815 421.822145) scale(0.26 -0.26)">
       <use xlink:href="#DejaVuSans-30"/>
      </g>
     </g>
    </g>
    <g id="ytick_2">
     <g id="line2d_4">
      <g>
       <use xlink:href="#m66e4ce7d9b" x="86.024" y="331.627692" style="stroke: #000000; stroke-width: 0.8"/>
      </g>
     </g>
     <g id="text_5">
      <!-- 1 -->
      <g transform="translate(62.4815 341.505661) scale(0.26 -0.26)">
       <defs>
        <path id="DejaVuSans-31" d="M 794 531 
L 1825 531 
L 1825 4091 
L 703 3866 
L 703 4441 
L 1819 4666 
L 2450 4666 
L 2450 531 
L 3481 531 
L 3481 0 
L 794 0 
L 794 531 
z
" transform="scale(0.015625)"/>
       </defs>
       <use xlink:href="#DejaVuSans-31"/>
      </g>
     </g>
    </g>
    <g id="ytick_3">
     <g id="line2d_5">
      <g>
       <use xlink:href="#m66e4ce7d9b" x="86.024" y="251.311209" style="stroke: #000000; stroke-width: 0.8"/>
      </g>
     </g>
     <g id="text_6">
      <!-- 2 -->
      <g transform="translate(62.4815 261.189178) scale(0.26 -0.26)">
       <defs>
        <path id="DejaVuSans-32" d="M 1228 531 
L 3431 531 
L 3431 0 
L 469 0 
L 469 531 
Q 828 903 1448 1529 
Q 2069 2156 2228 2338 
Q 2531 2678 2651 2914 
Q 2772 3150 2772 3378 
Q 2772 3750 2511 3984 
Q 2250 4219 1831 4219 
Q 1534 4219 1204 4116 
Q 875 4013 500 3803 
L 500 4441 
Q 881 4594 1212 4672 
Q 1544 4750 1819 4750 
Q 2544 4750 2975 4387 
Q 3406 4025 3406 3419 
Q 3406 3131 3298 2873 
Q 3191 2616 2906 2266 
Q 2828 2175 2409 1742 
Q 1991 1309 1228 531 
z
" transform="scale(0.015625)"/>
       </defs>
       <use xlink:href="#DejaVuSans-32"/>
      </g>
     </g>
    </g>
    <g id="ytick_4">
     <g id="line2d_6">
      <g>
       <use xlink:href="#m66e4ce7d9b" x="86.024" y="170.994725" style="stroke: #000000; stroke-width: 0.8"/>
      </g>
     </g>
     <g id="text_7">
      <!-- 3 -->
      <g transform="translate(62.4815 180.872694) scale(0.26 -0.26)">
       <defs>
        <path id="DejaVuSans-33" d="M 2597 2516 
Q 3050 2419 3304 2112 
Q 3559 1806 3559 1356 
Q 3559 666 3084 287 
Q 2609 -91 1734 -91 
Q 1441 -91 1130 -33 
Q 819 25 488 141 
L 488 750 
Q 750 597 1062 519 
Q 1375 441 1716 441 
Q 2309 441 2620 675 
Q 2931 909 2931 1356 
Q 2931 1769 2642 2001 
Q 2353 2234 1838 2234 
L 1294 2234 
L 1294 2753 
L 1863 2753 
Q 2328 2753 2575 2939 
Q 2822 3125 2822 3475 
Q 2822 3834 2567 4026 
Q 2313 4219 1838 4219 
Q 1578 4219 1281 4162 
Q 984 4106 628 3988 
L 628 4550 
Q 988 4650 1302 4700 
Q 1616 4750 1894 4750 
Q 2613 4750 3031 4423 
Q 3450 4097 3450 3541 
Q 3450 3153 3228 2886 
Q 3006 2619 2597 2516 
z
" transform="scale(0.015625)"/>
       </defs>
       <use xlink:href="#DejaVuSans-33"/>
      </g>
     </g>
    </g>
    <g id="ytick_5">
     <g id="line2d_7">
      <g>
       <use xlink:href="#m66e4ce7d9b" x="86.024" y="90.678242" style="stroke: #000000; stroke-width: 0.8"/>
      </g>
     </g>
     <g id="text_8">
      <!-- 4 -->
      <g transform="translate(62.4815 100.556211) scale(0.26 -0.26)">
       <defs>
        <path id="DejaVuSans-34" d="M 2419 4116 
L 825 1625 
L 2419 1625 
L 2419 4116 
z
M 2253 4666 
L 3047 4666 
L 3047 1625 
L 3713 1625 
L 3713 1100 
L 3047 1100 
L 3047 0 
L 2419 0 
L 2419 1100 
L 313 1100 
L 313 1709 
L 2253 4666 
z
" transform="scale(0.015625)"/>
       </defs>
       <use xlink:href="#DejaVuSans-34"/>
      </g>
     </g>
    </g>
    <g id="text_9">
     <!-- $\Delta S_i $  ($A^2/Hz$) -->
     <g transform="translate(53.074313 308.38) rotate(-90) scale(0.26 -0.26)">
      <defs>
       <path id="DejaVuSans-394" d="M 2188 4044 
L 906 525 
L 3472 525 
L 2188 4044 
z
M 50 0 
L 1831 4666 
L 2547 4666 
L 4325 0 
L 50 0 
z
" transform="scale(0.015625)"/>
       <path id="DejaVuSans-Oblique-53" d="M 3859 4513 
L 3738 3897 
Q 3422 4066 3111 4152 
Q 2800 4238 2509 4238 
Q 1944 4238 1609 3991 
Q 1275 3744 1275 3334 
Q 1275 3109 1398 2989 
Q 1522 2869 2034 2731 
L 2413 2638 
Q 3053 2472 3303 2217 
Q 3553 1963 3553 1503 
Q 3553 797 2998 353 
Q 2444 -91 1538 -91 
Q 1166 -91 791 -17 
Q 416 56 38 206 
L 166 856 
Q 513 641 861 531 
Q 1209 422 1556 422 
Q 2147 422 2503 684 
Q 2859 947 2859 1369 
Q 2859 1650 2717 1795 
Q 2575 1941 2106 2059 
L 1728 2156 
Q 1081 2325 845 2545 
Q 609 2766 609 3163 
Q 609 3859 1145 4304 
Q 1681 4750 2541 4750 
Q 2875 4750 3203 4690 
Q 3531 4631 3859 4513 
z
" transform="scale(0.015625)"/>
       <path id="DejaVuSans-Oblique-69" d="M 1172 4863 
L 1747 4863 
L 1606 4134 
L 1031 4134 
L 1172 4863 
z
M 909 3500 
L 1484 3500 
L 800 0 
L 225 0 
L 909 3500 
z
" transform="scale(0.015625)"/>
       <path id="DejaVuSans-Oblique-41" d="M 2356 4666 
L 3072 4666 
L 3938 0 
L 3278 0 
L 3084 1197 
L 984 1197 
L 325 0 
L -341 0 
L 2356 4666 
z
M 2584 4044 
L 1275 1722 
L 2988 1722 
L 2584 4044 
z
" transform="scale(0.015625)"/>
       <path id="DejaVuSans-2f" d="M 1625 4666 
L 2156 4666 
L 531 -594 
L 0 -594 
L 1625 4666 
z
" transform="scale(0.015625)"/>
       <path id="DejaVuSans-Oblique-48" d="M 1081 4666 
L 1716 4666 
L 1344 2753 
L 3634 2753 
L 4006 4666 
L 4641 4666 
L 3731 0 
L 3097 0 
L 3531 2222 
L 1241 2222 
L 806 0 
L 172 0 
L 1081 4666 
z
" transform="scale(0.015625)"/>
       <path id="DejaVuSans-Oblique-7a" d="M 744 3500 
L 3475 3500 
L 3372 2975 
L 738 459 
L 2913 459 
L 2822 0 
L -19 0 
L 84 525 
L 2719 3041 
L 653 3041 
L 744 3500 
z
" transform="scale(0.015625)"/>
      </defs>
      <use xlink:href="#DejaVuSans-394" transform="translate(0 0.765625)"/>
      <use xlink:href="#DejaVuSans-Oblique-53" transform="translate(68.408203 0.765625)"/>
      <use xlink:href="#DejaVuSans-Oblique-69" transform="translate(131.884766 -15.640625) scale(0.7)"/>
      <use xlink:href="#DejaVuSans-20" transform="translate(154.067383 0.765625)"/>
      <use xlink:href="#DejaVuSans-20" transform="translate(185.854492 0.765625)"/>
      <use xlink:href="#DejaVuSans-28" transform="translate(217.641602 0.765625)"/>
      <use xlink:href="#DejaVuSans-Oblique-41" transform="translate(256.655273 0.765625)"/>
      <use xlink:href="#DejaVuSans-32" transform="translate(332.080247 39.046875) scale(0.7)"/>
      <use xlink:href="#DejaVuSans-2f" transform="translate(379.350755 0.765625)"/>
      <use xlink:href="#DejaVuSans-Oblique-48" transform="translate(411.292161 0.765625)"/>
      <use xlink:href="#DejaVuSans-Oblique-7a" transform="translate(486.487474 0.765625)"/>
      <use xlink:href="#DejaVuSans-29" transform="translate(538.977708 0.765625)"/>
     </g>
    </g>
    <g id="text_10">
     <!-- 1e−27 -->
     <g transform="translate(86.024 47.52) scale(0.26 -0.26)">
      <defs>
       <path id="DejaVuSans-37" d="M 525 4666 
L 3525 4666 
L 3525 4397 
L 1831 0 
L 1172 0 
L 2766 4134 
L 525 4134 
L 525 4666 
z
" transform="scale(0.015625)"/>
      </defs>
      <use xlink:href="#DejaVuSans-31"/>
      <use xlink:href="#DejaVuSans-65" transform="translate(63.623047 0)"/>
      <use xlink:href="#DejaVuSans-2212" transform="translate(125.146484 0)"/>
      <use xlink:href="#DejaVuSans-32" transform="translate(208.935547 0)"/>
      <use xlink:href="#DejaVuSans-37" transform="translate(272.558594 0)"/>
     </g>
    </g>
   </g>
   <g id="line2d_8">
    <path d="M 103.746545 147.887379 
L 110.835564 156.992786 
L 117.924582 166.098193 
L 125.0136 175.2036 
L 132.102618 184.309006 
L 139.191636 193.414413 
L 146.280655 202.51982 
L 153.369673 211.625227 
L 160.458691 220.730634 
L 167.547709 229.83604 
L 174.636727 238.941447 
L 181.725745 248.046854 
L 188.814764 257.152261 
L 195.903782 266.257667 
L 202.9928 275.363074 
L 210.081818 284.468481 
L 217.170836 293.573888 
L 224.259855 302.679295 
L 231.348873 311.784701 
L 238.437891 320.890108 
L 245.526909 329.995515 
L 252.615927 339.100922 
L 259.704945 348.206328 
L 266.793964 357.311735 
L 273.882982 366.417142 
L 280.972 375.522549 
L 288.061018 384.627955 
L 295.150036 393.733362 
L 302.239055 402.838769 
L 309.328073 411.944176 
L 316.417091 402.838769 
L 323.506109 393.733362 
L 330.595127 384.627955 
L 337.684145 375.522549 
L 344.773164 366.417142 
L 351.862182 357.311735 
L 358.9512 348.206328 
L 366.040218 339.100922 
L 373.129236 329.995515 
L 380.218255 320.890108 
L 387.307273 311.784701 
L 394.396291 302.679295 
L 401.485309 293.573888 
L 408.574327 284.468481 
L 415.663345 275.363074 
L 422.752364 266.257667 
L 429.841382 257.152261 
L 436.9304 248.046854 
L 444.019418 238.941447 
L 451.108436 229.83604 
L 458.197455 220.730634 
" clip-path="url(#p08e2872962)" style="fill: none; stroke: #f9123c; stroke-width: 2.5; stroke-linecap: square"/>
   </g>
   <g id="patch_3">
    <path d="M 86.024 415.96 
L 86.024 50.52 
" style="fill: none; stroke: #000000; stroke-width: 0.8; stroke-linejoin: miter; stroke-linecap: square"/>
   </g>
   <g id="patch_4">
    <path d="M 475.92 415.96 
L 475.92 50.52 
" style="fill: none; stroke: #000000; stroke-width: 0.8; stroke-linejoin: miter; stroke-linecap: square"/>
   </g>
   <g id="patch_5">
    <path d="M 86.024 415.96 
L 475.92 415.96 
" style="fill: none; stroke: #000000; stroke-width: 0.8; stroke-linejoin: miter; stroke-linecap: square"/>
   </g>
   <g id="patch_6">
    <path d="M 86.024 50.52 
L 475.92 50.52 
" style="fill: none; stroke: #000000; stroke-width: 0.8; stroke-linejoin: miter; stroke-linecap: square"/>
   </g>
   <g id="legend_1">
    <g id="patch_7">
     <path d="M 153.52 147.64625 
L 457.72 147.64625 
Q 462.92 147.64625 462.92 142.44625 
L 462.92 68.72 
Q 462.92 63.52 457.72 63.52 
L 153.52 63.52 
Q 148.32 63.52 148.32 68.72 
L 148.32 142.44625 
Q 148.32 147.64625 153.52 147.64625 
z
" style="fill: #ffffff; opacity: 0.8; stroke: #cccccc; stroke-linejoin: miter"/>
    </g>
    <g id="line2d_9">
     <path d="M 158.72 84.575937 
L 184.72 84.575937 
L 210.72 84.575937 
" style="fill: none; stroke: #f9123c; stroke-width: 2.5; stroke-linecap: square"/>
    </g>
    <g id="text_11">
     <!-- $2e \tau (1 - \tau) G_0 V_\text{bias}$ -->
     <g transform="translate(231.52 93.675937) scale(0.26 -0.26)">
      <defs>
       <path id="DejaVuSans-Oblique-65" d="M 3078 2063 
Q 3088 2113 3092 2166 
Q 3097 2219 3097 2272 
Q 3097 2653 2873 2875 
Q 2650 3097 2266 3097 
Q 1838 3097 1509 2826 
Q 1181 2556 1013 2059 
L 3078 2063 
z
M 3578 1613 
L 903 1613 
Q 884 1494 878 1425 
Q 872 1356 872 1306 
Q 872 872 1139 634 
Q 1406 397 1894 397 
Q 2269 397 2603 481 
Q 2938 566 3225 728 
L 3116 159 
Q 2806 34 2476 -28 
Q 2147 -91 1806 -91 
Q 1078 -91 686 257 
Q 294 606 294 1247 
Q 294 1794 489 2264 
Q 684 2734 1063 3103 
Q 1306 3334 1642 3459 
Q 1978 3584 2356 3584 
Q 2950 3584 3301 3228 
Q 3653 2872 3653 2272 
Q 3653 2128 3634 1964 
Q 3616 1800 3578 1613 
z
" transform="scale(0.015625)"/>
       <path id="DejaVuSans-Oblique-3c4" d="M 2103 638 
Q 2188 488 2525 488 
L 2800 488 
L 2706 0 
L 2363 0 
Q 1800 0 1600 300 
Q 1403 606 1534 1269 
L 1856 2925 
L 541 2925 
L 653 3500 
L 3881 3500 
L 3769 2925 
L 2444 2925 
L 2113 1234 
Q 2025 781 2103 638 
z
" transform="scale(0.015625)"/>
       <path id="DejaVuSans-Oblique-47" d="M 3494 697 
L 3738 1919 
L 2700 1919 
L 2797 2438 
L 4453 2438 
L 4050 384 
Q 3634 156 3143 32 
Q 2653 -91 2156 -91 
Q 1278 -91 783 396 
Q 288 884 288 1753 
Q 288 2475 589 3126 
Q 891 3778 1422 4213 
Q 1756 4484 2153 4617 
Q 2550 4750 3034 4750 
Q 3472 4750 3873 4639 
Q 4275 4528 4641 4306 
L 4513 3634 
Q 4231 3928 3853 4083 
Q 3475 4238 3047 4238 
Q 2550 4238 2172 4048 
Q 1794 3859 1497 3463 
Q 1244 3125 1098 2667 
Q 953 2209 953 1734 
Q 953 1081 1287 751 
Q 1622 422 2284 422 
Q 2616 422 2925 492 
Q 3234 563 3494 697 
z
" transform="scale(0.015625)"/>
       <path id="DejaVuSans-Oblique-56" d="M 1319 0 
L 500 4666 
L 1119 4666 
L 1797 653 
L 4063 4666 
L 4750 4666 
L 2053 0 
L 1319 0 
z
" transform="scale(0.015625)"/>
      </defs>
      <use xlink:href="#DejaVuSans-32" transform="translate(0 0.125)"/>
      <use xlink:href="#DejaVuSans-Oblique-65" transform="translate(63.623047 0.125)"/>
      <use xlink:href="#DejaVuSans-Oblique-3c4" transform="translate(125.146484 0.125)"/>
      <use xlink:href="#DejaVuSans-28" transform="translate(185.351562 0.125)"/>
      <use xlink:href="#DejaVuSans-31" transform="translate(224.365234 0.125)"/>
      <use xlink:href="#DejaVuSans-2212" transform="translate(307.470703 0.125)"/>
      <use xlink:href="#DejaVuSans-Oblique-3c4" transform="translate(410.742188 0.125)"/>
      <use xlink:href="#DejaVuSans-29" transform="translate(470.947266 0.125)"/>
      <use xlink:href="#DejaVuSans-Oblique-47" transform="translate(509.960938 0.125)"/>
      <use xlink:href="#DejaVuSans-30" transform="translate(587.451172 -16.28125) scale(0.7)"/>
      <use xlink:href="#DejaVuSans-Oblique-56" transform="translate(634.72168 0.125)"/>
      <use xlink:href="#DejaVuSans-62" transform="translate(703.129883 -16.28125) scale(0.7)"/>
      <use xlink:href="#DejaVuSans-69" transform="translate(747.563477 -16.28125) scale(0.7)"/>
      <use xlink:href="#DejaVuSans-61" transform="translate(767.011719 -16.28125) scale(0.7)"/>
      <use xlink:href="#DejaVuSans-73" transform="translate(809.907227 -16.28125) scale(0.7)"/>
     </g>
    </g>
    <g id="PathCollection_1">
     <defs>
      <path id="mbabb5ce0ba" d="M 0 5.477226 
C 1.452577 5.477226 2.845856 4.900111 3.872983 3.872983 
C 4.900111 2.845856 5.477226 1.452577 5.477226 0 
C 5.477226 -1.452577 4.900111 -2.845856 3.872983 -3.872983 
C 2.845856 -4.900111 1.452577 -5.477226 0 -5.477226 
C -1.452577 -5.477226 -2.845856 -4.900111 -3.872983 -3.872983 
C -4.900111 -2.845856 -5.477226 -1.452577 -5.477226 0 
C -5.477226 1.452577 -4.900111 2.845856 -3.872983 3.872983 
C -2.845856 4.900111 -1.452577 5.477226 0 5.477226 
z
" style="stroke: #122d8d"/>
     </defs>
     <g>
      <use xlink:href="#mbabb5ce0ba" x="184.72" y="125.014062" style="fill: #122d8d; stroke: #122d8d"/>
     </g>
    </g>
    <g id="text_12">
     <!-- Fit -->
     <g transform="translate(231.52 131.839062) scale(0.26 -0.26)">
      <defs>
       <path id="DejaVuSans-46" d="M 628 4666 
L 3309 4666 
L 3309 4134 
L 1259 4134 
L 1259 2759 
L 3109 2759 
L 3109 2228 
L 1259 2228 
L 1259 0 
L 628 0 
L 628 4666 
z
" transform="scale(0.015625)"/>
      </defs>
      <use xlink:href="#DejaVuSans-46"/>
      <use xlink:href="#DejaVuSans-69" transform="translate(50.269531 0)"/>
      <use xlink:href="#DejaVuSans-74" transform="translate(78.052734 0)"/>
     </g>
    </g>
   </g>
   <g id="PathCollection_2">
    <g clip-path="url(#p08e2872962)">
     <use xlink:href="#mbabb5ce0ba" x="103.746545" y="214.499116" style="fill: #122d8d; stroke: #122d8d"/>
     <use xlink:href="#mbabb5ce0ba" x="110.835564" y="224.526487" style="fill: #122d8d; stroke: #122d8d"/>
     <use xlink:href="#mbabb5ce0ba" x="117.924582" y="227.879874" style="fill: #122d8d; stroke: #122d8d"/>
     <use xlink:href="#mbabb5ce0ba" x="125.0136" y="236.270803" style="fill: #122d8d; stroke: #122d8d"/>
     <use xlink:href="#mbabb5ce0ba" x="132.102618" y="246.037617" style="fill: #122d8d; stroke: #122d8d"/>
     <use xlink:href="#mbabb5ce0ba" x="139.191636" y="245.602266" style="fill: #122d8d; stroke: #122d8d"/>
     <use xlink:href="#mbabb5ce0ba" x="146.280655" y="254.593938" style="fill: #122d8d; stroke: #122d8d"/>
     <use xlink:href="#mbabb5ce0ba" x="153.369673" y="258.84997" style="fill: #122d8d; stroke: #122d8d"/>
     <use xlink:href="#mbabb5ce0ba" x="160.458691" y="261.403351" style="fill: #122d8d; stroke: #122d8d"/>
     <use xlink:href="#mbabb5ce0ba" x="167.547709" y="275.737355" style="fill: #122d8d; stroke: #122d8d"/>
     <use xlink:href="#mbabb5ce0ba" x="174.636727" y="273.68674" style="fill: #122d8d; stroke: #122d8d"/>
     <use xlink:href="#mbabb5ce0ba" x="181.725745" y="275.037726" style="fill: #122d8d; stroke: #122d8d"/>
     <use xlink:href="#mbabb5ce0ba" x="188.814764" y="285.00772" style="fill: #122d8d; stroke: #122d8d"/>
     <use xlink:href="#mbabb5ce0ba" x="195.903782" y="291.83356" style="fill: #122d8d; stroke: #122d8d"/>
     <use xlink:href="#mbabb5ce0ba" x="202.9928" y="311.05562" style="fill: #122d8d; stroke: #122d8d"/>
     <use xlink:href="#mbabb5ce0ba" x="210.081818" y="316.411731" style="fill: #122d8d; stroke: #122d8d"/>
     <use xlink:href="#mbabb5ce0ba" x="217.170836" y="318.527561" style="fill: #122d8d; stroke: #122d8d"/>
     <use xlink:href="#mbabb5ce0ba" x="224.259855" y="335.712145" style="fill: #122d8d; stroke: #122d8d"/>
     <use xlink:href="#mbabb5ce0ba" x="231.348873" y="342.149265" style="fill: #122d8d; stroke: #122d8d"/>
     <use xlink:href="#mbabb5ce0ba" x="238.437891" y="336.53782" style="fill: #122d8d; stroke: #122d8d"/>
     <use xlink:href="#mbabb5ce0ba" x="245.526909" y="340.752313" style="fill: #122d8d; stroke: #122d8d"/>
     <use xlink:href="#mbabb5ce0ba" x="252.615927" y="352.09979" style="fill: #122d8d; stroke: #122d8d"/>
     <use xlink:href="#mbabb5ce0ba" x="259.704945" y="360.541688" style="fill: #122d8d; stroke: #122d8d"/>
     <use xlink:href="#mbabb5ce0ba" x="266.793964" y="363.922637" style="fill: #122d8d; stroke: #122d8d"/>
     <use xlink:href="#mbabb5ce0ba" x="273.882982" y="379.668352" style="fill: #122d8d; stroke: #122d8d"/>
     <use xlink:href="#mbabb5ce0ba" x="280.972" y="382.381467" style="fill: #122d8d; stroke: #122d8d"/>
     <use xlink:href="#mbabb5ce0ba" x="288.061018" y="389.992042" style="fill: #122d8d; stroke: #122d8d"/>
     <use xlink:href="#mbabb5ce0ba" x="295.150036" y="389.687262" style="fill: #122d8d; stroke: #122d8d"/>
     <use xlink:href="#mbabb5ce0ba" x="302.239055" y="395.261605" style="fill: #122d8d; stroke: #122d8d"/>
     <use xlink:href="#mbabb5ce0ba" x="309.328073" y="411.944176" style="fill: #122d8d; stroke: #122d8d"/>
     <use xlink:href="#mbabb5ce0ba" x="316.417091" y="398.961192" style="fill: #122d8d; stroke: #122d8d"/>
     <use xlink:href="#mbabb5ce0ba" x="323.506109" y="395.628651" style="fill: #122d8d; stroke: #122d8d"/>
     <use xlink:href="#mbabb5ce0ba" x="330.595127" y="396.995503" style="fill: #122d8d; stroke: #122d8d"/>
     <use xlink:href="#mbabb5ce0ba" x="337.684145" y="385.654177" style="fill: #122d8d; stroke: #122d8d"/>
     <use xlink:href="#mbabb5ce0ba" x="344.773164" y="391.777159" style="fill: #122d8d; stroke: #122d8d"/>
     <use xlink:href="#mbabb5ce0ba" x="351.862182" y="376.430491" style="fill: #122d8d; stroke: #122d8d"/>
     <use xlink:href="#mbabb5ce0ba" x="358.9512" y="364.478508" style="fill: #122d8d; stroke: #122d8d"/>
     <use xlink:href="#mbabb5ce0ba" x="366.040218" y="348.987929" style="fill: #122d8d; stroke: #122d8d"/>
     <use xlink:href="#mbabb5ce0ba" x="373.129236" y="344.917263" style="fill: #122d8d; stroke: #122d8d"/>
     <use xlink:href="#mbabb5ce0ba" x="380.218255" y="336.573465" style="fill: #122d8d; stroke: #122d8d"/>
     <use xlink:href="#mbabb5ce0ba" x="387.307273" y="326.720131" style="fill: #122d8d; stroke: #122d8d"/>
     <use xlink:href="#mbabb5ce0ba" x="394.396291" y="319.897664" style="fill: #122d8d; stroke: #122d8d"/>
     <use xlink:href="#mbabb5ce0ba" x="401.485309" y="310.646213" style="fill: #122d8d; stroke: #122d8d"/>
     <use xlink:href="#mbabb5ce0ba" x="408.574327" y="302.483691" style="fill: #122d8d; stroke: #122d8d"/>
     <use xlink:href="#mbabb5ce0ba" x="415.663345" y="294.948591" style="fill: #122d8d; stroke: #122d8d"/>
     <use xlink:href="#mbabb5ce0ba" x="422.752364" y="293.791305" style="fill: #122d8d; stroke: #122d8d"/>
     <use xlink:href="#mbabb5ce0ba" x="429.841382" y="281.851279" style="fill: #122d8d; stroke: #122d8d"/>
     <use xlink:href="#mbabb5ce0ba" x="436.9304" y="268.013515" style="fill: #122d8d; stroke: #122d8d"/>
     <use xlink:href="#mbabb5ce0ba" x="444.019418" y="261.22973" style="fill: #122d8d; stroke: #122d8d"/>
     <use xlink:href="#mbabb5ce0ba" x="451.108436" y="259.727585" style="fill: #122d8d; stroke: #122d8d"/>
     <use xlink:href="#mbabb5ce0ba" x="458.197455" y="258.944819" style="fill: #122d8d; stroke: #122d8d"/>
    </g>
   </g>
  </g>
 </g>
 <defs>
  <clipPath id="p08e2872962">
   <rect x="86.024" y="50.52" width="389.896" height="365.44"/>
  </clipPath>
 </defs>
</svg>
